<?xml version="1.0" encoding="utf-8"?>
<svg width="24" height="24" viewBox="0 0 24 24" version="1.1" xmlns="http://www.w3.org/2000/svg">
<polygon fill-rule="evenodd" clip-rule="evenodd" fill="#CA2317" points="15.7,9.3 20.4,7.8 17.6,9.6 "/>
<polygon fill-rule="evenodd" clip-rule="evenodd" fill="#E84F83" points="18.6,12.8 17.6,9.6 20.4,7.8 19.6,10.7 "/>
<polygon fill-rule="evenodd" clip-rule="evenodd" fill="#CA2317" points="21.8,6.9 21.3,7.8 19.6,10.7 20.4,7.8 "/>
<polygon fill-rule="evenodd" clip-rule="evenodd" fill="#E54011" points="22,7.5 20.7,8.9 21.3,7.8 "/>
<polygon fill-rule="evenodd" clip-rule="evenodd" fill="#E54011" points="16,8.4 19.9,8 17.2,8.8 "/>
<polygon fill-rule="evenodd" clip-rule="evenodd" fill="#CA2317" points="16.1,10.6 17.6,9.6 18.6,12.8 18.1,13.8 "/>
<polygon fill-rule="evenodd" clip-rule="evenodd" fill="#B7DFF2" points="13.9,14.4 13.2,5.6 18.1,13.8 "/>
<polygon fill-rule="evenodd" clip-rule="evenodd" fill="#E54011" points="11.9,16.6 13.9,14.4 18.1,13.8 "/>
<polygon fill-rule="evenodd" clip-rule="evenodd" fill="#FFCE33" points="2,21 11.9,16.6 13.9,14.4 10.7,14 "/>
<polygon fill-rule="evenodd" clip-rule="evenodd" fill="#D6B12D" points="2.4,17.4 7.4,16.6 9,15.4 8.3,15 "/>
<polygon fill-rule="evenodd" clip-rule="evenodd" fill="#FFDE85" points="4.2,13.3 9,15.4 10.7,14 "/>
<polygon fill-rule="evenodd" clip-rule="evenodd" fill="#009EC6" points="12.8,8.8 12.2,8.9 10.7,14 12.3,13 "/>
<polygon fill-rule="evenodd" clip-rule="evenodd" fill="#5EAFCE" points="13.7,12.1 12.3,13 13.2,5.6 "/>
<polygon fill-rule="evenodd" clip-rule="evenodd" fill="#045972" points="8.5,9.5 12.8,8.8 13,7.1 "/>
<polygon fill-rule="evenodd" clip-rule="evenodd" fill="#5A8591" points="8,5.5 11.8,7.7 13,7.1 13.1,6.8 "/>
<polygon fill-rule="evenodd" clip-rule="evenodd" fill="#009EC6" points="8.8,3 12.2,6.6 13.1,6.8 13.2,5.6 "/>
<polygon fill-rule="evenodd" clip-rule="evenodd" fill="#F39804" points="10.7,14 13.7,12.1 13.9,14.4 "/>
</svg>
