<?xml version="1.0" encoding="UTF-8"?>
<svg width="33" height="32" viewBox="0 0 33 32" fill="none" xmlns="http://www.w3.org/2000/svg">
<path fill-rule="evenodd" clip-rule="evenodd" d="M22.3346 14.6667V19.1389L24.4319 23.3334H8.23737L10.3346 19.1389V14.6667C10.3346 11.2576 12.0767 8.83042 14.7957 8.18619L14.8248 8.1793L14.8464 8.1735L14.8546 8.17145C14.8672 8.16834 14.8915 8.16247 14.9263 8.15472C14.9962 8.13915 15.1065 8.11638 15.2471 8.09305C15.533 8.04559 15.9197 8 16.3346 8C16.7496 8 17.1362 8.04559 17.4222 8.09305C17.5628 8.11638 17.673 8.13915 17.7429 8.15472C17.7777 8.16247 17.8021 8.16834 17.8147 8.17145L17.8229 8.1735L17.8437 8.1791L17.872 8.18583C20.5804 8.82979 22.3346 11.2727 22.3346 14.6667ZM27.0013 25.3334V24.0001L24.3346 18.6667V14.6667C24.3346 10.5734 22.148 7.14674 18.3346 6.24007C18.3346 6.24007 17.4413 6 16.3346 6C15.228 6 14.3346 6.24007 14.3346 6.24007C10.508 7.14674 8.33464 10.5601 8.33464 14.6667V18.6667L5.66797 24.0001V25.3334H12.668C12.668 27.3491 14.2991 29 16.3346 29C18.3536 29 20.0013 27.3523 20.0013 25.3334H27.0013ZM18.0013 25.3334H14.668C14.668 26.251 15.4102 27 16.3346 27C17.249 27 18.0013 26.2478 18.0013 25.3334Z" fill="currentColor"/>
</svg>
