<?xml version="1.0" encoding="UTF-8"?>
<svg width="16px" height="16px" viewBox="0 0 16 16" version="1.1" xmlns="http://www.w3.org/2000/svg" xmlns:xlink="http://www.w3.org/1999/xlink">
    <!-- Generator: Sketch 46.2 (44496) - http://www.bohemiancoding.com/sketch -->
    <title>chain</title>
    <desc>Created with Sketch.</desc>
    <defs></defs>
    <g id="Page-1" stroke="none" stroke-width="1" fill="none" fill-rule="evenodd">
        <g id="chain" fill="#50E3C2">
            <g transform="translate(8.131728, 7.833751) rotate(-45.000000) translate(-8.131728, -7.833751) translate(4.631728, -0.166249)">
                <path d="M2,0 L4.57534247,0 L4.57534247,-2.22044605e-16 C5.67991197,-4.2495073e-16 6.57534247,0.8954305 6.57534247,2 L6.57534247,5.45205479 L6.57534247,5.45205479 C6.57534247,6.55662429 5.67991197,7.45205479 4.57534247,7.45205479 L2,7.45205479 C0.8954305,7.45205479 1.3527075e-16,6.55662429 0,5.45205479 L0,2 L0,2 C-1.3527075e-16,0.8954305 0.8954305,-1.91384796e-17 2,-2.22044605e-16 L2,0 Z M2,8.54794521 L4.57534247,8.54794521 C5.67991197,8.54794521 6.57534247,9.44337571 6.57534247,10.5479452 L6.57534247,14 C6.57534247,15.1045695 5.67991197,16 4.57534247,16 L2,16 C0.8954305,16 6.25798147e-16,15.1045695 0,14 L0,10.5479452 C-1.3527075e-16,9.44337571 0.8954305,8.54794521 2,8.54794521 L2,8.54794521 Z M2.53424658,1.75342466 C1.98196183,1.75342466 1.53424658,2.20113991 1.53424658,2.75342466 L1.53424658,4.69863014 C1.53424658,5.25091489 1.98196183,5.69863014 2.53424658,5.69863014 L4.04109589,5.69863014 C4.59338064,5.69863014 5.04109589,5.25091489 5.04109589,4.69863014 L5.04109589,2.75342466 C5.04109589,2.20113991 4.59338064,1.75342466 4.04109589,1.75342466 L2.53424658,1.75342466 Z M2.53424658,10.3013699 C1.98196183,10.3013699 1.53424658,10.7490851 1.53424658,11.3013699 L1.53424658,13.2465753 C1.53424658,13.7988601 1.98196183,14.2465753 2.53424658,14.2465753 L4.04109589,14.2465753 C4.59338064,14.2465753 5.04109589,13.7988601 5.04109589,13.2465753 L5.04109589,11.3013699 C5.04109589,10.7490851 4.59338064,10.3013699 4.04109589,10.3013699 L2.53424658,10.3013699 Z"></path>
                <rect x="2.4109589" y="4.38356164" width="1.75342466" height="7.23287671" rx="0.876712329"></rect>
            </g>
        </g>
    </g>
</svg>