<?xml version="1.0" encoding="UTF-8" standalone="no"?>
<svg width="10px" height="10px" viewBox="0 0 10 10" version="1.1" xmlns="http://www.w3.org/2000/svg" xmlns:xlink="http://www.w3.org/1999/xlink" xmlns:sketch="http://www.bohemiancoding.com/sketch/ns">
    <!-- Generator: Sketch 3.3.2 (12043) - http://www.bohemiancoding.com/sketch -->
    <title>checkbox-checked</title>
    <desc>Created with Sketch.</desc>
    <defs></defs>
    <g id="Page-1" stroke="none" stroke-width="1" fill="none" fill-rule="evenodd" sketch:type="MSPage">
        <g id="checkbox-checked" sketch:type="MSArtboardGroup" fill="#000000">
            <path d="M9,1 L9,9 L1,9 L1,1 L9,1 Z M0,0 L0,0.5 L0,9.5 L0,10 L0.5,10 L9.5,10 L10,10 L10,9.5 L10,0.5 L10,0 L9.5,0 L0.5,0 L0,0 Z M3.79999999,5.89999999 L2.09999999,4.39999999 L1.39999999,5.09999999 L4.29999999,8.59999999 C4.79999999,7.09999999 6.39999999,4.19999999 8.29999999,2.09999999 L8.09999999,1.49999999 C5.99999999,2.99999999 4.39999999,4.89999999 3.79999999,5.89999999 L3.79999999,5.89999999 L3.79999999,5.89999999 Z" sketch:type="MSShapeGroup"></path>
        </g>
    </g>
</svg>