<?xml version="1.0" encoding="UTF-8"?>
<svg width="11px" height="11px" viewBox="0 0 11 11" version="1.1" xmlns="http://www.w3.org/2000/svg" xmlns:xlink="http://www.w3.org/1999/xlink">
    <!-- Generator: Sketch 40.2 (33826) - http://www.bohemiancoding.com/sketch -->
    <title>checkbox-checked</title>
    <desc>Created with Sketch.</desc>
    <defs></defs>
    <g id="Page-1" stroke="none" stroke-width="1" fill="none" fill-rule="evenodd">
        <g id="checkbox-checked">
            <polygon id="Path-Copy" fill="#50E3C2" points="11 0 0 0 0 11 11 11"></polygon>
            <path d="M0,0 L0,0.55 L0,10.45 L0,11 L0.55,11 L10.45,11 L11,11 L11,10.45 L11,0.55 L11,0 L10.45,0 L0.55,0 L0,0 Z M10,1 L10,10 L1,10 L1,1 L10,1 Z" id="Path" fill="#BD0FE1"></path>
            <path d="M4.27323943,6.76760563 L2.23802816,4.97183098 L1.39999999,5.80985915 L4.87183098,10 C5.47042253,8.20422535 7.38591549,4.73239436 9.66056338,2.21830985 L9.42112676,1.49999999 C6.90704225,3.29577464 4.99154929,5.57042253 4.27323943,6.76760563 L4.27323943,6.76760563 L4.27323943,6.76760563 Z" id="Shape" fill="#000000"></path>
        </g>
    </g>
</svg>