<?xml version="1.0" encoding="UTF-8"?>
<svg width="16px" height="14px" viewBox="0 0 16 14" version="1.1" xmlns="http://www.w3.org/2000/svg" xmlns:xlink="http://www.w3.org/1999/xlink">
<path d="M1 1C1 0.447715 1.44892 0 2.00748 0H14.9925C15.5489 0 16 0.443865 16 1C16 1.55228 15.5511 2 14.9925 2H2.00748C1.45107 2 1 1.55614 1 1Z" fill="#50E3C2"/>
<path d="M8 5C8 4.44772 8.44631 4 8.99754 4H15.0025C15.5534 4 16 4.44386 16 5C16 5.55228 15.5537 6 15.0025 6H8.99754C8.44662 6 8 5.55614 8 5Z" fill="#50E3C2"/>
<path d="M8 9C8 8.44771 8.44631 8 8.99754 8H15.0025C15.5534 8 16 8.44386 16 9C16 9.55229 15.5537 10 15.0025 10H8.99754C8.44662 10 8 9.55614 8 9Z" fill="#50E3C2"/>
<path d="M1 13C1 12.4477 1.44892 12 2.00748 12H14.9925C15.5489 12 16 12.4439 16 13C16 13.5523 15.5511 14 14.9925 14H2.00748C1.45107 14 1 13.5561 1 13Z" fill="#50E3C2"/>
<path d="M1.29196 6.60768L2.34786 7.51311C2.72053 6.90949 3.71432 5.76261 5.01867 4.85718L5.14289 5.21935C3.96277 6.48696 2.96898 8.23746 2.65842 9.14289L0.857178 7.03022L1.29196 6.60768Z" fill="#50E3C2"/>
<path fill-rule="evenodd" clip-rule="evenodd" d="M6 4V10H0V4H6ZM5.45455 4.54545H0.545455V9.45455H5.45455V4.54545Z" fill="#50E3C2"/>
</svg>
