<svg width="16" height="14" viewBox="0 0 16 14" fill="none" xmlns="http://www.w3.org/2000/svg">
<path fill-rule="evenodd" clip-rule="evenodd" d="M0 7.23526C0 7.23526 2.71442 9.76088 5.9292 13.2405C6.11021 13.4364 6.29281 13.6354 6.4766 13.8371C6.59196 13.5907 6.70895 13.348 6.82736 13.1091C10.6191 5.45638 15.8632 1.59579 15.8632 1.59579V0C15.8632 0 15.5891 0.120817 15.1132 0.371453C13.4525 1.24605 9.33461 3.7014 5.83142 8.11998C5.67549 8.31665 5.52078 8.51721 5.36757 8.72169C5.36757 8.72169 5.1613 8.49896 4.84044 8.17487C4.12923 7.45652 2.85501 6.24016 2.01596 5.8474C0.798385 5.27745 0 7.23526 0 7.23526ZM4.81735 9.23135L5.42843 9.89121L5.96777 9.17142C8.19797 6.19506 10.7561 4.0681 12.7598 2.68488C13.7002 2.03565 14.5156 1.55221 15.1132 1.22332V1.23009C14.947 1.36405 14.7177 1.55444 14.4371 1.80114C13.8367 2.32896 13.0009 3.11524 12.0454 4.1591C10.2916 6.07495 8.13007 8.86371 6.28369 12.5195C4.83294 10.9567 3.49459 9.59667 2.47327 8.58453C1.87576 7.9924 1.38628 7.51885 1.04568 7.19287C1.00446 7.15342 0.965413 7.11612 0.928621 7.08104C0.986613 6.98998 1.05271 6.89673 1.12533 6.81039C1.26192 6.64802 1.38464 6.55441 1.47784 6.51525C1.54146 6.48851 1.598 6.47985 1.698 6.52666C2.18121 6.75285 2.93659 7.38574 3.63351 8.04365C3.96672 8.35821 4.26383 8.65631 4.47783 8.87603C4.58466 8.98571 4.67034 9.0754 4.72895 9.13729C4.75825 9.16823 4.78076 9.19219 4.79574 9.20819L4.81245 9.22609L4.81639 9.23032L4.81735 9.23135ZM0.693622 7.52055C0.69336 7.52117 0.693521 7.52079 0.693622 7.52055Z" fill="#50E3C2"/>
</svg>
