<?xml version="1.0" encoding="UTF-8"?>
<svg width="16px" height="16px" viewBox="0 0 16 16" version="1.1" xmlns="http://www.w3.org/2000/svg" xmlns:xlink="http://www.w3.org/1999/xlink">
    <!-- Generator: Sketch 40.2 (33826) - http://www.bohemiancoding.com/sketch -->
    <title>clipboard</title>
    <desc>Created with Sketch.</desc>
    <defs></defs>
    <g id="Page-1" stroke="none" stroke-width="1" fill="none" fill-rule="evenodd">
        <g id="clipboard" fill="#50E3C2">
            <path d="M5,3.00000001 L5,1.501231 C5,1.219729 5.2226871,1 5.4973856,1 L13.5026144,1 C13.7745373,1 14,1.2244085 14,1.501231 L14,11.498769 C14,11.780271 13.7773129,12 13.5026144,12 L12,12 L12,10 L12.4623449,10 C12.7592836,10 13,9.7780675 13,9.5 C13,9.2238575 12.7590441,9 12.4623449,9 L12,9 L12,8 L12.4623449,8 C12.7592836,8 13,7.7780675 13,7.5 C13,7.2238575 12.7590441,7 12.4623449,7 L12,7 L12,6 L12.4623449,6 C12.7592836,6 13,5.7780675 13,5.5 C13,5.2238575 12.7590441,5 12.4623449,5 L12,5 L12,3.50123101 C12,3.22440851 11.7745373,3.00000001 11.5026144,3.00000001 L10.4459054,3.00000001 C10.4458729,3 10.4458407,3 10.4458086,3 L6.55419144,3 C6.55415915,3 6.55412686,3 6.55409457,3.00000001 L5,3.00000001 Z M2,4.501231 L2,14.498769 C2,14.7755915 2.2254627,15 2.4973856,15 L10.5026144,15 C10.7773129,15 11,14.780271 11,14.498769 L11,4.501231 C11,4.2244085 10.7745373,4 10.5026144,4 L2.4973856,4 C2.2226871,4 2,4.219729 2,4.501231 Z M3.55419144,6 C3.24812,6 3,6.2219325 3,6.5 C3,6.7761425 3.24795078,7 3.55419144,7 L7.44580856,7 C7.75188,7 8,6.7780675 8,6.5 C8,6.2238575 7.75204922,6 7.44580856,6 L3.55419144,6 Z M3.53765507,8 C3.2407164,8 3,8.2219325 3,8.5 C3,8.7761425 3.24095582,9 3.53765507,9 L9.46234487,9 C9.7592836,9 10,8.7780675 10,8.5 C10,8.2238575 9.75904413,8 9.46234487,8 L3.53765507,8 Z M3.53765507,10 C3.2407164,10 3,10.2219325 3,10.5 C3,10.7761425 3.24095582,11 3.53765507,11 L9.46234487,11 C9.7592836,11 10,10.7780675 10,10.5 C10,10.2238575 9.75904413,10 9.46234487,10 L3.53765507,10 Z M3.53765507,12 C3.2407164,12 3,12.2219325 3,12.5 C3,12.7761425 3.24095582,13 3.53765507,13 L9.46234487,13 C9.7592836,13 10,12.7780675 10,12.5 C10,12.2238575 9.75904413,12 9.46234487,12 L3.53765507,12 Z" id="templates"></path>
        </g>
    </g>
</svg>