<?xml version="1.0" encoding="UTF-8"?>
<svg width="16px" height="16px" viewBox="0 0 16 16" version="1.1" xmlns="http://www.w3.org/2000/svg" xmlns:xlink="http://www.w3.org/1999/xlink">
    <!-- Generator: Sketch 40.2 (33826) - http://www.bohemiancoding.com/sketch -->
    <title>clock</title>
    <desc>Created with Sketch.</desc>
    <defs></defs>
    <g id="Page-1" stroke="none" stroke-width="1" fill="none" fill-rule="evenodd">
        <g id="clock">
            <path d="M7.5,14 C11.0898509,14 14,11.0898509 14,7.5 C14,3.91014913 11.0898509,1 7.5,1 C3.91014913,1 1,3.91014913 1,7.5 C1,11.0898509 3.91014913,14 7.5,14 Z M7.5,13.0714286 C10.577015,13.0714286 13.0714286,10.577015 13.0714286,7.5 C13.0714286,4.42298497 10.577015,1.92857143 7.5,1.92857143 C4.42298497,1.92857143 1.92857143,4.42298497 1.92857143,7.5 C1.92857143,10.577015 4.42298497,13.0714286 7.5,13.0714286 Z" id="Oval-20" fill="#50E3C2"></path>
            <polyline id="Path-321" stroke="#50E3C2" stroke-linecap="round" stroke-linejoin="round" points="7.5 3.51624297 7.5 7.53797482 10.5091772 10.5047808"></polyline>
        </g>
    </g>
</svg>