<?xml version="1.0" encoding="UTF-8" standalone="no"?>
<svg width="16px" height="16px" viewBox="0 0 16 16" version="1.1" xmlns="http://www.w3.org/2000/svg" xmlns:xlink="http://www.w3.org/1999/xlink" xmlns:sketch="http://www.bohemiancoding.com/sketch/ns">
    <!-- Generator: Sketch 3.3 (11970) - http://www.bohemiancoding.com/sketch -->
    <title>clock</title>
    <desc>Created with Sketch.</desc>
    <defs></defs>
    <g id="Page-1" stroke="none" stroke-width="1" fill="none" fill-rule="evenodd" sketch:type="MSPage">
        <g id="clock" sketch:type="MSArtboardGroup" fill="#50E3C2">
            <path d="M7.5414375,2.08125 C3.9739125,2.08125 1.08125,4.971963 1.08125,8.53965 C1.08125,12.107338 3.9739125,15 7.5414375,15 C11.1073375,15 14,12.107338 14,8.53965 C14,4.971963 11.1073375,2.08125 7.5414375,2.08125 L7.5414375,2.08125 L7.5414375,2.08125 Z M7.5472875,13.699675 C4.6603125,13.699675 2.313,11.371375 2.313,8.509262 C2.313,5.64715 4.6603125,3.3208 7.5472875,3.3208 C10.432475,3.3208 12.781575,5.64715 12.781575,8.509262 C12.781575,11.371375 10.432475,13.699675 7.5472875,13.699675 Z M11.0845875,8.312637 L12.358263,8.312637 C12.335188,7.790362 12.230538,7.290675 12.053088,6.825437 L11.465975,7.0752 L11.334188,6.770187 L11.923575,6.520425 C11.708263,6.056975 11.419988,5.631875 11.0732125,5.261862 L10.58685,5.744325 L10.352525,5.509837 L10.836775,5.027375 C10.5106375,4.72415 10.140625,4.4648 9.7364875,4.258912 L9.4657625,4.859512 L9.1605875,4.72415 L9.43505,4.117862 C8.912775,3.8967 8.34435,3.765075 7.7474875,3.740212 L7.7474875,5.1304 L7.413875,5.1304 L7.413875,3.738425 C6.8916,3.75175 6.3899625,3.848925 5.922775,4.016787 L6.2489125,4.75665 L5.94195,4.888112 L5.6119125,4.138825 C5.13725,4.344875 4.70435,4.625025 4.3268625,4.966437 L4.87595,5.509837 L4.63935,5.744325 L4.084575,5.195075 C3.7584375,5.52885 3.482025,5.910075 3.2663875,6.3277 L4.0444375,6.661475 L3.907125,6.96275 L3.1233875,6.627187 C2.8945875,7.147837 2.7590625,7.717887 2.7343625,8.31475 L4.2084,8.3128 L4.2084,8.642675 L2.7343625,8.646575 C2.7496375,9.230112 2.871675,9.784725 3.0834125,10.297575 L3.851875,9.965912 L3.9835,10.270925 L3.2208875,10.599012 C3.428725,11.026225 3.7014,11.417037 4.0275375,11.760237 L4.5919,11.230162 L4.8283375,11.46465 L4.262025,11.996512 C4.6281375,12.335975 5.04755,12.618075 5.5072625,12.829813 L5.8295,12.105225 L6.132725,12.242537 L5.812275,12.961437 C6.3119625,13.154162 6.8514625,13.264662 7.413875,13.279937 L7.413875,11.89365 L7.7474875,11.89365 L7.7474875,13.27815 C8.3347625,13.255237 8.8973375,13.127512 9.41425,12.910088 L9.1588,12.318912 L9.4638125,12.189237 L9.715525,12.768712 C10.146475,12.553237 10.539075,12.274875 10.8843875,11.94695 L10.464975,11.531275 L10.7014125,11.296787 L11.1170875,11.708563 C11.437375,11.357725 11.704363,10.9609 11.910413,10.526375 L11.33825,10.27255 L11.4754,9.969487 L12.041875,10.221362 C12.232488,9.729312 12.34315,9.197125 12.358263,8.64235 L11.0845875,8.64235 L11.0845875,8.312637 Z M10.0415,10.930837 C9.8850125,11.085375 9.631675,11.085375 9.475025,10.928887 L7.528275,9.216625 C7.3509875,9.037387 7.1468875,8.921037 7.1468875,8.568412 L7.1468875,6.278137 C7.1468875,6.039912 7.3414,5.847187 7.5797875,5.847187 C7.820125,5.847187 8.0148,6.039912 8.0148,6.278137 L8.0148,8.552975 L10.04345,10.368262 C10.1996125,10.5228 10.1976625,10.774512 10.0415,10.930837 Z" id="clock-tab-dark" sketch:type="MSShapeGroup"></path>
        </g>
    </g>
</svg>