<?xml version="1.0" encoding="UTF-8"?>
<svg width="16px" height="16px" viewBox="0 0 16 16" version="1.1" xmlns="http://www.w3.org/2000/svg" xmlns:xlink="http://www.w3.org/1999/xlink">
    <!-- Generator: Sketch 54 (76480) - https://sketchapp.com -->
    <title>clock</title>
    <desc>Created with Sketch.</desc>
    <g id="clock" stroke="none" stroke-width="1" fill="none" fill-rule="evenodd">
        <path d="M7.5,14 C3.91014913,14 1,11.0898509 1,7.5 C1,3.91014913 3.91014913,1 7.5,1 C11.0898509,1 14,3.91014913 14,7.5 C14,11.0898509 11.0898509,14 7.5,14 Z M7.5,13.0714286 C10.577015,13.0714286 13.0714286,10.577015 13.0714286,7.5 C13.0714286,4.42298497 10.577015,1.92857143 7.5,1.92857143 C4.42298497,1.92857143 1.92857143,4.42298497 1.92857143,7.5 C1.92857143,10.577015 4.42298497,13.0714286 7.5,13.0714286 Z" id="Oval-20" fill="#50E3C2"></path>
        <path d="M8,7.32878832 L8,3.51624297 C8,3.24010059 7.77614237,3.01624297 7.5,3.01624297 C7.22385763,3.01624297 7,3.24010059 7,3.51624297 L7,7.53797482 C7,7.67181194 7.05365647,7.80006227 7.14896222,7.89402605 L10.1581394,10.860832 C10.3547811,11.0547048 10.6713556,11.0524602 10.8652284,10.8558185 C11.0591012,10.6591769 11.0568567,10.3426023 10.860215,10.1487295 L8,7.32878832 Z" id="Path-321" fill="#50E3C2" fill-rule="nonzero"></path>
    </g>
</svg>