<?xml version="1.0" encoding="UTF-8" standalone="no"?>
<svg width="13px" height="13px" viewBox="0 0 13 13" version="1.1" xmlns="http://www.w3.org/2000/svg" xmlns:xlink="http://www.w3.org/1999/xlink" xmlns:sketch="http://www.bohemiancoding.com/sketch/ns">
    <!-- Generator: Sketch 3.3 (11970) - http://www.bohemiancoding.com/sketch -->
    <title>close</title>
    <desc>Created with Sketch.</desc>
    <defs></defs>
    <g id="Page-1" stroke="none" stroke-width="1" fill="none" fill-rule="evenodd" sketch:type="MSPage">
        <g id="close" sketch:type="MSArtboardGroup" fill="#50E3C2">
            <path d="M6.51832931,5.11243489 L11.3036762,0.293623582 C11.6905483,-0.0959532292 12.3199849,-0.0981462527 12.7095624,0.288725564 C13.0991398,0.675597381 13.1013329,1.3050339 12.7144609,1.69461171 L7.92423256,6.51833794 L12.7088296,11.3029347 C13.0970567,11.6911625 13.0970567,12.320603 12.7088296,12.7088298 C12.3206025,13.0970566 11.691162,13.0970566 11.3029349,12.7088298 L6.52323648,7.92913105 L1.77916681,12.7063763 C1.39229479,13.0959531 0.76285807,13.0981471 0.373280663,12.7112743 C-0.0162967445,12.3244025 -0.0184898675,11.694966 0.368382148,11.3053882 L5.11733323,6.523228 L0.291170323,1.69706519 C-0.0970567743,1.30883839 -0.0970567743,0.679397892 0.291170323,0.291170099 C0.679397321,-0.0970566998 1.30883782,-0.0970566998 1.69706492,0.291170099 L6.51832931,5.11243489 L6.51832931,5.11243489 Z" sketch:type="MSShapeGroup"></path>
        </g>
    </g>
</svg>