<?xml version="1.0" encoding="UTF-8"?>
<svg width="20px" height="20px" viewBox="0 0 20 20" version="1.1" xmlns="http://www.w3.org/2000/svg" xmlns:xlink="http://www.w3.org/1999/xlink">
    <!-- Generator: Sketch 40.2 (33826) - http://www.bohemiancoding.com/sketch -->
    <title>cog</title>
    <desc>Created with Sketch.</desc>
    <defs></defs>
    <g id="Page-1" stroke="none" stroke-width="1" fill="none" fill-rule="evenodd">
        <g id="cog" fill="#50E3C2">
            <path d="M19.7452189,12.229395 L18.6549315,11.2145812 C18.3713956,10.9506276 18.2033139,10.5791752 18.1916869,10.1924241 L18.1896471,10.1740656 L18.1912789,10.1124629 C18.2010701,9.70735328 18.3822067,9.32080612 18.6881807,9.051549 L19.8090655,8.07080033 C19.9851025,7.91638545 20.0458894,7.66691464 19.9594007,7.44926513 L19.00211,5.03431431 C18.9474427,4.89683 18.8430036,4.7885152 18.7069471,4.72976819 C18.6298417,4.69651901 18.5513083,4.68183226 18.4666555,4.68509598 L16.9798259,4.7379275 C16.7654401,4.74588282 16.5469746,4.70447434 16.3478875,4.61839365 C16.1702186,4.54169617 16.0145799,4.43460527 15.883215,4.29916077 L15.8530256,4.26733948 C15.5854003,3.97605223 15.4471001,3.58195771 15.4728019,3.18602735 L15.5717335,1.69960564 C15.5876441,1.46563752 15.4536275,1.24615217 15.2386298,1.15313607 L12.8540724,0.122615626 C12.6392786,0.029803512 12.387972,0.0824310406 12.2284575,0.253776483 L11.2140517,1.34304394 C10.9337795,1.64453032 10.5370333,1.81383594 10.1243763,1.80751247 C9.93283659,1.80445273 9.74619244,1.76426815 9.56974743,1.68797863 C9.37208823,1.60271387 9.19278746,1.471757 9.05101951,1.31040671 L8.06986287,0.189317959 C8.01519551,0.127103245 7.94910513,0.0785553699 7.87301959,0.0459181428 C7.73696315,-0.0128288658 7.58621996,-0.0152766579 7.44893962,0.0389827321 L5.03337686,0.996885346 C4.81593133,1.08296603 4.67559126,1.29796377 4.68395455,1.53193189 L4.73719402,3.0183536 C4.75228874,3.41938352 4.59889377,3.81307007 4.31515388,4.09925776 L4.29557154,4.11904408 C4.00102057,4.40461981 3.59631895,4.55332318 3.18508989,4.52639747 L1.69805624,4.42766986 C1.46490405,4.41196319 1.24562268,4.5459798 1.15260658,4.76097754 L0.122086135,7.14512697 C0.029070038,7.36012471 0.0819015492,7.61143135 0.253450974,7.77033385 L1.34353436,8.78575958 C1.63196585,9.05420077 1.80065952,9.43381252 1.80739095,9.84238981 L1.80575909,9.91888331 C1.78760463,10.3137938 1.60646802,10.6889179 1.30987722,10.9479759 L0.18899245,11.9287245 C0.0131593898,12.0831394 -0.0474234629,12.3328142 0.0388612061,12.5502597 L0.996355855,14.9656185 C1.05081923,15.1033068 1.15546234,15.2112137 1.29172276,15.2701646 C1.36760431,15.3030059 1.44838145,15.3183046 1.53119841,15.3150408 L3.01823207,15.2618014 C3.23200591,15.2536421 3.45087931,15.2956625 3.6499664,15.3817432 C3.82498353,15.4572168 3.97756256,15.5620638 4.12728584,15.7140309 L4.16583857,15.7560514 C4.41979699,16.0436669 4.55116183,16.4296021 4.52566399,16.8141095 L4.42632443,18.3009391 C4.41102573,18.5344993 4.54524633,18.7535767 4.76004008,18.8463888 L7.1443935,19.8773172 C7.35918725,19.9701293 7.6104939,19.9175018 7.76960038,19.7465643 L8.77911061,18.6626004 C9.05244739,18.3690694 9.43879056,18.1977239 9.8526714,18.1924204 L9.88163694,18.1932363 C10.0699129,18.1954801 10.2543133,18.2354607 10.4297384,18.3111383 C10.6253577,18.3955871 10.8020067,18.5238922 10.9419388,18.6832027 L11.928603,19.8106149 C11.9836783,19.8730336 12.0499727,19.9215814 12.1254463,19.9542187 C12.2610948,20.0129657 12.411838,20.0152095 12.5497302,19.9607461 L14.965293,19.0030475 C15.1827385,18.9171708 15.3232826,18.7021731 15.3147153,18.4688169 L15.2612719,16.9783155 C15.248013,16.5931962 15.3901889,16.2135845 15.6523066,15.9331083 L15.6643416,15.9178096 L15.7130935,15.8715056 C16.0068285,15.5922533 16.4078584,15.4472216 16.8145999,15.4741473 L18.3002057,15.572467 C18.5335618,15.5879696 18.7530472,15.454361 18.8460633,15.2391593 L19.8765837,12.8550098 C19.9691919,12.6400121 19.9165643,12.3887055 19.7452189,12.229395 L19.7452189,12.229395 Z M8.81562351,12.7377198 C7.30574379,12.0849753 6.60853103,10.3258287 7.26127557,8.81594902 C7.91381613,7.30668125 9.67296266,6.60906052 11.1828424,7.26139709 C12.6929261,7.91434562 13.3899349,9.67390012 12.7373943,11.1833719 C12.0846498,12.6934556 10.3255032,13.3906683 8.81562351,12.7377198 L8.81562351,12.7377198 Z" id="Shape"></path>
        </g>
    </g>
</svg>