<?xml version="1.0" encoding="UTF-8"?>
<svg width="62px" height="27px" viewBox="0 0 62 27" version="1.1" xmlns="http://www.w3.org/2000/svg" xmlns:xlink="http://www.w3.org/1999/xlink">
  <title>crown-silver</title>
  <path fill-rule="evenodd" clip-rule="evenodd" fill="#DEDCDD" d="M3,27V5.2C1.8,5.2,0.9,4.2,0.9,3c0-1.2,1-2.2,2.2-2.2 c1.2,0,2.2,1,2.2,2.2c0,0.8-0.4,1.5-1.1,1.9c0,0,1.8,10.1,12.8,10.1S29.9,4.9,29.9,4.9c-0.6-0.4-1-1.1-1-1.9c0-1.2,1-2.2,2.2-2.2 s2.2,1,2.2,2.2c0,0.8-0.4,1.5-1,1.9c0,0,1.9,10.2,12.9,10.2S57.8,4.9,57.8,4.9c-0.7-0.4-1.1-1.1-1.1-1.9c0-1.2,1-2.2,2.2-2.2 c1.2,0,2.2,1,2.2,2.2c0,1.2-0.9,2.1-2.1,2.2V27H3z" />
</svg>
