<?xml version="1.0" encoding="UTF-8" standalone="no"?>
<svg width="32px" height="27px" viewBox="0 0 32 27" version="1.1" xmlns="http://www.w3.org/2000/svg" xmlns:xlink="http://www.w3.org/1999/xlink" xmlns:sketch="http://www.bohemiancoding.com/sketch/ns">
    <!-- Generator: Sketch 3.3.3 (12072) - http://www.bohemiancoding.com/sketch -->
    <title>crown</title>
    <desc>Created with Sketch.</desc>
    <defs></defs>
    <g id="Page-1" stroke="none" stroke-width="1" fill="none" fill-rule="evenodd" sketch:type="MSPage">
        <g id="crown" sketch:type="MSArtboardGroup" fill="#FFEC00">
            <path d="M30.1634955,9.17391304 L30.1634955,20.4782609 L2.33740854,20.4782609 L2.33740854,9.17391304 C1.73709903,9.17391304 1.25045202,8.68726603 1.25045202,8.08695652 C1.25045202,7.48664701 1.73709903,7 2.33740854,7 C2.93771805,7 3.42436506,7.48664701 3.42436506,8.08695652 C3.42436506,8.53544627 3.15274074,8.92049476 2.76502515,9.08656894 L2.76502515,9.08656894 L9.29393028,14.3913044 L15.8228354,9.08656894 L15.8228354,9.08656894 C15.4351198,8.92049476 15.1634955,8.53544627 15.1634955,8.08695652 C15.1634955,7.48664701 15.6501425,7 16.250452,7 C16.8507615,7 17.3374085,7.48664701 17.3374085,8.08695652 C17.3374085,8.53544627 17.0657842,8.92049476 16.6780686,9.08656894 L23.2069738,14.3913044 L29.7358789,9.08656894 C29.3481633,8.92049476 29.076539,8.53544627 29.076539,8.08695652 C29.076539,7.48664701 29.563186,7 30.1634955,7 C30.763805,7 31.250452,7.48664701 31.250452,8.08695652 C31.250452,8.68726603 30.763805,9.17391304 30.1634955,9.17391304 Z" id="Path-1-Copy-4" sketch:type="MSShapeGroup" transform="translate(16.250452, 13.739130) rotate(-33.000000) translate(-16.250452, -13.739130) "></path>
        </g>
    </g>
</svg>