<?xml version="1.0" encoding="UTF-8"?>
<svg width="62px" height="27px" viewBox="0 0 62 27" version="1.1" xmlns="http://www.w3.org/2000/svg" xmlns:xlink="http://www.w3.org/1999/xlink">
    <!-- Generator: Sketch 40.2 (33826) - http://www.bohemiancoding.com/sketch -->
    <title>crown</title>
    <desc>Created with Sketch.</desc>
    <defs></defs>
    <g id="Page-1" stroke="none" stroke-width="1" fill="none" fill-rule="evenodd">
        <g id="crown" fill="#FFD22E">
            <g id="Path-1">
                <path d="M59.010711,5.21118478 L59.010711,27 L3.01071097,27 L3.01071097,5.21326098 C3.00935173,5.21326347 3.00799219,5.21326472 3.00663237,5.21326472 C1.80696295,5.21326472 0.834438727,4.2407405 0.834438727,3.04107108 C0.834438727,1.84140166 1.80696295,0.868877443 3.00663237,0.868877443 C4.20630179,0.868877443 5.17882601,1.84140166 5.17882601,3.04107108 C5.17882601,3.82504745 4.76350568,4.51202056 4.1408832,4.89397222 L17.010711,15.0740741 L29.8787586,4.89538029 C29.25486,4.51371043 28.8385173,3.82601178 28.8385173,3.04107108 C28.8385173,1.84140166 29.8110415,0.868877443 31.010711,0.868877443 C32.2103804,0.868877443 33.1829046,1.84140166 33.1829046,3.04107108 C33.1829046,3.82601178 32.7665619,4.51371043 32.1426633,4.89538028 L45.010711,15.0740741 L57.837709,4.92785073 C57.1834699,4.55356836 56.7425959,3.84880554 56.7425959,3.04107108 C56.7425959,1.84140166 57.7151201,0.868877443 58.9147896,0.868877443 C60.114459,0.868877443 61.0869832,1.84140166 61.0869832,3.04107108 C61.0869832,4.20859887 60.1658728,5.16098979 59.010711,5.21118478 Z" id="crown"></path>
            </g>
        </g>
    </g>
</svg>