<?xml version="1.0" encoding="UTF-8" standalone="no"?>
<svg width="64px" height="48px" viewBox="0 0 64 48" version="1.1" xmlns="http://www.w3.org/2000/svg" xmlns:xlink="http://www.w3.org/1999/xlink" xmlns:sketch="http://www.bohemiancoding.com/sketch/ns">
    <!-- Generator: Sketch 3.3.3 (12072) - http://www.bohemiancoding.com/sketch -->
    <title>crown</title>
    <desc>Created with Sketch.</desc>
    <defs></defs>
    <g id="Page-1" stroke="none" stroke-width="1" fill="none" fill-rule="evenodd" sketch:type="MSPage">
        <g id="crown" sketch:type="MSArtboardGroup" fill="#FFD22E">
            <g id="Path-1-Copy-4" sketch:type="MSLayerGroup" transform="translate(32.557449, 24.195104) rotate(-24.000000) translate(-32.557449, -24.195104) translate(2.057449, 10.195104)">
                <path d="M58.2147896,5.21326472 L58.2147896,27.8040786 L2.60663237,27.8040786 L2.60663237,5.21326472 C1.40696294,5.21326472 0.434438722,4.2407405 0.434438722,3.04107108 C0.434438722,1.84140166 1.40696294,0.868877443 2.60663236,0.868877443 C3.80630178,0.868877443 4.778826,1.84140166 4.778826,3.04107108 C4.778826,3.93734113 4.23600703,4.70682902 3.46118916,5.03871468 L3.46118916,5.03871468 L16.5086717,15.6397942 L29.5561542,5.03871468 L29.5561542,5.03871468 C28.7813363,4.70682902 28.2385173,3.93734114 28.2385173,3.04107108 C28.2385173,1.84140166 29.2110415,0.868877443 30.410711,0.868877443 C31.6103804,0.868877443 32.5829046,1.84140166 32.5829046,3.04107108 C32.5829046,3.93734113 32.0400856,4.70682902 31.2652678,5.03871468 L44.3127503,15.6397942 L57.3602328,5.03871468 C56.5854149,4.70682902 56.0425959,3.93734114 56.0425959,3.04107108 C56.0425959,1.84140166 57.0151201,0.868877443 58.2147895,0.868877443 C59.414459,0.868877443 60.3869832,1.84140166 60.3869832,3.04107108 C60.3869832,4.2407405 59.414459,5.21326472 58.2147896,5.21326472 Z" id="crown" sketch:type="MSShapeGroup"></path>
            </g>
        </g>
    </g>
</svg>