<?xml version="1.0" encoding="UTF-8"?>
<svg width="16px" height="16px" viewBox="0 0 16 16" version="1.1" xmlns="http://www.w3.org/2000/svg" xmlns:xlink="http://www.w3.org/1999/xlink">
    <!-- Generator: Sketch 52.6 (67491) - http://www.bohemiancoding.com/sketch -->
    <title>danger</title>
    <desc>Created with Sketch.</desc>
    <g id="danger" stroke="none" stroke-width="1" fill="none" fill-rule="evenodd">
        <path d="M9.74315107,2.09893524 L15.3234561,12.0194775 C15.8649837,12.9821933 15.5235433,14.2016235 14.5608275,14.7431511 C14.2614642,14.9115429 13.9237787,15 13.580305,15 L2.41969497,15 C1.31512547,15 0.419694969,14.1045695 0.419694969,13 C0.419694969,12.6565263 0.508152047,12.3188408 0.676543895,12.0194775 L6.25684893,2.09893524 C6.79837654,1.13621949 8.01780672,0.794779036 8.98052248,1.33630665 C9.29977146,1.5158842 9.56357352,1.77968626 9.74315107,2.09893524 Z M7.97605253,4 C7.42497798,4 6.99558512,4.45097518 7.01634215,4.99077797 L7.17086332,9.00922203 C7.19190447,9.55641359 7.65808789,10 8.20192778,10 L7.7980665,10 C8.34646653,10 8.80837406,9.54902482 8.82913123,9.00922203 L8.98365347,4.99077797 C9.00469477,4.44358641 8.56823138,4 8.02394336,4 L7.97605253,4 Z M8,13 C8.55228475,13 9,12.5522847 9,12 C9,11.4477153 8.55228475,11 8,11 C7.44771525,11 7,11.4477153 7,12 C7,12.5522847 7.44771525,13 8,13 Z" id="Combined-Shape" fill="#50E3C2"></path>
    </g>
</svg>