<?xml version="1.0" encoding="UTF-8"?>
<svg width="24px" height="24px" viewBox="0 0 24 24" version="1.1" xmlns="http://www.w3.org/2000/svg" xmlns:xlink="http://www.w3.org/1999/xlink">
    <!-- Generator: Sketch 40.2 (33826) - http://www.bohemiancoding.com/sketch -->
    <title>dashboard</title>
    <desc>Created with Sketch.</desc>
    <defs></defs>
    <g id="Page-1" stroke="none" stroke-width="1" fill="none" fill-rule="evenodd">
        <g id="dashboard" fill="#50E3C2">
            <path d="M11.9671579,2 C6.44426901,2 1.9671579,6.47711111 1.9671579,12 C1.9671579,17.5228889 6.44426901,22 11.9671579,22 C17.490269,22 21.9671579,17.5228889 21.9671579,12 C21.9671579,6.47711111 17.490269,2 11.9671579,2 L11.9671579,2 L11.9671579,2 Z M9.82400492,11.1709229 C9.89058924,11.0792774 17.3644383,5.38592124 17.3644383,5.38592124 C17.3644383,5.38592124 14.2592811,14.2533179 14.1926968,14.3449633 C13.3162384,15.5513048 11.6276721,15.8187474 10.4213306,14.942289 C9.21498916,14.0658307 8.94754654,12.3772644 9.82400492,11.1709229 Z M19.4671579,12 C19.4671579,7.85777778 16.1096023,4.5 11.9671579,4.5 C7.82493568,4.5 4.4671579,7.85777778 4.4671579,12 C4.4671579,13.452 4.88093568,14.8064444 5.59493568,15.9544444 L4.57871346,16.6853333 C3.71804679,15.3302222 3.2171579,13.7242222 3.2171579,12 C3.2171579,7.16755556 7.13471346,3.25 11.9671579,3.25 C16.7998246,3.25 20.7171579,7.16755556 20.7171579,12 C20.7171579,13.7242222 20.2160468,15.3302222 19.3553801,16.6853333 L18.3391579,15.9544444 C19.0533801,14.8064444 19.4671579,13.452 19.4671579,12 Z"></path>
        </g>
    </g>
</svg>