<?xml version="1.0" encoding="UTF-8"?>
<svg width="13px" height="13px" viewBox="0 0 13 13" version="1.1" xmlns="http://www.w3.org/2000/svg" xmlns:xlink="http://www.w3.org/1999/xlink">
    <!-- Generator: Sketch 40.2 (33826) - http://www.bohemiancoding.com/sketch -->
    <title>diagonal-cross</title>
    <desc>Created with Sketch.</desc>
    <defs></defs>
    <g id="Page-1" stroke="none" stroke-width="1" fill="none" fill-rule="evenodd">
        <g id="diagonal-cross" fill="#50E3C2">
            <path d="M12.6663841,0.28865483 C13.0558655,0.675431849 13.058059,1.30471414 12.671281,1.69419648 L7.88222671,6.51674071 L12.6656517,11.3001651 C13.0537833,11.6882977 13.0537833,12.317584 12.6656517,12.7057157 C12.277519,13.0938473 11.6482327,13.0938473 11.2601011,12.7057157 L6.48157393,7.92718812 L1.73866673,12.7032628 C1.35188952,13.0927441 0.722607032,13.0949376 0.333125085,12.7081596 C-0.0563568607,12.3213826 -0.0585494462,11.6921003 0.328227771,11.302618 L5.07601518,6.52162958 L0.251034866,1.69664936 C-0.137097101,1.30851769 -0.137097101,0.679231429 0.251034866,0.291098767 C0.639166733,-0.0970329023 1.268453,-0.0970329023 1.65658496,0.291098767 L6.47666797,5.11118217 L11.2608425,0.293551648 C11.6476195,-0.0959297021 12.2769018,-0.0981221883 12.6663841,0.28865483 Z" id="close"></path>
        </g>
    </g>
</svg>