<?xml version="1.0" encoding="UTF-8"?>
<svg width="16px" height="16px" viewBox="0 0 16 16" version="1.1" xmlns="http://www.w3.org/2000/svg" xmlns:xlink="http://www.w3.org/1999/xlink">
    <!-- Generator: Sketch 46.2 (44496) - http://www.bohemiancoding.com/sketch -->
    <title>document</title>
    <desc>Created with Sketch.</desc>
    <defs></defs>
    <g id="Page-1" stroke="none" stroke-width="1" fill="none" fill-rule="evenodd">
        <g id="document" fill="#50E3C2">
            <path d="M2,1.63793036 C2,1.27965509 2.28128897,1 2.62827655,1 L13.3717235,1 C13.715205,1 14,1.28561082 14,1.63793036 L14,14.3620696 C14,14.7203449 13.718711,15 13.3717235,15 L2.62827655,15 C2.28479499,15 2,14.7143892 2,14.3620696 L2,1.63793036 Z M4.66502973,3 C4.297744,3 4,3.2219325 4,3.5 C4,3.7761425 4.29754093,4 4.66502973,4 L9.33497027,4 C9.702256,4 10,3.7780675 10,3.5 C10,3.2238575 9.70245907,3 9.33497027,3 L4.66502973,3 Z M4.61446294,6 C4.27510445,6 4,6.2219325 4,6.5 C4,6.7761425 4.27537808,7 4.61446294,7 L11.385537,7 C11.7248955,7 12,6.7780675 12,6.5 C12,6.2238575 11.7246219,6 11.385537,6 L4.61446294,6 Z M4.61446294,9 C4.27510445,9 4,9.2219325 4,9.5 C4,9.7761425 4.27537808,10 4.61446294,10 L11.385537,10 C11.7248955,10 12,9.7780675 12,9.5 C12,9.2238575 11.7246219,9 11.385537,9 L4.61446294,9 Z M4.61446294,12 C4.27510445,12 4,12.2219325 4,12.5 C4,12.7761425 4.27537808,13 4.61446294,13 L11.385537,13 C11.7248955,13 12,12.7780675 12,12.5 C12,12.2238575 11.7246219,12 11.385537,12 L4.61446294,12 Z" id="templates"></path>
        </g>
    </g>
</svg>