<svg width="23" height="14" viewBox="0 0 23 14" fill="none" xmlns="http://www.w3.org/2000/svg">
<path fill-rule="evenodd" clip-rule="evenodd" d="M10.6251 7.01929C13.3975 3.41099 15.8632 1.59579 15.8632 1.59579V0C15.8632 0 15.5891 0.120817 15.1132 0.371453C13.4525 1.24605 9.33461 3.7014 5.83142 8.11998C5.67549 8.31665 5.52078 8.51721 5.36757 8.72169C5.36757 8.72169 5.1613 8.49896 4.84044 8.17487C4.12923 7.45652 2.85501 6.24016 2.01596 5.8474C0.798385 5.27745 0 7.23526 0 7.23526C0 7.23526 2.71442 9.76088 5.9292 13.2405C6.11021 13.4364 6.29281 13.6354 6.4766 13.8371C6.59196 13.5907 6.70895 13.348 6.82736 13.1091C7.40583 11.9415 8.01812 10.8623 8.64043 9.87153C8.77826 9.65208 8.91659 9.43698 9.05516 9.22622C9.22762 9.39754 9.40858 9.57827 9.59711 9.76773C10.5538 10.7292 11.7052 11.9157 12.9292 13.2405C13.1102 13.4364 13.2928 13.6354 13.4766 13.8371C13.592 13.5907 13.709 13.348 13.8274 13.1091C17.6191 5.45638 22.8632 1.59579 22.8632 1.59579V0C22.8632 0 22.5891 0.120817 22.1132 0.371453C20.4525 1.24605 16.3346 3.7014 12.8314 8.11998C12.6755 8.31665 12.5208 8.51721 12.3676 8.72169C12.3676 8.72169 12.1613 8.49896 11.8404 8.17487C11.5194 7.85063 11.0837 7.42492 10.6251 7.01929ZM11.8173 9.23129L11.8157 9.22959L11.8094 9.22286L11.7834 9.19508C11.7603 9.17041 11.7258 9.13382 11.6813 9.08717C11.5924 8.99384 11.4639 8.86054 11.3072 8.70232C10.9928 8.38477 10.5699 7.97175 10.1282 7.58109L9.60388 7.11738L10.0303 6.56234C11.4447 4.72155 12.7824 3.33602 13.7702 2.40785C14.2643 1.94363 14.6713 1.59338 14.9572 1.35738C15.0141 1.31044 15.0662 1.26801 15.1132 1.23009V1.22332C14.5156 1.55221 13.7002 2.03565 12.7598 2.68488C10.7561 4.0681 8.19797 6.19506 5.96777 9.17142L5.42843 9.89121L4.81735 9.23136L4.81639 9.23032L4.81245 9.22609L4.79574 9.20819C4.78076 9.19219 4.75825 9.16823 4.72895 9.13729C4.67034 9.0754 4.58466 8.98571 4.47783 8.87603C4.26383 8.65631 3.96672 8.35821 3.63351 8.04365C2.93659 7.38574 2.18121 6.75285 1.698 6.52666C1.598 6.47985 1.54146 6.48851 1.47784 6.51525C1.38464 6.55441 1.26192 6.64802 1.12533 6.81039C1.05271 6.89673 0.986615 6.98998 0.928624 7.08104C0.965416 7.11613 1.00446 7.15342 1.04568 7.19287C1.38628 7.51885 1.87576 7.9924 2.47327 8.58453C3.49459 9.59667 4.83294 10.9567 6.28369 12.5195C6.96771 11.1652 7.69491 9.92995 8.42847 8.8142L8.93263 8.04735L9.58372 8.69413C10.5901 9.69389 11.8846 11.0124 13.2837 12.5195C15.1301 8.86371 17.2916 6.07495 19.0454 4.1591C20.0009 3.11524 20.8367 2.32896 21.4371 1.80114C21.7177 1.55444 21.947 1.36405 22.1132 1.23009V1.22332C21.5156 1.55221 20.7002 2.03565 19.7598 2.68488C17.7561 4.0681 15.198 6.19506 12.9678 9.17142L12.4284 9.89121L11.8173 9.23129ZM0.693622 7.52055C0.69336 7.52117 0.693521 7.52079 0.693622 7.52055Z" fill="#50E3C2"/>
</svg>
