<svg width="23" height="14" viewBox="0 0 23 14" fill="none" xmlns="http://www.w3.org/2000/svg">
<path d="M15.8632 0V1.59579C15.8632 1.59579 13.3975 3.41099 10.6251 7.01929C11.5421 7.83036 12.3676 8.72169 12.3676 8.72169C16.9497 2.60656 22.8632 0 22.8632 0V1.59579C22.8632 1.59579 17.2864 5.70126 13.4766 13.8371C11.8052 12.0028 10.2323 10.3956 9.05516 9.22622C8.16296 10.5833 7.28045 12.1205 6.4766 13.8371C3.0287 10.0533 0 7.23526 0 7.23526C0 7.23526 0.798385 5.27745 2.01596 5.8474C3.23354 6.41735 5.36757 8.72169 5.36757 8.72169C9.94966 2.60656 15.8632 0 15.8632 0Z" fill="#50E3C2"/>
</svg>
