<?xml version="1.0" encoding="UTF-8"?>
<svg width="16px" height="17px" viewBox="0 0 16 17" version="1.1" xmlns="http://www.w3.org/2000/svg" xmlns:xlink="http://www.w3.org/1999/xlink">
<path fill-rule="evenodd" clip-rule="evenodd" fill="#50E3C2" d="M12,7h-1V5.6c0,0,0,0,0,0.1l0-0.1v0c0,0,0,0,0,0 c0-0.5,0-1.1-0.3-1.7C10.2,2.7,9.1,2,7.5,2C5.9,2,4.8,2.7,4.3,3.9C4,4.4,4,5,4,5.6c0,0,0,0,0,0v0l0,0.1c0,0,0,0,0-0.1V7H3 C2.4,7,2,7.5,2,8v6c0,0.6,0.4,1,1,1h9c0.5,0,1-0.5,1-1V8C13,7.4,12.6,7,12,7z M9.6,5.5L9.6,5.5l0,1.5H5.4V5.6l0-0.1c0,0,0,0,0,0 c0-0.3,0-0.7,0.2-1c0.3-0.6,0.8-1,1.9-1c1.1,0,1.7,0.4,1.9,1C9.6,4.8,9.6,5.2,9.6,5.5C9.6,5.5,9.6,5.5,9.6,5.5z M5.4,8.4 c-0.2-0.2-0.4-0.2-0.6,0S4.6,8.8,4.8,9l0,0l2.1,2.1l-2.1,2.1c-0.2,0.2-0.2,0.4,0,0.6C5,14,5.3,14,5.4,13.8l0,0l2.1-2.1l2.1,2.1 c0.2,0.2,0.4,0.2,0.6,0c0.2-0.2,0.2-0.4,0-0.6l0,0l-2.1-2.1L10.2,9c0.2-0.2,0.2-0.4,0-0.6s-0.4-0.2-0.6,0l0,0l-2.1,2.1L5.4,8.4z" />
</svg>
