<?xml version="1.0" encoding="UTF-8"?>
<svg width="24" height="24" viewBox="0 0 24 24" xmlns="http://www.w3.org/2000/svg">
<title>eye</title>
<g id="eye" stroke="none" stroke-width="1" fill="none" fill-rule="evenodd">
  <path fill="#50E3C2" fill-rule="evenodd" clip-rule="evenodd" d="M12 18C7.85043 18 4.27128 15.5449 2.63092 12C4.27128 8.45511 7.85043 6 12 6C16.1496 6 19.7287 8.45512 21.3691 12C19.7287 15.5449 16.1496 18 12 18ZM12 19.5C17 19.5 21.27 16.39 23 12C21.27 7.61 17 4.5 12 4.5C7 4.5 2.73 7.61 1 12C2.73 16.39 7 19.5 12 19.5ZM14.5 12C14.5 13.3807 13.3807 14.5 12 14.5C10.6193 14.5 9.5 13.3807 9.5 12C9.5 10.6193 10.6193 9.5 12 9.5C13.3807 9.5 14.5 10.6193 14.5 12ZM16 12C16 14.2091 14.2091 16 12 16C9.79086 16 8 14.2091 8 12C8 9.79086 9.79086 8 12 8C14.2091 8 16 9.79086 16 12Z"/>
</g>
</svg>
