<?xml version="1.0" encoding="UTF-8"?>
<svg width="16px" height="16px" viewBox="0 0 16 16" version="1.1" xmlns="http://www.w3.org/2000/svg" xmlns:xlink="http://www.w3.org/1999/xlink">
    <!-- Generator: Sketch 46.2 (44496) - http://www.bohemiancoding.com/sketch -->
    <title>eye</title>
    <desc>Created with Sketch.</desc>
    <defs></defs>
    <g id="Page-1" stroke="none" stroke-width="1" fill="none" fill-rule="evenodd">
        <g id="eye" fill="#50E3C2">
            <path d="M8,4.21000004 C11.557377,4.21000004 15,7.99778504 15,7.99778504 C15,7.99778504 11.442623,11.78557 8,11.78557 C4.44262295,11.78557 1,7.99778504 1,7.99778504 C1,7.99778504 4.55737705,4.21000004 8,4.21000004 Z M8,10.6377564 C9.49180328,10.6377564 10.7540984,9.48994276 10.6393443,7.99778504 C10.6393443,6.50562731 9.49180328,5.35781367 8,5.35781367 C6.50819672,5.35781367 5.36065574,6.50562731 5.36065574,7.99778504 C5.36065574,9.48994276 6.50819672,10.6377564 8,10.6377564 Z M8,6.62040867 C8.80327869,6.62040867 9.37704918,7.30909685 9.26229508,7.88300367 C9.26229508,8.57169185 8.68852459,9.14559867 8,9.14559867 C7.31147541,9.14559867 6.73770492,8.57169185 6.73770492,7.88300367 C6.73770492,7.19431549 7.31147541,6.62040867 8,6.62040867 Z"></path>
        </g>
    </g>
</svg>