<?xml version="1.0" encoding="UTF-8"?>
<svg width="17px" height="17px" viewBox="0 0 17 17" version="1.1" xmlns="http://www.w3.org/2000/svg" xmlns:xlink="http://www.w3.org/1999/xlink">
    <!-- Generator: Sketch 40.2 (33826) - http://www.bohemiancoding.com/sketch -->
    <title>eyedropper</title>
    <desc>Created with Sketch.</desc>
    <defs></defs>
    <g id="Page-1" stroke="none" stroke-width="1" fill="none" fill-rule="evenodd">
        <g id="eyedropper" fill="#50E3C2">
            <path d="M10.5707397,4.00701904 L9.95777581,3.40586055 C9.78026477,3.22834951 9.4924625,3.22834951 9.31495146,3.40586055 L7.49676964,5.22404237 C7.3192586,5.40155341 7.3192586,5.68935568 7.49676964,5.86686672 L8.09680176,6.4942627 L2.04222419,12.4967696 C1.95698038,12.5820135 1.90909091,12.6976289 1.90909091,12.8181818 L1.90909094,13.5249023 L1.13313328,14.3149515 C1.03431832,14.4137664 0.990510625,14.5467585 1.00171019,14.675877 C1.0106295,14.7787068 1.0544372,14.8790797 1.13313328,14.9577758 L2.04222419,15.8668667 C2.21973523,16.0443778 2.5075375,16.0443778 2.68504854,15.8668667 L3.4520874,15.090909 L4.18181818,15.0909091 C4.30237113,15.0909091 4.41798655,15.0430196 4.50323036,14.9577758 C4.50323036,14.9577758 5.19989118,14.261115 5.54822159,13.9127846 C7.3211033,12.1399029 10.5020142,8.88342285 10.5020142,8.88342285 L11.1331333,9.50323036 C11.3106443,9.6807414 11.5984466,9.6807414 11.7759576,9.50323036 L13.5941394,7.68504854 C13.7716505,7.5075375 13.7716505,7.21973523 13.5941394,7.04222419 L13.012146,6.4942627 L15.8668667,3.59413945 C16.0443778,3.4166284 16.0443778,3.12882614 15.8668667,2.9513151 L14.0486849,1.13313328 C13.8711739,0.95562224 13.5833716,0.95562224 13.4058606,1.13313328 L10.5707397,4.00701904 Z M10.2240424,7.9513151 L3.95965578,14.1818185 L3.27272727,14.1818182 C3.15217432,14.1818182 3.03655891,14.2297077 2.9513151,14.3149515 L2.31365968,14.959045 L2.04222418,14.6547237 L2.68504854,14.0486849 C2.77029235,13.9634411 2.81818182,13.8478257 2.81818182,13.7272727 L2.8181818,13.0130611 L9.0486849,6.77595763 L10.2240424,7.9513151 Z" id="Shape"></path>
        </g>
    </g>
</svg>