<?xml version="1.0" encoding="UTF-8"?>
<svg width="24px" height="31px" viewBox="0 0 24 31" version="1.1" xmlns="http://www.w3.org/2000/svg" xmlns:xlink="http://www.w3.org/1999/xlink">
    <!-- Generator: Sketch 48.2 (47327) - http://www.bohemiancoding.com/sketch -->
    <title>file-archive</title>
    <desc>Created with Sketch.</desc>
    <defs>
        <path d="M10,0 L10,1 L12,1 L12,0 L24,0 L24,31 L0,31 L0,0 L10,0 Z" id="path-1"></path>
    </defs>
    <g id="Page-1" stroke="none" stroke-width="1" fill="none" fill-rule="evenodd">
        <g id="file-archive">
            <mask id="mask-2" fill="white">
                <use xlink:href="#path-1"></use>
            </mask>
            <g id="Combined-Shape"></g>
            <g id="file-background" mask="url(#mask-2)" fill="#DFE5E8" fill-rule="nonzero">
                <path d="M2,1 C1.44771525,1 1,1.44771525 1,2 L1,29 C1,29.5522847 1.44771525,30 2,30 L22,30 C22.5522847,30 23,29.5522847 23,29 L23,2 C23,1.44771525 22.5522847,1 22,1 L2,1 Z M2,0 L22,0 C23.1045695,-2.02906125e-16 24,0.8954305 24,2 L24,29 C24,30.1045695 23.1045695,31 22,31 L2,31 C0.8954305,31 1.3527075e-16,30.1045695 0,29 L0,2 C-1.3527075e-16,0.8954305 0.8954305,2.02906125e-16 2,0 Z" id="border"></path>
            </g>
            <path d="M12,0 L14,0 L14,1 L12,1 L12,0 Z M10,1 L12,1 L12,2 L10,2 L10,1 Z M12,2 L14,2 L14,3 L12,3 L12,2 Z M10,3 L12,3 L12,4 L10,4 L10,3 Z M12,4 L14,4 L14,5 L12,5 L12,4 Z M10,5 L12,5 L12,6 L10,6 L10,5 Z M12,6 L14,6 L14,7 L12,7 L12,6 Z M10,7 L12,7 L12,8 L10,8 L10,7 Z M12,8 L14,8 L14,9 L12,9 L12,8 Z M10,9 L12,9 L12,10 L10,10 L10,9 Z M12,10 L14,10 L14,11 L12,11 L12,10 Z M10,11 L12,11 L12,12 L10,12 L10,11 Z M12,12 L14,12 L14,13 L12,13 L12,12 Z M10,13 L12,13 L12,14 L10,14 L10,13 Z M12,14 L14,14 L14,15 L12,15 L12,14 Z" id="zip-line" fill="#DFE5E8"></path>
            <path d="M10,15 L14,15 L14,18 C14,18.5522847 13.5522847,19 13,19 L11,19 C10.4477153,19 10,18.5522847 10,18 L10,15 Z M11,17 L11,18 L13,18 L13,17 L11,17 Z" id="zip-line-end" fill="#DFE5E8"></path>
        </g>
    </g>
</svg>