<?xml version="1.0" encoding="UTF-8"?>
<svg width="24px" height="31px" viewBox="0 0 24 31" version="1.1" xmlns="http://www.w3.org/2000/svg" xmlns:xlink="http://www.w3.org/1999/xlink">
<path d="M2 0H22C23.1046 0 24 0.89543 24 2V29C24 30.1046 23.1046 31 22 31H2C0.89543 31 0 30.1046 0 29V2C0 0.89543 0.89543 0 2 0Z" id="border" fill="#50E3C2"/>
<path d="M2 1C1.44772 1 1 1.44772 1 2V29C1 29.5523 1.44772 30 2 30H22C22.5523 30 23 29.5523 23 29V2C23 1.44772 22.5523 1 22 1H2Z" id="background" fill="#BD10E0"/>
<path d="M10 22.5C10.8444 22.5 11.5556 22.2041 12.1333 21.6122C12.7111 21.0203 13 20.2919 13 19.4268L14 11.2317L17.5 13L18 10.5L13 8L11.6667 16.8659C11.4222 16.6837 11.1613 16.5526 10.884 16.4725C10.6067 16.3924 10.312 16.3527 10 16.3537C9.15556 16.3537 8.44444 16.6496 7.86667 17.2415C7.28889 17.8333 7 18.5618 7 19.4268C7 20.2919 7.28889 21.0203 7.86667 21.6122C8.44444 22.2041 9.15556 22.5 10 22.5Z" fill="#50E3C2"/>
</svg>
