<?xml version="1.0" encoding="UTF-8"?>
<svg width="24px" height="31px" viewBox="0 0 24 31" version="1.1" xmlns="http://www.w3.org/2000/svg" xmlns:xlink="http://www.w3.org/1999/xlink">
    <title>file-png</title>
    <g id="file-png" stroke="none" stroke-width="1" fill="none" fill-rule="evenodd">
        <g id="Group" fill-rule="nonzero">
            <g>
                <path d="M2,0 L22,0 C23.1045695,0 24,0.8954305 24,2 L24,29 C24,30.1045695 23.1045695,31 22,31 L2,31 C0.8954305,31 0,30.1045695 0,29 L0,2 C0,0.8954305 0.8954305,0 2,0 Z" id="border" fill="#50E3C2"></path>
                <path d="M2,1 C1.44771525,1 1,1.44771525 1,2 L1,29 C1,29.5522847 1.44771525,30 2,30 L22,30 C22.5522847,30 23,29.5522847 23,29 L23,2 C23,1.44771525 22.5522847,1 22,1 L2,1 Z" id="background" fill="#BD10E0"></path>
            </g>
        </g>
        <path d="M3.995,27.22 L5.575,27.05 L5.575,24.62 C5.90166667,24.9866667 6.33166667,25.17 6.865,25.17 C7.29166667,25.17 7.665,25.0483333 7.985,24.805 C8.305,24.5616667 8.55,24.225 8.72,23.795 C8.89,23.365 8.975,22.8766667 8.975,22.33 C8.975,21.4433333 8.81166667,20.7533333 8.485,20.26 C8.15833333,19.7666667 7.66166667,19.52 6.995,19.52 C6.715,19.52 6.44166667,19.5816667 6.175,19.705 C5.90833333,19.8283333 5.67166667,20.02 5.465,20.28 L5.465,20.28 L5.385,19.69 L3.995,19.69 L3.995,27.22 Z M6.385,24.01 C6.05833333,24.01 5.78833333,23.8533333 5.575,23.54 L5.575,23.54 L5.575,21.3 C5.695,21.1 5.83333333,20.9466667 5.99,20.84 C6.14666667,20.7333333 6.315,20.68 6.495,20.68 C6.775,20.68 6.985,20.8016667 7.125,21.045 C7.265,21.2883333 7.335,21.7233333 7.335,22.35 C7.335,23.4566667 7.01833333,24.01 6.385,24.01 Z M11.545,25 L11.545,21.37 C11.8383333,20.91 12.145,20.68 12.465,20.68 C12.6316667,20.68 12.7566667,20.7316667 12.84,20.835 C12.9233333,20.9383333 12.965,21.1233333 12.965,21.39 L12.965,21.39 L12.965,25 L14.545,25 L14.545,21.12 C14.545,20.6133333 14.415,20.22 14.155,19.94 C13.895,19.66 13.535,19.52 13.075,19.52 C12.7483333,19.52 12.4533333,19.5866667 12.19,19.72 C11.9266667,19.8533333 11.6816667,20.0533333 11.455,20.32 L11.455,20.32 L11.345,19.69 L9.965,19.69 L9.965,25 L11.545,25 Z M17.715,27.22 C18.615,27.22 19.3033333,27.065 19.78,26.755 C20.2566667,26.445 20.495,26.0133333 20.495,25.46 C20.495,25.1666667 20.4116667,24.9033333 20.245,24.67 C20.0783333,24.4366667 19.8416667,24.2533333 19.535,24.12 C19.2283333,23.9866667 18.8716667,23.92 18.465,23.92 L18.465,23.92 L17.665,23.92 C17.4316667,23.92 17.2766667,23.8916667 17.2,23.835 C17.1233333,23.7783333 17.085,23.7 17.085,23.6 C17.085,23.54 17.1,23.4816667 17.13,23.425 C17.16,23.3683333 17.2016667,23.3266667 17.255,23.3 C17.4483333,23.34 17.6516667,23.36 17.865,23.36 C18.3183333,23.36 18.7133333,23.2833333 19.05,23.13 C19.3866667,22.9766667 19.645,22.765 19.825,22.495 C20.005,22.225 20.095,21.92 20.095,21.58 C20.095,21.24 20.015,20.9633333 19.855,20.75 C19.695,20.5366667 19.4416667,20.3566667 19.095,20.21 C19.7683333,20.21 20.2783333,20.14 20.625,20 L20.625,20 L20.255,18.83 C19.8616667,19.0633333 19.48,19.24 19.11,19.36 C18.74,19.48 18.2883333,19.5333333 17.755,19.52 C17.055,19.52 16.4916667,19.695 16.065,20.045 C15.6383333,20.395 15.425,20.8666667 15.425,21.46 C15.425,21.8066667 15.5,22.1016667 15.65,22.345 C15.8,22.5883333 16.0416667,22.8 16.375,22.98 C16.1816667,23.1 16.0283333,23.2516667 15.915,23.435 C15.8016667,23.6183333 15.745,23.8066667 15.745,24 C15.745,24.3066667 15.88,24.5583333 16.15,24.755 C16.42,24.9516667 16.8283333,25.05 17.375,25.05 L17.375,25.05 L18.145,25.05 C18.3983333,25.05 18.5883333,25.0966667 18.715,25.19 C18.8416667,25.2833333 18.905,25.41 18.905,25.57 C18.905,25.7633333 18.8216667,25.9116667 18.655,26.015 C18.4883333,26.1183333 18.1883333,26.17 17.755,26.17 C17.4416667,26.17 17.2016667,26.1466667 17.035,26.1 C16.8683333,26.0533333 16.7533333,25.9833333 16.69,25.89 C16.6266667,25.7966667 16.595,25.67 16.595,25.51 L16.595,25.51 L15.175,25.51 C15.175,25.8833333 15.25,26.1933333 15.4,26.44 C15.55,26.6866667 15.8116667,26.8783333 16.185,27.015 C16.5583333,27.1516667 17.0683333,27.22 17.715,27.22 Z M17.795,22.34 C17.5483333,22.34 17.3533333,22.2616667 17.21,22.105 C17.0666667,21.9483333 16.995,21.7266667 16.995,21.44 C16.995,21.1666667 17.0666667,20.9516667 17.21,20.795 C17.3533333,20.6383333 17.5483333,20.56 17.795,20.56 C18.3283333,20.56 18.595,20.8466667 18.595,21.42 C18.595,21.7266667 18.5266667,21.9566667 18.39,22.11 C18.2533333,22.2633333 18.055,22.34 17.795,22.34 Z" id="png" fill="#50E3C2" fill-rule="nonzero"></path>
        <path d="M14.8056615,6.8 L19,15.2 L5,15.2 L7.75386583,9.72414912 L10.6210154,12.4620746 L14.8056615,6.8 Z M9.2,4 C9.97319865,4 10.6,4.62680135 10.6,5.4 C10.6,6.17319865 9.97319865,6.8 9.2,6.8 C8.42680135,6.8 7.8,6.17319865 7.8,5.4 C7.8,4.62680135 8.42680135,4 9.2,4 Z" id="Combined-Shape" fill="#50E3C2"></path>
    </g>
</svg>