<?xml version="1.0" encoding="UTF-8"?>
<svg width="24px" height="31px" viewBox="0 0 24 31" version="1.1" xmlns="http://www.w3.org/2000/svg" xmlns:xlink="http://www.w3.org/1999/xlink">
    <title>file-powerpoint</title>
    <g id="file-powerpoint" stroke="none" stroke-width="1" fill="none" fill-rule="evenodd">
        <g id="Group" fill-rule="nonzero">
            <g>
                <path d="M2,0 L22,0 C23.1045695,0 24,0.8954305 24,2 L24,29 C24,30.1045695 23.1045695,31 22,31 L2,31 C0.8954305,31 0,30.1045695 0,29 L0,2 C0,0.8954305 0.8954305,0 2,0 Z" id="border" fill="#50E3C2"></path>
                <path d="M2,1 C1.44771525,1 1,1.44771525 1,2 L1,29 C1,29.5522847 1.44771525,30 2,30 L22,30 C22.5522847,30 23,29.5522847 23,29 L23,2 C23,1.44771525 22.5522847,1 22,1 L2,1 Z" id="background" fill="#BD10E0"></path>
            </g>
        </g>
        <g id="pie-+-piece" transform="translate(6.000000, 9.000000)" fill="#D04423">
            <path d="M12,7 C12,10.3137085 9.3137085,13 6,13 C2.6862915,13 0,10.3137085 0,7 C0,3.6862915 2.6862915,1 6,1 L6,1 L6,7 Z" id="pie"></path>
            <path d="M7,0 C10.3137085,0 13,2.6862915 13,6 L13,6 L7,6 Z" id="piece"></path>
        </g>
    </g>
</svg>