<?xml version="1.0" encoding="UTF-8"?>
<svg width="24px" height="31px" viewBox="0 0 24 31" version="1.1" xmlns="http://www.w3.org/2000/svg" xmlns:xlink="http://www.w3.org/1999/xlink">
    <title>file-svg</title>
    <g id="file-svg" stroke="none" stroke-width="1" fill="none" fill-rule="evenodd">
        <g id="Group" fill-rule="nonzero">
            <g>
                <path d="M2,0 L22,0 C23.1045695,0 24,0.8954305 24,2 L24,29 C24,30.1045695 23.1045695,31 22,31 L2,31 C0.8954305,31 0,30.1045695 0,29 L0,2 C0,0.8954305 0.8954305,0 2,0 Z" id="border" fill="#50E3C2"></path>
                <path d="M2,1 C1.44771525,1 1,1.44771525 1,2 L1,29 C1,29.5522847 1.44771525,30 2,30 L22,30 C22.5522847,30 23,29.5522847 23,29 L23,2 C23,1.44771525 22.5522847,1 22,1 L2,1 Z" id="background" fill="#BD10E0"></path>
            </g>
        </g>
        <path d="M6.545,25.17 C6.985,25.17 7.385,25.1 7.745,24.96 C8.105,24.82 8.38833333,24.6183333 8.595,24.355 C8.80166667,24.0916667 8.905,23.78 8.905,23.42 C8.905,22.9666667 8.77,22.6116667 8.5,22.355 C8.23,22.0983333 7.81833333,21.89 7.265,21.73 C6.945,21.6366667 6.70833333,21.5566667 6.555,21.49 C6.40166667,21.4233333 6.3,21.3583333 6.25,21.295 C6.2,21.2316667 6.175,21.15 6.175,21.05 C6.175,20.9233333 6.23,20.825 6.34,20.755 C6.45,20.685 6.60833333,20.65 6.815,20.65 C7.255,20.65 7.69166667,20.7866667 8.125,21.06 L8.125,21.06 L8.705,20.17 C8.45166667,19.9633333 8.15833333,19.8033333 7.825,19.69 C7.49166667,19.5766667 7.135,19.52 6.755,19.52 C6.32166667,19.52 5.94,19.5916667 5.61,19.735 C5.28,19.8783333 5.02666667,20.0716667 4.85,20.315 C4.67333333,20.5583333 4.585,20.8333333 4.585,21.14 C4.585,21.5466667 4.715,21.8866667 4.975,22.16 C5.235,22.4333333 5.62833333,22.6466667 6.155,22.8 C6.48833333,22.8933333 6.73166667,22.9716667 6.885,23.035 C7.03833333,23.0983333 7.14166667,23.1666667 7.195,23.24 C7.24833333,23.3133333 7.275,23.4133333 7.275,23.54 C7.275,23.7 7.20666667,23.8233333 7.07,23.91 C6.93333333,23.9966667 6.745,24.04 6.505,24.04 C6.01166667,24.04 5.54166667,23.8666667 5.095,23.52 L5.095,23.52 L4.325,24.38 C4.59166667,24.6266667 4.91666667,24.82 5.3,24.96 C5.68333333,25.1 6.09833333,25.17 6.545,25.17 Z M12.615,25 L14.285,19.69 L12.675,19.69 L11.695,23.8 L10.755,19.69 L9.035,19.69 L10.745,25 L12.615,25 Z M16.825,27.22 C17.725,27.22 18.4133333,27.065 18.89,26.755 C19.3666667,26.445 19.605,26.0133333 19.605,25.46 C19.605,25.1666667 19.5216667,24.9033333 19.355,24.67 C19.1883333,24.4366667 18.9516667,24.2533333 18.645,24.12 C18.3383333,23.9866667 17.9816667,23.92 17.575,23.92 L17.575,23.92 L16.775,23.92 C16.5416667,23.92 16.3866667,23.8916667 16.31,23.835 C16.2333333,23.7783333 16.195,23.7 16.195,23.6 C16.195,23.54 16.21,23.4816667 16.24,23.425 C16.27,23.3683333 16.3116667,23.3266667 16.365,23.3 C16.5583333,23.34 16.7616667,23.36 16.975,23.36 C17.4283333,23.36 17.8233333,23.2833333 18.16,23.13 C18.4966667,22.9766667 18.755,22.765 18.935,22.495 C19.115,22.225 19.205,21.92 19.205,21.58 C19.205,21.24 19.125,20.9633333 18.965,20.75 C18.805,20.5366667 18.5516667,20.3566667 18.205,20.21 C18.8783333,20.21 19.3883333,20.14 19.735,20 L19.735,20 L19.365,18.83 C18.9716667,19.0633333 18.59,19.24 18.22,19.36 C17.85,19.48 17.3983333,19.5333333 16.865,19.52 C16.165,19.52 15.6016667,19.695 15.175,20.045 C14.7483333,20.395 14.535,20.8666667 14.535,21.46 C14.535,21.8066667 14.61,22.1016667 14.76,22.345 C14.91,22.5883333 15.1516667,22.8 15.485,22.98 C15.2916667,23.1 15.1383333,23.2516667 15.025,23.435 C14.9116667,23.6183333 14.855,23.8066667 14.855,24 C14.855,24.3066667 14.99,24.5583333 15.26,24.755 C15.53,24.9516667 15.9383333,25.05 16.485,25.05 L16.485,25.05 L17.255,25.05 C17.5083333,25.05 17.6983333,25.0966667 17.825,25.19 C17.9516667,25.2833333 18.015,25.41 18.015,25.57 C18.015,25.7633333 17.9316667,25.9116667 17.765,26.015 C17.5983333,26.1183333 17.2983333,26.17 16.865,26.17 C16.5516667,26.17 16.3116667,26.1466667 16.145,26.1 C15.9783333,26.0533333 15.8633333,25.9833333 15.8,25.89 C15.7366667,25.7966667 15.705,25.67 15.705,25.51 L15.705,25.51 L14.285,25.51 C14.285,25.8833333 14.36,26.1933333 14.51,26.44 C14.66,26.6866667 14.9216667,26.8783333 15.295,27.015 C15.6683333,27.1516667 16.1783333,27.22 16.825,27.22 Z M16.905,22.34 C16.6583333,22.34 16.4633333,22.2616667 16.32,22.105 C16.1766667,21.9483333 16.105,21.7266667 16.105,21.44 C16.105,21.1666667 16.1766667,20.9516667 16.32,20.795 C16.4633333,20.6383333 16.6583333,20.56 16.905,20.56 C17.4383333,20.56 17.705,20.8466667 17.705,21.42 C17.705,21.7266667 17.6366667,21.9566667 17.5,22.11 C17.3633333,22.2633333 17.165,22.34 16.905,22.34 Z" id="svg" fill="#50E3C2" fill-rule="nonzero"></path>
        <g id="svg" transform="translate(3.600000, 6.600000)">
            <path d="M1.4,9.3 C1.4,4.76666667 3.75,2.5 8.45,2.5 C13.15,2.5 15.4666667,4.76666667 15.4,9.3" id="path" stroke="#50E3C2" stroke-linecap="round"></path>
            <rect id="handle-bar" fill="#50E3C2" x="2.55" y="2" width="11.7" height="1"></rect>
            <rect id="handle-left" stroke="#50E3C2" stroke-width="0.5" fill="#BD10E0" x="0.25" y="1.35" width="2.3" height="2.3"></rect>
            <rect id="handle-right" stroke="#50E3C2" stroke-width="0.5" fill="#BD10E0" x="14.25" y="1.35" width="2.3" height="2.3"></rect>
            <circle id="handle-mid" stroke="#50E3C2" fill="#BD10E0" cx="8.4" cy="2.5" r="2"></circle>
        </g>
    </g>
</svg>