<?xml version="1.0" encoding="UTF-8"?>
<svg width="24px" height="31px" viewBox="0 0 24 31" version="1.1" xmlns="http://www.w3.org/2000/svg" xmlns:xlink="http://www.w3.org/1999/xlink">
    <!-- Generator: Sketch 48.2 (47327) - http://www.bohemiancoding.com/sketch -->
    <title>file-code</title>
    <desc>Created with Sketch.</desc>
    <defs></defs>
    <g id="Page-1" stroke="none" stroke-width="1" fill="none" fill-rule="evenodd">
        <g id="file-code" fill="#DFE5E8">
            <g id="file-background" fill-rule="nonzero">
                <path d="M2,1 C1.44771525,1 1,1.44771525 1,2 L1,29 C1,29.5522847 1.44771525,30 2,30 L22,30 C22.5522847,30 23,29.5522847 23,29 L23,2 C23,1.44771525 22.5522847,1 22,1 L2,1 Z M2,0 L22,0 C23.1045695,-2.02906125e-16 24,0.8954305 24,2 L24,29 C24,30.1045695 23.1045695,31 22,31 L2,31 C0.8954305,31 1.3527075e-16,30.1045695 0,29 L0,2 C-1.3527075e-16,0.8954305 0.8954305,2.02906125e-16 2,0 Z" id="border"></path>
            </g>
            <path d="M9.98554878,9 L9.98554878,11 C9.27587136,11 8.98554878,11.4436405 8.98554878,12 L8.98554878,14 C8.98554878,15.4972334 8.75109512,15.7234952 7.61290323,15.9182656 C8.60064353,16.0996056 8.98554878,16.616234 8.98554878,18 L8.98554878,20 C8.98554878,20.5563595 9.28877459,21 9.98554878,21 L9.98554878,23 C7.31458104,23 6.98554878,21.5692192 6.98554878,20 L6.98554878,18 C6.98554878,17.1440622 6.65806452,17 6,17 L6,15 C6.65806452,15 6.98554878,14.8559378 6.98554878,14 L6.98554878,12 C6.98554878,10.4165151 7.31458104,9 9.98554878,9 Z M14,9 L14,11 C14.7096774,11 15,11.4436405 15,12 L15,14 C15,15.4972334 15.2344537,15.7234952 16.3726456,15.9182656 C15.3849052,16.0996056 15,16.616234 15,18 L15,20 C15,20.5563595 14.6967742,21 14,21 L14,23 C16.6709677,23 17,21.5692192 17,20 L17,18 C17,17.1440622 17.3274843,17 17.9855488,17 L17.9855488,15 C17.3274843,15 17,14.8559378 17,14 L17,12 C17,10.4165151 16.6709677,9 14,9 Z" id="{-}"></path>
        </g>
    </g>
</svg>