<?xml version="1.0" encoding="UTF-8"?>
<svg width="24px" height="31px" viewBox="0 0 24 31" version="1.1" xmlns="http://www.w3.org/2000/svg" xmlns:xlink="http://www.w3.org/1999/xlink">
    <!-- Generator: Sketch 48.2 (47327) - http://www.bohemiancoding.com/sketch -->
    <title>file-unknown</title>
    <desc>Created with Sketch.</desc>
    <defs></defs>
    <g id="Page-1" stroke="none" stroke-width="1" fill="none" fill-rule="evenodd">
        <g id="file-unknown" fill="#DFE5E8">
            <g id="file-background" fill-rule="nonzero">
                <path d="M2,1 C1.44771525,1 1,1.44771525 1,2 L1,29 C1,29.5522847 1.44771525,30 2,30 L22,30 C22.5522847,30 23,29.5522847 23,29 L23,2 C23,1.44771525 22.5522847,1 22,1 L2,1 Z M2,0 L22,0 C23.1045695,-2.02906125e-16 24,0.8954305 24,2 L24,29 C24,30.1045695 23.1045695,31 22,31 L2,31 C0.8954305,31 1.3527075e-16,30.1045695 0,29 L0,2 C-1.3527075e-16,0.8954305 0.8954305,2.02906125e-16 2,0 Z" id="border"></path>
            </g>
            <path d="M12.0248098,8.916 C14.8155707,8.916 16.193288,10.3290435 16.193288,11.9893696 C16.193288,14.8861087 13.0316033,14.7801304 13.0316033,16.5640978 L13.0316033,16.7937174 L9.92290761,16.7937174 L9.92290761,16.4581196 C9.92290761,13.3494239 12.537038,13.4907283 12.537038,12.3249674 C12.537038,11.8833913 12.2191033,11.6361087 11.6362228,11.6361087 C11.0180163,11.6361087 10.3821467,11.9717065 9.7992663,12.589913 L7.62671196,10.8942609 C8.61584239,9.7285 9.99355978,8.916 12.0248098,8.916 Z M11.4949185,18.277413 C12.501712,18.277413 13.314212,19.1075761 13.314212,20.0967065 C13.314212,21.085837 12.501712,21.916 11.4949185,21.916 C10.488125,21.916 9.675625,21.085837 9.675625,20.0967065 C9.675625,19.1075761 10.488125,18.277413 11.4949185,18.277413 Z" id="?"></path>
        </g>
    </g>
</svg>