<?xml version="1.0" encoding="UTF-8"?>
<svg width="24px" height="31px" viewBox="0 0 24 31" version="1.1" xmlns="http://www.w3.org/2000/svg" xmlns:xlink="http://www.w3.org/1999/xlink">
    <title>file-calendar</title>
    <defs>
        <rect id="path-1" x="0" y="0" width="24" height="22"></rect>
        <rect id="path-3" x="0" y="0" width="24" height="9"></rect>
    </defs>
    <g id="file-calendar" stroke="none" stroke-width="1" fill="none" fill-rule="evenodd">
        <g id="file-background" transform="translate(0.000000, 9.000000)">
            <mask id="mask-2" fill="white">
                <use xlink:href="#path-1"></use>
            </mask>
            <g id="Mask" transform="translate(12.000000, 11.000000) scale(1, -1) translate(-12.000000, -11.000000) "></g>
            <g id="Group" mask="url(#mask-2)">
                <g transform="translate(0.000000, -9.000000)">
                    <path d="M2,0 L22,0 C23.1045695,0 24,0.8954305 24,2 L24,29 C24,30.1045695 23.1045695,31 22,31 L2,31 C0.8954305,31 0,30.1045695 0,29 L0,2 C0,0.8954305 0.8954305,0 2,0 Z" id="border" fill="#50E3C2" fill-rule="nonzero"></path>
                    <path d="M2,1 C1.44771525,1 1,1.44771525 1,2 L1,29 C1,29.5522847 1.44771525,30 2,30 L22,30 C22.5522847,30 23,29.5522847 23,29 L23,2 C23,1.44771525 22.5522847,1 22,1 L2,1 Z" id="background" fill="#BD10E0" fill-rule="nonzero"></path>
                </g>
            </g>
        </g>
        <path d="M4,24 C4.55228475,24 5,24.4477153 5,25 C5,25.5522847 4.55228475,26 4,26 C3.44771525,26 3,25.5522847 3,25 C3,24.4477153 3.44771525,24 4,24 Z M12,24 C12.5522847,24 13,24.4477153 13,25 C13,25.5522847 12.5522847,26 12,26 C11.4477153,26 11,25.5522847 11,25 C11,24.4477153 11.4477153,24 12,24 Z M8,24 C8.55228475,24 9,24.4477153 9,25 C9,25.5522847 8.55228475,26 8,26 C7.44771525,26 7,25.5522847 7,25 C7,24.4477153 7.44771525,24 8,24 Z M16,24 C16.5522847,24 17,24.4477153 17,25 C17,25.5522847 16.5522847,26 16,26 C15.4477153,26 15,25.5522847 15,25 C15,24.4477153 15.4477153,24 16,24 Z M4,20 C4.55228475,20 5,20.4477153 5,21 C5,21.5522847 4.55228475,22 4,22 C3.44771525,22 3,21.5522847 3,21 C3,20.4477153 3.44771525,20 4,20 Z M12,20 C12.5522847,20 13,20.4477153 13,21 C13,21.5522847 12.5522847,22 12,22 C11.4477153,22 11,21.5522847 11,21 C11,20.4477153 11.4477153,20 12,20 Z M20,20 C20.5522847,20 21,20.4477153 21,21 C21,21.5522847 20.5522847,22 20,22 C19.4477153,22 19,21.5522847 19,21 C19,20.4477153 19.4477153,20 20,20 Z M8,20 C8.55228475,20 9,20.4477153 9,21 C9,21.5522847 8.55228475,22 8,22 C7.44771525,22 7,21.5522847 7,21 C7,20.4477153 7.44771525,20 8,20 Z M16,20 C16.5522847,20 17,20.4477153 17,21 C17,21.5522847 16.5522847,22 16,22 C15.4477153,22 15,21.5522847 15,21 C15,20.4477153 15.4477153,20 16,20 Z M4,16 C4.55228475,16 5,16.4477153 5,17 C5,17.5522847 4.55228475,18 4,18 C3.44771525,18 3,17.5522847 3,17 C3,16.4477153 3.44771525,16 4,16 Z M12,16 C12.5522847,16 13,16.4477153 13,17 C13,17.5522847 12.5522847,18 12,18 C11.4477153,18 11,17.5522847 11,17 C11,16.4477153 11.4477153,16 12,16 Z M20,16 C20.5522847,16 21,16.4477153 21,17 C21,17.5522847 20.5522847,18 20,18 C19.4477153,18 19,17.5522847 19,17 C19,16.4477153 19.4477153,16 20,16 Z M8,16 C8.55228475,16 9,16.4477153 9,17 C9,17.5522847 8.55228475,18 8,18 C7.44771525,18 7,17.5522847 7,17 C7,16.4477153 7.44771525,16 8,16 Z M16,16 C16.5522847,16 17,16.4477153 17,17 C17,17.5522847 16.5522847,18 16,18 C15.4477153,18 15,17.5522847 15,17 C15,16.4477153 15.4477153,16 16,16 Z M12,12 C12.5522847,12 13,12.4477153 13,13 C13,13.5522847 12.5522847,14 12,14 C11.4477153,14 11,13.5522847 11,13 C11,12.4477153 11.4477153,12 12,12 Z M20,12 C20.5522847,12 21,12.4477153 21,13 C21,13.5522847 20.5522847,14 20,14 C19.4477153,14 19,13.5522847 19,13 C19,12.4477153 19.4477153,12 20,12 Z M8,12 C8.55228475,12 9,12.4477153 9,13 C9,13.5522847 8.55228475,14 8,14 C7.44771525,14 7,13.5522847 7,13 C7,12.4477153 7.44771525,12 8,12 Z M16,12 C16.5522847,12 17,12.4477153 17,13 C17,13.5522847 16.5522847,14 16,14 C15.4477153,14 15,13.5522847 15,13 C15,12.4477153 15.4477153,12 16,12 Z" id="days" fill="#50E3C2"></path>
        <circle id="mark" stroke="#046ABD" cx="8" cy="17" r="2.5"></circle>
        <g id="top-bar">
            <mask id="mask-4" fill="white">
                <use xlink:href="#path-3"></use>
            </mask>
            <g id="Mask"></g>
            <path d="M22,0.5 C22.4142136,0.5 22.7892136,0.667893219 23.0606602,0.939339828 C23.3321068,1.21078644 23.5,1.58578644 23.5,2 L23.5,2 L23.5,9.5 L0.5,9.5 L0.5,2 C0.5,1.58578644 0.667893219,1.21078644 0.939339828,0.939339828 C1.21078644,0.667893219 1.58578644,0.5 2,0.5 L2,0.5 Z" stroke="#00579F" fill="#046ABD" mask="url(#mask-4)"></path>
        </g>
        <path d="M5,0 L5,4 L4,4 L4,0 L5,0 Z M10,0 L10,4 L9,4 L9,0 L10,0 Z M15,0 L15,4 L14,4 L14,0 L15,0 Z M20,0 L20,4 L19,4 L19,0 L20,0 Z" id="binder" fill="#50E3C2"></path>
    </g>
</svg>