<?xml version="1.0" encoding="UTF-8"?>
<svg width="24px" height="31px" viewBox="0 0 24 31" version="1.1" xmlns="http://www.w3.org/2000/svg" xmlns:xlink="http://www.w3.org/1999/xlink">
    <!-- Generator: Sketch 48.2 (47327) - http://www.bohemiancoding.com/sketch -->
    <title>file-pdf</title>
    <desc>Created with Sketch.</desc>
    <defs></defs>
    <g id="Page-1" stroke="none" stroke-width="1" fill="none" fill-rule="evenodd">
        <g id="file-pdf">
            <g id="file-background" fill="#DFE5E8" fill-rule="nonzero">
                <path d="M2,1 C1.44771525,1 1,1.44771525 1,2 L1,29 C1,29.5522847 1.44771525,30 2,30 L22,30 C22.5522847,30 23,29.5522847 23,29 L23,2 C23,1.44771525 22.5522847,1 22,1 L2,1 Z M2,0 L22,0 C23.1045695,-2.02906125e-16 24,0.8954305 24,2 L24,29 C24,30.1045695 23.1045695,31 22,31 L2,31 C0.8954305,31 1.3527075e-16,30.1045695 0,29 L0,2 C-1.3527075e-16,0.8954305 0.8954305,2.02906125e-16 2,0 Z" id="border"></path>
            </g>
            <path d="M11.9361423,10.346989 C11.8391423,11.251989 11.5221423,12.900989 10.9041423,14.519989 C10.2881423,16.141989 9.37514227,17.729989 8.57914227,18.909989 C7.78214227,20.087989 7.10114227,20.852989 6.58114227,21.295989 C6.06214227,21.736989 5.69914227,21.854989 5.46614227,21.894989 C5.23314227,21.934989 5.12714227,21.894989 5.06114227,21.777989 C4.99814227,21.659989 4.97714227,21.462989 5.03014227,21.226989 C5.08314227,20.992989 5.21114227,20.716989 5.57214227,20.363989 C5.93214227,20.009989 6.52814227,19.578989 7.35714227,19.175989 C8.18614227,18.773989 9.24814227,18.400989 10.1191423,18.144989 C10.9901423,17.888989 11.6701423,17.751989 12.2651423,17.644989 C12.8601423,17.536989 13.3691423,17.457989 13.8691423,17.418989 C14.3691423,17.378989 14.8571423,17.378989 15.3361423,17.418989 C15.8141423,17.457989 16.2811423,17.535989 16.6841423,17.634989 C17.0901423,17.731989 17.4291423,17.851989 17.7261423,18.036989 C18.0251423,18.223989 18.2781423,18.477989 18.4071423,18.762989 C18.5341423,19.048989 18.5341423,19.362989 18.4281423,19.587989 C18.3231423,19.814989 18.1101423,19.951989 17.8651423,20.028989 C17.6191423,20.108989 17.3431423,20.127989 17.0141423,20.028989 C16.6841423,19.930989 16.3021423,19.714989 15.8991423,19.429989 C15.4951423,19.145989 15.0701423,18.791989 14.5181423,18.242989 C13.9651423,17.691989 13.2861423,16.944989 12.7111423,16.219989 C12.1381423,15.492989 11.6701423,14.785989 11.3531423,14.186989 C11.0341423,13.587989 10.8641423,13.096989 10.7261423,12.604989 C10.5881423,12.113989 10.4821423,11.624989 10.4391423,11.182989 C10.3961423,10.739989 10.4755541,9.32235642 11.1140758,9.05779049 C11.7525975,8.79322456 12.0301423,9.47398903 11.9361423,10.346989 Z" id="Shape" stroke="#FF3601" stroke-width="0.75" stroke-linejoin="round"></path>
        </g>
    </g>
</svg>