<?xml version="1.0" encoding="UTF-8"?>
<svg width="24px" height="31px" viewBox="0 0 24 31" version="1.1" xmlns="http://www.w3.org/2000/svg" xmlns:xlink="http://www.w3.org/1999/xlink">
    <!-- Generator: Sketch 48.2 (47327) - http://www.bohemiancoding.com/sketch -->
    <title>file-email</title>
    <desc>Created with Sketch.</desc>
    <defs></defs>
    <g id="Page-1" stroke="none" stroke-width="1" fill="none" fill-rule="evenodd">
        <g id="file-email" fill="#DFE5E8">
            <g id="file-background" fill-rule="nonzero">
                <path d="M2,1 C1.44771525,1 1,1.44771525 1,2 L1,29 C1,29.5522847 1.44771525,30 2,30 L22,30 C22.5522847,30 23,29.5522847 23,29 L23,2 C23,1.44771525 22.5522847,1 22,1 L2,1 Z M2,0 L22,0 C23.1045695,-2.02906125e-16 24,0.8954305 24,2 L24,29 C24,30.1045695 23.1045695,31 22,31 L2,31 C0.8954305,31 1.3527075e-16,30.1045695 0,29 L0,2 C-1.3527075e-16,0.8954305 0.8954305,2.02906125e-16 2,0 Z" id="border"></path>
            </g>
            <path d="M8.93,16.83 C8.93,17 8.92,17.24 8.9,17.4 L5.62,17.4 C5.72,18.35 6.17,18.61 6.82,18.61 C7.25,18.61 7.63,18.46 8.09,18.14 L8.74,19.02 C8.21,19.44 7.53,19.76 6.67,19.76 C4.9,19.76 4,18.62 4,16.96 C4,15.37 4.87,14.11 6.48,14.11 C8,14.11 8.93,15.11 8.93,16.83 Z M7.38,16.45 L7.38,16.38 C7.37,15.66 7.15,15.16 6.52,15.16 C5.99,15.16 5.69,15.49 5.61,16.45 L7.38,16.45 Z M15.71,14.11 C16.53,14.11 17.1,14.7 17.1,15.71 L17.1,19.59 L15.52,19.59 L15.52,15.98 C15.52,15.42 15.31,15.27 15.07,15.27 C14.73,15.27 14.49,15.52 14.26,15.96 L14.26,19.59 L12.68,19.59 L12.68,15.98 C12.68,15.42 12.47,15.27 12.23,15.27 C11.9,15.27 11.65,15.52 11.42,15.96 L11.42,19.59 L9.84,19.59 L9.84,14.28 L11.22,14.28 L11.33,14.9 C11.74,14.38 12.22,14.11 12.87,14.11 C13.46,14.11 13.91,14.41 14.12,14.95 C14.54,14.4 15.03,14.11 15.71,14.11 Z M19.7,19.76 C18.78,19.76 18.24,19.21 18.24,18.24 L18.24,12.17 L19.82,12 L19.82,18.18 C19.82,18.4 19.9,18.51 20.09,18.51 C20.2,18.51 20.28,18.49 20.35,18.46 L20.66,19.58 C20.42,19.68 20.08,19.76 19.7,19.76 Z" id="eml"></path>
        </g>
    </g>
</svg>