<?xml version="1.0" encoding="UTF-8"?>
<svg width="24px" height="31px" viewBox="0 0 24 31" version="1.1" xmlns="http://www.w3.org/2000/svg" xmlns:xlink="http://www.w3.org/1999/xlink">
    <title>file-jpg</title>
    <g id="file-jpg" stroke="none" stroke-width="1" fill="none" fill-rule="evenodd">
        <g id="Group" fill-rule="nonzero">
            <g>
                <path d="M2,0 L22,0 C23.1045695,0 24,0.8954305 24,2 L24,29 C24,30.1045695 23.1045695,31 22,31 L2,31 C0.8954305,31 0,30.1045695 0,29 L0,2 C0,0.8954305 0.8954305,0 2,0 Z" id="border" fill="#50E3C2"></path>
                <path d="M2,1 C1.44771525,1 1,1.44771525 1,2 L1,29 C1,29.5522847 1.44771525,30 2,30 L22,30 C22.5522847,30 23,29.5522847 23,29 L23,2 C23,1.44771525 22.5522847,1 22,1 L2,1 Z" id="background" fill="#BD10E0"></path>
            </g>
        </g>
        <path d="M6.255,18.69 C6.52833333,18.69 6.75333333,18.605 6.93,18.435 C7.10666667,18.265 7.195,18.05 7.195,17.79 C7.195,17.53 7.10666667,17.315 6.93,17.145 C6.75333333,16.975 6.52833333,16.89 6.255,16.89 C5.98166667,16.89 5.75833333,16.975 5.585,17.145 C5.41166667,17.315 5.325,17.53 5.325,17.79 C5.325,18.05 5.41166667,18.265 5.585,18.435 C5.75833333,18.605 5.98166667,18.69 6.255,18.69 Z M4.915,27.21 C5.375,27.0433333 5.75666667,26.8516667 6.06,26.635 C6.36333333,26.4183333 6.60333333,26.13 6.78,25.77 C6.95666667,25.41 7.045,24.9533333 7.045,24.4 L7.045,24.4 L7.045,19.69 L5.465,19.69 L5.465,24.5 C5.465,24.8133333 5.42333333,25.065 5.34,25.255 C5.25666667,25.445 5.14166667,25.5966667 4.995,25.71 C4.84833333,25.8233333 4.645,25.94 4.385,26.06 L4.385,26.06 L4.915,27.21 Z M8.285,27.22 L9.865,27.05 L9.865,24.62 C10.1916667,24.9866667 10.6216667,25.17 11.155,25.17 C11.5816667,25.17 11.955,25.0483333 12.275,24.805 C12.595,24.5616667 12.84,24.225 13.01,23.795 C13.18,23.365 13.265,22.8766667 13.265,22.33 C13.265,21.4433333 13.1016667,20.7533333 12.775,20.26 C12.4483333,19.7666667 11.9516667,19.52 11.285,19.52 C11.005,19.52 10.7316667,19.5816667 10.465,19.705 C10.1983333,19.8283333 9.96166667,20.02 9.755,20.28 L9.755,20.28 L9.675,19.69 L8.285,19.69 L8.285,27.22 Z M10.675,24.01 C10.3483333,24.01 10.0783333,23.8533333 9.865,23.54 L9.865,23.54 L9.865,21.3 C9.985,21.1 10.1233333,20.9466667 10.28,20.84 C10.4366667,20.7333333 10.605,20.68 10.785,20.68 C11.065,20.68 11.275,20.8016667 11.415,21.045 C11.555,21.2883333 11.625,21.7233333 11.625,22.35 C11.625,23.4566667 11.3083333,24.01 10.675,24.01 Z M16.235,27.22 C17.135,27.22 17.8233333,27.065 18.3,26.755 C18.7766667,26.445 19.015,26.0133333 19.015,25.46 C19.015,25.1666667 18.9316667,24.9033333 18.765,24.67 C18.5983333,24.4366667 18.3616667,24.2533333 18.055,24.12 C17.7483333,23.9866667 17.3916667,23.92 16.985,23.92 L16.985,23.92 L16.185,23.92 C15.9516667,23.92 15.7966667,23.8916667 15.72,23.835 C15.6433333,23.7783333 15.605,23.7 15.605,23.6 C15.605,23.54 15.62,23.4816667 15.65,23.425 C15.68,23.3683333 15.7216667,23.3266667 15.775,23.3 C15.9683333,23.34 16.1716667,23.36 16.385,23.36 C16.8383333,23.36 17.2333333,23.2833333 17.57,23.13 C17.9066667,22.9766667 18.165,22.765 18.345,22.495 C18.525,22.225 18.615,21.92 18.615,21.58 C18.615,21.24 18.535,20.9633333 18.375,20.75 C18.215,20.5366667 17.9616667,20.3566667 17.615,20.21 C18.2883333,20.21 18.7983333,20.14 19.145,20 L19.145,20 L18.775,18.83 C18.3816667,19.0633333 18,19.24 17.63,19.36 C17.26,19.48 16.8083333,19.5333333 16.275,19.52 C15.575,19.52 15.0116667,19.695 14.585,20.045 C14.1583333,20.395 13.945,20.8666667 13.945,21.46 C13.945,21.8066667 14.02,22.1016667 14.17,22.345 C14.32,22.5883333 14.5616667,22.8 14.895,22.98 C14.7016667,23.1 14.5483333,23.2516667 14.435,23.435 C14.3216667,23.6183333 14.265,23.8066667 14.265,24 C14.265,24.3066667 14.4,24.5583333 14.67,24.755 C14.94,24.9516667 15.3483333,25.05 15.895,25.05 L15.895,25.05 L16.665,25.05 C16.9183333,25.05 17.1083333,25.0966667 17.235,25.19 C17.3616667,25.2833333 17.425,25.41 17.425,25.57 C17.425,25.7633333 17.3416667,25.9116667 17.175,26.015 C17.0083333,26.1183333 16.7083333,26.17 16.275,26.17 C15.9616667,26.17 15.7216667,26.1466667 15.555,26.1 C15.3883333,26.0533333 15.2733333,25.9833333 15.21,25.89 C15.1466667,25.7966667 15.115,25.67 15.115,25.51 L15.115,25.51 L13.695,25.51 C13.695,25.8833333 13.77,26.1933333 13.92,26.44 C14.07,26.6866667 14.3316667,26.8783333 14.705,27.015 C15.0783333,27.1516667 15.5883333,27.22 16.235,27.22 Z M16.315,22.34 C16.0683333,22.34 15.8733333,22.2616667 15.73,22.105 C15.5866667,21.9483333 15.515,21.7266667 15.515,21.44 C15.515,21.1666667 15.5866667,20.9516667 15.73,20.795 C15.8733333,20.6383333 16.0683333,20.56 16.315,20.56 C16.8483333,20.56 17.115,20.8466667 17.115,21.42 C17.115,21.7266667 17.0466667,21.9566667 16.91,22.11 C16.7733333,22.2633333 16.575,22.34 16.315,22.34 Z" id="jpg" fill="#50E3C2" fill-rule="nonzero"></path>
        <path d="M14.8056615,6.8 L19,15.2 L5,15.2 L7.75386583,9.72414912 L10.6210154,12.4620746 L14.8056615,6.8 Z M9.2,4 C9.97319865,4 10.6,4.62680135 10.6,5.4 C10.6,6.17319865 9.97319865,6.8 9.2,6.8 C8.42680135,6.8 7.8,6.17319865 7.8,5.4 C7.8,4.62680135 8.42680135,4 9.2,4 Z" id="Combined-Shape" fill="#50E3C2"></path>
    </g>
</svg>