<?xml version="1.0" encoding="UTF-8"?>
<svg width="17px" height="17px" viewBox="0 0 17 17" version="1.1" xmlns="http://www.w3.org/2000/svg" xmlns:xlink="http://www.w3.org/1999/xlink">
    <!-- Generator: Sketch 40.2 (33826) - http://www.bohemiancoding.com/sketch -->
    <title>form</title>
    <desc>Created with Sketch.</desc>
    <defs></defs>
    <g id="Page-1" stroke="none" stroke-width="1" fill="none" fill-rule="evenodd">
        <g id="form" fill="#50E3C2">
            <path d="M8.49986822,0 C3.8132122,0 0,3.81347576 0,8.49986822 C0,13.1870514 3.8132122,17.0002636 8.49986822,17.0002636 C13.1859971,17.0002636 17,13.1867878 17,8.49986822 C17,3.81347576 13.1859971,0 8.49986822,0 L8.49986822,0 Z M15.078898,11.9501558 C15.0773166,11.9501558 15.0757353,11.9485744 15.0741539,11.9485744 L13.3204136,11.9485744 C13.5802856,11.0637975 13.7595076,10.0772856 13.8085301,9.0175036 L15.9114897,9.0175036 C15.8366382,10.0728051 15.5483016,11.0595805 15.078898,11.9501558 L15.078898,11.9501558 Z M9.06178199,15.9075363 L9.06178199,12.9838452 L11.8513201,12.9838452 C11.3073286,14.285577 10.669509,15.2370351 10.3081658,15.7172447 C9.9049162,15.8192431 9.48901567,15.8751182 9.06178199,15.9075363 L9.06178199,15.9075363 Z M6.73242275,15.7301592 C6.37292445,15.2560115 5.72851584,14.2984915 5.17846235,12.9838452 L8.02703834,12.9838452 L8.02703834,15.9164974 C7.58399095,15.8880327 7.1509589,15.8324212 6.73242275,15.7301592 L6.73242275,15.7301592 Z M1.91978419,11.9501558 C1.4511713,11.0595805 1.16125331,10.0728051 1.08666532,9.0175036 L3.21993457,9.0175036 C3.26895707,10.0772856 3.4481791,11.0637975 3.70805104,11.9485744 L1.92558255,11.9485744 C1.92321049,11.9485744 1.92189268,11.9501558 1.91978419,11.9501558 L1.91978419,11.9501558 Z M1.96880669,4.9586518 C1.97381436,4.95944249 1.97724066,4.96181455 1.98145765,4.96181455 L3.74231407,4.96181455 C3.41549743,6.01289902 3.26236803,7.02155005 3.22283375,7.98275996 L1.08666532,7.98275996 C1.16336181,6.8908234 1.47146556,5.87242058 1.96880669,4.9586518 L1.96880669,4.9586518 Z M8.0273019,1.08244833 L8.0273019,3.92680734 L5.24303499,3.92680734 C5.63547852,3.04914652 6.15654021,2.14908296 6.84153734,1.23557774 C7.22528333,1.1475481 7.62352522,1.10854095 8.0273019,1.08244833 L8.0273019,1.08244833 Z M10.1964156,1.24717446 C10.8774593,2.15725338 11.3953582,3.05283639 11.7859568,3.92680734 L9.06178199,3.92680734 L9.06178199,1.09220012 C9.44842716,1.1206648 9.82927396,1.16125331 10.1964156,1.24717446 L10.1964156,1.24717446 Z M12.1889428,4.96181455 C12.5465962,6.01500752 12.7176478,7.02497636 12.7619262,7.98275996 L9.06178199,7.98275996 L9.06178199,4.96181455 L12.1889428,4.96181455 L12.1889428,4.96181455 Z M8.0273019,4.96181455 L8.0273019,7.98275996 L4.2665385,7.98275996 C4.31134401,7.02497636 4.48239562,6.01500752 4.84110324,4.96181455 L8.0273019,4.96181455 L8.0273019,4.96181455 Z M4.26522069,9.0175036 L8.0273019,9.0175036 L8.0273019,11.9485744 L4.79761554,11.9485744 C4.51850359,11.0740764 4.31766949,10.0902002 4.26522069,9.0175036 L4.26522069,9.0175036 Z M9.06178199,11.9485744 L9.06178199,9.0175036 L12.7635075,9.0175036 C12.7100045,10.0902002 12.5107518,11.0740764 12.2311127,11.9485744 L9.06178199,11.9485744 L9.06178199,11.9485744 Z M13.8053674,7.98275996 C13.7668873,7.02155005 13.6132308,6.01289902 13.285887,4.96181455 L15.016961,4.96181455 C15.0206508,4.96181455 15.0251314,4.95944249 15.0298755,4.9586518 C15.5261624,5.87242058 15.8350568,6.8908234 15.9112262,7.98275996 L13.8053674,7.98275996 L13.8053674,7.98275996 Z M14.3551573,3.92680734 L12.9002961,3.92680734 C12.624874,3.25261624 12.289887,2.56840979 11.861599,1.8720795 C12.8386227,2.37073844 13.6843925,3.06996791 14.3551573,3.92680734 L14.3551573,3.92680734 Z M5.18584208,1.84545976 C4.75070154,2.55127827 4.40701695,3.24418226 4.12843212,3.92680734 L2.64326134,3.92680734 C3.3253593,3.05573557 4.18878777,2.34490938 5.18584208,1.84545976 L5.18584208,1.84545976 Z M2.5697276,12.9838452 L4.05647974,12.9838452 C4.37328103,13.8106386 4.73541495,14.5167207 5.07224694,15.0928668 C4.08916141,14.5789213 3.23574828,13.8630874 2.5697276,12.9838452 L2.5697276,12.9838452 Z M11.9696594,15.0675648 C12.3028015,14.4961629 12.6599278,13.7990419 12.9714578,12.9838452 L14.4276368,12.9838452 C13.7724221,13.8501729 12.9353498,14.5554643 11.9696594,15.0675648 L11.9696594,15.0675648 Z" id="Shape"></path>
        </g>
    </g>
</svg>