<?xml version="1.0" encoding="UTF-8"?>
<svg width="175px" height="50px" viewBox="0 0 175 50" version="1.1" xmlns="http://www.w3.org/2000/svg" xmlns:xlink="http://www.w3.org/1999/xlink">
    <!-- Generator: Sketch 40.2 (33826) - http://www.bohemiancoding.com/sketch -->
    <title>full-logo</title>
    <desc>Created with Sketch.</desc>
    <defs></defs>
    <g id="Page-1" stroke="none" stroke-width="1" fill="none" fill-rule="evenodd">
        <g id="full-logo">
            <g id="Shape-+-logo">
                <path d="M61.875,33.96875 L71.59375,19.9375 C71.96875,19.40625 72.375,19.03125 72.375,19.03125 L72.375,18.96875 C72.375,18.96875 71.84375,19.0625 71.3125,19.0625 L64.34375,19.0625 L64.34375,22 L62.03125,22 L62.03125,16.875 L75.625,16.875 L75.625,18.625 L65.90625,32.65625 C65.53125,33.1875 65.125,33.5625 65.125,33.5625 L65.125,33.625 C65.125,33.625 65.65625,33.53125 66.1875,33.53125 L73.5625,33.53125 L73.5625,30.5 L75.875,30.5 L75.875,35.71875 L61.875,35.71875 L61.875,33.96875 Z M85,27.40625 L85.84375,27.40625 L85.84375,26.90625 C85.84375,24.78125 84.625,24.03125 82.96875,24.03125 C80.84375,24.03125 79.09375,25.34375 79.09375,25.34375 L78.0625,23.5 C78.0625,23.5 80.03125,21.90625 83.1875,21.90625 C86.625,21.90625 88.4375,23.6875 88.4375,27.125 L88.4375,33.125 C88.4375,33.53125 88.65625,33.71875 89.03125,33.71875 L90.40625,33.71875 L90.40625,35.71875 L87.71875,35.71875 C86.53125,35.71875 86.03125,35.125 86.03125,34.25 L86.03125,34.0625 C86.03125,33.53125 86.125,33.1875 86.125,33.1875 L86.0625,33.1875 C86.0625,33.1875 84.875,36.03125 81.59375,36.03125 C79.34375,36.03125 77.09375,34.71875 77.09375,31.9375 C77.125,27.71875 82.75,27.40625 85,27.40625 Z M82.1875,34.03125 C84.46875,34.03125 85.90625,31.6875 85.90625,29.65625 L85.90625,29.09375 L85.21875,29.09375 C84,29.09375 79.75,29.15625 79.75,31.75 C79.75,32.9375 80.625,34.03125 82.1875,34.03125 Z M92.34375,33.71875 L94.46875,33.71875 L94.46875,24.78125 C94.46875,24.40625 94.25,24.21875 93.875,24.21875 L92.21875,24.21875 L92.21875,22.21875 L95.25,22.21875 C96.40625,22.21875 96.96875,22.71875 96.96875,23.71875 L96.96875,24.40625 C96.96875,24.84375 96.875,25.1875 96.875,25.1875 L96.9375,25.1875 C97.59375,23.59375 99.5625,21.90625 101.75,21.90625 C103.90625,21.90625 105.25,22.90625 105.6875,25.09375 L105.75,25.09375 C106.5,23.40625 108.375,21.90625 110.59375,21.90625 C113.59375,21.90625 115,23.65625 115,27.09375 L115,33.75 L117.125,33.75 L117.125,35.75 L112.40625,35.75 L112.40625,27.65625 C112.40625,25.75 112.0625,24.25 110.03125,24.25 C107.5,24.25 106.0625,26.84375 106.0625,29.5 L106.0625,33.71875 L108.1875,33.71875 L108.1875,35.71875 L103.5,35.71875 L103.5,27.625 C103.5,25.875 103.21875,24.21875 101.15625,24.21875 C98.59375,24.21875 97.09375,26.9375 97.09375,29.59375 L97.09375,33.71875 L99.21875,33.71875 L99.21875,35.71875 L92.375,35.71875 L92.375,33.71875 L92.34375,33.71875 Z M119.0625,33.71875 L121.1875,33.71875 L121.1875,24.78125 C121.1875,24.40625 120.96875,24.21875 120.59375,24.21875 L118.9375,24.21875 L118.9375,22.21875 L121.96875,22.21875 C123.125,22.21875 123.6875,22.71875 123.6875,23.71875 L123.6875,24.40625 C123.6875,24.84375 123.59375,25.1875 123.59375,25.1875 L123.65625,25.1875 C124.3125,23.59375 126.28125,21.90625 128.46875,21.90625 C130.625,21.90625 131.96875,22.90625 132.40625,25.09375 L132.46875,25.09375 C133.21875,23.40625 135.09375,21.90625 137.3125,21.90625 C140.3125,21.90625 141.71875,23.65625 141.71875,27.09375 L141.71875,33.75 L143.84375,33.75 L143.84375,35.75 L139.125,35.75 L139.125,27.65625 C139.125,25.75 138.78125,24.25 136.75,24.25 C134.21875,24.25 132.78125,26.84375 132.78125,29.5 L132.78125,33.71875 L134.90625,33.71875 L134.90625,35.71875 L130.21875,35.71875 L130.21875,27.625 C130.21875,25.875 129.9375,24.21875 127.875,24.21875 C125.3125,24.21875 123.8125,26.9375 123.8125,29.59375 L123.8125,33.71875 L125.9375,33.71875 L125.9375,35.71875 L119.09375,35.71875 L119.09375,33.71875 L119.0625,33.71875 Z M153.25,27.40625 L154.09375,27.40625 L154.09375,26.90625 C154.09375,24.78125 152.875,24.03125 151.21875,24.03125 C149.09375,24.03125 147.34375,25.34375 147.34375,25.34375 L146.3125,23.5 C146.3125,23.5 148.28125,21.90625 151.4375,21.90625 C154.875,21.90625 156.6875,23.6875 156.6875,27.125 L156.6875,33.125 C156.6875,33.53125 156.90625,33.71875 157.28125,33.71875 L158.65625,33.71875 L158.65625,35.71875 L155.96875,35.71875 C154.78125,35.71875 154.28125,35.125 154.28125,34.25 L154.28125,34.0625 C154.28125,33.53125 154.375,33.1875 154.375,33.1875 L154.3125,33.1875 C154.3125,33.1875 153.125,36.03125 149.84375,36.03125 C147.59375,36.03125 145.34375,34.71875 145.34375,31.9375 C145.34375,27.71875 151,27.40625 153.25,27.40625 Z M150.40625,34.03125 C152.6875,34.03125 154.125,31.6875 154.125,29.65625 L154.125,29.09375 L153.46875,29.09375 C152.25,29.09375 148,29.15625 148,31.75 C147.96875,32.9375 148.84375,34.03125 150.40625,34.03125 Z M166.03125,21.875 C169.09375,21.875 170.1875,24.15625 170.1875,24.15625 L170.25,24.15625 C170.25,24.15625 170.15625,23.71875 170.15625,23.15625 L170.15625,18.875 L167.90625,18.875 L167.90625,16.875 L172.75,16.875 L172.75,33.125 C172.75,33.53125 172.96875,33.71875 173.34375,33.71875 L174.71875,33.71875 L174.71875,35.71875 L172.03125,35.71875 C170.84375,35.71875 170.34375,35.125 170.34375,34.25 L170.34375,34.0625 C170.34375,33.59375 170.4375,33.34375 170.4375,33.34375 L170.375,33.34375 C170.375,33.34375 169.28125,36.03125 165.8125,36.03125 C162.1875,36.03125 159.90625,33.15625 159.90625,28.96875 C159.875,24.65625 162.40625,21.875 166.03125,21.875 Z M166.34375,33.78125 C168.34375,33.78125 170.25,32.34375 170.25,28.96875 C170.25,26.5 169,24.125 166.4375,24.125 C164.28125,24.125 162.53125,25.875 162.53125,28.9375 C162.53125,31.90625 164.09375,33.78125 166.34375,33.78125 L166.34375,33.78125 Z" id="Shape" fill="#50E3C2"></path>
                <g id="logo">
                    <polygon id="Shape" fill="#CA2317" points="37.96875 17.5 51 13.5 43.28125 18.40625"></polygon>
                    <polygon id="Shape" fill="#E84F83" points="45.90625 27.25 43.28125 18.40625 51 13.5 48.6875 21.4375"></polygon>
                    <polygon id="Shape" fill="#CA2317" points="54.8125 11.09375 53.375 13.5 48.6875 21.4375 51 13.5"></polygon>
                    <polygon id="Shape" fill="#E54011" points="55.28125 12.65625 51.65625 16.375 53.375 13.5"></polygon>
                    <polygon id="Shape" fill="#E54011" points="38.75 15.03125 49.40625 13.96875 42 16.25"></polygon>
                    <polygon id="Shape" fill="#CA2317" points="39.15625 21.0625 43.28125 18.40625 45.90625 27.25 44.53125 30.0625"></polygon>
                    <polygon id="Shape" fill="#B7DFF2" points="33 31.5625 31.03125 7.5 44.53125 30.0625"></polygon>
                    <polygon id="Shape" fill="#E54011" points="27.40625 37.71875 33 31.5625 44.53125 30.0625"></polygon>
                    <polygon id="Shape" fill="#FFCE33" points="0.21875 49.8125 27.40625 37.71875 33 31.5625 24.125 30.65625"></polygon>
                    <polygon id="Shape" fill="#D6B12D" points="1.25 39.9375 15.21875 37.8125 19.5625 34.3125 17.4375 33.375"></polygon>
                    <polygon id="Shape" fill="#FFDE85" points="6.28125 28.53125 19.5625 34.3125 24.125 30.65625"></polygon>
                    <polygon id="Shape" fill="#009EC6" points="30.03125 16.21875 28.34375 16.5 24.125 30.65625 28.6875 27.78125"></polygon>
                    <polygon id="Shape" fill="#5EAFCE" points="32.5 25.34375 28.6875 27.78125 31.03125 7.5"></polygon>
                    <polygon id="Shape" fill="#045972" points="18.09375 18.125 30.03125 16.21875 30.5625 11.5"></polygon>
                    <polygon id="Shape" fill="#5A8591" points="16.8125 7.0625 27.1875 13.3125 30.5625 11.5 30.65625 10.84375"></polygon>
                    <polygon id="Shape" fill="#009EC6" points="18.84375 0.25 28.28125 10.1875 30.65625 10.84375 31.03125 7.5"></polygon>
                    <polygon id="Shape" fill="#F39804" points="24.125 30.65625 32.5 25.34375 33 31.5625"></polygon>
                </g>
            </g>
        </g>
    </g>
</svg>