<?xml version="1.0" encoding="UTF-8"?>
<svg width="24px" height="24px" viewBox="0 0 24 24" version="1.1" xmlns="http://www.w3.org/2000/svg" xmlns:xlink="http://www.w3.org/1999/xlink">
    <title>github-logo</title>
    <g id="github-logo" stroke="none" stroke-width="1" fill="none" fill-rule="evenodd">
        <path d="M11.998895,3.78002575e-15 C5.37327726,3.78002575e-15 1.79551223e-14,5.37254059 1.79551223e-14,12.0003683 C1.79551223e-14,17.3021885 3.43804291,21.7995641 8.2065134,23.3863532 C8.80690015,23.4968538 9.0256914,23.1263084 9.0256914,22.8080665 C9.0256914,22.5229749 9.015378,21.768624 9.00948464,20.7674883 C5.67162896,21.4923724 4.96737162,19.1585991 4.96737162,19.1585991 C4.42149851,17.7721845 3.63473403,17.4031124 3.63473403,17.4031124 C2.54519783,16.6590749 3.71724117,16.6738083 3.71724117,16.6738083 C4.92169803,16.7585254 5.55523497,17.9106787 5.55523497,17.9106787 C6.62561773,19.7442524 8.36416096,19.2145861 9.04779152,18.9073943 C9.15681881,18.1324166 9.46695724,17.6034869 9.80950919,17.3036619 C7.14497069,17.0008901 4.3434114,15.9710243 4.3434114,11.3727248 C4.3434114,10.062924 4.8111974,8.99106787 5.57880843,8.15273643 C5.45504773,7.84922803 5.04324872,6.62856441 5.69667577,4.97694834 C5.69667577,4.97694834 6.70370484,4.6542865 8.99622456,6.20718868 C9.95316001,5.94051383 10.9800792,5.80791307 12.0003683,5.80275638 C13.0199208,5.80791307 14.0461033,5.94051383 15.0045121,6.20718868 C17.2955585,4.6542865 18.3011142,4.97694834 18.3011142,4.97694834 C18.9560146,6.62856441 18.5442156,7.84922803 18.4211916,8.15273643 C19.1902759,8.99106787 19.6543786,10.062924 19.6543786,11.3727248 C19.6543786,15.982811 16.8483993,16.9972068 14.1757574,17.2940851 C14.6059732,17.6646306 14.9897787,18.3968814 14.9897787,19.5158845 C14.9897787,21.1203536 14.9750453,22.4146843 14.9750453,22.8080665 C14.9750453,23.129255 15.1916265,23.5027472 15.8001166,23.3856165 C20.5649038,21.7951441 24,17.3007152 24,12.0003683 C24,5.37254059 18.6267227,3.78002575e-15 11.998895,3.78002575e-15" fill="#50E3C2"></path>
    </g>
</svg>