<?xml version="1.0" encoding="UTF-8"?>
<svg width="29px" height="24px" viewBox="0 0 29 24" version="1.1" xmlns="http://www.w3.org/2000/svg" xmlns:xlink="http://www.w3.org/1999/xlink">
    <!-- Generator: Sketch 41.2 (35397) - http://www.bohemiancoding.com/sketch -->
    <title>github-button</title>
    <desc>Created with Sketch.</desc>
    <defs></defs>
    <g id="Page-1" stroke="none" stroke-width="1" fill="none" fill-rule="evenodd">
        <g id="github-button" fill="#FFFFFF">
            <path d="M14.4973408,1 C8.27015495,1 3.22000003,6.04946255 3.22000003,12.2787255 C3.22000003,17.2617204 6.45129603,21.4886461 10.9330143,22.9800135 C11.4972967,23.0838691 11.7029309,22.7356065 11.7029309,22.4365021 C11.7029309,22.1685545 11.6932377,21.4595665 11.6876988,20.5186341 C8.55056525,21.1999273 7.88865847,19.0064956 7.88865847,19.0064956 C7.37561147,17.7034532 6.63615912,17.3565752 6.63615912,17.3565752 C5.61214224,16.6572804 6.71370468,16.6711278 6.71370468,16.6711278 C7.84573146,16.7507505 8.44117062,17.8336189 8.44117062,17.8336189 C9.44718585,19.5569307 11.0811817,19.0591158 11.7237021,18.7703971 C11.826173,18.0420227 12.1176612,17.5449002 12.4396138,17.2631051 C9.93530748,16.9785406 7.30222013,16.0106058 7.30222013,11.6888253 C7.30222013,10.4577894 7.74187579,9.45038947 8.46332649,8.66247114 C8.34700814,8.37721424 7.95997269,7.2299553 8.57410587,5.67765926 C8.57410587,5.67765926 9.52057719,5.37440071 11.6752361,6.83391903 C12.5746262,6.58328068 13.5397915,6.45865388 14.4987255,6.45380728 C15.4569671,6.45865388 16.4214401,6.58328068 17.3222149,6.83391903 C19.4754891,5.37440071 20.4205757,5.67765926 20.4205757,5.67765926 C21.0360936,7.2299553 20.6490581,8.37721424 20.5334322,8.66247114 C21.2562676,9.45038947 21.6924614,10.4577894 21.6924614,11.6888253 C21.6924614,16.0216837 19.0552198,16.9750788 16.5432974,17.2541043 C16.9476421,17.602367 17.3083675,18.2905839 17.3083675,19.3422956 C17.3083675,20.8502799 17.2945201,22.066776 17.2945201,22.4365021 C17.2945201,22.7383759 17.4980772,23.0894081 18.0699757,22.9793211 C22.5482321,21.4844918 25.7767586,17.2603357 25.7767586,12.2787255 C25.7767586,6.04946255 20.7266037,1 14.4973408,1" id="Fill-50"></path>
        </g>
    </g>
</svg>