<?xml version="1.0" encoding="UTF-8"?>
<svg width="29px" height="24px" viewBox="0 0 29 24" version="1.1" xmlns="http://www.w3.org/2000/svg" xmlns:xlink="http://www.w3.org/1999/xlink">
    <!-- Generator: Sketch 41.2 (35397) - http://www.bohemiancoding.com/sketch -->
    <title>gitlab-button</title>
    <desc>Created with Sketch.</desc>
    <defs></defs>
    <g id="Page-1" stroke="none" stroke-width="1" fill="none" fill-rule="evenodd">
        <g id="gitlab-button">
            <path d="M26.2386159,10.4338119 L24.906109,14.5347407 L22.2652709,22.6625237 C22.129435,23.0806687 21.5378043,23.0806687 21.4019039,22.6625237 L18.5484734,14.0035384 L10.0092424,14.0035384 L7.35065738,22.6625237 C7.2148215,23.0806687 6.62319074,23.0806687 6.48729038,22.6625237 L3.84645235,14.5347407 L2.51400989,10.4338119 C2.39242162,10.0597636 2.52561429,9.64999949 2.84376813,9.41881411 L14.3762807,1.03998942 L25.9088577,9.41881411 C26.2270115,9.64999949 26.3601397,10.0597636 26.2386159,10.4338119" id="path46" fill="#FF998A" transform="translate(14.376299, 12.008061) scale(1, -1) translate(-14.376299, -12.008061) "></path>
            <polygon id="path50" fill="#FFFFFF" transform="translate(14.508270, 16.491657) scale(1, -1) translate(-14.508270, -16.491657) " points="19.0333653 22.9761324 9.98317439 22.9761324 14.3763065 10.0071814"></polygon>
            <polygon id="path58" fill="#FFC6BD" transform="translate(9.111392, 16.228763) scale(1, -1) translate(-9.111392, -16.228763) " points="14.3763064 9.48141979 9.99158564 22.9761066 3.84647812 22.9761066"></polygon>
            <path d="M3.84647812,22.9760873 L3.84647812,22.9760873 L2.51397119,18.8751584 C2.39244739,18.5011101 2.52557559,18.091346 2.8437939,17.8602251 L14.3763064,9.48140045 L3.84647812,22.9760873 L3.84647812,22.9760873 Z" id="path66" fill="#FF998A" transform="translate(8.422894, 16.228744) scale(1, -1) translate(-8.422894, -16.228744) "></path>
            <path d="M3.59428061,1.03997329 L11.0167084,1.03997329 L7.35068318,9.68881602 C7.21478282,10.1070255 6.62315206,10.1070255 6.48731617,9.68881602 L3.59428061,1.03997329 Z" id="path74" fill="#FFFFFF" transform="translate(7.305495, 5.521223) scale(1, -1) translate(-7.305495, -5.521223) "></path>
            <polygon id="path78" fill="#FFC6BD" transform="translate(19.641221, 16.228763) scale(1, -1) translate(-19.641221, -16.228763) " points="14.3763064 9.48141979 18.7610272 22.9761066 24.9061348 22.9761066"></polygon>
            <path d="M24.9061283,22.9760873 L24.9061283,22.9760873 L26.2386352,18.8751584 C26.360159,18.5011101 26.2270309,18.091346 25.9088126,17.8602251 L14.3763,9.48140045 L24.9061283,22.9760873 L24.9061283,22.9760873 Z" id="path82" fill="#FF998A" transform="translate(20.329712, 16.228744) scale(1, -1) translate(-20.329712, -16.228744) "></path>
            <path d="M25.0656275,1.03997329 L17.991121,1.03997329 L21.4019233,9.70824842 C21.5378236,10.1264579 22.1294544,10.1264579 22.2652903,9.70824842 L25.0656275,1.03997329 Z" id="path86" fill="#FFFFFF" transform="translate(21.528374, 5.530939) scale(1, -1) translate(-21.528374, -5.530939) "></path>
        </g>
    </g>
</svg>