<?xml version="1.0" encoding="UTF-8"?>
<svg width="29px" height="22px" viewBox="0 0 29 22" version="1.1" xmlns="http://www.w3.org/2000/svg" xmlns:xlink="http://www.w3.org/1999/xlink">
    <!-- Generator: Sketch 40.2 (33826) - http://www.bohemiancoding.com/sketch -->
    <title>google-button</title>
    <desc>Created with Sketch.</desc>
    <defs>
        <linearGradient x1="50%" y1="0%" x2="50%" y2="100%" id="linearGradient-1">
            <stop stop-color="#FFFFFF" offset="0%"></stop>
            <stop stop-color="#FAE7E3" offset="100%"></stop>
        </linearGradient>
    </defs>
    <g id="Page-1" stroke="none" stroke-width="1" fill="none" fill-rule="evenodd">
        <g id="google-button">
            <polygon id="plus" fill="#FDF4F2" points="24.0555555 8.04444444 24.0555555 5.00000001 22.0444444 5.00000001 22.0444444 8.04444444 19 8.04444444 19 9.95555556 22.0444444 9.95555556 22.0444444 13 24.0555555 13 24.0555555 9.95555556 27 9.95555556 27 8.04444444"></polygon>
            <path d="M14.1171842,12.6636942 C13.5107183,12.2277942 12.350971,11.1675267 12.350971,10.5445368 C12.350971,9.81408747 12.5563825,9.45423576 13.6387952,8.595386 C14.7486142,7.71504434 15.5338993,6.4773308 15.5338993,5.03764841 C15.5338993,3.32380642 14.7819902,1.65322379 13.3709734,1.10214919 L15.4983525,1.10214919 L17,0 L10.2903438,0 C7.28216459,0 4.45117649,2.31396223 4.45117649,4.9946646 C4.45117649,7.73378087 6.50176377,9.94469215 9.5620421,9.94469215 C9.77478001,9.94469215 9.98154824,9.94028355 10.1839749,9.92540454 C9.98534713,10.3117078 9.84343141,10.7465057 9.84343141,11.1981113 C9.84343141,11.9591453 10.2466566,12.5766244 10.7565221,13.0803066 C10.3714773,13.0803066 9.99918595,13.0916036 9.59351863,13.0916036 C5.86762027,13.0916036 3,15.5011773 3,17.9997495 C3,20.4605731 6.14358259,22 9.86948095,22 C14.1171842,22 16.4632709,19.5526777 16.4632709,17.0915786 C16.4632709,15.118456 15.8899097,13.9366765 14.1171842,12.6636942 L14.1171842,12.6636942 Z M10.5104592,8.99892878 C8.87768413,8.94839543 7.32589428,7.10339638 7.04423994,4.87886531 C6.76232931,2.65353634 7.85716767,0.950562585 9.48943018,1.00109593 C11.1216927,1.05216121 12.6739951,2.83731814 12.9559057,5.06211518 C13.2373038,7.28744415 12.1424654,9.04972809 10.5104592,8.99892878 L10.5104592,8.99892878 Z M9.28402936,21 C6.79643544,21 5,19.3879579 5,17.4511994 C5,15.5530848 7.22837673,13.9729776 9.71597064,14.0003504 C10.2962607,14.006791 10.8372357,14.1023274 11.3284117,14.2652223 C12.6787524,15.2267583 13.6474751,15.7699202 13.9208457,16.8656365 C13.9722174,17.0878391 14,17.3164824 14,17.5499561 C14,19.4867146 12.7812336,21 9.28402936,21 L9.28402936,21 Z" id="g" fill="url(#linearGradient-1)"></path>
        </g>
    </g>
</svg>