<?xml version="1.0" encoding="UTF-8"?>
<svg width="29px" height="24px" viewBox="0 0 29 24" version="1.1" xmlns="http://www.w3.org/2000/svg" xmlns:xlink="http://www.w3.org/1999/xlink">
    <!-- Generator: Sketch 41.2 (35397) - http://www.bohemiancoding.com/sketch -->
    <title>google-button</title>
    <desc>Created with Sketch.</desc>
    <defs></defs>
    <g id="Page-1" stroke="none" stroke-width="1" fill="none" fill-rule="evenodd">
        <g id="google-button">
            <g id="logo_googleg_48dp" transform="translate(3.500000, 1.000000)">
                <path d="M21.56,11.25 C21.56,10.47 21.49,9.72 21.36,9 L11,9 L11,13.255 L16.92,13.255 C16.665,14.63 15.89,15.795 14.725,16.575 L14.725,19.3350001 L18.28,19.3350001 C20.36,17.42 21.56,14.5999999 21.56,11.25 L21.56,11.25 Z" id="Shape" fill="#4285F4"></path>
                <path d="M11,22 C13.97,22 16.46,21.015 18.28,19.3350001 L14.725,16.575 C13.74,17.235 12.48,17.6249999 11,17.6249999 C8.135,17.6249999 5.71,15.69 4.845,13.09 L1.17,13.09 L1.17,15.94 C2.98,19.535 6.7,22 11,22 L11,22 Z" id="Shape" fill="#34A853"></path>
                <path d="M4.845,13.09 C4.625,12.43 4.5,11.725 4.5,11 C4.5,10.275 4.625,9.57 4.845,8.91 L4.845,6.06 L1.17,6.06 C0.425,7.545 0,9.225 0,11 C0,12.775 0.425,14.455 1.17,15.94 L4.845,13.09 L4.845,13.09 Z" id="Shape" fill="#FBBC05"></path>
                <path d="M11,4.37499999 C12.615,4.37499999 14.065,4.93 15.2049999,6.02000001 L18.36,2.865 C16.455,1.09 13.965,0 11,0 C6.7,0 2.98,2.465 1.17,6.06 L4.845,8.91 C5.71,6.31 8.135,4.37499999 11,4.37499999 L11,4.37499999 Z" id="Shape" fill="#EA4335"></path>
                <polygon id="Shape" points="0 0 22 0 22 22 0 22"></polygon>
            </g>
        </g>
    </g>
</svg>