<?xml version="1.0" encoding="UTF-8"?>
<svg width="24px" height="24px" viewBox="0 0 24 24" version="1.1" xmlns="http://www.w3.org/2000/svg" xmlns:xlink="http://www.w3.org/1999/xlink">
    <!-- Generator: Sketch 40.2 (33826) - http://www.bohemiancoding.com/sketch -->
    <title>group</title>
    <desc>Created with Sketch.</desc>
    <defs></defs>
    <g id="Page-1" stroke="none" stroke-width="1" fill="none" fill-rule="evenodd">
        <g id="group" fill="#50E3C2">
            <path d="M5.22118244,5.43037964 C6.67405087,5.43037964 7.85183331,4.21474782 7.85183331,2.71518982 C7.85183331,1.21563181 6.67405087,0 5.22118244,0 C3.7683139,0 2.59053146,1.21563181 2.59053146,2.71518982 C2.59053146,4.21474782 3.7683139,5.43037964 5.22118244,5.43037964 L5.22118244,5.43037964 L5.22118244,5.43037964 Z M12.2007996,5.43089984 C13.6538072,5.43089984 14.8317025,4.21515157 14.8317025,2.71544992 C14.8317025,1.21574827 13.6538072,0 12.2007996,0 C10.747792,0 9.56989668,1.21574827 9.56989668,2.71544992 C9.56989668,4.21515157 10.747792,5.43089984 12.2007996,5.43089984 L12.2007996,5.43089984 L12.2007996,5.43089984 Z M18.1831126,5.43089984 C19.6361203,5.43089984 20.8140156,4.21515157 20.8140156,2.71544992 C20.8140156,1.21574827 19.6361203,0 18.1831126,0 C16.730105,0 15.5522097,1.21574827 15.5522097,2.71544992 C15.5522097,4.21515157 16.730105,5.43089984 18.1831126,5.43089984 L18.1831126,5.43089984 L18.1831126,5.43089984 Z M15.7747715,6.29261302 L8.2726661,6.29261302 C7.63157242,6.29261302 7.11194392,6.82894038 7.11194392,7.49011603 L7.11194392,14.3359629 C7.11194392,14.9979189 7.63157242,15.533466 8.2726661,15.533466 L8.62975315,15.533466 L8.62975315,23.9997395 L15.2808472,23.9997395 L15.2808472,15.533466 L15.7747715,15.533466 C16.4158651,15.533466 16.9349896,14.9976588 16.9349896,14.3359629 L16.9349896,7.49011603 C16.9347376,6.82920048 16.4158651,6.29261302 15.7747715,6.29261302 L15.7747715,6.29261302 L15.7747715,6.29261302 Z M5.47544171,14.3362235 L5.47544171,7.49037656 C5.47544171,7.06225103 5.57195855,6.65909515 5.73449989,6.29287356 L1.86021817,6.29287356 C1.2196286,6.29287356 0.7,6.82920092 0.7,7.49037656 L0.7,14.3362235 C0.7,14.9981795 1.2196286,15.5337265 1.86021817,15.5337265 L2.21755728,15.5337265 L2.21755728,24 L6.99274693,24 L6.99274693,16.903416 C6.09234301,16.4237907 5.47544171,15.4528352 5.47544171,14.3362235 L5.47544171,14.3362235 L5.47544171,14.3362235 Z M22.2895323,6.29261346 L18.3131897,6.29261346 C18.475731,6.65883505 18.5724999,7.06225103 18.5724999,7.49011646 L18.5724999,14.3359634 C18.5724999,15.5084968 17.892094,16.5187274 16.9178534,16.9707822 L16.9178534,23.9997399 L21.796112,23.9997399 L21.796112,15.5334664 L22.2892803,15.5334664 C22.9301219,15.5334664 23.4500025,14.9976592 23.4500025,14.3359634 L23.4500025,7.49011646 C23.4502544,6.82920092 22.9301219,6.29261346 22.2895323,6.29261346 L22.2895323,6.29261346 L22.2895323,6.29261346 Z"></path>
        </g>
    </g>
</svg>