<?xml version="1.0" encoding="UTF-8"?>
<svg width="28px" height="28px" viewBox="0 0 28 28" version="1.1" xmlns="http://www.w3.org/2000/svg" xmlns:xlink="http://www.w3.org/1999/xlink">
    <!-- Generator: Sketch 63.1 (92452) - https://sketch.com -->
    <title>hashtag</title>
    <desc>Created with Sketch.</desc>
    <g id="hashtag" stroke="none" stroke-width="1" fill="none" fill-rule="evenodd">
        <path d="M12.5,1 L11.72,7.5 L17.22,7.5 L18,1 L21.5,1 L20.72,7.5 L26,7.5 L26,11 L20.3,11 L19.64,16.5 L25,16.5 L25,20 L19.22,20 L18.5,26 L15,26 L15.72,20 L10.22,20 L9.5,26 L6,26 L6.72,20 L2,20 L2,16.5 L7.14,16.5 L7.8,11 L3,11 L3,7.5 L8.22,7.5 L9,1 L12.5,1 Z M16.8,11 L11.3,11 L10.64,16.5 L16.14,16.5 L16.8,11 Z" id="Combined-Shape" fill="#50E3C2"></path>
    </g>
</svg>