<?xml version="1.0" encoding="UTF-8"?>
<svg width="16px" height="16px" viewBox="0 0 16 16" version="1.1" xmlns="http://www.w3.org/2000/svg" xmlns:xlink="http://www.w3.org/1999/xlink">
    <!-- Generator: Sketch 40.2 (33826) - http://www.bohemiancoding.com/sketch -->
    <title>help</title>
    <desc>Created with Sketch.</desc>
    <defs></defs>
    <g id="Page-1" stroke="none" stroke-width="1" fill="none" fill-rule="evenodd">
        <g id="help" fill="#000000">
            <path d="M16,8 C16,3.581722 12.418278,0 8,0 C3.581722,0 0,3.581722 0,8 C0,12.418278 3.581722,16 8,16 C12.418278,16 16,12.418278 16,8 L16,8 L16,8 Z M15,8 C15,4.134007 11.865993,1 8,1 C4.134007,1 1,4.134007 1,8 C1,11.865993 4.134007,15 8,15 C11.865993,15 15,11.865993 15,8 L15,8 L15,8 Z M10.671954,6.029753 C10.671954,5.035266 9.867426,4.152519 8.168976,4.152519 C7.062748,4.152519 6.235872,4.610653 5.587779,5.359312 L6.727528,6.242059 C7.129793,5.783924 7.576753,5.560444 8.023714,5.560444 C8.51537,5.560444 8.805894,5.783924 8.805894,6.186189 C8.805894,7.102458 7.0404,7.035414 7.0404,8.957344 L7.0404,9.236694 L8.660632,9.236694 L8.660632,9.013214 C8.660632,7.717029 10.671954,7.839943 10.671954,6.029753 Z M8.884112,11.102673 C8.884112,10.543973 8.437152,10.085838 7.867277,10.085838 C7.297403,10.085838 6.850442,10.543973 6.850442,11.102673 C6.850442,11.661374 7.297403,12.119508 7.867277,12.119508 C8.437152,12.119508 8.884112,11.661374 8.884112,11.102673 Z"></path>
        </g>
    </g>
</svg>