<?xml version="1.0" encoding="UTF-8" standalone="no"?>
<svg width="16px" height="16px" viewBox="0 0 16 16" version="1.1" xmlns="http://www.w3.org/2000/svg" xmlns:xlink="http://www.w3.org/1999/xlink" xmlns:sketch="http://www.bohemiancoding.com/sketch/ns">
    <!-- Generator: Sketch 3.3.2 (12043) - http://www.bohemiancoding.com/sketch -->
    <title>important</title>
    <desc>Created with Sketch.</desc>
    <defs></defs>
    <g id="Page-1" stroke="none" stroke-width="1" fill="none" fill-rule="evenodd" sketch:type="MSPage">
        <g id="important" sketch:type="MSArtboardGroup" fill="#50E3C2">
            <path d="M9.5912763,10.6021234 C9.5912763,10.6818964 9.5728026,10.7516234 9.5353815,10.8113054 C9.4981184,10.8711344 9.4314868,10.9212144 9.3353289,10.9611004 C9.2396447,11.0009874 9.1169605,11.0309754 8.9680658,11.0506234 C8.8185394,11.0707144 8.6320658,11.0806124 8.4084868,11.0806124 C8.1845921,11.0806124 7.9981184,11.0707144 7.8489079,11.0506234 C7.6996973,11.0308274 7.5773289,11.0008394 7.481171,10.9611004 C7.3854868,10.9212144 7.3185394,10.8712824 7.2815921,10.8113054 C7.2440131,10.7516234 7.2255394,10.6818964 7.2255394,10.6021234 L6.9538026,2.20043041 C6.9432236,2.08077141 6.9590131,1.97618041 7.0018026,1.88650941 C7.0444342,1.79683941 7.1216447,1.72194141 7.2335921,1.66211241 C7.3455394,1.60228241 7.4945921,1.56003241 7.6810657,1.53506641 C7.8673815,1.51024841 8.10975,1.49769141 8.4083289,1.49769141 C8.6958552,1.49769141 8.9330131,1.51275941 9.1198026,1.54245241 C9.3061184,1.57244141 9.4553289,1.61735041 9.5672763,1.67718041 C9.6789079,1.73700941 9.7561184,1.80939641 9.7990658,1.89404341 C9.8413815,1.97883941 9.8628552,2.08091841 9.8628552,2.20057741 L9.5912763,10.6021234 L9.5912763,10.6021234 Z M9.91875,13.0866004 C9.91875,13.7657034 9.2412236,14.3153964 8.4070658,14.3153964 C8.2085921,14.3153964 8.0205394,14.2845214 7.8466973,14.2280894 C7.6043289,14.3521804 7.3886447,14.4368284 7.0998552,14.4898614 C7.0136447,14.5064074 6.9793815,14.5047824 6.9718026,14.4947374 C6.9632763,14.4829184 6.9915394,14.4598734 7.0166447,14.4409644 C7.2962763,14.2368054 7.3430131,14.1298504 7.4105921,14.0100434 C7.0944868,13.7859414 6.8950657,13.4550324 6.8950657,13.0864534 C6.8950657,12.4073504 7.5714868,11.8567714 8.4070658,11.8567714 C9.2412236,11.8567714 9.91875,12.4074984 9.91875,13.0866004 L9.91875,13.0866004 L9.91875,13.0866004 Z" id="important-tab-dark" sketch:type="MSShapeGroup"></path>
        </g>
    </g>
</svg>