<?xml version="1.0" encoding="UTF-8"?>
<svg width="16px" height="16px" viewBox="0 0 16 16" version="1.1" xmlns="http://www.w3.org/2000/svg" xmlns:xlink="http://www.w3.org/1999/xlink">
    <!-- Generator: Sketch 40.2 (33826) - http://www.bohemiancoding.com/sketch -->
    <title>important</title>
    <desc>Created with Sketch.</desc>
    <defs></defs>
    <g id="Page-1" stroke="none" stroke-width="1" fill="none" fill-rule="evenodd">
        <g id="important" fill="#50E3C2">
            <path d="M7.99895659,1 C7.4472481,1 7.01455388,1.44909274 7.0324768,2.00214458 L7.30623174,10.4494683 C7.32416819,11.0029375 7.78652545,11.4516129 8.33717084,11.4516129 L8.66282687,11.4516129 C9.21426237,11.4516129 9.67584315,11.0025202 9.6937662,10.4494683 L9.96752305,2.00214458 C9.98545961,1.44867541 9.55733973,1 9.00104349,1 L7.99895659,1 Z M8.49999914,15.4000001 C9.26963469,15.4000001 9.89354758,14.7760872 9.89354758,14.0064517 C9.89354758,13.2368161 9.26963469,12.6129032 8.49999914,12.6129032 C7.73036359,12.6129032 7.1064507,13.2368161 7.1064507,14.0064517 C7.1064507,14.7760872 7.73036359,15.4000001 8.49999914,15.4000001 Z" id="Path-321"></path>
        </g>
    </g>
</svg>