<?xml version="1.0" encoding="UTF-8" standalone="no"?>
<svg width="16px" height="16px" viewBox="0 0 16 16" version="1.1" xmlns="http://www.w3.org/2000/svg" xmlns:xlink="http://www.w3.org/1999/xlink" xmlns:sketch="http://www.bohemiancoding.com/sketch/ns">
    <!-- Generator: Sketch 3.5.2 (25235) - http://www.bohemiancoding.com/sketch -->
    <title>important</title>
    <desc>Created with Sketch.</desc>
    <defs></defs>
    <g id="Page-1" stroke="none" stroke-width="1" fill="none" fill-rule="evenodd" sketch:type="MSPage">
        <g id="important" sketch:type="MSArtboardGroup" fill="#50E3C2">
            <path d="M7.76574321,1 C7.20921701,1 6.78301298,1.44909274 6.81373808,2.00214458 L7.28303384,10.4494683 C7.31378213,11.0029375 7.78652545,11.4516129 8.33717084,11.4516129 L8.66282687,11.4516129 C9.21426237,11.4516129 9.68623877,11.0025202 9.71696387,10.4494683 L10.1862596,2.00214458 C10.2170079,1.44867541 9.78647906,1 9.23425452,1 L7.76574321,1 Z M8.49999914,15.4000001 C9.26963469,15.4000001 9.89354758,14.7760872 9.89354758,14.0064517 C9.89354758,13.2368161 9.26963469,12.6129032 8.49999914,12.6129032 C7.73036359,12.6129032 7.1064507,13.2368161 7.1064507,14.0064517 C7.1064507,14.7760872 7.73036359,15.4000001 8.49999914,15.4000001 Z" id="Path-321" sketch:type="MSShapeGroup"></path>
        </g>
    </g>
</svg>