<?xml version="1.0" encoding="UTF-8"?>
<svg width="64px" height="64px" viewBox="0 0 64 64" version="1.1" xmlns="http://www.w3.org/2000/svg" xmlns:xlink="http://www.w3.org/1999/xlink">
    <!-- Generator: Sketch 40.2 (33826) - http://www.bohemiancoding.com/sketch -->
    <title>in-process</title>
    <desc>Created with Sketch.</desc>
    <defs></defs>
    <g id="Page-1" stroke="none" stroke-width="1" fill="none" fill-rule="evenodd">
        <g id="in-process">
            <path d="M7.99690043,43.9812898 C8.03409531,40.1145287 8.03409531,36.322608 7.99690043,31.9863926 C5.75280899,32.0317505 3.86826811,31.1336641 1.99922511,28.9876683 C0.7934909,27.8406803 0,25.94472 0,23.9897945 L0,7.99659815 C0,3.79192062 3.76908176,0 7.99690043,0 L38.9848896,0 C44.1379311,0 47.9070128,3.59234585 47.9814026,7.99659815 C48.0061991,13.4712969 48.0061991,18.5604536 47.9814026,23.9897945 C47.8078264,28.4394046 44.0387447,32.0317505 38.9848896,31.9863926 C33.1282449,32.0317505 27.0778768,32.0317505 20.9918636,31.9863926 C20.4323906,32.0317505 19.6388996,32.3311127 18.9926385,32.9859674 C15.4730725,36.4223955 12.0015498,40.2143161 7.99690043,43.9812898 C8.3316544,44.0062367 8.23246803,44.0062367 7.99690043,43.9812898 L7.99690043,43.9812898 L7.99690043,43.9812898 Z" id="bubble-color" fill="#50E3C2"></path>
            <path d="M52,20 C55.6088127,19.8277235 59.1443996,19.8277235 62,23 C63.1850703,24.4041305 63.9932045,26.1948985 64,28 C63.9932045,33.3579704 63.7911709,38.4318129 64,43 C64.195238,47.9825754 59.851517,51.8625727 56,52 C56.3159301,52.0615469 56.1138965,52.161034 56,52 C55.911863,56.0410313 55.911863,59.8215414 56,64 C55.4067792,63.5025645 55.0027121,63.3035902 55,63 C51.3661084,59.7220543 48.0325551,56.4389797 45,53 C43.8908676,52.3600082 43.0827335,51.9620598 42,52 C35.9105429,52.0615469 29.8495368,51.9620598 24,52 C18.434642,51.9620598 14.2929545,47.1866785 15,42 C15.2021054,41.6154004 15.404139,41.3169391 16,41 C17.2224408,39.5261711 18.6366756,38.0338645 20,37 C20.6570109,36.2430965 21.3641283,36.0441223 22,36 C27.5261512,36.0441223 33.1830902,36.0441223 39,36 C45.002052,36.0441223 50.3559408,31.8656637 52,26 C51.972209,24.2051563 51.7701755,22.2154141 52,20 L52,20 L52,20 Z" id="bubble-gray" fill="#A9BCC4" opacity="0.4"></path>
        </g>
    </g>
</svg>