<?xml version="1.0" encoding="UTF-8"?>
<svg width="16px" height="16px" viewBox="0 0 16 16" version="1.1" xmlns="http://www.w3.org/2000/svg" xmlns:xlink="http://www.w3.org/1999/xlink">
    <!-- Generator: Sketch 50.2 (55047) - http://www.bohemiancoding.com/sketch -->
    <title>inactive-organization</title>
    <desc>Created with Sketch.</desc>
    <defs></defs>
    <g id="inactive-organization" stroke="none" stroke-width="1" fill="none" fill-rule="evenodd">
        <path d="M1,12.5328082 L1,1 L8,1 L8,5 L8.53280816,5 L7,6.53280816 L7,6 L6,6 L6,7 L6.53280816,7 L5,8.53280816 L5,8 L4,8 L4,9 L4.53280816,9 L3,10.5328082 L3,10 L2,10 L2,11 L2.53280816,11 L1,12.5328082 Z M3.72982965,15 L6,12.7298296 L6,13 L7,13 L7,12 L6.72982965,12 L9.72982965,9 L10,9 L10,8.72982965 L11.7298296,7 L12,7 L12,6.72982965 L13.7298296,5 L15,5 L15,15 L8,15 L3.72982965,15 Z M2,9 L3,9 L3,8 L2,8 L2,9 Z M2,7 L3,7 L3,6 L2,6 L2,7 Z M2,5 L3,5 L3,4 L2,4 L2,5 Z M2,3 L3,3 L3,2 L2,2 L2,3 Z M4,7 L5,7 L5,6 L4,6 L4,7 Z M4,5 L5,5 L5,4 L4,4 L4,5 Z M4,3 L5,3 L5,2 L4,2 L4,3 Z M6,5 L7,5 L7,4 L6,4 L6,5 Z M6,3 L7,3 L7,2 L6,2 L6,3 Z M9,12 L9,13 L10,13 L10,12 L9,12 Z M9,11 L10,11 L10,10 L9,10 L9,11 Z M11,13 L12,13 L12,12 L11,12 L11,13 Z M11,11 L12,11 L12,10 L11,10 L11,11 Z M11,9 L12,9 L12,8 L11,8 L11,9 Z M13,13 L14,13 L14,12 L13,12 L13,13 Z M13,11 L14,11 L14,10 L13,10 L13,11 Z M13,9 L14,9 L14,8 L13,8 L13,9 Z M13,7 L14,7 L14,6 L13,6 L13,7 Z" id="organization-tab-dark" fill="#50E3C2"></path>
        <polygon id="Line" fill="#50E3C2" fill-rule="nonzero" points="13.7859092 1.45319036 14.493016 2.16029714 2.13799065 14.5961654 1.43088387 13.8890586"></polygon>
    </g>
</svg>