<?xml version="1.0" encoding="UTF-8"?>
<svg width="5px" height="11px" viewBox="0 0 5 11" version="1.1" xmlns="http://www.w3.org/2000/svg" xmlns:xlink="http://www.w3.org/1999/xlink">
    <!-- Generator: Sketch 40.2 (33826) - http://www.bohemiancoding.com/sketch -->
    <title>info</title>
    <desc>Created with Sketch.</desc>
    <defs></defs>
    <g id="Page-1" stroke="none" stroke-width="1" fill="none" fill-rule="evenodd">
        <g id="info" fill="#50E3C2">
            <path d="M2.32147886,4 L3.49049295,4 C3.77218309,4 3.94119717,4.12676056 3.94119717,4.4084507 C3.94119717,4.63380282 3.91302816,4.87323944 3.87077464,5.09859155 C3.71584506,5.94366197 3.56091548,6.8028169 3.4059859,7.64788732 C3.34964788,7.92957746 3.29330985,8.21126761 3.26514083,8.49295775 C3.25105633,8.63380282 3.26514083,8.77464789 3.30739435,8.90140845 C3.34964788,9.08450704 3.49049295,9.18309859 3.67359154,9.15492958 C3.82852111,9.14084507 3.96936619,9.08450704 4.12429576,9.02816901 C4.23697182,8.98591549 4.34964788,8.90140845 4.46232393,8.85915493 C4.63133802,8.78873239 4.78626759,8.91549296 4.72992957,9.08450704 C4.70176055,9.18309859 4.64542252,9.29577465 4.56091548,9.36619718 C4.12429576,9.8028169 3.603169,10.0704225 2.98345069,10.0704225 C2.68767604,10.0704225 2.4059859,10.0704225 2.11021126,10.028169 C1.63133802,9.95774648 1.02570421,9.36619718 1.11021126,8.74647887 C1.16654928,8.30985915 1.23697182,7.88732394 1.30739435,7.46478873 C1.43415492,6.71830986 1.56091548,5.97183099 1.70176055,5.22535211 C1.71584506,5.18309859 1.71584506,5.12676056 1.71584506,5.08450704 C1.71584506,4.77464789 1.61725351,4.66197183 1.30739435,4.61971831 C1.18063379,4.6056338 1.03978872,4.5915493 0.913028157,4.54929577 C0.75809858,4.49295775 0.687676044,4.38028169 0.701760551,4.25352113 C0.715845059,4.12676056 0.800352101,4.04225352 0.969366185,4.01408451 C1.05387323,4 1.15246478,4 1.23697182,4 C1.5890845,4 1.95528168,4 2.32147886,4 Z M4.1947183,2.01126762 C4.1947183,2.67323945 3.65950703,3.20845072 3.01161971,3.20845072 C2.34964788,3.20845072 1.81443661,2.65915494 1.81443661,1.99718311 C1.81443661,1.33521128 2.34964788,0.800000012 3.01161971,0.800000012 C3.67359154,0.800000012 4.1947183,1.33521128 4.1947183,2.01126762 Z"></path>
        </g>
    </g>
</svg>