<?xml version="1.0" encoding="UTF-8"?>
<svg width="9px" height="9px" viewBox="0 0 9 9" version="1.1" xmlns="http://www.w3.org/2000/svg" xmlns:xlink="http://www.w3.org/1999/xlink">
    <!-- Generator: Sketch 55.1 (78136) - https://sketchapp.com -->
    <title>internal-modifier</title>
    <desc>Created with Sketch.</desc>
    <g id="internal-modifier" stroke="none" stroke-width="1" fill="none" fill-rule="evenodd">
        <path d="M6,1 L4,1 C2.8954305,1 2,1.8954305 2,3 L2,4 L1.98142504,4.00034509 C1.43647484,4.01046926 1,4.45512832 1,5.00017256 L1,9 L9,9 L9,5 C9,4.44771525 8.55228475,4 8,4 L8,4 L8,3 C8,1.8954305 7.1045695,1 6,1 Z" id="backdrop" fill="#50E3C2"></path>
        <path d="M2.54304227,5 C2.24312829,5 2,5.226518 2,5.498515 L2,8.501485 C2,8.776807 2.24263836,9 2.54304227,9 L7.45695773,9 C7.75687171,9 8,8.773482 8,8.501485 L8,5.498515 C8,5.223193 7.75736164,5 7.45695773,5 L2.54304227,5 L2.54304227,5 Z M3.80443612,4.1428574 L3.80134315,4.0895678 C3.80172235,4.093541 3.80089692,4.0845272 3.80017743,4.0733042 C3.78841658,3.8898488 3.81176646,3.6630332 3.89537646,3.4574126 C4.04912795,3.0792944 4.37190046,2.8571426 4.99979846,2.8571426 C5.62772463,2.8571432 5.95060766,3.079331 6.10447932,3.4575044 C6.18817469,3.6632042 6.21157,3.8900828 6.19983886,4.0735154 C6.19912435,4.0846874 6.19830429,4.0936634 6.19868349,4.0896836 L6.195604,4.1428574 L6.195604,5 L6.9927,5 L6.9927,4.1428574 L6.98962057,4.1960306 C6.99164766,4.1778788 6.99329932,4.1598002 6.99505657,4.1323232 C7.01483217,3.8231054 6.97801452,3.4660628 6.83473606,3.113924 C6.55266377,2.4206696 5.941348,2 4.99979852,2 C4.05822069,2 3.44696058,2.4207056 3.16504515,3.1140158 C3.02189378,3.4660658 2.98514532,3.823031 3.00496869,4.132253 C3.00673555,4.1598134 3.00839635,4.1779496 3.01043309,4.196147 L3.00734012,4.1428574 L3.00734012,5 L3.80443612,5 L3.80443612,4.1428574 L3.80443612,4.1428574 Z" id="internal" fill="#BD10E0"></path>
    </g>
</svg>