<?xml version="1.0" encoding="UTF-8"?>
<svg width="24px" height="24px" viewBox="0 0 24 24" version="1.1" xmlns="http://www.w3.org/2000/svg" xmlns:xlink="http://www.w3.org/1999/xlink">
    <!-- Generator: Sketch 42 (36781) - http://www.bohemiancoding.com/sketch -->
    <title>knowledge-base</title>
    <desc>Created with Sketch.</desc>
    <defs></defs>
    <g id="Page-1" stroke="none" stroke-width="1" fill="none" fill-rule="evenodd">
        <g id="knowledge-base" fill="#50E3C2">
            <path d="M3.00007695,20.0203317 C3.0000257,20.0162915 3,20.0122465 3,20.0081969 L3,2.99079514 C3,1.89130934 3.89339733,1 4.99188419,1 L16.0081158,1 C17.1082031,1 18,1.89821238 18,2.99079514 L18,19.0092049 C18,20.1086907 17.1066027,21 16.0081158,21 L4.26559125,21 C4.60977831,21.595858 5.25397214,22 5.99188419,22 L17.0081158,22 C18.1066027,22 19,21.1086907 19,20.0092049 L19,3.99079514 C19,3.70093487 18.9372325,3.42475501 18.8244604,3.17539805 C19.5174756,3.48861102 20,4.1871191 20,4.99079514 L20,21.0092049 C20,22.1086907 19.1066027,23 18.0081158,23 L6.00748397,23 C5.45106594,23 4.65162659,22.7106075 4.25527382,22.3349702 C4.25527382,22.3349702 3.01134014,21.5075431 3.00007695,20.0203317 Z M5,6.50468445 L5,7.49531555 C5,7.78596497 5.22440869,8 5.50123084,8 L15.4987692,8 C15.7702494,8 16,7.77404508 16,7.49531555 L16,6.50468445 C16,6.21403503 15.7755913,6 15.4987692,6 L5.50123084,6 C5.22975063,6 5,6.22595492 5,6.50468445 Z M5,10.5046844 L5,11.4953156 C5,11.785965 5.22440869,12 5.50123084,12 L15.4987692,12 C15.7702494,12 16,11.7740451 16,11.4953156 L16,10.5046844 C16,10.214035 15.7755913,10 15.4987692,10 L5.50123084,10 C5.22975063,10 5,10.2259549 5,10.5046844 Z" id="Combined-Shape"></path>
        </g>
    </g>
</svg>