<?xml version="1.0" encoding="UTF-8"?>
<svg width="16px" height="16px" viewBox="0 0 16 16" version="1.1" xmlns="http://www.w3.org/2000/svg" xmlns:xlink="http://www.w3.org/1999/xlink">
    <!-- Generator: Sketch 52.4 (67378) - http://www.bohemiancoding.com/sketch -->
    <title>knowledge-base-answer</title>
    <desc>Created with Sketch.</desc>
    <g id="knowledge-base-answer" stroke="none" stroke-width="1" fill="none" fill-rule="evenodd">
        <path d="M8.04492922,1 L8.01813317,3.98202904 C8.01807935,3.98801921 8.01805243,3.99400959 8.01805243,4 C8.01805243,5.1045695 8.91348293,6 10.0180524,6 L13,6 L13,13 C13,13.5522847 12.5522847,14 12,14 L4,14 C3.44771525,14 3,13.5522847 3,13 L3,2 C3,1.44771525 3.44771525,1 4,1 L8.04492922,1 Z M9,1 L13,5 L10,5 C9.44771525,5 9,4.55228475 9,4 L9,1 Z" id="Rectangle-2" fill="#50E3C2"></path>
    </g>
</svg>