<?xml version="1.0" encoding="UTF-8"?>
<svg width="29px" height="22px" viewBox="0 0 29 22" version="1.1" xmlns="http://www.w3.org/2000/svg" xmlns:xlink="http://www.w3.org/1999/xlink">
    <!-- Generator: Sketch 40.2 (33826) - http://www.bohemiancoding.com/sketch -->
    <title>linkedin-button</title>
    <desc>Created with Sketch.</desc>
    <defs></defs>
    <g id="Page-1" stroke="none" stroke-width="1" fill="none" fill-rule="evenodd">
        <g id="linkedin-button" fill="#FFFFFF">
            <path d="M10.5123582,3.54161689 C10.5123582,4.64583739 9.61614808,5.54204755 8.51365023,5.54204755 C7.40770708,5.54204755 6.5140809,4.64583739 6.5140809,3.54161689 C6.5140809,2.43868838 7.40770708,1.54204755 8.51365023,1.54204755 C9.61614808,1.54204755 10.5123582,2.43868838 10.5123582,3.54161689 Z M6.99876363,7.0372951 L9.99876363,7.0372951 L9.99876363,18.0372951 L6.99876363,18.0372951 L6.99876363,7.0372951 Z M16.3014006,7.01729103 L16.3014006,8.52362272 L16.3480323,8.52362272 C16.805365,7.65687236 17.9236698,6.7426347 19.5904316,6.7426347 C23.0578608,6.7426347 23.6982978,9.02544807 23.6982978,11.9949023 L23.6982978,18.0420475 L20.275789,18.0420475 L20.275789,12.6806875 C20.275789,11.4019526 20.250548,9.75743715 18.4948009,9.75743715 C16.7116738,9.75743715 16.4395844,11.1499704 16.4395844,12.5887076 L16.4395844,18.0420475 L13.0140809,18.0420475 L13.0140809,7.01729103 L16.3014006,7.01729103 Z" id="Fill-4"></path>
        </g>
    </g>
</svg>