<?xml version="1.0" encoding="UTF-8"?>
<svg width="29px" height="24px" viewBox="0 0 29 24" version="1.1" xmlns="http://www.w3.org/2000/svg" xmlns:xlink="http://www.w3.org/1999/xlink">
    <!-- Generator: Sketch 41.2 (35397) - http://www.bohemiancoding.com/sketch -->
    <title>linkedin-button</title>
    <desc>Created with Sketch.</desc>
    <defs></defs>
    <g id="Page-1" stroke="none" stroke-width="1" fill="none" fill-rule="evenodd">
        <g id="linkedin-button" fill="#FFFFFF">
            <path d="M10.5123582,4.49956934 C10.5123582,5.60378984 9.61614808,6.5 8.51365023,6.5 C7.40770708,6.5 6.5140809,5.60378984 6.5140809,4.49956934 C6.5140809,3.39664083 7.40770708,2.5 8.51365023,2.5 C9.61614808,2.5 10.5123582,3.39664083 10.5123582,4.49956934 Z M6.99876363,7.99524755 L9.99876363,7.99524755 L9.99876363,18.9952476 L6.99876363,18.9952476 L6.99876363,7.99524755 Z M16.3014006,7.97524348 L16.3014006,9.48157517 L16.3480323,9.48157517 C16.805365,8.61482481 17.9236698,7.70058714 19.5904316,7.70058714 C23.0578608,7.70058714 23.6982978,9.98340052 23.6982978,12.9528547 L23.6982978,19 L20.275789,19 L20.275789,13.6386399 C20.275789,12.3599051 20.250548,10.7153896 18.4948009,10.7153896 C16.7116738,10.7153896 16.4395844,12.1079229 16.4395844,13.54666 L16.4395844,19 L13.0140809,19 L13.0140809,7.97524348 L16.3014006,7.97524348 Z" id="Fill-4"></path>
        </g>
    </g>
</svg>