<?xml version="1.0" encoding="UTF-8"?>
<svg width="16px" height="16px" viewBox="0 0 16 16" version="1.1" xmlns="http://www.w3.org/2000/svg" xmlns:xlink="http://www.w3.org/1999/xlink">
    <!-- Generator: Sketch 40.2 (33826) - http://www.bohemiancoding.com/sketch -->
    <title>list</title>
    <desc>Created with Sketch.</desc>
    <defs></defs>
    <g id="Page-1" stroke="none" stroke-width="1" fill="none" fill-rule="evenodd">
        <g id="list" fill="#50E3C2">
            <path d="M0,3 C0,2.447715 0.44892,2 1.007484,2 L13.992516,2 C14.548934,2 15,2.443865 15,3 C15,3.552285 14.55108,4 13.992516,4 L1.007484,4 C0.451066,4 0,3.556135 0,3 L0,3 Z M0,7 C0,6.447715 0.44892,6 1.007484,6 L13.992516,6 C14.548934,6 15,6.443865 15,7 C15,7.552285 14.55108,8 13.992516,8 L1.007484,8 C0.451066,8 0,7.556135 0,7 L0,7 Z M0,11 C0,10.447715 0.44892,10 1.007484,10 L13.992516,10 C14.548934,10 15,10.443865 15,11 C15,11.552285 14.55108,12 13.992516,12 L1.007484,12 C0.451066,12 0,11.556135 0,11 L0,11 Z M0,15 C0,14.447715 0.44892,14 1.007484,14 L13.992516,14 C14.548934,14 15,14.443865 15,15 C15,15.552285 14.55108,16 13.992516,16 L1.007484,16 C0.451066,16 0,15.556135 0,15 L0,15 Z" id="list-tab-dark"></path>
        </g>
    </g>
</svg>