<?xml version="1.0" encoding="UTF-8"?>
<svg width="16px" height="17px" viewBox="0 0 16 17" version="1.1" xmlns="http://www.w3.org/2000/svg" xmlns:xlink="http://www.w3.org/1999/xlink">
    <!-- Generator: Sketch 52.5 (67469) - http://www.bohemiancoding.com/sketch -->
    <title>lock-open</title>
    <desc>Created with Sketch.</desc>
    <g id="lock-open" stroke="none" stroke-width="1" fill="none" fill-rule="evenodd">
        <path d="M6.2922368,7 L6.2922368,4.210526 L6.2976495,4.105817 C6.2969859,4.113625 6.2984304,4.095913 6.2996895,4.073861 C6.320271,3.713387 6.2794087,3.267715 6.1330912,2.863688 C5.8640261,2.120718 5.2991742,1.68421 4.2003527,1.684211 C3.1014819,1.684211 2.5364366,2.12079 2.2671612,2.863868 C2.1206943,3.26805 2.0797525,3.713847 2.100282,4.074275 C2.1015324,4.096228 2.1029675,4.113866 2.1023039,4.106046 L2.107693,4.210526 L2.107693,5.894737 L0.712774995,5.894737 L0.712774995,4.210526 L0.718163995,4.315007 C0.714616595,4.279341 0.711726195,4.243818 0.708650995,4.189828 C0.674043695,3.582243 0.738474595,2.880684 0.989211895,2.188763 C1.4828384,0.826578 2.552641,0 4.2003526,0 C5.8481138,0 6.917819,0.82665 7.411171,2.188943 C7.6616859,2.880691 7.7259957,3.582096 7.6913048,4.18969 C7.6882128,4.243843 7.6853064,4.27948 7.6817421,4.315236 L7.6871548,4.210526 L7.6871548,7 L14.3044225,7 C14.855163,7 15.3,7.446386 15.3,7.99703 L15.3,14.00297 C15.3,14.546964 14.8542648,15 14.3044225,15 L5.2955775,15 C4.744837,15 4.3,14.553614 4.3,14.00297 L4.3,7.99703 C4.3,7.453036 4.7457352,7 5.2955775,7 L6.2922368,7 Z" id="Combined-Shape" fill="#50E3C2"></path>
    </g>
</svg>