<?xml version="1.0" encoding="UTF-8"?>
<svg width="16px" height="17px" viewBox="0 0 16 17" version="1.1" xmlns="http://www.w3.org/2000/svg" xmlns:xlink="http://www.w3.org/1999/xlink">
    <!-- Generator: Sketch 46.2 (44496) - http://www.bohemiancoding.com/sketch -->
    <title>lock</title>
    <desc>Created with Sketch.</desc>
    <defs></defs>
    <g id="Page-1" stroke="none" stroke-width="1" fill="none" fill-rule="evenodd">
        <g id="lock" fill="#50E3C2">
            <path d="M2.9955775,7 C2.4457352,7 2,7.453036 2,7.99703 L2,14.00297 C2,14.553614 2.444837,15 2.9955775,15 L12.0044225,15 C12.5542648,15 13,14.546964 13,14.00297 L13,7.99703 C13,7.446386 12.555163,7 12.0044225,7 L2.9955775,7 L2.9955775,7 Z M5.4077632,5.571429 L5.4023505,5.482613 C5.4030141,5.489235 5.4015696,5.474212 5.4003105,5.455507 C5.379729,5.149748 5.4205913,4.771722 5.5669088,4.429021 C5.8359739,3.798824 6.4008258,3.428571 7.4996473,3.428571 C8.5985181,3.428572 9.1635634,3.798885 9.4328388,4.429174 C9.5793057,4.772007 9.6202475,5.150138 9.599718,5.455859 C9.5984676,5.474479 9.5970325,5.489439 9.5976961,5.482806 L9.592307,5.571429 L9.592307,7 L10.987225,7 L10.987225,5.571429 L10.981836,5.660051 C10.9853834,5.629798 10.9882738,5.599667 10.991349,5.553872 C11.0259563,5.038509 10.9615254,4.443438 10.7107881,3.85654 C10.2171616,2.701116 9.147359,2 7.4996474,2 C5.8518862,2 4.782181,2.701176 4.288829,3.856693 C4.0383141,4.443443 3.9740043,5.038385 4.0086952,5.553755 C4.0117872,5.599689 4.0146936,5.629916 4.0182579,5.660245 L4.0128452,5.571429 L4.0128452,7 L5.4077632,7 L5.4077632,5.571429 L5.4077632,5.571429 Z" id="internal"></path>
        </g>
    </g>
</svg>