<?xml version="1.0" encoding="UTF-8"?>
<svg width="16px" height="16px" viewBox="0 0 16 16" version="1.1" xmlns="http://www.w3.org/2000/svg" xmlns:xlink="http://www.w3.org/1999/xlink">
    <!-- Generator: Sketch 40.2 (33826) - http://www.bohemiancoding.com/sketch -->
    <title>lock-open</title>
    <desc>Created with Sketch.</desc>
    <defs></defs>
    <g id="Page-1" stroke="none" stroke-width="1" fill="none" fill-rule="evenodd">
        <g id="lock-open" fill="#50E3C2">
            <path d="M5.4077632,7 L12.0044225,7 C12.555163,7 13,7.446386 13,7.99703 L13,14.00297 C13,14.546964 12.5542648,15 12.0044225,15 L2.9955775,15 C2.444837,15 2,14.553614 2,14.00297 L2,7.99703 C2,7.453036 2.4457352,7 2.9955775,7 L4.0128452,7 L4.0128452,4.210526 L4.0182579,4.315236 C4.0146936,4.27948 4.0117872,4.243843 4.0086952,4.18969 C3.9740043,3.582096 4.0383141,2.880691 4.288829,2.188943 C4.782181,0.82665 5.8518862,0 7.4996474,0 C9.147359,0 10.2171616,0.826578 10.7107881,2.188763 C10.9615254,2.880684 11.0259563,3.582243 10.991349,4.189828 C10.9882738,4.243818 10.9853834,4.279341 10.981836,4.315007 L10.987225,4.210526 L10.987225,5.894737 L9.592307,5.894737 L9.592307,4.210526 L9.5976961,4.106046 C9.5970325,4.113866 9.5984676,4.096228 9.599718,4.074275 C9.6202475,3.713847 9.5793057,3.26805 9.4328388,2.863868 C9.1635634,2.12079 8.5985181,1.684211 7.4996473,1.684211 C6.4008258,1.68421 5.8359739,2.120718 5.5669088,2.863688 C5.4205913,3.267715 5.379729,3.713387 5.4003105,4.073861 C5.4015696,4.095913 5.4030141,4.113625 5.4023505,4.105817 L5.4077632,4.210526 L5.4077632,7 L5.4077632,7 Z" id="public"></path>
        </g>
    </g>
</svg>