<?xml version="1.0" encoding="UTF-8" standalone="no"?>
<svg width="84px" height="16px" viewBox="0 0 84 16" version="1.1" xmlns="http://www.w3.org/2000/svg" xmlns:xlink="http://www.w3.org/1999/xlink" xmlns:sketch="http://www.bohemiancoding.com/sketch/ns">
    <!-- Generator: Sketch 3.3.3 (12072) - http://www.bohemiancoding.com/sketch -->
    <title>logotype</title>
    <desc>Created with Sketch.</desc>
    <defs></defs>
    <g id="Page-1" stroke="none" stroke-width="1" fill="none" fill-rule="evenodd" sketch:type="MSPage">
        <g id="logotype" sketch:type="MSArtboardGroup" fill="#50E3C2">
            <path d="M11,1 L11,3 L4,14 L9,14 L9,12 L11,12 L11,16 L0,16 L0,14 L7,3 L2,3 L2,5 L0,5 L0,1 L11,1 L11,1 Z M19,16 C18.6009848,15.6179867 18.53202,15.4367774 18,15 C17.9934301,15.079254 17.5779992,15.395962 17,16 C16.5993407,15.8791938 16.039412,16 15,16 C14.3645268,16 13.7189095,15.6738806 13,15.223999 C12.3107261,14.4179935 11.991907,13.8189422 11.991907,13 C11.991907,11.853364 12.6846273,10.6792512 12.6846273,10.5 C13.6879154,9.50207506 13.9999999,9 15.9999999,9 L18,9 L18,7 C18,7 17.0213494,7.08637578 16,7 C15.3103435,7.27411732 15.1034491,7.36390568 15,7 L15,8.0254004 L13,8.0254004 L13,6 C13.1264394,5.90115585 13.7290606,5.60403801 14,5 C15.0886733,5.12080615 15.8292242,5 17,5 C17.9507455,5 19.0229844,5.32160557 20,6 C20.6715969,6.60804715 21.0837438,7.52388839 21,9 L21,13 C21.0837438,13.2540821 21.0853859,13.4075386 21,14 C21.091954,13.6948657 22,14 22,14 L22,16 L19,16 L19,16 Z M69,16 C68.6009848,15.6179867 68.53202,15.4367774 68,15 C67.9934301,15.079254 67.5779992,15.395962 67,16 C66.5993407,15.8791938 66.039412,16 65,16 C64.3645268,16 63.7189095,15.6738806 63,15.223999 C62.3107261,14.4179935 61.991907,13.8189422 61.991907,13 C61.991907,11.853364 62.6846273,10.6792512 62.6846273,10.5 C63.6879154,9.50207506 63.9999999,9 65.9999999,9 L68,9 L68,7 C68,7 67.0213494,7.08637578 66,7 C65.3103435,7.27411732 65.1034491,7.36390568 65,7 L65,8.0254004 L63,8.0254004 L63,6 C63.1264394,5.90115585 63.7290606,5.60403801 64,5 C65.0886733,5.12080615 65.8292242,5 67,5 C67.9507455,5 69.0229844,5.32160557 70,6 C70.6715969,6.60804715 71.0837438,7.52388839 71,9 L71,13 C71.0837438,13.2540821 71.0853859,13.4075386 71,14 C71.091954,13.6948657 72,14 72,14 L72,16 L69,16 L69,16 Z M16,14 C16.5798836,14 16.9349096,13.8924539 17,14 C17.5739661,13.4622631 17.8224843,13.1924545 18,13 L18,11 L17,11 C16.1272162,11 15.7100606,11.1641493 15,11 C15.1420104,11.8207564 15,12.215092 15,13 C15,13.0905681 15.1050285,13.4150932 15,14 C15.525149,13.88302 15.8165662,14 16,14 L16,14 L16,14 Z M23,7 L23,5 L27,5 L28,7 C27.8778699,6.10798289 28.3258329,5.70704921 29,5 C29.4037064,5.14140814 30.0267354,5 31,5 C31.4478807,5 32.0588954,5.15305352 33,5 C33.07498,5.76527679 33.4594386,6.2277646 34,7 C34.063597,6.26769221 34.5098437,5.81518614 35,5 C35.6083135,5.16303527 36.2536548,5 37,5 C38.0935918,5 38.9603401,5.36766118 40,6 C40.2304458,6.83832794 40.5479675,7.95794771 41,9 L41,14 L42,14 L42,16 L36,16 L36,14 L38,14 L38,9 C37.5409214,8.63338974 37.4036147,8.06442991 37,8 C36.8543798,7.42558824 36.4458925,7.26588022 36,7 C35.477866,7.26588022 35.1088543,7.35737961 35,8 C34.4840996,7.72338265 34.2352313,7.9779173 34,8 C34.0498645,8.43043015 34.0532972,8.53856579 34,9 C34.067028,8.71824001 34.0704607,8.8097394 34,9 L34,14 L35,14 L35,16 L30,16 L30,14 L31,14 L31,9 C31.0737127,8.65335354 30.9364061,8.08938459 31,8 C30.3871712,7.43057912 29.9752512,7.26588022 29,7 C29.0209555,7.26588022 28.6656745,7.34074335 28,7 C28.0546507,7.64020039 27.8023497,7.85148079 28,8 L28,14 L29,14 L29,16 L23,16 L23,14 L25,14 L25,7 L23,7 L23,7 Z M42,7 L42,5 L46,5 L47,7 C46.8778699,6.10798289 47.3258329,5.70704921 48,5 C48.4037064,5.14140814 49.0267354,5 50,5 C50.4478807,5 51.0588954,5.15305352 52,5 C52.07498,5.76527679 52.4594386,6.2277646 53,7 C53.063597,6.26769221 53.5098437,5.81518614 54,5 C54.6083135,5.16303527 55.2536548,5 56,5 C57.0935918,5 57.9603401,5.36766118 59,6 C59.2304458,6.83832794 59.5479675,7.95794771 60,9 L60,14 L61,14 L61,16 L55,16 L55,14 L57,14 L57,9 C56.5409214,8.63338974 56.4036147,8.06442991 56,8 C55.8543798,7.42558824 55.4458925,7.26588022 55,7 C54.477866,7.26588022 54.1088543,7.35737961 54,8 C53.4840996,7.72338265 53.2352313,7.9779173 53,8 C53.0498645,8.43043015 53.0532972,8.53856579 53,9 C53.067028,8.71824001 53.0704607,8.8097394 53,9 L53,14 L54,14 L54,16 L49,16 L49,14 L50,14 L50,9 C50.0737127,8.65335354 49.9364061,8.08938459 50,8 C49.3871712,7.43057912 48.9752512,7.26588022 48,7 C48.0209555,7.26588022 47.6656745,7.34074335 47,7 C47.0546507,7.64020039 46.8023497,7.85148079 47,8 L47,14 L48,14 L48,16 L42,16 L42,14 L44,14 L44,7 L42,7 L42,7 Z M66,14 C66.5798836,14 66.9349096,13.8924539 67,14 C67.5739661,13.4622631 67.8224843,13.1924545 68,13 L68,11 L67,11 C66.1272162,11 65.7100606,11.1641493 65,11 C65.1420104,11.8207564 65,12.215092 65,13 C65,13.0905681 65.1050285,13.4150932 65,14 C65.525149,13.88302 65.8165662,14 66,14 L66,14 L66,14 Z M80,14 C79.5704019,14.9576243 79.1741428,15.3421872 79,16 C78.2599379,15.868439 77.7387174,16 77,16 C75.8379605,16 74.8168945,15.5074896 74,15 C73.3633745,13.5374186 73,12.2353022 73,11 L73,10 C73,8.67635653 73.3650188,7.28315942 74,6 C74.8251158,5.16465842 75.8511145,4.63504111 77,5 C77.7058323,4.63504111 78.185947,4.75479534 79,5 C79.0409588,5.23381946 79.4158429,5.572842 80,6 L80,2 L78,2 L78,0 L80,0 L83,0 L83,14 L84,14 L84,16 L80,16 L80,14 L80,14 Z M76,11 C76,11.7992077 76.1619762,12.5787216 76,13 C76.8098908,13.7157477 77.3401498,14 78,14 C78.5132162,14 78.891729,13.9093183 79,14 C79.5328234,13.546586 79.7953954,13.2850042 80,13 L80,8 C79.7953954,7.77777596 79.5345284,7.49701146 79,7 C78.9002542,7.0994011 78.5268564,7 78,7 C77.3674303,7 76.8354663,7.331337 77,8 C76.1670913,8.65670486 76,9.5216688 76,11 L76,11 L76,11 Z" id="Zammad" sketch:type="MSShapeGroup"></path>
        </g>
    </g>
</svg>