<?xml version="1.0" encoding="UTF-8"?>
<svg width="42px" height="36px" viewBox="0 0 42 36" version="1.1" xmlns="http://www.w3.org/2000/svg" xmlns:xlink="http://www.w3.org/1999/xlink">
    <!-- Generator: Sketch 40.2 (33826) - http://www.bohemiancoding.com/sketch -->
    <title>logo</title>
    <desc>Created with Sketch.</desc>
    <defs></defs>
    <g id="Page-1" stroke="none" stroke-width="1" fill="none" fill-rule="evenodd">
        <g id="logo">
            <g transform="translate(1.000000, 0.000000)" id="Shape">
                <polygon fill="#CA2317" points="27.3375 12.6 36.72 9.72 31.1625 13.2525"></polygon>
                <polygon fill="#E84F83" points="33.0525 19.62 31.1625 13.2525 36.72 9.72 35.055 15.435"></polygon>
                <polygon fill="#CA2317" points="39.465 7.9875 38.43 9.72 35.055 15.435 36.72 9.72"></polygon>
                <polygon fill="#E54011" points="39.8025 9.1125 37.1925 11.79 38.43 9.72"></polygon>
                <polygon fill="#E54011" points="27.9 10.8225 35.5725 10.0575 30.24 11.7"></polygon>
                <polygon fill="#CA2317" points="28.1925 15.165 31.1625 13.2525 33.0525 19.62 32.0625 21.645"></polygon>
                <polygon fill="#B7DFF2" points="23.76 22.725 22.3425 5.4 32.0625 21.645"></polygon>
                <polygon fill="#E54011" points="19.7325 27.1575 23.76 22.725 32.0625 21.645"></polygon>
                <polygon fill="#FFCE33" points="0.1575 35.865 19.7325 27.1575 23.76 22.725 17.37 22.0725"></polygon>
                <polygon fill="#D6B12D" points="0.9 28.755 10.9575 27.225 14.085 24.705 12.555 24.03"></polygon>
                <polygon fill="#FFDE85" points="4.5225 20.5425 14.085 24.705 17.37 22.0725"></polygon>
                <polygon fill="#009EC6" points="21.6225 11.6775 20.4075 11.88 17.37 22.0725 20.655 20.0025"></polygon>
                <polygon fill="#5EAFCE" points="23.4 18.2475 20.655 20.0025 22.3425 5.4"></polygon>
                <polygon fill="#045972" points="13.0275 13.05 21.6225 11.6775 22.005 8.28"></polygon>
                <polygon fill="#5A8591" points="12.105 5.085 19.575 9.585 22.005 8.28 22.0725 7.8075"></polygon>
                <polygon fill="#009EC6" points="13.5675 0.18 20.3625 7.335 22.0725 7.8075 22.3425 5.4"></polygon>
                <polygon fill="#F39804" points="17.37 22.0725 23.4 18.2475 23.76 22.725"></polygon>
            </g>
        </g>
    </g>
</svg>