<?xml version="1.0" encoding="UTF-8"?>
<svg width="15px" height="15px" viewBox="0 0 15 15" version="1.1" xmlns="http://www.w3.org/2000/svg" xmlns:xlink="http://www.w3.org/1999/xlink">
    <!-- Generator: Sketch 40.2 (33826) - http://www.bohemiancoding.com/sketch -->
    <title>magnifier</title>
    <desc>Created with Sketch.</desc>
    <defs></defs>
    <g id="Page-1" stroke="none" stroke-width="1" fill="none" fill-rule="evenodd">
        <g id="magnifier" fill="#50E3C2">
            <path d="M5.92009147,10.3823058 C3.47609147,10.366293 1.50109147,8.36569255 1.51609147,5.92073659 C1.53409147,3.49379504 3.51809147,1.51721377 5.94709147,1.51721377 L5.97609147,1.51721377 C7.15809147,1.52421938 8.26709147,1.99359488 9.09709147,2.83626902 C9.92809147,3.67694155 10.3820915,4.79483587 10.3750915,5.97878303 C10.3650915,7.15572458 9.90309147,8.26461169 9.06709147,9.09427542 C8.23309147,9.92493995 7.12309147,10.3823058 5.94909147,10.3823058 L5.92009147,10.3823058 M5.98309147,0 L5.94509147,0 C2.68109147,0 0.0220914661,2.63811049 9.14660642e-05,5.91172938 C-0.0179085339,9.19835869 2.62309147,11.8785028 5.90709147,11.8995196 L5.94909147,11.8995196 C7.03809147,11.8995196 8.06209147,11.6052842 8.94009147,11.0888711 L12.5530915,14.7067654 L12.6450915,14.7948359 C12.7820915,14.9319456 12.9600915,15 13.1390915,15 C13.3180915,15 13.4970915,14.9319456 13.6330915,14.7948359 L14.7970915,13.6329063 C15.0690915,13.3586869 15.0690915,12.9153323 14.7970915,12.6431145 L14.7060915,12.55004 L11.0880915,8.93114492 C11.5930915,8.06445156 11.8830915,7.06164932 11.8900915,5.98779023 C11.9140915,2.70116093 9.26709147,0.0220176141 5.98309147,0" id="search"></path>
        </g>
    </g>
</svg>