<?xml version="1.0" encoding="UTF-8"?>
<svg width="17px" height="19px" viewBox="0 0 17 19" version="1.1" xmlns="http://www.w3.org/2000/svg" xmlns:xlink="http://www.w3.org/1999/xlink">
    <!-- Generator: Sketch 40.2 (33826) - http://www.bohemiancoding.com/sketch -->
    <title>marker</title>
    <desc>Created with Sketch.</desc>
    <defs></defs>
    <g id="Page-1" stroke="none" stroke-width="1" fill="none" fill-rule="evenodd">
        <g id="marker" fill="#50E3C2">
            <path d="M7.377737,14.166339 L11.524039,2.256174 L6.861887,-5.68434189e-14 C6.861887,-5.68434189e-14 1.995307,8.101615 0.532146,10.848815 L7.377737,14.166339 L7.377737,14.166339 Z M7.068636,14.760567 C6.69432,15.206206 5.795208,16.07934 4.717791,15.743287 C3.293088,15.298914 3.706642,15.378784 3.706642,15.378784 L3.404616,16.109371 L0.848534,15.027282 L1.391268,14.169006 C1.391268,14.169006 -0.62314,13.589062 0.205748,11.516144 L7.068636,14.760567 L7.068636,14.760567 Z M0.755887,16.003389 L0,17.837016 L2.781939,18.135872 L3.248109,17.229168 L0.755887,16.003389 L0.755887,16.003389 Z M0.119967,18.34136 L16.856531,18.34136 L16.856531,18.800719 L0.119967,18.800719 L0.119967,18.34136 L0.119967,18.34136 Z"></path>
        </g>
    </g>
</svg>