<?xml version="1.0" encoding="UTF-8"?>
<svg width="24px" height="24px" viewBox="0 0 24 24" version="1.1" xmlns="http://www.w3.org/2000/svg" xmlns:xlink="http://www.w3.org/1999/xlink">
    <!-- Generator: Sketch 40.2 (33826) - http://www.bohemiancoding.com/sketch -->
    <title>message</title>
    <desc>Created with Sketch.</desc>
    <defs></defs>
    <g id="Page-1" stroke="none" stroke-width="1" fill="none" fill-rule="evenodd">
        <g id="message" fill="#50E3C2">
            <path d="M20.0980002,3.03466079 C19.9142382,3.01546859 19.7285108,3.00132698 19.5437661,3.00132698 C14.1851864,2.99930675 8.82660679,2.99930675 3.46704448,3.00334721 C3.21940798,3.00334721 2.96980598,3.03466079 2.72413488,3.07708564 C2.34088778,3.13971279 2.12371448,3.395272 2.06180538,3.7811361 C2.02446338,4.01346265 2.00284428,4.25286001 2.00284428,4.48922702 C1.99891358,8.13271342 1.99989628,11.7772099 2.00087888,15.4206963 C2.00087888,15.5247382 2.00284428,15.6297902 2.00874038,15.7338321 C2.05590928,16.5469751 2.33892248,16.8429389 3.13293168,16.8580906 C4.18735238,16.8772828 5.19951758,16.8742525 6.25393829,16.8803131 C6.47602499,16.8823334 6.91331969,16.8803131 6.91331969,16.8803131 L6.91331969,17.2338536 C6.91331969,18.5752869 6.95459249,19.91571 6.95852319,21.2591636 C6.95950589,21.5157329 6.90447549,21.8308889 7.20615979,21.9642242 C7.50096519,22.0945291 7.69455399,21.83998 7.88126409,21.6642199 C9.51743409,20.133895 11.1565522,18.6055903 12.7858434,17.0681946 C12.9352115,16.9277886 13.0855623,16.8772828 13.2830819,16.8782929 C15.2828452,16.8823334 17.2826086,16.8823334 19.2804066,16.8803131 C19.5309911,16.8803131 19.7825584,16.870212 20.0311777,16.8469793 C20.6237365,16.7944533 20.8733384,16.5530357 20.958832,15.9510069 C20.9843818,15.7641356 20.9981394,15.5722137 20.9981394,15.3833221 C21.0001048,11.7974122 21.0010874,8.21049231 20.9981394,4.62256226 C20.996174,4.36902328 20.9765203,4.11043373 20.9411437,3.85790487 C20.8674423,3.34072577 20.6070309,3.09021714 20.0980002,3.03466079 Z M4.99999998,7.99999998 C4.99999998,8.55228473 5.44631138,8.99999998 5.99754458,8.99999998 L13.0024554,8.99999998 C13.553384,8.99999998 14,8.55613516 14,7.99999998 C14,7.44771523 13.5536886,6.99999998 13.0024554,6.99999998 L5.99754458,6.99999998 C5.44661598,6.99999998 4.99999998,7.4438648 4.99999998,7.99999998 Z M4.99999998,12 C4.99999998,12.5522847 5.44748936,13 5.99850226,13 L17.0014976,13 C17.5529553,13 18,12.5561352 18,12 C18,11.4477153 17.5525105,11 17.0014976,11 L5.99850226,11 C5.44704471,11 4.99999998,11.4438648 4.99999998,12 Z"></path>
        </g>
    </g>
</svg>