<?xml version="1.0" encoding="UTF-8"?>
<svg width="9px" height="14px" viewBox="0 0 9 14" version="1.1" xmlns="http://www.w3.org/2000/svg" xmlns:xlink="http://www.w3.org/1999/xlink">
  <path fill="#50E3C2" d="M8,4.7v8.1c0,0.7-0.4,1.1-1,1.1H1.2c-0.6,0.1-1-0.4-1-1V1.8c0-0.6,0.4-1,1-1h4.5L4.3,2.9H1.1v9H7V6.4L8,4.7z M8.7,0.5C8.9,0.6,9,0.9,8.8,1.1L8.5,1.7L7,0.7l0.3-0.5C7.5,0,7.7-0.1,7.9,0.1L8.7,0.5L8.7,0.5z M4.4,5l2.4-3.9l1.5,1L5.9,5.9L4.4,5 L4.4,5z M4.1,6.1V5.3l1.4,0.9L4.9,6.6L4.1,7V6.1L4.1,6.1z"/>
</svg>
