<?xml version="1.0" encoding="UTF-8"?>
<svg width="15.2px" height="20px" viewBox="0 0 15.2 20" version="1.1" xmlns="http://www.w3.org/2000/svg" xmlns:xlink="http://www.w3.org/1999/xlink">
<path fill="#50E3C2" d="M14.2,4h-1.7V1.3C12.6,0.6,12,0,11.2,0H1.3C0.6,0,0,0.6,0,1.3v17.3C0,19.4,0.6,20,1.3,20h9.9 c0.8,0,1.3-0.6,1.3-1.3V9.3h1.7c0.6,0,1-0.4,1-1V5C15.2,4.4,14.8,4,14.2,4z M6.2,19.1c-0.6,0-1-0.4-1-1s0.4-1,1-1s1,0.4,1,1 C7.2,18.7,6.8,19.1,6.2,19.1z M10.7,16.2H1.9V1.8h8.8v2.1H5.3C4.8,4,4.3,4.4,4.3,5v3.3c0,0.6,0.4,1,1,1h5.2v6.9H10.7z M14.1,8.2H5.4 V5.1H14v3.1H14.1z" />
<circle fill="#50E3C2" cx="9.8" cy="6.7" r="0.9" />
<circle fill="#50E3C2" cx="7.1" cy="6.7" r="0.9" />
<circle fill="#50E3C2" cx="12.4" cy="6.7" r="0.9" />
</svg>
