<?xml version="1.0" encoding="UTF-8"?>
<svg width="60px" height="59px" viewBox="0 0 60 59" version="1.1" xmlns="http://www.w3.org/2000/svg" xmlns:xlink="http://www.w3.org/1999/xlink">
    <!-- Generator: Sketch 40.2 (33826) - http://www.bohemiancoding.com/sketch -->
    <title>mood-ok</title>
    <desc>Created with Sketch.</desc>
    <defs></defs>
    <g id="Page-1" stroke="none" stroke-width="1" fill="none" fill-rule="evenodd">
        <g id="mood-ok" fill="#FAAB00">
            <path d="M60,5.10787098 C60,4.28808898 59.937695,3.53136698 59.813084,2.71158498 C59.563863,1.13508198 58.753894,0.315300982 57.133956,0.126119982 C56.573209,0.0630599816 55.950156,-1.83894144e-08 55.389408,-1.83894144e-08 L4.672897,-1.83894144e-08 C3.862928,-1.83894144e-08 3.115265,0.126119982 2.305296,0.252240982 C1.121495,0.441420982 0.436137,1.26120198 0.186916,2.45934498 C0.062305,3.21606698 0,3.90972698 0,4.66644998 L0,38.592798 L0,39.538699 C0.124611,42.061105 1.05919,43.007006 3.551402,43.007006 C6.853583,43.070067 10.342679,43.070067 13.707165,43.070067 C14.392523,43.070067 15.514019,43.133127 15.514019,43.133127 L15.514019,44.205149 C15.514019,48.367117 15.576324,52.529085 15.576324,56.691054 C15.576324,57.510835 15.576324,58.456737 16.510903,58.898158 C17.445483,59.276519 18.006231,58.519797 18.566978,57.952256 C23.738318,53.159687 28.847352,48.430177 34.018692,43.700667 C34.517134,43.259247 34.953271,43.133127 35.576324,43.133127 L54.517134,43.133127 C55.327103,43.133127 56.074766,43.070067 56.884735,43.007006 C58.753894,42.817826 59.563863,42.124164 59.813084,40.232361 C59.875389,39.664819 59.937695,39.034219 59.937695,38.466677 C60,27.368094 60,16.269513 60,5.10787098 L60,5.10787098 L60,5.10787098 Z M22.718481,18.453192 C22.718481,20.901064 20.718481,22.846809 18.343481,22.846809 C15.905981,22.846809 13.968481,20.838298 13.968481,18.453192 C13.968481,16.005319 15.968481,14.059574 18.343481,14.059574 C20.718481,13.996808 22.718481,16.005319 22.718481,18.453192 L22.718481,18.453192 L22.718481,18.453192 Z M45.843481,18.453192 C45.843481,20.901064 43.843481,22.846809 41.468481,22.846809 C39.030981,22.846809 37.093481,20.838298 37.093481,18.453192 C37.093481,16.005319 39.093481,14.059574 41.468481,14.059574 C43.843481,13.996808 45.843481,16.005319 45.843481,18.453192 L45.843481,18.453192 L45.843481,18.453192 Z M36.7692308,32 L23.2307692,32 C22.5538462,32 22,31.3250007 22,30.5 C22,29.6750005 22.5538462,29 23.2307692,29 L36.7692308,29 C37.4461538,29 38,29.6750005 38,30.5 C38,31.3250007 37.4461538,32 36.7692308,32 Z" id="ok"></path>
        </g>
    </g>
</svg>