<?xml version="1.0" encoding="UTF-8"?>
<svg width="60px" height="59px" viewBox="0 0 60 59" version="1.1" xmlns="http://www.w3.org/2000/svg" xmlns:xlink="http://www.w3.org/1999/xlink">
    <!-- Generator: Sketch 51.1 (57501) - http://www.bohemiancoding.com/sketch -->
    <title>mood-sad</title>
    <desc>Created with Sketch.</desc>
    <defs></defs>
    <g id="mood-sad" stroke="none" stroke-width="1" fill="none" fill-rule="evenodd">
        <path d="M60,6.107871 C60,5.288089 59.937695,4.531367 59.813084,3.711585 C59.563863,2.135082 58.753894,1.315301 57.133956,1.12612 C56.573209,1.06306 55.950156,1 55.389408,1 L4.672897,1 C3.862928,1 3.115265,1.12612 2.305296,1.252241 C1.121495,1.441421 0.436137,2.261202 0.186916,3.459345 C0.062305,4.216067 0,4.909727 0,5.66645 L0,39.592798 L0,40.538699 C0.124611,43.061105 1.05919,44.007006 3.551402,44.007006 C6.853583,44.070067 10.280374,44.070067 13.582555,44.070067 C14.267913,44.070067 15.327103,44.133127 15.327103,44.133127 L15.327103,45.205149 C15.327103,49.367117 15.451713,53.529085 15.514019,57.691054 C15.514019,58.510835 15.576324,59.456737 16.510903,59.898158 C17.445483,60.276519 18.006231,59.519797 18.566978,58.952256 C23.738318,54.159687 28.847352,49.430177 34.018692,44.700667 C34.517134,44.259247 34.953271,44.133127 35.576324,44.133127 L54.517134,44.133127 C55.327103,44.133127 56.074766,44.070067 56.884735,44.007006 C58.753894,43.817826 59.563863,43.124164 59.813084,41.232361 C59.875389,40.664819 59.937695,40.034219 59.937695,39.466677 C60,28.368094 60,17.269513 60,6.107871 L60,6.107871 L60,6.107871 Z M18.780981,21.33617 C16.343481,21.33617 14.405981,19.32766 14.405981,16.942553 C14.405981,14.494681 16.405981,12.548936 18.780981,12.548936 C21.218481,12.548936 23.155981,14.557447 23.155981,16.942553 C23.218481,19.32766 21.218481,21.33617 18.780981,21.33617 L18.780981,21.33617 L18.780981,21.33617 Z M46.343481,16.942553 C46.343481,19.390425 44.343481,21.33617 41.968481,21.33617 C39.530981,21.33617 37.593481,19.32766 37.593481,16.942553 C37.593481,14.494681 39.593481,12.548936 41.968481,12.548936 C44.343481,12.48617 46.343481,14.494681 46.343481,16.942553 L46.343481,16.942553 L46.343481,16.942553 Z M22.2429886,33.2534644 C21.7429886,32.8141024 21.6804886,31.9981444 22.1804886,31.4960174 C24.2429886,29.2364424 27.1179886,27.9811234 30.1804886,27.9811234 C33.2429886,27.9811234 36.1179886,29.2364424 38.1804886,31.4960174 C38.6179886,31.9981444 38.6179886,32.8141024 38.1179886,33.2534644 C37.6179886,33.6928254 36.8054886,33.6928254 36.3679886,33.1906984 C34.7429886,31.4332514 32.6179886,30.4917614 30.2429886,30.4917614 C27.9304886,30.4917614 25.6804886,31.4960174 24.1179886,33.1906984 C23.5554886,33.6928254 22.7429886,33.6928254 22.2429886,33.2534644 L22.2429886,33.2534644 L22.2429886,33.2534644 Z" id="sad" fill="#50E3C2"></path>
    </g>
</svg>