<?xml version="1.0" encoding="UTF-8"?>
<svg width="60px" height="59px" viewBox="0 0 60 59" version="1.1" xmlns="http://www.w3.org/2000/svg" xmlns:xlink="http://www.w3.org/1999/xlink">
    <!-- Generator: Sketch 40.2 (33826) - http://www.bohemiancoding.com/sketch -->
    <title>mood-supergood</title>
    <desc>Created with Sketch.</desc>
    <defs></defs>
    <g id="Page-1" stroke="none" stroke-width="1" fill="none" fill-rule="evenodd">
        <g id="mood-supergood" fill="#38AE6A">
            <path d="M60,5.107871 C60,4.288089 59.937695,3.531367 59.813084,2.711585 C59.563863,1.135082 58.753894,0.315301 57.133956,0.12612 C56.573209,0.06306 55.950156,0 55.389408,0 L4.672897,0 C3.862928,0 3.115265,0.12612 2.305296,0.252241 C1.121495,0.441421 0.436137,1.261202 0.186916,2.459345 C0.062305,3.216067 0,3.909727 0,4.66645 L0,38.592798 L0,39.538699 C0.124611,42.061105 1.05919,43.007006 3.551402,43.007006 C6.853583,43.070067 10.280374,43.070067 13.582555,43.070067 C14.267913,43.070067 15.327103,43.133127 15.327103,43.133127 L15.327103,44.205149 C15.327103,48.367117 15.451713,52.529085 15.514019,56.691054 C15.514019,57.510835 15.576324,58.456737 16.510903,58.898158 C17.445483,59.276519 18.006231,58.519797 18.566978,57.952256 C23.738318,53.159687 28.847352,48.430177 34.018692,43.700667 C34.517134,43.259247 34.953271,43.133127 35.576324,43.133127 L54.517134,43.133127 C55.327103,43.133127 56.074766,43.070067 56.884735,43.007006 C58.753894,42.817826 59.563863,42.124164 59.813084,40.232361 C59.875389,39.664819 59.937695,39.034219 59.937695,38.466677 C60,27.368094 60,16.269513 60,5.107871 L60,5.107871 L60,5.107871 Z M40.6,21 C40.6,25.9079759 35.9058824,31 30.1,31 C24.2941176,31 19.6,25.9079759 19.6,21 L40.6,21 Z M23.440835,15.691489 L13.440835,15.691489 C12.753335,15.691489 12.190835,15.126596 12.190835,14.43617 C12.190835,13.745745 12.753335,13.180851 13.440835,13.180851 L14.065835,13.180851 C14.440835,10.230851 16.253335,8.787234 18.378335,8.787234 C20.503335,8.787234 22.315835,10.293617 22.690835,13.180851 L23.440835,13.180851 C24.128335,13.180851 24.690835,13.745745 24.690835,14.43617 C24.690835,15.126596 24.128335,15.691489 23.440835,15.691489 L23.440835,15.691489 L23.440835,15.691489 Z M47.815835,14.43617 C47.815835,15.126596 47.253335,15.691489 46.565835,15.691489 L36.565835,15.691489 C35.878335,15.691489 35.315835,15.126596 35.315835,14.43617 C35.315835,13.745745 35.878335,13.180851 36.565835,13.180851 L37.190835,13.180851 C37.565835,10.230851 39.378335,8.787234 41.503335,8.787234 C43.628335,8.787234 45.440835,10.293617 45.815835,13.180851 L46.565835,13.180851 C47.253335,13.180851 47.815835,13.745745 47.815835,14.43617 L47.815835,14.43617 L47.815835,14.43617 Z" id="super-happy"></path>
        </g>
    </g>
</svg>