<?xml version="1.0" encoding="UTF-8"?>
<svg width="60px" height="59px" viewBox="0 0 60 59" version="1.1" xmlns="http://www.w3.org/2000/svg" xmlns:xlink="http://www.w3.org/1999/xlink">
    <!-- Generator: Sketch 40.2 (33826) - http://www.bohemiancoding.com/sketch -->
    <title>mood-superbad</title>
    <desc>Created with Sketch.</desc>
    <defs></defs>
    <g id="Page-1" stroke="none" stroke-width="1" fill="none" fill-rule="evenodd">
        <g id="mood-superbad" fill="#F35910">
            <path d="M60,5.107871 C60,4.288089 59.9376947,3.531367 59.8130841,2.711585 C59.5638629,1.135082 58.7538941,0.315301 57.1339564,0.12612 C56.5732087,0.06306 55.9501558,0 55.3894081,0 L4.6728972,0 C3.86292835,0 3.1152648,0.12612 2.30529595,0.252241 C1.12149533,0.441421 0.436137072,1.261202 0.186915888,2.459345 C0.062305296,3.216067 0,3.909727 0,4.66645 L0,38.592798 L0,39.538699 C0.124610592,42.061105 1.05919003,43.007006 3.55140187,43.007006 C6.85358255,43.070067 10.3426791,43.070067 13.7071651,43.070067 C14.3925234,43.070067 15.5140187,43.133127 15.5140187,43.133127 L15.5140187,44.205149 C15.5140187,48.367117 15.576324,52.529085 15.576324,56.691054 C15.576324,57.510835 15.576324,58.456737 16.5109034,58.898158 C17.4454829,59.276519 18.0062305,58.519797 18.5669782,57.952256 C23.7383178,53.159687 28.847352,48.430177 34.0186916,43.700667 C34.517134,43.259247 34.953271,43.133127 35.576324,43.133127 L54.517134,43.133127 C55.3271028,43.133127 56.0747664,43.070067 56.8847352,43.007006 C58.7538941,42.817826 59.5638629,42.124164 59.8130841,40.232361 C59.8753894,39.664819 59.9376947,39.034219 59.9376947,38.466677 C60,27.368094 60,16.269513 60,5.107871 L60,5.107871 L60,5.107871 Z M45.6875,20.587234 C46.3125,24.290425 44.75,26.487234 42.3125,26.926596 C39.9375,27.365957 37.625,25.796808 37,22.093617 L45.6875,20.587234 L45.6875,20.587234 Z M18.25,26.989362 C15.875,26.55 14.25,24.353191 14.875,20.65 L23.5625,22.156383 C22.875,25.859574 20.625,27.365957 18.25,26.989362 L18.25,26.989362 L18.25,26.989362 Z M38,34.897872 C38.4375,35.4 38.4375,36.215957 37.9375,36.655319 C37.4375,37.094681 36.625,37.094681 36.1875,36.592553 C34.5625,34.835106 32.4375,33.893617 30.0625,33.893617 C27.75,33.893617 25.5,34.897872 23.9375,36.592553 C23.6875,36.843617 23.375,36.969149 23,36.969149 C22.6875,36.969149 22.375,36.843617 22.125,36.655319 C21.625,36.215957 21.5625,35.4 22.0625,34.897872 C24.125,32.638298 27,31.382979 30,31.382979 C33,31.382979 35.9375,32.638298 38,34.897872 L38,34.897872 L38,34.897872 Z" id="superbad"></path>
        </g>
    </g>
</svg>