<?xml version="1.0" encoding="UTF-8"?>
<svg width="60px" height="59px" viewBox="0 0 60 59" version="1.1" xmlns="http://www.w3.org/2000/svg" xmlns:xlink="http://www.w3.org/1999/xlink">
    <!-- Generator: Sketch 40.2 (33826) - http://www.bohemiancoding.com/sketch -->
    <title>mood-good</title>
    <desc>Created with Sketch.</desc>
    <defs></defs>
    <g id="Page-1" stroke="none" stroke-width="1" fill="none" fill-rule="evenodd">
        <g id="mood-good" fill="#A9AC41">
            <path d="M60,5.107871 C60,4.288089 59.937695,3.531367 59.813084,2.711585 C59.563863,1.135082 58.753894,0.315301 57.133956,0.12612 C56.573209,0.06306 55.950156,0 55.389408,0 L4.672897,0 C3.862928,0 3.115265,0.12612 2.305296,0.252241 C1.121495,0.441421 0.436137,1.261202 0.186916,2.459345 C0.062305,3.216067 0,3.909727 0,4.66645 L0,38.592798 L0,39.538699 C0.124611,42.061105 1.05919,43.007006 3.551402,43.007006 C6.853583,43.070067 10.280374,43.070067 13.582555,43.070067 C14.267913,43.070067 15.327103,43.133127 15.327103,43.133127 L15.327103,44.205149 C15.327103,48.367117 15.451713,52.529085 15.514019,56.691054 C15.514019,57.510835 15.576324,58.456737 16.510903,58.898158 C17.445483,59.276519 18.006231,58.519797 18.566978,57.952256 C23.738318,53.159687 28.847352,48.430177 34.018692,43.700667 C34.517134,43.259247 34.953271,43.133127 35.576324,43.133127 L54.517134,43.133127 C55.327103,43.133127 56.074766,43.070067 56.884735,43.007006 C58.753894,42.817826 59.563863,42.124164 59.813084,40.232361 C59.875389,39.664819 59.937695,39.034219 59.937695,38.466677 C60,27.368094 60,16.269513 60,5.107871 L60,5.107871 L60,5.107871 Z M18.780981,20.33617 C16.343481,20.33617 14.405981,18.32766 14.405981,15.942553 C14.405981,13.494681 16.405981,11.548936 18.780981,11.548936 C21.218481,11.548936 23.155981,13.557447 23.155981,15.942553 C23.218481,18.32766 21.218481,20.33617 18.780981,20.33617 L18.780981,20.33617 L18.780981,20.33617 Z M46.343481,15.942553 C46.343481,18.390425 44.343481,20.33617 41.968481,20.33617 C39.530981,20.33617 37.593481,18.32766 37.593481,15.942553 C37.593481,13.494681 39.593481,11.548936 41.968481,11.548936 C44.343481,11.48617 46.343481,13.494681 46.343481,15.942553 L46.343481,15.942553 L46.343481,15.942553 Z M38.093481,27.303191 C38.593481,27.742553 38.655981,28.558511 38.155981,29.060638 C36.093481,31.320213 33.218481,32.575532 30.155981,32.575532 C27.093481,32.575532 24.218481,31.320213 22.155981,29.060638 C21.718481,28.558511 21.718481,27.742553 22.218481,27.303191 C22.718481,26.86383 23.530981,26.86383 23.968481,27.365957 C25.593481,29.123404 27.718481,30.064894 30.093481,30.064894 C32.405981,30.064894 34.655981,29.060638 36.218481,27.365957 C36.780981,26.86383 37.593481,26.86383 38.093481,27.303191 L38.093481,27.303191 L38.093481,27.303191 Z" id="happy"></path>
        </g>
    </g>
</svg>