<?xml version="1.0" encoding="UTF-8"?>
<svg width="60px" height="59px" viewBox="0 0 60 59" version="1.1" xmlns="http://www.w3.org/2000/svg" xmlns:xlink="http://www.w3.org/1999/xlink">
    <!-- Generator: Sketch 40.2 (33826) - http://www.bohemiancoding.com/sketch -->
    <title>mood-bad</title>
    <desc>Created with Sketch.</desc>
    <defs></defs>
    <g id="Page-1" stroke="none" stroke-width="1" fill="none" fill-rule="evenodd">
        <g id="mood-bad" fill="#F6820B">
            <path d="M60,5.10787098 C60,4.28808898 59.937695,3.53136698 59.813084,2.71158498 C59.563863,1.13508198 58.753894,0.315300982 57.133956,0.126119982 C56.573209,0.0630599816 55.950156,-1.83894144e-08 55.389408,-1.83894144e-08 L4.6728972,-1.83894144e-08 C3.8629283,-1.83894144e-08 3.1152648,0.126119982 2.3052959,0.252240982 C1.1214953,0.441420982 0.4361371,1.26120198 0.1869159,2.45934498 C0.0623053,3.21606698 0,3.90972698 0,4.66644998 L0,38.592798 L0,39.538699 C0.1246106,42.061105 1.05919,43.007006 3.5514018,43.007006 C6.8535825,43.070067 10.342679,43.070067 13.707165,43.070067 C14.3925232,43.070067 15.5140186,43.133127 15.5140186,43.133127 L15.5140186,44.205149 C15.5140186,48.367117 15.5763239,52.529085 15.5763239,56.691054 C15.5763239,57.510835 15.5763239,58.456737 16.5109033,58.898158 C17.4454827,59.276519 18.0062304,58.519797 18.566978,57.952256 C23.7383176,53.159687 28.8473518,48.430177 34.0186913,43.700667 C34.5171337,43.259247 34.9532707,43.133127 35.5763237,43.133127 L54.517134,43.133127 C55.327103,43.133127 56.074766,43.070067 56.884735,43.007006 C58.753894,42.817826 59.563863,42.124164 59.813084,40.232361 C59.875389,39.664819 59.937695,39.034219 59.937695,38.466677 C60,27.368094 60,16.269513 60,5.10787098 L60,5.10787098 L60,5.10787098 Z M35,34.5 C35,35.3250007 34.4375,36 33.75,36 L26.25,36 C25.5625,36 25,35.3250007 25,34.5 C25,33.6750005 25.5625,33 26.25,33 L33.75,33 C34.4375,33 35,33.6750005 35,34.5 L35,34.5 L35,34.5 Z M37,19 L46,19 C46,22.9999996 43.9574469,25 41.5319151,25 C39.1063823,25 37,22.9999996 37,19 L37,19 L37,19 Z M14,19 L23,19 C23,22.9999996 20.9574468,25 18.5319149,25 C16.106383,25 14,22.9999996 14,19 L14,19 L14,19 Z" id="bad"></path>
        </g>
    </g>
</svg>