<?xml version="1.0" encoding="UTF-8"?>
<svg width="14px" height="14px" viewBox="0 0 14 14" version="1.1" xmlns="http://www.w3.org/2000/svg" xmlns:xlink="http://www.w3.org/1999/xlink">
    <!-- Generator: Sketch 61.1 (89650) - https://sketch.com -->
    <title>not-signed</title>
    <desc>Created with Sketch.</desc>
    <g id="not-signed" stroke="none" stroke-width="1" fill="none" fill-rule="evenodd">
        <path d="M7.31730677,0.105840662 C7.34739634,0.128701418 7.37467735,0.154740401 7.39862853,0.183460083 L8.55352341,1.56828587 C8.68077561,1.72087303 8.89122527,1.78613917 9.08814095,1.73408525 L10.8752764,1.26166273 C11.1464562,1.18997736 11.4271753,1.34169118 11.50228,1.60052501 C11.5125448,1.63590076 11.5185802,1.67227207 11.5202709,1.708944 L11.6017946,3.47721668 C11.6107773,3.67205396 11.7408424,3.84292293 11.9322064,3.91128508 L13.6689575,4.53171518 C13.932492,4.62585921 14.0661698,4.90608871 13.9675352,5.15762529 C13.9540545,5.19200369 13.936539,5.22481473 13.9153234,5.25543147 L12.8923367,6.73173097 C12.7796188,6.89439717 12.7796188,7.10560283 12.8923367,7.26826903 L13.9153234,8.74456853 C14.0705514,8.96858215 14.0061276,9.27028919 13.7714289,9.41845008 C13.7393517,9.43869976 13.7049757,9.45541782 13.6689575,9.46828482 L11.9322064,10.0887149 C11.7408424,10.1570771 11.6107773,10.327946 11.6017946,10.5227833 L11.5202709,12.291056 C11.5079005,12.5593736 11.2699828,12.7673164 10.9888668,12.7555091 C10.9504457,12.7538954 10.9123395,12.7481348 10.8752764,12.7383373 L9.08814095,12.2659148 C8.89122527,12.2138608 8.68077561,12.279127 8.55352341,12.4317141 L7.39862853,13.8165399 C7.22338484,14.0266733 6.90284969,14.0614247 6.68269323,13.8941593 C6.65260366,13.8712986 6.62532265,13.8452596 6.60137147,13.8165399 L5.44647659,12.4317141 C5.31922439,12.279127 5.10877473,12.2138608 4.91185905,12.2659148 L3.1247236,12.7383373 C2.85354375,12.8100226 2.5728247,12.6583088 2.49772005,12.399475 C2.48745522,12.3640992 2.4814198,12.3277279 2.47972909,12.291056 L2.39820537,10.5227833 C2.38922267,10.327946 2.25915763,10.1570771 2.06779356,10.0887149 L0.331042537,9.46828482 C0.0675080262,9.37414079 -0.0661697902,9.09391129 0.0324647774,8.84237471 C0.0459455161,8.80799631 0.0634609997,8.77518527 0.0846765586,8.74456853 L1.10766329,7.26826903 C1.22038117,7.10560283 1.22038117,6.89439717 1.10766329,6.73173097 L0.0846765586,5.25543147 C-0.0705513951,5.03141785 -0.00612759356,4.72971081 0.228571147,4.58154992 C0.260648262,4.56130024 0.295024334,4.54458218 0.331042537,4.53171518 L2.06779356,3.91128508 C2.25915763,3.84292293 2.38922267,3.67205396 2.39820537,3.47721668 L2.47972909,1.708944 C2.4920995,1.44062639 2.73001721,1.23268363 3.01113319,1.24449085 C3.04955431,1.24610459 3.08766048,1.25186524 3.1247236,1.26166273 L4.91185905,1.73408525 C5.10877473,1.78613917 5.31922439,1.72087303 5.44647659,1.56828587 L6.60137147,0.183460083 C6.77661516,-0.0266733112 7.09715031,-0.0614247095 7.31730677,0.105840662 Z M4.41361229,3.65675097 C4.20461083,3.44774968 3.8657525,3.44774968 3.6567511,3.65675097 C3.44774963,3.86575281 3.44774963,4.20461113 3.6567511,4.41361243 L3.6567511,4.41361243 L6.25490847,7.01176976 L3.69831796,9.58623834 C3.49004601,9.79596695 3.49122667,10.1348231 3.70095507,10.343095 C3.91068347,10.5513674 4.24953976,10.5501862 4.45781171,10.3404581 L4.45781171,10.3404581 L7.01177432,7.7686355 L9.58491757,10.341779 C9.79391887,10.5507803 10.1327772,10.5507803 10.341779,10.341779 C10.5507803,10.1327777 10.5507803,9.79391934 10.341779,9.58491751 L10.341779,9.58491751 L7.76599841,7.0091372 L10.3448103,4.41229161 C10.5530827,4.20256299 10.5519015,3.86370681 10.3421735,3.65543496 C10.1324449,3.44716312 9.79358867,3.44834373 9.58531682,3.6580718 L9.58531682,3.6580718 L7.00913256,6.25227146 Z" id="Combined-Shape" fill="#50E3C2"></path>
    </g>
</svg>