<?xml version="1.0" encoding="UTF-8" standalone="no"?>
<svg width="17px" height="16px" viewBox="0 0 17 16" version="1.1" xmlns="http://www.w3.org/2000/svg" xmlns:xlink="http://www.w3.org/1999/xlink" xmlns:sketch="http://www.bohemiancoding.com/sketch/ns">
    <!-- Generator: Sketch 3.3.3 (12072) - http://www.bohemiancoding.com/sketch -->
    <title>note</title>
    <desc>Created with Sketch.</desc>
    <defs></defs>
    <g id="Page-1" stroke="none" stroke-width="1" fill="none" fill-rule="evenodd" sketch:type="MSPage">
        <g id="note" sketch:type="MSArtboardGroup" transform="translate(1.000000, 0.000000)" fill="#50E3C2">
            <path d="M14.6673979,1.85601 L9.852655,6.671434 L10.8898628,7.708495 L15.7046057,2.893071 L14.6673979,1.85601 L14.6673979,1.85601 Z M8.72,7.75924 L8.72,8.78 L9.77784,8.78 L10.29626,8.26962 L9.24878,7.29228 L8.72,7.75924 L8.72,7.75924 Z M10.81482,9.69 L7.74,9.69 L7.74,6.79633 L12.36,2.46291 L12.36,1.5 L6.2,1.5 L6.2,5.4 L2,5.4 L2,14.5 L12.36,14.5 L12.36,8.24076 L10.81482,9.69 L10.81482,9.69 Z M2,4.36 L5.08,4.36 L5.08,1.5 L2,4.36 L2,4.36 Z" id="note-tab-dark" sketch:type="MSShapeGroup"></path>
        </g>
    </g>
</svg>