<?xml version="1.0" encoding="UTF-8"?>
<svg width="16px" height="16px" viewBox="0 0 16 16" version="1.1" xmlns="http://www.w3.org/2000/svg" xmlns:xlink="http://www.w3.org/1999/xlink">
    <!-- Generator: Sketch 42 (36781) - http://www.bohemiancoding.com/sketch -->
    <title>note</title>
    <desc>Created with Sketch.</desc>
    <defs></defs>
    <g id="Page-1" stroke="none" stroke-width="1" fill="none" fill-rule="evenodd">
        <g id="note" fill="#50E3C2">
            <path d="M9.84709055,1 L1.63303622,1 C1.28341995,1 1,1.27965509 1,1.63793036 L1,14.3620696 C1,14.7143892 1.28695253,15 1.63303622,15 L12.4578729,15 C12.8074891,15 13.0909091,14.7203449 13.0909091,14.3620696 L13.0909091,6.83239615 L11.2351406,9.77679621 L6.9484021,12 L10.385537,12 C10.7246219,12 11,12.2238575 11,12.5 C11,12.7780675 10.7248955,13 10.385537,13 L3.61446294,13 C3.27537808,13 3,12.7761425 3,12.5 C3,12.2219325 3.27510445,12 3.61446294,12 L6.16441129,12 L6.23401877,10 L3.61446294,10 C3.27537808,10 3,9.7761425 3,9.5 C3,9.2219325 3.27510445,9 3.61446294,9 L6.26882251,9 L6.33843,7 L3.61446294,7 C3.27537808,7 3,6.7761425 3,6.5 C3,6.2219325 3.27510445,6 3.61446294,6 L6.70385092,6 L7.96114677,4 L3.66502973,4 C3.29754093,4 3,3.7761425 3,3.5 C3,3.2219325 3.297744,3 3.66502973,3 L8.33497027,3 C8.41760425,3 8.4967015,3.01131881 8.56967436,3.03200573 L9.84709055,1 Z" id="templates"></path>
            <path d="M14.1112395,0.8213522 L13.001477,0.124021374 C12.7214955,-0.051704683 12.3526675,0.0328798742 12.1762858,0.312533468 L11.7389377,1.00855291 L13.86142,2.3415793 L14.2990959,1.64621556 C14.4748219,1.36590627 14.3912209,0.99675041 14.1112395,0.8213522 L14.1112395,0.8213522 Z M7.96279458,7.02225265 L10.0852768,8.35462335 L13.5443918,2.8481031 L11.4205982,1.51442101 L7.96279458,7.02225265 L7.96279458,7.02225265 Z M7.63789808,8.71591087 L7.59101594,9.96763118 L8.69881136,9.38176838 L9.72825132,8.83819785 L7.68051821,7.55107005 L7.63789808,8.71591087 L7.63789808,8.71591087 Z" id="Shape"></path>
        </g>
    </g>
</svg>