<?xml version="1.0" encoding="UTF-8"?>
<svg width="16px" height="16px" viewBox="0 0 16 16" version="1.1" xmlns="http://www.w3.org/2000/svg" xmlns:xlink="http://www.w3.org/1999/xlink">
    <!-- Generator: Sketch 40.2 (33826) - http://www.bohemiancoding.com/sketch -->
    <title>note</title>
    <desc>Created with Sketch.</desc>
    <defs></defs>
    <g id="Page-1" stroke="none" stroke-width="1" fill="none" fill-rule="evenodd">
        <g id="note" fill="#50E3C2">
            <path d="M13.0909091,6.83239615 L13.0909091,14.3620696 C13.0909091,14.7203449 12.8074891,15 12.4578729,15 L1.63303622,15 C1.28695253,15 1,14.7143892 1,14.3620696 L1,1.63793036 C1,1.27965509 1.28341995,1 1.63303622,1 L9.84709055,1 L8.22210967,3.58488228 C8.153424,3.55938399 8.07912544,3.54545455 8.00156253,3.54545455 L3.54389202,3.54545455 C3.19330109,3.54545455 2.90909091,3.82791409 2.90909091,4.18181818 C2.90909091,4.53327227 3.19310725,4.81818182 3.54389202,4.81818182 L7.44679847,4.81818182 L6.64670111,6.09090909 L3.54587003,6.09090909 C3.19418665,6.09090909 2.90909091,6.37336864 2.90909091,6.72727273 C2.90909091,7.07872682 3.19447022,7.36363636 3.54587003,7.36363636 L6.32577409,7.36363636 L6.28147842,8.63636364 L3.54587003,8.63636364 C3.19418665,8.63636364 2.90909091,8.91882318 2.90909091,9.27272727 C2.90909091,9.62418136 3.19447022,9.90909091 3.54587003,9.90909091 L6.23718275,9.90909091 L6.19288708,11.1818182 L3.54587003,11.1818182 C3.19418665,11.1818182 2.90909091,11.4642777 2.90909091,11.8181818 C2.90909091,12.1696359 3.19447022,12.4545455 3.54587003,12.4545455 L10.5628572,12.4545455 C10.9145406,12.4545455 11.1996364,12.1720859 11.1996364,11.8181818 C11.1996364,11.4667277 10.914257,11.1818182 10.5628572,11.1818182 L8.52600445,11.1818182 L11.2351406,9.77679621 L13.0909091,6.83239615 Z" id="templates"></path>
            <path d="M14.1112395,0.8213522 L13.001477,0.124021374 C12.7214955,-0.051704683 12.3526675,0.0328798742 12.1762858,0.312533468 L11.7389377,1.00855291 L13.86142,2.3415793 L14.2990959,1.64621556 C14.4748219,1.36590627 14.3912209,0.99675041 14.1112395,0.8213522 L14.1112395,0.8213522 Z M7.96279458,7.02225265 L10.0852768,8.35462335 L13.5443918,2.8481031 L11.4205982,1.51442101 L7.96279458,7.02225265 L7.96279458,7.02225265 Z M7.63789808,8.71591087 L7.59101594,9.96763118 L8.69881136,9.38176838 L9.72825132,8.83819785 L7.68051821,7.55107005 L7.63789808,8.71591087 L7.63789808,8.71591087 Z" id="Shape"></path>
        </g>
    </g>
</svg>