<?xml version="1.0" encoding="UTF-8"?>
<svg width="16px" height="16px" viewBox="0 0 16 16" version="1.1" xmlns="http://www.w3.org/2000/svg" xmlns:xlink="http://www.w3.org/1999/xlink">
    <!-- Generator: Sketch 40.2 (33826) - http://www.bohemiancoding.com/sketch -->
    <title>organization</title>
    <desc>Created with Sketch.</desc>
    <defs></defs>
    <g id="Page-1" stroke="none" stroke-width="1" fill="none" fill-rule="evenodd">
        <g id="organization" fill="#50E3C2">
            <path d="M1,15 L8,15 L8,1 L1,1 L1,15 Z M3,13 L2,13 L2,12 L3,12 L3,13 L3,13 Z M3,11 L2,11 L2,10 L3,10 L3,11 L3,11 Z M3,9 L2,9 L2,8 L3,8 L3,9 L3,9 Z M3,7 L2,7 L2,6 L3,6 L3,7 L3,7 Z M3,5 L2,5 L2,4 L3,4 L3,5 L3,5 Z M2,3 L2,2 L3,2 L3,3 L2,3 Z M5,13 L4,13 L4,12 L5,12 L5,13 L5,13 Z M5,11 L4,11 L4,10 L5,10 L5,11 L5,11 Z M5,9 L4,9 L4,8 L5,8 L5,9 L5,9 Z M5,7 L4,7 L4,6 L5,6 L5,7 L5,7 Z M5,5 L4,5 L4,4 L5,4 L5,5 L5,5 Z M5,3 L4,3 L4,2 L5,2 L5,3 L5,3 Z M7,13 L6,13 L6,12 L7,12 L7,13 L7,13 Z M7,11 L6,11 L6,10 L7,10 L7,11 L7,11 Z M7,9 L6,9 L6,8 L7,8 L7,9 L7,9 Z M7,7 L6,7 L6,6 L7,6 L7,7 L7,7 Z M7,5 L6,5 L6,4 L7,4 L7,5 L7,5 Z M7,3 L6,3 L6,2 L7,2 L7,3 L7,3 Z M8,5 L8,15 L15,15 L15,5 L8,5 L8,5 Z M9,13 L9,12 L10,12 L10,13 L9,13 L9,13 Z M10,11 L9,11 L9,10 L10,10 L10,11 L10,11 Z M10,9 L9,9 L9,8 L10,8 L10,9 L10,9 Z M10,7 L9,7 L9,6 L10,6 L10,7 L10,7 Z M12,13 L11,13 L11,12 L12,12 L12,13 L12,13 Z M12,11 L11,11 L11,10 L12,10 L12,11 L12,11 Z M12,9 L11,9 L11,8 L12,8 L12,9 L12,9 Z M12,7 L11,7 L11,6 L12,6 L12,7 L12,7 Z M14,13 L13,13 L13,12 L14,12 L14,13 L14,13 Z M14,11 L13,11 L13,10 L14,10 L14,11 L14,11 Z M14,9 L13,9 L13,8 L14,8 L14,9 L14,9 Z M14,7 L13,7 L13,6 L14,6 L14,7 L14,7 Z" id="organization-tab-dark"></path>
        </g>
    </g>
</svg>