<?xml version="1.0" encoding="UTF-8" standalone="no"?>
<svg width="24px" height="24px" viewBox="0 0 24 24" version="1.1" xmlns="http://www.w3.org/2000/svg" xmlns:xlink="http://www.w3.org/1999/xlink" xmlns:sketch="http://www.bohemiancoding.com/sketch/ns">
    <!-- Generator: Sketch 3.3.2 (12043) - http://www.bohemiancoding.com/sketch -->
    <title>overviews</title>
    <desc>Created with Sketch.</desc>
    <defs></defs>
    <g id="Page-1" stroke="none" stroke-width="1" fill="none" fill-rule="evenodd" sketch:type="MSPage">
        <g id="overviews" sketch:type="MSArtboardGroup" fill="#50E3C2">
            <path d="M10,6 L20,6 C21.308403,6 22,5.10537191 22,4 C22,2.8946281 21.308403,2 20,2 L10,2 C8.692595,2 8,2.8946281 8,4 C8,5.10537191 8.692595,6 10,6 L10,6 L10,6 Z M20,9 L10,9 C8.692595,9 8,9.8970323 8,11 C8,12.1052903 8.692595,13 10,13 L20,13 C21.308403,13 22,12.1052903 22,11 C22,9.8972903 21.308403,9 20,9 L20,9 L20,9 Z M20,17 L10,17 C8.692595,17 8,17.897464 8,19 C8,20.1043428 8.692595,21 10,21 L20,21 C21.308403,21 22,20.1043428 22,19 C22,17.897464 21.308403,17 20,17 L20,17 L20,17 Z M4,2 C2.6750463,2 2,2.8946281 2,4 C2,5.10511364 2.6750463,6 4,6 C5.3251486,6 6,5.10537191 6,4 C6,2.8946281 5.3249537,2 4,2 L4,2 L4,2 Z M4,9 C2.6750463,9 2,9.8970323 2,11 C2,12.1052903 2.6750463,13 4,13 C5.3251486,13 6,12.1052903 6,11 C6,9.8972903 5.3249537,9 4,9 L4,9 L4,9 Z M4,17 C2.6750463,17 2,17.897464 2,19 C2,20.1043428 2.6750463,21 4,21 C5.3251486,21 6,20.1043428 6,19 C6,17.897464 5.3249537,17 4,17 L4,17 L4,17 Z" sketch:type="MSShapeGroup"></path>
        </g>
    </g>
</svg>