<?xml version="1.0" encoding="UTF-8"?>
<svg width="24px" height="24px" viewBox="0 0 24 24" version="1.1" xmlns="http://www.w3.org/2000/svg" xmlns:xlink="http://www.w3.org/1999/xlink">
    <!-- Generator: Sketch 40.2 (33826) - http://www.bohemiancoding.com/sketch -->
    <title>overviews</title>
    <desc>Created with Sketch.</desc>
    <defs></defs>
    <g id="Page-1" stroke="none" stroke-width="1" fill="none" fill-rule="evenodd">
        <g id="overviews" fill="#50E3C2">
            <path d="M10,7 L20,7 C21.308403,7 22,6.10537191 22,5 C22,3.8946281 21.308403,3 20,3 L10,3 C8.692595,3 8,3.8946281 8,5 C8,6.10537191 8.692595,7 10,7 L10,7 L10,7 Z M20,10 L10,10 C8.692595,10 8,10.8970323 8,12 C8,13.1052903 8.692595,14 10,14 L20,14 C21.308403,14 22,13.1052903 22,12 C22,10.8972903 21.308403,10 20,10 L20,10 L20,10 Z M20,17 L10,17 C8.692595,17 8,17.897464 8,19 C8,20.1043428 8.692595,21 10,21 L20,21 C21.308403,21 22,20.1043428 22,19 C22,17.897464 21.308403,17 20,17 L20,17 L20,17 Z M4,3 C2.6750463,3 2,3.8946281 2,5 C2,6.10511364 2.6750463,7 4,7 C5.3251486,7 6,6.10537191 6,5 C6,3.8946281 5.3249537,3 4,3 L4,3 L4,3 Z M4,10 C2.6750463,10 2,10.8970323 2,12 C2,13.1052903 2.6750463,14 4,14 C5.3251486,14 6,13.1052903 6,12 C6,10.8972903 5.3249537,10 4,10 L4,10 L4,10 Z M4,17 C2.6750463,17 2,17.897464 2,19 C2,20.1043428 2.6750463,21 4,21 C5.3251486,21 6,20.1043428 6,19 C6,17.897464 5.3249537,17 4,17 L4,17 L4,17 Z"></path>
        </g>
    </g>
</svg>