<?xml version="1.0" encoding="UTF-8"?>
<svg width="16px" height="16px" viewBox="0 0 16 16" version="1.1" xmlns="http://www.w3.org/2000/svg" xmlns:xlink="http://www.w3.org/1999/xlink">
    <!-- Generator: Sketch 40.2 (33826) - http://www.bohemiancoding.com/sketch -->
    <title>package</title>
    <desc>Created with Sketch.</desc>
    <defs></defs>
    <g id="Page-1" stroke="none" stroke-width="1" fill="none" fill-rule="evenodd">
        <g id="package" fill="#50E3C2">
            <path d="M13.21416,11.57882 L13.21416,4.7366 L7.9489,7.7767 L7.28922,8.15764 L7.28936,15 L13.21416,11.57882 Z M7.10708,1 L1.18214,4.42104 L3.56284,5.7957 L9.48764,2.37466 L7.10708,1 Z M10.36894,2.88342 L4.44386,6.3046 L4.8906,6.56234 L7.10708,7.84222 L9.31138,6.56934 L13.03188,4.42104 L10.36894,2.88342 Z M4.21146,8.525 L4.1528,8.39214 L4.094,8.46984 L4.0499,8.34118 L3.97234,8.40922 L3.9351,8.28028 L3.85488,8.3353 L3.80924,8.20244 L3.73952,8.27048 L3.69346,8.12488 L3.62738,8.21378 L3.5949,8.0735 L3.52098,8.16646 L3.4752,8.02744 L3.42242,8.11144 L3.394,7.99748 L3.394,6.11868 L1.00014,4.7366 L1,11.57882 L6.9248,15 L6.92494,8.15764 L4.255,6.61596 L4.255,8.44338 L4.21146,8.525 Z" id="Shape"></path>
        </g>
    </g>
</svg>