<?xml version="1.0" encoding="UTF-8" standalone="no"?>
<svg width="31px" height="28px" viewBox="0 0 31 28" version="1.1" xmlns="http://www.w3.org/2000/svg" xmlns:xlink="http://www.w3.org/1999/xlink" xmlns:sketch="http://www.bohemiancoding.com/sketch/ns">
    <!-- Generator: Sketch 3.4 (15575) - http://www.bohemiancoding.com/sketch -->
    <title>paperclip</title>
    <desc>Created with Sketch.</desc>
    <defs></defs>
    <g id="Page-1" stroke="none" stroke-width="1" fill="none" fill-rule="evenodd" sketch:type="MSPage">
        <g id="paperclip" sketch:type="MSArtboardGroup" fill="#000000" opacity="0.15">
            <path d="M30.0502469,12.5183728 L30.1922889,12.3763318 L30.2919519,12.2019208 C30.4040739,12.0057068 30.5407219,11.7039428 30.6682229,11.3055018 C31.4883329,8.74265784 30.9046919,5.75149784 28.0502469,2.89705284 C25.2332859,0.0800918417 22.1076989,-0.350474158 19.3180779,0.661888842 C18.8134279,0.845026842 18.4333899,1.03646484 18.1945889,1.18571484 L18.0400999,1.28227084 L17.9132159,1.41299984 L1.41321586,18.4129998 L1.33725486,18.4974358 C1.14852186,18.7239158 0.903787859,19.0797998 0.664810859,19.5487908 C-0.161321141,21.1700758 -0.306952141,22.9611318 0.741885859,24.6554078 C1.06592586,25.1788568 1.49521986,25.6649688 2.02930986,26.1100448 C4.28236986,27.9875948 6.39410786,28.4549468 8.08810286,28.0065358 C8.33071086,27.9423168 8.52220786,27.8684528 8.66040686,27.7993538 L8.87812586,27.6904948 L9.05024686,27.5183728 L23.0502469,13.5183728 L23.4895869,13.0790328 L23.4895869,12.4577128 C23.4895869,11.8237568 23.3486129,10.9779128 22.9093529,10.0993918 C22.6877429,9.65617184 22.4039529,9.25075884 22.0502469,8.89705284 C21.4685219,8.31532784 20.7267799,8.03397684 19.9181699,7.99141884 C19.3166549,7.95975984 18.7215739,8.05893984 18.1409069,8.23914684 C17.8423839,8.33179184 17.6053709,8.42730484 17.4474569,8.50210584 L17.2194199,8.61012384 L17.0392739,8.78680584 L6.63927386,18.9868058 L8.73989986,21.1286198 L19.1398999,10.9286198 L18.7317169,11.2133198 C18.7701039,11.1951358 18.8791999,11.1511718 19.0301039,11.1043398 C19.3002019,11.0205158 19.5622639,10.9768388 19.7604939,10.9872718 C19.8788609,10.9935018 19.9194529,11.0088988 19.9289269,11.0183728 C20.0439709,11.1334168 20.2458489,11.1522178 20.3289269,11.3183728 C20.5224789,11.7054768 20.4895859,11.5479188 20.4895859,11.7577128 L20.4895859,11.9577128 L6.92892686,25.3970528 L7.31876686,25.1160718 C7.07586486,25.1711568 6.73705686,25.1829758 6.30119386,25.0865148 C5.60921286,24.9333708 4.82433486,24.5341078 3.94986386,23.8053808 C3.65742286,23.5616808 3.44240186,23.3182008 3.29268086,23.0763438 C2.88300186,22.4145538 2.94213286,21.6873198 3.33779986,20.9108238 C3.46503386,20.6611268 3.58651186,20.4844778 3.64191886,20.4179898 L3.56595786,20.5024258 L20.0659579,3.50242584 L19.7845849,3.72970984 C19.8544259,3.68605984 20.0488049,3.58814484 20.3414809,3.48193184 C22.1125589,2.83920184 24.0113199,3.10076584 25.9289269,5.01837284 C27.9494819,7.03892784 28.3033409,8.85245584 27.8109509,10.3911738 C27.7509519,10.5786698 27.7000999,10.6909678 27.6872219,10.7135048 L27.9289269,10.3970528 L12.9289269,25.3970528 L15.0502469,27.5183728 L30.0502469,12.5183728 L30.0502469,12.5183728 Z" id="paper-clip" sketch:type="MSShapeGroup"></path>
        </g>
    </g>
</svg>