<?xml version="1.0" encoding="UTF-8"?>
<svg width="28px" height="28px" viewBox="0 0 28 28" version="1.1" xmlns="http://www.w3.org/2000/svg" xmlns:xlink="http://www.w3.org/1999/xlink">
    <!-- Generator: Sketch 48.2 (47327) - http://www.bohemiancoding.com/sketch -->
    <title>paperclip</title>
    <desc>Created with Sketch.</desc>
    <defs></defs>
    <g id="Page-1" stroke="none" stroke-width="1" fill="none" fill-rule="evenodd">
        <g id="paperclip" fill="#50E3C2">
            <path d="M24.6130052,8.64529365 L13.3190137,23.1137534 C12.3337711,24.420582 11.0011009,25.1673413 9.32100296,25.3540311 C7.64090505,25.6029508 6.14748469,25.1984562 4.84074187,24.1405473 C3.53399905,23.0826384 2.78728887,21.7135799 2.60061132,20.0333717 C2.41393378,18.3531634 2.81840179,16.859645 3.81401537,15.5528164 L11.7478111,5.47156699 L9.69435805,3.86914618 L1.85390114,13.965953 C0.360480778,15.8328511 -0.230664783,17.9486689 0.0804644593,20.3134064 C0.329367853,22.7403738 1.38720728,24.6695018 3.25398273,26.1007903 C5.05853234,27.5320788 7.17421119,28.1543781 9.60101928,27.9676883 C12.0174564,27.6565386 13.9101593,26.5675148 15.279128,24.7006167 L26.6664582,10.232157 C27.7139267,8.86309842 28.1443221,7.30735006 27.9576446,5.56491189 C27.7087412,3.81210207 26.9049907,2.40674272 25.546393,1.34883383 C24.1774243,0.290924944 22.652891,-0.144684598 20.9727931,0.0420052058 C19.2304693,0.228695009 17.8303877,1.00656919 16.7725483,2.37562775 L5.86746837,16.3929205 C5.18298404,17.2641396 4.90296772,18.2598185 5.02741942,19.3799573 C5.15187111,20.4378662 5.6496779,21.3090853 6.52083978,21.9936146 C7.32977581,22.6781439 8.29427646,22.9581786 9.41434174,22.8337187 C10.534407,22.6470289 11.4055689,22.1491894 12.0278274,21.3402003 L19.4793727,11.8190203 L17.4259197,10.232157 L9.97437437,19.753337 C9.78769683,20.0644866 9.50768051,20.2200615 9.13432542,20.2200615 C8.76097033,20.2822914 8.41872816,20.1889465 8.10759892,19.9400268 C7.73424383,19.753337 7.54756628,19.4421873 7.54756628,19.0065777 C7.54756628,18.6331981 7.64090505,18.2909335 7.8275826,17.9797838 L18.8260013,3.96249108 C19.4482598,3.15350193 20.2883088,2.68677742 21.3461482,2.56231755 C22.3417618,2.50008762 23.2440366,2.78012232 24.0529726,3.40242167 C24.8619086,4.02472101 25.3286025,4.87001096 25.4530542,5.9382915 C25.51528,6.93397045 25.2352637,7.8363045 24.6130052,8.64529365 Z" id="Shape"></path>
        </g>
    </g>
</svg>