<?xml version="1.0" encoding="UTF-8"?>
<svg width="28px" height="28px" viewBox="0 0 28 28" version="1.1" xmlns="http://www.w3.org/2000/svg" xmlns:xlink="http://www.w3.org/1999/xlink">
    <!-- Generator: Sketch 40.2 (33826) - http://www.bohemiancoding.com/sketch -->
    <title>paperclip</title>
    <desc>Created with Sketch.</desc>
    <defs></defs>
    <g id="Page-1" stroke="none" stroke-width="1" fill="none" fill-rule="evenodd">
        <g id="paperclip" fill="#D5D5D6">
            <path d="M25.4530542,5.93790159 C25.51528,6.93351517 25.2352637,7.83578997 24.6130052,8.644726 L13.3190137,23.1122358 C12.3337711,24.4189786 11.0011009,25.1656888 9.32100296,25.3523663 C7.64090505,25.6012697 6.14748469,25.1968017 4.84074187,24.1389623 C3.53399905,23.0811229 2.78728887,21.7121542 2.60061132,20.0320563 C2.41393378,18.3519584 2.81840179,16.858538 3.81401537,15.5517952 L11.7478111,5.47120773 L9.69435805,3.86889213 L1.85390114,13.9650361 C0.360480778,15.8318115 -0.230664783,17.9474904 0.0804644593,20.3120726 C0.329367853,22.7388807 1.38720728,24.667882 3.25398273,26.0990765 C5.05853234,27.530271 7.17421119,28.1525295 9.60101928,27.965852 C12.0174564,27.6547227 13.9101593,26.5657704 15.279128,24.6989949 L26.6664582,10.2314851 C27.7139267,8.86251647 28.1443221,7.30687026 27.9576446,5.5645465 C27.7087412,3.81185177 26.9049907,2.40658469 25.546393,1.34874527 C24.1774243,0.290905842 22.652891,-0.144675098 20.9727931,0.0420024477 C19.2304693,0.228679993 17.8303877,1.0065031 16.7725483,2.37547177 L5.86746837,16.3918441 C5.18298404,17.263006 4.90296772,18.2586196 5.02741942,19.3786849 C5.15187111,20.4365243 5.6496779,21.3076862 6.52083978,21.9921705 C7.32977581,22.6766548 8.29427646,22.9566712 9.41434174,22.8322195 C10.534407,22.6455419 11.4055689,22.1477351 12.0278274,21.3387991 L19.4793727,11.8182443 L17.4259197,10.2314851 L9.97437437,19.75204 C9.78769683,20.0631692 9.50768051,20.2187338 9.13432542,20.2187338 C8.76097033,20.2809597 8.41872816,20.1876209 8.10759892,19.9387175 C7.73424383,19.75204 7.54756628,19.4409107 7.54756628,19.0053298 C7.54756628,18.6319747 7.64090505,18.2897325 7.8275826,17.9786033 L18.8260013,3.9622309 C19.4482598,3.15329487 20.2883088,2.68660101 21.3461482,2.56214931 C22.3417618,2.49992346 23.2440366,2.77993978 24.0529726,3.40219827 C24.8619086,4.02445675 25.3286025,4.86969119 25.4530542,5.93790159 L25.4530542,5.93790159 Z" id="Shape"></path>
        </g>
    </g>
</svg>