<?xml version="1.0" encoding="UTF-8" standalone="no"?>
<svg width="16px" height="16px" viewBox="0 0 16 16" version="1.1" xmlns="http://www.w3.org/2000/svg" xmlns:xlink="http://www.w3.org/1999/xlink" xmlns:sketch="http://www.bohemiancoding.com/sketch/ns">
    <!-- Generator: Sketch 3.3 (11970) - http://www.bohemiancoding.com/sketch -->
    <title>pen</title>
    <desc>Created with Sketch.</desc>
    <defs></defs>
    <g id="Page-1" stroke="none" stroke-width="1" fill="none" fill-rule="evenodd" sketch:type="MSPage">
        <g id="pen" sketch:type="MSArtboardGroup" fill="#50E3C2">
            <path d="M15.0166671,4.092262 C15.0166671,2.668452 13.7833337,1.523214 12.2500004,1.523214 C11.4333337,1.523214 10.7000004,1.848214 10.2000004,2.374405 L14.1166671,6.01131 C14.6500004,5.531548 15.0166671,4.850595 15.0166671,4.092262 L15.0166671,4.092262 L15.0166671,4.092262 Z M11.5500004,4.664881 L9.60000036,2.838691 L6.30000036,5.902976 L1.61666706,10.251786 L0.983333665,14.476786 L5.51666706,13.888691 L10.7166671,9.060119 L13.5000004,6.475595 L11.5500004,4.664881 L11.5500004,4.664881 Z M3.13333366,13.269643 L2.66666706,12.820833 L2.18333366,12.372024 L2.28333366,11.752976 L2.38333366,11.133929 C2.38333366,11.133929 2.36666706,11.118452 3.46666706,12.139881 L4.55000036,13.145833 L3.85000036,13.207738 L3.13333366,13.269643 L3.13333366,13.269643 Z" id="pen-tab-dark" sketch:type="MSShapeGroup"></path>
        </g>
    </g>
</svg>