<?xml version="1.0" encoding="utf-8"?>
<!-- Generator: Adobe Illustrator 28.0.0, SVG Export Plug-In . SVG Version: 6.00 Build 0)  -->
<svg version="1.1" id="Layer_1" xmlns="http://www.w3.org/2000/svg" xmlns:xlink="http://www.w3.org/1999/xlink" x="0px" y="0px"
	 viewBox="0 0 24 24" enable-background="new 0 0 24 24" xml:space="preserve">
<g>
	<path fill="#50E3C2" d="M13.6,15.1h5.3v-1.5h-5.3V15.1z M13.9,13.9h4.6v0.8h-4.6V13.9z"/>
	<path fill="#50E3C2" d="M13.6,16.9h5.3v-1.5h-5.3V16.9z M13.9,15.8h4.6v0.8h-4.6V15.8z"/>
	<path fill="#50E3C2" d="M13.6,18.8h5.3v-1.5h-5.3V18.8z M13.9,17.6h4.6v0.8h-4.6V17.6z"/>
	<rect x="14.2" y="14.2" fill="#50E3C2" width="0.3" height="0.3"/>
	<rect x="14.9" y="14.2" fill="#50E3C2" width="0.3" height="0.3"/>
	<rect x="15.5" y="14.2" fill="#50E3C2" width="0.3" height="0.3"/>
	<rect x="14.2" y="16" fill="#50E3C2" width="0.3" height="0.3"/>
	<rect x="14.9" y="16" fill="#50E3C2" width="0.3" height="0.3"/>
	<rect x="15.5" y="16" fill="#50E3C2" width="0.3" height="0.3"/>
	<rect x="14.2" y="17.9" fill="#50E3C2" width="0.3" height="0.3"/>
	<rect x="14.9" y="17.9" fill="#50E3C2" width="0.3" height="0.3"/>
	<rect x="15.5" y="17.9" fill="#50E3C2" width="0.3" height="0.3"/>
</g>
<g id="Page-1_00000116951813033879163840000000441237293093685384_">
	<g id="magnifier">
		<path id="search" fill-rule="evenodd" clip-rule="evenodd" fill="#50E3C2" d="M16.2,20.1c-2.1,0-3.8-1.7-3.8-3.9
			c0-2.1,1.7-3.8,3.8-3.8h0c1,0,2,0.4,2.7,1.1c0.7,0.7,1.1,1.7,1.1,2.7c0,1-0.4,2-1.1,2.7C18.2,19.7,17.2,20.1,16.2,20.1L16.2,20.1
			 M16.2,11.1L16.2,11.1c-2.9,0-5.2,2.3-5.2,5.1c0,2.8,2.3,5.2,5.1,5.2h0c0.9,0,1.8-0.3,2.6-0.7l3.1,3.1l0.1,0.1
			c0.1,0.1,0.3,0.2,0.4,0.2c0.2,0,0.3-0.1,0.4-0.2l1-1c0.2-0.2,0.2-0.6,0-0.9l-0.1-0.1l-3.1-3.1c0.4-0.8,0.7-1.6,0.7-2.6
			C21.4,13.4,19.1,11.1,16.2,11.1"/>
	</g>
</g>
<g>
	<path fill="#50E3C2" d="M10,16.2c0-3.4,2.8-6.2,6.2-6.2c0.2,0,0.5,0,0.7,0V7.5c0-0.7-0.5-1.2-1.2-1.2H8.2c-0.6,0-1.2,0.5-1.2,1.2
		v6.8c0,0.7,0.5,1.2,1.2,1.2h0.4V24h6.7v-1.6C12.2,21.9,10,19.3,10,16.2z"/>
	<path fill="#50E3C2" d="M12.2,5.4c1.5,0,2.6-1.2,2.6-2.7c0-1.5-1.2-2.7-2.6-2.7c-1.5,0-2.6,1.2-2.6,2.7C9.5,4.2,10.7,5.4,12.2,5.4z
		"/>
</g>
</svg>
