<?xml version="1.0" encoding="UTF-8"?>
<svg width="24px" height="24px" viewBox="0 0 24 24" version="1.1" xmlns="http://www.w3.org/2000/svg" xmlns:xlink="http://www.w3.org/1999/xlink">
    <!-- Generator: Sketch 40.2 (33826) - http://www.bohemiancoding.com/sketch -->
    <title>person</title>
    <desc>Created with Sketch.</desc>
    <defs></defs>
    <g id="Page-1" stroke="none" stroke-width="1" fill="none" fill-rule="evenodd">
        <g id="person" fill="#50E3C2">
            <path d="M12.1628668,5.43095879 C13.6158907,5.43095879 14.793799,4.21519733 14.793799,2.7154794 C14.793799,1.21576147 13.6158907,0 12.1628668,0 C10.7098439,0 9.53193564,1.21576147 9.53193564,2.7154794 C9.53193564,4.21519733 10.7098439,5.43095879 12.1628668,5.43095879 L12.1628668,5.43095879 L12.1628668,5.43095879 Z M15.736878,6.29268133 L8.23469088,6.29268133 C7.59359034,6.29268133 7.073956,6.82901451 7.073956,7.49019734 L7.073956,14.3361186 C7.073956,14.9980817 7.59359034,15.5336346 8.23469088,15.5336346 L8.59178201,15.5336346 L8.59178201,24 L15.242948,24 L15.242948,15.5336346 L15.736878,15.5336346 C16.3779786,15.5336346 16.8971084,14.9978216 16.8971084,14.3361186 L16.8971084,7.49019734 C16.8968561,6.82927462 16.3779786,6.29268133 15.736878,6.29268133 L15.736878,6.29268133 L15.736878,6.29268133 Z"></path>
        </g>
    </g>
</svg>