<?xml version="1.0" encoding="UTF-8" standalone="no"?>
<svg width="17px" height="17px" viewBox="0 0 17 17" version="1.1" xmlns="http://www.w3.org/2000/svg" xmlns:xlink="http://www.w3.org/1999/xlink" xmlns:sketch="http://www.bohemiancoding.com/sketch/ns">
    <!-- Generator: Sketch 3.5.2 (25235) - http://www.bohemiancoding.com/sketch -->
    <title>phone</title>
    <desc>Created with Sketch.</desc>
    <defs></defs>
    <g id="Page-1" stroke="none" stroke-width="1" fill="none" fill-rule="evenodd" sketch:type="MSPage">
        <g id="phone" sketch:type="MSArtboardGroup" fill="#50E3C2">
            <path d="M2.0487928,1.59824699 C2.69010639,0.95644817 4.62439875,0.849535615 4.63944091,1.18903555 C4.6538361,1.52837373 6.38222879,5.2926338 6.39759443,5.63197199 C6.41231311,5.97147192 5.25762516,7.12826254 4.91990441,7.46727724 C4.58541853,7.80289532 7.17833105,10.7401601 7.22733938,10.7954764 C7.28314094,10.84497 10.2136125,13.4443522 10.5482601,13.1092194 C10.8858191,12.7700429 12.0403453,11.6130906 12.3788748,11.6281327 C12.7174042,11.6431749 16.4729302,13.3754494 16.8116214,13.3901681 C17.1499891,13.4056955 17.0435618,15.3441932 16.4025717,15.9868007 C15.8555546,16.5351117 13.0206736,18.5273083 8.09088875,14.9700801 C7.55017972,14.6582384 6.69374707,13.9430079 5.39559249,12.6425889 C5.39446029,12.6417802 5.39397506,12.641295 5.39365157,12.640648 C5.39187239,12.6396776 5.39171065,12.6387071 5.3904167,12.6375749 C5.38960798,12.6366044 5.38847577,12.6357957 5.38750531,12.6345018 C5.38653485,12.633693 5.38540264,12.6327226 5.38443218,12.6317521 C4.08692459,11.3306862 3.37395856,10.4721508 3.063249,9.93079484 C-0.485083293,4.98904096 1.50209925,2.14704321 2.0487928,1.59824699 L2.0487928,1.59824699 Z" id="Shape" sketch:type="MSShapeGroup"></path>
        </g>
    </g>
</svg>