<?xml version="1.0" encoding="UTF-8"?>
<svg width="17px" height="17px" viewBox="0 0 17 17" version="1.1" xmlns="http://www.w3.org/2000/svg" xmlns:xlink="http://www.w3.org/1999/xlink">
    <!-- Generator: Sketch 42 (36781) - http://www.bohemiancoding.com/sketch -->
    <title>phone</title>
    <desc>Created with Sketch.</desc>
    <defs></defs>
    <g id="Page-1" stroke="none" stroke-width="1" fill="none" fill-rule="evenodd">
        <g id="phone" fill="#50E3C2">
            <path d="M1.98324325,1.56085655 C2.58447474,0.959170159 4.39787383,0.858939639 4.41197585,1.17722082 C4.42547134,1.49535037 6.04583949,5.02434419 6.06024478,5.34247374 C6.07404354,5.66075492 4.99152359,6.74524613 4.67491038,7.06307241 C4.36132987,7.37771436 6.79218536,10.1314001 6.83813067,10.1832591 C6.89044463,10.2296593 9.63776169,12.6665802 9.95149384,12.3523932 C10.2679554,12.0344153 11.3503237,10.9497724 11.6676951,10.9638744 C11.9850665,10.9779765 15.505872,12.6019839 15.823395,12.6157826 C16.1406148,12.6303395 16.0408392,14.4476811 15.4399109,15.0501257 C14.9270825,15.5641673 12.2693815,17.4318516 7.64770821,14.0969501 C7.14079348,13.8045985 6.33788787,13.1340699 5.12086796,11.9149271 C5.11980652,11.914169 5.11935162,11.9137141 5.11904835,11.9131075 C5.11738037,11.9121977 5.11722873,11.9112879 5.11601565,11.9102265 C5.11525748,11.9093167 5.11419604,11.9085585 5.11328623,11.9073454 C5.11237642,11.9065872 5.11131498,11.9056774 5.11040517,11.9047676 C3.8939918,10.6850183 3.22558615,9.88014142 2.93429594,9.37262016 C-0.392265587,4.7397259 1.47071804,2.07535301 1.98324325,1.56085655 L1.98324325,1.56085655 Z" id="Shape"></path>
        </g>
    </g>
</svg>