<?xml version="1.0" encoding="UTF-8" standalone="no"?>
<svg width="20px" height="20px" viewBox="0 0 20 20" version="1.1" xmlns="http://www.w3.org/2000/svg" xmlns:xlink="http://www.w3.org/1999/xlink" xmlns:sketch="http://www.bohemiancoding.com/sketch/ns">
    <!-- Generator: Sketch 3.3.2 (12043) - http://www.bohemiancoding.com/sketch -->
    <title>plus</title>
    <desc>Created with Sketch.</desc>
    <defs></defs>
    <g id="Page-1" stroke="none" stroke-width="1" fill="none" fill-rule="evenodd" sketch:type="MSPage">
        <g id="plus" sketch:type="MSArtboardGroup" fill="#50E3C2">
            <path d="M12,2 L12,1 L11,1 L10,1 L9,1 L9,2 L9,8 L3,8 L2,8 L2,9 L2,10 L2,11 L3,11 L9,11 L9,17 L9,18 L10,18 L11,18 L12,18 L12,17 L12,11 L18,11 L19,11 L19,10 L19,9 L19,8 L18,8 L12,8 L12,2 Z" id="Shape" sketch:type="MSShapeGroup"></path>
        </g>
    </g>
</svg>