<?xml version="1.0" encoding="UTF-8" standalone="no"?>
<svg width="17px" height="17px" viewBox="0 0 17 17" version="1.1" xmlns="http://www.w3.org/2000/svg" xmlns:xlink="http://www.w3.org/1999/xlink" xmlns:sketch="http://www.bohemiancoding.com/sketch/ns">
    <!-- Generator: Sketch 3.3 (11970) - http://www.bohemiancoding.com/sketch -->
    <title>plus</title>
    <desc>Created with Sketch.</desc>
    <defs></defs>
    <g id="Page-1" stroke="none" stroke-width="1" fill="none" fill-rule="evenodd" sketch:type="MSPage">
        <g id="plus" sketch:type="MSArtboardGroup" fill="#50E3C2">
            <path d="M10,1 L10,0 L9,0 L8,0 L7,0 L7,1 L7,7 L1,7 L0,7 L0,8 L0,9 L0,10 L1,10 L7,10 L7,16 L7,17 L8,17 L9,17 L10,17 L10,16 L10,10 L16,10 L17,10 L17,9 L17,8 L17,7 L16,7 L10,7 L10,1 Z" id="Shape" sketch:type="MSShapeGroup"></path>
        </g>
    </g>
</svg>