<?xml version="1.0" encoding="UTF-8"?>
<svg width="17px" height="17px" viewBox="0 0 17 17" version="1.1" xmlns="http://www.w3.org/2000/svg" xmlns:xlink="http://www.w3.org/1999/xlink">
    <!-- Generator: Sketch 40.2 (33826) - http://www.bohemiancoding.com/sketch -->
    <title>received-calls</title>
    <desc>Created with Sketch.</desc>
    <defs></defs>
    <g id="Page-1" stroke="none" stroke-width="1" fill="none" fill-rule="evenodd">
        <g id="received-calls" fill="#50E3C2">
            <polygon id="calls-in-channel-white" points="0.987654 8.407407 8 9 7.407407 1.987654 5.333333 4.061728 2.17284 1 0 3.17284 3.061728 6.333333"></polygon>
            <path d="M15.9512072,1.59824699 C15.3098936,0.95644817 13.3756012,0.849535615 13.3605591,1.18903555 C13.3461639,1.52837373 11.6177712,5.2926338 11.6024056,5.63197199 C11.5876869,5.97147192 12.7423748,7.12826254 13.0800956,7.46727724 C13.4145815,7.80289532 10.8216689,10.7401601 10.7726606,10.7954764 C10.7168591,10.84497 7.78638753,13.4443522 7.45173991,13.1092194 C7.1141809,12.7700429 5.95965469,11.6130906 5.62112523,11.6281327 C5.28259576,11.6431749 1.52706984,13.3754494 1.18837863,13.3901681 C0.850010907,13.4056955 0.956438232,15.3441932 1.59742833,15.9868007 C2.14444537,16.5351117 4.9793264,18.5273083 9.90911125,14.9700801 C10.4498203,14.6582384 11.3062529,13.9430079 12.6044075,12.6425889 C12.6055397,12.6417802 12.6060249,12.641295 12.6063484,12.640648 C12.6081276,12.6396776 12.6082894,12.6387071 12.6095833,12.6375749 C12.610392,12.6366044 12.6115242,12.6357957 12.6124947,12.6345018 C12.6134651,12.633693 12.6145974,12.6327226 12.6155678,12.6317521 C13.9130754,11.3306862 14.6260414,10.4721508 14.936751,9.93079484 C18.4850833,4.98904096 16.4979008,2.14704321 15.9512072,1.59824699 L15.9512072,1.59824699 L15.9512072,1.59824699 Z" id="Shape"></path>
        </g>
    </g>
</svg>