<?xml version="1.0" encoding="UTF-8" standalone="no"?>
<svg width="17px" height="17px" viewBox="0 0 17 17" version="1.1" xmlns="http://www.w3.org/2000/svg" xmlns:xlink="http://www.w3.org/1999/xlink" xmlns:sketch="http://www.bohemiancoding.com/sketch/ns">
    <!-- Generator: Sketch 3.3 (11970) - http://www.bohemiancoding.com/sketch -->
    <title>received-calls</title>
    <desc>Created with Sketch.</desc>
    <defs></defs>
    <g id="Page-1" stroke="none" stroke-width="1" fill="none" fill-rule="evenodd" sketch:type="MSPage">
        <g id="received-calls" sketch:type="MSArtboardGroup" fill="#50E3C2">
            <path d="M14.72112,2.110663 C12.657794,1.407238 11.626131,4.220938 11.316632,5.929255 L13.070459,7.738062 C13.070459,7.738062 13.070459,8.843444 10.594467,11.154697 C8.118476,13.465951 6.983646,13.365462 6.983646,13.365462 L4.92032,11.355676 C3.579158,11.556655 1,13.164483 1,13.164483 C1.309499,15.576225 2.96016,17.184054 5.539318,16.983075 C6.570981,16.882586 13.689457,15.375247 16.784446,7.336105 C17.403444,5.527298 16.68128,2.814088 14.72112,2.110663 L14.72112,2.110663 L14.72112,2.110663 Z M0.987654,8.407407 L8,9 L7.407407,1.987654 L5.333333,4.061728 L2.17284,1 L0,3.17284 L3.061728,6.333333 L0.987654,8.407407 L0.987654,8.407407 Z" id="calls-in-channel-white" sketch:type="MSShapeGroup"></path>
        </g>
    </g>
</svg>