<?xml version="1.0" encoding="UTF-8"?>
<svg width="16px" height="16px" viewBox="0 0 16 16" version="1.1" xmlns="http://www.w3.org/2000/svg" xmlns:xlink="http://www.w3.org/1999/xlink">
    <!-- Generator: Sketch 40.2 (33826) - http://www.bohemiancoding.com/sketch -->
    <title>reload</title>
    <desc>Created with Sketch.</desc>
    <defs></defs>
    <g id="Page-1" stroke="none" stroke-width="1" fill="none" fill-rule="evenodd">
        <g id="reload" fill="#50E3C2">
            <path d="M10.9213517,12.2100235 C10.0392381,12.8276864 9.00894406,13.1383518 7.95425898,13.1233137 C7.81524815,13.1212964 7.6766041,13.1150611 7.53961058,13.1025904 C7.48385953,13.0974555 7.42755831,13.0881025 7.37144048,13.0807668 C7.2641564,13.0673792 7.15687231,13.0527079 7.05105536,13.0318013 C6.98650152,13.0193306 6.9235982,13.003559 6.85996131,12.9881541 C6.75689524,12.9641298 6.65474611,12.9401055 6.55443091,12.9098459 C6.50583214,12.8953579 6.45888389,12.8775689 6.41120207,12.8619806 C6.2949318,12.8234684 6.17994527,12.7827555 6.067893,12.7358072 C6.04221818,12.7253539 6.01782709,12.7139836 5.99233566,12.70243 C5.86102728,12.6450284 5.73191959,12.5837756 5.60647974,12.5157373 C5.6007946,12.512803 5.59547624,12.509502 5.5897911,12.5063843 C5.16523955,12.2742106 4.77718293,11.9835349 4.43717491,11.6438936 C4.43148977,11.6378417 4.42617141,11.6316064 4.42048627,11.6261047 C4.31540289,11.5199209 4.21435412,11.4082354 4.11844031,11.2928821 C4.09790045,11.2688578 4.07901112,11.2418993 4.05865465,11.2167746 C3.36543441,10.3502493 2.94766835,9.25338416 2.94766835,8.05950486 L4.28110866,8.05950486 L2.1475308,4.86005503 L0.0143197295,8.05987164 L1.34776004,8.05987164 C1.34776004,9.46300076 1.785149,10.7630638 2.52806837,11.8381054 C2.53742134,11.853877 2.54365665,11.8692819 2.55410998,11.8839533 C2.63131784,11.994355 2.71659493,12.0954038 2.79875437,12.1995702 C2.82993094,12.2391828 2.85817325,12.2798957 2.89045017,12.3182246 C3.01240558,12.4653046 3.14151326,12.6048656 3.273922,12.7402086 C3.28620924,12.7526793 3.29849647,12.7662502 3.31151728,12.7787209 C3.75734225,13.2258296 4.26038541,13.601599 4.80890968,13.9016276 C4.82394779,13.9100636 4.83806894,13.9194166 4.85310705,13.9267523 C5.01155739,14.0120294 5.17312539,14.0894206 5.33872801,14.1611267 C5.37944094,14.1789157 5.41942031,14.1985386 5.46050003,14.2163276 C5.60226173,14.2746461 5.74622414,14.3258124 5.89183707,14.3734942 C5.96060892,14.3977019 6.02938076,14.4215428 6.09906957,14.442266 C6.22597656,14.4807783 6.35636798,14.5119549 6.48767637,14.5433148 C6.57460399,14.5631211 6.66098143,14.5851281 6.74955957,14.6027337 C6.7860545,14.6100694 6.8208989,14.6205227 6.85757722,14.6265746 C6.98136655,14.6485816 7.10533927,14.6610522 7.22876182,14.6757236 C7.27369276,14.6810419 7.31715657,14.6892945 7.36263768,14.6935125 C7.58435813,14.7153361 7.80644535,14.7300075 8.02761562,14.7300075 C9.38342971,14.7300075 10.7053163,14.3151757 11.8395934,13.5205399 C12.2010582,13.2672761 12.2896364,12.7684509 12.0352722,12.4069861 C11.781825,12.0442375 11.2818995,11.9567597 10.9213517,12.2100235 Z M13.5069898,4.2911743 C13.4965365,4.27338531 13.4892008,4.25467937 13.4767302,4.23707377 C13.3850344,4.10631556 13.285086,3.98399337 13.1849541,3.86093761 C13.1735839,3.84644967 13.1631305,3.83067799 13.1506599,3.81619006 C12.4744951,2.99551265 11.624475,2.36116111 10.6620359,1.94632932 C10.6350774,1.93495904 10.6088524,1.92248841 10.5828108,1.91093474 C10.4287618,1.84748125 10.2715952,1.79118003 10.1131449,1.73891342 C10.0557433,1.7196573 9.99962548,1.69930084 9.94222391,1.68169524 C9.80357986,1.64006535 9.66401885,1.60668808 9.52225715,1.5734942 C9.44413233,1.55588861 9.36710785,1.53589892 9.28788268,1.52031064 C9.24955384,1.51315836 9.21195856,1.5014213 9.17362972,1.49426903 C9.06836294,1.47592987 8.96309616,1.46804403 8.85672904,1.45465644 C8.78392257,1.44530347 8.71184967,1.4337498 8.63904321,1.42641414 C8.46170353,1.4097255 8.2856476,1.40257323 8.10959166,1.39982236 C8.07749814,1.39945557 8.04668835,1.39523757 8.0149616,1.39523757 C6.6441094,1.39835522 5.32424007,1.80676831 4.19143017,2.60067054 C3.82941515,2.85375095 3.74157057,3.35294288 3.99538455,3.7147745 C4.24828156,4.07660613 4.7472901,4.16463409 5.10930512,3.91100351 C5.98426643,3.29847557 7.00575763,2.98762681 8.05255688,2.99752996 C8.20257121,2.99844692 8.35075162,3.00578258 8.4972815,3.01990374 C8.54202905,3.02448853 8.5867766,3.03127401 8.63170755,3.03714255 C8.75256261,3.05163048 8.87231732,3.06831912 8.98895438,3.09124307 C9.0408542,3.10169639 9.09202046,3.11526737 9.14300332,3.12663765 C9.25872342,3.15286264 9.37426013,3.18092156 9.48686257,3.21521579 C9.52207376,3.22566911 9.55765173,3.2390567 9.59286291,3.25061037 C9.72215399,3.29279043 9.84924437,3.33827155 9.97321709,3.39035476 C9.98568772,3.39548973 9.99815834,3.40190844 10.010629,3.40686001 C10.7564826,3.72779531 11.4108238,4.22148549 11.9210193,4.83933178 C12.6481669,5.72566338 13.0806043,6.84325178 13.0815213,8.05987164 L11.747164,8.05987164 L13.8816588,11.2598716 L16.0143197,8.05987164 L14.6819798,8.05987164 C14.6808794,6.66206088 14.2466081,5.36401515 13.5069898,4.2911743 Z" id="Shape"></path>
        </g>
    </g>
</svg>