<?xml version="1.0" encoding="UTF-8" standalone="no"?>
<svg width="20px" height="20px" viewBox="0 0 20 20" version="1.1" xmlns="http://www.w3.org/2000/svg" xmlns:xlink="http://www.w3.org/1999/xlink" xmlns:sketch="http://www.bohemiancoding.com/sketch/ns">
    <!-- Generator: Sketch 3.3.2 (12043) - http://www.bohemiancoding.com/sketch -->
    <title>reload</title>
    <desc>Created with Sketch.</desc>
    <defs></defs>
    <g id="Page-1" stroke="none" stroke-width="1" fill="none" fill-rule="evenodd" sketch:type="MSPage">
        <g id="reload" sketch:type="MSArtboardGroup" fill="#50E3C2">
            <path d="M13.5325989,14.4991862 C12.439299,15.2647235 11.1623428,15.6497651 9.85515604,15.6311268 C9.68286469,15.6286265 9.51102794,15.6208984 9.34123686,15.6054422 C9.27213848,15.5990778 9.20235821,15.5874857 9.13280524,15.5783938 C8.99983632,15.5618011 8.86686741,15.5436173 8.73571687,15.5177054 C8.65570822,15.5022492 8.57774525,15.4827016 8.49887309,15.4636087 C8.37113201,15.4338327 8.24452742,15.4040568 8.1201958,15.3665527 C8.05996202,15.3485962 8.00177391,15.3265484 7.94267661,15.3072281 C7.79857013,15.2594957 7.65605473,15.2090357 7.51717608,15.1508476 C7.48535446,15.1378916 7.45512392,15.1237992 7.4235296,15.1094795 C7.26078473,15.0383354 7.10076744,14.9624181 6.94529609,14.8780908 C6.93824987,14.8744541 6.93165825,14.8703627 6.92461204,14.8664987 C6.3984188,14.5787403 5.91745773,14.2184741 5.49604855,13.7975195 C5.48900233,13.7900187 5.48241071,13.7822906 5.4753645,13.7754717 C5.34512315,13.6438665 5.21988234,13.5054425 5.10100585,13.3624725 C5.07554856,13.3326965 5.05213694,13.2992838 5.02690694,13.2681441 C4.16772317,12.1941644 3.64993993,10.8346993 3.64993993,9.3549939 L5.30261855,9.3549939 L2.65824184,5.38956533 L0.0143197295,9.3554485 L1.66699835,9.3554485 C1.66699835,11.0945001 2.20910239,12.7058106 3.12988373,14.0382273 C3.14147589,14.0577749 3.149204,14.0768679 3.16215994,14.0950517 C3.2578521,14.2318846 3.36354534,14.3571254 3.46537453,14.4862303 C3.50401507,14.5353265 3.53901885,14.5857865 3.57902318,14.6332916 C3.73017588,14.8155841 3.89019317,14.9885573 4.05430182,15.1563027 C4.06953074,15.1717589 4.08475966,15.1885789 4.10089776,15.2040351 C4.65345748,15.7581859 5.27693396,16.2239181 5.95678016,16.5957765 C5.97541854,16.6062321 5.99292043,16.6178243 6.01155881,16.6269162 C6.20794367,16.7326094 6.40819259,16.8285289 6.61344204,16.9174021 C6.66390204,16.93945 6.71345285,16.9637708 6.76436744,16.9858186 C6.94006825,17.0580992 7.11849663,17.1215151 7.29897068,17.1806124 C7.38420716,17.2106157 7.46944365,17.2401643 7.55581662,17.2658489 C7.71310635,17.3135813 7.87471472,17.3522219 8.03745958,17.3910897 C8.1451985,17.4156378 8.25225553,17.4429135 8.36204012,17.464734 C8.40727228,17.4738259 8.45045877,17.4867819 8.49591822,17.4942827 C8.6493439,17.5215583 8.80299687,17.5370146 8.95596795,17.5551983 C9.01165578,17.56179 9.06552524,17.5720183 9.12189497,17.5772462 C9.3966974,17.6042946 9.67195442,17.6224783 9.94607495,17.6224783 C11.6264838,17.6224783 13.2648427,17.1083319 14.6706765,16.1234527 C15.1186795,15.8095551 15.228464,15.1913065 14.9132027,14.7433035 C14.5990778,14.2937095 13.9794654,14.1852887 13.5325989,14.4991862 Z M18.1935572,9.3554485 C18.1921935,7.62298853 17.6539535,6.01417829 16.7372635,4.68448912 C16.7243075,4.66244128 16.7152156,4.63925696 16.6997594,4.61743642 C16.5861108,4.45537345 16.4622338,4.30376616 16.3381294,4.15124967 C16.324037,4.13329319 16.3110811,4.11374562 16.2956248,4.09578913 C15.4575797,3.07863375 14.4040568,2.29241241 13.2112006,1.77826593 C13.1777879,1.7641735 13.1452844,1.74871728 13.1130081,1.73439755 C12.9220784,1.65575269 12.7272846,1.58597242 12.5308998,1.52119269 C12.4597557,1.49732648 12.3902027,1.47209648 12.3190587,1.45027594 C12.1472219,1.39867945 11.9742487,1.35731134 11.7985479,1.31617053 C11.7017192,1.29434999 11.6062544,1.26957459 11.508062,1.25025432 C11.4605568,1.24138973 11.4139609,1.2268427 11.3664557,1.2179781 C11.2359871,1.19524837 11.1055184,1.18547459 10.973686,1.16888189 C10.883449,1.15728973 10.7941212,1.14297 10.7038841,1.13387811 C10.4840876,1.11319405 10.2658822,1.10432946 10.0476768,1.10092 C10.0078998,1.1004654 9.96971387,1.09523757 9.93039144,1.09523757 C9.92266333,1.09523757 9.91607171,1.09705594 9.9090255,1.09796513 C8.23134417,1.09910162 6.59548556,1.60529269 5.19147018,2.58926267 C4.74278532,2.90293294 4.63390992,3.52163617 4.94848937,3.97009373 C5.26193234,4.41855129 5.88040827,4.52765399 6.32909313,4.21330183 C7.41352851,3.45412887 8.67957444,3.06885996 9.97698739,3.08113402 C10.1629166,3.0822705 10.3465728,3.09136239 10.5281833,3.10886429 C10.5836439,3.11454672 10.6391044,3.12295672 10.6947922,3.13023023 C10.8445812,3.14818672 10.9930063,3.16887077 11.1375674,3.19728293 C11.2018925,3.21023888 11.2653084,3.22705888 11.3284971,3.24115131 C11.4719217,3.27365482 11.615119,3.30843131 11.7546795,3.3509359 C11.7983206,3.36389185 11.8424163,3.38048455 11.8860574,3.39480428 C12.0463019,3.44708266 12.203819,3.50345239 12.3574719,3.56800482 C12.3729282,3.57436914 12.3883844,3.58232455 12.4038406,3.58846157 C13.3282587,3.98623184 14.1392554,4.59811615 14.7715965,5.36388073 C14.7756878,5.36842668 14.7793246,5.37410911 14.7834159,5.37842776 C15.6728303,6.46240855 16.2087973,7.84755825 16.2099338,9.3554485 L14.5561187,9.3554485 L17.2016319,13.321559 L19.8448721,9.3554485 L18.1935572,9.3554485 Z" id="Shape" sketch:type="MSShapeGroup"></path>
        </g>
    </g>
</svg>