<?xml version="1.0" encoding="UTF-8"?>
<svg width="68px" height="47px" viewBox="0 0 68 47" version="1.1" xmlns="http://www.w3.org/2000/svg" xmlns:xlink="http://www.w3.org/1999/xlink">
    <!-- Generator: Sketch 40.2 (33826) - http://www.bohemiancoding.com/sketch -->
    <title>reopening</title>
    <desc>Created with Sketch.</desc>
    <defs></defs>
    <g id="Page-1" stroke="none" stroke-width="1" fill="none" fill-rule="evenodd">
        <g id="reopening">
            <path d="M39.3,18.7 L40.1,18.7 L60.4,18.7 C64,18.7 66.8,21 67.7,24.4 C67.8,25 67.9,25.5 67.9,26.1 L67.9,39.9 C67.9,43.3 65.1,46.3 61.8,46.8 C61.4,46.9 61,46.9 60.6,46.9 L38.7,46.9 C35,46.9 32,44.4 31.4,40.8 C31.3,40.3 31.3,39.9 31.3,39.4 L31.3,26.2 C31.3,23.8 32.2,21.9 34.1,20.4 C34.4,20.2 34.4,20 34.4,19.7 L34.4,11.5 C34.4,6.1 38.1,1.5 43.3,0.3 C44.1,0.1 44.9,0 45.7,0 L53.6,0 C59.8,0 65,5.2 64.9,11.5 C64.9,12.9 63.8,14 62.5,14 C61.1,14.1 59.9,13.1 59.8,11.8 C59.7,10.7 59.6,9.6 59.1,8.6 C57.9,6.5 56.2,5.3 53.8,5.3 C51,5.2 48.2,5.2 45.4,5.3 C42.7,5.3 40,7.7 39.8,10.4 C39.2,13 39.3,15.9 39.3,18.7 Z M47.2,30.7 C47.4,31.4 47.3,32.1 47.1,32.7 C46.9,33.5 46.7,34.2 46.5,35 C46.3,35.5 46.5,36 46.8,36.3 C48.5,37.8 50.2,37.9 51.9,36.2 C52.2,35.9 52.3,35.5 52.2,35 C51.9,34 51.6,32.9 51.4,31.9 C51.3,31.6 51.4,31.3 51.4,31.1 C52,29.7 50.9,28.1 49.4,28.1 C48,28.1 46.8,29.4 47.2,30.7 Z" id="Color-Lock" fill="#50E3C2"></path>
            <path d="M20.8,18.3 C20.5,17.2 20,16.4 19,15.8 L19,11 L18.7,11 C18.7,7 16.1,4.4 12.5,4.4 L8.1,4.4 C7.6,4.4 7.3,4.4 6.8,4.5 C3.8,5.2 1.7,7.8 1.7,10.9 L1.7,15.6 C1.7,15.8 1.7,15.9 1.5,16 C0.5,16.9 0,18 0,19.3 L0,26.8 C0,27.1 0,27.3 0.1,27.6 C0.5,29.7 2.1,31.1 4.2,31.1 L16.7,31.1 C16.9,31.1 17.2,31.1 17.4,31 C19.3,30.7 20.9,29 20.9,27.1 C21,24.5 21,21.9 21,19.3 C21,19 20.9,18.6 20.8,18.3 L20.8,18.3 L20.8,18.3 Z M4.9,10.2 C5,8.7 6.6,7.4 8.1,7.3 L12.9,7.3 C14.3,7.3 15.3,8.2 15.9,9.4 C16.2,9.9 16.2,11 16.3,11 L16.2624285,15.0986107 C16.2624285,15.0986107 8.74214585,15 5.3,15 L4.8,15 C4.8,13 4.8,11.8 4.9,10.2 Z M12,25.1 C11,26 10.1,26 9.1,25.1 C8.9,24.9 8.8,24.7 8.9,24.3 C9,23.9 9.1,23.4 9.2,23 C9.3,22.6 9.4,22.3 9.2,21.9 C9,21.1 9.6,20.4 10.4,20.4 C11.3,20.4 11.9,21.3 11.6,22.1 C11.6,22.2 11.5,22.4 11.6,22.6 C11.7,23.2 11.9,23.8 12,24.4 C12.2,24.6 12.2,24.9 12,25.1 L12,25.1 L12,25.1 Z" id="Small-Lock" fill="#A9BCC4" opacity="0.4"></path>
            <path d="M19.9439024,41 L10,41 L10,34 L11,34 L11,40 L19.4825,40 L17.7,36.9 L27.6,40.9 L17.7,45 L19.9439024,41 Z" id="Arrow" fill="#A9BCC4"></path>
        </g>
    </g>
</svg>