<?xml version="1.0" encoding="utf-8"?>
<svg version="1.1" xmlns="http://www.w3.org/2000/svg" xmlns:xlink="http://www.w3.org/1999/xlink" viewBox="0 0 29 24" style="enable-background:new 0 0 29 24;" xml:space="preserve">
  <path fill-rule="evenodd" clip-rule="evenodd" fill="#50E3C2" d="M11.1,11.1c1.3-3,2.6-6.1,4.6-8.8c1.4-1.9,1.3-1.7,2.6-0.1c3.2,4.1,6.1,8.4,7.9,13.3c0,0.1,0.1,0.3,0.1,0.4 c-0.6-1-1.2-2.1-1.8-3.1c-1.3-2.1-2.6-4.1-4.4-5.8c-0.4-0.4-0.8-0.7-1.3-1c-1.1-0.7-2.2-0.7-3.2,0.1c-1.6,1.2-2.8,2.7-4,4.3 C11.4,10.7,11.3,10.9,11.1,11.1z M20.4,13.8c0.5,1.6,1,3.1,1,4.8c0,0.7-0.3,1.3-0.9,1.8c-0.7,0.6-1.6,0.9-2.5,1.1 c-2.4,0.6-4.8,0.7-7.2,0.7c-1.2,0-2.4,0-3.6-0.1c2.2,0.4,4.4,0.7,6.6,0.8c2.2,0.1,4.5-0.1,6.7-0.2c1.3-0.1,2.6-0.2,3.9-0.5 c0.5-0.1,0.6-0.3,0.5-0.7c-0.1-0.7-0.4-1.3-0.7-1.9c-1.3-2.8-3-5.3-4.8-7.8C19.9,12.5,20.2,13.1,20.4,13.8z M10.7,2.2 c-0.1,0.1-0.2,0.3-0.4,0.4C8,5.6,6.2,9,4.6,12.5c-0.7,1.5-1.4,3-1.9,4.6c-0.1,0.5,0,0.7,0.5,0.8c0.6,0.2,1.3,0.3,2,0.3 c2.4,0.1,4.7,0,7.1-0.3c0.7-0.1,1.4-0.1,2.1-0.3c-0.9,0-1.7-0.1-2.6-0.3c-1.5-0.2-2.9-0.5-4.2-1.2c-0.9-0.5-1.3-1.2-1.4-2.3 c0-0.8,0.1-1.5,0.3-2.2c0.7-2.9,2.1-5.5,3.5-8C10.2,3.1,10.5,2.7,10.7,2.2C10.7,2.2,10.7,2.2,10.7,2.2z" />
</svg>
