<?xml version="1.0" encoding="UTF-8"?>
<svg width="18px" height="14px" viewBox="0 0 18 14" version="1.1" xmlns="http://www.w3.org/2000/svg" xmlns:xlink="http://www.w3.org/1999/xlink">
    <!-- Generator: Sketch 40.2 (33826) - http://www.bohemiancoding.com/sketch -->
    <title>searchdetail</title>
    <desc>Created with Sketch.</desc>
    <defs></defs>
    <g id="Page-1" stroke="none" stroke-width="1" fill="none" fill-rule="evenodd">
        <g id="searchdetail" fill="#50E3C2">
            <path d="M13.2097264,8.62000012 C12.3275246,8.61422004 11.614616,7.89207056 11.6200305,7.00952369 C11.6265279,6.13347943 12.3426852,5.42000008 13.2194725,5.42000008 L13.2299405,5.42000008 C13.6566027,5.42252886 14.0569144,5.59195763 14.3565165,5.89613465 C14.6564796,6.19958916 14.8203583,6.60311141 14.8178315,7.03047651 C14.8142219,7.45531282 14.6474554,7.85558377 14.3456875,8.15506447 C14.0446416,8.45490642 13.6439689,8.62000012 13.2201944,8.62000012 L13.2097264,8.62000012 M10.0000488,6.95269288 C9.99044948,8.7054343 11.3988803,10.1347405 13.1502196,10.1459486 C13.7533757,10.1459486 14.2994693,9.98903452 14.7677019,9.71363422 L16.694495,11.6430375 L16.7435581,11.690005 C16.8166194,11.7631248 16.9115459,11.7994179 17.0070056,11.7994179 C17.1024653,11.7994179 17.197925,11.7631248 17.2704531,11.690005 L17.8912079,11.0703543 C18.036264,10.9241146 18.036264,10.687676 17.8912079,10.5425037 L17.8426781,10.4928676 L15.9132185,8.56293066 C16.1825323,8.10072784 16.3371877,7.56593889 16.3409207,6.99325571 C16.3537198,5.24051429 14.9420892,3.81174183 13.1907499,3.79999995 C11.4298114,3.79999995 10.0117813,5.20688984 10.0000488,6.95269288 Z" id="search" opacity="0.5"></path>
            <path d="M0,1 C0,0.44771525 0.448920205,0 1.00748397,0 L13.992516,0 C14.5489341,0 15,0.443864822 15,1 C15,1.55228475 14.5510798,2 13.992516,2 L1.00748397,2 C0.45106594,2 0,1.55613518 0,1 Z M0,5 C0,4.44771525 0.446311399,4 0.997544646,4 L8.00245535,4 C8.55338405,4 9,4.44386482 9,5 C9,5.55228475 8.5536886,6 8.00245535,6 L0.997544646,6 C0.446615951,6 0,5.55613518 0,5 Z M0,9 C0,8.44771525 0.446311399,8 0.997544646,8 L8.00245535,8 C8.55338405,8 9,8.44386482 9,9 C9,9.55228475 8.5536886,10 8.00245535,10 L0.997544646,10 C0.446615951,10 0,9.55613518 0,9 Z M0,13 C0,12.4477153 0.448920205,12 1.00748397,12 L13.992516,12 C14.5489341,12 15,12.4438648 15,13 C15,13.5522847 14.5510798,14 13.992516,14 L1.00748397,14 C0.45106594,14 0,13.5561352 0,13 Z" id="Combined-Shape"></path>
        </g>
    </g>
</svg>