<?xml version="1.0" encoding="UTF-8"?>
<svg width="24px" height="24px" viewBox="0 0 24 24" version="1.1" xmlns="http://www.w3.org/2000/svg" xmlns:xlink="http://www.w3.org/1999/xlink">
    <title>search</title>
    <defs></defs>
    <g id="Page-1" stroke="none" stroke-width="1" fill="none" fill-rule="evenodd">
        <g id="search" fill="#50E3C2">
            <path d="M10.4724 16.9448C11.878 16.9448 13.1741 16.4903 14.2346 15.7328L18.2241 19.7223C18.4093 19.9074 18.6533 20 18.9143 20C19.4613 20 19.8485 19.5792 19.8485 19.0405C19.8485 18.788 19.7643 18.5439 19.5792 18.3672L15.6149 14.3945C16.4482 13.3004 16.9448 11.9453 16.9448 10.4724C16.9448 6.91215 14.0326 4 10.4724 4C6.92057 4 4 6.90373 4 10.4724C4 14.0326 6.91215 16.9448 10.4724 16.9448ZM10.4724 15.5476C7.6949 15.5476 5.39716 13.2499 5.39716 10.4724C5.39716 7.6949 7.6949 5.39716 10.4724 5.39716C13.2499 5.39716 15.5476 7.6949 15.5476 10.4724C15.5476 13.2499 13.2499 15.5476 10.4724 15.5476Z" id="Search"></path>
        </g>
    </g>
</svg>
