<?xml version="1.0" encoding="UTF-8"?>
<svg width="20px" height="20px" viewBox="0 0 20 20" version="1.1" xmlns="http://www.w3.org/2000/svg" xmlns:xlink="http://www.w3.org/1999/xlink">
  <path fill="#50E3C2" d="M12.9,4.2l2.5-2.5L16,2.3l-2.5,2.5L12.9,4.2z M19.8,5.1l-3.4,3.4l0.2,0.2c0.4,0.4,0.4,0.9,0,1.3l-9.7,9.7 c-0.4,0.4-0.9,0.4-1.3,0l-5.3-5.3c-0.4-0.4-0.4-0.9,0-1.3L10,3.4c0.4-0.4,0.9-0.4,1.3,0l0.2,0.2l3.4-3.4c0.2-0.2,0.6-0.2,0.8,0 l4.1,4.1C20.1,4.5,20.1,4.9,19.8,5.1z M5.5,15.5c0-0.6-0.5-1-1-1c-0.6,0-1,0.5-1,1s0.5,1,1,1C5.1,16.5,5.5,16,5.5,15.5z M12.6,9.9 c0-1.3-1.1-2.4-2.4-2.4c-1.3,0-2.4,1.1-2.4,2.4c0,1.3,1.1,2.4,2.4,2.4C11.5,12.3,12.6,11.2,12.6,9.9z M19.1,4.7l-3.8-3.8L12,4.2 l1.5,1.5L15.8,8L19.1,4.7z M15.8,7.1l2.5-2.5l-0.6-0.6l-2.5,2.5L15.8,7.1z" />
</svg>
