<?xml version="1.0" encoding="UTF-8"?>
<svg width="17px" height="17px" viewBox="0 0 17 17" version="1.1" xmlns="http://www.w3.org/2000/svg" xmlns:xlink="http://www.w3.org/1999/xlink">
    <!-- Generator: Sketch 52.2 (67145) - http://www.bohemiancoding.com/sketch -->
    <title>sms</title>
    <desc>Created with Sketch.</desc>
    <g id="sms" stroke="none" stroke-width="1" fill="none" fill-rule="evenodd">
        <path d="M7.61649155,13.9230946 L3.25,16.75 L3.9643919,12.9032744 C1.58206933,11.6887873 0,9.54580983 0,7.10483871 C0,3.31901583 3.80557963,0.25 8.5,0.25 C13.1944204,0.25 17,3.31901583 17,7.10483871 C17,10.8906616 13.1944204,13.9596774 8.5,13.9596774 C8.20165766,13.9596774 7.90690529,13.9472819 7.61649155,13.9230946 Z M3.90593799,4.675 C2.92222806,4.675 2.19810825,5.19679314 2.19810825,6.01293113 C2.19810825,6.70196567 2.58749343,7.13010363 3.64634787,7.4512071 C4.33631109,7.65858643 4.51392538,7.81244851 4.51392538,8.15362095 C4.51392538,8.5081727 4.22700998,8.72224168 3.76248029,8.72224168 C3.29111929,8.72224168 2.91539674,8.55500029 2.56699947,8.2673451 L2,8.87610376 C2.38938518,9.24403482 2.97687861,9.53837967 3.79663689,9.53837967 C4.97845507,9.53837967 5.67524961,8.93631066 5.67524961,8.07334508 C5.67524961,7.21706916 5.16290068,6.85582775 4.2679979,6.57486221 C3.53021545,6.34741392 3.35260116,6.22700012 3.35260116,5.93265527 C3.35260116,5.63831042 3.59852864,5.47775868 3.98791382,5.47775868 C4.37046768,5.47775868 4.69837099,5.60486214 5.0262743,5.86575871 L5.54545455,5.27037935 C5.12874409,4.88237933 4.6300578,4.675 3.90593799,4.675 Z M10.6347872,4.78872415 L9.21387283,4.78872415 L8.55123489,7.93286231 L7.84077772,4.78872415 L6.42669469,4.78872415 L6.07146611,9.42465553 L7.16447714,9.42465553 L7.24645297,7.62513815 C7.27377824,6.97624155 7.27377824,6.40093116 7.22595901,5.71858629 L8.00472937,8.93631066 L9.06358382,8.93631066 L9.79453494,5.71858629 C9.76037835,6.29389667 9.77404099,6.96286224 9.80819758,7.61175884 L9.89017341,9.42465553 L10.9900158,9.42465553 L10.6347872,4.78872415 Z M13.2306884,4.675 C12.2469785,4.675 11.5228586,5.19679314 11.5228586,6.01293113 C11.5228586,6.70196567 11.9122438,7.13010363 12.9710983,7.4512071 C13.6610615,7.65858643 13.8386758,7.81244851 13.8386758,8.15362095 C13.8386758,8.5081727 13.5517604,8.72224168 13.0872307,8.72224168 C12.6158697,8.72224168 12.2401471,8.55500029 11.8917499,8.2673451 L11.3247504,8.87610376 C11.7141356,9.24403482 12.301629,9.53837967 13.1213873,9.53837967 C14.3032055,9.53837967 15,8.93631066 15,8.07334508 C15,7.21706916 14.4876511,6.85582775 13.5927483,6.57486221 C12.8549658,6.34741392 12.6773516,6.22700012 12.6773516,5.93265527 C12.6773516,5.63831042 12.923279,5.47775868 13.3126642,5.47775868 C13.6952181,5.47775868 14.0231214,5.60486214 14.3510247,5.86575871 L14.8702049,5.27037935 C14.4534945,4.88237933 13.9548082,4.675 13.2306884,4.675 Z" id="sms-bubble" fill="#50E3C2"></path>
    </g>
</svg>