<?xml version="1.0" encoding="UTF-8"?>
<svg width="15px" height="15px" viewBox="0 0 15 15" version="1.1" xmlns="http://www.w3.org/2000/svg" xmlns:xlink="http://www.w3.org/1999/xlink">
    <!-- Generator: Sketch 52.2 (67145) - http://www.bohemiancoding.com/sketch -->
    <title>spinner-small</title>
    <desc>Created with Sketch.</desc>
    <g id="spinner-small" stroke="none" stroke-width="1" fill="none" fill-rule="evenodd">
        <path d="M6.875,0.625 C6.875,0.279822031 7.15482203,0 7.5,0 C7.84517797,0 8.125,0.279822031 8.125,0.625 L8.125,3.125 C8.125,3.47017797 7.84517797,3.75 7.5,3.75 C7.15482203,3.75 6.875,3.47017797 6.875,3.125 L6.875,0.625 Z" id="Path" fill-opacity="0.35" fill="#50E3C2" fill-rule="nonzero"></path>
        <path d="M10.8524756,2.27252436 C10.8524756,1.92734639 11.1322977,1.64752436 11.4774756,1.64752436 C11.8226536,1.64752436 12.1024756,1.92734639 12.1024756,2.27252436 L12.1024756,4.77252436 C12.1024756,5.11770232 11.8226536,5.39752436 11.4774756,5.39752436 C11.1322977,5.39752436 10.8524756,5.11770232 10.8524756,4.77252436 L10.8524756,2.27252436 Z" id="Path" fill-opacity="0.16" fill="#50E3C2" fill-rule="nonzero" transform="translate(11.477476, 3.522524) rotate(45.000000) translate(-11.477476, -3.522524) "></path>
        <path d="M12.5,6.25 C12.5,5.90482203 12.779822,5.625 13.125,5.625 C13.470178,5.625 13.75,5.90482203 13.75,6.25 L13.75,8.75 C13.75,9.09517797 13.470178,9.375 13.125,9.375 C12.779822,9.375 12.5,9.09517797 12.5,8.75 L12.5,6.25 Z" id="Path" fill-opacity="0" fill="#50E3C2" fill-rule="nonzero" transform="translate(13.125000, 7.500000) rotate(90.000000) translate(-13.125000, -7.500000) "></path>
        <path d="M10.8524756,10.2274756 C10.8524756,9.88229768 11.1322977,9.60247564 11.4774756,9.60247564 C11.8226536,9.60247564 12.1024756,9.88229768 12.1024756,10.2274756 L12.1024756,12.7274756 C12.1024756,13.0726536 11.8226536,13.3524756 11.4774756,13.3524756 C11.1322977,13.3524756 10.8524756,13.0726536 10.8524756,12.7274756 L10.8524756,10.2274756 Z" id="Path" fill="#50E3C2" fill-rule="nonzero" transform="translate(11.477476, 11.477476) rotate(135.000000) translate(-11.477476, -11.477476) "></path>
        <path d="M6.875,11.875 C6.875,11.529822 7.15482203,11.25 7.5,11.25 C7.84517797,11.25 8.125,11.529822 8.125,11.875 L8.125,14.375 C8.125,14.720178 7.84517797,15 7.5,15 C7.15482203,15 6.875,14.720178 6.875,14.375 L6.875,11.875 Z" id="Path" fill-opacity="0.91" fill="#50E3C2" fill-rule="nonzero" transform="translate(7.500000, 13.125000) rotate(180.000000) translate(-7.500000, -13.125000) "></path>
        <path d="M2.89752436,10.2274756 C2.89752436,9.88229768 3.17734639,9.60247564 3.52252436,9.60247564 C3.86770232,9.60247564 4.14752436,9.88229768 4.14752436,10.2274756 L4.14752436,12.7274756 C4.14752436,13.0726536 3.86770232,13.3524756 3.52252436,13.3524756 C3.17734639,13.3524756 2.89752436,13.0726536 2.89752436,12.7274756 L2.89752436,10.2274756 Z" id="Path" fill-opacity="0.8" fill="#50E3C2" fill-rule="nonzero" transform="translate(3.522524, 11.477476) rotate(225.000000) translate(-3.522524, -11.477476) "></path>
        <path d="M1.25,6.25 C1.25,5.90482203 1.52982203,5.625 1.875,5.625 C2.22017797,5.625 2.5,5.90482203 2.5,6.25 L2.5,8.75 C2.5,9.09517797 2.22017797,9.375 1.875,9.375 C1.52982203,9.375 1.25,9.09517797 1.25,8.75 L1.25,6.25 Z" id="Path" fill-opacity="0.67" fill="#50E3C2" fill-rule="nonzero" transform="translate(1.875000, 7.500000) rotate(270.000000) translate(-1.875000, -7.500000) "></path>
        <path d="M2.89752436,2.27252436 C2.89752436,1.92734639 3.17734639,1.64752436 3.52252436,1.64752436 C3.86770232,1.64752436 4.14752436,1.92734639 4.14752436,2.27252436 L4.14752436,4.77252436 C4.14752436,5.11770232 3.86770232,5.39752436 3.52252436,5.39752436 C3.17734639,5.39752436 2.89752436,5.11770232 2.89752436,4.77252436 L2.89752436,2.27252436 Z" id="Path" fill-opacity="0.52" fill="#50E3C2" fill-rule="nonzero" transform="translate(3.522524, 3.522524) rotate(315.000000) translate(-3.522524, -3.522524) "></path>
    </g>
</svg>