<?xml version="1.0" encoding="UTF-8"?>
<svg width="16px" height="16px" viewBox="0 0 16 16" version="1.1" xmlns="http://www.w3.org/2000/svg" xmlns:xlink="http://www.w3.org/1999/xlink">
    <!-- Generator: Sketch 40.2 (33826) - http://www.bohemiancoding.com/sketch -->
    <title>split</title>
    <desc>Created with Sketch.</desc>
    <defs></defs>
    <g id="Page-1" stroke="none" stroke-width="1" fill="none" fill-rule="evenodd">
        <g id="split" fill="#50E3C2">
            <path d="M4.44274599,7.21806489 C4.41024816,7.24468267 4.76798133,6.95277156 4.86223813,6.87472533 C6.4156106,5.58851644 7.00000005,4.51402489 7,2 L9,2 C9.00000009,4.51402489 9.58438951,5.58851556 11.1377619,6.87472533 C11.2320188,6.95277067 11.5897519,7.24468267 11.5572541,7.21806489 C13.2938892,8.64044 13.9999999,9.77255378 14,12 L10,12 L13,15.3333333 L16,12 L14,12 L12,12 C11.9999999,10.4739262 11.607247,9.84422133 10.2899828,8.765328 C10.3277604,8.79626933 9.96299413,8.49861956 9.86223813,8.41519289 C8.94522347,7.65589422 8.5,7.5 8,6.4 C7.5,7.5 7.0547766,7.65589422 6.13776187,8.41519289 C6.03700589,8.49861956 5.67223971,8.79627022 5.71001736,8.76532889 C4.39275298,9.84422133 4.0000001,10.4739262 4,12 L2,12 L6,12 L3,15.3333333 L0,12 L1.99999994,12 C2.00000017,9.77255378 2.70611078,8.64044 4.44274599,7.21806489 Z"></path>
        </g>
    </g>
</svg>