<?xml version="1.0" encoding="utf-8"?>
<svg version="1.1" xmlns="http://www.w3.org/2000/svg" xmlns:xlink="http://www.w3.org/1999/xlink" viewBox="0 0 29 24" style="enable-background:new 0 0 29 24;" xml:space="preserve">
  <g transform="matrix(0.33139046,0,0,0.33139046,-6.8223822,-15.05759)" fill-rule="evenodd" clip-rule="evenodd" fill="#50E3C2">
    <path d="M32.1,83.2c0-1.4,1.1-2.5,2.8-2.5c1.4,0,2.5,1.1,2.5,2.5c0,1.4-1.1,2.5-2.5,2.5 C33.2,85.7,32.1,84.6,32.1,83.2z M50.7,79.3c0-1.1,0.8-2,2-2s2,0.8,2,2c0,1.1-0.8,1.7-2,1.7S50.7,80.4,50.7,79.3z M44.2,79.3 c0-0.6,0.6-1.1,1.4-1.1c0.6,0,1.1,0.6,1.1,1.1c0,0.6-0.6,1.1-1.1,1.1C44.7,80.4,44.2,79.8,44.2,79.3z M59.7,80.9 c-0.8,0-1.7-0.6-1.7-1.7c0-1.1,0.8-2,1.7-2c1.1,0,2,0.8,2,2C61.7,80.4,60.8,80.9,59.7,80.9z M52.6,85.7c-0.6,0-1.1-0.6-1.1-1.1 c0-0.8,0.6-1.4,1.1-1.4c0.6,0,1.1,0.6,1.1,1.4C53.8,85.2,53.2,85.7,52.6,85.7z M70.1,81.8c0-2.3,0.6-4.5,1.1-6.5 c0.6-1.1,0.8-2.3,1.4-3.1h-7.3c-0.6,0-0.8,0.6-0.8,1.1v2H34.3c-4.2,0-8.2,2.3-10.7,6.5c2.5,3.9,6.5,6.2,10.7,6.2h30.2v2.3 c0,0.6,0.3,0.8,0.8,0.8h7.3c-0.6-0.8-0.8-2-1.4-3.1C70.7,86,70.1,84,70.1,81.8z" />
    <path d="M96.9,81.8c0,2-2,3.9-3.9,3.9c-2.3,0-4.2-2-4.2-3.9c0-2.3,2-3.9,4.2-3.9 C94.9,77.8,96.9,79.5,96.9,81.8z M105.1,81.8c0-9.3-7.3-16.6-16.4-16.6c-6.2,0-11.6,3.4-14.4,8.2c-1.4,2.5-2.3,5.4-2.3,8.5 c0,2.8,0.8,5.6,2.3,8.2c2.8,4.8,8.2,8.2,14.4,8.2C97.7,98.1,105.1,90.8,105.1,81.8z"/>
  </g>
</svg>
