<?xml version="1.0" encoding="utf-8"?>
<!-- Generator: Adobe Illustrator 28.0.0, SVG Export Plug-In . SVG Version: 6.00 Build 0)  -->
<svg version="1.1" id="Layer_1" xmlns="http://www.w3.org/2000/svg" xmlns:xlink="http://www.w3.org/1999/xlink" x="0px" y="0px"
	 viewBox="0 0 22 22" enable-background="new 0 0 22 22" xml:space="preserve">
<g id="Page-1_00000110471166029288193010000006119356663458763942_">
	<g id="cog_00000086677487039859424120000000744549554988076211_">
		<g>
			<path fill-rule="evenodd" clip-rule="evenodd" fill="#50E3C2" d="M9.7,20.7l0-0.6c0,0-0.6,0-0.6,0c-0.3,0-0.5,0-0.8-0.1
				c-0.4-0.2-0.8-0.5-1-1l-0.1-0.1H4.1c-0.5,0-1-0.4-1-0.8c0-0.4,0.4-0.8,1-0.8h2.6c-0.3-0.7-0.1-1.5,0.5-2l0.5-0.4l-0.5-0.4
				C7.1,14.4,7,14.3,7,14.1H4.1c-0.5,0-1-0.4-1-0.8c0-0.4,0.4-0.8,1-0.8h2.7c0,0,0-0.1,0-0.1l0.7-1.7c0.3-0.7,0.9-1.1,1.6-1.1
				c0,0,0-0.3,0-0.3H4.1c-0.5,0-1-0.4-1-0.8c0-0.4,0.4-0.8,1-0.8h6.3c0.2-0.2,0.4-0.4,0.6-0.5l1.7-0.7c0.2-0.1,0.4-0.1,0.7-0.1
				c0.2,0,0.5,0,0.7,0.1c0.2,0.1,0.5,0.3,0.6,0.5l0.4,0.5l0.4-0.5c0.3-0.4,0.8-0.6,1.3-0.6c0.2,0,0.5,0,0.7,0.1l1.3,0.6V1
				c0-0.6-0.4-1-1-1H1C0.4,0,0,0.4,0,1v20c0,0.6,0.4,1,1,1h9.2C9.9,21.7,9.7,21.2,9.7,20.7z M4.2,3.1h7.3c0.6,0,1,0.4,1,0.8
				c0,0.4-0.5,0.8-1,0.8H4.2c-0.6,0-1-0.4-1-0.8C3.1,3.5,3.6,3.1,4.2,3.1z"/>
		</g>
		
			<path id="Shape_00000064342635161097631330000011320259657480137353_" fill-rule="evenodd" clip-rule="evenodd" fill="#50E3C2" d="
			M21.8,16.6l-0.8-0.7c-0.2-0.2-0.3-0.4-0.3-0.7l0,0l0,0c0-0.3,0.1-0.6,0.3-0.7l0.8-0.7c0.1-0.1,0.2-0.3,0.1-0.4l-0.7-1.7
			c0-0.1-0.1-0.2-0.2-0.2c-0.1,0-0.1,0-0.2,0l-1,0c-0.2,0-0.3,0-0.4-0.1c-0.1-0.1-0.2-0.1-0.3-0.2l0,0c-0.2-0.2-0.3-0.5-0.3-0.8
			l0.1-1c0-0.2-0.1-0.3-0.2-0.4L17,8.1c-0.2-0.1-0.3,0-0.4,0.1l-0.7,0.8c-0.2,0.2-0.5,0.3-0.8,0.3c-0.1,0-0.3,0-0.4-0.1
			c-0.1-0.1-0.3-0.2-0.4-0.3l-0.7-0.8c0,0-0.1-0.1-0.1-0.1c-0.1,0-0.2,0-0.3,0l-1.7,0.7c-0.2,0.1-0.3,0.2-0.2,0.4l0,1
			c0,0.3-0.1,0.6-0.3,0.8l0,0c-0.2,0.2-0.5,0.3-0.8,0.3l-1-0.1c-0.2,0-0.3,0.1-0.4,0.2L8.1,13c-0.1,0.2,0,0.3,0.1,0.4l0.8,0.7
			c0.2,0.2,0.3,0.5,0.3,0.7l0,0.1c0,0.3-0.1,0.5-0.3,0.7l-0.8,0.7C8,16.5,8,16.6,8,16.8l0.7,1.7c0,0.1,0.1,0.2,0.2,0.2
			c0.1,0,0.1,0,0.2,0l1,0c0.1,0,0.3,0,0.4,0.1c0.1,0.1,0.2,0.1,0.3,0.2l0,0c0.2,0.2,0.3,0.5,0.3,0.7l-0.1,1c0,0.2,0.1,0.3,0.2,0.4
			l1.7,0.7c0.2,0.1,0.3,0,0.4-0.1l0.7-0.8c0.2-0.2,0.5-0.3,0.8-0.3l0,0c0.1,0,0.3,0,0.4,0.1c0.1,0.1,0.3,0.1,0.4,0.3l0.7,0.8
			c0,0,0.1,0.1,0.1,0.1c0.1,0,0.2,0,0.3,0l1.7-0.7c0.2-0.1,0.3-0.2,0.2-0.4l0-1c0-0.3,0.1-0.5,0.3-0.7l0,0l0,0
			c0.2-0.2,0.5-0.3,0.8-0.3l1,0.1c0.2,0,0.3-0.1,0.4-0.2l0.7-1.7C22,16.8,21.9,16.7,21.8,16.6L21.8,16.6z M14.2,16.9
			c-1.1-0.5-1.5-1.7-1.1-2.7c0.5-1.1,1.7-1.5,2.7-1.1c1.1,0.5,1.5,1.7,1.1,2.7C16.5,16.9,15.2,17.4,14.2,16.9L14.2,16.9z"/>
	</g>
</g>
</svg>
