<?xml version="1.0" encoding="UTF-8"?>
<svg width="77px" height="83px" viewBox="0 0 77 83" version="1.1" xmlns="http://www.w3.org/2000/svg" xmlns:xlink="http://www.w3.org/1999/xlink">
    <!-- Generator: Sketch 40.2 (33826) - http://www.bohemiancoding.com/sketch -->
    <title>stopwatch</title>
    <desc>Created with Sketch.</desc>
    <defs></defs>
    <g id="Page-1" stroke="none" stroke-width="1" fill="none" fill-rule="evenodd">
        <g id="stopwatch">
            <path d="M10.5,24.8 C9.5,23.9 8.4,22.9 7.5,22 L13.7,15.8 C14.5,16.7 15.4,17.7 16.3,18.7 C17.1,18.1 17.7,17.6 18.3,17.2 C22.2,14.3 26.5,12.3 31.2,11.2 C31.9,11 32.1,10.8 32.1,10.1 C32,8.4 32.1,6.7 32.1,4.9 L47.5,4.9 L47.5,10.9 C60.3,14.2 69.4,21.8 74,34.1 C77.6,43.7 77,53.3 72.6,62.5 C63.7,81.1 41.2,88.4 22.7,78.7 C3.7,68.8 -3.2,43.3 10.5,24.8 Z M40.0481625,75 C55.1817335,75 67.6921523,62.8930829 67.9948237,47.5576545 C68.2974951,31.4150983 55.282624,19.3081812 40.5526149,19.0055082 C25.3181533,18.7028353 12.2023918,30.9106434 12.0006108,46.5487447 C11.8997204,62.489519 24.3092486,75 40.0481625,75 Z M14.9,12.4 C14.6,12.9 14.5,13.5 14.1,13.9 C11.2,16.8 8.3,19.7 5.5,22.6 C4.8,23.3 4,23.4 3.1,23.1 C1.8,22.7 1,21.8 0.6,20.6 C0.3,19.7 0.4,18.9 1.1,18.1 L9.7,9.5 C10.3,8.9 11.1,8.7 11.9,8.9 C13.4,9.2 14.7,10.8 14.9,12.4 Z M33.7,3.9 C33.5,2.5 34,1.3 35.3,0.8 C38.2,-0.3 41.2,-0.3 44.2,0.8 C45.4,1.2 46,2.4 45.9,3.9 L33.7,3.9 Z" id="Shape" fill="#A9BCC4"></path>
            <circle id="inlay" opacity="0.3" cx="39.9019608" cy="46.9019608" r="24.9019608"></circle>
        </g>
    </g>
</svg>