<?xml version="1.0" encoding="UTF-8"?>
<svg width="19px" height="18px" viewBox="0 0 19 18" version="1.1" xmlns="http://www.w3.org/2000/svg" xmlns:xlink="http://www.w3.org/1999/xlink">
    <!-- Generator: Sketch 40.2 (33826) - http://www.bohemiancoding.com/sketch -->
    <title>switchView</title>
    <desc>Created with Sketch.</desc>
    <defs></defs>
    <g id="Page-1" stroke="none" stroke-width="1" fill="none" fill-rule="evenodd">
        <g id="switchView" fill="#FFFFFF">
            <path d="M9.75,7.59487474 C9.15,7.59487474 8.65,8.09499354 8.65,8.69513609 C8.65,9.29527865 9.15,9.79539745 9.75,9.79539745 C10.35,9.79539745 10.85,9.29527865 10.85,8.69513609 C10.95,8.19501729 10.45,7.59487474 9.75,7.59487474 L9.75,7.59487474 L9.75,7.59487474 Z M9.75,5.49437578 C6.75,5.49437578 3.65,8.79515985 3.65,8.79515985 C3.65,8.79515985 6.65,12.0959439 9.75,12.0959439 C12.75,12.0959439 15.85,8.79515985 15.85,8.79515985 C15.85,8.79515985 12.85,5.49437578 9.75,5.49437578 L9.75,5.49437578 L9.75,5.49437578 Z M9.75,11.0957063 C8.45,11.0957063 7.45,10.0954687 7.45,8.79515985 C7.45,7.49485098 8.45,6.49461338 9.75,6.49461338 C11.05,6.49461338 12.05,7.49485098 12.05,8.79515985 C12.15,10.0954687 11.05,11.0957063 9.75,11.0957063 L9.75,11.0957063 L9.75,11.0957063 Z M6.25,1.89352044 C7.85,1.09333036 9.65,0.893282839 11.55,1.29337788 L11.85,0.293140281 C6.95,-0.907144835 2.65,1.69347292 1.15,5.99449458 C0.35,8.29504105 0.35,10.5955875 1.35,12.6960865 L1.85,13.4962766 L-0.25,14.0964191 L4.25,17.2971794 L4.65,12.3960152 L4.65,12.2959914 L4.65,11.7958726 L2.75,13.1962053 L2.45,12.3960152 C1.55,10.4955638 1.45,8.39506481 2.15,6.39458962 C2.85,4.39411443 4.35,2.79373427 6.25,1.89352044 L6.25,1.89352044 L6.25,1.89352044 Z M17.15,4.29409067 L19.25,3.79397187 L14.75,0.59321156 L14.35,6.09451834 L16.35,4.59416195 L16.85,5.49437578 C17.85,7.39482722 18.05,9.59534993 17.35,11.5958251 C16.65,13.5963003 15.35,15.2967042 13.45,16.1969181 C11.85,16.9971081 9.55,16.9971081 8.55,16.8970844 L8.25,17.897322 C12.15,18.6975121 16.95,16.2969418 18.45,11.9959202 C19.25,9.69537369 18.95,7.29480346 17.85,5.09428075 L17.15,4.29409067 L17.15,4.29409067 Z"></path>
        </g>
    </g>
</svg>