<?xml version="1.0" encoding="UTF-8" standalone="no"?>
<svg width="16px" height="16px" viewBox="0 0 16 16" version="1.1" xmlns="http://www.w3.org/2000/svg" xmlns:xlink="http://www.w3.org/1999/xlink" xmlns:sketch="http://www.bohemiancoding.com/sketch/ns">
    <!-- Generator: Sketch 3.3 (11970) - http://www.bohemiancoding.com/sketch -->
    <title>team</title>
    <desc>Created with Sketch.</desc>
    <defs></defs>
    <g id="Page-1" stroke="none" stroke-width="1" fill="none" fill-rule="evenodd" sketch:type="MSPage">
        <g id="team" sketch:type="MSArtboardGroup" fill="#50E3C2">
            <path d="M4.67224966,10.4480631 C4.66622326,10.4458439 4.66022086,10.4436591 4.65424326,10.4415071 C4.53906086,10.3647911 4.44715046,10.3262991 4.07254886,10.4415071 C4.24569446,10.2083927 4.13835206,9.89591833 4.07254886,9.72200953 C4.01322166,9.60167752 4.23733206,9.44122712 4.07254886,9.00251192 L4.65424326,9.00251192 C4.65424326,9.00251192 4.47018486,8.36474871 4.65424326,8.28301431 C4.59752086,8.38662791 4.73435926,8.16531911 4.65424326,7.5635167 C4.56901286,7.2347863 4.58710566,7.0439471 4.65424326,6.8440191 C4.54582646,6.27848309 4.41932726,6.06941109 4.07254886,6.12452149 C4.13386726,5.66690709 3.60445525,5.35629668 2.90916085,5.40502388 C2.64499044,5.45564628 2.33839684,5.81082629 2.32746724,6.12452149 C1.99668164,5.78473269 1.92544964,5.76398789 1.74577284,6.12452149 C1.74930804,5.91147269 1.90781284,6.39533669 1.74577284,6.8440191 C1.90165444,6.8433839 1.90203524,7.0638815 1.74577284,7.5635167 C1.72870644,8.16418471 1.86562084,8.38435911 1.74577284,8.28301431 L2.32746724,9.00251192 C2.22406084,9.43612152 2.45425364,9.60167752 2.32746724,9.72200953 C2.25773844,9.93197913 2.15412164,10.2259767 2.32746724,10.4415071 C1.95274084,10.3439655 1.86083124,10.3728951 1.74577284,10.4415071 C1.44727603,10.5570887 1.08974803,10.7413647 0.582384825,11.1610047 C0.473519224,11.0463831 0.12192082,11.0961391 0.000691219268,11.1610047 C0.0157952194,11.7028535 -0.00381838078,12.2897144 0.000691219268,12.6 L2.80728885,12.6 C2.81459045,12.2183687 2.82475205,11.8332583 2.82475205,11.6180951 C2.99724325,11.0557471 3.56871205,10.9775383 4.04602806,10.7511103 C4.24846966,10.6551799 4.45942646,10.5522111 4.67224966,10.4480631 L4.67224966,10.4480631 L4.67224966,10.4480631 Z M11.3196785,10.4510511 C11.3284225,10.4477975 11.3371145,10.4446175 11.3457569,10.4415071 C11.4609393,10.3647911 11.5528497,10.3262991 11.9274513,10.4415071 C11.7543057,10.2083927 11.8616481,9.89591833 11.9274513,9.72200953 C11.9867785,9.60167752 11.7626681,9.44122712 11.9274513,9.00251192 L11.3457569,9.00251192 C11.3457569,9.00251192 11.5298153,8.36474871 11.3457569,8.28301431 C11.4024793,8.38662791 11.2656409,8.16531911 11.3457569,7.5635167 C11.4309873,7.2347863 11.4128945,7.0439471 11.3457569,6.8440191 C11.4541737,6.27848309 11.5806729,6.06941109 11.9274513,6.12452149 C11.8661329,5.66690709 12.3955449,5.35629668 13.0908393,5.40502388 C13.3550097,5.45564628 13.6616034,5.81082629 13.672533,6.12452149 C14.0033186,5.78473269 14.0745506,5.76398789 14.2542274,6.12452149 C14.2506922,5.91147269 14.0921874,6.39533669 14.2542274,6.8440191 C14.0983458,6.8433839 14.097965,7.0638815 14.2542274,7.5635167 C14.2712938,8.16418471 14.1343794,8.38435911 14.2542274,8.28301431 L13.672533,9.00251192 C13.7759394,9.43612152 13.5457465,9.60167752 13.672533,9.72200953 C13.7422618,9.93197913 13.8458786,10.2259767 13.672533,10.4415071 C14.0472594,10.3439655 14.139169,10.3728951 14.2542274,10.4415071 C14.5527242,10.5570887 14.9102522,10.7413647 15.4176154,11.1610047 C15.526481,11.0463831 15.8780794,11.0961391 15.999309,11.1610047 C15.984205,11.7028535 16.0038186,12.2897144 15.999309,12.6 L13.1927905,12.6 C13.1855473,12.2197999 13.1754505,11.8364671 13.1754505,11.6215015 C13.0029593,11.0590271 12.4314905,10.9815751 11.9540505,10.7551471 C11.7490169,10.6579879 11.5352665,10.5549407 11.3196785,10.4510511 L11.3196785,10.4510511 L11.3196785,10.4510511 Z M11.6498929,10.9440647 C11.1660665,10.7134295 10.6296601,10.4470679 10.1467457,10.2232263 C10.0091937,10.1808239 9.87130011,10.1390079 9.73352011,10.0966055 C9.56916491,9.96846153 9.41370651,9.54350152 9.32576891,9.33231032 C9.23817371,9.31801992 9.18251451,9.30009832 9.06845851,9.28604232 L9.06845851,9.18319912 L8.8901881,9.18319912 C9.11887131,9.06606632 9.46423371,8.82676312 9.57771931,8.60666951 L9.77891451,7.4522031 L9.81267531,7.2719351 C10.0020081,7.3064887 10.2074241,6.9882375 10.2740329,6.56292629 C10.3406417,6.13761509 10.2434657,5.76852789 10.0568697,5.73772229 C10.0107905,5.73022549 9.96345772,5.74439909 9.91726491,5.77602469 C9.94737532,5.39780148 9.94794572,5.07908148 9.92308171,4.81014308 C9.92810011,4.76106468 9.93163611,4.70847108 9.93311851,4.65107588 C9.93870731,4.43145107 10.1765145,3.73204787 9.95433292,3.55283347 C9.91224651,3.51886547 9.80537531,3.54885107 9.72473771,3.55482547 C9.29269291,3.58656787 8.8327041,3.07317266 8.1923921,3.00921826 C7.39320009,2.92956706 6.59891288,3.37853906 6.53104888,3.87506787 C6.48565448,3.87530227 6.43147768,3.88396947 6.36680808,3.90294547 C6.17063128,3.96034067 5.98084168,4.26254467 5.95141528,4.78882468 C5.91890968,5.36898628 5.94605448,5.64483509 6.00661848,5.77719589 C5.94742328,5.74674149 5.89746648,5.73057669 5.84853688,5.73865909 C5.66194087,5.76946549 5.56476487,6.13925509 5.63137367,6.56456629 C5.69798247,6.9898775 5.90328328,7.3097687 6.08987928,7.2788455 C6.09432808,7.2781431 6.21921928,8.00753191 6.21921928,8.00753191 L6.33236328,8.61826551 C6.44368168,8.83414232 6.77992008,9.06606632 7.00917289,9.18319912 L6.84059769,9.18319912 L6.68012088,9.27995192 C6.59218328,9.49137752 6.43113608,9.94304393 6.26666648,10.0709535 C6.12888648,10.1134727 5.99099288,10.1691111 5.85321288,10.2113959 C5.37052727,10.4352375 4.83400647,10.7096815 4.35018006,10.9403167 C3.90958086,11.1505711 3.38207045,11.2231935 3.22284805,11.7453743 C3.22284805,12.0999367 3.19330725,12.9514968 3.20140565,13.4 L12.7985537,13.4 C12.8067657,12.9514968 12.7773385,12.1032167 12.7773385,11.7485367 C12.6181161,11.2262391 12.0906065,11.1543191 11.6498929,10.9440647 L11.6498929,10.9440647 L11.6498929,10.9440647 Z" id="team-tab-dark" sketch:type="MSShapeGroup"></path>
        </g>
    </g>
</svg>