<?xml version="1.0" encoding="UTF-8"?>
<svg width="16px" height="16px" viewBox="0 0 16 16" version="1.1" xmlns="http://www.w3.org/2000/svg" xmlns:xlink="http://www.w3.org/1999/xlink">
    <!-- Generator: Sketch 40.2 (33826) - http://www.bohemiancoding.com/sketch -->
    <title>team</title>
    <desc>Created with Sketch.</desc>
    <defs></defs>
    <g id="Page-1" stroke="none" stroke-width="1" fill="none" fill-rule="evenodd">
        <g id="team" fill="#50E3C2">
            <path d="M10.6313657,7.04352323 C10.6313657,7.04352323 10.5332807,7.3489788 10.5177599,7.38978088 C10.5022391,7.43074297 10.4078343,7.55730943 10.4283154,7.55730943 C10.4484764,7.55730943 10.657127,7.65395436 10.657127,7.65395436 L11.4670883,7.90548718 L11.4554077,8.28710664 C11.3843641,8.29750717 11.1046698,8.48279662 11.0638678,8.57432129 C11.0374664,8.63416434 10.9781034,8.74088978 10.9211405,8.81481355 C11.6587781,9.11226872 12.0904801,9.54781093 12.107921,10.0353558 C12.1199216,10.1222402 12.5674644,11.7196017 12.5930657,12.07914 L16.0009195,12.07914 C16.0037997,12.0642593 15.8981943,9.99791388 15.8972342,9.98239309 C15.8972342,9.98239309 15.7015443,9.48476772 15.3916085,9.43420514 C15.0811926,9.38332254 14.6829323,9.27499702 14.5163638,9.14923061 C14.4190789,9.07530684 14.1017827,8.94698029 13.9547352,8.89353757 C13.8862517,8.86889631 13.7688057,8.66600596 13.7283236,8.57432129 C13.6878416,8.48295663 13.4078273,8.29766718 13.3367837,8.28742666 L13.3252631,7.90564719 L14.1350644,7.65411436 C14.1350644,7.65411436 14.343875,7.55746944 14.3640361,7.55746944 C14.3845171,7.55746944 14.2673911,7.40402161 14.2523504,7.36305952 C14.2369896,7.32241745 14.1608257,7.04416326 14.1608257,7.04416326 C14.1608257,7.04416326 14.4342796,7.3782603 14.5726867,7.44082349 C14.5726867,7.44082349 14.3005128,6.92959742 14.2195487,6.64510291 C14.1379445,6.36012838 14.0845018,5.91514569 14.0845018,5.87466362 C14.0845018,5.83370153 13.9164932,4.63892061 13.8251286,4.4406705 C13.7336039,4.24226038 13.6094376,3.97280664 13.3967867,3.84047989 C13.1841359,3.70831315 12.8690798,3.52014356 12.4164167,3.49470226 C12.4098564,3.49454225 12.4031361,3.49454225 12.3962557,3.49390222 C12.3895354,3.49454225 12.382815,3.49454225 12.3757747,3.49470226 C11.9232716,3.51998355 11.6082155,3.70815314 11.3955647,3.84047989 C11.1833939,3.97280664 11.0589075,4.24226038 10.9673828,4.4406705 C10.8756982,4.63892061 10.7078496,5.83370153 10.7078496,5.87466362 C10.7078496,5.91514569 10.6604872,6.37836931 10.579203,6.66286382 C10.4979189,6.94783835 10.2199847,7.44082349 10.2199847,7.44082349 C10.3585518,7.37778027 10.6313657,7.04352323 10.6313657,7.04352323 Z M3.58396634,10.353292 L3.58396634,10.3323309 L3.58620645,10.3118499 C3.80669769,9.35996135 4.95363618,8.90521816 5.57974811,8.63240425 C5.58070816,8.63192423 5.57878806,8.63256426 5.57974811,8.63240425 C5.19972873,8.45863539 4.9990785,8.32902878 4.90515371,8.3079077 C4.86675175,8.23078377 4.78434755,7.64915411 4.78434755,7.64915411 C4.78434755,7.64915411 5.24117084,7.24561353 5.34373607,6.47245411 C5.34373607,6.47245411 5.56870754,6.59694045 5.58278826,6.12651647 C5.59318879,5.76409798 5.65575198,5.62249076 5.40917941,5.51656536 C5.40917941,5.51656536 5.42694032,5.26583258 5.43478072,5.04326123 C5.44710134,4.7133244 5.50790444,4.25026079 4.93699533,3.8779218 C4.85587119,3.8249591 4.43712984,3.59198722 4.4344097,3.59326729 C4.28512209,3.50270267 4.09551242,3.44493972 4.09551242,3.44493972 L4.10159273,3.58094666 C4.09135221,3.57102615 4.08111169,3.56030561 4.07167121,3.55102513 C4.03406929,3.51214315 4.0127882,3.3622155 4.01646839,3.30285248 L4.02382877,3.1974071 C3.75341498,3.39917739 3.56684546,3.65983068 3.56684546,3.65983068 L3.59100669,3.40765782 C3.59100669,3.40765782 3.54092414,3.48494176 2.92217259,3.87120146 C2.31526164,4.25010078 2.41574676,4.8093293 2.43238761,5.14038618 C2.44358818,5.36295753 2.46566931,5.51640535 2.46566931,5.51640535 C2.21925674,5.62233076 2.34838333,5.77353847 2.35462365,6.13595695 C2.36262405,6.63726251 2.61527694,6.54893801 2.61527694,6.54893801 C2.73160287,7.23185283 3.09034116,7.6489941 3.09034116,7.6489941 C3.09034116,7.6489941 2.98889599,8.23398393 2.949854,8.30806771 C2.8380083,8.33318899 2.57975513,8.51143808 2.03780749,8.73704959 C1.23920677,9.06938653 1.48993955,8.8765767 0.83998641,9.20139327 C-0.187265974,9.71501946 0.0164244132,11.8575287 0.0164244132,11.8575287 L3.25274945,11.8575287 L3.58396634,10.353292 Z M12.4047361,13.2600002 C12.4047361,12.6492491 11.715101,10.0662374 11.715101,10.0662374 C11.715101,9.68877812 11.2185957,9.25755613 10.2398257,9.00634332 C9.73179984,8.87609668 9.30585812,8.58408179 9.30585812,8.58408179 C9.24297491,8.54839997 9.2525754,8.21862315 9.2525754,8.21862315 L8.93735933,8.17110073 C8.93735933,8.14421936 8.91063796,7.74883919 8.91063796,7.74883919 C9.28761719,7.62307278 9.2487352,6.88079493 9.2487352,6.88079493 C9.48810741,7.01264165 9.64395536,6.42589173 9.64395536,6.42589173 C9.92732981,5.61001013 9.50298817,5.65913263 9.50298817,5.65913263 C9.63771504,5.0485415 9.50298817,4.156336 9.50298817,4.156336 C9.31449856,2.50361172 6.47499376,2.9522746 6.81165093,3.49214213 C5.98184861,3.33949435 6.17113827,5.21591003 6.17113827,5.21591003 L6.35114744,5.70105477 C5.99768942,5.92842636 6.24330195,6.20412042 6.25530256,6.5212566 C6.27258344,6.98928046 6.56043812,6.89231552 6.56043812,6.89231552 C6.57835903,7.66483491 6.96141856,7.76628008 6.96141856,7.76628008 C7.03342224,8.25142482 6.98861995,8.16886061 6.98861995,8.16886061 L6.64732255,8.2098227 C6.66252332,8.33238895 6.62044118,8.53879948 6.62044118,8.53879948 C6.21834067,8.71640853 6.13273631,8.82073385 5.73399597,8.99402269 C4.96355669,9.32939979 4.12607398,9.76558204 3.9774264,10.352812 C3.82861881,10.9402019 3.38683628,13.2595202 3.38683628,13.2595202 L12.4045761,13.2595202 L12.4045761,13.2600002 L12.4047361,13.2600002 Z" id="Shape"></path>
        </g>
    </g>
</svg>