<?xml version="1.0" encoding="UTF-8"?>
<svg width="24px" height="24px" viewBox="0 0 24 24" version="1.1" xmlns="http://www.w3.org/2000/svg" xmlns:xlink="http://www.w3.org/1999/xlink">
    <!-- Generator: Sketch 40.2 (33826) - http://www.bohemiancoding.com/sketch -->
    <title>templates</title>
    <desc>Created with Sketch.</desc>
    <defs></defs>
    <g id="Page-1" stroke="none" stroke-width="1" fill="none" fill-rule="evenodd">
        <g id="templates" fill="#50E3C2">
            <path d="M2.9947712,1 C2.4453742,1 2,1.439458 2,2.002462 L2,21.997538 C2,22.551183 2.4509254,23 2.9947712,23 L20.0052288,23 C20.5546258,23 21,22.560542 21,21.997538 L21,2.002462 C21,1.448817 20.5490746,1 20.0052288,1 L2.9947712,1 L2.9947712,1 Z M5.9975446,5 C5.446616,5 5,5.443865 5,6 C5,6.552285 5.4463114,7 5.9975446,7 L13.0024554,7 C13.553384,7 14,6.556135 14,6 C14,5.447715 13.5536886,5 13.0024554,5 L5.9975446,5 L5.9975446,5 Z M6.0006529,9 C5.4480076,9 5,9.443865 5,10 C5,10.552285 5.4484532,11 6.0006529,11 L17.027347,11 C17.5799924,11 18.028,10.556135 18.028,10 C18.028,9.447715 17.5795467,9 17.027347,9 L6.0006529,9 L6.0006529,9 Z M6.0006529,13 C5.4480076,13 5,13.443865 5,14 C5,14.552285 5.4484532,15 6.0006529,15 L17.027347,15 C17.5799924,15 18.028,14.556135 18.028,14 C18.028,13.447715 17.5795467,13 17.027347,13 L6.0006529,13 L6.0006529,13 Z M6.0006529,17 C5.4480076,17 5,17.443865 5,18 C5,18.552285 5.4484532,19 6.0006529,19 L17.027347,19 C17.5799924,19 18.028,18.556135 18.028,18 C18.028,17.447715 17.5795467,17 17.027347,17 L6.0006529,17 L6.0006529,17 Z"></path>
        </g>
    </g>
</svg>