<?xml version="1.0" encoding="UTF-8"?>
<svg width="24px" height="24px" viewBox="0 0 24 24" version="1.1" xmlns="http://www.w3.org/2000/svg" xmlns:xlink="http://www.w3.org/1999/xlink">
    <!-- Generator: Sketch 40.2 (33826) - http://www.bohemiancoding.com/sketch -->
    <title>tools</title>
    <desc>Created with Sketch.</desc>
    <defs></defs>
    <g id="Page-1" stroke="none" stroke-width="1" fill="none" fill-rule="evenodd">
        <g id="tools" fill="#50E3C2">
            <path d="M3.43476315,2.00268711 L5.80479339,3.71437561 L5.80479339,4.37271734 L10.8081906,9.50778286 L9.62317544,10.692798 L4.35644158,5.55773246 L3.69809985,5.55773246 L2.11807969,3.31937057 L3.43476315,2.00268711 Z M15.2849143,12.4044865 C15.2849143,12.4044865 21.0783216,18.1978937 21.604995,18.7245671 C22.1316683,19.2512405 22.1316683,20.4362556 21.604995,20.962929 C21.0783216,21.4896024 21.604995,20.962929 21.0783216,21.4896024 C20.5516482,22.0162758 19.2349647,21.8846074 18.7082913,21.357934 L12.6515474,15.3011901 L15.2849143,12.4044865 Z M15.6799194,5.16272742 L18.576623,8.19109939 L21.7366633,5.29439577 C21.7366633,5.29439577 22,8.84944112 20.2883115,10.1661246 C18.576623,11.4828081 18.7082918,11.3511398 17.1282717,11.0878031 C15.5482515,10.8244664 15.0215776,11.2194714 14.4949043,11.7461447 C13.9682309,12.2728181 5.93646174,20.8312606 5.40978835,21.357934 C4.88311496,21.8846074 3.96143651,22.1479432 3.30309478,21.4896014 C2.64475304,20.8312597 3.3030948,21.4896014 2.51308472,20.6995914 C1.72307464,19.9095813 1.9437066,19.0306085 2.51308473,18.4612304 C3.17142646,17.8028887 12.3882107,9.11277782 12.3882107,9.11277782 C12.3882107,9.11277782 13.1782203,8.71777278 12.9148841,7.00608427 C12.6515479,5.29439577 11.7298685,5.03105908 13.9682309,3.45103892 C16.2065932,1.87101876 18.7082913,2.00268711 18.7082913,2.00268711 L15.6799194,5.16272742 Z"></path>
        </g>
    </g>
</svg>