<?xml version="1.0" encoding="UTF-8" standalone="no"?>
<svg width="24px" height="24px" viewBox="0 0 24 24" version="1.1" xmlns="http://www.w3.org/2000/svg" xmlns:xlink="http://www.w3.org/1999/xlink" xmlns:sketch="http://www.bohemiancoding.com/sketch/ns">
    <!-- Generator: Sketch 3.3 (11970) - http://www.bohemiancoding.com/sketch -->
    <title>tools</title>
    <desc>Created with Sketch.</desc>
    <defs></defs>
    <g id="Page-1" stroke="none" stroke-width="1" fill="none" fill-rule="evenodd" sketch:type="MSPage">
        <g id="tools" sketch:type="MSArtboardGroup" fill="#50E3C2">
            <path d="M12,21.9917334 C13.629647,21.9917334 14.950737,20.8761463 14.950737,19.4999999 C14.950737,18.1238535 13.629647,17.0082666 12,17.0082666 C10.370353,17.0082666 9.049263,18.1238535 9.049263,19.4999999 C9.049263,20.8761463 10.370353,21.9917334 12,21.9917334 L12,21.9917334 L12,21.9917334 Z M12,13.9917334 C13.629647,13.9917334 14.950737,12.8761463 14.950737,11.4999999 C14.950737,10.1238535 13.629647,9.00826665 12,9.00826665 C10.370353,9.00826665 9.049263,10.1238535 9.049263,11.4999999 C9.049263,12.8761463 10.370353,13.9917334 12,13.9917334 L12,13.9917334 L12,13.9917334 Z M12,6.99173331 C13.629647,6.99173331 14.950737,5.87614637 14.950737,4.49999998 C14.950737,3.12385359 13.629647,2.00826665 12,2.00826665 C10.370353,2.00826665 9.049263,3.12385359 9.049263,4.49999998 C9.049263,5.87614637 10.370353,6.99173331 12,6.99173331 L12,6.99173331 L12,6.99173331 Z" sketch:type="MSShapeGroup"></path>
        </g>
    </g>
</svg>