<?xml version="1.0" encoding="UTF-8" standalone="no"?>
<svg width="24px" height="24px" viewBox="0 0 24 24" version="1.1" xmlns="http://www.w3.org/2000/svg" xmlns:xlink="http://www.w3.org/1999/xlink" xmlns:sketch="http://www.bohemiancoding.com/sketch/ns">
    <!-- Generator: Sketch 3.3.2 (12043) - http://www.bohemiancoding.com/sketch -->
    <title>tools</title>
    <desc>Created with Sketch.</desc>
    <defs></defs>
    <g id="Page-1" stroke="none" stroke-width="1" fill="none" fill-rule="evenodd" sketch:type="MSPage">
        <g id="tools" sketch:type="MSArtboardGroup" fill="#50E3C2">
            <path d="M2.57823947,1.00295582 L5.18527273,2.88581317 L5.18527273,3.60998908 L10.6890096,9.25856114 L9.38549298,10.5620778 L3.59208574,4.91350571 L2.86790983,4.91350571 L1.12988766,2.45130763 L2.57823947,1.00295582 Z M15.6134058,12.4449351 C15.6134058,12.4449351 21.9861537,18.8176831 22.5654945,19.3970238 C23.1448352,19.9763645 23.1448352,21.2798812 22.5654945,21.8592219 C21.9861537,22.4385626 22.5654945,21.8592219 21.9861537,22.4385626 C21.406813,23.0179033 19.9584612,22.8730682 19.3791205,22.2937274 L12.7167021,15.6313091 L15.6134058,12.4449351 Z M16.0479113,4.47900017 L19.2342853,7.81020933 L22.7103296,4.62383535 C22.7103296,4.62383535 23,8.53438524 21.1171426,9.98273705 C19.2342853,11.4310889 19.379121,11.2862537 17.6410988,10.9965834 C15.9030766,10.706913 15.3237354,11.1414185 14.7443947,11.7207592 C14.165054,12.3000999 5.33010791,21.7143867 4.75076719,22.2937274 C4.17142646,22.8730682 3.15758016,23.1627375 2.43340425,22.4385616 C1.70922835,21.7143857 2.43340428,22.4385616 1.56439319,21.5695505 C0.695382104,20.7005394 0.938077263,19.7336694 1.5643932,19.1073535 C2.28856911,18.3831775 12.4270318,8.8240556 12.4270318,8.8240556 C12.4270318,8.8240556 13.2960424,8.38955005 13.0063725,6.5066927 C12.7167027,4.62383535 11.7028554,4.33416498 14.165054,2.59614281 C16.6272526,0.858120639 19.3791205,1.00295582 19.3791205,1.00295582 L16.0479113,4.47900017 Z" sketch:type="MSShapeGroup"></path>
        </g>
    </g>
</svg>