<?xml version="1.0" encoding="UTF-8"?>
<svg width="48px" height="83px" viewBox="0 0 48 83" version="1.1" xmlns="http://www.w3.org/2000/svg" xmlns:xlink="http://www.w3.org/1999/xlink">
    <!-- Generator: Sketch 40.2 (33826) - http://www.bohemiancoding.com/sketch -->
    <title>total-tickets</title>
    <desc>Created with Sketch.</desc>
    <defs></defs>
    <g id="Page-1" stroke="none" stroke-width="1" fill="none" fill-rule="evenodd">
        <g id="total-tickets">
            <g id="total">
                <polygon id="Shape" fill="#DDE5E8" points="37.5 83 0 83 10 75 47.5 75"></polygon>
                <polygon id="Shape" fill="#FFFFFF" points="37.5 80 0 80 10 73 47.5 73"></polygon>
                <polygon id="Shape" fill="#DDE5E8" points="37.5 78 0 78 10 70 47.5 70"></polygon>
                <polygon id="Shape" fill="#FFFFFF" points="37.5 75 0 75 10 68 47.5 68"></polygon>
                <polygon id="Shape" fill="#DDE5E8" points="37.5 73 0 73 10 65 47.5 65"></polygon>
                <polygon id="Shape" fill="#FFFFFF" points="37.5 70 0 70 10 63 47.5 63"></polygon>
                <polygon id="Shape" fill="#DDE5E8" points="37.5 68 0 68 10 60 47.5 60"></polygon>
                <polygon id="Shape" fill="#FFFFFF" points="37.5 65 0 65 10 58 47.5 58"></polygon>
                <polygon id="Shape" fill="#DDE5E8" points="37.5 63 0 63 10 55 47.5 55"></polygon>
                <polygon id="Shape" fill="#FFFFFF" points="37.5 60 0 60 10 53 47.5 53"></polygon>
                <polygon id="Shape" fill="#DDE5E8" points="37.5 58 0 58 10 50 47.5 50"></polygon>
                <polygon id="Shape" fill="#FFFFFF" points="37.5 55 0 55 10 48 47.5 48"></polygon>
                <polygon id="Shape" fill="#DDE5E8" points="37.5 53 0 53 10 45 47.5 45"></polygon>
                <polygon id="Shape" fill="#FFFFFF" points="37.5 50 0 50 10 43 47.5 43"></polygon>
                <polygon id="Shape" fill="#DDE5E8" points="37.5 48 0 48 10 40 47.5 40"></polygon>
                <polygon id="Shape" fill="#FFFFFF" points="37.5 45 0 45 10 38 47.5 38"></polygon>
                <polygon id="Shape" fill="#DDE5E8" points="37.5 43 0 43 10 35 47.5 35"></polygon>
                <polygon id="Shape" fill="#FFFFFF" points="37.5 40 0 40 10 33 47.5 33"></polygon>
                <polygon id="Shape" fill="#DDE5E8" points="37.5 38 0 38 10 30 47.5 30"></polygon>
                <polygon id="Shape" fill="#FFFFFF" points="37.5 35 0 35 10 28 47.5 28"></polygon>
                <polygon id="Shape" fill="#DDE5E8" points="37.5 33 0 33 10 25 47.5 25"></polygon>
                <polygon id="Shape" fill="#FFFFFF" points="37.5 30 0 30 10 23 47.5 23"></polygon>
                <polygon id="Shape" fill="#DDE5E8" points="37.5 28 0 28 10 20 47.5 20"></polygon>
                <polygon id="Shape" fill="#FFFFFF" points="37.5 25 0 25 10 18 47.5 18"></polygon>
                <polygon id="Shape" fill="#DDE5E8" points="37.5 23 0 23 10 15 47.5 15"></polygon>
                <polygon id="Shape" fill="#FFFFFF" points="37.5 20 0 20 10 13 47.5 13"></polygon>
                <polygon id="Shape" fill="#DDE5E8" points="37.5 18 0 18 10 10 47.5 10"></polygon>
                <polygon id="Shape" fill="#FFFFFF" points="37.5 15 0 15 10 8 47.5 8"></polygon>
                <polygon id="Shape" fill="#DDE5E8" points="37.5 13 0 13 10 5 47.5 5"></polygon>
                <polygon id="Shape" fill="#FFFFFF" points="37.5 10 0 10 10 3 47.5 3"></polygon>
                <polygon id="Shape" fill="#DDE5E8" points="37.5 8 0 8 10 0 47.5 0"></polygon>
            </g>
        </g>
    </g>
</svg>