<?xml version="1.0" encoding="UTF-8"?>
<svg width="16px" height="16px" viewBox="0 0 16 16" version="1.1" xmlns="http://www.w3.org/2000/svg" xmlns:xlink="http://www.w3.org/1999/xlink">
    <!-- Generator: Sketch 40.2 (33826) - http://www.bohemiancoding.com/sketch -->
    <title>trash</title>
    <desc>Created with Sketch.</desc>
    <defs></defs>
    <g id="Page-1" stroke="none" stroke-width="1" fill="none" fill-rule="evenodd">
        <g id="trash" fill="#50E3C2">
            <path d="M3.88958222,14.0062401 C3.95056428,14.5550785 4.44797753,15 5.00005525,15 L10.9999448,15 C11.55226,15 12.0494195,14.5552247 12.1104178,14.0062401 L13,6 L3,6 L3.88958222,14.0062401 L3.88958222,14.0062401 Z M5,3 L5.75,1 L10.25,1 L11,3 L13,3 C14,3 14,5 14,5 L8,5 L2,5 C2,5 2,3 3,3 L5,3 L5,3 Z M6,3 L10,3 L9.5,2 L6.5,2 L6,3 L6,3 Z" id="Shape"></path>
        </g>
    </g>
</svg>