<?xml version="1.0" encoding="UTF-8"?>
<svg width="29px" height="22px" viewBox="0 0 29 22" version="1.1" xmlns="http://www.w3.org/2000/svg" xmlns:xlink="http://www.w3.org/1999/xlink">
    <!-- Generator: Sketch 40.2 (33826) - http://www.bohemiancoding.com/sketch -->
    <title>twitter-button</title>
    <desc>Created with Sketch.</desc>
    <defs>
        <linearGradient x1="50%" y1="0%" x2="50%" y2="100%" id="linearGradient-1">
            <stop stop-color="#FFFFFF" offset="0%"></stop>
            <stop stop-color="#E9F7FC" offset="100%"></stop>
        </linearGradient>
    </defs>
    <g id="Page-1" stroke="none" stroke-width="1" fill="none" fill-rule="evenodd">
        <g id="twitter-button" fill="url(#linearGradient-1)">
            <path d="M24.1721449,4.16251918 C25.188671,3.53766761 25.9695138,2.54822003 26.3370757,1.36915194 C25.3855914,1.94785719 24.3318657,2.36795104 23.2102213,2.59436492 C22.3121358,1.61303769 21.0324498,1 19.6162028,1 C16.8969898,1 14.6922188,3.26055863 14.6922188,6.04888204 C14.6922188,6.444612 14.7357786,6.83000606 14.8197791,7.19952678 C10.7275179,6.98898768 7.09942041,4.97883517 4.67084834,1.92410889 C4.24700628,2.66979412 4.00412472,3.53705345 4.00412472,4.46239352 C4.00412472,6.21413866 4.87340963,7.75952899 6.1946151,8.6649334 C5.38749194,8.63872417 4.62824849,8.41157273 3.96440479,8.03343948 C3.96384504,8.05448004 3.96384504,8.07564401 3.96384504,8.09693282 C3.96384504,10.5431759 5.66113462,12.5837205 7.913665,13.0478671 C7.50050299,13.1632882 7.0655009,13.2249362 6.61645745,13.2249362 C6.29917659,13.2249362 5.99077618,13.1931895 5.69005415,13.1343712 C6.3166968,15.140216 8.13506611,16.5999632 10.2897968,16.6405692 C8.60462863,17.9948625 6.48157845,18.8020738 4.1745661,18.8020738 C3.7771233,18.8020738 3.38520245,18.7780786 3,18.7314416 C5.17909105,20.1641186 7.76726352,21 10.5479176,21 C19.6047223,21 24.5575069,13.3065198 24.5575069,6.63423251 C24.5575069,6.41532625 24.5527071,6.19764974 24.5432277,5.98095903 C25.5051514,5.26923458 26.3398759,4.38007085 27,3.36749057 C26.1171145,3.76912675 25.1680301,4.0404529 24.1721449,4.16251918 Z" id="twitter"></path>
        </g>
    </g>
</svg>