<?xml version="1.0" encoding="UTF-8"?>
<svg width="17px" height="17px" viewBox="0 0 17 17" version="1.1" xmlns="http://www.w3.org/2000/svg" xmlns:xlink="http://www.w3.org/1999/xlink">
    <!-- Generator: Sketch 40.2 (33826) - http://www.bohemiancoding.com/sketch -->
    <title>twitter</title>
    <desc>Created with Sketch.</desc>
    <defs></defs>
    <g id="Page-1" stroke="none" stroke-width="1" fill="none" fill-rule="evenodd">
        <g id="twitter" fill="#50E3C2">
            <path d="M14.175676,4.983471 C14.783784,4.586777 15.290541,3.991736 15.594595,3.297521 C14.986486,3.694215 14.277027,3.892562 13.567568,3.991736 C12.959459,3.396694 12.148649,3 11.337838,3 C9.614865,3 8.195946,4.38843 8.195946,6.07438 C8.195946,6.272727 8.195946,6.570248 8.297297,6.768595 C5.662162,6.669421 3.432432,5.380165 1.912162,3.595041 C1.608108,4.090909 1.506757,4.586777 1.506757,5.082645 C1.506757,6.173554 2.013514,7.066116 2.925676,7.661157 C2.418919,7.661157 1.912162,7.46281 1.506757,7.264463 C1.506757,8.752066 2.621622,9.942149 4.040541,10.239669 C3.736486,10.338843 3.533784,10.338843 3.22973,10.338843 C3.027027,10.338843 2.824324,10.338843 2.621622,10.239669 C3.027027,11.429752 4.141892,12.322314 5.560811,12.322314 C4.445946,13.115702 3.128378,13.61157 1.709459,13.61157 L1,13.61157 C2.418919,14.504132 4.040541,15 5.763514,15 C11.540541,15 14.581081,10.338843 14.581081,6.371901 L14.581081,5.975207 C15.087838,5.578512 15.594595,5.082645 16,4.487603 C15.391892,4.68595 14.885135,4.884298 14.175676,4.983471 L14.175676,4.983471 L14.175676,4.983471 Z" id="twitter-channel-white"></path>
        </g>
    </g>
</svg>