<?xml version="1.0" encoding="UTF-8"?>
<svg width="17.7px" height="20px" viewBox="0 0 17.7 20" version="1.1" xmlns="http://www.w3.org/2000/svg" xmlns:xlink="http://www.w3.org/1999/xlink">
<path fill-rule="evenodd" clip-rule="evenodd" fill="#50E3C2" d="M11.9,8.1h-0.7V7.1c0,0,0,0,0,0l0-0.1v0c0,0,0,0,0,0 c0-0.3,0-0.8-0.2-1.1C10.7,5.2,10,4.7,8.9,4.7C7.8,4.7,7,5.2,6.7,6C6.5,6.3,6.5,6.8,6.5,7.1c0,0,0,0,0,0v0l0,0.1c0,0,0,0,0,0v0.9 H5.8c-0.4,0-0.7,0.3-0.7,0.7v4.1c0,0.4,0.3,0.7,0.7,0.7h6.1c0.4,0,0.7-0.3,0.7-0.7V8.8C12.6,8.4,12.3,8.1,11.9,8.1z M10.3,7.1 L10.3,7.1l0,1H7.4v-1l0-0.1c0,0,0,0,0,0c0-0.2,0-0.5,0.1-0.7c0.2-0.4,0.6-0.7,1.3-0.7c0.7,0,1.1,0.3,1.3,0.7 C10.3,6.6,10.3,6.8,10.3,7.1C10.3,7,10.3,7.1,10.3,7.1z M17,2.8L9.2,0.1C9.1,0,9,0,8.9,0S8.6,0,8.5,0.1L0.7,2.8C0.3,2.9,0,3.4,0,3.8 v6.9c0,6.4,8.2,9.1,8.5,9.2C8.6,20,8.8,20,8.9,20s0.2,0,0.3-0.1c0.3-0.1,8.5-2.8,8.5-9.2V3.8C17.7,3.4,17.4,2.9,17,2.8z M16.2,10.8 c0,4.9-6.3,7.4-7.4,7.7c-1-0.4-7.4-2.8-7.4-7.7V4.1l7.4-2.6l7.4,2.6V10.8z" />
</svg>
