<?xml version="1.0" encoding="UTF-8" standalone="no"?>
<svg width="16px" height="16px" viewBox="0 0 16 16" version="1.1" xmlns="http://www.w3.org/2000/svg" xmlns:xlink="http://www.w3.org/1999/xlink" xmlns:sketch="http://www.bohemiancoding.com/sketch/ns">
    <!-- Generator: Sketch 3.5.1 (25234) - http://www.bohemiancoding.com/sketch -->
    <title>unmute</title>
    <desc>Created with Sketch.</desc>
    <defs></defs>
    <g id="Page-1" stroke="none" stroke-width="1" fill="none" fill-rule="evenodd" sketch:type="MSPage">
        <g id="unmute" sketch:type="MSArtboardGroup" fill="#50E3C2">
            <path d="M1,6 L1,10 L4,10 L8,13 L8,3 L4,6 L1,6 Z" id="speaker" sketch:type="MSShapeGroup"></path>
            <path d="M10.3269662,5.11520093 C12.5584764,6.5697767 12.5584764,9.4302233 10.3269662,10.8847991 C10.0956305,11.0355917 10.0303375,11.3453679 10.1811301,11.5767036 C10.3319227,11.8080392 10.6416989,11.8733323 10.8730346,11.7225397 C13.709787,9.87344607 13.709787,6.12655393 10.8730346,4.27746033 C10.6416989,4.12666771 10.3319227,4.19196076 10.1811301,4.42329644 C10.0303375,4.65463212 10.0956305,4.96440831 10.3269662,5.11520093 Z M11.526966,3.69306883 C14.8493449,5.85871065 14.8493449,10.1412893 11.526966,12.3069312 C11.2956303,12.4577238 11.2303373,12.7675 11.3811299,12.9988357 C11.5319225,13.2301713 11.8416987,13.2954644 12.0730344,13.1446718 C16.0006555,10.5845121 16.0006555,5.41548788 12.0730344,2.85532823 C11.8416987,2.70453561 11.5319225,2.76982866 11.3811299,3.00116434 C11.2303373,3.23250002 11.2956303,3.54227621 11.526966,3.69306883 Z M9.22696581,6.68064447 C10.2576781,7.35249847 10.2576781,8.64750153 9.22696581,9.31935553 C8.99563013,9.47014815 8.93033708,9.77992434 9.0811297,10.01126 C9.23192232,10.2425957 9.54169851,10.3078888 9.77303419,10.1570961 C11.4089886,9.0907243 11.4089886,6.9092757 9.77303419,5.84290387 C9.54169851,5.69211125 9.23192232,5.7574043 9.0811297,5.98873998 C8.93033708,6.22007566 8.99563013,6.52985185 9.22696581,6.68064447 Z" id="soundwave" sketch:type="MSShapeGroup"></path>
        </g>
    </g>
</svg>