<?xml version="1.0" encoding="UTF-8"?>
<svg width="12px" height="12px" viewBox="0 0 12 12" version="1.1" xmlns="http://www.w3.org/2000/svg" xmlns:xlink="http://www.w3.org/1999/xlink">
    <!-- Generator: Sketch 50.2 (55047) - http://www.bohemiancoding.com/sketch -->
    <title>unordered-list</title>
    <desc>Created with Sketch.</desc>
    <defs></defs>
    <g id="unordered-list" stroke="none" stroke-width="1" fill="none" fill-rule="evenodd">
        <rect id="Rectangle-11" fill="#50E3C2" x="4" y="1" width="7" height="1"></rect>
        <path d="M2.5,2.10000002 C2.83137086,2.10000002 3.10000002,1.83137086 3.10000002,1.5 C3.10000002,1.16862914 2.83137086,0.899999976 2.5,0.899999976 C2.16862914,0.899999976 1.89999998,1.16862914 1.89999998,1.5 C1.89999998,1.83137086 2.16862914,2.10000002 2.5,2.10000002 Z" id="Oval" fill="#50E3C2"></path>
        <rect id="Rectangle-11-Copy" fill="#50E3C2" x="4" y="4" width="7" height="1"></rect>
        <path d="M2.5,5.10000014 C2.83137086,5.10000014 3.10000002,4.83137098 3.10000002,4.50000012 C3.10000002,4.16862926 2.83137086,3.9000001 2.5,3.9000001 C2.16862914,3.9000001 1.89999998,4.16862926 1.89999998,4.50000012 C1.89999998,4.83137098 2.16862914,5.10000014 2.5,5.10000014 Z" id="Oval-Copy" fill="#50E3C2"></path>
        <rect id="Rectangle-11-Copy-2" fill="#50E3C2" x="4" y="7" width="7" height="1"></rect>
        <path d="M2.5,8.10000014 C2.83137086,8.10000014 3.10000002,7.83137098 3.10000002,7.50000012 C3.10000002,7.16862926 2.83137086,6.9000001 2.5,6.9000001 C2.16862914,6.9000001 1.89999998,7.16862926 1.89999998,7.50000012 C1.89999998,7.83137098 2.16862914,8.10000014 2.5,8.10000014 Z" id="Oval-Copy-2" fill="#50E3C2"></path>
        <rect id="Rectangle-11-Copy-3" fill="#50E3C2" x="4" y="10" width="7" height="1"></rect>
        <path d="M2.5,11.0999997 C2.83137086,11.0999997 3.10000002,10.8313705 3.10000002,10.4999996 C3.10000002,10.1686288 2.83137086,9.89999962 2.5,9.89999962 C2.16862914,9.89999962 1.89999998,10.1686288 1.89999998,10.4999996 C1.89999998,10.8313705 2.16862914,11.0999997 2.5,11.0999997 Z" id="Oval-Copy-3" fill="#50E3C2"></path>
    </g>
</svg>