<?xml version="1.0" encoding="UTF-8"?>
<svg width="16px" height="16px" viewBox="0 0 16 16" version="1.1" xmlns="http://www.w3.org/2000/svg" xmlns:xlink="http://www.w3.org/1999/xlink">
    <!-- Generator: Sketch 40.2 (33826) - http://www.bohemiancoding.com/sketch -->
    <title>user</title>
    <desc>Created with Sketch.</desc>
    <defs></defs>
    <g id="Page-1" stroke="none" stroke-width="1" fill="none" fill-rule="evenodd">
        <g id="user" fill="#50E3C2">
            <path d="M13.2528445,11.6881089 C12.1470216,11.1354205 12.5728415,11.5584145 11.2155128,10.9927865 C9.85818398,10.4279021 9.53662527,10.2434744 9.53662527,10.2434744 L9.5247267,8.94816688 C9.5247267,8.94816688 10.0330929,8.56057113 10.19179,7.33546516 C10.5090355,7.42767904 10.6165688,6.96170149 10.6336729,6.66393991 C10.6524132,6.37629211 10.8213728,5.47943779 10.4330334,5.55945564 C10.5124563,4.96066037 10.574775,4.41942441 10.546516,4.13281773 C10.4493939,3.12694281 9.75734365,2.07659701 8.01033688,2 C6.52509853,2.07674574 5.5608686,3.12768647 5.46359783,4.13356139 C5.4356362,4.42016807 5.49260058,4.96095783 5.5720235,5.56079423 C5.18398156,5.47973526 5.35100766,6.37807689 5.36811185,6.66557596 C5.38685209,6.96333755 5.49185692,7.43095114 5.80999479,7.33858853 C5.96794824,8.5636945 6.47631442,8.95441362 6.47631442,8.95441362 L6.46352346,10.2562653 C6.46352346,10.2562653 6.14196475,10.453484 4.78463598,11.0182197 C3.42730721,11.5839964 3.85297836,11.1352718 2.74730423,11.6879601 C1,12.561761 1,14.9643787 1,14.9643787 L8.01018815,14.9643787 L15,14.9643787 C15,14.9643787 15,12.561761 13.2528445,11.6881089 L13.2528445,11.6881089 Z" id="Shape"></path>
        </g>
    </g>
</svg>