<?xml version="1.0" encoding="UTF-8" standalone="no"?>
<svg width="16px" height="16px" viewBox="0 0 16 16" version="1.1" xmlns="http://www.w3.org/2000/svg" xmlns:xlink="http://www.w3.org/1999/xlink" xmlns:sketch="http://www.bohemiancoding.com/sketch/ns">
    <!-- Generator: Sketch 3.3 (11970) - http://www.bohemiancoding.com/sketch -->
    <title>user</title>
    <desc>Created with Sketch.</desc>
    <defs></defs>
    <g id="Page-1" stroke="none" stroke-width="1" fill="none" fill-rule="evenodd" sketch:type="MSPage">
        <g id="user" sketch:type="MSArtboardGroup" fill="#50E3C2">
            <path d="M13.2475537,11.9063932 C12.5405537,11.6187872 11.7567203,11.2866292 11.0510537,11.0074952 C10.8500537,10.9546182 10.6485537,10.9024722 10.4472203,10.8495962 C10.2070537,10.6897982 9.97988699,10.1598652 9.85138699,9.89650624 C9.72338699,9.87868624 9.64205369,9.85633724 9.47538699,9.83880924 L9.47538699,9.71056224 L9.21488699,9.71056224 C9.54905369,9.56449524 10.0537203,9.26607924 10.2195537,8.99161824 L10.5135537,7.55197824 L10.562887,7.32718024 C10.8395537,7.37027024 11.1397203,6.97340524 11.2370537,6.44303424 C11.334387,5.91266324 11.192387,5.45240524 10.9197203,5.41398924 C10.852387,5.40464124 10.7832203,5.42231524 10.7157203,5.46175324 C10.7597203,4.99010124 10.7605537,4.59265224 10.7242203,4.25728124 C10.7315537,4.19607924 10.7367203,4.13049524 10.738887,4.05892224 C10.7470537,3.78504524 11.0945537,2.91287724 10.769887,2.68939324 C10.708387,2.64703424 10.5522203,2.68442724 10.434387,2.69187724 C9.80305369,2.73146124 9.13088699,2.09124724 8.19522029,2.01149524 C7.02738699,1.91216924 5.86672029,2.47204524 5.76755369,3.09122524 C5.70122029,3.09151724 5.62205369,3.10232624 5.52755369,3.12598924 C5.24088699,3.19756224 4.96355369,3.57441624 4.92055369,4.23069724 C4.87305369,4.95416924 4.91272029,5.29815824 5.00122029,5.46321424 C4.91472029,5.42523624 4.84172029,5.40507924 4.77022029,5.41515824 C4.49755369,5.45357324 4.35555369,5.91470824 4.45288699,6.44507924 C4.55022029,6.97545024 4.85022029,7.37436024 5.12288699,7.33579824 C5.12938699,7.33492224 5.31188699,8.24448324 5.31188699,8.24448324 L5.47722029,9.00607924 C5.63988699,9.27528124 6.13122029,9.56449524 6.46622029,9.71056224 L6.21988699,9.71056224 L5.98538699,9.83121424 C5.85688699,10.0948652 5.62155369,10.6581012 5.38122029,10.8176072 C5.17988699,10.8706292 4.97838699,10.9400112 4.77705369,10.9927422 C4.07172029,11.2718772 3.28772029,11.6141132 2.58072029,11.9017192 C1.93688699,12.1639102 1.26605369,12.2544722 1.03338699,12.9056412 C1.03338699,13.3477872 0.99022029,14.4096972 1.00205369,14.9689892 L14.9260537,14.9689892 C14.9380537,14.4096972 14.8950537,13.3518772 14.8950537,12.9095852 C14.662387,12.2582702 13.8915537,12.1685852 13.2475537,11.9063932 L13.2475537,11.9063932 L13.2475537,11.9063932 Z" id="user-tab-dark" sketch:type="MSShapeGroup"></path>
        </g>
    </g>
</svg>