<?xml version="1.0" encoding="UTF-8"?>
<svg width="17px" height="17px" viewBox="0 0 17 17" version="1.1" xmlns="http://www.w3.org/2000/svg" xmlns:xlink="http://www.w3.org/1999/xlink">
    <!-- Generator: Sketch 40.2 (33826) - http://www.bohemiancoding.com/sketch -->
    <title>web</title>
    <desc>Created with Sketch.</desc>
    <defs></defs>
    <g id="Page-1" stroke="none" stroke-width="1" fill="none" fill-rule="evenodd">
        <g id="web" fill="#50E3C2">
            <g id="Group" transform="translate(0.000000, 1.000000)">
                <polygon id="Shape" points="11.6694915 5.37853107 15.6745763 4.14915254 13.3022599 5.65706215"></polygon>
                <polygon id="Shape" points="14.1090395 8.37514124 13.3022599 5.65706215 15.6745763 4.14915254 14.9638418 6.58870056"></polygon>
                <polygon id="Shape" points="16.8463277 3.40960452 16.4045198 4.14915254 14.9638418 6.58870056 15.6745763 4.14915254"></polygon>
                <polygon id="Shape" points="16.9903955 3.88983051 15.8762712 5.03276836 16.4045198 4.14915254"></polygon>
                <polygon id="Shape" points="11.9096045 4.61977401 15.1847458 4.29322034 12.9084746 4.99435028"></polygon>
                <polygon id="Shape" points="12.0344633 6.47344633 13.3022599 5.65706215 14.1090395 8.37514124 13.6864407 9.23954802"></polygon>
                <polygon id="Shape" points="10.1423729 9.70056497 9.53728814 2.30508475 13.6864407 9.23954802"></polygon>
                <polygon id="Shape" points="8.42316384 11.5926554 10.1423729 9.70056497 13.6864407 9.23954802"></polygon>
                <polygon id="Shape" points="0.0672316384 15.3096045 8.42316384 11.5926554 10.1423729 9.70056497 7.41468927 9.4220339"></polygon>
                <polygon id="Shape" points="0.384180791 12.2745763 4.67740113 11.6214689 6.01242938 10.5457627 5.35932203 10.2576271"></polygon>
                <polygon id="Shape" points="1.93050847 8.76892655 6.01242938 10.5457627 7.41468927 9.4220339"></polygon>
                <polygon id="Shape" points="9.2299435 4.98474576 8.71129944 5.07118644 7.41468927 9.4220339 8.81694915 8.53841808"></polygon>
                <polygon id="Shape" points="9.98870056 7.78926554 8.81694915 8.53841808 9.53728814 2.30508475"></polygon>
                <polygon id="Shape" points="5.56101695 5.57062147 9.2299435 4.98474576 9.39322034 3.53446328"></polygon>
                <polygon id="Shape" points="5.16723164 2.17062147 8.3559322 4.09152542 9.39322034 3.53446328 9.4220339 3.33276836"></polygon>
                <polygon id="Shape" points="5.79152542 0.0768361582 8.6920904 3.13107345 9.4220339 3.33276836 9.53728814 2.30508475"></polygon>
                <polygon id="Shape" points="7.41468927 9.4220339 9.98870056 7.78926554 10.1423729 9.70056497"></polygon>
            </g>
        </g>
    </g>
</svg>