<?xml version="1.0" encoding="UTF-8"?>
<svg width="15px" height="15px" viewBox="0 0 15 15" version="1.1" xmlns="http://www.w3.org/2000/svg" xmlns:xlink="http://www.w3.org/1999/xlink">
<path fill-rule="evenodd" clip-rule="evenodd" d="M12.7837 2.17813C11.3816 0.77424 9.51681 0.000712272 7.52993 0C3.4358 0 0.103787 3.33166 0.102363 7.42686C0.101651 8.73601 0.443898 10.0138 1.09385 11.1399L0.0400391 14.9891L3.97748 13.9563C5.06226 14.5482 6.28381 14.8598 7.52674 14.8602H7.52993C11.6234 14.8602 14.9558 11.5281 14.9572 7.43291C14.9579 5.44819 14.1861 3.58238 12.7837 2.17848V2.17813ZM7.52993 13.6058H7.52744C6.41985 13.6055 5.3333 13.3077 4.38527 12.7454L4.15983 12.6115L1.82322 13.2244L2.44681 10.9462L2.30008 10.7126C1.68218 9.72965 1.35561 8.59355 1.35632 7.42724C1.35774 4.02363 4.12706 1.25431 7.53246 1.25431C9.18134 1.25502 10.7313 1.89785 11.8969 3.06491C13.0625 4.23162 13.7039 5.78296 13.7032 7.43221C13.7018 10.8362 10.9325 13.6055 7.52993 13.6055V13.6058ZM10.9161 8.98247C10.7305 8.88953 9.81813 8.44077 9.64787 8.37883C9.47765 8.31684 9.35409 8.28588 9.23048 8.47177C9.10692 8.65769 8.75114 9.07579 8.64287 9.19935C8.5346 9.32329 8.42632 9.33862 8.24077 9.24564C8.05526 9.15269 7.45729 8.95682 6.74823 8.32467C6.19659 7.83249 5.82403 7.22494 5.7158 7.03902C5.60753 6.85314 5.7044 6.75269 5.79697 6.66046C5.8803 6.57713 5.98253 6.44358 6.07547 6.3353C6.16845 6.22703 6.19907 6.14942 6.26102 6.02582C6.32301 5.90188 6.29201 5.79365 6.24573 5.70066C6.1994 5.60772 5.82834 4.69421 5.67341 4.32278C5.52275 3.96095 5.36964 4.0101 5.25602 4.00404C5.14775 3.9987 5.02418 3.99763 4.90025 3.99763C4.77631 3.99763 4.57543 4.04393 4.4052 4.22983C4.23498 4.41572 3.75561 4.86481 3.75561 5.77794C3.75561 6.69108 4.42054 7.57396 4.51348 7.6979C4.60642 7.82184 5.82225 9.69617 7.68378 10.5003C8.12649 10.6916 8.47228 10.8059 8.74186 10.8914C9.18635 11.0327 9.5909 11.0128 9.9107 10.9651C10.2672 10.9117 11.0087 10.516 11.1632 10.0826C11.3178 9.64914 11.3178 9.27733 11.2715 9.20006C11.2252 9.12278 11.1013 9.07612 10.9157 8.98318L10.9161 8.98247Z" fill="#50E3C2"/>
</svg>
