<?xml version="1.0" encoding="UTF-8"?>
<svg width="20px" height="20px" viewBox="0 0 20 20" version="1.1" xmlns="http://www.w3.org/2000/svg" xmlns:xlink="http://www.w3.org/1999/xlink">
    <!-- Generator: Sketch 40.2 (33826) - http://www.bohemiancoding.com/sketch -->
    <title>zoom-out</title>
    <desc>Created with Sketch.</desc>
    <defs></defs>
    <g id="Page-1" stroke="none" stroke-width="1" fill="none" fill-rule="evenodd">
        <g id="zoom-out" fill="#50E3C2">
            <polygon id="Shape" points="5 7 5 9 11 9 11 7"></polygon>
            <path d="M7.89345529,13.8430745 C4.63478863,13.821724 2.00145529,11.1542567 2.02145529,7.89431545 C2.04545529,4.65839338 4.69078863,2.02295169 7.92945529,2.02295169 L7.96812196,2.02295169 C9.54412196,2.0322925 11.0227886,2.6581265 12.1294553,3.78169202 C13.2374553,4.90258874 13.8427887,6.39311449 13.8334553,7.9717107 C13.820122,9.54096611 13.204122,11.0194823 12.0894553,12.1257006 C10.9774553,13.2332533 9.49745529,13.8430745 7.93212196,13.8430745 L7.89345529,13.8430745 M7.97745529,0 L7.92678863,0 C3.57478863,0 0.0294552881,3.51748065 0.000121954752,7.88230584 C-0.0238780452,12.2644782 3.49745529,15.8380037 7.87612196,15.8660262 L7.93212196,15.8660262 C9.38412196,15.8660262 10.7494553,15.4737123 11.920122,14.7851615 L16.7374553,19.6090205 L16.860122,19.7264478 C17.0427887,19.9092607 17.280122,20 17.5187887,20 C17.7574553,20 17.996122,19.9092607 18.1774553,19.7264478 L19.7294553,18.1772084 C20.092122,17.8115826 20.092122,17.220443 19.7294553,16.857486 L19.608122,16.7333867 L14.784122,11.9081932 C15.4574553,10.7526021 15.844122,9.41553243 15.8534553,7.98372031 C15.8854553,3.6015479 12.356122,0.0293568188 7.97745529,0" id="search"></path>
        </g>
    </g>
</svg>