<svg width="24" height="24" viewBox="0 0 24 24" xmlns="http://www.w3.org/2000/svg">
<path d="M3,5.6C3,4.2,4.2,3,5.6,3h12.9C19.8,3,21,4.2,21,5.6v12.9c0,1.4-1.2,2.6-2.6,2.6H5.6C4.2,21,3,19.8,3,18.4V5.6z M5.6,4.3 c-0.7,0-1.3,0.6-1.3,1.3v12.9c0,0.7,0.6,1.3,1.3,1.3h12.9c0.7,0,1.3-0.6,1.3-1.3V5.6c0-0.7-0.6-1.3-1.3-1.3H5.6z M12.8,16.6v-3.8 h3.8c0.4,0,0.8-0.4,0.8-0.8s-0.4-0.8-0.8-0.8h-3.8V7.4c0-0.4-0.4-0.8-0.8-0.8S11.2,7,11.2,7.4v3.8H7.4c-0.4,0-0.8,0.4-0.8,0.8 s0.4,0.8,0.8,0.8h3.8v3.8c0,0.4,0.4,0.8,0.8,0.8S12.8,17,12.8,16.6z" />
</svg>
