<svg width="24" height="24" viewBox="0 0 24 24" xmlns="http://www.w3.org/2000/svg">
<path d="M8.5 2.75C7.25736 2.75 6.25 3.75736 6.25 5H7.75C7.75 4.58579 8.08579 4.25 8.5 4.25H15.5C15.9142 4.25 16.25 4.58579 16.25 5H17.75C17.75 3.75736 16.7426 2.75 15.5 2.75H8.5Z" />
<path d="M4.25 8.5C4.25 7.25736 5.25736 6.25 6.5 6.25H17.5C18.7426 6.25 19.75 7.25736 19.75 8.5H18.25C18.25 8.08579 17.9142 7.75 17.5 7.75H6.5C6.08579 7.75 5.75 8.08579 5.75 8.5H4.25Z" />
<path fill-rule="evenodd" clip-rule="evenodd" d="M5 10C3.89543 10 3 10.8954 3 12V19C3 20.1046 3.89543 21 5 21H19C20.1046 21 21 20.1046 21 19V12C21 10.8954 20.1046 10 19 10H5ZM19 11.5H5C4.72386 11.5 4.5 11.7239 4.5 12V19C4.5 19.2761 4.72386 19.5 5 19.5H19C19.2761 19.5 19.5 19.2761 19.5 19V12C19.5 11.7239 19.2761 11.5 19 11.5Z" />
</svg>
