<svg width="24" height="24" viewBox="0 0 24 24" xmlns="http://www.w3.org/2000/svg">
<path d="M12.3828 20C13.7977 20 15.433 19.6049 16.1925 19.2411L15.7638 17.8675C15.2493 18.0557 13.8344 18.5135 12.4624 18.5135C8.34034 18.5135 6.12924 16.1866 6.12924 12.022C6.12924 8.03293 8.31584 5.45512 12.2358 5.45512C15.8189 5.45512 17.9565 7.81341 17.9504 10.9996C17.9565 13.7217 17.6135 14.9447 16.4988 14.9447C15.8679 14.9447 15.5188 14.4179 15.5188 13.7593V7.93885H14.012V8.64132H13.9324C13.7487 8.08938 12.6829 7.59388 11.4028 7.75069C9.63271 7.96394 8.11372 9.46296 8.11372 11.9341C8.11372 14.512 9.39996 16.2368 11.4641 16.3183C12.8606 16.381 13.767 15.7162 14.0549 14.9761H14.1284C14.2754 15.9859 15.3412 16.4312 16.3885 16.3936C19.0039 16.3434 19.5 13.7091 19.5 11.0623C19.5 7.28655 16.9765 4 12.2971 4C7.39097 4 4.50612 7.06703 4.5 12.0094C4.50612 17.096 7.31748 20 12.3828 20ZM11.8193 14.7817C10.2207 14.7817 9.66946 13.3767 9.66333 11.8589C9.66946 10.4163 10.4596 9.26852 11.8438 9.26852C13.3444 9.26852 14.0182 9.9459 14.0243 11.8526C14.0304 13.8095 13.4118 14.7817 11.8193 14.7817Z" />
</svg>
