<svg width="24" height="24" viewBox="0 0 24 24" xmlns="http://www.w3.org/2000/svg">
<rect x="6.25" y="13" width="1.5" height="1.5" />
<rect x="6.25" y="16" width="1.5" height="1.5" />
<rect x="8.75" y="10" width="1.5" height="1.5" />
<rect x="8.75" y="13" width="1.5" height="1.5" />
<rect x="8.75" y="16" width="1.5" height="1.5" />
<rect x="13.75" y="10" width="1.5" height="1.5" />
<rect x="13.75" y="13" width="1.5" height="1.5" />
<rect x="16.25" y="10" width="1.5" height="1.5" />
<rect x="16.25" y="13" width="1.5" height="1.5" />
<rect x="11.25" y="10" width="1.5" height="1.5" />
<rect x="11.25" y="13" width="1.5" height="1.5" />
<rect x="11.25" y="16" width="1.5" height="1.5" />
<path fill-rule="evenodd" clip-rule="evenodd" d="M5 4.5H19C19.2761 4.5 19.5 4.72386 19.5 5V6.5H4.5V5C4.5 4.72386 4.72386 4.5 5 4.5ZM4.5 8V19C4.5 19.2761 4.72386 19.5 5 19.5H19C19.2761 19.5 19.5 19.2761 19.5 19V8H4.5ZM21 8V19C21 20.1046 20.1046 21 19 21H5C3.89543 21 3 20.1046 3 19V5C3 3.89543 3.89543 3 5 3H19C20.1046 3 21 3.89543 21 5V6.5V8Z" />
</svg>
