<svg width="24" height="24" viewBox="0 0 24 24" xmlns="http://www.w3.org/2000/svg">
<path fill-rule="evenodd" clip-rule="evenodd" d="M6.8 5.5H7.52094L7.9713 4.93704L9.12094 3.5H14.8791L16.0287 4.93704L16.4791 5.5H17.2H19C19.8284 5.5 20.5 6.17157 20.5 7V17C20.5 17.8284 19.8284 18.5 19 18.5H5C4.17157 18.5 3.5 17.8284 3.5 17V7C3.5 6.17157 4.17157 5.5 5 5.5H6.8ZM15.1194 2C15.4232 2 15.7105 2.13809 15.9002 2.3753L17.2 4H19C20.6569 4 22 5.34315 22 7V17C22 18.6569 20.6569 20 19 20H5C3.34315 20 2 18.6569 2 17V7C2 5.34315 3.34315 4 5 4H6.8L8.09976 2.37531C8.28953 2.13809 8.57684 2 8.88062 2H15.1194ZM15.5 11.5C15.5 13.433 13.933 15 12 15C10.067 15 8.5 13.433 8.5 11.5C8.5 9.567 10.067 8 12 8C13.933 8 15.5 9.567 15.5 11.5ZM17 11.5C17 14.2614 14.7614 16.5 12 16.5C9.23858 16.5 7 14.2614 7 11.5C7 8.73858 9.23858 6.5 12 6.5C14.7614 6.5 17 8.73858 17 11.5Z" />
</svg>
