<svg width="24" height="24" viewBox="0 0 24 24" xmlns="http://www.w3.org/2000/svg">
<path d="M2.25 9C2.25 5.82436 4.82436 3.25 8 3.25H16C19.1756 3.25 21.75 5.82436 21.75 9V12C21.75 15.1756 19.1756 17.75 16 17.75H12.2028L6.3779 21.1478C6.14594 21.2831 5.85932 21.2841 5.62645 21.1504C5.39358 21.0166 5.25 20.7685 5.25 20.5V17.045C3.18621 16.2244 2.25 14.0167 2.25 12V9ZM8 4.75C5.65279 4.75 3.75 6.65279 3.75 9V12C3.75 13.8068 4.64268 15.3876 6.1819 15.7724L6.75 15.9144V19.1942L11.7972 16.25H16C18.3472 16.25 20.25 14.3472 20.25 12V9C20.25 6.65279 18.3472 4.75 16 4.75H8Z" />
</svg>
