<svg width="24" height="24" viewBox="0 0 24 24" xmlns="http://www.w3.org/2000/svg">
<path fill-rule="evenodd" clip-rule="evenodd" d="M20 5H4C3.44772 5 3 5.44772 3 6V16C3 16.5523 3.44772 17 4 17H20C20.5523 17 21 16.5523 21 16V6C21 5.44772 20.5523 5 20 5ZM4 4C2.89543 4 2 4.89543 2 6V16C2 17.1046 2.89543 18 4 18H20C21.1046 18 22 17.1046 22 16V6C22 4.89543 21.1046 4 20 4H4ZM5 7H6.5V8.5H5V7ZM6.5 10H5V11.5H6.5V10ZM5 13H6.5V14.5H5V13ZM9 7H7.5V8.5H9V7ZM7.5 10H9V11.5H7.5V10ZM16.5 13H7.5V14.5H16.5V13ZM12.5 7H14V8.5H12.5V7ZM14 10H12.5V11.5H14V10ZM17.5 7H19V8.5H17.5V7ZM19 10H17.5V11.5H19V10ZM17.5 13H19V14.5H17.5V13ZM16.5 7H15V8.5H16.5V7ZM15 10H16.5V11.5H15V10ZM11.5 7H10V8.5H11.5V7ZM10 10H11.5V11.5H10V10ZM8.12126 19.5149C7.85337 19.448 7.5819 19.6108 7.51493 19.8787C7.44795 20.1466 7.61083 20.4181 7.87873 20.4851L11.6362 21.4244C11.8751 21.4841 12.1249 21.4841 12.3638 21.4244L16.1213 20.4851C16.3892 20.4181 16.552 20.1466 16.4851 19.8787C16.4181 19.6108 16.1466 19.448 15.8787 19.5149L12.1213 20.4543C12.0416 20.4742 11.9583 20.4742 11.8787 20.4543L8.12126 19.5149Z" />
</svg>
