<svg width="24" height="24" viewBox="0 0 24 24" xmlns="http://www.w3.org/2000/svg">
<path d="M10.75 3.5C9.36929 3.5 8.25 4.61929 8.25 6H4V7H5.53744L6.44868 18.6942C6.55009 19.9957 7.63574 21 8.94113 21H15.0589C16.3643 21 17.4499 19.9957 17.5513 18.6942L18.4626 7L20 7V6L15.75 6C15.75 4.61929 14.6307 3.5 13.25 3.5H10.75ZM7.44566 18.6165L6.54048 7H8.25H9.25H14.75H15.75L17.4595 7L16.5543 18.6165C16.4935 19.3974 15.8421 20 15.0589 20H8.94113C8.1579 20 7.50651 19.3974 7.44566 18.6165ZM14.75 6C14.75 5.17157 14.0784 4.5 13.25 4.5H10.75C9.92157 4.5 9.25 5.17157 9.25 6H14.75ZM9 9V18H10V9H9ZM11.5 18V9H12.5V18H11.5ZM14 9V18H15V9H14Z" />
</svg>
