<svg width="24" height="24" viewBox="0 0 24 24" xmlns="http://www.w3.org/2000/svg">
<path d="M12 4.75C7.99594 4.75 4.75 7.99594 4.75 12H7L4 15L1 12H3.25C3.25 7.16751 7.16751 3.25 12 3.25C16.8325 3.25 20.75 7.16751 20.75 12C20.75 16.8325 16.8325 20.75 12 20.75C9.58498 20.75 7.39728 19.7706 5.81482 18.1892L6.87513 17.1282C8.18781 18.44 9.9986 19.25 12 19.25C16.0041 19.25 19.25 16.0041 19.25 12C19.25 7.99594 16.0041 4.75 12 4.75Z" />
<path d="M11 8V13L15.25 15.52L16.02 14.24L12.5 12.15V8H11Z" />
</svg>
