<svg width="24" height="24" viewBox="0 0 24 24" xmlns="http://www.w3.org/2000/svg">
<path d="M20.6,5.9h-2.9c-0.4,0-0.7,0.3-0.7,0.7c0,0.4,0.3,0.7,0.7,0.7h3v13.3H3.3V7.2h2.9c0.4,0,0.7-0.3,0.7-0.7 c0-0.4-0.3-0.7-0.7-0.7H3.4C2.7,5.8,2,6.4,2,7.1c0,0,0,0,0,0.1v13.3c0,0.7,0.6,1.3,1.3,1.3c0,0,0,0,0.1,0h17.2 c0.7,0,1.4-0.5,1.4-1.3c0,0,0,0,0-0.1V7.2C22,6.5,21.4,5.9,20.6,5.9C20.6,5.9,20.6,5.9,20.6,5.9z M6.8,13l5.2,5.2l5.2-5.2 c0.3-0.3,0.3-0.7,0-1c-0.3-0.3-0.7-0.3-1,0l-3.6,3.6V3.2c0-0.4-0.3-0.7-0.7-0.7c-0.4,0-0.7,0.3-0.7,0.7v12.4L7.7,12 c-0.3-0.3-0.7-0.3-1,0C6.5,12.3,6.5,12.7,6.8,13z" />
</svg>
