<svg width="24" height="24" viewBox="0 0 24 24" xmlns="http://www.w3.org/2000/svg">
<path fill-rule="evenodd" clip-rule="evenodd" d="M17 3.25C20.1756 3.25 22.75 5.82436 22.75 9V12C22.75 14.0167 21.8138 16.2244 19.75 17.045V20.5C19.75 20.7685 19.6064 21.0166 19.3735 21.1504C19.1407 21.2841 18.8541 21.2831 18.6221 21.1478L12.7972 17.75H11V16.25H13.2028L18.25 19.1942V15.9144L18.8181 15.7724C20.3573 15.3876 21.25 13.8068 21.25 12V9C21.25 6.65279 19.3472 4.75 17 4.75H9C6.65279 4.75 4.75 6.65279 4.75 9V11H3.25V9C3.25 5.82436 5.82436 3.25 9 3.25H17Z" />
<path fill-rule="evenodd" clip-rule="evenodd" d="M8.3125 14.6316V15.6842H8.875C9.49375 15.6842 10 16.1579 10 16.7368V20.9474C10 21.5263 9.49375 22 8.875 22H2.125C1.50625 22 1 21.5263 1 20.9474V16.7368C1 16.1579 1.50625 15.6842 2.125 15.6842H2.6875V14.6316C2.6875 13.1789 3.9475 12 5.5 12C7.0525 12 8.3125 13.1789 8.3125 14.6316ZM3.75625 15.6842H7.24375V14.6316C7.24375 13.7316 6.46187 13 5.5 13C4.53813 13 3.75625 13.7316 3.75625 14.6316V15.6842Z" />
</svg>
