<svg width="24" height="24" viewBox="0 0 24 24" xmlns="http://www.w3.org/2000/svg">
<path fill-rule="evenodd" clip-rule="evenodd" d="M11.4697 5.81281C11.1768 6.1057 11.1768 6.58058 11.4697 6.87347C11.7626 7.16636 12.2375 7.16636 12.5304 6.87347L13.9446 5.45926C15.2138 4.19005 17.2716 4.19005 18.5408 5.45926C19.81 6.72846 19.81 8.78625 18.5408 10.0555L15.7123 12.8839C14.4431 14.1531 12.3854 14.1531 11.1161 12.8839C10.8233 12.591 10.3484 12.591 10.0555 12.8839C9.7626 13.1768 9.7626 13.6516 10.0555 13.9445C11.9105 15.7995 14.918 15.7995 16.773 13.9445L19.6014 11.1161C21.4564 9.26112 21.4564 6.25359 19.6014 4.3986C17.7464 2.54361 14.7389 2.54361 12.8839 4.3986L11.4697 5.81281ZM4.39863 12.8839C2.54364 14.7389 2.54364 17.7464 4.39863 19.6014C6.25362 21.4564 9.26115 21.4564 11.1161 19.6014L12.5304 18.1872C12.8232 17.8943 12.8232 17.4194 12.5304 17.1265C12.2375 16.8336 11.7626 16.8336 11.4697 17.1265L10.0555 18.5407C8.78628 19.8099 6.72849 19.8099 5.45929 18.5407C4.19008 17.2715 4.19008 15.2137 5.45929 13.9445L8.28772 11.1161C9.55692 9.84691 11.6147 9.84691 12.8839 11.1161C13.1768 11.409 13.6517 11.409 13.9446 11.1161C14.2375 10.8232 14.2375 10.3484 13.9446 10.0555C12.0896 8.20047 9.08205 8.20047 7.22706 10.0555L4.39863 12.8839Z" />
</svg>
