<svg width="24" height="24" viewBox="0 0 24 24" xmlns="http://www.w3.org/2000/svg">
<path d="M20 18H8V16H20V18ZM20 13H8V11H20V13ZM20 8H8.023V6H20V8Z" />
<path d="M6.5 17C6.5 16.3096 5.94036 15.75 5.25 15.75C4.55964 15.75 4 16.3096 4 17C4 17.6904 4.55964 18.25 5.25 18.25C5.94036 18.25 6.5 17.6904 6.5 17Z" />
<path d="M6.5 12C6.5 11.3096 5.94036 10.75 5.25 10.75C4.55964 10.75 4 11.3096 4 12C4 12.6904 4.55964 13.25 5.25 13.25C5.94036 13.25 6.5 12.6904 6.5 12Z" />
<path d="M6.5 7C6.5 6.30964 5.94036 5.75 5.25 5.75C4.55964 5.75 4 6.30964 4 7C4 7.69036 4.55964 8.25 5.25 8.25C5.94036 8.25 6.5 7.69036 6.5 7Z" />
</svg>
