<svg width="24" height="24" viewBox="0 0 24 24" xmlns="http://www.w3.org/2000/svg">
<path opacity="0.2" fill-rule="evenodd" clip-rule="evenodd" d="M11.5 3C12.0523 3 12.5 3.44772 12.5 4L12.5 8C12.5 8.55228 12.0523 9 11.5 9C10.9477 9 10.5 8.55228 10.5 8L10.5 4C10.5 3.44772 10.9477 3 11.5 3Z" />
<path opacity="0.3" fill-rule="evenodd" clip-rule="evenodd" d="M9.37831 9.87871C8.98779 10.2692 8.35462 10.2692 7.9641 9.87871L5.13567 7.05028C4.74515 6.65976 4.74515 6.02659 5.13567 5.63607C5.52619 5.24554 6.15936 5.24554 6.54988 5.63607L9.37831 8.4645C9.76883 8.85502 9.76883 9.48818 9.37831 9.87871Z" />
<path opacity="0.4" fill-rule="evenodd" clip-rule="evenodd" d="M2.5 12C2.5 11.4477 2.94772 11 3.5 11L7.5 11C8.05228 11 8.5 11.4477 8.5 12C8.5 12.5523 8.05228 13 7.5 13L3.5 13C2.94772 13 2.5 12.5523 2.5 12Z" />
<path opacity="0.5" fill-rule="evenodd" clip-rule="evenodd" d="M5.13606 18.364C4.74554 17.9734 4.74554 17.3403 5.13606 16.9498L7.96449 14.1213C8.35501 13.7308 8.98818 13.7308 9.3787 14.1213C9.76923 14.5119 9.76923 15.145 9.3787 15.5355L6.55028 18.364C6.15975 18.7545 5.52659 18.7545 5.13606 18.364Z" />
<path opacity="0.6" fill-rule="evenodd" clip-rule="evenodd" d="M11.5 15C12.0523 15 12.5 15.4477 12.5 16L12.5 20C12.5 20.5523 12.0523 21 11.5 21C10.9477 21 10.5 20.5523 10.5 20L10.5 16C10.5 15.4477 10.9477 15 11.5 15Z" />
<path opacity="0.7" fill-rule="evenodd" clip-rule="evenodd" d="M17.8636 18.3639C17.4731 18.7545 16.8399 18.7545 16.4494 18.3639L13.621 15.5355C13.2304 15.145 13.2304 14.5118 13.621 14.1213C14.0115 13.7308 14.6447 13.7308 15.0352 14.1213L17.8636 16.9497C18.2541 17.3402 18.2541 17.9734 17.8636 18.3639Z" />
<path opacity="0.8" fill-rule="evenodd" clip-rule="evenodd" d="M14.5 12C14.5 11.4477 14.9477 11 15.5 11L19.5 11C20.0523 11 20.5 11.4477 20.5 12C20.5 12.5523 20.0523 13 19.5 13L15.5 13C14.9477 13 14.5 12.5523 14.5 12Z" />
<path opacity="0.9" fill-rule="evenodd" clip-rule="evenodd" d="M13.6213 9.87868C13.2308 9.48815 13.2308 8.85499 13.6213 8.46446L16.4497 5.63604C16.8403 5.24551 17.4734 5.24551 17.864 5.63604C18.2545 6.02656 18.2545 6.65973 17.864 7.05025L15.0355 9.87868C14.645 10.2692 14.0118 10.2692 13.6213 9.87868Z" />
</svg>
