<svg width="24" height="24" viewBox="0 0 24 24" xmlns="http://www.w3.org/2000/svg">
<path fill-rule="evenodd" clip-rule="evenodd" d="M8 3.25C4.82436 3.25 2.25 5.82436 2.25 9V12C2.25 14.0167 3.18621 16.2244 5.25 17.045V20.5C5.25 20.7685 5.39358 21.0166 5.62645 21.1504C5.85932 21.2841 6.14594 21.2831 6.3779 21.1478L12.2028 17.75H16C19.1756 17.75 21.75 15.1756 21.75 12V9C21.75 5.82436 19.1756 3.25 16 3.25H8ZM3.75 9C3.75 6.65279 5.65279 4.75 8 4.75H16C18.3472 4.75 20.25 6.65279 20.25 9V12C20.25 14.3472 18.3472 16.25 16 16.25H11.7972L6.75 19.1942V15.9144L6.1819 15.7724C4.64268 15.3876 3.75 13.8068 3.75 12V9ZM16.5 9.5H7.5V8H16.5V9.5ZM12.5 13H7.5V11.5H12.5V13Z" />
</svg>
