<svg width="24" height="24" viewBox="0 0 24 24" xmlns="http://www.w3.org/2000/svg">
<path d="M19.9,10.7V7.6c0-0.6-0.4-1-1-1h-2.8v-3c0-0.9-0.7-1.6-1.6-1.6H5.7C4.8,2,4.1,2.7,4.1,3.6v16.7c0,0.9,0.7,1.6,1.6,1.6h8.7 c0.9,0,1.6-0.7,1.6-1.6v-8.7h2.8C19.5,11.7,19.9,11.2,19.9,10.7z M14.6,18.7H5.5V5.3h9.1v1.3h-4.4c-0.6,0-1,0.4-1,1v3.1 c0,0.6,0.4,1,1,1h4.4V18.7z M10.3,10.7V7.6h8.6v3.1H10.3z M15.6,9.2c0,0.5-0.4,0.9-0.9,0.9s-0.9-0.4-0.9-0.9s0.4-0.9,0.9-0.9 S15.6,8.7,15.6,9.2z M12.9,9.2c0,0.5-0.4,0.9-0.9,0.9c-0.5,0-0.9-0.4-0.9-0.9s0.4-0.9,0.9-0.9C12.4,8.3,12.9,8.7,12.9,9.2z M18.2,9.2c0,0.5-0.4,0.9-0.9,0.9c-0.5,0-0.9-0.4-0.9-0.9s0.4-0.9,0.9-0.9C17.7,8.3,18.2,8.7,18.2,9.2z" />
</svg>
