<svg width="24" height="24" viewBox="0 0 24 24" xmlns="http://www.w3.org/2000/svg">
<path fill-rule="evenodd" clip-rule="evenodd" d="M19.0001 19.0001L20.1924 20.1924L21.253 19.1317L5.25305 3.13171L4.19239 4.19237L7.08005 7.08003C6.37432 8.16751 6 9.52408 6 11.0001V14.0001L4 18.0001V19.0001H9.25C9.25003 20.5118 10.4734 21.75 12 21.75C13.5142 21.75 14.75 20.5142 14.75 19.0001H19.0001ZM17.5001 17.5001L8.17155 8.17153C7.73879 8.94847 7.5 9.90696 7.5 11.0001V14.3542L5.92705 17.5001H17.5001ZM13.25 19.0001H10.75C10.75 19.6883 11.3067 20.25 12 20.25C12.6858 20.25 13.25 19.6858 13.25 19.0001Z" />
<path d="M18 11.0001V13.9393L16.5 12.4393V11.0001C16.5 8.4545 15.1844 6.62235 13.153 6.13937L13.1318 6.13432L13.1162 6.13012L13.1101 6.12859C13.1006 6.12625 13.0823 6.12185 13.0562 6.11604C13.0038 6.10436 12.9211 6.08729 12.8157 6.06979C12.6012 6.03419 12.3112 6 12 6C11.6888 6 11.3988 6.03419 11.1843 6.06979C11.0789 6.08729 10.9962 6.10436 10.9438 6.11604C10.9177 6.12185 10.8994 6.12625 10.89 6.12859L10.8838 6.13012L10.8676 6.13448L10.8458 6.13964C10.6751 6.18009 10.5095 6.22991 10.3494 6.28875L9.2104 5.14974C9.60696 4.94813 10.0374 4.78967 10.5 4.68005C10.5 4.68005 11.17 4.5 12 4.5C12.83 4.5 13.5 4.68005 13.5 4.68005C16.36 5.36005 18 7.93005 18 11.0001Z" />
</svg>
