<svg width="24" height="24" viewBox="0 0 24 24" xmlns="http://www.w3.org/2000/svg">
<path fill-rule="evenodd" clip-rule="evenodd" d="M15 8.5C15 10.1569 13.6569 11.5 12 11.5C10.3431 11.5 9 10.1569 9 8.5C9 6.84315 10.3431 5.5 12 5.5C13.6569 5.5 15 6.84315 15 8.5ZM14.6136 12.1637C15.7556 11.3475 16.5 10.0107 16.5 8.5C16.5 6.01472 14.4853 4 12 4C9.51472 4 7.5 6.01472 7.5 8.5C7.5 10.0107 8.24441 11.3475 9.38643 12.1637C6.25987 13.2078 4.25 16.1098 4.25 19.5H5.75C5.75 16.0286 8.29148 13.25 12 13.25C15.7085 13.25 18.25 16.0286 18.25 19.5H19.75C19.75 16.1098 17.7401 13.2078 14.6136 12.1637Z"  />
</svg>
