<svg width="24" height="24" viewBox="0 0 24 24" xmlns="http://www.w3.org/2000/svg">
<path fill-rule="evenodd" clip-rule="evenodd" d="M19 9.00001H16.41L21.43 3.98001L20.02 2.57001L15 7.59001V5.00001H13V11H19V9.00001ZM16.43 14.94C17.55 15.31 18.76 15.51 20 15.51C20.55 15.51 21 15.96 21 16.51V20C21 20.55 20.55 21 20 21C10.61 21 3 13.39 3 4C3 3.45 3.45 3 4 3H7.5C8.05 3 8.5 3.45 8.5 4C8.5 5.25 8.7 6.45 9.07 7.57C9.18 7.92 9.1 8.31 8.82 8.59L6.62 10.79C8.06 13.62 10.38 15.93 13.21 17.38L15.41 15.18C15.61 14.99 15.86 14.89 16.12 14.89C16.22 14.89 16.33 14.9 16.43 14.94Z" />
</svg>
