<svg width="24" height="24" viewBox="0 0 24 24" xmlns="http://www.w3.org/2000/svg">
<path fill-rule="evenodd" clip-rule="evenodd" d="M17 5.5H4C3.72386 5.5 3.5 5.72386 3.5 6V15C3.5 15.2761 3.72386 15.5 4 15.5H5V9C5 7.89543 5.89543 7 7 7H17.5V6C17.5 5.72386 17.2761 5.5 17 5.5ZM19 7H20C21.1046 7 22 7.89543 22 9V18C22 18.4226 21.8689 18.8146 21.6452 19.1375C21.6131 19.1839 21.5791 19.2288 21.5433 19.2722C21.1765 19.7167 20.6213 20 20 20H7C6.99569 20 6.99137 20 6.98707 20C6.33819 19.9958 5.76262 19.6827 5.40013 19.2004C5.14889 18.866 5 18.4504 5 18V17H4C2.89543 17 2 16.1046 2 15V6C2 4.89543 2.89543 4 4 4H17C18.1046 4 19 4.89543 19 6V7ZM20.5 17.9923L15.7367 13.229L11.6826 17.2831L9.5 15.1005L6.50846 18.092C6.5029 18.0622 6.5 18.0314 6.5 18V9C6.5 8.72386 6.72386 8.5 7 8.5H20C20.2761 8.5 20.5 8.72386 20.5 9V17.9923ZM12 12C12 12.5523 11.5523 13 11 13C10.4477 13 10 12.5523 10 12C10 11.4477 10.4477 11 11 11C11.5523 11 12 11.4477 12 12Z" />
</svg>
