<svg width="24" height="24" viewBox="0 0 24 24" xmlns="http://www.w3.org/2000/svg">
<path fill-rule="evenodd" clip-rule="evenodd" d="M20.5,10.1H20V6.4L15.6,2H5.8C4.8,2,4,2.8,4,3.8v6.4H3.5c-0.9,0-1.5,0.7-1.5,1.5 v4.5c0,0.9,0.7,1.5,1.5,1.5H4v2.5c0,1,0.8,1.8,1.8,1.8h12.5c1,0,1.8-0.8,1.8-1.8v-2.5h0.5c0.9,0,1.5-0.7,1.5-1.5v-4.5 C22,10.8,21.3,10.1,20.5,10.1z M5.5,3.8c0-0.1,0.1-0.2,0.2-0.2h8.8v3.2c0,0.4,0.3,0.8,0.8,0.8s3.2,0,3.2,0v2.6v1.5h-13v-1.5V3.8z  M18.5,20.2c0,0.1-0.1,0.2-0.2,0.2H5.8c-0.1,0-0.2-0.1-0.2-0.2v-2.5v-1.5h13v1.5V20.2z" />
</svg>
