<svg width="24" height="24" viewBox="0 0 24 24" xmlns="http://www.w3.org/2000/svg">
<path fill-rule="evenodd" clip-rule="evenodd" d="M7.67857 4.2619C7.67857 2.59912 9.02769 1.25 10.6905 1.25C12.3533 1.25 13.7024 2.59912 13.7024 4.2619V4.86905H16.5714C17.9809 4.86905 19.131 6.01912 19.131 7.42857V10.2976H19.7381C21.4009 10.2976 22.75 11.6467 22.75 13.3095C22.75 14.9723 21.4009 16.3214 19.7381 16.3214H19.131V19.1905C19.131 20.5999 17.9809 21.75 16.5714 21.75H12.3833V19.6429C12.3833 18.709 11.6244 17.95 10.6905 17.95C9.75659 17.95 8.99762 18.709 8.99762 19.6429V21.75H4.80952C3.40007 21.75 2.25 20.5999 2.25 19.1905V15.0024H4.35714C5.29102 15.0024 6.05 14.2434 6.05 13.3095C6.05 12.3756 5.29102 11.6167 4.35714 11.6167H2.25905V7.42857C2.25905 6.02402 3.39519 4.86905 4.80952 4.86905H7.67857V4.2619ZM10.6905 2.75C9.85612 2.75 9.17857 3.42755 9.17857 4.2619V6.36905H4.80952C4.23338 6.36905 3.75905 6.84265 3.75905 7.42857V10.1167H4.35714C6.11945 10.1167 7.55 11.5472 7.55 13.3095C7.55 15.0718 6.11945 16.5024 4.35714 16.5024H3.75V19.1905C3.75 19.7715 4.2285 20.25 4.80952 20.25H7.49762V19.6429C7.49762 17.8805 8.92817 16.45 10.6905 16.45C12.4528 16.45 13.8833 17.8805 13.8833 19.6429V20.25H16.5714C17.1525 20.25 17.631 19.7715 17.631 19.1905V14.8214H19.7381C20.5725 14.8214 21.25 14.1439 21.25 13.3095C21.25 12.4752 20.5725 11.7976 19.7381 11.7976H17.631V7.42857C17.631 6.84755 17.1525 6.36905 16.5714 6.36905H12.2024V4.2619C12.2024 3.42755 11.5248 2.75 10.6905 2.75Z" />
</svg>
