<svg width="24" height="24" viewBox="0 0 24 24" xmlns="http://www.w3.org/2000/svg">
<path fill-rule="evenodd" clip-rule="evenodd" d="M16 3.25C19.1756 3.25 21.75 5.82436 21.75 9V12C21.75 14.0167 20.8138 16.2244 18.75 17.045V20.5C18.75 20.7685 18.6064 21.0166 18.3735 21.1504C18.1407 21.2841 17.8541 21.2831 17.6221 21.1478L11.7972 17.75H8C4.82436 17.75 2.25 15.1756 2.25 12V9C2.25 5.82436 4.82436 3.25 8 3.25H16ZM20.25 9C20.25 6.65279 18.3472 4.75 16 4.75H8C5.65279 4.75 3.75 6.65279 3.75 9V12C3.75 14.3472 5.65279 16.25 8 16.25H12.2028L17.25 19.1942V15.9144L17.8181 15.7724C19.3573 15.3876 20.25 13.8068 20.25 12V9ZM16.5 9.5H7.5V8H16.5V9.5ZM12.5 13H7.5V11.5H12.5V13Z" />
</svg>
