<svg width="24" height="24" viewBox="0 0 24 24" xmlns="http://www.w3.org/2000/svg">
<path fill-rule="evenodd" clip-rule="evenodd" d="M9,11.3c1.2-2.7,2.3-5.4,4.1-7.8c1.2-1.7,1.2-1.5,2.3-0.1c2.8,3.6,5.4,7.5,7,11.8 c0,0.1,0.1,0.3,0.1,0.4c-0.5-0.9-1.1-1.9-1.6-2.8c-1.2-1.9-2.3-3.6-3.9-5.2c-0.4-0.4-0.7-0.6-1.2-0.9c-1-0.6-2-0.6-2.8,0.1 c-1.4,1.1-2.5,2.4-3.6,3.8C9.3,10.9,9.2,11.1,9,11.3z M17.3,13.7c0.4,1.4,0.9,2.8,0.9,4.3c0,0.6-0.3,1.2-0.8,1.6 c-0.6,0.5-1.4,0.8-2.2,1c-2.1,0.5-4.3,0.6-6.4,0.6c-1.1,0-2.1,0-3.2-0.1c2,0.4,3.9,0.6,5.9,0.7c2,0.1,4-0.1,6-0.2 c1.2-0.1,2.3-0.2,3.5-0.4c0.4-0.1,0.5-0.3,0.4-0.6c-0.1-0.6-0.4-1.2-0.6-1.7c-1.2-2.5-2.7-4.7-4.3-6.9C16.8,12.5,17.1,13,17.3,13.7z  M8.6,3.4C8.6,3.4,8.5,3.6,8.3,3.7c-2,2.7-3.6,5.7-5.1,8.8c-0.6,1.3-1.2,2.7-1.7,4.1c-0.1,0.4,0,0.6,0.4,0.7 c0.5,0.2,1.2,0.3,1.8,0.3c2.1,0.1,4.2,0,6.3-0.3c0.6-0.1,1.2-0.1,1.9-0.3c-0.8,0-1.5-0.1-2.3-0.3c-1.3-0.2-2.6-0.4-3.7-1.1 c-0.8-0.4-1.2-1.1-1.2-2c0-0.7,0.1-1.3,0.3-2C5.5,9.1,6.8,6.8,8,4.6C8.2,4.2,8.5,3.8,8.6,3.4L8.6,3.4z" />
</svg>
