<svg width="24" height="24" viewBox="0 0 24 24" xmlns="http://www.w3.org/2000/svg">
<path fill-rule="evenodd" clip-rule="evenodd" d="M8.87029 2.69677C8.96007 2.09826 9.46008 1.65002 10.08 1.65002H13.92C14.5166 1.65002 15.0485 2.07529 15.1417 2.69677L15.1426 2.70294L15.4443 4.83514C15.8099 5.01004 16.1541 5.21134 16.4842 5.43781L18.5093 4.62369L18.5308 4.61651C19.0359 4.44815 19.6863 4.60205 20.0079 5.17318L21.9324 8.50488L21.9388 8.51711C22.2061 9.02198 22.101 9.68453 21.6245 10.0657L21.6177 10.0711L19.9239 11.394C19.9414 11.5929 19.95 11.795 19.95 12C19.95 12.2067 19.9412 12.4074 19.9265 12.6017L21.6032 13.927C22.1061 14.3112 22.2081 14.9769 21.9196 15.4963L21.9135 15.5072L19.9959 18.8269C19.6901 19.3696 19.0431 19.5884 18.4842 19.371L18.4762 19.3679L16.4708 18.5617C16.1453 18.784 15.7992 18.9878 15.4324 19.1642L15.1323 21.2852C15.0578 21.9336 14.5029 22.35 13.92 22.35H10.08C9.45451 22.35 8.97704 21.9015 8.86456 21.3391L8.86038 21.3182L8.55566 19.1649C8.19007 18.99 7.84585 18.7887 7.51582 18.5622L5.49069 19.3764L5.46916 19.3835C4.96406 19.5519 4.31365 19.398 3.99204 18.8268L2.06763 15.4952L2.06115 15.4829C1.79387 14.9781 1.89903 14.3155 2.37547 13.9344L2.38229 13.9289L4.0764 12.6058C4.0587 12.4034 4.04999 12.1992 4.04999 12C4.04999 11.7945 4.06321 11.5888 4.08393 11.3908L2.39888 10.0747C1.89422 9.69068 1.79146 9.02384 2.08037 8.50379L2.08646 8.49284L4.00409 5.17314C4.30987 4.6304 4.95692 4.41167 5.51583 4.62902L5.52376 4.63211L7.52919 5.43836C7.85467 5.21606 8.20077 5.01226 8.56757 4.83583L8.87029 2.69677ZM10.3211 3.15002L9.93424 5.88363L9.53541 6.04641C9.01716 6.25794 8.53332 6.54679 8.08432 6.88627L7.7459 7.14215L5.19204 6.11547L3.50535 9.03555L5.69451 10.7454L5.62457 11.1825C5.58012 11.4603 5.54999 11.7418 5.54999 12C5.54999 12.2757 5.57135 12.5599 5.61257 12.8175L5.68251 13.2546L3.49335 14.9645L5.18004 17.8846L7.73559 16.8572L8.07452 17.1155C8.53183 17.4639 9.0029 17.7412 9.52341 17.9536L9.92224 18.1164L10.3091 20.85H13.6789L14.0657 18.1164L14.4646 17.9536C14.9828 17.7421 15.4667 17.4533 15.9157 17.1138L16.2541 16.8579L18.8079 17.8846L20.4953 14.9633L18.3453 13.2639L18.3953 12.8467C18.4287 12.5684 18.45 12.2871 18.45 12C18.45 11.7131 18.4287 11.4408 18.3874 11.1825L18.3175 10.7454L20.5066 9.03555L18.8199 6.11548L16.2644 7.14283L15.9255 6.8846C15.4681 6.53617 14.9971 6.25886 14.4766 6.04641L14.0777 5.88363L13.6909 3.15002H10.3211ZM12 9.15002C10.4342 9.15002 9.14999 10.4342 9.14999 12C9.14999 13.5658 10.4342 14.85 12 14.85C13.5658 14.85 14.85 13.5658 14.85 12C14.85 10.4342 13.5658 9.15002 12 9.15002ZM7.64999 12C7.64999 9.60581 9.60578 7.65002 12 7.65002C14.3942 7.65002 16.35 9.60581 16.35 12C16.35 14.3942 14.3942 16.35 12 16.35C9.60578 16.35 7.64999 14.3942 7.64999 12Z" />
</svg>
