<svg width="24" height="24" viewBox="0 0 24 24" xmlns="http://www.w3.org/2000/svg">
<path fill-rule="evenodd" clip-rule="evenodd" d="M13.4,2.3c-0.8-0.8-2-0.8-2.8,0L10,3C9.5,3.4,8.9,3.6,8.3,3.5 L7.5,3.4C6.4,3.2,5.4,3.9,5.2,5L5,5.9C4.9,6.5,4.6,7,4,7.3L3.2,7.7c-1,0.5-1.3,1.7-0.9,2.6l0.4,0.8c0.3,0.6,0.3,1.2,0,1.8l-0.4,0.8 c-0.5,1-0.1,2.1,0.9,2.6L4,16.7c0.5,0.3,0.9,0.8,1,1.4L5.2,19c0.2,1.1,1.2,1.8,2.3,1.6l0.9-0.1c0.6-0.1,1.2,0.1,1.7,0.5l0.6,0.6 c0.8,0.8,2,0.8,2.8,0L14,21c0.4-0.4,1.1-0.6,1.7-0.5l0.9,0.1c1.1,0.2,2.1-0.6,2.2-1.6l0.2-0.9c0.1-0.6,0.5-1.1,1-1.4l0.8-0.4 c1-0.5,1.3-1.7,0.9-2.6l-0.4-0.8c-0.3-0.6-0.3-1.2,0-1.8l0.4-0.8c0.5-1,0.1-2.1-0.9-2.6L20,7.3c-0.5-0.3-0.9-0.8-1-1.4L18.8,5 c-0.2-1.1-1.2-1.8-2.2-1.6l-0.9,0.1C15.1,3.6,14.5,3.4,14,3L13.4,2.3z M11.6,16l6-7l-1.1-1l-5.5,6.4l-3.4-3l-1,1.1l4,3.5 c0.2,0.1,0.3,0.2,0.5,0.2C11.3,16.2,11.4,16.1,11.6,16z" />
</svg>
