<svg width="24" height="24" viewBox="0 0 24 24" xmlns="http://www.w3.org/2000/svg">
<path fill-rule="evenodd" clip-rule="evenodd" d="M5.00465 3.42025C4.16334 3.49673 3.49676 4.16331 3.42028 5.00462L2.87343 11.02C2.79954 11.8328 3.09049 12.6364 3.66759 13.2135L11.4905 21.0364C12.5644 22.1103 14.3056 22.1103 15.3796 21.0364L21.0364 15.3795C22.1104 14.3056 22.1104 12.5644 21.0364 11.4905L13.2135 3.66756C12.6364 3.09046 11.8328 2.79951 11.02 2.8734L5.00465 3.42025ZM4.91412 5.14043C4.92505 5.02024 5.02027 4.92501 5.14046 4.91409L11.1558 4.36724C11.5253 4.33365 11.8906 4.4659 12.1529 4.72822L19.9758 12.5511C20.4639 13.0393 20.4639 13.8307 19.9758 14.3189L14.3189 19.9757C13.8308 20.4639 13.0393 20.4639 12.5512 19.9757L4.72825 12.1528C4.46593 11.8905 4.33368 11.5252 4.36727 11.1558L4.91412 5.14043ZM9.36396 7.86394C9.36396 8.69237 8.69239 9.36394 7.86396 9.36394C7.03553 9.36394 6.36396 8.69237 6.36396 7.86394C6.36396 7.03551 7.03553 6.36394 7.86396 6.36394C8.69239 6.36394 9.36396 7.03551 9.36396 7.86394Z" />
</svg>
