<svg width="24" height="24" viewBox="0 0 24 24" xmlns="http://www.w3.org/2000/svg">
<path d="M10.9515 18.7603L9.94181 15.3053H4.87381L3.86409 18.7603H2L6.2913 5H8.62141L12.8933 18.7603H10.9515ZM5.32041 13.7675H9.4952L7.41752 6.57775L5.32041 13.7675Z" />
<path d="M21.1456 16.3039C21.1456 16.7299 21.2168 17.0495 21.3592 17.2625C21.5016 17.4622 21.7152 17.6153 22 17.7218L21.5922 19C21.0615 18.9334 20.6343 18.7803 20.3107 18.5407C19.987 18.301 19.7476 17.9282 19.5922 17.4223C18.9061 18.4741 17.8899 19 16.5436 19C15.5339 19 14.7378 18.7071 14.1553 18.1213C13.5728 17.5354 13.2815 16.7699 13.2815 15.8245C13.2815 14.7061 13.6698 13.8474 14.4465 13.2482C15.2362 12.6491 16.3495 12.3495 17.7864 12.3495H19.3592V11.5706C19.3592 10.825 19.1844 10.2924 18.8349 9.9729C18.4854 9.65335 17.9482 9.49358 17.2233 9.49358C16.4725 9.49358 15.5534 9.67998 14.466 10.0528L14.0194 8.71469C15.288 8.23538 16.466 7.99572 17.5534 7.99572C18.7573 7.99572 19.6569 8.30195 20.2524 8.91441C20.8479 9.51355 21.1456 10.3723 21.1456 11.4907V16.3039ZM16.9514 17.622C17.9741 17.622 18.7767 17.0761 19.3592 15.9843V13.5678H18.0194C16.1294 13.5678 15.1844 14.2867 15.1844 15.7247C15.1844 16.3505 15.3333 16.8231 15.631 17.1427C15.9288 17.4622 16.3689 17.622 16.9514 17.622Z" />
</svg>
