<svg width="24" height="24" viewBox="0 0 24 24" xmlns="http://www.w3.org/2000/svg">
<path d="M19.4,12h-4.2c-0.2-0.1-0.5-0.3-0.8-0.4c-0.5-0.1-0.9-0.3-1.4-0.4c-0.5-0.1-0.9-0.2-1.4-0.3c-0.5-0.1-0.9-0.2-1.2-0.4 c-0.4-0.1-0.6-0.3-0.9-0.6C9.4,9.8,9.3,9.5,9.3,9.2c0-0.4,0.1-0.7,0.2-1c0.1-0.3,0.3-0.5,0.6-0.6c0.2-0.2,0.5-0.3,0.8-0.3 s0.6-0.1,1-0.1c0.8,0,1.5,0.2,2,0.6c0.5,0.4,0.8,1,0.9,1.8h1.5c0-0.6-0.1-1.2-0.4-1.7C15.7,7.4,15.4,7,15,6.7S14.2,6.2,13.6,6 c-0.5-0.1-1.1-0.2-1.7-0.2c-0.5,0-1.1,0.1-1.6,0.2C9.9,6.2,9.4,6.4,9,6.7c-0.4,0.3-0.7,0.6-1,1.1C7.8,8.2,7.7,8.7,7.7,9.3 c0,0.5,0.1,1,0.3,1.3c0.2,0.4,0.5,0.6,0.9,0.9c0.3,0.2,0.7,0.4,1.1,0.5H4.6v1.1h9.5c0.3,0.2,0.6,0.4,0.8,0.6c0.2,0.3,0.3,0.6,0.3,1 c0,0.4-0.1,0.8-0.3,1.1s-0.4,0.5-0.7,0.7s-0.6,0.3-1,0.3c-0.4,0.1-0.7,0.1-1.1,0.1c-0.4,0-0.9-0.1-1.3-0.2c-0.4-0.1-0.8-0.3-1.1-0.5 c-0.3-0.2-0.6-0.5-0.8-0.9S8.8,14.5,8.8,14H7.3c0,0.7,0.1,1.3,0.4,1.9s0.6,0.9,1.1,1.3s1,0.6,1.5,0.7c0.6,0.2,1.2,0.2,1.9,0.2 c0.5,0,1.1-0.1,1.6-0.2c0.5-0.1,1-0.3,1.5-0.6c0.4-0.3,0.8-0.6,1.1-1.1c0.3-0.4,0.4-1,0.4-1.6c0-0.6-0.1-1.1-0.3-1.4 c0,0,0-0.1-0.1-0.1h3V12z" />
</svg>
