<svg width="24" height="24" viewBox="0 0 24 24" xmlns="http://www.w3.org/2000/svg">
<path fill-rule="evenodd" clip-rule="evenodd" d="M19.6,7.1c0.8-0.5,1.5-1.3,1.9-2.2 c-0.8,0.5-1.8,0.8-2.7,0.9c-0.8-0.8-1.9-1.3-3-1.3c-2.3,0-4.2,1.9-4.2,4.1c0,0.3,0,0.7,0.1,0.9C8.2,9.4,5.2,7.7,3.2,5.3 C2.8,6,2.7,6.6,2.7,7.3c0,1.5,0.7,2.6,1.9,3.4c-0.7,0-1.4-0.3-1.9-0.5c0,2,1.5,3.6,3.4,4c-0.4,0.1-0.7,0.1-1.1,0.1 c-0.3,0-0.5,0-0.8-0.1c0.5,1.6,2,2.8,3.9,2.8c-1.5,1.1-3.2,1.7-5.1,1.7H2c1.9,1.2,4.1,1.9,6.4,1.9c7.7,0,11.8-6.2,11.8-11.5V8.5 c0.7-0.5,1.4-1.2,1.9-2C21.2,6.7,20.5,7,19.6,7.1L19.6,7.1L19.6,7.1z" />
</svg>
