<svg width="24" height="24" viewBox="0 0 24 24" xmlns="http://www.w3.org/2000/svg">
<path d="M18.3,11.7c1.1-2.1,0-3.9-2.4-3.9C15,7.7,14,7.9,13,8.3c0.7-2.3-0.5-3.7-2.7-3.1c0,0,0,0,0,0C6.4,6,1.2,11.6,1,15 c-0.3,1.8,0.9,3.3,3,4.5c2.3,1.3,6,1.8,9,1.5c0.7-0.1,1.4-0.2,2.1-0.4c0.5-0.1,1-0.3,1.5-0.5C21.3,18.6,23.1,14.4,18.3,11.7z  M14.9,17.9c-1.4,1.1-3.6,1.8-5.6,1.8c-1.5,0-2.9-0.3-4-0.9c-2.9-1.5-3.2-4.7-0.6-6.7c2.4-2,6.9-2.4,9.6-0.8 C17.2,12.8,17.5,15.9,14.9,17.9z M13.3,14.4c-1.2-4-8.1-2.4-7.3,1.8c0.3,1.4,1.9,2.4,3.4,2.3C11.7,18.6,13.8,16.5,13.3,14.4z  M8.6,14.8c0.7,0,1.3,0.6,1.3,1.3c-0.1,1.7-2.5,1.7-2.6,0C7.3,15.4,7.9,14.8,8.6,14.8z M17,6c-0.7,0-0.7,1.1,0,1.1 c1.1,0,2.1,0.9,2.1,2.1c0,0.3,0.3,0.6,0.6,0.6c0.3,0,0.6-0.3,0.6-0.6C20.2,7.5,18.8,6,17,6z M16.7,2.9c-0.1,0-0.3,0-0.4,0 c-0.4,0-0.7,0.4-0.7,0.8c0,0.4,0.4,0.7,0.8,0.7c2.8-0.2,5.2,2,5.2,4.8c0,0.3,0,0.7-0.1,1c-0.1,0.3,0.1,0.6,0.3,0.8 c0.3,0.2,0.6,0.2,0.9,0c0.1-0.1,0.2-0.3,0.3-0.4C23.7,6.6,20.6,2.8,16.7,2.9z M11.1,14c0.4,0,0.7,0.3,0.7,0.7c0,1-1.5,1-1.5,0 C10.3,14.4,10.6,14,11.1,14z" />
</svg>
