<svg width="24" height="24" viewBox="0 0 24 24" xmlns="http://www.w3.org/2000/svg">
<path d="M9.09398 21.006C8.4652 20.9718 7.87352 20.6976 7.44098 20.24C6.92358 19.7422 6.46186 19.1896 6.06398 18.592C5.44247 17.702 4.95118 16.7278 4.60498 15.699C4.21284 14.5922 4.00639 13.4282 3.99398 12.254C3.96385 11.1019 4.24949 9.96343 4.81998 8.96199C5.23755 8.24009 5.83317 7.63725 6.54998 7.21099C7.25887 6.78656 8.0678 6.5581 8.89398 6.54899C9.5168 6.58584 10.1288 6.7282 10.704 6.96999C11.1625 7.17175 11.6452 7.31359 12.14 7.39199C12.686 7.2776 13.2195 7.11014 13.733 6.89199C14.3406 6.65471 14.984 6.52184 15.636 6.49899C15.723 6.49899 15.809 6.49899 15.892 6.50899C17.3215 6.55045 18.6511 7.25218 19.492 8.40899C18.155 9.12384 17.334 10.5303 17.369 12.046C17.3558 13.1956 17.8351 14.2959 18.686 15.069C19.0689 15.4338 19.5148 15.7262 20.002 15.932C19.902 16.232 19.787 16.522 19.665 16.814C19.3877 17.4593 19.0456 18.0748 18.644 18.651C18.2648 19.2282 17.8235 19.762 17.328 20.243C16.8756 20.6919 16.2726 20.9567 15.636 20.986C15.0963 20.9621 14.5662 20.8355 14.074 20.613C13.5432 20.3817 12.9728 20.2551 12.394 20.24C11.7989 20.2517 11.2116 20.3776 10.664 20.611C10.191 20.8244 9.68573 20.9572 9.16898 21.004L9.09398 21.006ZM12.244 6.49899C12.169 6.49899 12.094 6.49899 12.019 6.48999C12.0032 6.37096 11.9949 6.25106 11.994 6.13099C12.0267 5.13213 12.4171 4.17823 13.094 3.44299C13.4723 3.02057 13.9309 2.67759 14.443 2.43399C14.9208 2.18799 15.4431 2.04009 15.979 1.99899C15.994 2.12999 15.994 2.25799 15.994 2.37999C15.9798 3.36314 15.6104 4.30797 14.954 5.03999C14.3105 5.90277 13.3185 6.43686 12.244 6.49899Z" />
</svg>
