<svg width="24" height="24" viewBox="0 0 24 24" xmlns="http://www.w3.org/2000/svg">
<path d="M12.5858 5.63989L7.14525 13.4885C6.09971 14.9968 6.47453 17.0653 7.98283 18.1108C9.49113 19.1564 11.5596 18.7816 12.6052 17.2733L18.5188 8.74215C19.1717 7.80031 18.9372 6.50606 17.9953 5.85319C17.0535 5.20032 15.7593 5.43485 15.1064 6.37668L10.1389 13.5428C9.8787 13.9182 9.97293 14.4382 10.3483 14.6984C10.7237 14.9586 11.2437 14.8644 11.5039 14.489L15.9983 8.00536L17.022 8.715L12.5276 15.1986C11.8747 16.1405 10.5805 16.375 9.63866 15.7221C8.69682 15.0693 8.4623 13.775 9.11517 12.8332L14.0827 5.66704C15.1282 4.15874 17.1967 3.78392 18.705 4.82946C20.2133 5.87499 20.5881 7.94349 19.5426 9.45179L13.6289 17.9829C12.1907 20.0577 9.34796 20.5728 7.27319 19.1346C5.19842 17.6964 4.68331 14.8536 6.12152 12.7789L11.5621 4.93025L12.5858 5.63989Z" />
</svg>
