<svg width="24" height="24" viewBox="0 0 24 24" xmlns="http://www.w3.org/2000/svg">
<path d="M8.89782 18.2426L18.1219 5.5595L16.5438 4.41183L8.02571 16.1243L2.44582 9.96743L1 11.2778L7.38589 18.3239C7.58313 18.5416 7.86792 18.6588 8.16121 18.643C8.45449 18.6272 8.72507 18.4801 8.89782 18.2426Z" />
<path d="M12.264 18.3239L11.0329 16.9656L12.2053 15.3535L12.9038 16.1243L21.422 4.41183L23 5.5595L13.7759 18.2426C13.6032 18.4801 13.3326 18.6272 13.0393 18.643C12.746 18.6588 12.4612 18.5416 12.264 18.3239Z" />
<path d="M7.32393 9.96743L9.52821 12.3996L8.35582 14.0117L5.87811 11.2778L7.32393 9.96743Z" />
</svg>
