<svg width="24" height="24" viewBox="0 0 24 24" xmlns="http://www.w3.org/2000/svg">
<path d="M12,21C12,21,12,21,12,21c-0.8,0-1.5-0.1-2.3-0.3l0.4-1.5c0.6,0.2,1.2,0.2,1.9,0.2c0.3,0,0.6,0,0.8,0l0.2,1.5 C12.7,21,12.4,21,12,21z M15.1,20.4L14.6,19c0.9-0.3,1.6-0.8,2.3-1.4l1,1.1C17.1,19.5,16.2,20.1,15.1,20.4z M7.7,19.9 c-1-0.5-1.8-1.2-2.5-2l1.1-1c0.6,0.7,1.3,1.3,2.1,1.7L7.7,19.9z M19.4,17.2l-1.2-0.9c0.5-0.8,0.9-1.6,1.1-2.5l1.5,0.4 C20.5,15.3,20,16.3,19.4,17.2z M4,16.1c-0.5-1-0.8-2-0.9-3.1l1.5-0.2c0.1,0.9,0.4,1.8,0.8,2.6L4,16.1z M19.5,12 c0-0.9-0.2-1.8-0.5-2.7l1.4-0.5c0.4,1,0.6,2.1,0.6,3.2L19.5,12z M4.6,11l-1.5-0.2c0.1-1.1,0.5-2.1,1-3.1l1.3,0.7 C5,9.2,4.7,10.1,4.6,11z M18.2,7.8C17.7,7,17,6.4,16.3,5.8l0.9-1.2C18,5.2,18.8,6,19.4,6.9L18.2,7.8z M6.5,6.9l-1.1-1 C6.1,5.1,7,4.5,7.9,4l0.7,1.3C7.8,5.7,7.1,6.3,6.5,6.9z M14.7,5c-0.9-0.3-1.7-0.5-2.7-0.5c0,0,0,0,0,0c-0.6,0-1.1,0.1-1.7,0.2 L10,3.2C10.6,3.1,11.3,3,12,3c0,0,0,0,0,0c1.1,0,2.2,0.2,3.2,0.6L14.7,5z" />
<polygon points="11.1,16 7.7,12.7 8.8,11.6 11.1,13.9 15.5,9.5 16.5,10.5" />
</svg>
