<svg width="24" height="24" viewBox="0 0 24 24" xmlns="http://www.w3.org/2000/svg">
<path d="M11.659 16.0731L19.4361 5.37948L18.1056 4.41183L10.9236 14.287L6.21902 9.09597L5 10.2008L10.3842 16.1416C10.5505 16.3251 10.7906 16.4239 11.0379 16.4106C11.2852 16.3973 11.5133 16.2733 11.659 16.0731Z" />
<path d="M14.4971 16.1416L13.4591 14.9964L14.4476 13.6372L15.0366 14.287L22.2185 4.41183L23.549 5.37948L15.7719 16.0731C15.6262 16.2733 15.3981 16.3973 15.1508 16.4106C14.9035 16.4239 14.6634 16.3251 14.4971 16.1416Z" />
<path d="M10.3319 9.09597L12.1905 11.1466L11.202 12.5058L9.11292 10.2008L10.3319 9.09597Z" />
<path fill-rule="evenodd" clip-rule="evenodd" d="M12 3.5C7.30843 3.5 3.5 7.30843 3.5 12C3.5 16.6916 7.30843 20.5 12 20.5C16.5303 20.5 20.2371 16.9489 20.4866 12.4806L21.8947 10.5445C21.9641 11.0197 22 11.5057 22 12C22 17.52 17.52 22 12 22C6.48 22 2 17.52 2 12C2 6.48 6.48 2 12 2C13.7582 2 15.4108 2.45449 16.8468 3.2523L15.9566 4.47631C14.7746 3.85295 13.4282 3.5 12 3.5Z" />
</svg>
