<svg width="24" height="24" viewBox="0 0 24 24" xmlns="http://www.w3.org/2000/svg">
<path fill-rule="evenodd" clip-rule="evenodd" d="M5 3.5H19C19.8284 3.5 20.5 4.17157 20.5 5V19C20.5 19.8284 19.8284 20.5 19 20.5H5C4.17157 20.5 3.5 19.8284 3.5 19V5C3.5 4.17157 4.17157 3.5 5 3.5ZM2 5C2 3.34315 3.34315 2 5 2H19C20.6569 2 22 3.34315 22 5V19C22 20.6569 20.6569 22 19 22H5C3.34315 22 2 20.6569 2 19V5ZM10.5303 9.03033C10.8232 8.73744 10.8232 8.26256 10.5303 7.96967C10.2374 7.67678 9.76256 7.67678 9.46967 7.96967L5.96967 11.4697C5.67678 11.7626 5.67678 12.2374 5.96967 12.5303L9.46967 16.0303C9.76256 16.3232 10.2374 16.3232 10.5303 16.0303C10.8232 15.7374 10.8232 15.2626 10.5303 14.9697L7.56066 12L10.5303 9.03033ZM14.5303 7.96967C14.2374 7.67678 13.7626 7.67678 13.4697 7.96967C13.1768 8.26256 13.1768 8.73744 13.4697 9.03033L16.4393 12L13.4697 14.9697C13.1768 15.2626 13.1768 15.7374 13.4697 16.0303C13.7626 16.3232 14.2374 16.3232 14.5303 16.0303L18.0303 12.5303C18.3232 12.2374 18.3232 11.7626 18.0303 11.4697L14.5303 7.96967Z"/>
</svg>