<svg width="24" height="24" viewBox="0 0 24 24" xmlns="http://www.w3.org/2000/svg">
<path fill-rule="evenodd" clip-rule="evenodd" d="M8.03033 6.96969C8.32322 7.26258 8.32322 7.73745 8.03033 8.03035L4.06066 12L8.03033 15.9697C8.32322 16.2626 8.32322 16.7375 8.03033 17.0303C7.73744 17.3232 7.26256 17.3232 6.96967 17.0303L2.46967 12.5303C2.32902 12.3897 2.25 12.1989 2.25 12C2.25 11.8011 2.32902 11.6103 2.46967 11.4697L6.96967 6.96969C7.26256 6.67679 7.73744 6.67679 8.03033 6.96969ZM16.1125 6.96969C16.4054 6.67679 16.8803 6.67679 17.1732 6.96969L21.6732 11.4697C21.8138 11.6103 21.8929 11.8011 21.8929 12C21.8929 12.1989 21.8138 12.3897 21.6732 12.5303L17.1732 17.0303C16.8803 17.3232 16.4054 17.3232 16.1125 17.0303C15.8196 16.7375 15.8196 16.2626 16.1125 15.9697L20.0822 12L16.1125 8.03035C15.8196 7.73745 15.8196 7.26258 16.1125 6.96969Z"/>
<path fill-rule="evenodd" clip-rule="evenodd" d="M14.7237 3.28416C15.1191 3.40771 15.3394 3.82836 15.2159 4.22372L10.2159 20.2237C10.0923 20.6191 9.67165 20.8394 9.27629 20.7159C8.88094 20.5923 8.66059 20.1717 8.78414 19.7763L13.7841 3.77631C13.9077 3.38095 14.3283 3.16061 14.7237 3.28416Z"/>
</svg>
