<svg width="24" height="24" viewBox="0 0 24 24" xmlns="http://www.w3.org/2000/svg">
<path fill-rule="evenodd" clip-rule="evenodd" d="M10.0303 6.96967C10.3232 7.26256 10.3232 7.73744 10.0303 8.03033L6.06066 12L10.0303 15.9697C10.3232 16.2626 10.3232 16.7374 10.0303 17.0303C9.73744 17.3232 9.26256 17.3232 8.96967 17.0303L4.46967 12.5303C4.17678 12.2374 4.17678 11.7626 4.46967 11.4697L8.96967 6.96967C9.26256 6.67678 9.73744 6.67678 10.0303 6.96967ZM14.1125 6.96967C14.4054 6.67678 14.8803 6.67678 15.1732 6.96967L19.6732 11.4697C19.9661 11.7626 19.9661 12.2374 19.6732 12.5303L15.1732 17.0303C14.8803 17.3232 14.4054 17.3232 14.1125 17.0303C13.8196 16.7374 13.8196 16.2626 14.1125 15.9697L18.0822 12L14.1125 8.03033C13.8196 7.73744 13.8196 7.26256 14.1125 6.96967Z"/>
</svg>
