<svg width="24" height="24" viewBox="0 0 24 24" xmlns="http://www.w3.org/2000/svg">
<path fill-rule="evenodd" clip-rule="evenodd" d="M4.5 2C3.11929 2 2 3.11929 2 4.5V19.5C2 20.8807 3.11929 22 4.5 22H19.5C20.8807 22 22 20.8807 22 19.5V4.5C22 3.11929 20.8807 2 19.5 2H4.5ZM15.75 7H20.75V10.75H17.0403C17.2355 11.1428 17.3862 11.5617 17.4856 12H20.75V15.75H17.0403C16.8142 16.2051 16.5282 16.6252 16.1927 17H20.75V19.5C20.75 20.1904 20.1904 20.75 19.5 20.75H15.75V17.4427C15.3752 17.7782 14.9551 18.0642 14.5 18.2903V20.75H9.5V18.2903C9.04493 18.0642 8.62484 17.7782 8.25 17.4427V20.75H4.5C3.80964 20.75 3.25 20.1904 3.25 19.5V17H7.8073C7.47181 16.6252 7.18585 16.2051 6.9597 15.75H3.25V12H6.51439C6.61384 11.5617 6.76449 11.1428 6.9597 10.75H3.25V7H8.25V9.0573C8.62484 8.72181 9.04493 8.43585 9.5 8.2097V7H14.5V8.2097C14.9551 8.43585 15.3752 8.72181 15.75 9.0573V7Z"/>
<path fill-rule="evenodd" clip-rule="evenodd" d="M8.90641 16.3436C10.615 18.0521 13.385 18.0521 15.0936 16.3436C16.8021 14.635 16.8021 11.865 15.0936 10.1564C13.385 8.44786 10.615 8.44786 8.90641 10.1564C7.19786 11.865 7.19786 14.635 8.90641 16.3436ZM13.7678 12.3661C14.0118 12.122 14.0118 11.7263 13.7678 11.4822C13.5237 11.2382 13.128 11.2382 12.8839 11.4822L12 12.3661L11.1161 11.4822C10.872 11.2382 10.4763 11.2382 10.2322 11.4822C9.98816 11.7263 9.98816 12.122 10.2322 12.3661L11.1161 13.25L10.2322 14.1339C9.98816 14.378 9.98816 14.7737 10.2322 15.0178C10.4763 15.2618 10.872 15.2618 11.1161 15.0178L12 14.1339L12.8839 15.0178C13.128 15.2618 13.5237 15.2618 13.7678 15.0178C14.0118 14.7737 14.0118 14.378 13.7678 14.1339L12.8839 13.25L13.7678 12.3661Z"/>
</svg>
