<svg width="24" height="24" viewBox="0 0 24 24" fill="none" xmlns="http://www.w3.org/2000/svg">
<path fill-rule="evenodd" clip-rule="evenodd" d="M7 3.25L7 8.24939C6.21511 9.29407 5.75 10.5927 5.75 12L5.75 3.25H3.25V20.75H5.75L5.75 12C5.75 13.4073 6.21511 14.7059 7 15.7506V20.75C7 21.4404 6.44036 22 5.75 22H3.25C2.55964 22 2 21.4404 2 20.75V3.25C2 2.55964 2.55964 2 3.25 2H5.75C6.44036 2 7 2.55964 7 3.25ZM14.5 3.25V6.27005C14.1031 6.09665 13.6848 5.96327 13.25 5.87502V3.25H10.75V5.87502C10.3152 5.96327 9.89688 6.09665 9.5 6.27005V3.25C9.5 2.55964 10.0596 2 10.75 2H13.25C13.9404 2 14.5 2.55964 14.5 3.25ZM18.25 20.75H20.75V3.25H18.25V11.9976C18.2495 10.5912 17.7844 9.29348 17 8.24939V3.25C17 2.55964 17.5596 2 18.25 2H20.75C21.4404 2 22 2.55964 22 3.25V20.75C22 21.4404 21.4404 22 20.75 22H18.25C17.5596 22 17 21.4404 17 20.75V15.7506C17.7844 14.7065 18.2495 13.4088 18.25 12.0024V20.75ZM10.75 18.125V20.75H13.25V18.125C13.6848 18.0367 14.1031 17.9033 14.5 17.7299V20.75C14.5 21.4404 13.9404 22 13.25 22H10.75C10.0596 22 9.5 21.4404 9.5 20.75V17.7299C9.89688 17.9033 10.3152 18.0367 10.75 18.125ZM15.0936 15.0936C13.385 16.8021 10.615 16.8021 8.90641 15.0936C7.19786 13.385 7.19786 10.615 8.90641 8.90641C10.615 7.19786 13.385 7.19786 15.0936 8.90641C16.8021 10.615 16.8021 13.385 15.0936 15.0936ZM13.7678 13.7678C13.5237 14.0118 13.128 14.0118 12.8839 13.7678L12 12.8839L11.1161 13.7678C10.872 14.0118 10.4763 14.0118 10.2322 13.7678C9.98816 13.5237 9.98816 13.128 10.2322 12.8839L11.1161 12L10.2322 11.1161C9.98816 10.872 9.98815 10.4763 10.2322 10.2322C10.4763 9.98816 10.872 9.98816 11.1161 10.2322L12 11.1161L12.8839 10.2322C13.128 9.98816 13.5237 9.98816 13.7678 10.2322C14.0118 10.4763 14.0118 10.872 13.7678 11.1161L12.8839 12L13.7678 12.8839C14.0118 13.128 14.0118 13.5237 13.7678 13.7678Z" fill="white"/>
</svg>
