<svg width="24" height="24" viewBox="0 0 24 24" fill="none" xmlns="http://www.w3.org/2000/svg">
<path fill-rule="evenodd" clip-rule="evenodd" d="M3.25 17L8.24939 17C9.29407 17.7849 10.5927 18.25 12 18.25L3.25 18.25V20.75H20.75V18.25L12 18.25C13.4073 18.25 14.7059 17.7849 15.7506 17H20.75C21.4404 17 22 17.5596 22 18.25V20.75C22 21.4404 21.4404 22 20.75 22H3.25C2.55964 22 2 21.4404 2 20.75V18.25C2 17.5596 2.55964 17 3.25 17ZM3.25 9.5H6.27005C6.09665 9.89688 5.96327 10.3152 5.87502 10.75H3.25V13.25H5.87502C5.96327 13.6848 6.09665 14.1031 6.27005 14.5H3.25C2.55964 14.5 2 13.9404 2 13.25V10.75C2 10.0596 2.55964 9.5 3.25 9.5ZM20.75 5.75V3.25H3.25V5.75H11.9976C10.5912 5.75053 9.29348 6.21556 8.24939 7H3.25C2.55964 7 2 6.44036 2 5.75V3.25C2 2.55964 2.55964 2 3.25 2H20.75C21.4404 2 22 2.55964 22 3.25V5.75C22 6.44036 21.4404 7 20.75 7H15.7506C14.7065 6.21556 13.4088 5.75053 12.0024 5.75H20.75ZM18.125 13.25H20.75V10.75H18.125C18.0367 10.3152 17.9033 9.89688 17.7299 9.5H20.75C21.4404 9.5 22 10.0596 22 10.75V13.25C22 13.9404 21.4404 14.5 20.75 14.5H17.7299C17.9033 14.1031 18.0367 13.6848 18.125 13.25ZM15.0936 8.90641C16.8021 10.615 16.8021 13.385 15.0936 15.0936C13.385 16.8021 10.615 16.8021 8.90641 15.0936C7.19786 13.385 7.19786 10.615 8.90641 8.90641C10.615 7.19786 13.385 7.19786 15.0936 8.90641ZM13.7678 10.2322C14.0118 10.4763 14.0118 10.872 13.7678 11.1161L12.8839 12L13.7678 12.8839C14.0118 13.128 14.0118 13.5237 13.7678 13.7678C13.5237 14.0118 13.128 14.0118 12.8839 13.7678L12 12.8839L11.1161 13.7678C10.872 14.0118 10.4763 14.0118 10.2322 13.7678C9.98816 13.5237 9.98816 13.128 10.2322 12.8839L11.1161 12L10.2322 11.1161C9.98816 10.872 9.98816 10.4763 10.2322 10.2322C10.4763 9.98816 10.872 9.98816 11.1161 10.2322L12 11.1161L12.8839 10.2322C13.128 9.98816 13.5237 9.98816 13.7678 10.2322Z" fill="white"/>
</svg>
