<svg width="24" height="24" viewBox="0 0 24 24" xmlns="http://www.w3.org/2000/svg">
<path fill-rule="evenodd" clip-rule="evenodd" d="M12 2C6.47514 2 2 6.58772 2 12.2516C2 16.7826 4.86679 20.6215 8.83855 21.9808C9.33579 22.0752 9.51995 21.7605 9.51995 21.4836C9.51995 21.2382 9.51381 20.5963 9.50767 19.7404C6.72683 20.3572 6.13751 18.3685 6.13751 18.3685C5.68324 17.1854 5.0264 16.8707 5.0264 16.8707C4.11786 16.2351 5.09392 16.2477 5.09392 16.2477C6.09454 16.3232 6.62861 17.305 6.62861 17.305C7.51872 18.872 8.96746 18.4189 9.53837 18.1546C9.63045 17.4938 9.88827 17.0407 10.1707 16.7826C7.94843 16.5246 5.61571 15.6436 5.61571 11.7166C5.61571 10.5965 6.00246 9.68395 6.64702 8.96653C6.54266 8.70851 6.19889 7.66385 6.74524 6.25418C6.74524 6.25418 7.58625 5.97728 9.4954 7.30514C10.2934 7.07858 11.1467 6.96531 12 6.95901C12.8471 6.95901 13.7066 7.07858 14.5046 7.30514C16.4137 5.97728 17.2548 6.25418 17.2548 6.25418C17.8011 7.66385 17.4573 8.70851 17.353 8.96653C17.9914 9.68395 18.3781 10.5965 18.3781 11.7166C18.3781 15.6562 16.0393 16.5183 13.8109 16.7763C14.167 17.091 14.4923 17.7203 14.4923 18.6769C14.4923 20.0488 14.48 21.1501 14.48 21.4899C14.48 21.7668 14.6581 22.0815 15.1676 21.9808C19.1393 20.6215 22 16.7826 22 12.2579C22 6.58772 17.5249 2 12 2Z" />
</svg>
