<svg width="24" height="24" viewBox="0 0 24 24" xmlns="http://www.w3.org/2000/svg">
<path fill-rule="evenodd" clip-rule="evenodd" d="M5.308 17.42L2.50001 20.228L3.56067 21.2886L21.5607 3.28863L20.5 2.22797L17.0808 5.64714C15.542 4.91178 13.8193 4.50002 12 4.50002C7 4.50002 2.73 7.61002 1 12C1.87017 14.2081 3.38294 16.0924 5.308 17.42ZM6.38911 16.3389C4.76382 15.2815 3.45356 13.7778 2.63092 12C4.27128 8.45514 7.85043 6.00002 12 6.00002C13.3971 6.00002 14.7296 6.27833 15.9451 6.78284L14.1204 8.60762C13.5056 8.2226 12.7788 8.00002 12 8.00002C9.79086 8.00002 8 9.79088 8 12C8 12.7788 8.22258 13.5057 8.6076 14.1204L6.38911 16.3389ZM9.71412 13.0139L13.0138 9.71414C12.704 9.5765 12.3609 9.50002 12 9.50002C10.6193 9.50002 9.5 10.6193 9.5 12C9.5 12.3609 9.57648 12.704 9.71412 13.0139ZM12 19.5C10.608 19.5 9.27263 19.259 8.03287 18.8164L9.22698 17.6223C10.1094 17.8685 11.0394 18 12 18C16.1496 18 19.7287 15.5449 21.3691 12C20.7064 10.5679 19.7273 9.31368 18.5219 8.32732L19.5871 7.26218C21.0866 8.52154 22.2697 10.1467 23 12C21.27 16.39 17 19.5 12 19.5ZM10.9804 15.8689C11.3059 15.9545 11.6476 16 12 16C14.2091 16 16 14.2092 16 12C16 11.6476 15.9544 11.3059 15.8689 10.9804L14.4717 12.3776C14.3083 13.456 13.456 14.3083 12.3776 14.4717L10.9804 15.8689Z" />
</svg>
