<svg width="24" height="24" viewBox="0 0 24 24" xmlns="http://www.w3.org/2000/svg">
<path d="M20.1857 18.4359C20.2678 18.1259 20.275 17.7859 20.1856 17.4333C19.4013 14.3407 17.1714 12.3545 14.5303 11.4747C14.0858 11.3267 13.6297 11.2099 13.1669 11.1245L15.4694 13.523C16.6185 14.1794 17.5748 15.1315 18.1968 16.364L20.1857 18.4359Z"/>
<path d="M10.3248 12.496C7.27402 12.8016 4.57397 14.6255 3.76841 17.802C3.72284 17.9817 3.76593 18.1209 3.86176 18.2353C3.971 18.3657 4.14232 18.45 4.32258 18.45H16.0407L17.4807 19.95H4.32258C3.04727 19.95 1.97176 18.7845 2.31444 17.4333C3.09871 14.3407 5.32857 12.3545 7.96967 11.4747C8.32653 11.3558 8.69089 11.2572 9.06021 11.1787L10.3248 12.496Z"/>
<path d="M7.07185 4.77555C7.73615 3.11949 9.3565 1.95001 11.25 1.95001C13.7353 1.95001 15.75 3.96473 15.75 6.45001C15.75 7.79436 15.1605 9.00103 14.2259 9.8256C13.799 10.2022 13.3002 10.4991 12.7526 10.693L11.5455 9.43564C13.0637 9.2872 14.25 8.00714 14.25 6.45001C14.25 4.79316 12.9069 3.45001 11.25 3.45001C9.73473 3.45001 8.48184 4.57341 8.27878 6.03278L7.07185 4.77555Z"/>
<path fill-rule="evenodd" clip-rule="evenodd" d="M20.459 21.9694L2.45896 3.21941L3.54104 2.18061L21.541 20.9306L20.459 21.9694Z"/>
</svg>
