<svg width="24" height="24" viewBox="0 0 24 24" xmlns="http://www.w3.org/2000/svg">
<path fill-rule="evenodd" clip-rule="evenodd" d="M3.25 22C2.55964 22 2 21.4404 2 20.75V18.25C2 17.5596 2.55964 17 3.25 17H20.75C21.4404 17 22 17.5596 22 18.25V20.75C22 21.4404 21.4404 22 20.75 22H3.25ZM20.75 20.75H3.25V18.25H20.75V20.75Z"/>
<path d="M3.25 14.5H20.75V12H12.8526C13.502 11.6845 14.0885 11.2599 14.5884 10.75L20.75 10.75C21.4404 10.75 22 11.3096 22 12V14.5C22 15.1904 21.4404 15.75 20.75 15.75H3.25C2.55964 15.75 2 15.1904 2 14.5V12C2 11.3096 2.55964 10.75 3.25 10.75H5.66161C6.16148 11.2599 6.74804 11.6845 7.39743 12L3.25 12V14.5Z"/>
<path fill-rule="evenodd" clip-rule="evenodd" d="M14.5 6.375C14.5 3.95875 12.5412 2 10.125 2C7.70875 2 5.75 3.95875 5.75 6.375C5.75 8.79125 7.70875 10.75 10.125 10.75C12.5412 10.75 14.5 8.79125 14.5 6.375ZM10.125 8.875C10.4702 8.875 10.75 8.59518 10.75 8.25V7H12C12.3452 7 12.625 6.72018 12.625 6.375C12.625 6.02982 12.3452 5.75 12 5.75H10.75V4.5C10.75 4.15482 10.4702 3.875 10.125 3.875C9.77982 3.875 9.5 4.15482 9.5 4.5V5.75H8.25C7.90482 5.75 7.625 6.02982 7.625 6.375C7.625 6.72018 7.90482 7 8.25 7H9.5V8.25C9.5 8.59518 9.77982 8.875 10.125 8.875Z"/>
</svg>
