<svg width="24" height="24" viewBox="0 0 24 24" xmlns="http://www.w3.org/2000/svg">
<path fill-rule="evenodd" clip-rule="evenodd" d="M2 20.75C2 21.4404 2.55964 22 3.25 22H5.75C6.44036 22 7 21.4404 7 20.75V3.25C7 2.55964 6.44036 2 5.75 2H3.25C2.55964 2 2 2.55964 2 3.25V20.75ZM3.25 3.25V20.75H5.75V3.25H3.25Z"/>
<path d="M9.5 20.75V3.25H12V11.1474C12.3155 10.498 12.7401 9.91148 13.25 9.4116L13.25 3.25C13.25 2.55964 12.6904 2 12 2H9.5C8.80964 2 8.25 2.55964 8.25 3.25V20.75C8.25 21.4404 8.80964 22 9.5 22H12C12.6904 22 13.25 21.4404 13.25 20.75V18.3384C12.7401 17.8385 12.3155 17.252 12 16.6026L12 20.75H9.5Z"/>
<path fill-rule="evenodd" clip-rule="evenodd" d="M17.625 9.5C20.0412 9.5 22 11.4588 22 13.875C22 16.2912 20.0412 18.25 17.625 18.25C15.2088 18.25 13.25 16.2912 13.25 13.875C13.25 11.4588 15.2088 9.5 17.625 9.5ZM15.125 13.875C15.125 13.5298 15.4048 13.25 15.75 13.25H17V12C17 11.6548 17.2798 11.375 17.625 11.375C17.9702 11.375 18.25 11.6548 18.25 12V13.25H19.5C19.8452 13.25 20.125 13.5298 20.125 13.875C20.125 14.2202 19.8452 14.5 19.5 14.5H18.25V15.75C18.25 16.0952 17.9702 16.375 17.625 16.375C17.2798 16.375 17 16.0952 17 15.75V14.5H15.75C15.4048 14.5 15.125 14.2202 15.125 13.875Z"/>
</svg>
