<svg width="24" height="24" viewBox="0 0 24 24" xmlns="http://www.w3.org/2000/svg">
<path fill-rule="evenodd" clip-rule="evenodd" d="M20.75 2C21.4404 2 22 2.55964 22 3.25V5.75C22 6.44036 21.4404 7 20.75 7H3.25C2.55964 7 2 6.44036 2 5.75V3.25C2 2.55964 2.55964 2 3.25 2H20.75ZM3.25 3.25H20.75V5.75H3.25V3.25Z"/>
<path d="M20.75 9.5H3.25V12H11.1474C10.498 12.3155 9.91148 12.7401 9.4116 13.25L3.25 13.25C2.55964 13.25 2 12.6904 2 12V9.5C2 8.80964 2.55964 8.25 3.25 8.25H20.75C21.4404 8.25 22 8.80964 22 9.5V12C22 12.6904 21.4404 13.25 20.75 13.25H18.3384C17.8385 12.7401 17.252 12.3155 16.6026 12L20.75 12V9.5Z"/>
<path fill-rule="evenodd" clip-rule="evenodd" d="M9.5 17.625C9.5 20.0412 11.4588 22 13.875 22C16.2912 22 18.25 20.0412 18.25 17.625C18.25 15.2088 16.2912 13.25 13.875 13.25C11.4588 13.25 9.5 15.2088 9.5 17.625ZM13.875 15.125C13.5298 15.125 13.25 15.4048 13.25 15.75V17H12C11.6548 17 11.375 17.2798 11.375 17.625C11.375 17.9702 11.6548 18.25 12 18.25H13.25V19.5C13.25 19.8452 13.5298 20.125 13.875 20.125C14.2202 20.125 14.5 19.8452 14.5 19.5V18.25H15.75C16.0952 18.25 16.375 17.9702 16.375 17.625C16.375 17.2798 16.0952 17 15.75 17H14.5V15.75C14.5 15.4048 14.2202 15.125 13.875 15.125Z"/>
</svg>
