<svg width="24" height="24" viewBox="0 0 24 24" xmlns="http://www.w3.org/2000/svg">
<path fill-rule="evenodd" clip-rule="evenodd" d="M22 3.25C22 2.55964 21.4404 2 20.75 2H18.25C17.5596 2 17 2.55964 17 3.25V20.75C17 21.4404 17.5596 22 18.25 22H20.75C21.4404 22 22 21.4404 22 20.75V3.25ZM20.75 20.75V3.25H18.25V20.75H20.75Z"/>
<path d="M14.5 3.25V20.75H12V12.8526C11.6845 13.502 11.2599 14.0885 10.75 14.5884L10.75 20.75C10.75 21.4404 11.3096 22 12 22H14.5C15.1904 22 15.75 21.4404 15.75 20.75V3.25C15.75 2.55964 15.1904 2 14.5 2H12C11.3096 2 10.75 2.55964 10.75 3.25V5.66161C11.2599 6.16148 11.6845 6.74804 12 7.39743L12 3.25H14.5Z"/>
<path fill-rule="evenodd" clip-rule="evenodd" d="M6.375 14.5C3.95875 14.5 2 12.5412 2 10.125C2 7.70875 3.95875 5.75 6.375 5.75C8.79125 5.75 10.75 7.70875 10.75 10.125C10.75 12.5412 8.79125 14.5 6.375 14.5ZM8.875 10.125C8.875 10.4702 8.59518 10.75 8.25 10.75H7V12C7 12.3452 6.72018 12.625 6.375 12.625C6.02982 12.625 5.75 12.3452 5.75 12V10.75H4.5C4.15482 10.75 3.875 10.4702 3.875 10.125C3.875 9.77982 4.15482 9.5 4.5 9.5H5.75V8.25C5.75 7.90482 6.02982 7.625 6.375 7.625C6.72018 7.625 7 7.90482 7 8.25V9.5H8.25C8.59518 9.5 8.875 9.77982 8.875 10.125Z"/>
</svg>
