<svg width="24" height="24" viewBox="0 0 24 24" xmlns="http://www.w3.org/2000/svg">
<path d="M19.9,11.2c0.4,0,0.7,0.3,0.7,0.6l0,0.1v6.9c0,1.7-1.3,3.1-3,3.2l-0.2,0H6.6c-1.7,0-3.1-1.3-3.2-3l0-0.2v-6.9 c0-0.4,0.3-0.7,0.7-0.7c0.4,0,0.7,0.3,0.7,0.6l0,0.1v6.9c0,0.9,0.7,1.6,1.6,1.7l0.1,0h10.8c0.9,0,1.6-0.7,1.7-1.6l0-0.1v-6.9 C19.1,11.5,19.5,11.2,19.9,11.2L19.9,11.2z M17.7,7.7L12,2L6.3,7.7C6,8,6,8.4,6.3,8.7c0.3,0.3,0.8,0.3,1,0l3.9-3.9v11.5 c0,0.4,0.3,0.7,0.7,0.7s0.7-0.3,0.7-0.7V4.8l3.9,3.9c0.3,0.3,0.8,0.3,1,0C18,8.4,18,8,17.7,7.7z" />
</svg>
