<svg width="24" height="24" viewBox="0 0 24 24" xmlns="http://www.w3.org/2000/svg">
<path fill-rule="evenodd" clip-rule="evenodd" d="M10.4354 6.68192C8.23006 5.79979 5.76994 5.79979 3.56464 6.68192L2.75 7.00777V17.8061C5.46226 16.6384 8.53774 16.6384 11.25 17.8061V7.00777L10.4354 6.68192ZM12.75 7.00777V17.8061C15.4623 16.6384 18.5377 16.6384 21.25 17.8061V7.00777L20.4354 6.68192C18.2301 5.79979 15.7699 5.79979 13.5646 6.68192L12.75 7.00777ZM12 5.69222L10.9925 5.2892C8.42953 4.26403 5.57047 4.26403 3.00755 5.2892L1.72146 5.80364C1.43671 5.91753 1.25 6.19332 1.25 6.49999V19C1.25 19.2599 1.38459 19.5013 1.6057 19.638C1.82681 19.7746 2.10292 19.7871 2.33541 19.6708L2.86327 19.4069C5.4674 18.1048 8.5326 18.1048 11.1367 19.4069L11.6646 19.6708C11.8757 19.7764 12.1243 19.7764 12.3354 19.6708L12.8633 19.4069C15.4674 18.1048 18.5326 18.1048 21.1367 19.4069L21.6646 19.6708C21.8971 19.7871 22.1732 19.7746 22.3943 19.638C22.6154 19.5013 22.75 19.2599 22.75 19V6.49999C22.75 6.19332 22.5633 5.91753 22.2785 5.80364L20.9925 5.2892C18.4295 4.26403 15.5705 4.26403 13.0075 5.2892L12 5.69222Z" />
</svg>
