<svg width="24" height="24" viewBox="0 0 24 24" xmlns="http://www.w3.org/2000/svg">
<path fill-rule="evenodd" clip-rule="evenodd" d="M14.1939 18.4002C13.3688 20.0504 12.5065 20.5 12 20.5C11.4935 20.5 10.6312 20.0504 9.80611 18.4002C9.10247 16.993 8.6057 15.0162 8.51495 12.75H15.4851C15.3943 15.0162 14.8975 16.993 14.1939 18.4002ZM15.4851 11.25H8.51495C8.6057 8.98382 9.10247 7.00703 9.80611 5.59975C10.6312 3.94957 11.4935 3.5 12 3.5C12.5065 3.5 13.3688 3.94957 14.1939 5.59975C14.8975 7.00703 15.3943 8.98382 15.4851 11.25ZM16.9861 12.75C16.8776 15.678 16.1387 18.2551 15.0398 19.9403C18.0102 18.8025 20.1792 16.0458 20.4674 12.75H16.9861ZM20.4674 11.25H16.9861C16.8776 8.32202 16.1387 5.74493 15.0398 4.05969C18.0102 5.19753 20.1792 7.95418 20.4674 11.25ZM7.01385 11.25C7.1224 8.32202 7.86134 5.74493 8.9602 4.05969C5.98983 5.19753 3.82077 7.95418 3.53263 11.25H7.01385ZM3.53263 12.75C3.82077 16.0458 5.98983 18.8025 8.9602 19.9403C7.86134 18.2551 7.1224 15.678 7.01385 12.75H3.53263ZM22 12C22 6.47715 17.5228 2 12 2C6.47715 2 2 6.47715 2 12C2 17.5228 6.47715 22 12 22C17.5228 22 22 17.5228 22 12Z" />
</svg>
