<svg width="24" height="24" viewBox="0 0 24 24" xmlns="http://www.w3.org/2000/svg">
<path d="M4.3,21C3.7,21,3,20.5,3,19.6C3,14.6,3,9.5,3,4.4C3,3.6,3.6,3,4.4,3c2.3,0,12.5,0,15.2,0c0.7,0,1.2,0.4,1.3,1.1 c0,0.1,0,0.2,0,0.3c0,5.1,0,10.2,0,15.3c0,0.8-0.6,1.4-1.3,1.3C17.1,21,6.9,21,4.3,21z M12.6,10.9c0-0.3,0-0.6,0-0.9 c0-0.1,0-0.2-0.2-0.2c-0.7,0-1.5,0-2.2,0C10,9.7,10,9.8,10,9.9c0,2.7,0,5.5,0,8.2c0,0.2,0.1,0.2,0.2,0.2c0.8,0,1.5,0,2.3,0 c0.2,0,0.2,0,0.2-0.2c0-1.4,0-2.7,0-4.1c0-0.3,0-0.6,0.1-0.8c0.2-1.1,1-1.4,1.9-1.3c0.6,0.1,0.8,0.5,0.9,1c0.1,0.4,0.1,0.8,0.1,1.2 c0,1.4,0,2.7,0,4.1c0,0.1,0,0.2,0.2,0.2c0.8,0,1.5,0,2.3,0c0.1,0,0.2,0,0.2-0.2c0-1.7,0-3.4,0-5.1c0-0.5-0.1-1-0.2-1.5 c-0.2-0.9-0.8-1.6-1.7-1.9c-0.3-0.1-0.6-0.1-0.9-0.2c-0.6-0.1-1.2,0-1.8,0.3C13.2,10.1,12.9,10.4,12.6,10.9z M8.4,14.1 c0-1.4,0-2.7,0-4.1c0-0.2,0-0.2-0.2-0.2c-0.8,0-1.5,0-2.3,0c-0.2,0-0.2,0-0.2,0.2c0,2.7,0,5.5,0,8.2c0,0.2,0,0.2,0.2,0.2 c0.8,0,1.5,0,2.3,0c0.2,0,0.2,0,0.2-0.2C8.4,16.8,8.4,15.4,8.4,14.1z M8.6,7c0-0.9-0.7-1.5-1.5-1.6C6.2,5.4,5.4,6.1,5.4,7 c0,0.9,0.7,1.6,1.6,1.6C7.9,8.6,8.6,7.9,8.6,7z" />
</svg>
