<svg width="24" height="24" viewBox="0 0 24 24" xmlns="http://www.w3.org/2000/svg">
<path d="M3.8,9.8c0-0.6,0.1-1.2,0.3-1.6c0.2-0.5,0.4-0.9,0.8-1.3c0.3-0.4,0.8-0.6,1.3-0.8c0.5-0.2,1-0.3,1.6-0.3 c0.5,0,1,0.1,1.4,0.2c0.4,0.1,0.8,0.4,1.1,0.6s0.6,0.6,0.8,1c0.2,0.4,0.3,0.9,0.3,1.4c0,0.4,0,0.7-0.1,1c-0.1,0.3-0.2,0.5-0.3,0.7 s-0.3,0.4-0.5,0.5c-0.2,0.2-0.4,0.3-0.5,0.5c-0.2,0.2-0.4,0.3-0.6,0.5c-0.2,0.2-0.3,0.3-0.5,0.6c-0.1,0.2-0.2,0.4-0.3,0.7 c-0.1,0.3-0.1,0.6-0.1,1H6.7c0-0.5,0-0.9,0.1-1.2c0-0.3,0.1-0.6,0.2-0.9c0.1-0.3,0.2-0.5,0.4-0.7c0.2-0.2,0.3-0.4,0.6-0.6 c0.2-0.2,0.3-0.3,0.5-0.4c0.2-0.1,0.3-0.3,0.4-0.4s0.2-0.3,0.3-0.5c0.1-0.2,0.1-0.4,0.1-0.7c0-0.3-0.1-0.6-0.2-0.8 C9,8.1,8.9,7.9,8.7,7.8C8.5,7.7,8.4,7.6,8.2,7.5C8,7.4,7.8,7.4,7.7,7.4C7,7.4,6.5,7.6,6.2,8.1c-0.3,0.4-0.5,1-0.5,1.8H3.8z  M6.4,15.8h2.2v2.1H6.4V15.8z M12.8,9.8c0-0.6,0.1-1.2,0.3-1.6c0.2-0.5,0.4-0.9,0.8-1.3c0.3-0.4,0.8-0.6,1.3-0.8 c0.5-0.2,1-0.3,1.6-0.3c0.5,0,1,0.1,1.4,0.2c0.4,0.1,0.8,0.4,1.1,0.6s0.6,0.6,0.8,1c0.2,0.4,0.3,0.9,0.3,1.4c0,0.4,0,0.7-0.1,1 s-0.2,0.5-0.3,0.7s-0.3,0.4-0.5,0.5c-0.2,0.2-0.4,0.3-0.5,0.5c-0.2,0.2-0.4,0.3-0.6,0.5c-0.2,0.2-0.3,0.3-0.5,0.6 c-0.1,0.2-0.2,0.4-0.3,0.7s-0.1,0.6-0.1,1h-1.8c0-0.5,0-0.9,0.1-1.2c0-0.3,0.1-0.6,0.2-0.9s0.2-0.5,0.4-0.7c0.2-0.2,0.3-0.4,0.6-0.6 c0.2-0.2,0.3-0.3,0.5-0.4s0.3-0.3,0.4-0.4s0.2-0.3,0.3-0.5c0.1-0.2,0.1-0.4,0.1-0.7c0-0.3-0.1-0.6-0.2-0.8c-0.1-0.2-0.3-0.4-0.4-0.6 c-0.2-0.1-0.3-0.2-0.5-0.3c-0.2-0.1-0.4-0.1-0.5-0.1c-0.7,0-1.2,0.2-1.5,0.7c-0.3,0.4-0.5,1-0.5,1.8H12.8z M15.4,15.8h2.2v2.1h-2.2 V15.8z" />
</svg>
