<svg width="24" height="24" viewBox="0 0 24 24" xmlns="http://www.w3.org/2000/svg">
<path fill-rule="evenodd" clip-rule="evenodd" d="M10.75 10.75H9.5L9.5 12H3.25C2.55964 12 2 12.5596 2 13.25V18.25C2 18.9404 2.55964 19.5 3.25 19.5L9.5 19.5V20.75H10.75V19.5V18.25L9.5 18.25L3.25 18.25L3.25 13.25H10.75L10.75 12V10.75ZM13.25 18.25L14.5 18.25L20.75 18.25L20.75 13.25H13.25L13.25 12V10.75H14.5V12H20.75C21.4404 12 22 12.5596 22 13.25L22 18.25C22 18.9404 21.4404 19.5 20.75 19.5L14.5 19.5V20.75H13.25L13.25 19.5V18.25ZM4.5 14.5H19.5L19.5 17L4.5 17V14.5ZM22 7.625C22 7.97018 21.7202 8.25 21.375 8.25H16.6339L18.0669 9.68306C18.311 9.92713 18.311 10.3229 18.0669 10.5669C17.8229 10.811 17.4271 10.811 17.1831 10.5669L14.6831 8.06694C14.439 7.82286 14.439 7.42713 14.6831 7.18306L17.1831 4.68306C17.4271 4.43898 17.8229 4.43898 18.0669 4.68306C18.311 4.92713 18.311 5.32286 18.0669 5.56694L16.6339 7H21.375C21.7202 7 22 7.27982 22 7.625ZM2 7.625C2 7.97018 2.27982 8.25 2.625 8.25H7.36612L5.93306 9.68306C5.68898 9.92713 5.68898 10.3229 5.93306 10.5669C6.17714 10.811 6.57286 10.811 6.81694 10.5669L9.31694 8.06694C9.56102 7.82286 9.56102 7.42713 9.31694 7.18306L6.81694 4.68306C6.57286 4.43898 6.17714 4.43898 5.93306 4.68306C5.68898 4.92713 5.68898 5.32286 5.93306 5.56694L7.36612 7H2.625C2.27982 7 2 7.27982 2 7.625Z"/>
</svg>
