<svg width="24" height="24" viewBox="0 0 24 24" xmlns="http://www.w3.org/2000/svg">
<path fill-rule="evenodd" clip-rule="evenodd" d="M12 3H2V21H14V19H12V17H14V15H12V13H14V11H12V9H20V13H22V7H12V3ZM6 19H4V17H6V19ZM6 15H4V13H6V15ZM6 11H4V9H6V11ZM6 7H4V5H6V7ZM10 19H8V17H10V19ZM10 15H8V13H10V15ZM10 11H8V9H10V11ZM10 7H8V5H10V7Z" />
<path d="M18 13H16V11H18V13Z" />
<path d="M19 14C19.4142 14 19.75 14.3358 19.75 14.75V17.25H22.25C22.6642 17.25 23 17.5858 23 18C23 18.4142 22.6642 18.75 22.25 18.75H19.75V21.25C19.75 21.6642 19.4142 22 19 22C18.5858 22 18.25 21.6642 18.25 21.25V18.75H15.75C15.3358 18.75 15 18.4142 15 18C15 17.5858 15.3358 17.25 15.75 17.25H18.25V14.75C18.25 14.3358 18.5858 14 19 14Z" />
</svg>
