<svg width="24" height="24" viewBox="0 0 24 24" xmlns="http://www.w3.org/2000/svg">
<path fill-rule="evenodd" clip-rule="evenodd" d="M12 11.5C13.6569 11.5 15 10.1569 15 8.5C15 6.84315 13.6569 5.5 12 5.5C10.3431 5.5 9 6.84315 9 8.5C9 10.1569 10.3431 11.5 12 11.5ZM16.5 8.5C16.5 10.011 15.7553 11.3481 14.6129 12.1642C15.2635 12.3816 15.8683 12.6801 16.418 13.049L15.582 14.2945C14.607 13.64 13.3933 13.25 12 13.25C8.29148 13.25 5.75 16.0286 5.75 19.5H4.25C4.25 16.1098 6.25987 13.2078 9.38643 12.1637C8.24441 11.3475 7.5 10.0107 7.5 8.5C7.5 6.01472 9.51472 4 12 4C14.4853 4 16.5 6.01472 16.5 8.5ZM19 14C19.4142 14 19.75 14.3358 19.75 14.75V17.25H22.25C22.6642 17.25 23 17.5858 23 18C23 18.4142 22.6642 18.75 22.25 18.75H19.75V21.25C19.75 21.6642 19.4142 22 19 22C18.5858 22 18.25 21.6642 18.25 21.25V18.75H15.75C15.3358 18.75 15 18.4142 15 18C15 17.5858 15.3358 17.25 15.75 17.25H18.25V14.75C18.25 14.3358 18.5858 14 19 14Z" />
</svg>
