<svg width="24" height="24" viewBox="0 0 24 24" xmlns="http://www.w3.org/2000/svg">
<path fill-rule="evenodd" clip-rule="evenodd" d="M16.5 11.0001V14.3542L18.0729 17.5001H5.92705L7.5 14.3542V11.0001C7.5 8.44317 8.80656 6.62282 10.8458 6.13964L10.8676 6.13448L10.8838 6.13012L10.89 6.12859C10.8994 6.12625 10.9177 6.12185 10.9438 6.11604C10.9962 6.10436 11.0789 6.08729 11.1843 6.06979C11.3988 6.03419 11.6888 6 12 6C12.3112 6 12.6012 6.03419 12.8157 6.06979C12.9211 6.08729 13.0038 6.10436 13.0562 6.11604C13.0823 6.12185 13.1006 6.12625 13.1101 6.12859L13.1162 6.13012L13.1318 6.13432L13.153 6.13937C15.1844 6.62235 16.5 8.4545 16.5 11.0001ZM20 19.0001V18.0001L18 14.0001V11.0001C18 7.93005 16.36 5.36005 13.5 4.68005C13.5 4.68005 12.83 4.5 12 4.5C11.17 4.5 10.5 4.68005 10.5 4.68005C7.63 5.36005 6 7.92005 6 11.0001V14.0001L4 18.0001V19.0001H9.25C9.25003 20.5118 10.4734 21.75 12 21.75C13.5142 21.75 14.75 20.5142 14.75 19.0001H20ZM13.25 19.0001H10.75C10.75 19.6883 11.3067 20.25 12 20.25C12.6858 20.25 13.25 19.6858 13.25 19.0001Z" />
</svg>
