<svg width="24" height="24" viewBox="0 0 24 24" xmlns="http://www.w3.org/2000/svg">
<path d="M20,18H8v-2h12V18z M20,13H8v-2h12V13z M20,8H8V6h12V8z M5.1,8.8V6.3h-1V5.7c0.1,0,0.3,0,0.4,0c0.1,0,0.2-0.1,0.3-0.1 C5,5.5,5,5.4,5.1,5.3c0.1-0.1,0.1-0.2,0.1-0.4h0.6v3.9H5.1z M4,10.8c0.1-0.2,0.1-0.4,0.3-0.5c0.1-0.1,0.3-0.3,0.4-0.3 c0.2-0.1,0.4-0.1,0.6-0.1c0.2,0,0.3,0,0.5,0.1C6,10,6.1,10.1,6.2,10.2s0.2,0.2,0.3,0.4c0.1,0.2,0.1,0.3,0.1,0.5c0,0.2,0,0.4-0.1,0.5 c-0.1,0.1-0.1,0.3-0.2,0.4c-0.1,0.1-0.2,0.2-0.4,0.3c-0.1,0.1-0.3,0.2-0.4,0.3c-0.1,0.1-0.3,0.2-0.4,0.3C5,12.9,4.9,13,4.8,13.2h1.8 v0.7H3.8c0-0.2,0-0.4,0.1-0.6s0.2-0.3,0.3-0.4c0.1-0.1,0.2-0.3,0.4-0.4c0.1-0.1,0.3-0.2,0.5-0.3c0.1-0.1,0.2-0.1,0.3-0.2 c0.1-0.1,0.2-0.1,0.3-0.2c0.1-0.1,0.1-0.2,0.2-0.2c0.1-0.1,0.1-0.2,0.1-0.3c0-0.2-0.1-0.3-0.2-0.4c-0.1-0.1-0.2-0.2-0.4-0.2 c-0.1,0-0.2,0-0.3,0.1c-0.1,0.1-0.1,0.1-0.2,0.2S4.7,11,4.7,11.2c0,0.1,0,0.2,0,0.3H3.9C3.9,11.2,3.9,11,4,10.8z M5.2,16.6 c0.1,0,0.2,0,0.3-0.1c0.1,0,0.2-0.1,0.2-0.2s0.1-0.2,0.1-0.3c0-0.2-0.1-0.3-0.2-0.4c-0.1-0.1-0.2-0.1-0.4-0.1 c-0.2,0-0.3,0.1-0.5,0.2c-0.1,0.1-0.2,0.3-0.1,0.5H3.9c0-0.2,0-0.4,0.1-0.5s0.2-0.3,0.3-0.4c0.1-0.1,0.3-0.2,0.4-0.3 C4.9,15,5,15,5.2,15c0.2,0,0.3,0,0.5,0.1s0.3,0.1,0.4,0.2c0.1,0.1,0.2,0.2,0.3,0.3c0.1,0.1,0.1,0.3,0.1,0.5c0,0.2,0,0.4-0.1,0.5 c-0.1,0.1-0.2,0.2-0.4,0.3v0c0.2,0,0.4,0.2,0.5,0.3s0.2,0.3,0.2,0.6c0,0.2,0,0.4-0.1,0.5c-0.1,0.2-0.2,0.3-0.3,0.4 c-0.1,0.1-0.3,0.2-0.5,0.2C5.6,19,5.4,19,5.2,19c-0.2,0-0.4,0-0.6-0.1s-0.3-0.2-0.5-0.3c-0.1-0.1-0.2-0.3-0.3-0.4 c-0.1-0.2-0.1-0.4-0.1-0.6h0.7c0,0.1,0,0.2,0,0.3c0,0.1,0.1,0.2,0.1,0.2c0.1,0.1,0.1,0.1,0.2,0.2c0.1,0,0.2,0.1,0.3,0.1 c0.2,0,0.3-0.1,0.4-0.2s0.2-0.3,0.2-0.4c0-0.1,0-0.3-0.1-0.3c-0.1-0.1-0.1-0.1-0.2-0.2s-0.2-0.1-0.3-0.1c-0.1,0-0.2,0-0.3,0v-0.6 C5.1,16.6,5.1,16.6,5.2,16.6z"/>
</svg>
