<svg width="24" height="24" viewBox="0 0 24 24" xmlns="http://www.w3.org/2000/svg">
<path fill-rule="evenodd" clip-rule="evenodd" d="M9.667 4.6983H6.25C5.2835 4.6983 4.5 5.4818 4.5 6.4483V19.25C4.5 20.2165 5.2835 21 6.25 21H17.75C18.7165 21 19.5 20.2165 19.5 19.25V6.4483C19.5 5.48181 18.7165 4.6983 17.75 4.6983H14.3295C14.0128 3.71302 13.0888 3 11.9983 3C10.9077 3 9.98372 3.71302 9.667 4.6983ZM8.5 6.1983H6.25C6.11193 6.1983 6 6.31023 6 6.4483V19.25C6 19.3881 6.11193 19.5 6.25 19.5H17.75C17.8881 19.5 18 19.3881 18 19.25V6.4483C18 6.31023 17.8881 6.1983 17.75 6.1983H15.5V8H8.5V6.1983ZM12.6781 5H12.6803C12.5344 4.77843 12.2834 4.63218 11.9983 4.63218C11.5476 4.63218 11.1822 4.99756 11.1822 5.44828C11.1822 5.89899 11.5476 6.26437 11.9983 6.26437L12.0051 6.26434C12.4517 6.25951 12.8122 5.896 12.8122 5.44829C12.8122 5.28272 12.7629 5.12866 12.6781 5Z" />
</svg>
