<svg width="24" height="24" viewBox="0 0 24 24" xmlns="http://www.w3.org/2000/svg">
<path fill-rule="evenodd" clip-rule="evenodd" d="M15.43 4.57001L18.02 4.57001L13 9.59001L14.41 11L19.43 5.98001V8.57001H21.43V2.57001H15.43V4.57001ZM16.43 14.94C17.55 15.31 18.76 15.51 20 15.51C20.55 15.51 21 15.96 21 16.51V20C21 20.55 20.55 21 20 21C10.61 21 3 13.39 3 4.00001C3 3.45001 3.45 3.00001 4 3.00001H7.5C8.05 3.00001 8.5 3.45001 8.5 4.00001C8.5 5.25001 8.7 6.45001 9.07 7.57001C9.18 7.92001 9.1 8.31001 8.82 8.59001L6.62 10.79C8.06 13.62 10.38 15.93 13.21 17.38L15.41 15.18C15.61 14.99 15.86 14.89 16.12 14.89C16.22 14.89 16.33 14.9 16.43 14.94Z" />
</svg>
