<svg width="24" height="24" viewBox="0 0 24 24" xmlns="http://www.w3.org/2000/svg">
<path d="M14.9,6.2l2.5-2.5L18,4.3l-2.5,2.5L14.9,6.2z M21.8,7.1l-3.4,3.4l0.2,0.2c0.4,0.4,0.4,0.9,0,1.3l-9.7,9.7 c-0.4,0.4-0.9,0.4-1.3,0l-5.3-5.3c-0.4-0.4-0.4-0.9,0-1.3L12,5.4c0.4-0.4,0.9-0.4,1.3,0l0.2,0.2l3.4-3.4c0.2-0.2,0.6-0.2,0.8,0 l4.1,4.1C22.1,6.5,22.1,6.9,21.8,7.1z M7.5,17.5c0-0.6-0.5-1-1-1c-0.6,0-1,0.5-1,1s0.5,1,1,1C7.1,18.5,7.5,18,7.5,17.5z M14.6,11.9 c0-1.3-1.1-2.4-2.4-2.4s-2.4,1.1-2.4,2.4s1.1,2.4,2.4,2.4C13.5,14.3,14.6,13.2,14.6,11.9z M21.1,6.7l-3.8-3.8L14,6.2l1.5,1.5 l2.3,2.3L21.1,6.7z M17.8,9.1l2.5-2.5L19.7,6l-2.5,2.5L17.8,9.1z" />
</svg>
