<svg width="24" height="24" viewBox="0 0 24 24" xmlns="http://www.w3.org/2000/svg">
<path d="M7 10C8.10457 10 9 9.10457 9 8C9 6.89543 8.10457 6 7 6C5.89543 6 5 6.89543 5 8C5 9.10457 5.89543 10 7 10Z" />
<path d="M7 18C8.10457 18 9 17.1046 9 16C9 14.8954 8.10457 14 7 14C5.89543 14 5 14.8954 5 16C5 17.1046 5.89543 18 7 18Z" />
<path d="M19 8C19 9.10457 18.1046 10 17 10C15.8954 10 15 9.10457 15 8C15 6.89543 15.8954 6 17 6C18.1046 6 19 6.89543 19 8Z" />
<path d="M17 18C18.1046 18 19 17.1046 19 16C19 14.8954 18.1046 14 17 14C15.8954 14 15 14.8954 15 16C15 17.1046 15.8954 18 17 18Z" />
</svg>
