<svg width="24" height="24" viewBox="0 0 24 24" xmlns="http://www.w3.org/2000/svg">
<path d="M11.375 8.25006H12.625V20.7501H11.375V8.25006Z"/>
<path d="M9.5 12.0001L3.25 12.0001C2.55964 12.0001 2 12.5597 2 13.2501L2 18.2501C2 18.9404 2.55964 19.5001 3.25 19.5001H9.5V18.2501H3.25L3.25 13.2501H9.5V12.0001Z"/>
<path d="M14.5 18.2501H20.75V13.2501H14.5V12.0001H20.75C21.4404 12.0001 22 12.5597 22 13.2501V18.2501C22 18.9404 21.4404 19.5001 20.75 19.5001H14.5V18.2501Z"/>
<path fill-rule="evenodd" clip-rule="evenodd" d="M9.5 6.37506C9.5 6.72024 9.22018 7.00006 8.875 7.00006L4.13388 7.00006L5.56694 8.43312C5.81102 8.6772 5.81102 9.07293 5.56694 9.317C5.32286 9.56108 4.92714 9.56108 4.68306 9.317L2.18306 6.817C1.93898 6.57293 1.93898 6.1772 2.18306 5.93312L4.68306 3.43312C4.92714 3.18904 5.32286 3.18904 5.56694 3.43312C5.81102 3.6772 5.81102 4.07292 5.56694 4.317L4.13388 5.75006L8.875 5.75006C9.22018 5.75006 9.5 6.02988 9.5 6.37506Z"/>
<path fill-rule="evenodd" clip-rule="evenodd" d="M14.5 6.37506C14.5 6.72024 14.7798 7.00006 15.125 7.00006L19.8661 7.00006L18.4331 8.43312C18.189 8.6772 18.189 9.07293 18.4331 9.317C18.6771 9.56108 19.0729 9.56108 19.3169 9.317L21.8169 6.817C22.061 6.57293 22.061 6.1772 21.8169 5.93312L19.3169 3.43312C19.0729 3.18904 18.6771 3.18904 18.4331 3.43312C18.189 3.6772 18.189 4.07292 18.4331 4.317L19.8661 5.75006L15.125 5.75006C14.7798 5.75006 14.5 6.02988 14.5 6.37506Z"/>
</svg>
