<svg width="24" height="24" viewBox="0 0 24 24" xmlns="http://www.w3.org/2000/svg">
<path fill-rule="evenodd" clip-rule="evenodd" d="M5.5 3.75C5.5 3.61193 5.61193 3.5 5.75 3.5H14.5V6.75C14.5 7.16421 14.8358 7.5 15.25 7.5H18.5V20.25C18.5 20.3881 18.3881 20.5 18.25 20.5H5.75C5.61193 20.5 5.5 20.3881 5.5 20.25V3.75ZM5.75 2C4.7835 2 4 2.7835 4 3.75V20.25C4 21.2165 4.7835 22 5.75 22H18.25C19.2165 22 20 21.2165 20 20.25V6.43934L15.5607 2H5.75ZM9 9C9.55 9 10 8.55 10 8C10 7.45 9.55 7 9 7C8.45 7 8 7.45 8 8C8 8.55 8.45 9 9 9ZM9 13C9.55 13 10 12.55 10 12C10 11.45 9.55 11 9 11C8.45 11 8 11.45 8 12C8 12.55 8.45 13 9 13ZM10 16C10 16.55 9.55 17 9 17C8.45 17 8 16.55 8 16C8 15.45 8.45 15 9 15C9.55 15 10 15.45 10 16Z" />
</svg>
