<svg width="24" height="24" viewBox="0 0 24 24" xmlns="http://www.w3.org/2000/svg">
<path fill-rule="evenodd" clip-rule="evenodd" d="M12,2C6.5,2,2,6.5,2,12s4.5,10,10,10s10-4.5,10-10S17.5,2,12,2z M16.6,8.8 c-0.2,1.6-0.8,5.4-1.1,7.2c-0.1,0.7-0.4,1-0.7,1c-0.6,0.1-1-0.4-1.6-0.8c-0.9-0.6-1.4-0.9-2.2-1.5c-1-0.7-0.3-1,0.2-1.6 c0.1-0.2,2.7-2.5,2.8-2.7c0,0,0-0.1,0-0.2c-0.1-0.1-0.1,0-0.2,0c-0.1,0-1.5,0.9-4.2,2.8c-0.4,0.3-0.8,0.4-1.1,0.4 c-0.4,0-1-0.2-1.6-0.4c-0.6-0.2-1.1-0.3-1.1-0.7c0-0.2,0.3-0.4,0.7-0.6c2.9-1.3,4.9-2.1,5.8-2.5C15.1,8.2,15.7,8,16.1,8 c0.1,0,0.3,0,0.4,0.1c0.1,0.1,0.1,0.2,0.1,0.3C16.6,8.5,16.6,8.7,16.6,8.8z" />
</svg>
