<svg width="24" height="24" viewBox="0 0 24 24" xmlns="http://www.w3.org/2000/svg">
<path d="M8 11H16V9.5H8V11Z" />
<path d="M16 14H8V12.5H16V14Z" />
<path d="M8 17H13V15.5H8V17Z" />
<path fill-rule="evenodd" clip-rule="evenodd" d="M5.75 2C4.7835 2 4 2.7835 4 3.75V20.25C4 21.2165 4.7835 22 5.75 22H18.25C19.2165 22 20 21.2165 20 20.25V6.43934L15.5607 2H5.75ZM5.5 3.75C5.5 3.61193 5.61193 3.5 5.75 3.5H14.5V6.75C14.5 7.16421 14.8358 7.5 15.25 7.5H18.5V20.25C18.5 20.3881 18.3881 20.5 18.25 20.5H5.75C5.61193 20.5 5.5 20.3881 5.5 20.25V3.75Z" />
</svg>
