<svg width="24" height="24" viewBox="0 0 24 24" xmlns="http://www.w3.org/2000/svg">
<path d="M2.3,6.1h2.1v4.7h5.4V6.1h2.1v11.8H9.7v-5.3H4.4v5.3H2.3V6.1z"/>
<path d="M16.8,11.1c0.3,0,0.6,0,0.9-0.1c0.3-0.1,0.6-0.2,0.8-0.3s0.4-0.3,0.6-0.6c0.1-0.2,0.2-0.5,0.2-0.9c0-0.5-0.2-0.9-0.5-1.2 s-0.8-0.4-1.3-0.4c-0.3,0-0.6,0.1-0.9,0.2s-0.4,0.3-0.6,0.5c-0.2,0.2-0.3,0.5-0.4,0.8s-0.1,0.6-0.1,0.9h-1.9c0-0.6,0.1-1.1,0.3-1.6 s0.4-0.9,0.8-1.2c0.3-0.4,0.7-0.6,1.2-0.8c0.5-0.2,1-0.3,1.6-0.3c0.5,0,0.9,0.1,1.3,0.2c0.4,0.1,0.8,0.3,1.2,0.6s0.6,0.6,0.8,1 c0.2,0.4,0.3,0.8,0.3,1.3c0,0.6-0.1,1.1-0.4,1.5c-0.3,0.4-0.7,0.7-1.2,0.9v0c0.7,0.1,1.2,0.5,1.5,1c0.4,0.5,0.6,1.2,0.6,1.9 c0,0.5-0.1,1-0.3,1.5s-0.5,0.8-0.9,1.1s-0.8,0.5-1.3,0.7c-0.5,0.2-1,0.2-1.6,0.2c-0.7,0-1.3-0.1-1.8-0.3c-0.5-0.2-0.9-0.5-1.3-0.8 c-0.3-0.4-0.6-0.8-0.8-1.3c-0.2-0.5-0.3-1-0.3-1.6h1.9c0,0.7,0.2,1.3,0.5,1.8c0.4,0.5,0.9,0.7,1.7,0.7c0.6,0,1.1-0.2,1.6-0.5 c0.4-0.4,0.6-0.9,0.6-1.5c0-0.5-0.1-0.8-0.3-1.1c-0.2-0.3-0.4-0.5-0.7-0.6c-0.3-0.1-0.6-0.2-1-0.3s-0.7,0-1.1,0V11.1z" />
</svg>
