<svg width="24" height="24" viewBox="0 0 24 24" xmlns="http://www.w3.org/2000/svg">
<path d="M7.5 18H12.4842C15.1044 18 16.5 16.5938 16.5 14.6836C16.5 12.9082 15.2639 11.8359 13.9367 11.7715V11.6543C15.15 11.373 16.0443 10.4883 16.0443 9.07617C16.0443 7.27734 14.7456 6 12.1709 6H7.5V18ZM9.96646 15.9258V12.7383H12.0342C13.219 12.7383 13.9538 13.4414 13.9538 14.4316C13.9538 15.334 13.3557 15.9258 11.9772 15.9258H9.96646ZM9.96646 11.0215V8.05078H11.8405C12.9342 8.05078 13.5551 8.63086 13.5551 9.49805C13.5551 10.4473 12.8032 11.0215 11.7949 11.0215H9.96646Z" />
</svg>
