<svg width="24" height="24" viewBox="0 0 24 24" xmlns="http://www.w3.org/2000/svg">
<path d="M2.4,6.1h2.1v4.7h5.4V6.1h2.1v11.8H9.9v-5.3H4.5v5.3H2.4V6.1z"/>
<path d="M21.5,17.9h-7.9c0-1,0.2-1.8,0.7-2.5c0.5-0.7,1.1-1.3,1.8-1.9c0.4-0.3,0.8-0.5,1.2-0.8c0.4-0.3,0.8-0.5,1.1-0.8 c0.3-0.3,0.6-0.6,0.8-1c0.2-0.3,0.3-0.7,0.3-1.2c0-0.2,0-0.4-0.1-0.7c0-0.2-0.1-0.5-0.3-0.7C19.2,8.2,19,8,18.7,7.9 c-0.3-0.1-0.6-0.2-1-0.2c-0.4,0-0.7,0.1-0.9,0.2c-0.2,0.1-0.4,0.4-0.6,0.6c-0.1,0.3-0.3,0.6-0.3,0.9c-0.1,0.4-0.1,0.7-0.1,1.1h-1.9 c0-0.6,0.1-1.2,0.3-1.8c0.2-0.5,0.4-1,0.8-1.4c0.3-0.4,0.8-0.7,1.2-0.9c0.5-0.2,1.1-0.3,1.7-0.3c0.7,0,1.3,0.1,1.8,0.3 s0.9,0.5,1.1,0.9c0.3,0.4,0.5,0.7,0.6,1.1s0.2,0.8,0.2,1.2c0,0.5-0.1,0.9-0.2,1.3c-0.1,0.4-0.3,0.7-0.6,1c-0.2,0.3-0.5,0.6-0.8,0.9 c-0.3,0.3-0.6,0.5-1,0.7c-0.3,0.2-0.7,0.5-1,0.7c-0.3,0.2-0.6,0.4-0.9,0.6c-0.3,0.2-0.5,0.4-0.7,0.7c-0.2,0.2-0.4,0.5-0.4,0.7h5.6 V17.9z" />
</svg>
