<svg width="24" height="24" viewBox="0 0 24 24" xmlns="http://www.w3.org/2000/svg">
<path d="M3.25 3.25006C2.55964 3.25006 2 3.80971 2 4.50006L2 7.00006C2 7.69042 2.55964 8.25006 3.25 8.25006L20.75 8.25006C21.4404 8.25006 22 7.69042 22 7.00006V4.50006C22 3.80971 21.4404 3.25006 20.75 3.25006L3.25 3.25006Z"/>
<path fill-rule="evenodd" clip-rule="evenodd" d="M3.25 9.50006C2.55965 9.50006 2 10.0597 2 10.7501L2 13.2501C2 13.9404 2.55965 14.5001 3.25 14.5001L20.75 14.5001C21.4404 14.5001 22 13.9404 22 13.2501V10.7501C22 10.0597 21.4404 9.50006 20.75 9.50006L3.25 9.50006ZM20.75 10.7501L3.25 10.7501L3.25 13.2501L20.75 13.2501V10.7501Z"/>
<path fill-rule="evenodd" clip-rule="evenodd" d="M3.25 15.7501C2.55965 15.7501 2 16.3097 2 17.0001L2 19.5001C2 20.1904 2.55965 20.7501 3.25 20.7501L20.75 20.7501C21.4404 20.7501 22 20.1904 22 19.5001V17.0001C22 16.3097 21.4404 15.7501 20.75 15.7501L3.25 15.7501ZM20.75 17.0001L3.25 17.0001L3.25 19.5001L20.75 19.5001V17.0001Z"/>
</svg>
