<svg width="24" height="24" viewBox="0 0 24 24" xmlns="http://www.w3.org/2000/svg">
<path d="M3.25006 20.75C3.25006 21.4404 3.80971 22 4.50006 22L7.00006 22C7.69042 22 8.25006 21.4404 8.25006 20.75L8.25006 3.25C8.25006 2.55964 7.69042 2 7.00006 2H4.50006C3.80971 2 3.25006 2.55964 3.25006 3.25L3.25006 20.75Z"/>
<path fill-rule="evenodd" clip-rule="evenodd" d="M9.50006 20.75C9.50006 21.4404 10.0597 22 10.7501 22L13.2501 22C13.9404 22 14.5001 21.4404 14.5001 20.75L14.5001 3.25C14.5001 2.55964 13.9404 2 13.2501 2H10.7501C10.0597 2 9.50006 2.55964 9.50006 3.25L9.50006 20.75ZM10.7501 3.25L10.7501 20.75L13.2501 20.75L13.2501 3.25H10.7501Z"/>
<path fill-rule="evenodd" clip-rule="evenodd" d="M15.7501 20.75C15.7501 21.4404 16.3097 22 17.0001 22L19.5001 22C20.1904 22 20.7501 21.4404 20.7501 20.75L20.7501 3.25C20.7501 2.55964 20.1904 2 19.5001 2H17.0001C16.3097 2 15.7501 2.55964 15.7501 3.25L15.7501 20.75ZM17.0001 3.25L17.0001 20.75L19.5001 20.75L19.5001 3.25H17.0001Z"/>
</svg>
