<svg width="24" height="24" viewBox="0 0 24 24" xmlns="http://www.w3.org/2000/svg">
<path fill-rule="evenodd" clip-rule="evenodd" d="M13.875 4L20.75 4C20.8881 4 21 4.11193 21 4.25L21 6.75C21 6.88807 20.8881 7 20.75 7L13.875 7C13.7369 7 13.625 6.88807 13.625 6.75L13.625 4.25C13.625 4.11193 13.7369 4 13.875 4ZM3.25 10.25L20.75 10.25C20.8881 10.25 21 10.3619 21 10.5L21 13C21 13.1381 20.8881 13.25 20.75 13.25L3.25 13.25C3.11193 13.25 3 13.1381 3 13L3 10.5C3 10.3619 3.11193 10.25 3.25 10.25ZM3.25 16.5L20.75 16.5C20.8881 16.5 21 16.6119 21 16.75L21 19.25C21 19.3881 20.8881 19.5 20.75 19.5L3.25 19.5C3.11193 19.5 3 19.3881 3 19.25L3 16.75C3 16.6119 3.11193 16.5 3.25 16.5ZM13.875 3C13.1846 3 12.625 3.55964 12.625 4.25L12.625 6.75C12.625 7.44036 13.1846 8 13.875 8L20.75 8C21.4404 8 22 7.44036 22 6.75L22 4.25C22 3.55965 21.4404 3 20.75 3L13.875 3ZM3.25 9.25C2.55964 9.25 2 9.80964 2 10.5L2 13C2 13.6904 2.55964 14.25 3.25 14.25L20.75 14.25C21.4404 14.25 22 13.6904 22 13L22 10.5C22 9.80965 21.4404 9.25 20.75 9.25L3.25 9.25ZM2 16.75C2 16.0596 2.55964 15.5 3.25 15.5L20.75 15.5C21.4404 15.5 22 16.0596 22 16.75L22 19.25C22 19.9404 21.4404 20.5 20.75 20.5L3.25 20.5C2.55964 20.5 2 19.9404 2 19.25L2 16.75ZM3 3C2.44772 3 2 3.44772 2 4L2 7C2 7.55228 2.44772 8 3 8L10.375 8C10.9273 8 11.375 7.55229 11.375 7L11.375 4C11.375 3.44772 10.9273 3 10.375 3L3 3Z"/>
</svg>
