<svg width="24" height="24" viewBox="0 0 24 24" xmlns="http://www.w3.org/2000/svg">
<path fill-rule="evenodd" clip-rule="evenodd" d="M7.93933 4.99497L11.9345 0.999821C12.2274 0.706928 12.7023 0.706928 12.9951 0.999821C13.288 1.29271 13.288 1.76759 12.9951 2.06048L10.6965 4.35913C11.1203 4.28735 11.5558 4.24998 12 4.24998C16.2802 4.24998 19.75 7.71977 19.75 12C19.75 13.0861 19.5266 14.12 19.1232 15.0582C18.9236 15.5227 18.3236 15.5988 17.9661 15.2413C17.7285 15.0037 17.6759 14.6418 17.8012 14.33C18.0907 13.61 18.25 12.8236 18.25 12C18.25 8.5482 15.4518 5.74998 12 5.74998C11.6283 5.74998 11.2642 5.78243 10.9103 5.84464L12.949 7.88334C13.2419 8.17623 13.2419 8.6511 12.949 8.944C12.6561 9.23689 12.1812 9.23689 11.8884 8.944L7.93933 4.99497ZM16.5607 18.7715L12.5178 14.7286C12.2249 14.4357 11.7501 14.4357 11.4572 14.7286C11.1643 15.0215 11.1643 15.4964 11.4572 15.7893L13.6874 18.0195C13.1506 18.1697 12.5847 18.25 12 18.25C8.54822 18.25 5.75 15.4518 5.75 12C5.75 11.1885 5.90467 10.4131 6.18613 9.70165C6.30919 9.39061 6.25574 9.03069 6.01922 8.79416C5.66045 8.43539 5.05804 8.51333 4.86021 8.98055C4.4673 9.90849 4.25 10.9289 4.25 12C4.25 16.2802 7.71979 19.75 12 19.75C12.5603 19.75 13.1067 19.6905 13.6332 19.5776L11.5039 21.7069C11.211 21.9998 11.211 22.4746 11.5039 22.7675C11.7968 23.0604 12.2717 23.0604 12.5646 22.7675L16.5607 18.7715Z" />
</svg>
