<svg width="24" height="24" viewBox="0 0 24 24" xmlns="http://www.w3.org/2000/svg">
<path fill-rule="evenodd" clip-rule="evenodd" d="M9.18534 0.37059C9.58544 0.263384 9.99669 0.500821 10.1039 0.90092L10.4502 2.19324C15.3213 1.23637 20.1727 3.70493 21.3692 8.17044L19.9204 8.55867C19.7441 7.90096 18.7994 7.30611 17.5399 7.64359C16.2804 7.98107 15.7597 8.96859 15.9359 9.62629L14.487 10.0145C14.4113 9.73196 14.1472 9.4335 13.6045 9.24992C13.2433 9.12773 12.7957 9.07348 12.3047 9.11454L14.0827 15.75H22.5C22.9142 15.75 23.25 16.0858 23.25 16.5C23.25 16.9142 22.9142 17.25 22.5 17.25H14.4846L15.345 20.4609C15.4522 20.861 15.2148 21.2723 14.8147 21.3795C14.4146 21.4867 14.0033 21.2492 13.8961 20.8491L12.9317 17.25H1.5C1.08579 17.25 0.75 16.9142 0.75 16.5C0.75 16.0858 1.08579 15.75 1.5 15.75H12.5298L10.8558 9.50277C10.4101 9.71271 10.0496 9.98349 9.79789 10.2699C9.41971 10.7002 9.3402 11.0908 9.41592 11.3733L7.96703 11.7616C7.7908 11.1038 6.84606 10.509 5.58658 10.8465C4.3271 11.184 3.80635 12.1715 3.98258 12.8292L2.53369 13.2174C1.33716 8.7519 4.30434 4.18835 9.00129 2.58147L8.65501 1.28915C8.54781 0.88905 8.78524 0.477797 9.18534 0.37059ZM7.54063 4.92226C5.58318 6.14816 4.27528 8.01468 3.89057 10.0084C4.28079 9.73426 4.7267 9.52397 5.19835 9.39759C5.96393 9.19245 6.78132 9.21271 7.49666 9.44795C7.36405 8.53043 7.28514 7.54299 7.32012 6.61045C7.34166 6.0365 7.40698 5.46008 7.54063 4.92226ZM12.8855 3.4901C15.1937 3.57303 17.2596 4.53553 18.5896 6.06977C18.1146 6.0275 17.6233 6.06832 17.1517 6.1947C16.3861 6.39984 15.6883 6.82608 15.1865 7.38747C14.8425 6.52658 14.4172 5.63197 13.9206 4.84186C13.615 4.35557 13.2702 3.88904 12.8855 3.4901ZM8.94825 8.9943C9.52627 8.45346 10.3003 8.03053 11.175 7.79614C12.0498 7.56176 12.9315 7.54103 13.7025 7.72039C13.405 7.0027 13.0508 6.27676 12.6506 5.64003C12.2191 4.9535 11.7646 4.41994 11.3126 4.10018C10.8773 3.79214 10.4897 3.70927 10.1074 3.8117C9.72509 3.91414 9.43087 4.17969 9.20785 4.66416C8.97635 5.16704 8.84947 5.85639 8.81907 6.66669C8.79087 7.41819 8.84705 8.22401 8.94825 8.9943Z"/>
</svg>
