<svg width="24" height="24" viewBox="0 0 24 24" xmlns="http://www.w3.org/2000/svg">
<path d="M4.8 19C4.305 19 3.8814 18.8166 3.5292 18.4497C3.177 18.0828 3.0006 17.6412 3 17.125V5.875C3 5.35937 3.1764 4.91812 3.5292 4.55125C3.882 4.18437 4.3056 4.00062 4.8 4H15.6C16.095 4 16.5189 4.18375 16.8717 4.55125C17.2245 4.91875 17.4006 5.36 17.4 5.875V10.0937L21 6.34375V16.6562L17.4 12.9062V17.125C17.4 17.6406 17.2239 18.0822 16.8717 18.4497C16.5195 18.8172 16.0956 19.0006 15.6 19H4.8ZM4.8 17.125H15.6V5.875H4.8V17.125Z" />
</svg>
