<svg width="24" height="24" viewBox="0 0 24 24" xmlns="http://www.w3.org/2000/svg">
<path d="M13 8H11L11 14H13L13 8Z" />
<path d="M10.75 16.75C10.75 17.4404 11.3097 18 12 18C12.6904 18 13.25 17.4404 13.25 16.75C13.25 16.0596 12.6904 15.5 12 15.5C11.3097 15.5 10.75 16.0596 10.75 16.75Z" />
<path fill-rule="evenodd" clip-rule="evenodd" d="M22.8253 17.75L14.1651 2.75C13.2028 1.08333 10.7972 1.08334 9.83495 2.75L1.1747 17.75C0.212446 19.4167 1.41526 21.5 3.33976 21.5H20.6603C22.5848 21.5 23.7876 19.4167 22.8253 17.75ZM11.134 3.5C11.5189 2.83333 12.4811 2.83333 12.866 3.5L21.5263 18.5C21.9112 19.1667 21.4301 20 20.6603 20H3.33976C2.56996 20 2.08883 19.1667 2.47373 18.5L11.134 3.5Z" />
</svg>
