<svg width="24" height="24" viewBox="0 0 24 24" xmlns="http://www.w3.org/2000/svg">
<path d="M18.3015 5.61725C16.6208 3.92801 14.3799 3 11.9936 3C7.07982 3 3.07698 7.00285 3.0727 11.9166C3.0727 13.4904 3.48325 15.0214 4.26158 16.377L3 21L7.72986 19.7598C9.0342 20.4697 10.5011 20.846 11.9936 20.846H11.9978C16.9116 20.846 20.9144 16.8432 20.9187 11.9252C20.9144 9.54312 19.9864 7.30221 18.3015 5.61725ZM11.9936 19.3364C10.6593 19.3364 9.35494 18.9772 8.21738 18.3015L7.94796 18.139L5.14255 18.8746L5.89094 16.1376L5.7156 15.8553C4.97149 14.675 4.58232 13.3108 4.58232 11.9123C4.58232 7.8325 7.90947 4.50535 11.9978 4.50535C13.9779 4.50535 15.8382 5.2794 17.2409 6.67783C18.6393 8.08054 19.4091 9.94084 19.4091 11.9209C19.4048 16.0135 16.0777 19.3364 11.9936 19.3364ZM16.0606 13.7855C15.8382 13.6743 14.7434 13.1354 14.5381 13.0584C14.3328 12.9857 14.1832 12.9473 14.0378 13.1696C13.8881 13.392 13.4604 13.8967 13.3321 14.0421C13.2038 14.1917 13.0713 14.2088 12.8489 14.0976C12.6265 13.9865 11.908 13.7512 11.057 12.99C10.3941 12.3999 9.94938 11.6686 9.81681 11.4462C9.68851 11.2238 9.80398 11.1041 9.91517 10.9929C10.0135 10.8945 10.1375 10.732 10.2487 10.6037C10.3599 10.4754 10.3984 10.3813 10.4711 10.2316C10.5438 10.082 10.5096 9.95367 10.454 9.84248C10.3984 9.73129 9.95366 8.63222 9.76549 8.18746C9.58587 7.75125 9.40198 7.81112 9.26513 7.80684C9.13684 7.79829 8.98716 7.79829 8.83748 7.79829C8.6878 7.79829 8.44831 7.85388 8.24304 8.07627C8.03777 8.29865 7.46471 8.83749 7.46471 9.93656C7.46471 11.0356 8.26442 12.0919 8.37561 12.2416C8.4868 12.3913 9.9451 14.6408 12.1817 15.6073C12.712 15.8382 13.1269 15.9751 13.4519 16.0777C13.9864 16.2488 14.4697 16.2231 14.8546 16.1675C15.2822 16.1034 16.1717 15.6287 16.3599 15.1069C16.5438 14.5852 16.5438 14.1404 16.4882 14.0463C16.4326 13.9522 16.2829 13.8967 16.0606 13.7855Z" />
</svg>
