<svg xmlns="http://www.w3.org/2000/svg" viewBox="0 0 1000 650" enable-background="new 0 0 1000 650"><path fill="#3f2e20" d="m697.25 349.72h70v2.5h-70z"/><ellipse fill="#dfe0e1" cx="732.25" cy="329.72" rx="22.5" ry="30"/><path fill="#835c3a" d="m754.75 361.72c0 2.75-2.25 5-5 5h-35c-2.75 0-5-2.25-5-5l-5-27c0-2.75 2.25-5 5-5h45c2.75 0 5 2.25 5 5l-5 27"/><path fill="#fff" d="m748.46 339.87c-.667 2.668-3.463 4.851-6.213 4.851h-20c-2.75 0-5.546-2.183-6.213-4.851l-2.574-10.299c-.667-2.668 1.037-4.851 3.787-4.851h30c2.75 0 4.454 2.183 3.787 4.851l-2.574 10.299"/><path fill="#704c2a" d="m754.75 329.72h-.002c0 16.569-10.07 30-22.498 30-12.429 0-22.501-13.431-22.501-30-2.75 0-5 2.25-5 5l5 27c0 2.75 2.25 5 5 5h35c2.75 0 5-2.25 5-5l5-27c0-2.75-2.25-5-5-5"/><ellipse fill="#dfe0e1" cx="787.25" cy="329.72" rx="22.499" ry="30"/><path fill="#704c2a" d="m809.75 361.72c0 2.75-2.25 5-5 5h-35c-2.75 0-5-2.25-5-5l-5-27c0-2.75 2.25-5 5-5h45c2.75 0 5 2.25 5 5l-5 27"/><path fill="#dfe0e1" d="m805.86 333.69c-.76 2.644-3.591 5.231-6.291 5.754l-22.406 4.329c-2.7.522-5.455-1.233-6.122-3.901l-2.574-10.299c-.667-2.668 1.037-4.847 3.787-4.842l31.17.053c2.75.004 4.378 2.171 3.618 4.813l-1.178 4.093"/><path fill="#704c2a" d="m809.75 329.72h-.002c0 16.569-10.07 30-22.498 30-12.428 0-22.5-13.431-22.5-30-2.75 0-5 2.25-5 5l5 27c0 2.75 2.25 5 5 5h35c2.75 0 5-2.25 5-5l5-27c0-2.75-2.25-5-5-5"/><ellipse fill="#dfe0e1" cx="677.25" cy="329.72" rx="22.499" ry="30"/><path fill="#835c3a" d="m699.75 361.72c0 2.75-2.25 5-5 5h-35c-2.75 0-5-2.25-5-5l-5-27c0-2.75 2.25-5 5-5h45c2.75 0 5 2.25 5 5l-5 27"/><path fill="#fff" d="m693.46 339.87c-.667 2.668-3.463 4.851-6.213 4.851h-20c-2.75 0-5.546-2.183-6.213-4.851l-2.574-10.299c-.667-2.668 1.037-4.851 3.787-4.851h30c2.75 0 4.454 2.183 3.787 4.851l-2.574 10.299"/><g fill="#704c2a"><path d="m699.75 329.72h-.002c0 16.569-10.07 30-22.498 30-12.428 0-22.5-13.431-22.5-30-2.75 0-5 2.25-5 5l5 27c0 2.75 2.25 5 5 5h35c2.75 0 5-2.25 5-5l5-27c0-2.75-2.25-5-5-5"/><path d="m699.75 329.72h10v20h-10z"/><path d="m754.75 329.72h10v20h-10z"/></g><path fill="#835c3a" d="m698.75 329.72h12v7.5h-12z"/><path opacity=".15" fill="#fff" d="m709.75 329.72c0 16.569 10.07 30 22.501 30v-60c-12.429 0-22.501 13.431-22.501 30"/><path fill="#835c3a" d="m645.75 329.72h12v7.5h-12z"/><path opacity=".15" fill="#fff" d="m654.75 329.72c0 16.569 10.07 30 22.5 30v-60c-12.428 0-22.5 13.431-22.5 30"/><path fill="#835c3a" d="m753.75 329.72h12v7.5h-12z"/><path opacity=".15" fill="#fff" d="m764.75 329.72c0 16.569 10.07 30 22.5 30v-60c-12.428 0-22.5 13.431-22.5 30"/><g fill="#3f2e20"><path opacity=".5" d="m754.04 337.22c-.164.85-.359 1.682-.576 2.5h12.572c-.217-.818-.412-1.65-.576-2.5h-11.42"/><path opacity=".5" d="m699.04 337.22c-.164.85-.359 1.682-.576 2.5h12.571c-.217-.818-.412-1.65-.576-2.5h-11.419"/><path opacity=".5" d="m655.45 337.22h-5.246l.463 2.5h5.359c-.216-.819-.412-1.651-.576-2.5"/><path d="m742.75 303.51l-5 1.71-5-1.71 5-1.29z"/></g><path fill="#835c3a" d="m724.75 341.72h13v-36.5l-5-1.71z"/><path fill="#704c2a" d="m750.75 341.72h-13v-36.5l5-1.71z"/><path fill="#3f2e20" d="m687.75 303.51l-5 1.71-5-1.71 5-1.29z"/><path fill="#835c3a" d="m669.75 341.72h13v-36.5l-5-1.71z"/><path fill="#704c2a" d="m695.75 341.72h-13v-36.5l5-1.71z"/><path fill="#3f2e20" d="m675.25 359.72h70v2.5h-70z"/><ellipse fill="#fff" cx="710.25" cy="339.72" rx="22.5" ry="30"/><path fill="#835c3a" d="m732.75 371.72c0 2.75-2.25 5-5 5h-35c-2.75 0-5-2.25-5-5l-5-27c0-2.75 2.25-5 5-5h45c2.75 0 5 2.25 5 5l-5 27"/><path fill="#fff" d="m726.46 349.87c-.667 2.668-3.463 4.851-6.213 4.851h-20c-2.75 0-5.546-2.183-6.213-4.851l-2.574-10.299c-.667-2.668 1.037-4.851 3.787-4.851h30c2.75 0 4.454 2.183 3.787 4.851l-2.574 10.299"/><path fill="#704c2a" d="m732.75 339.72h-.002c0 16.569-10.07 30-22.499 30-12.428 0-22.5-13.431-22.5-30-2.75 0-5 2.25-5 5l5 27c0 2.75 2.25 5 5 5h35c2.75 0 5-2.25 5-5l5-27c0-2.75-2.25-5-5-5"/><ellipse fill="#fff" cx="765.25" cy="339.72" rx="22.499" ry="30"/><path fill="#835c3a" d="m787.75 371.72c0 2.75-2.25 5-5 5h-35c-2.75 0-5-2.25-5-5l-5-27c0-2.75 2.25-5 5-5h45c2.75 0 5 2.25 5 5l-5 27"/><path fill="#fff" d="m781.46 349.87c-.667 2.668-3.463 4.851-6.213 4.851h-20c-2.75 0-5.546-2.183-6.213-4.851l-2.574-10.299c-.667-2.668 1.037-4.851 3.787-4.851h30c2.75 0 4.454 2.183 3.787 4.851l-2.574 10.299"/><path fill="#704c2a" d="m787.75 339.72h-.002c0 16.569-10.07 30-22.498 30-12.428 0-22.5-13.431-22.5-30-2.75 0-5 2.25-5 5l5 27c0 2.75 2.25 5 5 5h35c2.75 0 5-2.25 5-5l5-27c0-2.75-2.25-5-5-5"/><ellipse fill="#fff" cx="655.25" cy="339.72" rx="22.5" ry="30"/><path fill="#835c3a" d="m677.75 371.72c0 2.75-2.25 5-5 5h-35c-2.75 0-5-2.25-5-5l-5-27c0-2.75 2.25-5 5-5h45c2.75 0 5 2.25 5 5l-5 27"/><path fill="#fff" d="m671.46 349.87c-.667 2.668-3.463 4.851-6.213 4.851h-20c-2.75 0-5.546-2.183-6.213-4.851l-2.574-10.299c-.667-2.668 1.037-4.851 3.787-4.851h30c2.75 0 4.454 2.183 3.787 4.851l-2.574 10.299"/><g fill="#704c2a"><path d="m677.75 339.72h-.002c0 16.569-10.07 30-22.499 30-12.428 0-22.5-13.431-22.5-30-2.75 0-5 2.25-5 5l5 27c0 2.75 2.25 5 5 5h35c2.75 0 5-2.25 5-5l5-27c0-2.75-2.25-5-5-5"/><path d="m677.75 339.72h10v20h-10z"/><path d="m732.75 339.72h10v20h-10z"/></g><path fill="#835c3a" d="m676.75 339.72h12v7.5h-12z"/><path opacity=".15" fill="#fff" d="m687.75 339.72c0 16.569 10.07 30 22.5 30v-60c-12.428 0-22.5 13.431-22.5 30"/><path fill="#835c3a" d="m623.75 339.72h12v7.5h-12z"/><path opacity=".15" fill="#fff" d="m632.75 339.72c0 16.569 10.07 30 22.5 30v-60c-12.428 0-22.5 13.431-22.5 30"/><path fill="#835c3a" d="m731.75 339.72h12v7.5h-12z"/><path opacity=".15" fill="#fff" d="m742.75 339.72c0 16.569 10.07 30 22.5 30v-60c-12.428 0-22.5 13.431-22.5 30"/><g fill="#3f2e20"><path opacity=".5" d="m732.04 347.22c-.164.85-.359 1.682-.576 2.5h12.572c-.217-.818-.412-1.65-.576-2.5h-11.42"/><path opacity=".5" d="m677.04 347.22c-.164.85-.359 1.682-.576 2.5h12.571c-.217-.818-.412-1.65-.576-2.5h-11.419"/><path opacity=".5" d="m633.45 347.22h-5.246l.463 2.5h5.359c-.216-.819-.413-1.651-.576-2.5"/><path opacity=".5" d="m806.75 337.22h-.338l-9.662 10h-9.705c0 0-.359 1.682-.576 2.5h10.307l9.527-10h7.525l.463-2.5h-7.541"/></g><path fill="#835c3a" d="m806.75 329.72l-10 10h-12v7.5h12l9.66-10h12.34v-7.5z"/><path opacity=".1" fill="#fff" d="m796.75 339.72l10-10-1.67 36.99-8.31.01z"/><path fill="#3f2e20" d="m477.25 349.72h70v2.5h-70z"/><ellipse fill="#dfe0e1" cx="512.25" cy="329.72" rx="22.499" ry="30"/><path fill="#835c3a" d="m534.75 361.72c0 2.75-2.25 5-5 5h-35c-2.75 0-5-2.25-5-5l-5-27c0-2.75 2.25-5 5-5h45c2.75 0 5 2.25 5 5l-5 27"/><path fill="#fff" d="m528.46 339.87c-.667 2.668-3.463 4.851-6.213 4.851h-20c-2.75 0-5.546-2.183-6.213-4.851l-2.574-10.299c-.667-2.668 1.037-4.851 3.787-4.851h30c2.75 0 4.454 2.183 3.787 4.851l-2.574 10.299"/><path fill="#704c2a" d="m534.75 329.72h-.002c0 16.569-10.07 30-22.498 30-12.428 0-22.5-13.431-22.5-30-2.75 0-5 2.25-5 5l5 27c0 2.75 2.25 5 5 5h35c2.75 0 5-2.25 5-5l5-27c0-2.75-2.25-5-5-5"/><ellipse fill="#dfe0e1" cx="567.25" cy="329.72" rx="22.499" ry="30"/><path fill="#704c2a" d="m589.75 361.72c0 2.75-2.25 5-5 5h-35c-2.75 0-5-2.25-5-5l-5-27c0-2.75 2.25-5 5-5h45c2.75 0 5 2.25 5 5l-5 27"/><path fill="#dfe0e1" d="m585.86 333.69c-.76 2.644-3.591 5.231-6.291 5.754l-22.406 4.329c-2.7.522-5.455-1.233-6.122-3.901l-2.574-10.299c-.667-2.668 1.037-4.847 3.787-4.842l31.17.053c2.75.004 4.378 2.171 3.618 4.813l-1.178 4.093"/><path fill="#704c2a" d="m589.75 329.72h-.002c0 16.569-10.07 30-22.498 30-12.428 0-22.5-13.431-22.5-30-2.75 0-5 2.25-5 5l5 27c0 2.75 2.25 5 5 5h35c2.75 0 5-2.25 5-5l5-27c0-2.75-2.25-5-5-5"/><ellipse fill="#dfe0e1" cx="457.25" cy="329.72" rx="22.499" ry="30"/><path fill="#835c3a" d="m479.75 361.72c0 2.75-2.25 5-5 5h-35c-2.75 0-5-2.25-5-5l-5-27c0-2.75 2.25-5 5-5h45c2.75 0 5 2.25 5 5l-5 27"/><path fill="#fff" d="m473.46 339.87c-.667 2.668-3.463 4.851-6.213 4.851h-20c-2.75 0-5.546-2.183-6.213-4.851l-2.574-10.299c-.667-2.668 1.037-4.851 3.787-4.851h30c2.75 0 4.454 2.183 3.787 4.851l-2.574 10.299"/><g fill="#704c2a"><path d="m479.75 329.72h-.002c0 16.569-10.07 30-22.498 30-12.428 0-22.5-13.431-22.5-30-2.75 0-5 2.25-5 5l5 27c0 2.75 2.25 5 5 5h35c2.75 0 5-2.25 5-5l5-27c0-2.75-2.25-5-5-5"/><path d="m479.75 329.72h10v20h-10z"/><path d="m534.75 329.72h10v20h-10z"/></g><path fill="#835c3a" d="m478.75 329.72h12v7.5h-12z"/><path opacity=".15" fill="#fff" d="m489.75 329.72c0 16.569 10.07 30 22.5 30v-60c-12.428 0-22.5 13.431-22.5 30"/><path fill="#835c3a" d="m425.75 329.72h12v7.5h-12z"/><path opacity=".15" fill="#fff" d="m434.75 329.72c0 16.569 10.07 30 22.5 30v-60c-12.428 0-22.5 13.431-22.5 30"/><path fill="#835c3a" d="m533.75 329.72h12v7.5h-12z"/><path opacity=".15" fill="#fff" d="m544.75 329.72c0 16.569 10.07 30 22.5 30v-60c-12.428 0-22.5 13.431-22.5 30"/><g fill="#3f2e20"><path opacity=".5" d="m534.04 337.22c-.164.85-.359 1.682-.576 2.5h12.572c-.217-.818-.412-1.65-.576-2.5h-11.42"/><path opacity=".5" d="m479.04 337.22c-.164.85-.359 1.682-.576 2.5h12.572c-.217-.818-.412-1.65-.576-2.5h-11.42"/><path opacity=".5" d="m435.45 337.22h-5.246l.463 2.5h5.359c-.216-.819-.412-1.651-.576-2.5"/><path d="m522.75 303.51l-5 1.71-5-1.71 5-1.29z"/></g><path fill="#835c3a" d="m504.75 341.72h13v-36.5l-5-1.71z"/><path fill="#704c2a" d="m530.75 341.72h-13v-36.5l5-1.71z"/><path fill="#3f2e20" d="m467.75 303.51l-5 1.71-5-1.71 5-1.29z"/><path fill="#835c3a" d="m449.75 341.72h13v-36.5l-5-1.71z"/><path fill="#704c2a" d="m475.75 341.72h-13v-36.5l5-1.71z"/><path fill="#3f2e20" d="m455.25 359.72h70v2.5h-70z"/><ellipse fill="#fff" cx="490.25" cy="339.72" rx="22.5" ry="30"/><path fill="#835c3a" d="m512.75 371.72c0 2.75-2.25 5-5 5h-35c-2.75 0-5-2.25-5-5l-5-27c0-2.75 2.25-5 5-5h45c2.75 0 5 2.25 5 5l-5 27"/><path fill="#fff" d="m506.46 349.87c-.667 2.668-3.463 4.851-6.213 4.851h-20c-2.75 0-5.546-2.183-6.213-4.851l-2.574-10.299c-.667-2.668 1.037-4.851 3.787-4.851h30c2.75 0 4.454 2.183 3.787 4.851l-2.574 10.299"/><path fill="#704c2a" d="m512.75 339.72h-.002c0 16.569-10.07 30-22.498 30-12.428 0-22.5-13.431-22.5-30-2.75 0-5 2.25-5 5l5 27c0 2.75 2.25 5 5 5h35c2.75 0 5-2.25 5-5l5-27c0-2.75-2.25-5-5-5"/><ellipse fill="#fff" cx="545.25" cy="339.72" rx="22.499" ry="30"/><path fill="#835c3a" d="m567.75 371.72c0 2.75-2.25 5-5 5h-35c-2.75 0-5-2.25-5-5l-5-27c0-2.75 2.25-5 5-5h45c2.75 0 5 2.25 5 5l-5 27"/><path fill="#fff" d="m561.46 349.87c-.667 2.668-3.463 4.851-6.213 4.851h-20c-2.75 0-5.546-2.183-6.213-4.851l-2.574-10.299c-.667-2.668 1.037-4.851 3.787-4.851h30c2.75 0 4.454 2.183 3.787 4.851l-2.574 10.299"/><path fill="#704c2a" d="m567.75 339.72h-.002c0 16.569-10.07 30-22.498 30-12.428 0-22.5-13.431-22.5-30-2.75 0-5 2.25-5 5l5 27c0 2.75 2.25 5 5 5h35c2.75 0 5-2.25 5-5l5-27c0-2.75-2.25-5-5-5"/><ellipse fill="#fff" cx="435.25" cy="339.72" rx="22.5" ry="30"/><path fill="#835c3a" d="m457.75 371.72c0 2.75-2.25 5-5 5h-35c-2.75 0-5-2.25-5-5l-5-27c0-2.75 2.25-5 5-5h45c2.75 0 5 2.25 5 5l-5 27"/><path fill="#fff" d="m451.46 349.87c-.667 2.668-3.463 4.851-6.213 4.851h-20c-2.75 0-5.546-2.183-6.213-4.851l-2.574-10.299c-.667-2.668 1.037-4.851 3.787-4.851h30c2.75 0 4.454 2.183 3.787 4.851l-2.574 10.299"/><g fill="#704c2a"><path d="m457.75 339.72h-.002c0 16.569-10.07 30-22.499 30-12.428 0-22.5-13.431-22.5-30-2.75 0-5 2.25-5 5l5 27c0 2.75 2.25 5 5 5h35c2.75 0 5-2.25 5-5l5-27c0-2.75-2.25-5-5-5"/><path d="m457.75 339.72h10v20h-10z"/><path d="m512.75 339.72h10v20h-10z"/></g><path fill="#835c3a" d="m456.75 339.72h12v7.5h-12z"/><path opacity=".15" fill="#fff" d="m467.75 339.72c0 16.569 10.07 30 22.5 30v-60c-12.428 0-22.5 13.431-22.5 30"/><path fill="#835c3a" d="m403.75 339.72h12v7.5h-12z"/><path opacity=".15" fill="#fff" d="m412.75 339.72c0 16.569 10.07 30 22.5 30v-60c-12.428 0-22.5 13.431-22.5 30"/><path fill="#835c3a" d="m511.75 339.72h12v7.5h-12z"/><path opacity=".15" fill="#fff" d="m522.75 339.72c0 16.569 10.07 30 22.5 30v-60c-12.428 0-22.5 13.431-22.5 30"/><g fill="#3f2e20"><path opacity=".5" d="m512.04 347.22c-.164.85-.359 1.682-.576 2.5h12.572c-.217-.818-.412-1.65-.576-2.5h-11.42"/><path opacity=".5" d="m457.04 347.22c-.164.85-.359 1.682-.576 2.5h12.572c-.217-.818-.412-1.65-.576-2.5h-11.42"/><path opacity=".5" d="m413.45 347.22h-5.246l.463 2.5h5.359c-.216-.819-.413-1.651-.576-2.5"/><path opacity=".5" d="m586.75 337.22h-.338l-9.662 10h-9.705c0 0-.359 1.682-.576 2.5h10.307l9.527-10h7.525l.463-2.5h-7.541"/></g><path fill="#835c3a" d="m586.75 329.72l-10 10h-12v7.5h12l9.66-10h12.34v-7.5z"/><path opacity=".1" fill="#fff" d="m576.75 339.72l10-10-1.67 36.99-8.31.01z"/><path fill="#3f2e20" d="m257.25 349.72h70v2.5h-70z"/><ellipse fill="#dfe0e1" cx="292.25" cy="329.72" rx="22.499" ry="30"/><path fill="#835c3a" d="m314.75 361.72c0 2.75-2.25 5-5 5h-35c-2.75 0-5-2.25-5-5l-5-27c0-2.75 2.25-5 5-5h45c2.75 0 5 2.25 5 5l-5 27"/><path fill="#fff" d="m308.46 339.87c-.667 2.668-3.463 4.851-6.213 4.851h-20c-2.75 0-5.546-2.183-6.213-4.851l-2.574-10.299c-.667-2.668 1.037-4.851 3.787-4.851h30c2.75 0 4.454 2.183 3.787 4.851l-2.574 10.299"/><path fill="#704c2a" d="m314.75 329.72h-.002c0 16.569-10.07 30-22.498 30-12.428 0-22.5-13.431-22.5-30-2.75 0-5 2.25-5 5l5 27c0 2.75 2.25 5 5 5h35c2.75 0 5-2.25 5-5l5-27c0-2.75-2.25-5-5-5"/><ellipse fill="#dfe0e1" cx="347.25" cy="329.72" rx="22.499" ry="30"/><path fill="#704c2a" d="m369.75 361.72c0 2.75-2.25 5-5 5h-35c-2.75 0-5-2.25-5-5l-5-27c0-2.75 2.25-5 5-5h45c2.75 0 5 2.25 5 5l-5 27"/><path fill="#dfe0e1" d="m365.86 333.69c-.76 2.644-3.591 5.231-6.292 5.754l-22.406 4.329c-2.7.522-5.455-1.233-6.122-3.901l-2.574-10.299c-.667-2.668 1.037-4.847 3.787-4.842l31.17.053c2.75.004 4.378 2.171 3.618 4.813l-1.177 4.093"/><path fill="#704c2a" d="m369.75 329.72h-.002c0 16.569-10.07 30-22.498 30-12.428 0-22.5-13.431-22.5-30-2.75 0-5 2.25-5 5l5 27c0 2.75 2.25 5 5 5h35c2.75 0 5-2.25 5-5l5-27c0-2.75-2.25-5-5-5"/><ellipse fill="#dfe0e1" cx="237.25" cy="329.72" rx="22.499" ry="30"/><path fill="#835c3a" d="m259.75 361.72c0 2.75-2.25 5-5 5h-35c-2.75 0-5-2.25-5-5l-5-27c0-2.75 2.25-5 5-5h45c2.75 0 5 2.25 5 5l-5 27"/><path fill="#fff" d="m253.46 339.87c-.667 2.668-3.463 4.851-6.213 4.851h-20c-2.75 0-5.546-2.183-6.213-4.851l-2.574-10.299c-.667-2.668 1.037-4.851 3.787-4.851h30c2.75 0 4.454 2.183 3.787 4.851l-2.574 10.299"/><g fill="#704c2a"><path d="m259.75 329.72h-.002c0 16.569-10.07 30-22.498 30-12.428 0-22.5-13.431-22.5-30-2.75 0-5 2.25-5 5l5 27c0 2.75 2.25 5 5 5h35c2.75 0 5-2.25 5-5l5-27c0-2.75-2.25-5-5-5"/><path d="m259.75 329.72h10v20h-10z"/><path d="m314.75 329.72h10v20h-10z"/></g><path fill="#835c3a" d="m258.75 329.72h12v7.5h-12z"/><path opacity=".15" fill="#fff" d="m269.75 329.72c0 16.569 10.07 30 22.5 30v-60c-12.428 0-22.5 13.431-22.5 30"/><path fill="#835c3a" d="m205.75 329.72h12v7.5h-12z"/><path opacity=".15" fill="#fff" d="m214.75 329.72c0 16.569 10.07 30 22.5 30v-60c-12.428 0-22.5 13.431-22.5 30"/><path fill="#835c3a" d="m313.75 329.72h12v7.5h-12z"/><path opacity=".15" fill="#fff" d="m324.75 329.72c0 16.569 10.07 30 22.5 30v-60c-12.428 0-22.5 13.431-22.5 30"/><g fill="#3f2e20"><path opacity=".5" d="m314.04 337.22c-.164.85-.359 1.682-.576 2.5h12.572c-.217-.818-.412-1.65-.576-2.5h-11.42"/><path opacity=".5" d="m259.04 337.22c-.164.85-.359 1.682-.576 2.5h12.572c-.217-.818-.412-1.65-.576-2.5h-11.42"/><path opacity=".5" d="m215.45 337.22h-5.246l.463 2.5h5.359c-.216-.819-.412-1.651-.576-2.5"/><path d="m302.75 303.51l-5 1.71-5-1.71 5-1.29z"/></g><path fill="#835c3a" d="m284.75 341.72h13v-36.5l-5-1.71z"/><path fill="#704c2a" d="m310.75 341.72h-13v-36.5l5-1.71z"/><path fill="#3f2e20" d="m247.75 303.51l-5 1.71-5-1.71 5-1.29z"/><path fill="#835c3a" d="m229.75 341.72h13v-36.5l-5-1.71z"/><path fill="#704c2a" d="m255.75 341.72h-13v-36.5l5-1.71z"/><path fill="#3f2e20" d="m235.25 359.72h70v2.5h-70z"/><ellipse fill="#fff" cx="270.25" cy="339.72" rx="22.499" ry="30"/><path fill="#835c3a" d="m292.75 371.72c0 2.75-2.25 5-5 5h-35c-2.75 0-5-2.25-5-5l-5-27c0-2.75 2.25-5 5-5h45c2.75 0 5 2.25 5 5l-5 27"/><path fill="#fff" d="m286.46 349.87c-.667 2.668-3.463 4.851-6.213 4.851h-20c-2.75 0-5.546-2.183-6.213-4.851l-2.574-10.299c-.667-2.668 1.037-4.851 3.787-4.851h30c2.75 0 4.454 2.183 3.787 4.851l-2.574 10.299"/><path fill="#704c2a" d="m292.75 339.72h-.002c0 16.569-10.07 30-22.498 30-12.428 0-22.5-13.431-22.5-30-2.75 0-5 2.25-5 5l5 27c0 2.75 2.25 5 5 5h35c2.75 0 5-2.25 5-5l5-27c0-2.75-2.25-5-5-5"/><ellipse fill="#fff" cx="325.25" cy="339.72" rx="22.499" ry="30"/><path fill="#835c3a" d="m347.75 371.72c0 2.75-2.25 5-5 5h-35c-2.75 0-5-2.25-5-5l-5-27c0-2.75 2.25-5 5-5h45c2.75 0 5 2.25 5 5l-5 27"/><path fill="#fff" d="m341.46 349.87c-.667 2.668-3.463 4.851-6.213 4.851h-20c-2.75 0-5.546-2.183-6.213-4.851l-2.574-10.299c-.667-2.668 1.037-4.851 3.787-4.851h30c2.75 0 4.454 2.183 3.787 4.851l-2.574 10.299"/><path fill="#704c2a" d="m347.75 339.72h-.002c0 16.569-10.07 30-22.498 30-12.428 0-22.5-13.431-22.5-30-2.75 0-5 2.25-5 5l5 27c0 2.75 2.25 5 5 5h35c2.75 0 5-2.25 5-5l5-27c0-2.75-2.25-5-5-5"/><ellipse fill="#fff" cx="215.25" cy="339.72" rx="22.499" ry="30"/><path fill="#835c3a" d="m237.75 371.72c0 2.75-2.25 5-5 5h-35c-2.75 0-5-2.25-5-5l-5-27c0-2.75 2.25-5 5-5h45c2.75 0 5 2.25 5 5l-5 27"/><path fill="#fff" d="m231.46 349.87c-.667 2.668-3.463 4.851-6.213 4.851h-20c-2.75 0-5.546-2.183-6.213-4.851l-2.574-10.299c-.667-2.668 1.037-4.851 3.787-4.851h30c2.75 0 4.454 2.183 3.787 4.851l-2.574 10.299"/><g fill="#704c2a"><path d="m237.75 339.72h-.002c0 16.569-10.07 30-22.498 30-12.428 0-22.5-13.431-22.5-30-2.75 0-5 2.25-5 5l5 27c0 2.75 2.25 5 5 5h35c2.75 0 5-2.25 5-5l5-27c0-2.75-2.25-5-5-5"/><path d="m237.75 339.72h10v20h-10z"/><path d="m292.75 339.72h10v20h-10z"/></g><path fill="#835c3a" d="m236.75 339.72h12v7.5h-12z"/><path opacity=".15" fill="#fff" d="m247.75 339.72c0 16.569 10.07 30 22.5 30v-60c-12.428 0-22.5 13.431-22.5 30"/><path fill="#835c3a" d="m183.75 339.72h12v7.5h-12z"/><path opacity=".15" fill="#fff" d="m192.75 339.72c0 16.569 10.07 30 22.5 30v-60c-12.428 0-22.5 13.431-22.5 30"/><path fill="#835c3a" d="m291.75 339.72h12v7.5h-12z"/><path opacity=".15" fill="#fff" d="m302.75 339.72c0 16.569 10.07 30 22.5 30v-60c-12.428 0-22.5 13.431-22.5 30"/><g fill="#3f2e20"><path opacity=".5" d="m292.04 347.22c-.164.85-.359 1.682-.576 2.5h12.572c-.217-.818-.412-1.65-.576-2.5h-11.42"/><path opacity=".5" d="m237.04 347.22c-.164.85-.359 1.682-.576 2.5h12.57c-.217-.818-.412-1.65-.576-2.5h-11.418"/><path opacity=".5" d="m193.45 347.22h-5.246l.463 2.5h5.359c-.216-.819-.412-1.651-.576-2.5"/><path opacity=".5" d="m366.75 337.22h-.338l-9.662 10h-9.705c0 0-.359 1.682-.576 2.5h10.307l9.527-10h7.525l.463-2.5h-7.541"/></g><path fill="#835c3a" d="m366.75 329.72l-10 10h-12v7.5h12l9.66-10h12.34v-7.5z"/><path opacity=".1" fill="#fff" d="m356.75 339.72l10-10-1.67 36.99-8.31.01z"/><g fill="none" stroke="#a1a4a7" stroke-width="2" stroke-miterlimit="10"><path d="m834.73 410.06h-40"/><path d="m844.73 400.06h-40"/></g><g fill="#f3d14f"><path d="m831.25 329.72h150c2.75 0 5 2.25 5 5v5h-5-150-5v-10h5"/><path d="m168.75 339.72h-150c-2.75 0-5 2.25-5 5v5h5 150 5v-10h-5"/><path d="m395.93 339.72h-9.68v10h9.68.32v-10z"/><path d="m615.93 339.72h-9.68v10h9.68.32v-10z"/></g></svg>