<?xml version="1.0" encoding="utf-8"?>
<svg version="1.1" id="Layer_1" xmlns="http://www.w3.org/2000/svg" xmlns:xlink="http://www.w3.org/1999/xlink" x="0px" y="0px" width="260px" height="205px" viewBox="0 0 260 205" enable-background="new 0 0 260 205" xml:space="preserve">
  <radialGradient id="SVGID_1_" cx="128.6949" cy="-124.8698" r="98.9355" gradientTransform="matrix(1.3116 0 0 -0.6745 -39.4209 40.5359)" gradientUnits="userSpaceOnUse">
    <stop offset="0" style="stop-color:#045972" />
    <stop offset="1" style="stop-color:#045972;stop-opacity:0" />
  </radialGradient>
  <rect y="126.6" fill="url(#SVGID_1_)" width="260" height="68.2" />
  <g>
    <polygon fill="#E84F83" points="94.9,130.9 101,111.9 89,118.9 75.2,130.2" />
    <polygon fill="#CA2317" points="89,118.9 77.4,124.3 77.5,124.3 71,127.3 65.5,129.9 75.2,130.2" />
    <polygon fill="#E54011" points="77.4,124.3 66.5,126.5 71,127.3 77.5,124.3" />
    <polygon fill="#CA2317" points="105.5,131.1 106.9,108.5 101,111.9 94.9,130.9" />
    <polygon fill="#E54011" points="146.8,115.7 106.9,108.5 129.3,119.9" />
    <polygon fill="#FFCE33" points="129.3,119.9 143.2,131.6 153.1,131.6 156.6,131.3 168.6,130.4 168.7,130.4 210,127.2 146.8,115.7" />
    <polygon fill="#FFDE85" points="156.6,131.3 153.1,131.6 156.8,131.6" />
    <polygon fill="none" points="112.3,141.5 108.9,143.2 109.3,143" />
    <polygon fill="#CA2317" points="95.7,131.6 94.9,130.9 75.2,130.2 79.6,131.6 79.6,131.6 103.3,134.7" />
    <polygon fill="#E54011" points="94.6,133.6 79.5,131.6 79.5,131.6 78.6,131.3 79.1,131.6 79.1,131.6 98.9,136.2" />
    <polygon fill="#B7DFF2" points="106.9,108.5 105.5,131.6 103.5,145.8 122.6,131.6 129.3,119.9" />
    <polygon fill="#FFCE33" points="153.1,131.6 143.2,131.6 144,131.9" />
    <polygon fill="#D6B12D" points="171.2,131.6 171.2,131.6 168.7,130.4 168.6,130.4 156.6,131.3 156.8,131.6 159.3,133.3 196.2,136.6" />
    <polygon fill="#FFDE85" points="173.3,142.6 159.3,133.3 156.8,131.6 153.1,131.6 144,131.9" />
    <polygon fill="#009EC6" points="116,139.7 119.3,140.4 144,131.9 132.4,131.7" />
    <polygon fill="#5EAFCE" points="108.3,143.5 108.9,143.2 112.3,141.5 115.9,139.7 116,139.7 116,139.7 132.4,131.7 122.6,131.6 103.5,145.8" />
    <path fill="#5EAFCE" d="M108.3,143.5L108.3,143.5L108.3,143.5z" />
    <polygon fill="#045972" points="112.3,141.5 109.3,143 117.5,143.4 117.5,143.4 139.6,144.4 116,139.7 115.9,139.7" />
    <polygon fill="#5A8591" points="109.3,143 108.9,143.2 108.3,143.5 108.3,143.5 128.4,153.4 117.5,143.4 117.5,143.4" />
    <polygon fill="#009EC6" points="103.5,145.8 116.5,157.5 111.7,145.2 108.3,143.5 108.3,143.5" />
    <polygon fill="#F39804" points="143.2,131.6 129.3,119.9 122.6,131.6 132.4,131.7 144,131.9" />
  </g>
  <g>
    <polygon fill-rule="evenodd" clip-rule="evenodd" fill="#B7DFF2" points="101.8,60.8 102.5,59.7 100.9,60.8 100.2,61 100.2,61 95.6,61.5 97,61.9 97,61.9 95.3,62.5 97.6,62.9 95.8,64.1 95.8,64.1 92.3,58.2 87.2,55.1 91.2,59.4 86.3,58.1 90.7,60.7 86.8,62.8 91.2,62.1 89.4,68 81.8,67.2 86.6,69.2 79.7,72 85.6,71.1 79.2,76.3 98.1,67.8 98.7,66.6 99.8,64.2 101.1,61.9 102.6,60.4" />
    <polygon fill-rule="evenodd" clip-rule="evenodd" fill="#CA2317" points="119.1,44.1 118.4,43.1 120,44.1 120.7,44.4 120.7,44.4 125.3,44.8 123.9,45.3 123.9,45.3 125.6,45.9 123.3,46.3 125.1,47.4 125.1,47.4 128.6,41.6 133.7,38.5 129.8,42.7 134.6,41.4 130.2,44 134.1,46.1 129.8,45.4 131.5,51.4 139.1,50.6 134.3,52.6 141.2,55.4 135.3,54.5 141.7,59.6 122.8,51.2 122.2,50 121.1,47.5 119.8,45.3 118.3,43.8" />
    <polygon fill-rule="evenodd" clip-rule="evenodd" fill="#FFDE85" points="158.1,54.7 157.4,53.6 159.1,54.7 159.8,54.9 159.8,54.9 164.4,55.4 163,55.9 163,55.9 164.7,56.5 162.4,56.8 164.1,58 164.1,58 167.6,52.1 172.8,49.1 168.8,53.3 173.6,52 169.3,54.6 173.2,56.7 168.8,56 170.6,62 178.2,61.2 173.4,63.1 180.3,66 174.3,65 180.8,70.2 161.9,61.7 161.3,60.6 160.1,58.1 158.9,55.9 157.3,54.4" />
    <polygon fill-rule="evenodd" clip-rule="evenodd" fill="#F39804" points="162.3,77 163,76 161.3,77 160.6,77.2 160.6,77.2 156.1,77.7 157.5,78.2 157.5,78.2 155.7,78.8 158.1,79.1 156.3,80.3 156.3,80.3 152.8,74.4 147.6,71.4 151.6,75.6 146.8,74.3 151.1,76.9 147.3,79 151.6,78.3 149.8,84.3 142.2,83.5 147,85.5 140.1,88.3 146.1,87.3 139.6,92.5 158.5,84.1 159.1,82.9 160.3,80.4 161.6,78.2 163.1,76.7" />
    <polygon fill-rule="evenodd" clip-rule="evenodd" fill="#5A8591" points="124.2,78.7 124.9,77.6 123.2,78.7 122.5,78.9 122.5,78.9 118,79.4 119.4,79.9 119.4,79.9 117.6,80.5 120,80.8 118.2,82 118.2,82 114.7,76.1 109.5,73.1 113.5,77.3 108.7,76 113,78.6 109.2,80.7 113.5,80 111.8,86 104.1,85.1 108.9,87.1 102,90 108,89 101.5,94.2 120.4,85.7 121,84.6 122.2,82.1 123.5,79.9 125,78.3" />
    <path fill="#045972" d="M167.3,74.9l-0.8-0.6c0.7-0.9,1.2-1.8,1.5-2.7s0.5-1.8,0.5-2.8h1c0,1-0.2,2.1-0.6,3.1 C168.6,73,168.1,73.9,167.3,74.9z M136.3,86.7l-0.1-1c-3,0.2-6.1,0.3-9.1,0.2v1c1,0,1.9,0,2.9,0C132.1,86.9,134.2,86.8,136.3,86.7z M103.5,81.2c-2.1-0.9-3.9-1.8-5.5-2.9s-2.9-2.2-4-3.4l-0.8,0.7c1.1,1.2,2.5,2.4,4.2,3.5c1.6,1.1,3.6,2.1,5.7,3L103.5,81.2z M106,55.5c2.2-0.8,4.6-1.5,7.1-2l-0.2-1c-2.6,0.6-5,1.2-7.3,2c-2.2,0.8-4.3,1.7-6.1,2.7l0.5,0.9C101.8,57.2,103.8,56.3,106,55.5z M154.6,54.7c-0.5-0.2-1-0.4-1.6-0.5c-2.3-0.7-4.8-1.4-7.4-1.9l-0.2,1c2.5,0.5,5,1.1,7.2,1.8c0.5,0.2,1,0.3,1.6,0.5L154.6,54.7z" />
  </g>
</svg>
