<?xml version="1.0" encoding="utf-8"?>
<svg version="1.1" id="Layer_1" xmlns="http://www.w3.org/2000/svg" xmlns:xlink="http://www.w3.org/1999/xlink" x="0px" y="0px" width="270px" height="205px" viewBox="0 0 270 205" enable-background="new 0 0 270 205" xml:space="preserve">
  <path fill="#FFCE33" d="M8.6,124.1c0.8,0.9,1.7,1.7,2.1,2.8c-1.5-1.4-3.1-2.4-4.9-3.2c0.5,0.9,1.3,1.5,1.8,2.4 c-2.3-1.9-4.9-0.6-7,1.1c1.8,4.1,5.7,5.7,10,5.4v0.1c-1.7,0.5-3.5,0.4-5.2,0.6v0.1c4.6,2.4,9.6,6.1,14.7,3.1c0,0,0,0,0,0.1 c-0.9,1.1-2.9,1.1-3.7,2.1c2.4,0.3,4.7-1.5,7-2.3c-0.5,1.2-1.7,1.8-2.6,2.6v0.1c5.1,1.5,10,1.3,14.4-1.8c0,0,0,0,0,0.1 c-0.7,0.9-1.7,1.5-2.6,2.1c4.7,0.5,10.8,0.9,13.7-3.6c-0.3,1.2-1.3,3-0.2,4l0,0c0.6-10.5,14.3-6.9,19.3-13.3 c-6.2,3.1-15.7,7.8-21.1,0.4c-2.3-1.3-5.1-0.3-7.4-1.8c-0.6-0.2-3,0.7-3.3,0.2c1.2,1.7,3.2,2.2,4.6,3.6c-2.4-0.8-4.2-1.9-5.9-3.7 c1,1.9,2.7,2.6,4.1,4.1c-2-0.7-3.6-2.2-5.3-3.4c-1.9-1-4.3-0.9-6.4-1.5c0.9,1.9,2,3.6,3.2,5.3c0,0,0,0-0.1,0 c-2.1-1.4-3.5-3.6-5.6-4.8c-1.9-0.3-4.2-1-5.9-0.4c0.8,1.1,1.9,2.1,2.5,3.4c0,0,0,0-0.1,0c-3.6-4.3-4.9-4.1-10.1-4.3 C8.4,123.8,8.4,123.9,8.6,124.1z" />
  <path fill="#5EAFCE" d="M252.5,137.7c-0.3-0.9-0.2-2,0-3c-1.4,1.5-4.4,3.8-6.6,3.7c0.6-1.3,2.1-2.1,2.7-3.4c-1.5,0.7-2.6,2.4-4.1,3 c-2.8,0.3-7,0.8-9.1-0.8c0,0.1,3.3-2.1,3.4-2.5c-2.5,1.4-5.6,3.8-8.5,2.5c1.5-0.4,3.9-1.7,5.1-2.6c-1.3,0.1-3.5,1.3-4.7,1.8 c-5.5,0.7-11.6-2.7-15.2-6.8c0-0.1-0.1-0.3-0.1-0.4c1.8-3.3,5.8-4,9.2-4.7c0.5,0.4,3,2.7,3.6,3c-1.5-1.9-2-2.9-2.5-3.3 c1.7-0.7,2.3,1.8,3.7,2.1c-0.5-1.2-0.9-1.1-1.1-2c3.7-1.9,11-1.1,15.3-1c1.5,1.2,2.2,3.7,4,4.8c-0.8-1.3-2.7-3.6-3.3-4.9 c2.5,1.6,6.3,0.7,7.6,3.8c0.1-1,0.4-2.3,1.1-3c-0.3,0.5-0.3,3.6,0.9,4.4c-0.3-1.5-0.3-2.3,0.4-3.4c-1.1,10,10.4,3.3,15.2,2.3 C264.6,132.5,252.7,128.3,252.5,137.7z" />
  <path fill="#E84F83" d="M196.6,110.3c5.6,0.5,9.4,0.2,14.9,0.1c-3.6-1.2-4.7-2.6-6.1-4c4.8,3.4,11.5,5.4,16.6,1.5 c-3.9-7.7-13.4-12-21.8-10.3c1.6-0.5,3.1-1.2,5.3-1.4c-2.2-1.2-5.5-0.4-7.8,0.5c1.2-1.1,2.7-1.7,4.3-1.6c-5.8-0.8-13-2.1-16.6,3.7 c0.5-1.7,1.7-3.1,3.3-3.9c-4.8,0.4-6.6,3.6-10,5.9c-4.5,2.9-11.1,1.7-14.9,5.9c19.9-8,10.9-0.6,27.6,3.2c-1-1.1-3.1-3.1-4.1-4.9 c1.5,1.3,4.1,4,5.8,5" />
  <path fill="#B7DFF2" d="M144,158.1c0.3,0,0.6-0.1,1-0.2c-2-0.9-3.4-2.1-4.6-3.5l0.1-0.1c7,6.8,15.4,0.4,23.4,0.4 c-1.9-1.7-5.3-1.6-6.6-3.6c2.9,0.7,5.9,2.4,8.9,2.5c5.6-2.8,11.8-6.2,15-11.8c-5.4-0.4-10.2-3.6-15.7-3.3c-5.4,0.6-10.6,0.6-16,0.2 c-3.5,1.8-5,4.5-8.2,6.5c0,0,0.4-0.5,0.3-0.5c1.8-2.7,3.7-4.4,6.4-6.3c-3-0.7-6,1.2-8.9,4.3c0.5-2.3,2.3-4.2,4.2-5.1 c-5.9,0.4-11.6,0.8-17.5,0.3c-5.9-0.7-8.3,4.7-13,6.9c2.6-2.2,4.5-5.3,7.9-6.7c-4.5-0.1-7.5,4.2-10.3,7.2c2.1-3.3,3.4-5.2,6.6-6.9 c-7,0-6.2,5.8-11,8.3c-10.7,0.2-18.9-3.4-26.4-6.1c6.6,6.5,18.8,6.8,27,9.1c2,3,3.9,6.8,7.9,7.6c-1.4-1.8-3.6-3.5-3.8-6 c3.4,4.1,3.9,6.7,10,7.1c-2.9-2.1-5.3-4.9-7.5-7.7c3.7,2.7,6.1,7.2,10.6,8.1C130.5,159.6,137.4,158.5,144,158.1z" />
  <path fill="#E54011" d="M58.2,105.9c1.1,1.1,2.1,2.2,3.2,3.3c-0.6-0.9-1.2-1.9-1.8-2.8c1.6,2.3,4.9,1.8,7.3,2.7 c-1-1.1-2.2-2.2-3.4-3.1c3.3,2.2,4.4,3.9,8.7,3.2c-0.3-0.1-1.8-1.3-1.9-1.6c2.9,2.3,4.1,1.2,6.8,1.1c-0.6-0.6-0.8-1.3-3.8-3.3 c1.8,0.4,3.6,2.1,5,2.8c4.2,0.4,8.4-2.4,11.9-4.5c-0.7-0.2-1.5-0.3-2.1-0.6c2.8,0.8,4.6-1.3,4.4-4c0-0.1-3.1,1.3-3.1,1.2s3-2,3-2.1 c0-2.3-2.8-1.7-4.2-1.2c-3-0.8-4.9,1.2-7.1,3c1.1-1,2-2.2,2.6-3.5c-1.4-0.2-2.8,0.3-3.8,1.2c0.4-0.5,0.7-1,1-1.6 c-7.4-0.2-6,2.2-11.1,4.2c1.4-1.2,2.6-2.7,3.5-4.4c-2.1,1-3.3,3.6-5.4,4.8c1.6-1.2,3-2.8,3.9-4.7c-4.9,0.9-9.6,0.7-13.2,4.8 c1.3-1.4,2.3-3,2.9-4.7c-4.5,8.4-12,6.6-19.9,4.7c3.6,4.2,14.5-0.8,16.1,6.5c0-0.7,0-1.5-0.3-2.2C57.7,105.3,57.9,105.6,58.2,105.9z" />
</svg>
