<svg xmlns="http://www.w3.org/2000/svg" viewBox="0 0 750 650" enable-background="new 0 0 750 650"><path fill="#ceb249" d="m302.17 322.74l-72.2 5.28 139.26 80.8-7.16-29.23z"/><path fill="#67878f" d="m362.07 379.59l7.16 29.23 60.8 35.28z"/><path fill="#f8e192" d="m302.17 322.74l-40.36 38.21 164.49-5.76z"/><path fill="#c8431c" d="m141.97 121.64l13.84 13.94 4.96 30.97z"/><path fill="#af2527" d="m171.22 142.44l73.16 56.6-39.11-8.04z"/><path fill="#c8431c" d="m171.22 142.44l70.63 34.99-25.73-.28z"/><path fill="#cb4f83" d="m167.96 265.36l-4.99-67.76 5.35-59.2 133.85 184.34-61.5-17.13z"/><g fill="#3aa3c2"><path d="m316.67 150.63l-14.5 172.11-22.76-31.33z"/><path d="m316.67 150.63l99.9-16.42-119.31 55.99z"/></g><path fill="#67878f" d="m305.48 173.32l106.81 11.67-121.99 20.23z"/><path fill="#1e5a6e" d="m305.48 173.32l69.46 81.91-84.64-50.01z"/><path opacity=".15" fill="#fff" d="m304.16 189.58l4.17-12.96 66.61 78.61z"/><path fill="#7db3ca" d="m260.41 265.41l56.26-114.78-37.26 140.78z"/><path fill="#e09b16" d="m206.78 191.33l-40.49 51.8 1.67 22.23 59.31-45.78z"/><path fill="#c8431c" d="m167.96 265.36l72.71 40.25 21.14 55.34z"/><path fill="#c7e4f1" d="m167.96 265.36l148.71-114.73-76 154.98z"/><path opacity=".15" fill="#fff" d="m288.76 207.94l-59.05 120.31-61.75-62.89z"/><path fill="#e09b16" d="m260.41 265.41l-19.74 40.2 67.14 62.24-5.64-45.11z"/><path fill="#f3d14f" d="m302.17 322.74l-61.5-17.13 21.14 55.34 56.35 57.26 19.24-34.03z"/><path fill="#1e5a6e" d="m337.4 384.18l-19.24 34.03 92.81 94.29z"/><g fill="#fff"><path opacity=".15" d="m302.17 322.74l-40.36 38.21 78.08-2.75z"/><path opacity=".15" d="m337.4 384.18l-19.24 34.03 57.38 32.49z"/></g><path fill="#1e5a6e" d="m401.95 417.42l-32.72-8.6 60.8 35.28z"/><g fill="none" stroke="#a1a4a7" stroke-width="2" stroke-miterlimit="10"><path d="m428.73 510.06h40"/><path d="m418.73 500.06h40"/></g><g fill="#c8431c"><path d="m202.27 462.5c-2.75 0-4.774 2.695-4.774 5.445v4.555h4.774 155.23l-10-10h-145.23"/><path d="m547.27 462.5h-154.77l10 10h144.77 5.225v-4.555c0-2.75-2.475-5.445-5.225-5.445"/></g><path fill="#67878f" d="m154.97 140.33l-2.16-1.25 15-25.98-64.95-37.5-15 25.98-2.17-1.25-7.5 12.99 2.17 1.25-2.504 4.33 10.1 5.83-3.939 3.5 47.63 27.5 1.05-5.16 10.11 5.83 2.5-4.33 2.16 1.25z"/><g fill="#1e5a6e"><path opacity=".3" d="m160.06 111.52l-51.962-29.999c-2.382-1.375-5.455-.552-6.83 1.83l-17.5 30.31c-1.375 2.381-.552 5.455 1.83 6.829l4.33 2.5 5.916-5.244 38.971 22.499-1.585 7.745 4.33 2.501c2.381 1.375 5.455.551 6.83-1.83l17.5-30.31c1.375-2.381.551-5.455-1.83-6.831"/><path opacity=".3" d="m109.02 84.93l-6.83 1.83-17.5 30.31 2.88 1.67 8.18-6.83 44.16 25.5-1.82 10.49 2.89 1.67 17.5-30.31-1.83-6.83z"/><circle opacity=".8" cx="93.01" cy="127.65" r="1.833"/><circle opacity=".8" cx="100.21" cy="127.19" r="1.833"/><circle opacity=".8" cx="127.65" cy="147.65" r="1.833"/><circle opacity=".8" cx="124.46" cy="141.19" r="1.834"/></g><path fill="none" stroke="#fff" stroke-width="2" stroke-miterlimit="10" d="m107.25 91.99l44.17 25.501"/><path transform="matrix(.866.5-.5.866 74.27-46.06)" opacity=".5" fill="#1e5a6e" d="m97.58 108.07h51v15h-51z"/><g fill="#444a4f"><path d="m114.43 111.44c.023-.03.047-.059.069-.086.04-.054.077-.108.114-.164.028-.04.053-.082.081-.124.053-.083.111-.161.16-.246.051-.088.092-.18.138-.271.021-.039.042-.079.062-.117.028-.061.057-.119.083-.181.018-.039.031-.08.047-.119.008-.021.016-.041.025-.062l1.383-.001v-3.999l-1.379-.001c-.01-.024-.021-.048-.033-.073-.019-.046-.038-.093-.059-.14-.073-.165-.152-.326-.242-.482-.009-.02-.014-.039-.024-.056-.006-.012-.015-.021-.022-.03-.048-.084-.099-.164-.153-.244-.021-.033-.044-.066-.066-.098-.073-.105-.149-.21-.23-.311l.69-1.195-3.464-2-.69 1.195c-.128-.02-.255-.033-.383-.045-.039-.002-.08-.006-.119-.008-.1-.006-.199-.011-.299-.011-.009 0-.018-.003-.027-.003-.015.001-.028.004-.043.004-.187.001-.372.014-.559.033-.049.005-.098.012-.146.018-.027.005-.054.006-.081.011l-.689-1.195-3.465 1.999.691 1.198c-.012.018-.024.032-.038.048-.029.038-.059.071-.085.108-.039.052-.074.104-.109.156-.027.04-.052.08-.078.12-.053.083-.111.162-.162.25-.049.085-.087.17-.131.257-.025.048-.049.093-.073.14-.027.057-.055.115-.08.174-.017.036-.03.074-.044.111-.01.022-.018.046-.027.069l-1.383-.001.001 3.999 1.379.001c.01.025.022.053.032.078.019.044.038.086.057.128.075.172.159.34.251.504.007.013.011.026.018.04.004.008.011.014.016.022.051.085.104.169.16.253.021.034.043.065.066.098.074.105.148.209.23.31l-.69 1.196 3.464 2 .69-1.196c.129.02.257.034.386.045.037.002.075.005.112.007.097.007.194.011.291.013.014 0 .025.003.039.004.02 0 .039-.007.06-.007.182-.003.364-.013.543-.033.048-.005.094-.01.142-.017.027-.005.055-.006.084-.011l.689 1.194 3.464-2-.691-1.197c.015-.018.032-.038.047-.059"/><path d="m130.98 121c.014-.034.026-.069.041-.104.025-.061.054-.121.083-.181.021-.044.045-.088.067-.131.045-.088.085-.177.134-.263.051-.088.109-.169.165-.254.023-.037.047-.075.071-.111.039-.055.075-.11.114-.163.026-.035.055-.066.08-.1.014-.019.028-.035.042-.052l-.692-1.199 3.464-1.999.69 1.193c.026-.003.052-.006.079-.008.05-.007.1-.013.15-.02.18-.02.359-.03.54-.032.021 0 .04-.006.06-.006.014 0 .025.003.039.005.095-.001.191.003.288.01.04.003.078.006.117.009.128.011.257.024.384.044l.69-1.195 3.464 1.999-.691 1.196c.081.101.156.204.23.309.022.034.045.066.066.1.056.083.108.168.158.253.006.008.012.015.017.022.007.014.011.026.017.04.093.162.176.329.251.499.02.046.039.09.058.137.01.025.022.05.031.074h1.38v3.999l-1.384.001c-.007.019-.015.037-.023.057-.017.043-.031.087-.049.128-.026.059-.054.115-.082.173-.02.043-.043.085-.063.128-.045.087-.086.177-.137.265-.049.085-.104.161-.156.242-.029.044-.056.088-.086.133-.036.052-.072.104-.11.154-.023.034-.05.063-.074.094-.015.021-.031.039-.046.059l.692 1.197-3.464 2-.69-1.194c-.028.004-.056.006-.083.01-.048.007-.093.011-.141.017-.186.021-.373.032-.561.033-.015.002-.028.006-.043.006-.009-.001-.018-.003-.028-.004-.1 0-.198-.006-.299-.011-.04-.002-.079-.005-.118-.009-.128-.011-.255-.024-.383-.044l-.69 1.196-3.464-2 .69-1.194c-.081-.103-.157-.207-.231-.313-.021-.03-.042-.062-.062-.092-.054-.081-.107-.164-.156-.247-.007-.011-.016-.02-.022-.03-.011-.019-.015-.037-.025-.057-.089-.158-.17-.321-.243-.486-.02-.044-.039-.086-.057-.131-.01-.025-.021-.052-.033-.077h-1.378v-4h1.382c.011-.024.021-.049.03-.073"/></g><path opacity=".15" fill="#fff" d="m102.86 75.6l39.95 80.8 25-43.3z"/><path fill="#af2527" d="m162.98 197.27l-13.66-84.77 19 25.9z"/><g fill="none" stroke="#a1a4a7" stroke-width="2" stroke-miterlimit="10"><path d="m35 141h40"/><path d="m25 131h40"/></g></svg>