<svg xmlns="http://www.w3.org/2000/svg" viewBox="0 0 750 650" enable-background="new 0 0 750 650"><path fill="#ceb249" d="m402.63 286.83l8.93 173.24-64-218.41z"/><path fill="#f8e192" d="m402.63 286.83l-54.69-.1 121.23 107.4z"/><path fill="#e09b16" d="m406.93 210.14l-40.31 17.79 11.17 89.38 24.31-37.54z"/><path fill="#f3d14f" d="m402.63 286.83l-32.25-53.9-19.02 55.94.23 207.07z"/><path opacity=".15" fill="#fff" d="m402.63 286.83l2.86 50.87-57.55-50.97"/><path fill="#e09b16" d="m406.25 122.5l-31.25-28.75-31.25 28.75-39.16 51.28 40.37 109.22h30.04 30.04l40.37-109.22z"/><path fill="#3f2e20" d="m442.5 227.5l-67.5 20-67.5-20 67.5-15z"/><g fill="#dfe0e1"><ellipse cx="409.5" cy="229.5" rx="22.5" ry="30"/><ellipse cx="345.5" cy="227.5" rx="22.5" ry="30"/></g><ellipse fill="#f8f9fa" cx="375" cy="220.5" rx="22.5" ry="30"/><path fill="#5d3d1b" d="m405.04 283l37.46-55.5-67.5 20-67.5-20 37.46 55.5z"/><path fill="#835c3a" d="m375 247.5l-67.5-20 37.46 55.5h30.04v-35.5"/><path fill="#704c2a" d="m442.5 227.5l-67.5 20v35.5h30.04z"/><g fill="#389cd8"><path d="m552.5 283h-130l-2.5 10h132.5 5v-5c0-2.75-2.25-5-5-5"/><path d="m347.5 283h60v10h-60z"/></g><path fill="#1e5a6e" d="m307.07 248.12l9.67-41.11 56.27 81.16z"/><path fill="#c8431c" d="m343.75 122.5l19.33 71.58 43.17-71.58z"/><path fill="#af2527" d="m375 190.4l-31.25-67.9h62.5"/><path fill="#cb4f83" d="m375 93.75l-31.25 28.75 31.25 36.25 31.25-36.25z"/><path fill="#c8431c" d="m375 93.75l.01 28.75 12.72-59.45z"/><path fill="#af2527" d="m375 93.75l.01 28.75 24.05-59.45z"/><path fill="#3aa3c2" d="m406.25 122.5l39.16 51.28"/><path opacity=".15" fill="#fff" d="m373.01 288.17l-65.94-40.05 3.33-18.51z"/><path fill="#7db3ca" d="m343.75 122.5l-36.68 125.62-2.48-74.34z"/><g fill="#c8431c"><path d="m407.5 303l5-20h-10z"/><path d="m397.5 303l5-20h-10z"/></g><path fill="#cb4f83" d="m412.5 283h-20l4-8h12z"/><path fill="#c8431c" d="m402.5 305l5-24h-10z"/><path opacity=".15" fill="#fff" d="m402.5 305l5-24h-10z"/><g fill="#c8431c"><path d="m342.5 303l-5-20h10z"/><path d="m352.5 303l-5-20h10z"/></g><path fill="#cb4f83" d="m337.5 283h20l-4-8h-12z"/><path fill="#c8431c" d="m347.5 305l-5-24h10z"/><path opacity=".15" fill="#fff" d="m347.5 305l-5-24h10z"/><path fill="#c7e4f1" d="m406.25 122.5l-91.1 197.92 130.26-146.64z"/><path fill="#3aa3c2" d="m315.15 320.42l84.18-132.07 6.92-65.85"/><path opacity=".15" fill="#fff" d="m406.25 122.5l39.16 51.28-46.08 14.57z"/><path fill="#389cd8" d="m197.5 283h125l-4.5 10h-120.5-5v-5c0-2.75 2.25-5 5-5"/><g fill="none" stroke="#a1a4a7" stroke-width="2" stroke-miterlimit="10"><path d="m472.5 247.5v-40"/><path d="m482.5 247.5v-40"/></g></svg>