<svg xmlns="http://www.w3.org/2000/svg" xmlns:xlink="http://www.w3.org/1999/xlink" viewBox="0 0 750 650" enable-background="new 0 0 750 650"><defs><use id="1" opacity=".5" xlink:href="#2"/><path id="2" d="m340 259.82h70v60h-70z"/><clipPath id="0"><use xlink:href="#1"/></clipPath></defs><path fill="#3aa3c2" d="m503.63 133.93l-87.89 145.47-6.4-37.56z"/><path fill="#67878f" d="m483.86 149.06l89.12 56.91-116.42-35.39z"/><path fill="#1e5a6e" d="m483.86 149.06l25.52 102.55-52.82-81.03z"/><path opacity=".15" fill="#fff" d="m475.6 162.83l9.34-9.61 24.44 98.39z"/><path fill="#ceb249" d="m433.17 215.46l60.57-162.56-126.68 189.09z"/><path fill="#f8e192" d="m433.17 215.46l-52.2-16.34 147.9-66.01z"/><path fill="#7db3ca" d="m413.39 244.36l55.36-112.95-36.67 138.54z"/><path fill="#f3d14f" d="m433.17 215.46l-46.96 41.72-5.24-58.06 66.35-198.44z"/><path fill="#3aa3c2" d="m468.75 131.41l98.3-16.15-117.4 55.09z"/><path fill="#c7e4f1" d="m322.42 244.31l146.33-112.9-74.78 152.51z"/><g fill="#dc8c18"><path d="m493.75 271.32h-25v-30z"/><path d="m256 271.32h25v-30z"/></g><path fill="#a27c4c" d="m387.5 614.32l-25 35v-270h25z"/><path fill="#dc8c18" d="m452.5 374.32c0 2.75-2.25 5-5 5h-145c-2.75 0-5-2.25-5-5v-15c0-2.75 2.25-5 5-5h145c2.75 0 5 2.25 5 5v15"/><path fill="#e7b141" d="m379.77 198.83c-2.622-.828-6.913-.828-9.536 0l-85.46 26.988c-2.623.828-4.768 3.756-4.768 6.506v130c0 2.75 2.25 5 5 5h180c2.75 0 5-2.25 5-5v-130c0-2.75-2.146-5.678-4.768-6.506l-85.46-26.988"/><path opacity=".15" fill="#fff" d="m375 218.57l-71.25 22.5v110h142.5v-110z"/><g fill="#dc9118"><path opacity=".2" d="m446.25 241.07v110l18.75 16.25c2.75 0 5-2.25 5-5v-130c0-2.75-2.146-5.678-4.768-6.506l-18.982 15.256"/><path opacity=".2" d="m284.77 225.81c-2.621.828-4.768 3.756-4.768 6.506v130c0 2.75 2.25 5 5 5l18.75-16.25v-110l-18.982-15.256"/><path opacity=".9" d="m303.75 351.07l-18.75 16.25h90v-16.25z"/><path opacity=".65" d="m370.23 198.83l-85.46 26.988 18.982 15.256 71.25-22.5v-20.365c-1.729 0-3.457.207-4.767.621"/><path opacity=".6" d="m446.25 351.07l18.75 16.25h-90v-16.25z"/><path opacity=".9" d="m379.77 198.83l85.46 26.988-18.982 15.256-71.25-22.5v-20.365c1.728 0 3.456.207 4.767.621"/></g><g fill="#36af6a"><path d="m347.5 604.32h-150c-2.75 0-5 2.25-5 5v5h5 150 5v-10h-5"/><path d="m402.5 604.32h150c2.75 0 5 2.25 5 5v5h-5-150-5v-10h5"/></g><path fill="#67878f" d="m422.5 324.82c0 2.75-2.25 5-5 5h-85c-2.75 0-5-2.25-5-5v-70c0-2.75 2.25-5 5-5h85c2.75 0 5 2.25 5 5v70"/><ellipse fill="#444a4f" cx="374.94" cy="340.48" rx="5" ry="6"/><use fill="#7db3ca" xlink:href="#2"/><path opacity=".3" fill="#1e5a6e" d="m422.5 254.82c0-2.75-2.25-5-5-5h-85c-2.75 0-5 2.25-5 5l12.5 5h70l12.5-5m-95 70c0 2.75 2.25 5 5 5h85c2.75 0 5-2.25 5-5l-12.5-5h-70l-12.5 5"/><g opacity=".5"><g clip-path="url(#0)"><path fill="#c8431c" d="m413.81 318.97l6.71-81.51 41.11-41.34z"/><path fill="#e09b16" d="m376.48 236.01l44.04 1.45 28.69-85.39-38.18 23.3z"/><g fill="#c8431c"><path d="m333.56 322.45l15.12-12.04 36.77 9.6z"/><path d="m355.04 298.93l41.81-65.34-3.03 25.14"/></g><path opacity=".15" fill="#fff" d="m313.46 233.81l134.25 4.24-33.9 80.92z"/><path fill="#e09b16" d="m350.77 301.33l43.78 28.12 43.56-67.74-104-25.5z"/><path fill="#cb4f83" d="m410.4 304.77l-15.03 25.52-44.6-28.96-11.33-42.89 49.11 27.8z"/><path fill="#c7e4f1" d="m318.46 247.61l150.29-116.2-80.2 154.83z"/><path fill="#af2527" d="m396.71 322.99l-77.18-16.89 31.24-4.77z"/></g></g><use opacity=".8" fill="#1e5a6e" xlink:href="#2"/><g fill="none" stroke="#fff" stroke-width="2" stroke-miterlimit="10"><path d="m355 284.82h40"/><path d="m355 294.82h40"/></g></svg>