<?xml version="1.0" encoding="UTF-8" standalone="no"?>
<svg width="135px" height="36px" viewBox="0 0 135 36" version="1.1" xmlns="http://www.w3.org/2000/svg" xmlns:xlink="http://www.w3.org/1999/xlink" xmlns:sketch="http://www.bohemiancoding.com/sketch/ns">
    <title>full logo on dark</title>
    <description>Created with Sketch (http://www.bohemiancoding.com/sketch)</description>
    <defs></defs>
    <g id="Page-1" stroke="none" stroke-width="1" fill="none" fill-rule="evenodd" sketch:type="MSPage">
        <g id="text" sketch:type="MSLayerGroup" transform="translate(50.000000, 10.000000)" fill="#C2C4C7">
            <path d="M9.306,3.843 L0.553,3.843 L0.553,7.102 L2.329,7.102 L2.329,5.409 L6.006,5.409 C6.422,5.409 6.861,5.367 6.861,5.367 L6.861,5.409 C6.861,5.409 6.59,5.639 6.276,6.015 L0.448,13.077 L0.448,14.414 L9.452,14.414 L9.452,11.155 L7.676,11.155 L7.676,12.846 L3.77,12.846 C3.351,12.846 2.935,12.867 2.935,12.867 L2.935,12.826 C2.935,12.826 3.206,12.617 3.519,12.242 L9.306,5.179 L9.306,3.843" id="Fill-1" sketch:type="MSShapeGroup"></path>
            <path d="M12.732,11.301 L12.732,11.301 C12.732,9.275 16.053,9.233 17.013,9.233 L17.537,9.233 L17.537,9.671 C17.537,11.259 16.428,13.097 14.632,13.097 C13.421,13.097 12.732,12.242 12.732,11.301 M15.427,3.593 C12.962,3.593 11.416,4.846 11.416,4.846 L12.231,6.287 C12.231,6.287 13.588,5.264 15.259,5.264 C16.556,5.264 17.516,5.85 17.516,7.519 L17.516,7.916 L16.847,7.916 C15.092,7.916 10.685,8.146 10.685,11.469 C10.685,13.641 12.439,14.665 14.193,14.665 C16.763,14.665 17.683,12.429 17.683,12.429 L17.723,12.429 C17.723,12.429 17.642,12.701 17.642,13.119 L17.642,13.265 C17.642,13.954 18.018,14.414 18.958,14.414 L21.067,14.414 L21.067,12.846 L20.002,12.846 C19.709,12.846 19.542,12.701 19.542,12.388 L19.542,7.667 C19.542,4.992 18.122,3.593 15.427,3.593" id="Fill-4" sketch:type="MSShapeGroup"></path>
            <path d="M36.493,3.593 C34.761,3.593 33.297,4.762 32.713,6.078 L32.672,6.078 C32.317,4.365 31.272,3.593 29.578,3.593 C27.866,3.593 26.342,4.908 25.818,6.161 L25.777,6.161 C25.777,6.161 25.841,5.89 25.841,5.556 L25.841,5.012 C25.841,4.24 25.402,3.843 24.503,3.843 L22.122,3.843 L22.122,5.409 L23.416,5.409 C23.707,5.409 23.876,5.556 23.876,5.85 L23.876,12.846 L22.226,12.846 L22.226,14.414 L27.573,14.414 L27.573,12.846 L25.902,12.846 L25.902,9.63 C25.902,7.561 27.071,5.431 29.077,5.431 C30.706,5.431 30.916,6.705 30.916,8.084 L30.916,14.414 L34.593,14.414 L34.593,12.846 L32.943,12.846 L32.943,9.547 C32.943,7.456 34.07,5.431 36.056,5.431 C37.643,5.431 37.915,6.6 37.915,8.084 L37.915,14.414 L41.612,14.414 L41.612,12.846 L39.941,12.846 L39.941,7.645 C39.941,4.95 38.833,3.593 36.493,3.593" id="Fill-7" sketch:type="MSShapeGroup"></path>
            <path d="M52.108,6.078 C51.712,4.365 50.666,3.593 48.973,3.593 C47.261,3.593 45.737,4.908 45.213,6.161 C45.172,6.161 45.236,5.89 45.236,5.556 L45.236,5.012 C45.236,4.24 44.797,3.843 43.898,3.843 L41.517,3.843 L41.517,5.409 L42.812,5.409 C43.103,5.409 43.271,5.556 43.271,5.85 L43.271,12.846 L41.621,12.846 L41.621,14.414 L46.968,14.414 L46.968,12.846 L45.297,12.846 L45.297,9.63 C45.297,7.561 46.467,5.431 48.473,5.431 C50.102,5.431 50.312,6.705 50.312,8.084 L50.312,14.414 L53.988,14.414 L53.988,12.846 L52.337,12.846 L52.337,9.547 C52.337,7.456 53.466,5.431 55.452,5.431 C57.038,5.431 57.309,6.6 57.309,8.084 L57.309,14.414 L61.007,14.414 L61.007,12.846 L59.336,12.846 L59.336,7.645 C59.336,4.95 58.228,3.593 55.889,3.593 C54.156,3.593 52.693,4.762 52.108,6.078 Z" id="Fill-10" sketch:type="MSShapeGroup"></path>
            <path d="M63.878,11.301 L63.878,11.301 C63.878,9.275 67.198,9.233 68.16,9.233 L68.683,9.233 L68.683,9.671 C68.683,11.259 67.575,13.097 65.779,13.097 C64.568,13.097 63.878,12.242 63.878,11.301 M66.572,3.593 C64.107,3.593 62.562,4.846 62.562,4.846 L63.377,6.287 C63.377,6.287 64.734,5.264 66.406,5.264 C67.7,5.264 68.663,5.85 68.663,7.519 L68.663,7.916 L67.993,7.916 C66.238,7.916 61.829,8.146 61.829,11.469 C61.829,13.641 63.584,14.665 65.339,14.665 C67.909,14.665 68.829,12.429 68.829,12.429 L68.871,12.429 C68.871,12.429 68.788,12.701 68.788,13.119 L68.788,13.265 C68.788,13.954 69.163,14.414 70.104,14.414 L72.213,14.414 L72.213,12.846 L71.148,12.846 C70.854,12.846 70.688,12.701 70.688,12.388 L70.688,7.667 C70.688,4.992 69.267,3.593 66.572,3.593" id="Fill-13" sketch:type="MSShapeGroup"></path>
            <path d="M74.489,9.129 L74.489,9.129 C74.489,6.726 75.846,5.367 77.539,5.367 C79.544,5.367 80.526,7.207 80.526,9.149 C80.526,11.782 79.044,12.909 77.476,12.909 C75.721,12.909 74.489,11.427 74.489,9.129 M82.49,-0.336 L78.709,-0.336 L78.709,1.231 L80.465,1.231 L80.465,4.574 C80.465,5.034 80.526,5.367 80.526,5.367 L80.485,5.367 C80.485,5.367 79.63,3.593 77.225,3.593 C74.384,3.593 72.42,5.764 72.42,9.129 C72.42,12.408 74.196,14.665 77.036,14.665 C79.755,14.665 80.61,12.556 80.61,12.556 L80.652,12.556 C80.652,12.556 80.59,12.764 80.59,13.119 L80.59,13.265 C80.59,13.954 80.966,14.414 81.906,14.414 L84.015,14.414 L84.015,12.846 L82.95,12.846 C82.657,12.846 82.49,12.701 82.49,12.388 L82.49,-0.336" id="Fill-16" sketch:type="MSShapeGroup"></path>
        </g>
        <g id="logo" sketch:type="MSLayerGroup">
            <path d="M17.343,22.3611111 L0.976190476,28.3256944 L23.6862857,25.6618056 L17.343,22.3611111" id="Fill-1" fill="#D9B42F" sketch:type="MSShapeGroup"></path>
            <path d="M17.4181667,22.33875 L19.5784762,27.3709722 L4.88095238,20.4166667 L17.4181667,22.33875" id="Fill-2" fill="#FFE188" sketch:type="MSShapeGroup"></path>
            <path d="M40.5655952,9.72222222 L38.7615952,10.4406944 L37.0952381,13.0452778 L40.5655952,9.72222222" id="Fill-3" fill="#E83F00" sketch:type="MSShapeGroup"></path>
            <path d="M36.1942143,10.6944444 L27.3333333,12.95 L31.1980714,13.7511111 L36.1942143,10.6944444" id="Fill-4" fill="#CD1F14" sketch:type="MSShapeGroup"></path>
            <path d="M37.0698571,10.6944444 L29.2857143,11.095 L31.6324762,12.0759722 L37.0698571,10.6944444" id="Fill-5" fill="#E83F00" sketch:type="MSShapeGroup"></path>
            <path d="M32.0024524,22.1822222 L35.1165,16.2536111 L36.9556429,10.6944444 L17.5714286,22.1190278 L23.8239286,22.9755556 L32.0024524,22.1822222" id="Fill-6" fill="#EB4F86" sketch:type="MSShapeGroup"></path>
            <path d="M23.0156429,5.83333333 L17.5714286,21.95375 L20.8670476,20.0131944 L23.0156429,5.83333333" id="Fill-7" fill="#00A2C9" sketch:type="MSShapeGroup"></path>
            <path d="M23.0634762,5.39194444 L14.6428571,0 L23.2694524,9.72611111 L23.0634762,5.39194444" id="Fill-8" fill="#00A2C9" sketch:type="MSShapeGroup"></path>
            <path d="M22.8409048,7.98388889 L12.6904762,4.86111111 L22.964881,11.4605556 L22.8409048,7.98388889" id="Fill-9" fill="#5A8794" sketch:type="MSShapeGroup"></path>
            <path d="M23.1864762,8.75 L13.6666667,13.4351389 L23.3104524,12.2266667 L23.1864762,8.75" id="Fill-10" fill="#005971" sketch:type="MSShapeGroup"></path>
            <path d="M35.1428571,15.8754167 L39.7124048,8.75 L36.9702857,10.3463889 L35.1428571,15.8754167" id="Fill-11" fill="#CD1F14" sketch:type="MSShapeGroup"></path>
            <path d="M24.2212381,18.4061111 L23.6247857,5.83333333 L21.4761905,20.0131944 L24.2212381,18.4061111" id="Fill-12" fill="#5EB2D1" sketch:type="MSShapeGroup"></path>
            <path d="M31.2790952,13.6111111 L32.918119,19.8770833 L31.8940952,21.8195833 L28.3095238,15.3630556 L31.2790952,13.6111111" id="Fill-13" fill="#F69B00" sketch:type="MSShapeGroup"></path>
            <path d="M31.7945238,22.3611111 L23.616,23.1544444 L19.5238095,27.3301389 L31.7945238,22.3611111" id="Fill-14" fill="#E83F00" sketch:type="MSShapeGroup"></path>
            <path d="M32.415381,22.0169444 L23.4285714,5.83333333 L24.2368571,22.8102778 L32.415381,22.0169444" id="Fill-15" fill="#BAE2F6" sketch:type="MSShapeGroup"></path>
            <path d="M23.9430238,18.4722222 L24.1548571,22.8763889 L15.6190476,25.8747222 L17.9023571,22.0198611 L23.9430238,18.4722222" id="Fill-16" fill="#F69B00" sketch:type="MSShapeGroup"></path>
            <path d="M17.3234762,22.3611111 L23.5759762,23.2176389 L19.4837857,27.3933333 L0,35.2527778 L17.3234762,22.3611111" id="Fill-17" fill="#FFD130" sketch:type="MSShapeGroup"></path>
        </g>
    </g>
</svg>