<svg viewBox="0 0 29 22" xmlns="http://www.w3.org/2000/svg"><defs><linearGradient y1="0%" x2="0" y2="100%" id="0"><stop stop-color="#fff" offset="0%"/><stop stop-color="#fae7e3" offset="100%"/></linearGradient></defs><g fill="none" fill-rule="evenodd" transform="translate(2)"><path d="m21.06 8.04v-3.044h-2.01v3.044h-3.044v1.911h3.044v3.044h2.01v-3.044h2.944v-1.911h-2.944" fill="#fdf4f2"/><path d="m11.12 12.664c-.606-.436-1.766-1.496-1.766-2.119 0-.73.205-1.09 1.288-1.949 1.11-.88 1.895-2.118 1.895-3.558 0-1.714-.752-3.384-2.163-3.935h2.127l1.502-1.102h-6.71c-3.01 0-5.839 2.314-5.839 4.995 0 2.739 2.051 4.95 5.111 4.95.213 0 .42-.004.622-.019-.199.386-.341.821-.341 1.273 0 .761.403 1.379.913 1.882-.385 0-.757.011-1.163.011-3.726 0-6.594 2.41-6.594 4.908 0 2.461 3.144 4 6.869 4 4.248 0 6.594-2.447 6.594-4.908 0-1.973-.573-3.155-2.346-4.428m-3.607-3.665c-1.633-.051-3.185-1.896-3.466-4.12-.282-2.225.813-3.928 2.445-3.878 1.632.051 3.185 1.836 3.466 4.061.281 2.225-.813 3.988-2.445 3.937m-1.226 12c-2.488 0-4.284-1.612-4.284-3.549 0-1.898 2.228-3.478 4.716-3.451.58.006 1.121.102 1.612.265 1.35.962 2.319 1.505 2.592 2.6.051.222.079.451.079.684 0 1.937-1.219 3.45-4.716 3.45" fill="url(#0)"/></g></svg>