<svg viewBox="0 0 85 16" xmlns="http://www.w3.org/2000/svg"><g fill="#f2f5f6" fill-rule="evenodd" transform="translate(0 1)"><path d="m9.306 3.843h-8.753v3.259h1.776v-1.693h3.677c.416 0 .855-.042.855-.042v.042c0 0-.271.23-.585.606l-5.828 7.06v1.337h9v-3.259h-1.776v1.691h-3.906c-.419 0-.835.021-.835.021v-.041c0 0 .271-.209.584-.584l5.787-7.06v-1.336"/><path d="m12.732 11.301c0-2.026 3.321-2.068 4.281-2.068h.524v.438c0 1.588-1.109 3.426-2.905 3.426-1.211 0-1.9-.855-1.9-1.796m2.695-7.708c-2.465 0-4.01 1.253-4.01 1.253l.815 1.441c0 0 1.357-1.023 3.03-1.023 1.297 0 2.257.586 2.257 2.255v.397h-.669c-1.755 0-6.162.23-6.162 3.553 0 2.172 1.754 3.196 3.508 3.196 2.57 0 3.49-2.236 3.49-2.236h.04c0 0-.081.272-.081.69v.146c0 .689.376 1.149 1.316 1.149h2.109v-1.568h-1.065c-.293 0-.46-.145-.46-.458v-4.721c0-2.675-1.42-4.074-4.115-4.074"/><path d="m36.493 3.593c-1.732 0-3.196 1.169-3.78 2.485h-.041c-.355-1.713-1.4-2.485-3.094-2.485-1.712 0-3.236 1.315-3.76 2.568h-.041c0 0 .064-.271.064-.605v-.544c0-.772-.439-1.169-1.338-1.169h-2.381v1.566h1.294c.291 0 .46.147.46.441v6.996h-1.65v1.568h5.347v-1.568h-1.671v-3.216c0-2.069 1.169-4.199 3.175-4.199 1.629 0 1.839 1.274 1.839 2.653v6.33h3.677v-1.568h-1.65v-3.299c0-2.091 1.127-4.116 3.113-4.116 1.587 0 1.859 1.169 1.859 2.653v6.33h3.697v-1.568h-1.671v-5.201c0-2.695-1.108-4.052-3.448-4.052"/><path d="m55.889 3.593c-1.733 0-3.196 1.169-3.781 2.485h-.041c-.355-1.713-1.401-2.485-3.094-2.485-1.712 0-3.236 1.315-3.76 2.568h-.041c0 0 .064-.271.064-.605v-.544c0-.772-.439-1.169-1.338-1.169h-2.381v1.566h1.295c.291 0 .459.147.459.441v6.996h-1.65v1.568h5.347v-1.568h-1.671v-3.216c0-2.069 1.17-4.199 3.176-4.199 1.629 0 1.839 1.274 1.839 2.653v6.33h3.676v-1.568h-1.651v-3.299c0-2.091 1.129-4.116 3.115-4.116 1.586 0 1.857 1.169 1.857 2.653v6.33h3.698v-1.568h-1.671v-5.201c0-2.695-1.108-4.052-3.447-4.052"/><path d="m63.878 11.301c0-2.026 3.32-2.068 4.282-2.068h.523v.438c0 1.588-1.108 3.426-2.904 3.426-1.211 0-1.901-.855-1.901-1.796m2.694-7.708c-2.465 0-4.01 1.253-4.01 1.253l.815 1.441c0 0 1.357-1.023 3.03-1.023 1.294 0 2.257.586 2.257 2.255v.397h-.67c-1.755 0-6.164.23-6.164 3.553 0 2.172 1.755 3.196 3.51 3.196 2.57 0 3.49-2.236 3.49-2.236h.042c0 0-.083.272-.083.69v.146c0 .689.375 1.149 1.316 1.149h2.109v-1.568h-1.065c-.294 0-.46-.145-.46-.458v-4.721c0-2.675-1.421-4.074-4.116-4.074"/><path d="m74.49 9.129c0-2.403 1.357-3.762 3.05-3.762 2 0 2.987 1.84 2.987 3.782 0 2.633-1.482 3.76-3.05 3.76-1.755 0-2.987-1.482-2.987-3.78m8-9.465h-3.781v1.567h1.756v3.343c0 .46.061.793.061.793h-.041c0 0-.855-1.774-3.26-1.774-2.841 0-4.805 2.171-4.805 5.536 0 3.279 1.776 5.536 4.616 5.536 2.719 0 3.574-2.109 3.574-2.109h.042c0 0-.062.208-.062.563v.146c0 .689.376 1.149 1.316 1.149h2.109v-1.568h-1.065c-.293 0-.46-.145-.46-.458v-12.724"/></g></svg>