<svg viewBox="0 0 41 37" xmlns="http://www.w3.org/2000/svg"><g fill="none" fill-rule="evenodd" transform="translate(0 1)"><path d="m17.698 21.947l-16.768 6.136 23.265-2.742-6.497-3.394" fill="#b0b0b0"/><path d="m17.698 21.947l2.212 5.176-15.05-7.153 12.843 1.977" fill="#e0e0e0"/><path d="m40.678 9.699l-1.848.739-1.707 2.679 3.555-3.418" fill="#6b6b6b"/><path d="m37.12 10.456l-9.08 2.318 3.959.826 5.117-3.144" fill="#535353"/><path d="m37.12 10.456l-7.972.411 2.402 1.01 5.57-1.42" fill="#6b6b6b"/><path d="m32.48 22.01l3.19-6.097 1.882-5.718-19.854 11.75 6.403.883 8.379-.818" fill="#848484"/><g fill="#767676"><path d="m23.274 5.366l-5.576 16.581 3.375-1.996 2.201-14.585"/><path d="m23.274 5.366l-8.625-5.545 8.836 10-.211-4.458"/></g><path d="m23.4 7.925l-10.398-3.212 10.525 6.787-.127-3.575" fill="#7b7b7b"/><path d="m23.4 7.925l-9.752 4.819 9.879-1.244-.127-3.575" fill="#414141"/><path d="m35.682 15.883l4.681-7.329-2.81 1.643-1.871 5.686" fill="#535353"/><path d="m23.885 18.299l-.611-12.933-2.201 14.585 2.812-1.652" fill="#9c9c9c"/><path d="m31.85 13.57l1.68 6.444-1.05 1.997-3.672-6.641 3.042-1.8" fill="#a5a5a5"/><path d="m32.48 22.01l-8.379.818-4.19 4.293 12.569-5.111" fill="#6b6b6b"/><path d="m32.48 22.01l-9.207-16.645.828 17.463 8.379-.818" fill="#d8d8d8"/><path d="m23.885 18.299l.217 4.529-8.744 3.084 2.34-3.965 6.187-3.648" fill="#a5a5a5"/><path d="m17.698 21.947l6.404.881-4.192 4.295-19.96 8.08 17.748-13.26" fill="#cdcdcd"/></g></svg>