<svg viewBox="0 0 41 36" xmlns="http://www.w3.org/2000/svg"><g fill="none" fill-rule="evenodd"><path d="m17.343 22.361l-16.367 5.965 22.71-2.664-6.343-3.301" fill="#d9b42f"/><path d="m17.418 22.339l2.16 5.03-14.698-6.954 12.537 1.922" fill="#ffe188"/><path d="m40.566 9.722l-1.804.718-1.666 2.605 3.47-3.323" fill="#e83f00"/><path d="m36.19 10.694l-8.861 2.256 3.865.801 4.996-3.057" fill="#cd1f14"/><path d="m37.07 10.694l-7.784.401 2.347.981 5.437-1.382" fill="#e83f00"/><path d="m32 22.18l3.114-5.929 1.839-5.559-19.384 11.425 6.252.857 8.179-.793" fill="#eb4f86"/><g fill="#00a2c9"><path d="m23.02 5.833l-5.444 16.12 3.296-1.941 2.149-14.18"/><path d="m23.06 5.392l-8.421-5.392 8.627 9.726-.206-4.334"/></g><path d="m22.841 7.984l-10.15-3.123 10.274 6.599-.124-3.477" fill="#5a8794"/><path d="m23.19 8.75l-9.52 4.685 9.644-1.208-.124-3.477" fill="#005971"/><path d="m35.14 15.875l4.57-7.125-2.742 1.596-1.827 5.529" fill="#cd1f14"/><path d="m24.22 18.406l-.596-12.573-2.149 14.18 2.745-1.607" fill="#5eb2d1"/><path d="m31.28 13.611l1.639 6.266-1.024 1.943-3.585-6.457 2.97-1.752" fill="#f69b00"/><path d="m31.795 22.361l-8.179.793-4.092 4.176 12.271-4.969" fill="#e83f00"/><path d="m32.415 22.02l-8.987-16.184.808 16.977 8.179-.793" fill="#bae2f6"/><path d="m23.943 18.472l.212 4.404-8.536 2.998 2.283-3.855 6.04-3.548" fill="#f69b00"/><path d="m17.323 22.361l6.252.857-4.092 4.176-19.484 7.859 17.323-12.892" fill="#ffd130"/></g></svg>