<?xml version="1.0" encoding="UTF-8" standalone="no"?>
<svg width="306px" height="351px" viewBox="0 0 306 351" version="1.1" xmlns="http://www.w3.org/2000/svg" xmlns:xlink="http://www.w3.org/1999/xlink" xmlns:sketch="http://www.bohemiancoding.com/sketch/ns">
    <title> 1</title>
    <description>Created with Sketch (http://www.bohemiancoding.com/sketch)</description>
    <defs></defs>
    <g id="Page-1" stroke="none" stroke-width="1" fill="none" fill-rule="evenodd" sketch:type="MSPage">
        <path d="M41.9411437,311.857905 C41.8674423,311.340726 41.6070309,311.090217 41.0980002,311.034661 C40.9142382,311.015469 40.7285108,311.001327 40.5437661,311.001327 C35.1851864,310.999307 29.8266068,310.999307 24.4670445,311.003347 C24.219408,311.003347 23.969806,311.034661 23.7241349,311.077086 C23.3408878,311.139713 23.1237145,311.395272 23.0618054,311.781136 C23.0244634,312.013463 23.0028443,312.25286 23.0028443,312.489227 C22.9989136,316.132713 22.9998963,319.77721 23.0008789,323.420696 C23.0008789,323.524738 23.0028443,323.62979 23.0087404,323.733832 C23.0559093,324.546975 23.3389225,324.842939 24.1329317,324.858091 C25.1873524,324.877283 26.1995176,324.874252 27.2539383,324.880313 C27.476025,324.882333 27.9133197,324.880313 27.9133197,324.880313 L27.9133197,325.233854 C27.9133197,326.575287 27.9545925,327.91571 27.9585232,329.259164 C27.9595059,329.515733 27.9044755,329.830889 28.2061598,329.964224 C28.5009652,330.094529 28.694554,329.83998 28.8812641,329.66422 C30.5174341,328.133895 32.1565522,326.60559 33.7858434,325.068195 C33.9352115,324.927789 34.0855623,324.877283 34.2830819,324.878293 C36.2828452,324.882333 38.2826086,324.882333 40.2804066,324.880313 C40.5309911,324.880313 40.7825584,324.870212 41.0311777,324.846979 C41.6237365,324.794453 41.8733384,324.553036 41.958832,323.951007 C41.9843818,323.764136 41.9981394,323.572214 41.9981394,323.383322 C42.0001048,319.797412 42.0010874,316.210492 41.9981394,312.622562 C41.996174,312.369023 41.9765203,312.110434 41.9411437,311.857905 L41.9411437,311.857905 Z M26.9975446,315 C26.446616,315 26,315.443865 26,316 C26,316.552285 26.4463114,317 26.9975446,317 L34.0024554,317 C34.553384,317 35,316.556135 35,316 C35,315.447715 34.5536886,315 34.0024554,315 L26.9975446,315 L26.9975446,315 Z M27.0006529,319 C26.4480076,319 26,319.443865 26,320 C26,320.552285 26.4484532,321 27.0006529,321 L38.027347,321 C38.5799924,321 39.028,320.556135 39.028,320 C39.028,319.447715 38.5795467,319 38.027347,319 L27.0006529,319 L27.0006529,319 Z" id="dark-message" fill="#586066" sketch:type="MSShapeGroup"></path>
        <path d="M4.63842857,316.446435 C6.0955925,316.446435 7.27685714,315.227209 7.27685714,313.723217 C7.27685714,312.219226 6.0955925,311 4.63842857,311 C3.18126464,311 2,312.219226 2,313.723217 C2,315.227209 3.18126464,316.446435 4.63842857,316.446435 L4.63842857,316.446435 Z M11.6386813,316.446957 C13.0959848,316.446957 14.2773626,315.227614 14.2773626,313.723478 C14.2773626,312.219343 13.0959848,311 11.6386813,311 C10.1813778,311 9,312.219343 9,313.723478 C9,315.227614 10.1813778,316.446957 11.6386813,316.446957 L11.6386813,316.446957 Z M17.6386813,316.446957 C19.0959848,316.446957 20.2773626,315.227614 20.2773626,313.723478 C20.2773626,312.219343 19.0959848,311 17.6386813,311 C16.1813778,311 15,312.219343 15,313.723478 C15,315.227614 16.1813778,316.446957 17.6386813,316.446957 L17.6386813,316.446957 Z M15.2232198,317.311217 L7.69893407,317.311217 C7.05594505,317.311217 6.53478022,317.84913 6.53478022,318.512261 L6.53478022,325.378348 C6.53478022,326.042261 7.05594505,326.579391 7.69893407,326.579391 L8.05707692,326.579391 L8.05707692,335.070696 L14.7278352,335.070696 L14.7278352,326.579391 L15.2232198,326.579391 C15.8662088,326.579391 16.3868681,326.042 16.3868681,325.378348 L16.3868681,318.512261 C16.3866154,317.849391 15.8662088,317.311217 15.2232198,317.311217 L15.2232198,317.311217 Z M4.89343956,325.378609 L4.89343956,318.512522 C4.89343956,318.083131 4.99024176,317.678783 5.15326374,317.311479 L1.26752747,317.311479 C0.625043956,317.311479 0.103879121,317.849392 0.103879121,318.512522 L0.103879121,325.378609 C0.103879121,326.042522 0.625043956,326.579653 1.26752747,326.579653 L1.62592308,326.579653 L1.62592308,335.070957 L6.41523077,335.070957 L6.41523077,327.953392 C5.51216484,327.472348 4.89343956,326.498522 4.89343956,325.378609 L4.89343956,325.378609 Z M21.7572418,317.311218 L17.7691429,317.311218 C17.9321648,317.678522 18.0292198,318.083131 18.0292198,318.512261 L18.0292198,325.378348 C18.0292198,326.554348 17.3468022,327.567566 16.3696813,328.020957 L16.3696813,335.070696 L21.2623626,335.070696 L21.2623626,326.579392 L21.756989,326.579392 C22.3997253,326.579392 22.9211429,326.042 22.9211429,325.378348 L22.9211429,318.512261 C22.9213956,317.849392 22.3997253,317.311218 21.7572418,317.311218 L21.7572418,317.311218 Z" id="dark-group" fill="#586066" sketch:type="MSShapeGroup"></path>
        <path d="M47.6386813,316.446957 C49.0959848,316.446957 50.2773626,315.227614 50.2773626,313.723478 C50.2773626,312.219343 49.0959848,311 47.6386813,311 C46.1813778,311 45,312.219343 45,313.723478 C45,315.227614 46.1813778,316.446957 47.6386813,316.446957 L47.6386813,316.446957 Z M51.2232198,317.311217 L43.6989341,317.311217 C43.0559451,317.311217 42.5347802,317.84913 42.5347802,318.512261 L42.5347802,325.378348 C42.5347802,326.042261 43.0559451,326.579391 43.6989341,326.579391 L44.0570769,326.579391 L44.0570769,335.070696 L50.7278352,335.070696 L50.7278352,326.579391 L51.2232198,326.579391 C51.8662088,326.579391 52.3868681,326.042 52.3868681,325.378348 L52.3868681,318.512261 C52.3866154,317.849391 51.8662088,317.311217 51.2232198,317.311217 L51.2232198,317.311217 Z" id="dark-person" fill="#586066" sketch:type="MSShapeGroup"></path>
        <path d="M92.9411437,4.85790489 C92.8674423,4.34072579 92.6070309,4.09021716 92.0980002,4.03466081 C91.9142382,4.01546861 91.7285108,4.001327 91.5437661,4.001327 C86.1851864,3.99930677 80.8266068,3.99930677 75.4670445,4.00334723 C75.219408,4.00334723 74.969806,4.03466081 74.7241349,4.07708566 C74.3408878,4.13971281 74.1237145,4.39527202 74.0618054,4.78113612 C74.0244634,5.01346267 74.0028443,5.25286003 74.0028443,5.48922704 C73.9989136,9.13271344 73.9998963,12.7772099 74.0008789,16.4206963 C74.0008789,16.5247382 74.0028443,16.6297902 74.0087404,16.7338321 C74.0559093,17.5469751 74.3389225,17.8429389 75.1329317,17.8580906 C76.1873524,17.8772828 77.1995176,17.8742525 78.2539383,17.8803131 C78.476025,17.8823334 78.9133197,17.8803131 78.9133197,17.8803131 L78.9133197,18.2338536 C78.9133197,19.5752869 78.9545925,20.91571 78.9585232,22.2591636 C78.9595059,22.5157329 78.9044755,22.8308889 79.2061598,22.9642242 C79.5009652,23.0945291 79.694554,22.83998 79.8812641,22.6642199 C81.5174341,21.133895 83.1565522,19.6055903 84.7858434,18.0681946 C84.9352115,17.9277886 85.0855623,17.8772828 85.2830819,17.8782929 C87.2828452,17.8823334 89.2826086,17.8823334 91.2804066,17.8803131 C91.5309911,17.8803131 91.7825584,17.870212 92.0311777,17.8469793 C92.6237365,17.7944533 92.8733384,17.5530357 92.958832,16.9510069 C92.9843818,16.7641356 92.9981394,16.5722137 92.9981394,16.3833221 C93.0001048,12.7974122 93.0010874,9.21049233 92.9981394,5.62256228 C92.996174,5.3690233 92.9765203,5.11043375 92.9411437,4.85790489 L92.9411437,4.85790489 Z M77.9975446,8 C77.446616,8 77,8.44386482 77,9 C77,9.55228475 77.4463114,10 77.9975446,10 L85.0024554,10 C85.553384,10 86,9.55613518 86,9 C86,8.44771525 85.5536886,8 85.0024554,8 L77.9975446,8 L77.9975446,8 Z M78.0006529,12 C77.4480076,12 77,12.4438648 77,13 C77,13.5522847 77.4484532,14 78.0006529,14 L89.027347,14 C89.5799924,14 90.028,13.5561352 90.028,13 C90.028,12.4477153 89.5795467,12 89.027347,12 L78.0006529,12 L78.0006529,12 Z" id="Message" fill="#F0FAFF" sketch:type="MSShapeGroup"></path>
        <path d="M5.92009147,43.374 C3.47609147,43.358 1.50109147,41.359 1.51609147,38.916 C1.53409147,36.491 3.51809147,34.516 5.94709147,34.516 L5.97609147,34.516 C7.15809147,34.523 8.26709147,34.992 9.09709147,35.834 C9.92809147,36.674 10.3820915,37.791 10.3750915,38.974 C10.3650915,40.15 9.90309147,41.258 9.06709147,42.087 C8.23309147,42.917 7.12309147,43.374 5.94909147,43.374 L5.92009147,43.374 M5.98309147,33 L5.94509147,33 C2.68109147,33 0.0220914661,35.636 9.14660647e-05,38.907 C-0.0179085339,42.191 2.62309147,44.869 5.90709147,44.89 L5.94909147,44.89 C7.03809147,44.89 8.06209147,44.596 8.94009147,44.08 L12.5530915,47.695 L12.6450915,47.783 C12.7820915,47.92 12.9600915,47.988 13.1390915,47.988 C13.3180915,47.988 13.4970915,47.92 13.6330915,47.783 L14.7970915,46.622 C15.0690915,46.348 15.0690915,45.905 14.7970915,45.633 L14.7060915,45.54 L11.0880915,41.924 C11.5930915,41.058 11.8830915,40.056 11.8900915,38.983 C11.9140915,35.699 9.26709147,33.022 5.98309147,33" id="Search" fill-opacity="0.5" fill="#ECECEC" sketch:type="MSShapeGroup"></path>
        <path d="M20,67.09 L20,64.814 L19.678,64.709 L17.242,63.914 L16.592,62.344 L17.842,59.701 L16.232,58.09 L15.93,58.246 L13.644,59.405 L12.076,58.755 L11.09,56 L8.814,56 L7.914,58.758 L6.344,59.408 L3.699,58.16 L2.09,59.768 L2.244,60.072 L3.402,62.356 L2.754,63.925 L0,64.911 L0,67.187 L0.32,67.291 L2.758,68.088 L3.408,69.656 L2.158,72.301 L3.768,73.911 L4.068,73.757 L6.353,72.597 L7.924,73.248 L8.91,76 L11.186,76 L11.291,75.68 L12.086,73.244 L13.654,72.594 L16.299,73.842 L17.908,72.234 L17.756,71.932 L16.596,69.648 L17.246,68.078 L20,67.09 L20,67.09 Z M10,69.188 C8.24,69.188 6.812,67.762 6.812,66 C6.812,64.24 8.24,62.815 10,62.815 C11.76,62.815 13.185,64.24 13.185,66 C13.185,67.762 11.76,69.188 10,69.188 L10,69.188 L10,69.188 Z" id="cog" fill="#4D4D4D" sketch:type="MSShapeGroup"></path>
        <path d="M20,87.09 L20,84.814 L19.678,84.709 L17.242,83.914 L16.592,82.344 L17.842,79.701 L16.232,78.09 L15.93,78.246 L13.644,79.405 L12.076,78.755 L11.09,76 L8.814,76 L7.914,78.758 L6.344,79.408 L3.699,78.16 L2.09,79.768 L2.244,80.072 L3.402,82.356 L2.754,83.925 L0,84.911 L0,87.187 L0.32,87.291 L2.758,88.088 L3.408,89.656 L2.158,92.301 L3.768,93.911 L4.068,93.757 L6.353,92.597 L7.924,93.248 L8.91,96 L11.186,96 L11.291,95.68 L12.086,93.244 L13.654,92.594 L16.299,93.842 L17.908,92.234 L17.756,91.932 L16.596,89.648 L17.246,88.078 L20,87.09 L20,87.09 Z M10,89.188 C8.24,89.188 6.812,87.762 6.812,86 C6.812,84.24 8.24,82.815 10,82.815 C11.76,82.815 13.185,84.24 13.185,86 C13.185,87.762 11.76,89.188 10,89.188 L10,89.188 L10,89.188 Z" id="dark-cog" fill="#26272E" sketch:type="MSShapeGroup"></path>
        <path d="M31,66 L31,59 L30,59 L30,66 L23,66 L23,67 L30,67 L30,74 L31,74 L31,67 L38,67 L38,66 L31,66 L31,66 Z" id="green-plus" stroke="#38AE6A" stroke-width="2" sketch:type="MSShapeGroup"></path>
        <path d="M31,86 L31,79 L30,79 L30,86 L23,86 L23,87 L30,87 L30,94 L31,94 L31,87 L38,87 L38,86 L31,86 L31,86 Z" id="white-plus" stroke="#FFFFFF" stroke-width="2" sketch:type="MSShapeGroup"></path>
        <path d="M5.324,110.89 L11.883,105.477 L5.324,100.064 L5.324,103.596 L0,103.596 L0,107.358 L5.324,107.358 L5.324,110.89 L5.324,110.89 Z M3.644,96 L3.644,97.542 L13.052,97.542 L13.052,113.459 L3.644,113.459 L3.644,115 L14.593,115 L14.593,96 L3.644,96 L3.644,96 Z" id="sign-out" fill="#0F94D7" sketch:type="MSShapeGroup"></path>
        <g id="channels" sketch:type="MSLayerGroup" transform="translate(0.000000, 141.000000)">
            <path d="M11.3246753,9 L8.5,11.5925926 L5.67532468,9 L1,14 L16,14 L11.3246753,9 L11.3246753,9 Z M17,4 L12,8.59183673 L17,14 L17,4 L17,4 Z M0,4 L0,14 L5,8.64646465 L0,4 L0,4 Z M17,3 L0,3 L8.4491018,10 L17,3 L17,3 Z" id="email" fill="#A9BCC4" sketch:type="MSShapeGroup"></path>
            <path d="M31.7211201,1.11066286 C29.6577938,0.407237941 28.6261306,3.2209376 28.3166317,4.92925526 L30.070459,6.73806218 C30.070459,6.73806218 30.070459,7.84344419 27.5944674,10.1546975 C25.1184758,12.4659508 23.9836464,12.3654615 23.9836464,12.3654615 L21.92032,10.355676 C20.5791579,10.5566546 18,12.164483 18,12.164483 C18.3094989,14.5762255 19.96016,16.1840539 22.5393179,15.9830754 C23.5709811,15.8825861 30.6894569,14.375247 33.7844464,6.33610509 C34.4034443,4.52729816 33.6812801,1.81408777 31.7211201,1.11066286 L31.7211201,1.11066286 L31.7211201,1.11066286 Z M17.9876543,7.40740741 L25,8 L24.4074074,0.987654321 L22.3333333,3.0617284 L19.1728395,0 L17,2.17283951 L20.0617284,5.33333333 L17.9876543,7.40740741 L17.9876543,7.40740741 Z" id="calls-in" fill="#A9BCC4" sketch:type="MSShapeGroup"></path>
            <path d="M46.07968,10.4187751 L44.0163536,12.4421155 C44.0163536,12.4421155 42.8815242,12.5432825 40.4055326,10.2164411 C37.929541,7.88959959 37.929541,6.77676236 37.929541,6.77676236 L39.6833683,4.95575599 C39.3738694,3.23591665 38.2390399,0.403240076 36.2788799,1.11140922 C34.3187199,1.71841134 33.5965557,4.55108791 34.2155536,6.27092726 C37.3105431,14.4654559 44.4290189,15.9829612 45.4606821,15.9829612 C48.03984,16.1852953 49.6905011,14.5666229 50,12.1386144 C50,12.2397815 47.3176758,10.6211091 46.07968,10.4187751 L46.07968,10.4187751 L46.07968,10.4187751 Z M43.2439024,9 L46.2682927,5.87804878 L48.3170732,7.92682927 L49,1 L42.0731707,1.68292683 L44.1219512,3.73170732 L41,6.85365854 L43.2439024,9 L43.2439024,9 Z" id="calls-out" fill="#A9BCC4" sketch:type="MSShapeGroup"></path>
            <path d="M52.8053691,1 C52.3020134,1 52,1.40268456 52,1.80536913 L52,15.1946309 C52,15.6979866 52.4026846,16 52.8053691,16 L60.0536913,16 L60.0536913,10.1610738 L58.0402685,10.1610738 L58.0402685,7.84563758 L60.0536913,7.84563758 L60.0536913,6.13422819 C60.0536913,4.22147651 61.261745,3.11409396 62.9731544,3.11409396 C63.7785235,3.11409396 64.4832215,3.2147651 64.6845638,3.2147651 L64.6845638,5.22818792 L63.4765101,5.22818792 C62.5704698,5.22818792 62.3691275,5.63087248 62.3691275,6.33557047 L62.3691275,7.74496644 L64.5838926,7.74496644 L64.2818792,10.0604027 L62.3691275,10.0604027 L62.3691275,15.9993289 L66.1946309,15.9993289 C66.6979866,15.9993289 67,15.5966443 67,15.1939597 L67,15.1472625 L67,1.70469799 C67,1.40268456 66.5973154,1 66.1946309,1 L52.8053691,1 L52.8053691,1 Z" id="facebook" fill="#A9BCC4" sketch:type="MSShapeGroup"></path>
            <path d="M82.1756757,4.98347107 C82.7837838,4.58677686 83.2905405,3.99173554 83.5945946,3.29752066 C82.9864865,3.69421488 82.277027,3.89256198 81.5675676,3.99173554 C80.9594595,3.39669421 80.1486486,3 79.3378378,3 C77.6148649,3 76.1959459,4.38842975 76.1959459,6.07438017 C76.1959459,6.27272727 76.1959459,6.57024793 76.2972973,6.76859504 C73.6621622,6.66942149 71.4324324,5.38016529 69.9121622,3.59504132 C69.6081081,4.09090909 69.5067568,4.58677686 69.5067568,5.08264463 C69.5067568,6.17355372 70.0135135,7.0661157 70.9256757,7.66115702 C70.4189189,7.66115702 69.9121622,7.46280992 69.5067568,7.26446281 C69.5067568,8.75206612 70.6216216,9.94214876 72.0405405,10.2396694 C71.7364865,10.338843 71.5337838,10.338843 71.2297297,10.338843 C71.027027,10.338843 70.8243243,10.338843 70.6216216,10.2396694 C71.027027,11.4297521 72.1418919,12.322314 73.5608108,12.322314 C72.4459459,13.1157025 71.1283784,13.6115702 69.7094595,13.6115702 L69,13.6115702 C70.4189189,14.5041322 72.0405405,15 73.7635135,15 C79.5405405,15 82.5810811,10.338843 82.5810811,6.37190083 L82.5810811,5.97520661 C83.0878378,5.5785124 83.5945946,5.08264463 84,4.48760331 C83.3918919,4.68595041 82.8851351,4.88429752 82.1756757,4.98347107 L82.1756757,4.98347107 L82.1756757,4.98347107 Z" id="twitter" fill="#A9BCC4" sketch:type="MSShapeGroup"></path>
            <path d="M96.3246753,9 L93.5,11.5925926 L90.6753247,9 L86,14 L101,14 L96.3246753,9 L96.3246753,9 Z M102,4 L97,8.59183673 L102,14 L102,4 L102,4 Z M85,4 L85,14 L90,8.64646465 L85,4 L85,4 Z M102,3 L85,3 L93.4491018,10 L102,3 L102,3 Z" id="gray-email" fill="#C5C5C6" sketch:type="MSShapeGroup"></path>
            <path d="M116.72112,1.11066286 C114.657794,0.407237941 113.626131,3.2209376 113.316632,4.92925526 L115.070459,6.73806218 C115.070459,6.73806218 115.070459,7.84344419 112.594467,10.1546975 C110.118476,12.4659508 108.983646,12.3654615 108.983646,12.3654615 L106.92032,10.355676 C105.579158,10.5566546 103,12.164483 103,12.164483 C103.309499,14.5762255 104.96016,16.1840539 107.539318,15.9830754 C108.570981,15.8825861 115.689457,14.375247 118.784446,6.33610509 C119.403444,4.52729816 118.68128,1.81408777 116.72112,1.11066286 L116.72112,1.11066286 L116.72112,1.11066286 Z M102.987654,7.40740741 L110,8 L109.407407,0.987654321 L107.333333,3.0617284 L104.17284,0 L102,2.17283951 L105.061728,5.33333333 L102.987654,7.40740741 L102.987654,7.40740741 Z" id="gray-calls-in" fill="#C5C5C6" sketch:type="MSShapeGroup"></path>
            <path d="M129.016354,12.4421155 C129.016354,12.4421155 127.881524,12.5432825 125.405533,10.2164411 C122.929541,7.88959959 122.929541,6.77676236 122.929541,6.77676236 L124.683368,4.95575599 C124.373869,3.23591665 123.23904,0.403240076 121.27888,1.11140922 C119.31872,1.71841134 118.596556,4.55108791 119.215554,6.27092726 C122.310543,14.4654559 129.429019,15.9829612 130.460682,15.9829612 C133.03984,16.1852953 134.690501,14.5666229 135,12.1386144 C135,12.2397815 132.317676,10.6211091 131.07968,10.4187751 L129.016354,12.4421155 Z M128.243902,9 L131.268293,5.87804878 L133.317073,7.92682927 L134,1 L127.073171,1.68292683 L129.121951,3.73170732 L126,6.85365854 L128.243902,9 L128.243902,9 Z" id="gray-calls-out" fill="#C5C5C6" sketch:type="MSShapeGroup"></path>
            <path d="M137.805369,1 C137.302013,1 137,1.40268456 137,1.80536913 L137,15.1946309 C137,15.6979866 137.402685,16 137.805369,16 L145.053691,16 L145.053691,10.1610738 L143.040268,10.1610738 L143.040268,7.84563758 L145.053691,7.84563758 L145.053691,6.13422819 C145.053691,4.22147651 146.261745,3.11409396 147.973154,3.11409396 C148.778523,3.11409396 149.483221,3.2147651 149.684564,3.2147651 L149.684564,5.22818792 L148.47651,5.22818792 C147.57047,5.22818792 147.369128,5.63087248 147.369128,6.33557047 L147.369128,7.74496644 L149.583893,7.74496644 L149.281879,10.0604027 L147.369128,10.0604027 L147.369128,15.9993289 L151.194631,15.9993289 C151.697987,15.9993289 152,15.5966443 152,15.1939597 L152,1.70469799 C152,1.40268456 151.597315,1 151.194631,1 L137.805369,1 L137.805369,1 Z" id="gray-facebook" fill="#C5C5C6" sketch:type="MSShapeGroup"></path>
            <path d="M168.594595,3.29752066 C167.986486,3.69421488 167.277027,3.89256198 166.567568,3.99173554 C165.959459,3.39669421 165.148649,3 164.337838,3 C162.614865,3 161.195946,4.38842975 161.195946,6.07438017 C161.195946,6.27272727 161.195946,6.57024793 161.297297,6.76859504 C158.662162,6.66942149 156.432432,5.38016529 154.912162,3.59504132 C154.608108,4.09090909 154.506757,4.58677686 154.506757,5.08264463 C154.506757,6.17355372 155.013514,7.0661157 155.925676,7.66115702 C155.418919,7.66115702 154.912162,7.46280992 154.506757,7.26446281 C154.506757,8.75206612 155.621622,9.94214876 157.040541,10.2396694 C156.736486,10.338843 156.533784,10.338843 156.22973,10.338843 C156.027027,10.338843 155.824324,10.338843 155.621622,10.2396694 C156.027027,11.4297521 157.141892,12.322314 158.560811,12.322314 C157.445946,13.1157025 156.128378,13.6115702 154.709459,13.6115702 L154,13.6115702 C155.418919,14.5041322 157.040541,15 158.763514,15 C164.540541,15 167.581081,10.338843 167.581081,6.37190083 L167.581081,5.97520661 C168.087838,5.5785124 168.594595,5.08264463 169,4.48760331 C168.391892,4.68595041 167.885135,4.88429752 167.175676,4.98347107 C167.783784,4.58677686 168.290541,3.99173554 168.594595,3.29752066 Z" id="gray-twitter" fill="#C5C5C6" sketch:type="MSShapeGroup"></path>
            <path d="M181.324675,9 L178.5,11.5925926 L175.675325,9 L171,14 L186,14 L181.324675,9 L181.324675,9 Z M187,4 L182,8.59183673 L187,14 L187,4 L187,4 Z M170,4 L170,14 L175,8.64646465 L170,4 L170,4 Z M187,3 L170,3 L178.449102,10 L187,3 L187,3 Z" id="white-email" fill="#FFFFFF" sketch:type="MSShapeGroup"></path>
            <path d="M201.72112,1.11066286 C199.657794,0.407237941 198.626131,3.2209376 198.316632,4.92925526 L200.070459,6.73806218 C200.070459,6.73806218 200.070459,7.84344419 197.594467,10.1546975 C195.118476,12.4659508 193.983646,12.3654615 193.983646,12.3654615 L191.92032,10.355676 C190.579158,10.5566546 188,12.164483 188,12.164483 C188.309499,14.5762255 189.96016,16.1840539 192.539318,15.9830754 C193.570981,15.8825861 200.689457,14.375247 203.784446,6.33610509 C204.403444,4.52729816 203.68128,1.81408777 201.72112,1.11066286 L201.72112,1.11066286 L201.72112,1.11066286 Z M187.987654,7.40740741 L195,8 L194.407407,0.987654321 L192.333333,3.0617284 L189.17284,0 L187,2.17283951 L190.061728,5.33333333 L187.987654,7.40740741 L187.987654,7.40740741 Z" id="white-calls-in" fill="#FFFFFF" sketch:type="MSShapeGroup"></path>
            <path d="M216.07968,10.4187751 L214.016354,12.4421155 C214.016354,12.4421155 212.881524,12.5432825 210.405533,10.2164411 C207.929541,7.88959959 207.929541,6.77676236 207.929541,6.77676236 L209.683368,4.95575599 C209.373869,3.23591665 208.23904,0.403240076 206.27888,1.11140922 C204.31872,1.71841134 203.596556,4.55108791 204.215554,6.27092726 C207.310543,14.4654559 214.429019,15.9829612 215.460682,15.9829612 C218.03984,16.1852953 219.690501,14.5666229 220,12.1386144 C220,12.2397815 217.317676,10.6211091 216.07968,10.4187751 L216.07968,10.4187751 L216.07968,10.4187751 Z M213.243902,9 L216.268293,5.87804878 L218.317073,7.92682927 L219,1 L212.073171,1.68292683 L214.121951,3.73170732 L211,6.85365854 L213.243902,9 L213.243902,9 Z" id="white-calls-out" fill="#FFFFFF" sketch:type="MSShapeGroup"></path>
            <path d="M222.805369,1 C222.302013,1 222,1.40268456 222,1.80536913 L222,15.1946309 C222,15.6979866 222.402685,16 222.805369,16 L230.053691,16 L230.053691,10.1610738 L228.040268,10.1610738 L228.040268,7.84563758 L230.053691,7.84563758 L230.053691,6.13422819 C230.053691,4.22147651 231.261745,3.11409396 232.973154,3.11409396 C233.778523,3.11409396 234.483221,3.2147651 234.684564,3.2147651 L234.684564,5.22818792 L233.47651,5.22818792 C232.57047,5.22818792 232.369128,5.63087248 232.369128,6.33557047 L232.369128,7.74496644 L234.583893,7.74496644 L234.281879,10.0604027 L232.369128,10.0604027 L232.369128,15.9993289 L236.194631,15.9993289 C236.697987,15.9993289 237,15.5966443 237,15.1939597 L237,1.70469799 C237,1.40268456 236.597315,1 236.194631,1 L222.805369,1 L222.805369,1 Z" id="white-facebook" fill="#FFFFFF" sketch:type="MSShapeGroup"></path>
            <path d="M252.175676,4.98347107 C252.783784,4.58677686 253.290541,3.99173554 253.594595,3.29752066 C252.986486,3.69421488 252.277027,3.89256198 251.567568,3.99173554 C250.959459,3.39669421 250.148649,3 249.337838,3 C247.614865,3 246.195946,4.38842975 246.195946,6.07438017 C246.195946,6.27272727 246.195946,6.57024793 246.297297,6.76859504 C243.662162,6.66942149 241.432432,5.38016529 239.912162,3.59504132 C239.608108,4.09090909 239.506757,4.58677686 239.506757,5.08264463 C239.506757,6.17355372 240.013514,7.0661157 240.925676,7.66115702 C240.418919,7.66115702 239.912162,7.46280992 239.506757,7.26446281 C239.506757,8.75206612 240.621622,9.94214876 242.040541,10.2396694 C241.736486,10.338843 241.533784,10.338843 241.22973,10.338843 C241.027027,10.338843 240.824324,10.338843 240.621622,10.2396694 C241.027027,11.4297521 242.141892,12.322314 243.560811,12.322314 C242.445946,13.1157025 241.128378,13.6115702 239.709459,13.6115702 L239,13.6115702 C240.418919,14.5041322 242.040541,15 243.763514,15 C249.540541,15 252.581081,10.338843 252.581081,6.37190083 L252.581081,5.97520661 C253.087838,5.5785124 253.594595,5.08264463 254,4.48760331 C253.391892,4.68595041 252.885135,4.88429752 252.175676,4.98347107 L252.175676,4.98347107 L252.175676,4.98347107 Z" id="white-twitter" fill="#FFFFFF" sketch:type="MSShapeGroup"></path>
            <path d="M270.477026,1.55363757 L264.974463,7.10989604 L266.159843,8.30650488 L271.662407,2.75024642 L270.477026,1.55363757 L270.477026,1.55363757 Z M263.68,8.3650568 L263.68,9.5428568 L264.88896,9.5428568 L265.48144,8.9539568 L264.28432,7.8262568 L263.68,8.3650568 L263.68,8.3650568 Z M266.07408,10.5928568 L262.56,10.5928568 L262.56,7.2540068 L267.84,2.2539068 L267.84,1.1428568 L260.8,1.1428568 L260.8,5.6428568 L256,5.6428568 L256,16.1428568 L267.84,16.1428568 L267.84,8.9206568 L266.07408,10.5928568 L266.07408,10.5928568 Z M256,4.4428568 L259.52,4.4428568 L259.52,1.1428568 L256,4.4428568 L256,4.4428568 Z" id="white-note" fill="#FFFFFF" sketch:type="MSShapeGroup"></path>
            <path d="M283.016354,12.4421155 C283.016354,12.4421155 281.881524,12.5432825 279.405533,10.2164411 C276.929541,7.88959959 276.929541,6.77676236 276.929541,6.77676236 L278.683368,4.95575599 C278.373869,3.23591665 277.23904,0.403240076 275.27888,1.11140922 C273.31872,1.71841134 272.596556,4.55108791 273.215554,6.27092726 C276.310543,14.4654559 283.429019,15.9829612 284.460682,15.9829612 C287.03984,16.1852953 288.690501,14.5666229 289,12.1386144 C289,12.2397815 286.317676,10.6211091 285.07968,10.4187751 L283.016354,12.4421155 Z" id="white-phone" fill="#FFFFFF" sketch:type="MSShapeGroup"></path>
            <path d="M300.016354,11.4421155 C300.016354,11.4421155 298.881524,11.5432825 296.405533,9.2164411 C293.929541,6.88959959 293.929541,5.77676236 293.929541,5.77676236 L295.683368,3.95575599 C295.373869,2.23591665 294.23904,-0.596759924 292.27888,0.11140922 C290.31872,0.71841134 289.596556,3.55108791 290.215554,5.27092726 C293.310543,13.4654559 300.429019,14.9829612 301.460682,14.9829612 C304.03984,15.1852953 305.690501,13.5666229 306,11.1386144 C306,11.2397815 303.317676,9.6211091 302.07968,9.4187751 L300.016354,11.4421155 Z" id="gray-phone" fill="#C5C5C6" sketch:type="MSShapeGroup"></path>
        </g>
        <g id="mood" sketch:type="MSLayerGroup" transform="translate(0.000000, 157.000000)">
            <path d="M60.1875,5.14680851 C60.1875,4.33085106 60.125,3.57765957 60,2.76170213 C59.75,1.19255319 58.9375,0.376595745 57.3125,0.188297872 C56.75,0.125531915 56.125,0.0627659574 55.5625,0.0627659574 L4.6875,0.0627659574 C3.875,0.0627659574 3.125,0.188297872 2.3125,0.313829787 C1.125,0.50212766 0.4375,1.31808511 0.1875,2.5106383 C0.0625,3.26382979 -2.13162821e-14,3.95425532 -2.13162821e-14,4.70744681 L-2.13162821e-14,38.4755319 L-2.13162821e-14,39.4170213 C0.125,41.9276596 1.0625,42.8691489 3.5625,42.8691489 C6.875,42.9319149 10.375,42.9319149 13.75,42.9319149 C14.4375,42.9319149 15.5625,42.9946809 15.5625,42.9946809 L15.5625,44.0617021 C15.5625,48.2042553 15.625,52.3468085 15.625,56.4893617 C15.625,57.3053191 15.625,58.2468085 16.5625,58.6861702 C17.5,59.062766 18.0625,58.3095745 18.625,57.7446809 C23.8125,52.9744681 28.9375,48.2670213 34.125,43.5595745 C34.625,43.1202128 35.0625,42.9946809 35.6875,42.9946809 L54.6875,42.9946809 C55.5,42.9946809 56.25,42.9319149 57.0625,42.8691489 C58.9375,42.6808511 59.75,41.9904255 60,40.1074468 C60.0625,39.5425532 60.125,38.9148936 60.125,38.35 C60.1875,27.3031915 60.1875,16.256383 60.1875,5.14680851 L60.1875,5.14680851 L60.1875,5.14680851 Z M45.6875,20.587234 C46.3125,24.2904255 44.75,26.487234 42.3125,26.9265957 C39.9375,27.3659574 37.625,25.7968085 37,22.093617 L45.6875,20.587234 L45.6875,20.587234 Z M18.25,26.9893617 C15.875,26.55 14.25,24.3531915 14.875,20.65 L23.5625,22.156383 C22.875,25.8595745 20.625,27.3659574 18.25,26.9893617 L18.25,26.9893617 L18.25,26.9893617 Z M38,34.8978723 C38.4375,35.4 38.4375,36.2159574 37.9375,36.6553191 C37.4375,37.0946809 36.625,37.0946809 36.1875,36.5925532 C34.5625,34.8351064 32.4375,33.893617 30.0625,33.893617 C27.75,33.893617 25.5,34.8978723 23.9375,36.5925532 C23.6875,36.843617 23.375,36.9691489 23,36.9691489 C22.6875,36.9691489 22.375,36.843617 22.125,36.6553191 C21.625,36.2159574 21.5625,35.4 22.0625,34.8978723 C24.125,32.6382979 27,31.3829787 30,31.3829787 C33,31.3829787 35.9375,32.6382979 38,34.8978723 L38,34.8978723 L38,34.8978723 Z" id="super-bad" fill="#F35910" sketch:type="MSShapeGroup"></path>
            <path d="M120.202991,5.14680851 C120.202991,4.33085106 120.140491,3.57765957 120.015491,2.76170213 C119.765491,1.19255319 118.952991,0.376595745 117.327991,0.188297872 C116.765491,0.125531915 116.140491,0.0627659574 115.577991,0.0627659574 L64.7029905,0.0627659574 C63.8904905,0.0627659574 63.1404905,0.188297872 62.3279905,0.313829787 C61.1404905,0.50212766 60.4529905,1.31808511 60.2029905,2.5106383 C60.0779905,3.26382979 60.0154905,3.95425532 60.0154905,4.70744681 L60.0154905,38.4755319 L60.0154905,39.4170213 C60.1404905,41.9276596 61.0779905,42.8691489 63.5779905,42.8691489 C66.8904905,42.9319149 70.3904905,42.9319149 73.7654905,42.9319149 C74.4529905,42.9319149 75.5779905,42.9946809 75.5779905,42.9946809 L75.5779905,44.0617021 C75.5779905,48.2042553 75.6404905,52.3468085 75.6404905,56.4893617 C75.6404905,57.3053191 75.6404905,58.2468085 76.5779905,58.6861702 C77.5154905,59.062766 78.0779905,58.3095745 78.6404905,57.7446809 C83.8279905,52.9744681 88.9529905,48.2670213 94.1404905,43.5595745 C94.6404905,43.1202128 95.0779905,42.9946809 95.7029905,42.9946809 L114.702991,42.9946809 C115.515491,42.9946809 116.265491,42.9319149 117.077991,42.8691489 C118.952991,42.6808511 119.765491,41.9904255 120.015491,40.1074468 C120.077991,39.5425532 120.140491,38.9148936 120.140491,38.35 C120.202991,27.3031915 120.202991,16.256383 120.202991,5.14680851 L120.202991,5.14680851 L120.202991,5.14680851 Z M95.0154905,33.893617 C95.0154905,34.5840426 94.4529905,35.1489362 93.7654905,35.1489362 L86.2654905,35.1489362 C85.5779905,35.1489362 85.0154905,34.5840426 85.0154905,33.893617 C85.0154905,33.2031915 85.5779905,32.6382979 86.2654905,32.6382979 L93.7654905,32.6382979 C94.4529905,32.6382979 95.0154905,33.2031915 95.0154905,33.893617 L95.0154905,33.893617 L95.0154905,33.893617 Z M97.4529905,19.4574468 L106.265491,19.4574468 C106.265491,23.2234043 104.265491,25.106383 101.890491,25.106383 C99.5154905,25.106383 97.4529905,23.2234043 97.4529905,19.4574468 L97.4529905,19.4574468 L97.4529905,19.4574468 Z M74.3279905,19.4574468 L83.1404905,19.4574468 C83.1404905,23.2234043 81.1404905,25.106383 78.7654905,25.106383 C76.3904905,25.106383 74.3279905,23.2234043 74.3279905,19.4574468 L74.3279905,19.4574468 L74.3279905,19.4574468 Z" id="bad" fill="#F6820B" sketch:type="MSShapeGroup"></path>
            <path d="M180.218481,5.14680851 C180.218481,4.33085106 180.155981,3.57765957 180.030981,2.76170213 C179.780981,1.19255319 178.968481,0.376595745 177.343481,0.188297872 C176.780981,0.125531915 176.155981,0.0627659574 175.593481,0.0627659574 L124.718481,0.0627659574 C123.905981,0.0627659574 123.155981,0.188297872 122.343481,0.313829787 C121.155981,0.50212766 120.468481,1.31808511 120.218481,2.5106383 C120.093481,3.26382979 120.030981,3.95425532 120.030981,4.70744681 L120.030981,38.4755319 L120.030981,39.4170213 C120.155981,41.9276596 121.093481,42.8691489 123.593481,42.8691489 C126.905981,42.9319149 130.405981,42.9319149 133.780981,42.9319149 C134.468481,42.9319149 135.593481,42.9946809 135.593481,42.9946809 L135.593481,44.0617021 C135.593481,48.2042553 135.655981,52.3468085 135.655981,56.4893617 C135.655981,57.3053191 135.655981,58.2468085 136.593481,58.6861702 C137.530981,59.062766 138.093481,58.3095745 138.655981,57.7446809 C143.843481,52.9744681 148.968481,48.2670213 154.155981,43.5595745 C154.655981,43.1202128 155.093481,42.9946809 155.718481,42.9946809 L174.718481,42.9946809 C175.530981,42.9946809 176.280981,42.9319149 177.093481,42.8691489 C178.968481,42.6808511 179.780981,41.9904255 180.030981,40.1074468 C180.093481,39.5425532 180.155981,38.9148936 180.155981,38.35 C180.218481,27.3031915 180.218481,16.256383 180.218481,5.14680851 L180.218481,5.14680851 L180.218481,5.14680851 Z M142.718481,18.4531915 C142.718481,20.9010638 140.718481,22.8468085 138.343481,22.8468085 C135.905981,22.8468085 133.968481,20.8382979 133.968481,18.4531915 C133.968481,16.0053191 135.968481,14.0595745 138.343481,14.0595745 C140.718481,13.9968085 142.718481,16.0053191 142.718481,18.4531915 L142.718481,18.4531915 L142.718481,18.4531915 Z M165.843481,18.4531915 C165.843481,20.9010638 163.843481,22.8468085 161.468481,22.8468085 C159.030981,22.8468085 157.093481,20.8382979 157.093481,18.4531915 C157.093481,16.0053191 159.093481,14.0595745 161.468481,14.0595745 C163.843481,13.9968085 165.843481,16.0053191 165.843481,18.4531915 L165.843481,18.4531915 L165.843481,18.4531915 Z M158.155981,30.7553191 C158.155981,31.4457447 157.593481,32.0106383 156.905981,32.0106383 L143.155981,32.0106383 C142.468481,32.0106383 141.905981,31.4457447 141.905981,30.7553191 C141.905981,30.0648936 142.468481,29.5 143.155981,29.5 L156.905981,29.5 C157.593481,29.5 158.155981,30.0648936 158.155981,30.7553191 L158.155981,30.7553191 L158.155981,30.7553191 Z" id="ok" fill="#FAAB00" sketch:type="MSShapeGroup"></path>
            <path d="M240.218481,5.14680851 C240.218481,4.33085106 240.155981,3.57765957 240.030981,2.76170213 C239.780981,1.19255319 238.968481,0.376595745 237.343481,0.188297872 C236.780981,0.125531915 236.155981,0.0627659574 235.593481,0.0627659574 L184.718481,0.0627659574 C183.905981,0.0627659574 183.155981,0.188297872 182.343481,0.313829787 C181.155981,0.50212766 180.468481,1.31808511 180.218481,2.5106383 C180.093481,3.26382979 180.030981,3.95425532 180.030981,4.70744681 L180.030981,38.4755319 L180.030981,39.4170213 C180.155981,41.9276596 181.093481,42.8691489 183.593481,42.8691489 C186.905981,42.9319149 190.343481,42.9319149 193.655981,42.9319149 C194.343481,42.9319149 195.405981,42.9946809 195.405981,42.9946809 L195.405981,44.0617021 C195.405981,48.2042553 195.530981,52.3468085 195.593481,56.4893617 C195.593481,57.3053191 195.655981,58.2468085 196.593481,58.6861702 C197.530981,59.062766 198.093481,58.3095745 198.655981,57.7446809 C203.843481,52.9744681 208.968481,48.2670213 214.155981,43.5595745 C214.655981,43.1202128 215.093481,42.9946809 215.718481,42.9946809 L234.718481,42.9946809 C235.530981,42.9946809 236.280981,42.9319149 237.093481,42.8691489 C238.968481,42.6808511 239.780981,41.9904255 240.030981,40.1074468 C240.093481,39.5425532 240.155981,38.9148936 240.155981,38.35 C240.218481,27.3031915 240.218481,16.256383 240.218481,5.14680851 L240.218481,5.14680851 L240.218481,5.14680851 Z M198.780981,20.3361702 C196.343481,20.3361702 194.405981,18.3276596 194.405981,15.9425532 C194.405981,13.4946809 196.405981,11.5489362 198.780981,11.5489362 C201.218481,11.5489362 203.155981,13.5574468 203.155981,15.9425532 C203.218481,18.3276596 201.218481,20.3361702 198.780981,20.3361702 L198.780981,20.3361702 L198.780981,20.3361702 Z M226.343481,15.9425532 C226.343481,18.3904255 224.343481,20.3361702 221.968481,20.3361702 C219.530981,20.3361702 217.593481,18.3276596 217.593481,15.9425532 C217.593481,13.4946809 219.593481,11.5489362 221.968481,11.5489362 C224.343481,11.4861702 226.343481,13.4946809 226.343481,15.9425532 L226.343481,15.9425532 L226.343481,15.9425532 Z M218.093481,27.3031915 C218.593481,27.7425532 218.655981,28.5585106 218.155981,29.0606383 C216.093481,31.3202128 213.218481,32.5755319 210.155981,32.5755319 C207.093481,32.5755319 204.218481,31.3202128 202.155981,29.0606383 C201.718481,28.5585106 201.718481,27.7425532 202.218481,27.3031915 C202.718481,26.8638298 203.530981,26.8638298 203.968481,27.3659574 C205.593481,29.1234043 207.718481,30.0648936 210.093481,30.0648936 C212.405981,30.0648936 214.655981,29.0606383 216.218481,27.3659574 C216.780981,26.8638298 217.593481,26.8638298 218.093481,27.3031915 L218.093481,27.3031915 L218.093481,27.3031915 Z" id="happy" fill="#A9AC41" sketch:type="MSShapeGroup"></path>
            <path d="M300.003335,5.14680851 C300.003335,4.33085106 299.940835,3.57765957 299.815835,2.76170213 C299.565835,1.19255319 298.753335,0.376595745 297.128335,0.188297872 C296.565835,0.125531915 295.940835,0.0627659574 295.378335,0.0627659574 L244.503335,0.0627659574 C243.690835,0.0627659574 242.940835,0.188297872 242.128335,0.313829787 C240.940835,0.50212766 240.253335,1.31808511 240.003335,2.5106383 C239.878335,3.26382979 239.815835,3.95425532 239.815835,4.70744681 L239.815835,38.4755319 L239.815835,39.4170213 C239.940835,41.9276596 240.878335,42.8691489 243.378335,42.8691489 C246.690835,42.9319149 250.128335,42.9319149 253.440835,42.9319149 C254.128335,42.9319149 255.190835,42.9946809 255.190835,42.9946809 L255.190835,44.0617021 C255.190835,48.2042553 255.315835,52.3468085 255.378335,56.4893617 C255.378335,57.3053191 255.440835,58.2468085 256.378335,58.6861702 C257.315835,59.062766 257.878335,58.3095745 258.440835,57.7446809 C263.628335,52.9744681 268.753335,48.2670213 273.940835,43.5595745 C274.440835,43.1202128 274.878335,42.9946809 275.503335,42.9946809 L294.503335,42.9946809 C295.315835,42.9946809 296.065835,42.9319149 296.878335,42.8691489 C298.753335,42.6808511 299.565835,41.9904255 299.815835,40.1074468 C299.878335,39.5425532 299.940835,38.9148936 299.940835,38.35 C300.003335,27.3031915 300.003335,16.256383 300.003335,5.14680851 L300.003335,5.14680851 L300.003335,5.14680851 Z M259.315835,20.712766 L280.565835,20.712766 C280.565835,25.7340426 275.815835,30.943617 269.940835,30.943617 C264.065835,30.943617 259.315835,25.7340426 259.315835,20.712766 L259.315835,20.712766 L259.315835,20.712766 Z M263.440835,15.6914894 L253.440835,15.6914894 C252.753335,15.6914894 252.190835,15.1265957 252.190835,14.4361702 C252.190835,13.7457447 252.753335,13.1808511 253.440835,13.1808511 L254.065835,13.1808511 C254.440835,10.2308511 256.253335,8.78723404 258.378335,8.78723404 C260.503335,8.78723404 262.315835,10.293617 262.690835,13.1808511 L263.440835,13.1808511 C264.128335,13.1808511 264.690835,13.7457447 264.690835,14.4361702 C264.690835,15.1265957 264.128335,15.6914894 263.440835,15.6914894 L263.440835,15.6914894 L263.440835,15.6914894 Z M287.815835,14.4361702 C287.815835,15.1265957 287.253335,15.6914894 286.565835,15.6914894 L276.565835,15.6914894 C275.878335,15.6914894 275.315835,15.1265957 275.315835,14.4361702 C275.315835,13.7457447 275.878335,13.1808511 276.565835,13.1808511 L277.190835,13.1808511 C277.565835,10.2308511 279.378335,8.78723404 281.503335,8.78723404 C283.628335,8.78723404 285.440835,10.293617 285.815835,13.1808511 L286.565835,13.1808511 C287.253335,13.1808511 287.815835,13.7457447 287.815835,14.4361702 L287.815835,14.4361702 L287.815835,14.4361702 Z" id="super-happy" fill="#38AE6A" sketch:type="MSShapeGroup"></path>
        </g>
        <g id="stopwatch" sketch:type="MSLayerGroup" transform="translate(0.000000, 216.000000)">
            <path d="M10.5,24.8 C9.5,23.9 8.4,22.9 7.5,22 L13.7,15.8 C14.5,16.7 15.4,17.7 16.3,18.7 C17.1,18.1 17.7,17.6 18.3,17.2 C22.2,14.3 26.5,12.3 31.2,11.2 C31.9,11 32.1,10.8 32.1,10.1 C32,8.4 32.1,6.7 32.1,4.9 L47.5,4.9 L47.5,10.9 C60.3,14.2 69.4,21.8 74,34.1 C77.6,43.7 77,53.3 72.6,62.5 C63.7,81.1 41.2,88.4 22.7,78.7 C3.7,68.8 -3.2,43.3 10.5,24.8 L10.5,24.8 L10.5,24.8 Z M40.0481625,75 C55.1817335,75 67.6921523,62.8930829 67.9948237,47.5576545 C68.2974951,31.4150983 55.282624,19.3081812 40.5526149,19.0055082 C25.3181533,18.7028353 12.2023918,30.9106434 12.0006108,46.5487447 C11.8997204,62.489519 24.3092486,75 40.0481625,75 L40.0481625,75 L40.0481625,75 Z M14.9,12.4 C14.6,12.9 14.5,13.5 14.1,13.9 C11.2,16.8 8.3,19.7 5.5,22.6 C4.8,23.3 4,23.4 3.1,23.1 C1.8,22.7 1,21.8 0.6,20.6 C0.3,19.7 0.4,18.9 1.1,18.1 L9.7,9.5 C10.3,8.9 11.1,8.7 11.9,8.9 C13.4,9.2 14.7,10.8 14.9,12.4 L14.9,12.4 L14.9,12.4 Z M33.7,3.9 C33.5,2.5 34,1.3 35.3,0.8 C38.2,-0.3 41.2,-0.3 44.2,0.8 C45.4,1.2 46,2.4 45.9,3.9 L33.7,3.9 L33.7,3.9 Z" id="Shape" fill="#A9BCC4" sketch:type="MSShapeGroup"></path>
            <circle id="inlay" opacity="0.3" sketch:type="MSShapeGroup" cx="39.9019608" cy="46.9019608" r="24.9019608"></circle>
        </g>
        <g id="Tickets-in-Process" sketch:type="MSLayerGroup" transform="translate(77.000000, 216.000000)">
            <path d="M0,0 L0,64 L64,64 L64,0 L0,0 L0,0 Z M8,44 C8.0372093,40.1315939 8.0372093,36.3380601 8,32 C5.75503876,32.0453772 3.86976744,31.1469087 2,29 C0.79379845,27.8525241 0,25.9557572 0,24 L0,8 C0,3.79353375 3.77054264,0 8,0 L39,0 C44.1550388,0 47.9255814,3.59387408 48,8 C48.0248062,13.4770278 48.0248062,18.5683494 48,24 C47.8263566,28.4515031 44.055814,32.0453772 39,32 C33.1410853,32.0453772 27.0883721,32.0453772 21,32 C20.4403101,32.0453772 19.6465116,32.3448667 19,33 C15.4790698,36.43789 12.0062016,40.2314237 8,44 C8.33488372,44.0249575 8.23565891,44.0249575 8,44 L8,44 L8,44 Z" id="Background" fill="#FFFFFF" sketch:type="MSShapeGroup"></path>
            <path d="M52,20 C55.6088127,19.8277235 59.1443996,19.8277235 62,23 C63.1850703,24.4041305 63.9932045,26.1948985 64,28 C63.9932045,33.3579704 63.7911709,38.4318129 64,43 C64.195238,47.9825754 59.851517,51.8625727 56,52 C56.3159301,52.0615469 56.1138965,52.161034 56,52 C55.911863,56.0410313 55.911863,59.8215414 56,64 C55.4067792,63.5025645 55.0027121,63.3035902 55,63 C51.3661084,59.7220543 48.0325551,56.4389797 45,53 C43.8908676,52.3600082 43.0827335,51.9620598 42,52 C35.9105429,52.0615469 29.8495368,51.9620598 24,52 C18.434642,51.9620598 14.2929545,47.1866785 15,42 C15.2021054,41.6154004 15.404139,41.3169391 16,41 C17.2224408,39.5261711 18.6366756,38.0338645 20,37 C20.6570109,36.2430965 21.3641283,36.0441223 22,36 C27.5261512,36.0441223 33.1830902,36.0441223 39,36 C45.002052,36.0441223 50.3559408,31.8656637 52,26 C51.972209,24.2051563 51.7701755,22.2154141 52,20 L52,20 L52,20 Z" id="Shape" opacity="0.4" fill="#A9BCC4" sketch:type="MSShapeGroup"></path>
        </g>
        <g id="Reopening" sketch:type="MSLayerGroup" transform="translate(141.000000, 216.000000)">
            <path d="M0,0 L0,47 L68,47 L68,0 L0,0 L0,0 Z M39.3,18.7 L40.1,18.7 L60.4,18.7 C64,18.7 66.8,21 67.7,24.4 C67.8,25 67.9,25.5 67.9,26.1 L67.9,39.9 C67.9,43.3 65.1,46.3 61.8,46.8 C61.4,46.9 61,46.9 60.6,46.9 L38.7,46.9 C35,46.9 32,44.4 31.4,40.8 C31.3,40.3 31.3,39.9 31.3,39.4 L31.3,26.2 C31.3,23.8 32.2,21.9 34.1,20.4 C34.4,20.2 34.4,20 34.4,19.7 L34.4,11.5 C34.4,6.1 38.1,1.5 43.3,0.3 C44.1,0.1 44.9,0 45.7,0 L53.6,0 C59.8,0 65,5.2 64.9,11.5 C64.9,12.9 63.8,14 62.5,14 C61.1,14.1 59.9,13.1 59.8,11.8 C59.7,10.7 59.6,9.6 59.1,8.6 C57.9,6.5 56.2,5.3 53.8,5.3 C51,5.2 48.2,5.2 45.4,5.3 C42.7,5.3 40,7.7 39.8,10.4 C39.2,13 39.3,15.9 39.3,18.7 L39.3,18.7 L39.3,18.7 Z" id="Background" fill="#FFFFFF" sketch:type="MSShapeGroup"></path>
            <path d="M47.2,30.7 C47.4,31.4 47.3,32.1 47.1,32.7 C46.9,33.5 46.7,34.2 46.5,35 C46.3,35.5 46.5,36 46.8,36.3 C48.5,37.8 50.2,37.9 51.9,36.2 C52.2,35.9 52.3,35.5 52.2,35 C51.9,34 51.6,32.9 51.4,31.9 C51.3,31.6 51.4,31.3 51.4,31.1 C52,29.7 50.9,28.1 49.4,28.1 C48,28.1 46.8,29.4 47.2,30.7 L47.2,30.7 L47.2,30.7 Z" id="inner-part" fill="#FFFFFF" sketch:type="MSShapeGroup"></path>
            <path d="M20.8,18.3 C20.5,17.2 20,16.4 19,15.8 L19,11 L18.7,11 C18.7,7 16.1,4.4 12.5,4.4 L8.1,4.4 C7.6,4.4 7.3,4.4 6.8,4.5 C3.8,5.2 1.7,7.8 1.7,10.9 L1.7,15.6 C1.7,15.8 1.7,15.9 1.5,16 C0.5,16.9 1.49020707e-09,18 1.49020707e-09,19.3 L1.49020707e-09,26.8 C1.49020707e-09,27.1 1.49020705e-09,27.3 0.100000001,27.6 C0.500000001,29.7 2.1,31.1 4.2,31.1 L16.7,31.1 C16.9,31.1 17.2,31.1 17.4,31 C19.3,30.7 20.9,29 20.9,27.1 C21,24.5 21,21.9 21,19.3 C21,19 20.9,18.6 20.8,18.3 L20.8,18.3 L20.8,18.3 Z M4.8,15 C4.8,13 4.8,11.8 4.9,10.2 C5,8.7 6.6,7.4 8.1,7.3 L12.9,7.3 C14.3,7.3 15.3,8.2 15.9,9.4 C16.2,9.9 16.2,11 16.3,11 L17.1,11 L17.1,15.1 C13.1,15.1 9,15 5.3,15 L4.8,15 L4.8,15 Z M12,25.1 C11,26 10.1,26 9.1,25.1 C8.9,24.9 8.8,24.7 8.9,24.3 C9,23.9 9.1,23.4 9.2,23 C9.3,22.6 9.4,22.3 9.2,21.9 C9,21.1 9.6,20.4 10.4,20.4 C11.3,20.4 11.9,21.3 11.6,22.1 C11.6,22.2 11.5,22.4 11.6,22.6 C11.7,23.2 11.9,23.8 12,24.4 C12.2,24.6 12.2,24.9 12,25.1 L12,25.1 L12,25.1 Z" id="Shape" opacity="0.4" fill="#A9BCC4" sketch:type="MSShapeGroup"></path>
            <g id="Arrow" transform="translate(10.000000, 34.000000)" sketch:type="MSShapeGroup">
                <path d="M11,6.5 L0.5,6.5 L0.5,0" id="Shape" stroke="#A9BCC4"></path>
                <path d="M17.6,6.9 L7.7,2.9 L10,6.9 L7.7,11 L17.6,6.9 L17.6,6.9 Z" id="Shape" fill="#A9BCC4"></path>
            </g>
        </g>
        <g id="Status" sketch:type="MSLayerGroup" transform="translate(209.000000, 216.000000)">
            <g id="total" sketch:type="MSShapeGroup">
                <path d="M37.5,83 L0,83 L10,75 L47.5,75 L37.5,83 L37.5,83 Z" id="Shape" opacity="0.4" fill="#A9BCC4"></path>
                <path d="M37.5,80 L0,80 L10,73 L47.5,73 L37.5,80 L37.5,80 Z" id="Shape" fill="#FFFFFF"></path>
                <path d="M37.5,78 L0,78 L10,70 L47.5,70 L37.5,78 L37.5,78 Z" id="Shape" opacity="0.4" fill="#A9BCC4"></path>
                <path d="M37.5,75 L0,75 L10,68 L47.5,68 L37.5,75 L37.5,75 Z" id="Shape" fill="#FFFFFF"></path>
                <path d="M37.5,73 L0,73 L10,65 L47.5,65 L37.5,73 L37.5,73 Z" id="Shape" opacity="0.4" fill="#A9BCC4"></path>
                <path d="M37.5,70 L0,70 L10,63 L47.5,63 L37.5,70 L37.5,70 Z" id="Shape" fill="#FFFFFF"></path>
                <path d="M37.5,68 L0,68 L10,60 L47.5,60 L37.5,68 L37.5,68 Z" id="Shape" opacity="0.4" fill="#A9BCC4"></path>
                <path d="M37.5,65 L0,65 L10,58 L47.5,58 L37.5,65 L37.5,65 Z" id="Shape" fill="#FFFFFF"></path>
                <path d="M37.5,63 L0,63 L10,55 L47.5,55 L37.5,63 L37.5,63 Z" id="Shape" opacity="0.4" fill="#A9BCC4"></path>
                <path d="M37.5,60 L0,60 L10,53 L47.5,53 L37.5,60 L37.5,60 Z" id="Shape" fill="#FFFFFF"></path>
                <path d="M37.5,58 L0,58 L10,50 L47.5,50 L37.5,58 L37.5,58 Z" id="Shape" opacity="0.4" fill="#A9BCC4"></path>
                <path d="M37.5,55 L0,55 L10,48 L47.5,48 L37.5,55 L37.5,55 Z" id="Shape" fill="#FFFFFF"></path>
                <path d="M37.5,53 L0,53 L10,45 L47.5,45 L37.5,53 L37.5,53 Z" id="Shape" opacity="0.4" fill="#A9BCC4"></path>
                <path d="M37.5,50 L0,50 L10,43 L47.5,43 L37.5,50 L37.5,50 Z" id="Shape" fill="#FFFFFF"></path>
                <path d="M37.5,48 L0,48 L10,40 L47.5,40 L37.5,48 L37.5,48 Z" id="Shape" opacity="0.4" fill="#A9BCC4"></path>
                <path d="M37.5,45 L0,45 L10,38 L47.5,38 L37.5,45 L37.5,45 Z" id="Shape" fill="#FFFFFF"></path>
                <path d="M37.5,43 L0,43 L10,35 L47.5,35 L37.5,43 L37.5,43 Z" id="Shape" opacity="0.4" fill="#A9BCC4"></path>
                <path d="M37.5,40 L0,40 L10,33 L47.5,33 L37.5,40 L37.5,40 Z" id="Shape" fill="#FFFFFF"></path>
                <path d="M37.5,38 L0,38 L10,30 L47.5,30 L37.5,38 L37.5,38 Z" id="Shape" opacity="0.4" fill="#A9BCC4"></path>
                <path d="M37.5,35 L0,35 L10,28 L47.5,28 L37.5,35 L37.5,35 Z" id="Shape" fill="#FFFFFF"></path>
                <path d="M37.5,33 L0,33 L10,25 L47.5,25 L37.5,33 L37.5,33 Z" id="Shape" opacity="0.4" fill="#A9BCC4"></path>
                <path d="M37.5,30 L0,30 L10,23 L47.5,23 L37.5,30 L37.5,30 Z" id="Shape" fill="#FFFFFF"></path>
                <path d="M37.5,28 L0,28 L10,20 L47.5,20 L37.5,28 L37.5,28 Z" id="Shape" opacity="0.4" fill="#A9BCC4"></path>
                <path d="M37.5,25 L0,25 L10,18 L47.5,18 L37.5,25 L37.5,25 Z" id="Shape" fill="#FFFFFF"></path>
                <path d="M37.5,23 L0,23 L10,15 L47.5,15 L37.5,23 L37.5,23 Z" id="Shape" opacity="0.4" fill="#A9BCC4"></path>
                <path d="M37.5,20 L0,20 L10,13 L47.5,13 L37.5,20 L37.5,20 Z" id="Shape" fill="#FFFFFF"></path>
                <path d="M37.5,18 L0,18 L10,10 L47.5,10 L37.5,18 L37.5,18 Z" id="Shape" opacity="0.4" fill="#A9BCC4"></path>
                <path d="M37.5,15 L0,15 L10,8 L47.5,8 L37.5,15 L37.5,15 Z" id="Shape" fill="#FFFFFF"></path>
                <path d="M37.5,13 L0,13 L10,5 L47.5,5 L37.5,13 L37.5,13 Z" id="Shape" opacity="0.4" fill="#A9BCC4"></path>
                <path d="M37.5,10 L0,10 L10,3 L47.5,3 L37.5,10 L37.5,10 Z" id="Shape" fill="#FFFFFF"></path>
                <path d="M37.5,8 L0,8 L10,0 L47.5,0 L37.5,8 L37.5,8 Z" id="Shape" opacity="0.4" fill="#A9BCC4"></path>
            </g>
            <path d="M85.5,50 L48,50 L58,43 L95.5,43 L85.5,50 L85.5,50 Z" id="Shape-copy-4" fill="#FFFFFF" sketch:type="MSShapeGroup"></path>
            <path d="M85.5,48 L48,48 L58,40 L95.5,40 L85.5,48 L85.5,48 Z" id="Shape-copy-4" fill="#F35910" sketch:type="MSShapeGroup"></path>
            <path d="M85.5,40 L48,40 L58,33 L95.5,33 L85.5,40 L85.5,40 Z" id="Shape-copy-3" fill="#FFFFFF" sketch:type="MSShapeGroup"></path>
            <path d="M85.5,38 L48,38 L58,30 L95.5,30 L85.5,38 L85.5,38 Z" id="Shape-copy-3" fill="#F6820B" sketch:type="MSShapeGroup"></path>
            <path d="M85.5,30 L48,30 L58,23 L95.5,23 L85.5,30 L85.5,30 Z" id="Shape-copy-2" fill="#FFFFFF" sketch:type="MSShapeGroup"></path>
            <path d="M85.5,28 L48,28 L58,20 L95.5,20 L85.5,28 L85.5,28 Z" id="Shape-copy-2" fill="#FAAB00" sketch:type="MSShapeGroup"></path>
            <path d="M85.5,20 L48,20 L58,13 L95.5,13 L85.5,20 L85.5,20 Z" id="Shape-copy" fill="#FFFFFF" sketch:type="MSShapeGroup"></path>
            <path d="M85.5,18 L48,18 L58,10 L95.5,10 L85.5,18 L85.5,18 Z" id="Shape-copy" fill="#A9AC41" sketch:type="MSShapeGroup"></path>
            <path d="M85.5,10 L48,10 L58,3 L95.5,3 L85.5,10 L85.5,10 Z" id="Shape-copy" fill="#FFFFFF" sketch:type="MSShapeGroup"></path>
            <path d="M85.5,8 L48,8 L58,0 L95.5,0 L85.5,8 L85.5,8 Z" id="Shape-copy" fill="#38AE6A" sketch:type="MSShapeGroup"></path>
        </g>
        <path d="M6.9,309.9 L2,305 L6.9,300" id="left-arrow" stroke="#000000" stroke-width="2" sketch:type="MSShapeGroup"></path>
        <path d="M9,300 L13.9,304.9 L9,309.9" id="right-arrow" stroke="#000000" stroke-width="2" sketch:type="MSShapeGroup"></path>
        <path d="M16.5,299.5 L25.5,299.5 L25.5,308.5 L16.5,308.5 L16.5,299.5 L16.5,299.5 Z" id="checkbox" stroke="#CBCBCB" sketch:type="MSShapeGroup"></path>
        <g id="checkbox-checked" sketch:type="MSLayerGroup" transform="translate(27.000000, 299.000000)">
            <path d="M-0.5,0.5 L8.5,0.5 L8.5,9.5 L-0.5,9.5 L-0.5,0.5 L-0.5,0.5 Z" id="checkbox" stroke="#000000" sketch:type="MSShapeGroup"></path>
            <path d="M2.79999999,5.89999999 L1.09999999,4.39999999 L0.39999999,5.09999999 L3.29999999,8.59999999 C3.79999999,7.09999999 5.39999999,4.19999999 7.29999999,2.09999999 L7.09999999,1.49999999 C4.99999999,2.99999999 3.39999999,4.89999999 2.79999999,5.89999999 L2.79999999,5.89999999 L2.79999999,5.89999999 Z" id="Shape" fill="#1A1A1A" sketch:type="MSShapeGroup"></path>
        </g>
        <path d="M45.044,305.135991 L45.06,305.183991 C44.74,305.423991 44.42,305.759991 44.068,306.143991 L41.828,308.575991 L42.9,309.487991 L47.38,304.495991 L42.9,299.503991 L41.828,300.415991 L43.956,302.719991 C44.372,303.183991 44.708,303.551991 45.06,303.807991 L45.044,303.855991 L36.724,303.855991 L36.724,305.135991 L45.044,305.135991 Z" id="" fill="#000000" sketch:type="MSShapeGroup"></path>
        <g id="delete" sketch:type="MSLayerGroup" transform="translate(48.000000, 300.000000)" fill="#000000">
            <path d="M8.14644661,8.85355339 C8.34170876,9.04881554 8.65829124,9.04881554 8.85355339,8.85355339 C9.04881554,8.65829124 9.04881554,8.34170876 8.85355339,8.14644661 L0.853553391,0.146446609 C0.658291245,-0.0488155365 0.341708755,-0.0488155365 0.146446609,0.146446609 C-0.0488155365,0.341708755 -0.0488155365,0.658291245 0.146446609,0.853553391 L8.14644661,8.85355339 Z" id="Path-1" sketch:type="MSShapeGroup"></path>
            <path d="M0.146446609,8.14644661 C-0.0488155365,8.34170876 -0.0488155365,8.65829124 0.146446609,8.85355339 C0.341708755,9.04881554 0.658291245,9.04881554 0.853553391,8.85355339 L8.85355339,0.853553391 C9.04881554,0.658291245 9.04881554,0.341708755 8.85355339,0.146446609 C8.65829124,-0.0488155365 8.34170876,-0.0488155365 8.14644661,0.146446609 L0.146446609,8.14644661 Z" id="Path-1-copy" sketch:type="MSShapeGroup"></path>
        </g>
        <path d="M40.6673979,115.35601 L35.852655,120.171434 L36.8898628,121.208495 L41.7046057,116.393071 L40.6673979,115.35601 L40.6673979,115.35601 Z M34.72,121.25924 L34.72,122.28 L35.77784,122.28 L36.29626,121.76962 L35.24878,120.79228 L34.72,121.25924 L34.72,121.25924 Z M36.81482,123.19 L33.74,123.19 L33.74,120.29633 L38.36,115.96291 L38.36,115 L32.2,115 L32.2,118.9 L28,118.9 L28,128 L38.36,128 L38.36,121.74076 L36.81482,123.19 L36.81482,123.19 Z M28,117.86 L31.08,117.86 L31.08,115 L28,117.86 L28,117.86 Z" id="note" fill="#808080" sketch:type="MSShapeGroup"></path>
        <path d="M40.6673979,128.35601 L35.852655,133.171434 L36.8898628,134.208495 L41.7046057,129.393071 L40.6673979,128.35601 L40.6673979,128.35601 Z M34.72,134.25924 L34.72,135.28 L35.77784,135.28 L36.29626,134.76962 L35.24878,133.79228 L34.72,134.25924 L34.72,134.25924 Z M36.81482,136.19 L33.74,136.19 L33.74,133.29633 L38.36,128.96291 L38.36,128 L32.2,128 L32.2,131.9 L28,131.9 L28,141 L38.36,141 L38.36,134.74076 L36.81482,136.19 L36.81482,136.19 Z M28,130.86 L31.08,130.86 L31.08,128 L28,130.86 L28,130.86 Z" id="note-light" fill="#FFFFFF" sketch:type="MSShapeGroup"></path>
        <g id="icon_47132" sketch:type="MSLayerGroup" transform="translate(42.000000, 115.000000)" fill="#808080">
            <g id="Group" sketch:type="MSShapeGroup">
                <path d="M14.0166667,2.6 C14.0166667,1.17619048 12.7833333,0.030952381 11.25,0.030952381 C10.4333333,0.030952381 9.7,0.355952381 9.2,0.882142857 L9.2,0.882142857 L13.1166667,4.51904762 C13.65,4.03928571 14.0166667,3.35833333 14.0166667,2.6 L14.0166667,2.6 L14.0166667,2.6 Z" id="Shape"></path>
                <path d="M10.55,3.17261905 L8.6,1.34642857 L5.3,4.41071429 L0.616666667,8.75952381 L-0.0166666667,12.9845238 L4.51666667,12.3964286 L9.71666667,7.56785714 L12.5,4.98333333 L10.55,3.17261905 L10.55,3.17261905 Z M2.13333333,11.777381 L1.66666667,11.3285714 L1.18333333,10.8797619 L1.28333333,10.2607143 L1.38333333,9.64166667 C1.38333333,9.64166667 1.36666667,9.62619048 2.46666667,10.647619 L3.55,11.6535714 L2.85,11.7154762 L2.13333333,11.777381 L2.13333333,11.777381 Z" id="Shape"></path>
            </g>
        </g>
        <g id="icon_47132-2" sketch:type="MSLayerGroup" transform="translate(42.000000, 128.000000)" fill="#FFFFFF">
            <g id="Group" sketch:type="MSShapeGroup">
                <path d="M14.0166667,2.6 C14.0166667,1.17619048 12.7833333,0.030952381 11.25,0.030952381 C10.4333333,0.030952381 9.7,0.355952381 9.2,0.882142857 L9.2,0.882142857 L13.1166667,4.51904762 C13.65,4.03928571 14.0166667,3.35833333 14.0166667,2.6 L14.0166667,2.6 L14.0166667,2.6 Z" id="Shape"></path>
                <path d="M10.55,3.17261905 L8.6,1.34642857 L5.3,4.41071429 L0.616666667,8.75952381 L-0.0166666667,12.9845238 L4.51666667,12.3964286 L9.71666667,7.56785714 L12.5,4.98333333 L10.55,3.17261905 L10.55,3.17261905 Z M2.13333333,11.777381 L1.66666667,11.3285714 L1.18333333,10.8797619 L1.28333333,10.2607143 L1.38333333,9.64166667 C1.38333333,9.64166667 1.36666667,9.62619048 2.46666667,10.647619 L3.55,11.6535714 L2.85,11.7154762 L2.13333333,11.777381 L2.13333333,11.777381 Z" id="Shape"></path>
            </g>
        </g>
        <g id="overviews" sketch:type="MSLayerGroup" transform="translate(25.852000, 3.000000)" fill="#F0FAFF">
            <path d="M8.148,4 L18.148,4 C19.456403,4 20.148,3.10537191 20.148,2 C20.148,0.8946281 19.456403,-2.22044605e-16 18.148,-2.22044605e-16 L8.148,-2.22044605e-16 C6.84059503,-2.22044605e-16 6.148,0.8946281 6.148,2 C6.148,3.10537191 6.84059503,4 8.148,4 L8.148,4 L8.148,4 Z" id="Shape" sketch:type="MSShapeGroup"></path>
            <path d="M18.148,7 L8.148,7 C6.84059503,7 6.148,7.89703227 6.148,9 C6.148,10.1052903 6.84059503,11 8.148,11 L18.148,11 C19.456403,11 20.148,10.1052903 20.148,9 C20.148,7.89729034 19.456403,7 18.148,7 L18.148,7 L18.148,7 Z" id="Shape" sketch:type="MSShapeGroup"></path>
            <path d="M18.148,15 L8.148,15 C6.84059503,15 6.148,15.897464 6.148,17 C6.148,18.1043428 6.84059503,19 8.148,19 L18.148,19 C19.456403,19 20.148,18.1043428 20.148,17 C20.148,15.897464 19.456403,15 18.148,15 L18.148,15 L18.148,15 Z" id="Shape" sketch:type="MSShapeGroup"></path>
            <path d="M2.148,0 L2.148,0 C0.823046283,0 0.148,0.8946281 0.148,2 C0.148,3.10511364 0.823046283,4 2.148,4 L2.148,4 C3.4731486,4 4.148,3.10537191 4.148,2 C4.148,0.8946281 3.47295372,0 2.148,0 L2.148,0 L2.148,0 Z" id="Shape" sketch:type="MSShapeGroup"></path>
            <path d="M2.148,7 L2.148,7 C0.823046283,7 0.148,7.89703227 0.148,9 C0.148,10.1052903 0.823046283,11 2.148,11 L2.148,11 C3.4731486,11 4.148,10.1052903 4.148,9 C4.148,7.89729034 3.47295372,7 2.148,7 L2.148,7 L2.148,7 Z" id="Shape" sketch:type="MSShapeGroup"></path>
            <path d="M2.148,15 L2.148,15 C0.823046283,15 0.148,15.897464 0.148,17 C0.148,18.1043428 0.823046283,19 2.148,19 L2.148,19 C3.4731486,19 4.148,18.1043428 4.148,17 C4.148,15.897464 3.47295372,15 2.148,15 L2.148,15 L2.148,15 Z" id="Shape" sketch:type="MSShapeGroup"></path>
        </g>
        <g id="dashboard" sketch:type="MSLayerGroup" transform="translate(2.000000, 2.000000)" fill="#F0FAFF">
            <path d="M10,0 C4.47711111,0 0,4.47711111 0,10 C0,15.5228889 4.47711111,20 10,20 C15.5231111,20 20,15.5228889 20,10 C20,4.47711111 15.5231111,0 10,0 L10,0 L10,0 Z M10,18.1248889 C8.6193333,18.1248889 7.5,17.0055556 7.5,15.6248889 C7.5,15.52 10,7.18755556 10,7.18755556 C10,7.18755556 12.5,15.52 12.5,15.6248889 C12.5,17.0055556 11.3806667,18.1248889 10,18.1248889 L10,18.1248889 L10,18.1248889 Z M16.372,13.9544444 C17.0862222,12.8064444 17.5,11.452 17.5,10 C17.5,5.85777778 14.1424444,2.5 10,2.5 C5.85777778,2.5 2.5,5.85777778 2.5,10 C2.5,11.452 2.91377778,12.8064444 3.62777778,13.9544444 L2.61155556,14.6853333 C1.75088889,13.3302222 1.25,11.7242222 1.25,10 C1.25,5.16755556 5.16755556,1.25 10,1.25 C14.8326667,1.25 18.75,5.16755556 18.75,10 C18.75,11.7242222 18.2488889,13.3302222 17.3882222,14.6853333 L16.372,13.9544444 L16.372,13.9544444 Z" id="Shape" sketch:type="MSShapeGroup"></path>
        </g>
        <g id="icon_24997" sketch:type="MSLayerGroup" transform="translate(0.000000, 115.000000)" fill="#808080">
            <path d="M0,0 L0,13 L6.56051546,13 L6.56051546,0 L0,0 L0,0 Z M1.96808247,10.63634 L0.655979381,10.63634 L0.655979381,9.45451 L1.96808247,9.45451 L1.96808247,10.63634 L1.96808247,10.63634 Z M1.96808247,8.86366 L0.655979381,8.86366 L0.655979381,7.68183 L1.96808247,7.68183 L1.96808247,8.86366 L1.96808247,8.86366 Z M1.96808247,7.09085 L0.655979381,7.09085 L0.655979381,5.90902 L1.96808247,5.90902 L1.96808247,7.09085 L1.96808247,7.09085 Z M1.96808247,5.31817 L0.655979381,5.31817 L0.655979381,4.13634 L1.96808247,4.13634 L1.96808247,5.31817 L1.96808247,5.31817 Z M1.96808247,3.54549 L0.655979381,3.54549 L0.655979381,2.36366 L1.96808247,2.36366 L1.96808247,3.54549 L1.96808247,3.54549 Z M1.96808247,1.77268 L0.655979381,1.77268 L0.655979381,0.59085 L1.96808247,0.59085 L1.96808247,1.77268 L1.96808247,1.77268 Z M3.93630928,10.63634 L2.62420619,10.63634 L2.62420619,9.45451 L3.93630928,9.45451 L3.93630928,10.63634 L3.93630928,10.63634 Z M3.93630928,8.86366 L2.62420619,8.86366 L2.62420619,7.68183 L3.93630928,7.68183 L3.93630928,8.86366 L3.93630928,8.86366 Z M3.93630928,7.09085 L2.62420619,7.09085 L2.62420619,5.90902 L3.93630928,5.90902 L3.93630928,7.09085 L3.93630928,7.09085 Z M3.93630928,5.31817 L2.62420619,5.31817 L2.62420619,4.13634 L3.93630928,4.13634 L3.93630928,5.31817 L3.93630928,5.31817 Z M3.93630928,3.54549 L2.62420619,3.54549 L2.62420619,2.36366 L3.93630928,2.36366 L3.93630928,3.54549 L3.93630928,3.54549 Z M3.93630928,1.77268 L2.62420619,1.77268 L2.62420619,0.59085 L3.93630928,0.59085 L3.93630928,1.77268 L3.93630928,1.77268 Z M5.90439175,10.63634 L4.59228866,10.63634 L4.59228866,9.45451 L5.90439175,9.45451 L5.90439175,10.63634 L5.90439175,10.63634 Z M5.90439175,8.86366 L4.59228866,8.86366 L4.59228866,7.68183 L5.90439175,7.68183 L5.90439175,8.86366 L5.90439175,8.86366 Z M5.90439175,7.09085 L4.59228866,7.09085 L4.59228866,5.90902 L5.90439175,5.90902 L5.90439175,7.09085 L5.90439175,7.09085 Z M5.90439175,5.31817 L4.59228866,5.31817 L4.59228866,4.13634 L5.90439175,4.13634 L5.90439175,5.31817 L5.90439175,5.31817 Z M5.90439175,3.54549 L4.59228866,3.54549 L4.59228866,2.36366 L5.90439175,2.36366 L5.90439175,3.54549 L5.90439175,3.54549 Z M5.90439175,1.77268 L4.59228866,1.77268 L4.59228866,0.59085 L5.90439175,0.59085 L5.90439175,1.77268 L5.90439175,1.77268 Z" id="Shape" sketch:type="MSShapeGroup"></path>
            <path d="M7.4788866,3.54549 L7.4788866,13 L14.0394021,13 L14.0394021,3.54549 L7.4788866,3.54549 L7.4788866,3.54549 Z M9.4471134,10.63634 L8.13501031,10.63634 L8.13501031,9.45451 L9.4471134,9.45451 L9.4471134,10.63634 L9.4471134,10.63634 Z M9.4471134,8.86366 L8.13501031,8.86366 L8.13501031,7.68183 L9.4471134,7.68183 L9.4471134,8.86366 L9.4471134,8.86366 Z M9.4471134,7.09085 L8.13501031,7.09085 L8.13501031,5.90902 L9.4471134,5.90902 L9.4471134,7.09085 L9.4471134,7.09085 Z M9.4471134,5.31817 L8.13501031,5.31817 L8.13501031,4.13634 L9.4471134,4.13634 L9.4471134,5.31817 L9.4471134,5.31817 Z M11.4151959,10.63634 L10.1030928,10.63634 L10.1030928,9.45451 L11.4151959,9.45451 L11.4151959,10.63634 L11.4151959,10.63634 Z M11.4151959,8.86366 L10.1030928,8.86366 L10.1030928,7.68183 L11.4151959,7.68183 L11.4151959,8.86366 L11.4151959,8.86366 Z M11.4151959,7.09085 L10.1030928,7.09085 L10.1030928,5.90902 L11.4151959,5.90902 L11.4151959,7.09085 L11.4151959,7.09085 Z M11.4151959,5.31817 L10.1030928,5.31817 L10.1030928,4.13634 L11.4151959,4.13634 L11.4151959,5.31817 L11.4151959,5.31817 Z M13.3832784,10.63634 L12.0711753,10.63634 L12.0711753,9.45451 L13.3832784,9.45451 L13.3832784,10.63634 L13.3832784,10.63634 Z M13.3832784,8.86366 L12.0711753,8.86366 L12.0711753,7.68183 L13.3832784,7.68183 L13.3832784,8.86366 L13.3832784,8.86366 Z M13.3832784,7.09085 L12.0711753,7.09085 L12.0711753,5.90902 L13.3832784,5.90902 L13.3832784,7.09085 L13.3832784,7.09085 Z M13.3832784,5.31817 L12.0711753,5.31817 L12.0711753,4.13634 L13.3832784,4.13634 L13.3832784,5.31817 L13.3832784,5.31817 Z" id="Shape" sketch:type="MSShapeGroup"></path>
        </g>
        <g id="icon_24997-2" sketch:type="MSLayerGroup" transform="translate(0.000000, 128.000000)" fill="#FFFFFF">
            <path d="M0,0 L0,13 L6.56051546,13 L6.56051546,0 L0,0 L0,0 Z M1.96808247,10.63634 L0.655979381,10.63634 L0.655979381,9.45451 L1.96808247,9.45451 L1.96808247,10.63634 L1.96808247,10.63634 Z M1.96808247,8.86366 L0.655979381,8.86366 L0.655979381,7.68183 L1.96808247,7.68183 L1.96808247,8.86366 L1.96808247,8.86366 Z M1.96808247,7.09085 L0.655979381,7.09085 L0.655979381,5.90902 L1.96808247,5.90902 L1.96808247,7.09085 L1.96808247,7.09085 Z M1.96808247,5.31817 L0.655979381,5.31817 L0.655979381,4.13634 L1.96808247,4.13634 L1.96808247,5.31817 L1.96808247,5.31817 Z M1.96808247,3.54549 L0.655979381,3.54549 L0.655979381,2.36366 L1.96808247,2.36366 L1.96808247,3.54549 L1.96808247,3.54549 Z M1.96808247,1.77268 L0.655979381,1.77268 L0.655979381,0.59085 L1.96808247,0.59085 L1.96808247,1.77268 L1.96808247,1.77268 Z M3.93630928,10.63634 L2.62420619,10.63634 L2.62420619,9.45451 L3.93630928,9.45451 L3.93630928,10.63634 L3.93630928,10.63634 Z M3.93630928,8.86366 L2.62420619,8.86366 L2.62420619,7.68183 L3.93630928,7.68183 L3.93630928,8.86366 L3.93630928,8.86366 Z M3.93630928,7.09085 L2.62420619,7.09085 L2.62420619,5.90902 L3.93630928,5.90902 L3.93630928,7.09085 L3.93630928,7.09085 Z M3.93630928,5.31817 L2.62420619,5.31817 L2.62420619,4.13634 L3.93630928,4.13634 L3.93630928,5.31817 L3.93630928,5.31817 Z M3.93630928,3.54549 L2.62420619,3.54549 L2.62420619,2.36366 L3.93630928,2.36366 L3.93630928,3.54549 L3.93630928,3.54549 Z M3.93630928,1.77268 L2.62420619,1.77268 L2.62420619,0.59085 L3.93630928,0.59085 L3.93630928,1.77268 L3.93630928,1.77268 Z M5.90439175,10.63634 L4.59228866,10.63634 L4.59228866,9.45451 L5.90439175,9.45451 L5.90439175,10.63634 L5.90439175,10.63634 Z M5.90439175,8.86366 L4.59228866,8.86366 L4.59228866,7.68183 L5.90439175,7.68183 L5.90439175,8.86366 L5.90439175,8.86366 Z M5.90439175,7.09085 L4.59228866,7.09085 L4.59228866,5.90902 L5.90439175,5.90902 L5.90439175,7.09085 L5.90439175,7.09085 Z M5.90439175,5.31817 L4.59228866,5.31817 L4.59228866,4.13634 L5.90439175,4.13634 L5.90439175,5.31817 L5.90439175,5.31817 Z M5.90439175,3.54549 L4.59228866,3.54549 L4.59228866,2.36366 L5.90439175,2.36366 L5.90439175,3.54549 L5.90439175,3.54549 Z M5.90439175,1.77268 L4.59228866,1.77268 L4.59228866,0.59085 L5.90439175,0.59085 L5.90439175,1.77268 L5.90439175,1.77268 Z" id="Shape" sketch:type="MSShapeGroup"></path>
            <path d="M7.4788866,3.54549 L7.4788866,13 L14.0394021,13 L14.0394021,3.54549 L7.4788866,3.54549 L7.4788866,3.54549 Z M9.4471134,10.63634 L8.13501031,10.63634 L8.13501031,9.45451 L9.4471134,9.45451 L9.4471134,10.63634 L9.4471134,10.63634 Z M9.4471134,8.86366 L8.13501031,8.86366 L8.13501031,7.68183 L9.4471134,7.68183 L9.4471134,8.86366 L9.4471134,8.86366 Z M9.4471134,7.09085 L8.13501031,7.09085 L8.13501031,5.90902 L9.4471134,5.90902 L9.4471134,7.09085 L9.4471134,7.09085 Z M9.4471134,5.31817 L8.13501031,5.31817 L8.13501031,4.13634 L9.4471134,4.13634 L9.4471134,5.31817 L9.4471134,5.31817 Z M11.4151959,10.63634 L10.1030928,10.63634 L10.1030928,9.45451 L11.4151959,9.45451 L11.4151959,10.63634 L11.4151959,10.63634 Z M11.4151959,8.86366 L10.1030928,8.86366 L10.1030928,7.68183 L11.4151959,7.68183 L11.4151959,8.86366 L11.4151959,8.86366 Z M11.4151959,7.09085 L10.1030928,7.09085 L10.1030928,5.90902 L11.4151959,5.90902 L11.4151959,7.09085 L11.4151959,7.09085 Z M11.4151959,5.31817 L10.1030928,5.31817 L10.1030928,4.13634 L11.4151959,4.13634 L11.4151959,5.31817 L11.4151959,5.31817 Z M13.3832784,10.63634 L12.0711753,10.63634 L12.0711753,9.45451 L13.3832784,9.45451 L13.3832784,10.63634 L13.3832784,10.63634 Z M13.3832784,8.86366 L12.0711753,8.86366 L12.0711753,7.68183 L13.3832784,7.68183 L13.3832784,8.86366 L13.3832784,8.86366 Z M13.3832784,7.09085 L12.0711753,7.09085 L12.0711753,5.90902 L13.3832784,5.90902 L13.3832784,7.09085 L13.3832784,7.09085 Z M13.3832784,5.31817 L12.0711753,5.31817 L12.0711753,4.13634 L13.3832784,4.13634 L13.3832784,5.31817 L13.3832784,5.31817 Z" id="Shape" sketch:type="MSShapeGroup"></path>
        </g>
        <g id="icon_21999" sketch:type="MSLayerGroup" transform="translate(14.000000, 115.000000)" fill="#808080">
            <path d="M13.9196667,10.9405955 C13.687,10.2892809 12.9161667,10.1995955 12.2721667,9.93740449 C11.5651667,9.64979775 10.7813333,9.31764045 10.0756667,9.03850562 C9.87466667,8.98562921 9.67316667,8.93348315 9.47183333,8.88060674 C9.23166667,8.72080899 9.0045,8.1908764 8.876,7.92751685 C8.748,7.90969663 8.66666667,7.88734831 8.5,7.86982022 L8.5,7.74157303 L8.2395,7.74157303 C8.57366667,7.59550562 9.07833333,7.29708989 9.24416667,7.02262921 L9.53816667,5.58298876 L9.54233333,5.59832584 L9.5875,5.35819101 C9.589,5.35848315 9.59016667,5.36257303 9.5915,5.3627191 C9.86416667,5.4012809 10.1643333,5.00441573 10.2616667,4.47404494 C10.359,3.94367416 10.217,3.48341573 9.94433333,3.445 C9.877,3.43565169 9.80783333,3.45332584 9.74033333,3.49276404 C9.78433333,3.02111236 9.78516667,2.62366292 9.74883333,2.28829213 C9.75616667,2.22708989 9.76133333,2.16150562 9.7635,2.08993258 C9.77166667,1.81605618 10.1191667,0.94388764 9.7945,0.720404494 C9.733,0.678044944 9.57683333,0.715438202 9.459,0.72288764 C8.82766667,0.76247191 8.1555,0.122258427 7.21983333,0.042505618 C6.052,-0.0568202247 4.89133333,0.50305618 4.79216667,1.12223596 C4.72583333,1.12252809 4.64666667,1.13333708 4.55216667,1.157 C4.2655,1.22857303 3.98816667,1.60542697 3.94516667,2.26170787 C3.89766667,2.98517978 3.93733333,3.32916854 4.02583333,3.49422472 C4.0205,3.49641573 4.0155,3.49846067 4.01033333,3.50050562 C3.93933333,3.45624719 3.86633333,3.43608989 3.79483333,3.44616854 C3.52216667,3.48458427 3.38016667,3.9457191 3.4775,4.47608989 C3.57483333,5.00646067 3.87483333,5.40537079 4.1475,5.36680899 C4.154,5.36593258 4.16016667,5.36461798 4.1665,5.3631573 L4.3365,6.27549438 L4.50183333,7.03708989 C4.6645,7.30629213 5.15583333,7.59550562 5.49083333,7.74157303 L5.2445,7.74157303 L5.01,7.86222472 C4.8815,8.1258764 4.64616667,8.68911236 4.40583333,8.84861798 C4.2045,8.90164045 4.003,8.97102247 3.80166667,9.02375281 C3.09633333,9.30288764 2.31233333,9.6451236 1.60533333,9.93273034 C0.9615,10.1949213 0.190666667,10.2854831 -0.042,10.9366517 C-0.042,11.3787978 -0.0851666667,12.4407079 -0.0733333333,13 L13.9506667,13 C13.9626667,12.4407079 13.9196667,11.3828876 13.9196667,10.9405955 L13.9196667,10.9405955 L13.9196667,10.9405955 Z" id="Shape" sketch:type="MSShapeGroup"></path>
        </g>
        <g id="icon_21999-2" sketch:type="MSLayerGroup" transform="translate(14.000000, 128.000000)" fill="#FFFFFF">
            <path d="M13.9196667,10.9405955 C13.687,10.2892809 12.9161667,10.1995955 12.2721667,9.93740449 C11.5651667,9.64979775 10.7813333,9.31764045 10.0756667,9.03850562 C9.87466667,8.98562921 9.67316667,8.93348315 9.47183333,8.88060674 C9.23166667,8.72080899 9.0045,8.1908764 8.876,7.92751685 C8.748,7.90969663 8.66666667,7.88734831 8.5,7.86982022 L8.5,7.74157303 L8.2395,7.74157303 C8.57366667,7.59550562 9.07833333,7.29708989 9.24416667,7.02262921 L9.53816667,5.58298876 L9.54233333,5.59832584 L9.5875,5.35819101 C9.589,5.35848315 9.59016667,5.36257303 9.5915,5.3627191 C9.86416667,5.4012809 10.1643333,5.00441573 10.2616667,4.47404494 C10.359,3.94367416 10.217,3.48341573 9.94433333,3.445 C9.877,3.43565169 9.80783333,3.45332584 9.74033333,3.49276404 C9.78433333,3.02111236 9.78516667,2.62366292 9.74883333,2.28829213 C9.75616667,2.22708989 9.76133333,2.16150562 9.7635,2.08993258 C9.77166667,1.81605618 10.1191667,0.94388764 9.7945,0.720404494 C9.733,0.678044944 9.57683333,0.715438202 9.459,0.72288764 C8.82766667,0.76247191 8.1555,0.122258427 7.21983333,0.042505618 C6.052,-0.0568202247 4.89133333,0.50305618 4.79216667,1.12223596 C4.72583333,1.12252809 4.64666667,1.13333708 4.55216667,1.157 C4.2655,1.22857303 3.98816667,1.60542697 3.94516667,2.26170787 C3.89766667,2.98517978 3.93733333,3.32916854 4.02583333,3.49422472 C4.0205,3.49641573 4.0155,3.49846067 4.01033333,3.50050562 C3.93933333,3.45624719 3.86633333,3.43608989 3.79483333,3.44616854 C3.52216667,3.48458427 3.38016667,3.9457191 3.4775,4.47608989 C3.57483333,5.00646067 3.87483333,5.40537079 4.1475,5.36680899 C4.154,5.36593258 4.16016667,5.36461798 4.1665,5.3631573 L4.3365,6.27549438 L4.50183333,7.03708989 C4.6645,7.30629213 5.15583333,7.59550562 5.49083333,7.74157303 L5.2445,7.74157303 L5.01,7.86222472 C4.8815,8.1258764 4.64616667,8.68911236 4.40583333,8.84861798 C4.2045,8.90164045 4.003,8.97102247 3.80166667,9.02375281 C3.09633333,9.30288764 2.31233333,9.6451236 1.60533333,9.93273034 C0.9615,10.1949213 0.190666667,10.2854831 -0.042,10.9366517 C-0.042,11.3787978 -0.0851666667,12.4407079 -0.0733333333,13 L13.9506667,13 C13.9626667,12.4407079 13.9196667,11.3828876 13.9196667,10.9405955 L13.9196667,10.9405955 L13.9196667,10.9405955 Z" id="Shape" sketch:type="MSShapeGroup"></path>
        </g>
        <path d="M52.6384286,5.44643478 C54.0955925,5.44643478 55.2768571,4.2272089 55.2768571,2.72321739 C55.2768571,1.21922588 54.0955925,0 52.6384286,0 C51.1812646,0 50,1.21922588 50,2.72321739 C50,4.2272089 51.1812646,5.44643478 52.6384286,5.44643478 L52.6384286,5.44643478 Z M59.6386813,5.44695652 C61.0959848,5.44695652 62.2773626,4.22761384 62.2773626,2.72347826 C62.2773626,1.21934268 61.0959848,0 59.6386813,0 C58.1813778,0 57,1.21934268 57,2.72347826 C57,4.22761384 58.1813778,5.44695652 59.6386813,5.44695652 L59.6386813,5.44695652 Z M65.6386813,5.44695652 C67.0959848,5.44695652 68.2773626,4.22761384 68.2773626,2.72347826 C68.2773626,1.21934268 67.0959848,0 65.6386813,0 C64.1813778,0 63,1.21934268 63,2.72347826 C63,4.22761384 64.1813778,5.44695652 65.6386813,5.44695652 L65.6386813,5.44695652 Z M63.2232198,6.31121739 L55.6989341,6.31121739 C55.055945,6.31121739 54.5347802,6.84913043 54.5347802,7.51226087 L54.5347802,14.3783478 C54.5347802,15.0422609 55.055945,15.5793913 55.6989341,15.5793913 L56.0570769,15.5793913 L56.0570769,24.0706957 L62.7278352,24.0706957 L62.7278352,15.5793913 L63.2232198,15.5793913 C63.8662088,15.5793913 64.3868681,15.042 64.3868681,14.3783478 L64.3868681,7.51226087 C64.3866154,6.8493913 63.8662088,6.31121739 63.2232198,6.31121739 L63.2232198,6.31121739 Z M52.8934396,14.3786091 L52.8934396,7.51252217 C52.8934396,7.08313087 52.9902418,6.67878304 53.1532637,6.3114787 L49.2675275,6.3114787 C48.625044,6.3114787 48.1038791,6.84939174 48.1038791,7.51252217 L48.1038791,14.3786091 C48.1038791,15.0425222 48.625044,15.5796526 49.2675275,15.5796526 L49.6259231,15.5796526 L49.6259231,24.070957 L54.4152308,24.070957 L54.4152308,16.9533917 C53.5121648,16.4723483 52.8934396,15.4985222 52.8934396,14.3786091 L52.8934396,14.3786091 Z M69.7572418,6.31121783 L65.7691429,6.31121783 C65.9321648,6.67852217 66.0292198,7.08313087 66.0292198,7.5122613 L66.0292198,14.3783483 C66.0292198,15.5543483 65.3468022,16.5675657 64.3696813,17.020957 L64.3696813,24.0706961 L69.2623626,24.0706961 L69.2623626,15.5793917 L69.756989,15.5793917 C70.3997253,15.5793917 70.9211429,15.0420004 70.9211429,14.3783483 L70.9211429,7.5122613 C70.9213956,6.84939174 70.3997253,6.31121783 69.7572418,6.31121783 L69.7572418,6.31121783 Z" id="group" fill="#F0FAFF" sketch:type="MSShapeGroup"></path>
        <path d="M132.638681,5.44695652 C134.095985,5.44695652 135.277363,4.22761384 135.277363,2.72347826 C135.277363,1.21934268 134.095985,0 132.638681,0 C131.181378,0 130,1.21934268 130,2.72347826 C130,4.22761384 131.181378,5.44695652 132.638681,5.44695652 L132.638681,5.44695652 Z M136.22322,6.31121739 L128.698934,6.31121739 C128.055945,6.31121739 127.53478,6.84913043 127.53478,7.51226087 L127.53478,14.3783478 C127.53478,15.0422609 128.055945,15.5793913 128.698934,15.5793913 L129.057077,15.5793913 L129.057077,24.0706957 L135.727835,24.0706957 L135.727835,15.5793913 L136.22322,15.5793913 C136.866209,15.5793913 137.386868,15.042 137.386868,14.3783478 L137.386868,7.51226087 C137.386615,6.8493913 136.866209,6.31121739 136.22322,6.31121739 L136.22322,6.31121739 Z" id="person" fill="#F0FAFF" sketch:type="MSShapeGroup"></path>
        <g id="icon_2176" sketch:type="MSLayerGroup" transform="translate(62.000000, 115.000000)" fill="#808080">
            <path d="M2.63178947,9.13309091 C2.63178947,9.21286364 2.61331579,9.28259091 2.57589474,9.34227273 C2.53863158,9.40210227 2.472,9.45218182 2.37584211,9.49206818 C2.28015789,9.53195455 2.15747368,9.56194318 2.00857895,9.58159091 C1.85905263,9.60168182 1.67257895,9.61157955 1.449,9.61157955 C1.22510526,9.61157955 1.03863158,9.60168182 0.889421053,9.58159091 C0.740210526,9.56179545 0.617842105,9.53180682 0.521684211,9.49206818 C0.426,9.45218182 0.359052632,9.40225 0.322105263,9.34227273 C0.284526316,9.28259091 0.266052632,9.21286364 0.266052632,9.13309091 L-0.00568421053,0.731397727 C-0.0162631579,0.611738636 -0.000473684211,0.507147727 0.0423157895,0.417477273 C0.0849473684,0.327806818 0.162157895,0.252909091 0.274105263,0.193079545 C0.386052632,0.13325 0.535105263,0.091 0.721578947,0.0660340909 C0.907894737,0.0412159091 1.15026316,0.0286590909 1.44884211,0.0286590909 C1.73636842,0.0286590909 1.97352632,0.0437272727 2.16031579,0.0734204545 C2.34663158,0.103409091 2.49584211,0.148318182 2.60778947,0.208147727 C2.71942105,0.267977273 2.79663158,0.340363636 2.83957895,0.425011364 C2.88189474,0.509806818 2.90336842,0.611886364 2.90336842,0.731545455 L2.63178947,9.13309091 L2.63178947,9.13309091 Z" id="Shape" sketch:type="MSShapeGroup"></path>
            <path d="M2.95926316,11.6175682 C2.95926316,12.2966705 2.28173684,12.8463636 1.44757895,12.8463636 C1.24910526,12.8463636 1.06105263,12.8154886 0.887210526,12.7590568 C0.644842105,12.8831477 0.429157895,12.9677955 0.140368421,13.0208295 C0.0541578947,13.037375 0.0198947368,13.03575 0.0123157895,13.0257045 C0.00378947368,13.0138864 0.0320526316,12.9908409 0.0571578947,12.9719318 C0.336789474,12.7677727 0.383526316,12.6608182 0.451105263,12.5410114 C0.135,12.3169091 -0.0644210526,11.986 -0.0644210526,11.6174205 C-0.0644210526,10.9383182 0.612,10.3877386 1.44757895,10.3877386 C2.28173684,10.3877386 2.95926316,10.9384659 2.95926316,11.6175682 L2.95926316,11.6175682 L2.95926316,11.6175682 Z" id="Shape" sketch:type="MSShapeGroup"></path>
        </g>
        <g id="icon_2176-2" sketch:type="MSLayerGroup" transform="translate(62.000000, 129.000000)" fill="#FFFFFF">
            <path d="M2.63178947,9.13309091 C2.63178947,9.21286364 2.61331579,9.28259091 2.57589474,9.34227273 C2.53863158,9.40210227 2.472,9.45218182 2.37584211,9.49206818 C2.28015789,9.53195455 2.15747368,9.56194318 2.00857895,9.58159091 C1.85905263,9.60168182 1.67257895,9.61157955 1.449,9.61157955 C1.22510526,9.61157955 1.03863158,9.60168182 0.889421053,9.58159091 C0.740210526,9.56179545 0.617842105,9.53180682 0.521684211,9.49206818 C0.426,9.45218182 0.359052632,9.40225 0.322105263,9.34227273 C0.284526316,9.28259091 0.266052632,9.21286364 0.266052632,9.13309091 L-0.00568421053,0.731397727 C-0.0162631579,0.611738636 -0.000473684211,0.507147727 0.0423157895,0.417477273 C0.0849473684,0.327806818 0.162157895,0.252909091 0.274105263,0.193079545 C0.386052632,0.13325 0.535105263,0.091 0.721578947,0.0660340909 C0.907894737,0.0412159091 1.15026316,0.0286590909 1.44884211,0.0286590909 C1.73636842,0.0286590909 1.97352632,0.0437272727 2.16031579,0.0734204545 C2.34663158,0.103409091 2.49584211,0.148318182 2.60778947,0.208147727 C2.71942105,0.267977273 2.79663158,0.340363636 2.83957895,0.425011364 C2.88189474,0.509806818 2.90336842,0.611886364 2.90336842,0.731545455 L2.63178947,9.13309091 L2.63178947,9.13309091 Z" id="Shape" sketch:type="MSShapeGroup"></path>
            <path d="M2.95926316,11.6175682 C2.95926316,12.2966705 2.28173684,12.8463636 1.44757895,12.8463636 C1.24910526,12.8463636 1.06105263,12.8154886 0.887210526,12.7590568 C0.644842105,12.8831477 0.429157895,12.9677955 0.140368421,13.0208295 C0.0541578947,13.037375 0.0198947368,13.03575 0.0123157895,13.0257045 C0.00378947368,13.0138864 0.0320526316,12.9908409 0.0571578947,12.9719318 C0.336789474,12.7677727 0.383526316,12.6608182 0.451105263,12.5410114 C0.135,12.3169091 -0.0644210526,11.986 -0.0644210526,11.6174205 C-0.0644210526,10.9383182 0.612,10.3877386 1.44757895,10.3877386 C2.28173684,10.3877386 2.95926316,10.9384659 2.95926316,11.6175682 L2.95926316,11.6175682 L2.95926316,11.6175682 Z" id="Shape" sketch:type="MSShapeGroup"></path>
        </g>
        <g id="icon_29008" sketch:type="MSLayerGroup" transform="translate(75.000000, 115.000000)" fill="#808080">
            <ellipse id="Oval" sketch:type="MSShapeGroup" cx="1.96715789" cy="11.6196267" rx="1.96715789" ry="1.61962667"></ellipse>
            <ellipse id="Oval" sketch:type="MSShapeGroup" cx="1.96715789" cy="6.61962667" rx="1.96715789" ry="1.61962667"></ellipse>
            <ellipse id="Oval" sketch:type="MSShapeGroup" cx="1.96715789" cy="1.61962667" rx="1.96715789" ry="1.61962667"></ellipse>
        </g>
        <g id="icon_29008-2" sketch:type="MSLayerGroup" transform="translate(75.000000, 128.000000)" fill="#FFFFFF">
            <ellipse id="Oval" sketch:type="MSShapeGroup" cx="1.96715789" cy="11.7442133" rx="1.96715789" ry="1.74421333"></ellipse>
            <ellipse id="Oval" sketch:type="MSShapeGroup" cx="1.96715789" cy="6.74421333" rx="1.96715789" ry="1.74421333"></ellipse>
            <ellipse id="Oval" sketch:type="MSShapeGroup" cx="1.96715789" cy="1.74421333" rx="1.96715789" ry="1.74421333"></ellipse>
        </g>
        <g id="tools" sketch:type="MSLayerGroup" transform="translate(105.000000, 2.000000)" fill="#F0FAFF">
            <ellipse id="Oval" sketch:type="MSShapeGroup" cx="2.95073684" cy="17.4917333" rx="2.95073684" ry="2.49173333"></ellipse>
            <ellipse id="Oval" sketch:type="MSShapeGroup" cx="2.95073684" cy="9.49173333" rx="2.95073684" ry="2.49173333"></ellipse>
            <ellipse id="Oval" sketch:type="MSShapeGroup" cx="2.95073684" cy="2.49173333" rx="2.95073684" ry="2.49173333"></ellipse>
        </g>
        <g id="icon_38527" sketch:type="MSLayerGroup" transform="translate(84.000000, 115.000000)" fill="#808080">
            <path d="M6.3789375,-0.039 C2.8114125,-0.039 -0.08125,2.8517125 -0.08125,6.4194 C-0.08125,9.9870875 2.8114125,12.87975 6.3789375,12.87975 C9.9448375,12.87975 12.8375,9.9870875 12.8375,6.4194 C12.8375,2.8517125 9.9448375,-0.039 6.3789375,-0.039 L6.3789375,-0.039 L6.3789375,-0.039 Z M6.3847875,11.579425 C3.4978125,11.579425 1.1505,9.251125 1.1505,6.3890125 C1.1505,3.5269 3.4978125,1.20055 6.3847875,1.20055 C9.269975,1.20055 11.619075,3.5269 11.619075,6.3890125 C11.619075,9.251125 9.269975,11.579425 6.3847875,11.579425 L6.3847875,11.579425 L6.3847875,11.579425 Z" id="Shape" sketch:type="MSShapeGroup"></path>
            <path d="M9.9220875,6.1923875 L11.1957625,6.1923875 C11.1726875,5.6701125 11.0680375,5.170425 10.8905875,4.7051875 L10.303475,4.95495 L10.1716875,4.6499375 L10.761075,4.400175 C10.5457625,3.936725 10.2574875,3.511625 9.9107125,3.1416125 L9.42435,3.624075 L9.190025,3.3895875 L9.674275,2.907125 C9.3481375,2.6039 8.978125,2.34455 8.5739875,2.1386625 L8.3032625,2.7392625 L7.9980875,2.6039 L8.27255,1.9976125 C7.750275,1.77645 7.18185,1.644825 6.5849875,1.6199625 L6.5849875,3.01015 L6.251375,3.01015 L6.251375,1.618175 C5.7291,1.6315 5.2274625,1.728675 4.760275,1.8965375 L5.0864125,2.6364 L4.77945,2.7678625 L4.4494125,2.018575 C3.97475,2.224625 3.54185,2.504775 3.1643625,2.8461875 L3.71345,3.3895875 L3.47685,3.624075 L2.922075,3.074825 C2.5959375,3.4086 2.319525,3.789825 2.1038875,4.20745 L2.8819375,4.541225 L2.744625,4.8425 L1.9608875,4.5069375 C1.7320875,5.0275875 1.5965625,5.5976375 1.5718625,6.1945 L3.0459,6.19255 L3.0459,6.522425 L1.5718625,6.526325 C1.5871375,7.1098625 1.709175,7.664475 1.9209125,8.177325 L2.689375,7.8456625 L2.821,8.150675 L2.0583875,8.4787625 C2.266225,8.905975 2.5389,9.2967875 2.8650375,9.6399875 L3.4294,9.1099125 L3.6658375,9.3444 L3.099525,9.8762625 C3.4656375,10.215725 3.88505,10.497825 4.3447625,10.7095625 L4.667,9.984975 L4.970225,10.1222875 L4.649775,10.8411875 C5.1494625,11.0339125 5.6889625,11.1444125 6.251375,11.1596875 L6.251375,9.7734 L6.5849875,9.7734 L6.5849875,11.1579 C7.1722625,11.1349875 7.7348375,11.0072625 8.25175,10.7898375 L7.9963,10.1986625 L8.3013125,10.0689875 L8.553025,10.6484625 C8.983975,10.4329875 9.376575,10.154625 9.7218875,9.8267 L9.302475,9.411025 L9.5389125,9.1765375 L9.9545875,9.5883125 C10.274875,9.237475 10.5418625,8.84065 10.7479125,8.406125 L10.17575,8.1523 L10.3129,7.8492375 L10.879375,8.1011125 C11.0699875,7.6090625 11.18065,7.076875 11.1957625,6.5221 L9.9220875,6.5221 L9.9220875,6.1923875 L9.9220875,6.1923875 Z M8.879,8.8105875 C8.7225125,8.965125 8.469175,8.965125 8.312525,8.8086375 L6.365775,7.096375 C6.1884875,6.9171375 5.9843875,6.8007875 5.9843875,6.4481625 L5.9843875,4.1578875 C5.9843875,3.9196625 6.1789,3.7269375 6.4172875,3.7269375 C6.657625,3.7269375 6.8523,3.9196625 6.8523,4.1578875 L6.8523,6.432725 L8.88095,8.2480125 C9.0371125,8.40255 9.0351625,8.6542625 8.879,8.8105875 L8.879,8.8105875 L8.879,8.8105875 Z" id="Shape" sketch:type="MSShapeGroup"></path>
        </g>
        <g id="icon_38527-2" sketch:type="MSLayerGroup" transform="translate(84.000000, 128.000000)" fill="#FFFFFF">
            <path d="M6.3789375,-0.039 C2.8114125,-0.039 -0.08125,2.8517125 -0.08125,6.4194 C-0.08125,9.9870875 2.8114125,12.87975 6.3789375,12.87975 C9.9448375,12.87975 12.8375,9.9870875 12.8375,6.4194 C12.8375,2.8517125 9.9448375,-0.039 6.3789375,-0.039 L6.3789375,-0.039 L6.3789375,-0.039 Z M6.3847875,11.579425 C3.4978125,11.579425 1.1505,9.251125 1.1505,6.3890125 C1.1505,3.5269 3.4978125,1.20055 6.3847875,1.20055 C9.269975,1.20055 11.619075,3.5269 11.619075,6.3890125 C11.619075,9.251125 9.269975,11.579425 6.3847875,11.579425 L6.3847875,11.579425 L6.3847875,11.579425 Z" id="Shape" sketch:type="MSShapeGroup"></path>
            <path d="M9.9220875,6.1923875 L11.1957625,6.1923875 C11.1726875,5.6701125 11.0680375,5.170425 10.8905875,4.7051875 L10.303475,4.95495 L10.1716875,4.6499375 L10.761075,4.400175 C10.5457625,3.936725 10.2574875,3.511625 9.9107125,3.1416125 L9.42435,3.624075 L9.190025,3.3895875 L9.674275,2.907125 C9.3481375,2.6039 8.978125,2.34455 8.5739875,2.1386625 L8.3032625,2.7392625 L7.9980875,2.6039 L8.27255,1.9976125 C7.750275,1.77645 7.18185,1.644825 6.5849875,1.6199625 L6.5849875,3.01015 L6.251375,3.01015 L6.251375,1.618175 C5.7291,1.6315 5.2274625,1.728675 4.760275,1.8965375 L5.0864125,2.6364 L4.77945,2.7678625 L4.4494125,2.018575 C3.97475,2.224625 3.54185,2.504775 3.1643625,2.8461875 L3.71345,3.3895875 L3.47685,3.624075 L2.922075,3.074825 C2.5959375,3.4086 2.319525,3.789825 2.1038875,4.20745 L2.8819375,4.541225 L2.744625,4.8425 L1.9608875,4.5069375 C1.7320875,5.0275875 1.5965625,5.5976375 1.5718625,6.1945 L3.0459,6.19255 L3.0459,6.522425 L1.5718625,6.526325 C1.5871375,7.1098625 1.709175,7.664475 1.9209125,8.177325 L2.689375,7.8456625 L2.821,8.150675 L2.0583875,8.4787625 C2.266225,8.905975 2.5389,9.2967875 2.8650375,9.6399875 L3.4294,9.1099125 L3.6658375,9.3444 L3.099525,9.8762625 C3.4656375,10.215725 3.88505,10.497825 4.3447625,10.7095625 L4.667,9.984975 L4.970225,10.1222875 L4.649775,10.8411875 C5.1494625,11.0339125 5.6889625,11.1444125 6.251375,11.1596875 L6.251375,9.7734 L6.5849875,9.7734 L6.5849875,11.1579 C7.1722625,11.1349875 7.7348375,11.0072625 8.25175,10.7898375 L7.9963,10.1986625 L8.3013125,10.0689875 L8.553025,10.6484625 C8.983975,10.4329875 9.376575,10.154625 9.7218875,9.8267 L9.302475,9.411025 L9.5389125,9.1765375 L9.9545875,9.5883125 C10.274875,9.237475 10.5418625,8.84065 10.7479125,8.406125 L10.17575,8.1523 L10.3129,7.8492375 L10.879375,8.1011125 C11.0699875,7.6090625 11.18065,7.076875 11.1957625,6.5221 L9.9220875,6.5221 L9.9220875,6.1923875 L9.9220875,6.1923875 Z M8.879,8.8105875 C8.7225125,8.965125 8.469175,8.965125 8.312525,8.8086375 L6.365775,7.096375 C6.1884875,6.9171375 5.9843875,6.8007875 5.9843875,6.4481625 L5.9843875,4.1578875 C5.9843875,3.9196625 6.1789,3.7269375 6.4172875,3.7269375 C6.657625,3.7269375 6.8523,3.9196625 6.8523,4.1578875 L6.8523,6.432725 L8.88095,8.2480125 C9.0371125,8.40255 9.0351625,8.6542625 8.879,8.8105875 L8.879,8.8105875 L8.879,8.8105875 Z" id="Shape" sketch:type="MSShapeGroup"></path>
        </g>
        <path d="M25.4565217,344.483333 L25.4565217,342.35 C27.8743961,342.35 29.8357488,344.283333 29.8357488,346.666667 C29.8357488,349.066667 27.8743961,351 25.4565217,351 C29.0748792,351 32,348.116667 32,344.533333 C32,340.966667 29.0748792,338.083333 25.4565217,338.083333 L25.4565217,336 L21.7198068,338.116667 L18,340.25 L21.7198068,342.366667 L25.4565217,344.483333 Z" id="reply" fill="#000000" sketch:type="MSShapeGroup"></path>
        <path d="M2.25,347.25 C2.25000019,344.744123 3.04437463,343.470495 4.99808924,341.870323 C4.96152918,341.900268 5.363979,341.571868 5.4700179,341.484066 C7.21756192,340.037081 7.87500006,338.828278 7.875,336 L7.875,336 L10.125,336 L10.125,336 C10.1250001,338.828278 10.7824382,340.03708 12.5299821,341.484066 C12.6360211,341.571867 13.0384709,341.900268 13.0019109,341.870323 C14.9556254,343.470495 15.7499999,344.744123 15.75,347.25 L15.7500001,347.25 L11.25,347.25 L14.625,351 L18,347.25 L15.75,347.25 L13.5,347.25 C13.4999999,345.533167 13.0581529,344.824749 11.5762306,343.610994 C11.6187304,343.645803 11.2083684,343.310947 11.0950179,343.217092 C10.0633764,342.362881 9.29747109,341.515339 8.77205511,340.5 L9.22794511,340.5 L9.22794511,340.5 C8.70252912,341.51534 7.93662368,342.362881 6.9049821,343.217092 C6.79163163,343.310947 6.38126967,343.645804 6.42376953,343.610995 C4.9418471,344.824749 4.50000011,345.533167 4.5,347.25 L2.25,347.25 L6.75,347.25 L3.375,351 L8.8817842e-16,347.25 L2.24999993,347.25 Z" id="split" fill="#000000" sketch:type="MSShapeGroup"></path>
        <path d="M43.9955775,343 C43.4457352,343 43,343.453036 43,343.99703 L43,350.00297 C43,350.553614 43.444837,351 43.9955775,351 L53.0044225,351 C53.5542648,351 54,350.546964 54,350.00297 L54,343.99703 C54,343.446386 53.555163,343 53.0044225,343 L43.9955775,343 Z M46.4077632,341.571429 L46.4023505,341.482613 C46.4030141,341.489235 46.4015696,341.474212 46.4003105,341.455507 C46.379729,341.149748 46.4205913,340.771722 46.5669088,340.429021 C46.8359739,339.798824 47.4008258,339.428571 48.4996473,339.428571 C49.5985181,339.428572 50.1635634,339.798885 50.4328388,340.429174 C50.5793057,340.772007 50.6202475,341.150138 50.599718,341.455859 C50.5984676,341.474479 50.5970325,341.489439 50.5976961,341.482806 L50.592307,341.571429 L50.592307,343 L51.987225,343 L51.987225,341.571429 L51.981836,341.660051 C51.9853834,341.629798 51.9882738,341.599667 51.991349,341.553872 C52.0259563,341.038509 51.9615254,340.443438 51.7107881,339.85654 C51.2171616,338.701116 50.147359,338 48.4996474,338 C46.8518862,338 45.782181,338.701176 45.288829,339.856693 C45.0383141,340.443443 44.9740043,341.038385 45.0086952,341.553755 C45.0117872,341.599689 45.0146936,341.629916 45.0182579,341.660245 L45.0128452,341.571429 L45.0128452,343 L46.4077632,343 L46.4077632,341.571429 Z" id="internal" fill="#F58957" sketch:type="MSShapeGroup"></path>
        <path d="M35.4077632,343 L42.0044225,343 C42.555163,343 43,343.446386 43,343.99703 L43,350.00297 C43,350.546964 42.5542648,351 42.0044225,351 L32.9955775,351 C32.444837,351 32,350.553614 32,350.00297 L32,343.99703 C32,343.453036 32.4457352,343 32.9955775,343 L34.0128452,343 L34.0128452,340.210526 L34.0182579,340.315236 C34.0146936,340.27948 34.0117872,340.243843 34.0086952,340.18969 C33.9740043,339.582096 34.0383141,338.880691 34.288829,338.188943 C34.782181,336.82665 35.8518862,336 37.4996474,336 C39.147359,336 40.2171616,336.826578 40.7107881,338.188763 C40.9615254,338.880684 41.0259563,339.582243 40.991349,340.189828 C40.9882738,340.243818 40.9853834,340.279341 40.981836,340.315007 L40.987225,340.210526 L40.987225,341.894737 L39.592307,341.894737 L39.592307,340.210526 L39.5976961,340.106046 C39.5970325,340.113866 39.5984676,340.096228 39.599718,340.074275 C39.6202475,339.713847 39.5793057,339.26805 39.4328388,338.863868 C39.1635634,338.12079 38.5985181,337.684211 37.4996473,337.684211 C36.4008258,337.68421 35.8359739,338.120718 35.5669088,338.863688 C35.4205913,339.267715 35.379729,339.713387 35.4003105,340.073861 C35.4015696,340.095913 35.4030141,340.113625 35.4023505,340.105817 L35.4077632,340.210526 L35.4077632,343 Z" id="public" fill="#000000" sketch:type="MSShapeGroup"></path>
        <path d="M61.9409639,349 L61.9409639,346.9 C61.9409639,346.9 61.9409637,347 65.5,347 C69.0590363,347 70,351 70,351 C70,351 71.0012466,346.376064 69.5,343.5 C68.4923852,341.569628 66.7285772,341 65.5,341 C61.9409637,341 62.0409639,341 62.0409639,341 L61.9409639,339 L59.0409639,341 L55,344 L59.0409639,347 L61.9409639,349 Z" id="recipients" fill="#000000" sketch:type="MSShapeGroup" transform="translate(62.500000, 345.000000) rotate(-180.000000) translate(-62.500000, -345.000000) "></path>
    </g>
</svg>