<?xml version="1.0" encoding="UTF-8" standalone="no"?>
<svg width="72px" height="141px" viewBox="0 0 72 141" version="1.1" xmlns="http://www.w3.org/2000/svg" xmlns:xlink="http://www.w3.org/1999/xlink" xmlns:sketch="http://www.bohemiancoding.com/sketch/ns">
    <title>sprite</title>
    <description>Created with Sketch (http://www.bohemiancoding.com/sketch)</description>
    <defs></defs>
    <g id="Page-1" stroke="none" stroke-width="1" fill="none" fill-rule="evenodd" sketch:type="MSPage">
        <path d="M12,3 C6.477,3 2,7.477 2,13 C2,18.521 6.477,23 12,23 C17.522,23 22,18.521 22,13 C22,7.477 17.522,3 12,3 L12,3 Z M11.522,4.898 L12.794,4.898 L12.794,7.393 L11.522,7.393 L11.522,4.898 Z M7.719,9.564 L5.953,7.8 L6.852,6.902 L8.617,8.667 L7.719,9.564 L7.719,9.564 Z M8.344,5.812 L9.496,5.277 L10.551,7.538 L9.399,8.074 L8.344,5.812 L8.344,5.812 Z M12.174,20.288 C11.071,20.288 10.174,19.39 10.174,18.286 C10.174,17.422 10.721,16.689 11.487,16.41 L11.487,10.701 L12.758,10.701 L12.758,16.371 C13.578,16.622 14.176,17.384 14.176,18.286 C14.176,19.39 13.28,20.288 12.174,20.288 L12.174,20.288 Z M13.664,7.535 L14.719,5.273 L15.871,5.812 L14.817,8.071 L13.664,7.535 L13.664,7.535 Z M16.459,9.564 L15.559,8.667 L17.324,6.902 L18.223,7.8 L16.459,9.564 L16.459,9.564 Z" id="Dashboard" fill="#F0FAFF" sketch:type="MSShapeGroup"></path>
        <path d="M45.3328944,5.60631371 C45.3308944,5.35531371 45.3108944,5.09931371 45.2748944,4.84931371 C45.1998944,4.33731371 44.9348944,4.08931371 44.4168944,4.03431371 C44.2298944,4.01531371 44.0408944,4.00131371 43.8528944,4.00131371 C38.3998944,3.99931371 32.9468944,3.99931371 27.4928944,4.00331371 C27.2408944,4.00331371 26.9868944,4.03431371 26.7368944,4.07631371 C26.3468944,4.13831371 26.1258944,4.39131371 26.0628944,4.77331371 C26.0248944,5.00331371 26.0028944,5.24031371 26.0028944,5.47431371 C25.9988944,9.08131371 25.9998944,12.6893137 26.0008944,16.2963137 C26.0008944,16.3993137 26.0028944,16.5033137 26.0088944,16.6063137 C26.0568944,17.4113137 26.3448944,17.7043137 27.1528944,17.7193137 C28.2258944,17.7383137 29.2558944,17.7353137 30.3288944,17.7413137 C30.5548944,17.7433137 30.9998944,17.7413137 30.9998944,17.7413137 L30.9998944,18.0913137 C30.9998944,19.4193137 31.0418944,20.7463137 31.0458944,22.0763137 C31.0468944,22.3303137 30.9908944,22.6423137 31.2978944,22.7743137 C31.5978944,22.9033137 31.7948944,22.6513137 31.9848944,22.4773137 C33.6498944,20.9623137 35.3178944,19.4493137 36.9758944,17.9273137 C37.1278944,17.7883137 37.2808944,17.7383137 37.4818944,17.7393137 C39.5168944,17.7433137 41.5518944,17.7433137 43.5848944,17.7413137 C43.8398944,17.7413137 44.0958944,17.7313137 44.3488944,17.7083137 C44.9518944,17.6563137 45.2058944,17.4173137 45.2928944,16.8213137 C45.3188944,16.6363137 45.3328944,16.4463137 45.3328944,16.2593137 C45.3348944,12.7093137 45.3358944,9.15831371 45.3328944,5.60631371 L45.3328944,5.60631371 Z M28.9998944,7.86431371 L37.9998944,7.86431371 L37.9998944,9.86431371 L28.9998944,9.86431371 L28.9998944,7.86431371 Z M28.9998944,10.8643137 L41.9998944,10.8643137 L41.9998944,12.8643137 L28.9998944,12.8643137 L28.9998944,10.8643137 Z" id="Tickets" fill="#F0FAFF" sketch:type="MSShapeGroup"></path>
        <path d="M54.131,9.224 L49.078,9.224 C48.805,9.224 48.176,9.876 48.176,10.151 L48.176,15.224 L50.176,15.224 L50.176,20.224 L53.176,20.224 L53.176,15.224 L54.176,15.224 L54.176,9.996 C54.176,9.798 54.352,9.224 54.131,9.224 Z M51.606,8.236 C52.693,8.236 53.576,7.352 53.576,6.267 C53.576,5.181 52.693,4.296 51.606,4.296 C50.52,4.296 49.635,5.181 49.635,6.267 C49.635,7.352 50.52,8.236 51.606,8.236 Z M71.16,9.224 L66.113,9.224 C65.84,9.224 65.176,9.877 65.176,10.151 L65.176,15.224 L67.176,15.224 L67.176,20.224 L70.176,20.224 L70.176,15.224 L71.176,15.224 L71.176,10.151 C71.176,9.877 71.435,9.224 71.16,9.224 Z M68.637,8.239 C69.723,8.239 70.605,7.355 70.605,6.271 C70.605,5.185 69.723,4.3 68.637,4.3 C67.553,4.3 66.668,5.185 66.668,6.271 C66.668,7.355 67.553,8.239 68.637,8.239 Z M60.107,6.739 C61.77,6.739 63.119,5.388 63.119,3.728 C63.119,2.065 61.77,0.714 60.107,0.714 C58.447,0.714 57.096,2.065 57.096,3.728 C57.096,5.388 58.447,6.739 60.107,6.739 Z M63.695,8.224 L56.518,8.224 C56.012,8.224 55.176,8.737 55.176,9.245 L55.176,16.224 L57.176,16.224 L57.176,24.224 L62.176,24.224 L62.176,16.224 L64.176,16.224 L64.176,9.245 C64.176,8.737 64.203,8.224 63.695,8.224 Z" id="Customers" fill="#F0FAFF" sketch:type="MSShapeGroup"></path>
        <path d="M5.92009147,43.374 C3.47609147,43.358 1.50109147,41.359 1.51609147,38.916 C1.53409147,36.491 3.51809147,34.516 5.94709147,34.516 L5.97609147,34.516 C7.15809147,34.523 8.26709147,34.992 9.09709147,35.834 C9.92809147,36.674 10.3820915,37.791 10.3750915,38.974 C10.3650915,40.15 9.90309147,41.258 9.06709147,42.087 C8.23309147,42.917 7.12309147,43.374 5.94909147,43.374 L5.92009147,43.374 M5.98309147,33 L5.94509147,33 C2.68109147,33 0.0220914661,35.636 9.14660647e-05,38.907 C-0.0179085339,42.191 2.62309147,44.869 5.90709147,44.89 L5.94909147,44.89 C7.03809147,44.89 8.06209147,44.596 8.94009147,44.08 L12.5530915,47.695 L12.6450915,47.783 C12.7820915,47.92 12.9600915,47.988 13.1390915,47.988 C13.3180915,47.988 13.4970915,47.92 13.6330915,47.783 L14.7970915,46.622 C15.0690915,46.348 15.0690915,45.905 14.7970915,45.633 L14.7060915,45.54 L11.0880915,41.924 C11.5930915,41.058 11.8830915,40.056 11.8900915,38.983 C11.9140915,35.699 9.26709147,33.022 5.98309147,33" id="Search" fill-opacity="0.5" fill="#ECECEC" sketch:type="MSShapeGroup"></path>
        <path d="M20,67.09 L20,64.814 L19.678,64.709 L17.242,63.914 L16.592,62.344 L17.842,59.701 L16.232,58.09 L15.93,58.246 L13.644,59.405 L12.076,58.755 L11.09,56 L8.814,56 L7.914,58.758 L6.344,59.408 L3.699,58.16 L2.09,59.768 L2.244,60.072 L3.402,62.356 L2.754,63.925 L0,64.911 L0,67.187 L0.32,67.291 L2.758,68.088 L3.408,69.656 L2.158,72.301 L3.768,73.911 L4.068,73.757 L6.353,72.597 L7.924,73.248 L8.91,76 L11.186,76 L11.291,75.68 L12.086,73.244 L13.654,72.594 L16.299,73.842 L17.908,72.234 L17.756,71.932 L16.596,69.648 L17.246,68.078 L20,67.09 L20,67.09 Z M10,69.188 C8.24,69.188 6.812,67.762 6.812,66 C6.812,64.24 8.24,62.815 10,62.815 C11.76,62.815 13.185,64.24 13.185,66 C13.185,67.762 11.76,69.188 10,69.188 L10,69.188 Z" id="cog" fill="#4D4D4D" sketch:type="MSShapeGroup"></path>
        <path d="M20,87.09 L20,84.814 L19.678,84.709 L17.242,83.914 L16.592,82.344 L17.842,79.701 L16.232,78.09 L15.93,78.246 L13.644,79.405 L12.076,78.755 L11.09,76 L8.814,76 L7.914,78.758 L6.344,79.408 L3.699,78.16 L2.09,79.768 L2.244,80.072 L3.402,82.356 L2.754,83.925 L0,84.911 L0,87.187 L0.32,87.291 L2.758,88.088 L3.408,89.656 L2.158,92.301 L3.768,93.911 L4.068,93.757 L6.353,92.597 L7.924,93.248 L8.91,96 L11.186,96 L11.291,95.68 L12.086,93.244 L13.654,92.594 L16.299,93.842 L17.908,92.234 L17.756,91.932 L16.596,89.648 L17.246,88.078 L20,87.09 L20,87.09 Z M10,89.188 C8.24,89.188 6.812,87.762 6.812,86 C6.812,84.24 8.24,82.815 10,82.815 C11.76,82.815 13.185,84.24 13.185,86 C13.185,87.762 11.76,89.188 10,89.188 L10,89.188 Z" id="dark-cog" fill="#26272E" sketch:type="MSShapeGroup"></path>
        <path d="M31,66 L31,59 L30,59 L30,66 L23,66 L23,67 L30,67 L30,74 L31,74 L31,67 L38,67 L38,66 L31,66 Z" id="green-plus" stroke="#38AE6A" stroke-width="2" sketch:type="MSShapeGroup"></path>
        <path d="M31,86 L31,79 L30,79 L30,86 L23,86 L23,87 L30,87 L30,94 L31,94 L31,87 L38,87 L38,86 L31,86 Z" id="white-plus" stroke="#FFFFFF" stroke-width="2" sketch:type="MSShapeGroup"></path>
        <path d="M5.324,110.89 L11.883,105.477 L5.324,100.064 L5.324,103.596 L0,103.596 L0,107.358 L5.324,107.358 L5.324,110.89 L5.324,110.89 Z M3.644,96 L3.644,97.542 L13.052,97.542 L13.052,113.459 L3.644,113.459 L3.644,115 L14.593,115 L14.593,96 L3.644,96 L3.644,96 Z" id="sign-out" fill="#0F94D7" sketch:type="MSShapeGroup"></path>
        <path d="M4,128 L9,128 L9,116 L4,116 L4,128 Z M7,125 L8,125 L8,126 L7,126 L7,125 Z M6,123 L7,123 L7,124 L6,124 L6,123 Z M7,121 L8,121 L8,122 L7,122 L7,121 Z M6,119 L7,119 L7,120 L6,120 L6,119 Z M7,117 L8,117 L8,118 L7,118 L7,117 Z M4,117 L5,117 L5,118 L4,118 L4,117 Z M4,121 L5,121 L5,122 L4,122 L4,121 Z M4,125 L5,125 L5,126 L4,126 L4,125 Z M1.52039063e-16,128 L3,128 L3,120 L0,120 L1.52039063e-16,128 Z M1,121 L2,121 L2,122 L1,122 L1,121 Z M1,123 L2,123 L2,124 L1,124 L1,123 Z M1,125 L2,125 L2,126 L1,126 L1,125 Z M13.4247788,119.05212 L12.719469,119.05212 L12.719469,117.471392 L12.2123894,117.471392 L12.2123894,116 L11.7876106,116 L11.7876106,117.471392 L11.280531,117.471392 L11.280531,119.05212 L10.5743363,119.05212 L10.5743363,120.672689 L10,120.672689 L10,128 L14,128 L14,120.672689 L13.4247788,120.672689 L13.4247788,119.05212 Z M10,126 L11,126 L11,127 L10,127 L10,126 Z M10,122 L11,122 L11,123 L10,123 L10,122 Z M12,124 L13,124 L13,125 L12,125 L12,124 Z" id="organisation" fill="#808080" sketch:type="MSShapeGroup"></path>
        <path d="M4,141 L9,141 L9,129 L4,129 L4,141 Z M7,138 L8,138 L8,139 L7,139 L7,138 Z M6,136 L7,136 L7,137 L6,137 L6,136 Z M7,134 L8,134 L8,135 L7,135 L7,134 Z M6,132 L7,132 L7,133 L6,133 L6,132 Z M7,130 L8,130 L8,131 L7,131 L7,130 Z M4,130 L5,130 L5,131 L4,131 L4,130 Z M4,134 L5,134 L5,135 L4,135 L4,134 Z M4,138 L5,138 L5,139 L4,139 L4,138 Z M1.52039063e-16,141 L3,141 L3,133 L0,133 L1.52039063e-16,141 Z M1,134 L2,134 L2,135 L1,135 L1,134 Z M1,136 L2,136 L2,137 L1,137 L1,136 Z M1,138 L2,138 L2,139 L1,139 L1,138 Z M13.4247788,132.05212 L12.719469,132.05212 L12.719469,130.471392 L12.2123894,130.471392 L12.2123894,129 L11.7876106,129 L11.7876106,130.471392 L11.280531,130.471392 L11.280531,132.05212 L10.5743363,132.05212 L10.5743363,133.672689 L10,133.672689 L10,141 L14,141 L14,133.672689 L13.4247788,133.672689 L13.4247788,132.05212 Z M10,139 L11,139 L11,140 L10,140 L10,139 Z M10,135 L11,135 L11,136 L10,136 L10,135 Z M12,137 L13,137 L13,138 L12,138 L12,137 Z" id="organisation" fill="#FFFFFF" sketch:type="MSShapeGroup"></path>
        <path d="M26.3210957,124.814779 C25.6167174,124.516346 24.8342889,124.169622 24.1299105,123.879881 C23.9294855,123.825796 23.7280968,123.770745 23.5267082,123.715694 C23.2877399,123.549576 23.0526259,123.000034 22.9244695,122.727677 C22.7963131,122.708361 22.6700839,122.690976 22.5409639,122.672626 C22.5611992,122.248638 22.8232934,122.226425 22.9244695,121.90288 C23.0150462,121.618934 22.9341054,121.249031 23.0767155,120.984401 C23.176928,120.801864 23.4024062,120.799932 23.5141817,120.643472 C23.6163213,120.500533 23.6837721,120.251356 23.7155703,120.07558 C23.7733852,119.756864 23.824455,119.321287 23.6731727,119.004503 C23.5854867,118.823898 23.5305625,118.805548 23.506473,118.585344 C23.4785291,118.316851 23.5854867,117.44473 23.5883775,117.256398 C23.600904,116.766736 23.5883775,116.727138 23.4708205,116.250031 C23.4708205,116.250031 23.3272468,115.818316 23.1036958,115.688899 L22.653703,115.611634 L22.377155,115.35473 C21.2603636,114.665147 20.0635949,115.148048 19.4218493,115.408815 C18.4987379,115.70918 17.9138437,116.61607 18.3224024,118.553473 C18.3908167,118.883778 18.1402854,119.032511 18.1576299,119.212151 C18.1932824,119.606199 18.2009911,120.55655 18.5729337,120.790274 C18.6076226,120.811522 18.8716441,120.878163 18.8687533,120.859812 C18.906333,121.245168 18.9419855,121.629558 18.9795652,122.013948 C19.0720691,122.26892 19.2956201,122.297894 19.3601801,122.658139 L19.0739963,122.727677 C18.9468035,123.000034 18.7107259,123.549576 18.4717576,123.715694 C18.270369,123.770745 18.0709075,123.825796 17.8695189,123.879881 C17.1661041,124.169622 16.382712,124.516346 15.6773701,124.814779 C15.0356245,125.08617 14.2657226,125.18275 14.0334993,125.857847 C14.0334993,126.316604 13.9911017,127.39927 14.0017011,128 L20.1445358,128 L20.5954921,124.912325 L20.2206587,124.1194 L21.0859553,123.704105 L21.8153868,124.110708 L21.4135731,124.926812 L22.1246966,128 L27.9977282,128 C28.0102548,127.39927 27.9668936,126.316604 27.9668936,125.857847 C27.7327432,125.18275 26.9647684,125.08617 26.3210957,124.814779 Z" id="user" fill="#808080" sketch:type="MSShapeGroup"></path>
        <path d="M26.3210957,137.814779 C25.6167174,137.516346 24.8342889,137.169622 24.1299105,136.879881 C23.9294855,136.825796 23.7280968,136.770745 23.5267082,136.715694 C23.2877399,136.549576 23.0526259,136.000034 22.9244695,135.727677 C22.7963131,135.708361 22.6700839,135.690976 22.5409639,135.672626 C22.5611992,135.248638 22.8232934,135.226425 22.9244695,134.90288 C23.0150462,134.618934 22.9341054,134.249031 23.0767155,133.984401 C23.176928,133.801864 23.4024062,133.799932 23.5141817,133.643472 C23.6163213,133.500533 23.6837721,133.251356 23.7155703,133.07558 C23.7733852,132.756864 23.824455,132.321287 23.6731727,132.004503 C23.5854867,131.823898 23.5305625,131.805548 23.506473,131.585344 C23.4785291,131.316851 23.5854867,130.44473 23.5883775,130.256398 C23.600904,129.766736 23.5883775,129.727138 23.4708205,129.250031 C23.4708205,129.250031 23.3272468,128.818316 23.1036958,128.688899 L22.653703,128.611634 L22.377155,128.35473 C21.2603636,127.665147 20.0635949,128.148048 19.4218493,128.408815 C18.4987379,128.70918 17.9138437,129.61607 18.3224024,131.553473 C18.3908167,131.883778 18.1402854,132.032511 18.1576299,132.212151 C18.1932824,132.606199 18.2009911,133.55655 18.5729337,133.790274 C18.6076226,133.811522 18.8716441,133.878163 18.8687533,133.859812 C18.906333,134.245168 18.9419855,134.629558 18.9795652,135.013948 C19.0720691,135.26892 19.2956201,135.297894 19.3601801,135.658139 L19.0739963,135.727677 C18.9468035,136.000034 18.7107259,136.549576 18.4717576,136.715694 C18.270369,136.770745 18.0709075,136.825796 17.8695189,136.879881 C17.1661041,137.169622 16.382712,137.516346 15.6773701,137.814779 C15.0356245,138.08617 14.2657226,138.18275 14.0334993,138.857847 C14.0334993,139.316604 13.9911017,140.39927 14.0017011,141 L20.1445358,141 L20.5954921,137.912325 L20.2206587,137.1194 L21.0859553,136.704105 L21.8153868,137.110708 L21.4135731,137.926812 L22.1246966,141 L27.9977282,141 C28.0102548,140.39927 27.9668936,139.316604 27.9668936,138.857847 C27.7327432,138.18275 26.9647684,138.08617 26.3210957,137.814779 Z" id="user" fill="#FFFFFF" sketch:type="MSShapeGroup"></path>
    </g>
</svg>