<?xml version="1.0" encoding="UTF-8" standalone="no"?>
<svg width="305px" height="311px" viewBox="0 0 305 311" version="1.1" xmlns="http://www.w3.org/2000/svg" xmlns:xlink="http://www.w3.org/1999/xlink" xmlns:sketch="http://www.bohemiancoding.com/sketch/ns">
    <!-- Generator: Sketch 3.0.4 (8054) - http://www.bohemiancoding.com/sketch -->
    <title>sprite</title>
    <desc>Created with Sketch.</desc>
    <defs></defs>
    <g id="Page-1" stroke="none" stroke-width="1" fill="none" fill-rule="evenodd" sketch:type="MSPage">
        <g id="sprite" sketch:type="MSLayerGroup">
            <g id="Page-1">
                <path d="M94.3608944,5.10631371 C94.3588944,4.85531371 94.3388944,4.59931371 94.3028944,4.34931371 C94.2278944,3.83731371 93.9628944,3.58931371 93.4448944,3.53431371 C93.2578944,3.51531371 93.0688944,3.50131371 92.8808944,3.50131371 C87.4278944,3.49931371 81.9748944,3.49931371 76.5208944,3.50331371 C76.2688944,3.50331371 76.0148944,3.53431371 75.7648944,3.57631371 C75.3748944,3.63831371 75.1538944,3.89131371 75.0908944,4.27331371 C75.0528944,4.50331371 75.0308944,4.74031371 75.0308944,4.97431371 C75.0268944,8.58131371 75.0278944,12.1893137 75.0288944,15.7963137 C75.0288944,15.8993137 75.0308944,16.0033137 75.0368944,16.1063137 C75.0848944,16.9113137 75.3728944,17.2043137 76.1808944,17.2193137 C77.2538944,17.2383137 78.2838944,17.2353137 79.3568944,17.2413137 C79.5828944,17.2433137 80.0278944,17.2413137 80.0278944,17.2413137 L80.0278944,17.5913137 C80.0278944,18.9193137 80.0698944,20.2463137 80.0738944,21.5763137 C80.0748944,21.8303137 80.0188944,22.1423137 80.3258944,22.2743137 C80.6258944,22.4033137 80.8228944,22.1513137 81.0128944,21.9773137 C82.6778944,20.4623137 84.3458944,18.9493137 86.0038944,17.4273137 C86.1558944,17.2883137 86.3088944,17.2383137 86.5098944,17.2393137 C88.5448944,17.2433137 90.5798944,17.2433137 92.6128944,17.2413137 C92.8678944,17.2413137 93.1238944,17.2313137 93.3768944,17.2083137 C93.9798944,17.1563137 94.2338944,16.9173137 94.3208944,16.3213137 C94.3468944,16.1363137 94.3608944,15.9463137 94.3608944,15.7593137 C94.3628944,12.2093137 94.3638944,8.65831371 94.3608944,5.10631371 L94.3608944,5.10631371 L94.3608944,5.10631371 Z M78.0278944,7.36431371 L87.0278944,7.36431371 L87.0278944,9.36431371 L78.0278944,9.36431371 L78.0278944,7.36431371 L78.0278944,7.36431371 Z M78.0278944,10.3643137 L91.0278944,10.3643137 L91.0278944,12.3643137 L78.0278944,12.3643137 L78.0278944,10.3643137 L78.0278944,10.3643137 Z" id="Tickets" fill="#F0FAFF" sketch:type="MSShapeGroup"></path>
                <path d="M5.92009147,43.374 C3.47609147,43.358 1.50109147,41.359 1.51609147,38.916 C1.53409147,36.491 3.51809147,34.516 5.94709147,34.516 L5.97609147,34.516 C7.15809147,34.523 8.26709147,34.992 9.09709147,35.834 C9.92809147,36.674 10.3820915,37.791 10.3750915,38.974 C10.3650915,40.15 9.90309147,41.258 9.06709147,42.087 C8.23309147,42.917 7.12309147,43.374 5.94909147,43.374 L5.92009147,43.374 M5.98309147,33 L5.94509147,33 C2.68109147,33 0.0220914661,35.636 9.14660647e-05,38.907 C-0.0179085339,42.191 2.62309147,44.869 5.90709147,44.89 L5.94909147,44.89 C7.03809147,44.89 8.06209147,44.596 8.94009147,44.08 L12.5530915,47.695 L12.6450915,47.783 C12.7820915,47.92 12.9600915,47.988 13.1390915,47.988 C13.3180915,47.988 13.4970915,47.92 13.6330915,47.783 L14.7970915,46.622 C15.0690915,46.348 15.0690915,45.905 14.7970915,45.633 L14.7060915,45.54 L11.0880915,41.924 C11.5930915,41.058 11.8830915,40.056 11.8900915,38.983 C11.9140915,35.699 9.26709147,33.022 5.98309147,33" id="Search" fill-opacity="0.5" fill="#ECECEC" sketch:type="MSShapeGroup"></path>
                <path d="M20,67.09 L20,64.814 L19.678,64.709 L17.242,63.914 L16.592,62.344 L17.842,59.701 L16.232,58.09 L15.93,58.246 L13.644,59.405 L12.076,58.755 L11.09,56 L8.814,56 L7.914,58.758 L6.344,59.408 L3.699,58.16 L2.09,59.768 L2.244,60.072 L3.402,62.356 L2.754,63.925 L0,64.911 L0,67.187 L0.32,67.291 L2.758,68.088 L3.408,69.656 L2.158,72.301 L3.768,73.911 L4.068,73.757 L6.353,72.597 L7.924,73.248 L8.91,76 L11.186,76 L11.291,75.68 L12.086,73.244 L13.654,72.594 L16.299,73.842 L17.908,72.234 L17.756,71.932 L16.596,69.648 L17.246,68.078 L20,67.09 L20,67.09 Z M10,69.188 C8.24,69.188 6.812,67.762 6.812,66 C6.812,64.24 8.24,62.815 10,62.815 C11.76,62.815 13.185,64.24 13.185,66 C13.185,67.762 11.76,69.188 10,69.188 L10,69.188 L10,69.188 Z" id="cog" fill="#4D4D4D" sketch:type="MSShapeGroup"></path>
                <path d="M20,87.09 L20,84.814 L19.678,84.709 L17.242,83.914 L16.592,82.344 L17.842,79.701 L16.232,78.09 L15.93,78.246 L13.644,79.405 L12.076,78.755 L11.09,76 L8.814,76 L7.914,78.758 L6.344,79.408 L3.699,78.16 L2.09,79.768 L2.244,80.072 L3.402,82.356 L2.754,83.925 L0,84.911 L0,87.187 L0.32,87.291 L2.758,88.088 L3.408,89.656 L2.158,92.301 L3.768,93.911 L4.068,93.757 L6.353,92.597 L7.924,93.248 L8.91,96 L11.186,96 L11.291,95.68 L12.086,93.244 L13.654,92.594 L16.299,93.842 L17.908,92.234 L17.756,91.932 L16.596,89.648 L17.246,88.078 L20,87.09 L20,87.09 Z M10,89.188 C8.24,89.188 6.812,87.762 6.812,86 C6.812,84.24 8.24,82.815 10,82.815 C11.76,82.815 13.185,84.24 13.185,86 C13.185,87.762 11.76,89.188 10,89.188 L10,89.188 L10,89.188 Z" id="dark-cog" fill="#26272E" sketch:type="MSShapeGroup"></path>
                <path d="M31,66 L31,59 L30,59 L30,66 L23,66 L23,67 L30,67 L30,74 L31,74 L31,67 L38,67 L38,66 L31,66 L31,66 Z" id="green-plus" stroke="#38AE6A" stroke-width="2" sketch:type="MSShapeGroup"></path>
                <path d="M31,86 L31,79 L30,79 L30,86 L23,86 L23,87 L30,87 L30,94 L31,94 L31,87 L38,87 L38,86 L31,86 L31,86 Z" id="white-plus" stroke="#FFFFFF" stroke-width="2" sketch:type="MSShapeGroup"></path>
                <path d="M5.324,110.89 L11.883,105.477 L5.324,100.064 L5.324,103.596 L0,103.596 L0,107.358 L5.324,107.358 L5.324,110.89 L5.324,110.89 Z M3.644,96 L3.644,97.542 L13.052,97.542 L13.052,113.459 L3.644,113.459 L3.644,115 L14.593,115 L14.593,96 L3.644,96 L3.644,96 Z" id="sign-out" fill="#0F94D7" sketch:type="MSShapeGroup"></path>
                <g id="channels" transform="translate(0.000000, 141.000000)" sketch:type="MSShapeGroup">
                    <path d="M11.3246753,8 L8.5,10.5925926 L5.67532468,8 L1,13 L16,13 L11.3246753,8 L11.3246753,8 Z M17,3 L12,7.59183673 L17,13 L17,3 L17,3 Z M0,3 L0,13 L5,7.64646465 L0,3 L0,3 Z M17,2 L0,2 L8.4491018,9 L17,2 L17,2 Z" id="email" fill="#A9BCC4"></path>
                    <path d="M31.7211201,1.11066286 C29.6577938,0.407237941 28.6261306,3.2209376 28.3166317,4.92925526 L30.070459,6.73806218 C30.070459,6.73806218 30.070459,7.84344419 27.5944674,10.1546975 C25.1184758,12.4659508 23.9836464,12.3654615 23.9836464,12.3654615 L21.92032,10.355676 C20.5791579,10.5566546 18,12.164483 18,12.164483 C18.3094989,14.5762255 19.96016,16.1840539 22.5393179,15.9830754 C23.5709811,15.8825861 30.6894569,14.375247 33.7844464,6.33610509 C34.4034443,4.52729816 33.6812801,1.81408777 31.7211201,1.11066286 L31.7211201,1.11066286 Z M17.9876543,7.40740741 L25,8 L24.4074074,0.987654321 L22.3333333,3.0617284 L19.1728395,0 L17,2.17283951 L20.0617284,5.33333333 L17.9876543,7.40740741 L17.9876543,7.40740741 Z" id="calls-in" fill="#A9BCC4"></path>
                    <path d="M46.07968,10.4187751 L44.0163536,12.4421155 C44.0163536,12.4421155 42.8815242,12.5432825 40.4055326,10.2164411 C37.929541,7.88959959 37.929541,6.77676236 37.929541,6.77676236 L39.6833683,4.95575599 C39.3738694,3.23591665 38.2390399,0.403240076 36.2788799,1.11140922 C34.3187199,1.71841134 33.5965557,4.55108791 34.2155536,6.27092726 C37.3105431,14.4654559 44.4290189,15.9829612 45.4606821,15.9829612 C48.03984,16.1852953 49.6905011,14.5666229 50,12.1386144 C50,12.2397815 47.3176758,10.6211091 46.07968,10.4187751 L46.07968,10.4187751 Z M43.2439024,9 L46.2682927,5.87804878 L48.3170732,7.92682927 L49,1 L42.0731707,1.68292683 L44.1219512,3.73170732 L41,6.85365854 L43.2439024,9 L43.2439024,9 Z" id="calls-out" fill="#A9BCC4"></path>
                    <path d="M52.8053691,1 C52.3020134,1 52,1.40268456 52,1.80536913 L52,15.1946309 C52,15.6979866 52.4026846,16 52.8053691,16 L60.0536913,16 L60.0536913,10.1610738 L58.0402685,10.1610738 L58.0402685,7.84563758 L60.0536913,7.84563758 L60.0536913,6.13422819 C60.0536913,4.22147651 61.261745,3.11409396 62.9731544,3.11409396 C63.7785235,3.11409396 64.4832215,3.2147651 64.6845638,3.2147651 L64.6845638,5.22818792 L63.4765101,5.22818792 C62.5704698,5.22818792 62.3691275,5.63087248 62.3691275,6.33557047 L62.3691275,7.74496644 L64.5838926,7.74496644 L64.2818792,10.0604027 L62.3691275,10.0604027 L62.3691275,15.9993289 L66.1946309,15.9993289 C66.6979866,15.9993289 67,15.5966443 67,15.1939597 L67,15.1472625 L67,1.70469799 C67,1.40268456 66.5973154,1 66.1946309,1 L52.8053691,1 L52.8053691,1 Z" id="facebook" fill="#A9BCC4"></path>
                    <path d="M82.1756757,4.98347107 C82.7837838,4.58677686 83.2905405,3.99173554 83.5945946,3.29752066 C82.9864865,3.69421488 82.277027,3.89256198 81.5675676,3.99173554 C80.9594595,3.39669421 80.1486486,3 79.3378378,3 C77.6148649,3 76.1959459,4.38842975 76.1959459,6.07438017 C76.1959459,6.27272727 76.1959459,6.57024793 76.2972973,6.76859504 C73.6621622,6.66942149 71.4324324,5.38016529 69.9121622,3.59504132 C69.6081081,4.09090909 69.5067568,4.58677686 69.5067568,5.08264463 C69.5067568,6.17355372 70.0135135,7.0661157 70.9256757,7.66115702 C70.4189189,7.66115702 69.9121622,7.46280992 69.5067568,7.26446281 C69.5067568,8.75206612 70.6216216,9.94214876 72.0405405,10.2396694 C71.7364865,10.338843 71.5337838,10.338843 71.2297297,10.338843 C71.027027,10.338843 70.8243243,10.338843 70.6216216,10.2396694 C71.027027,11.4297521 72.1418919,12.322314 73.5608108,12.322314 C72.4459459,13.1157025 71.1283784,13.6115702 69.7094595,13.6115702 L69,13.6115702 C70.4189189,14.5041322 72.0405405,15 73.7635135,15 C79.5405405,15 82.5810811,10.338843 82.5810811,6.37190083 L82.5810811,5.97520661 C83.0878378,5.5785124 83.5945946,5.08264463 84,4.48760331 C83.3918919,4.68595041 82.8851351,4.88429752 82.1756757,4.98347107 L82.1756757,4.98347107 Z" id="twitter" fill="#A9BCC4"></path>
                    <path d="M95.3246753,8 L92.5,10.5925926 L89.6753247,8 L85,13 L100,13 L95.3246753,8 L95.3246753,8 Z M101,3 L96,7.59183673 L101,13 L101,3 L101,3 Z M84,3 L84,13 L89,7.64646465 L84,3 L84,3 Z M101,2 L84,2 L92.4491018,9 L101,2 L101,2 Z" id="gray-email" fill="#C5C5C6"></path>
                    <path d="M115.72112,1.11066286 C113.657794,0.407237941 112.626131,3.2209376 112.316632,4.92925526 L114.070459,6.73806218 C114.070459,6.73806218 114.070459,7.84344419 111.594467,10.1546975 C109.118476,12.4659508 107.983646,12.3654615 107.983646,12.3654615 L105.92032,10.355676 C104.579158,10.5566546 102,12.164483 102,12.164483 C102.309499,14.5762255 103.96016,16.1840539 106.539318,15.9830754 C107.570981,15.8825861 114.689457,14.375247 117.784446,6.33610509 C118.403444,4.52729816 117.68128,1.81408777 115.72112,1.11066286 L115.72112,1.11066286 Z M101.987654,7.40740741 L109,8 L108.407407,0.987654321 L106.333333,3.0617284 L103.17284,0 L101,2.17283951 L104.061728,5.33333333 L101.987654,7.40740741 L101.987654,7.40740741 Z" id="gray-calls-in" fill="#C5C5C6"></path>
                    <path d="M130.07968,10.4187751 L128.016354,12.4421155 C128.016354,12.4421155 126.881524,12.5432825 124.405533,10.2164411 C121.929541,7.88959959 121.929541,6.77676236 121.929541,6.77676236 L123.683368,4.95575599 C123.373869,3.23591665 122.23904,0.403240076 120.27888,1.11140922 C118.31872,1.71841134 117.596556,4.55108791 118.215554,6.27092726 C121.310543,14.4654559 128.429019,15.9829612 129.460682,15.9829612 C132.03984,16.1852953 133.690501,14.5666229 134,12.1386144 C134,12.2397815 131.317676,10.6211091 130.07968,10.4187751 L130.07968,10.4187751 Z M127.243902,9 L130.268293,5.87804878 L132.317073,7.92682927 L133,1 L126.073171,1.68292683 L128.121951,3.73170732 L125,6.85365854 L127.243902,9 L127.243902,9 Z" id="gray-calls-out" fill="#C5C5C6"></path>
                    <path d="M136.805369,1 C136.302013,1 136,1.40268456 136,1.80536913 L136,15.1946309 C136,15.6979866 136.402685,16 136.805369,16 L144.053691,16 L144.053691,10.1610738 L142.040268,10.1610738 L142.040268,7.84563758 L144.053691,7.84563758 L144.053691,6.13422819 C144.053691,4.22147651 145.261745,3.11409396 146.973154,3.11409396 C147.778523,3.11409396 148.483221,3.2147651 148.684564,3.2147651 L148.684564,5.22818792 L147.47651,5.22818792 C146.57047,5.22818792 146.369128,5.63087248 146.369128,6.33557047 L146.369128,7.74496644 L148.583893,7.74496644 L148.281879,10.0604027 L146.369128,10.0604027 L146.369128,15.9993289 L150.194631,15.9993289 C150.697987,15.9993289 151,15.5966443 151,15.1939597 L151,1.70469799 C151,1.40268456 150.597315,1 150.194631,1 L136.805369,1 L136.805369,1 Z" id="gray-facebook" fill="#C5C5C6"></path>
                    <path d="M166.175676,4.98347107 C166.783784,4.58677686 167.290541,3.99173554 167.594595,3.29752066 C166.986486,3.69421488 166.277027,3.89256198 165.567568,3.99173554 C164.959459,3.39669421 164.148649,3 163.337838,3 C161.614865,3 160.195946,4.38842975 160.195946,6.07438017 C160.195946,6.27272727 160.195946,6.57024793 160.297297,6.76859504 C157.662162,6.66942149 155.432432,5.38016529 153.912162,3.59504132 C153.608108,4.09090909 153.506757,4.58677686 153.506757,5.08264463 C153.506757,6.17355372 154.013514,7.0661157 154.925676,7.66115702 C154.418919,7.66115702 153.912162,7.46280992 153.506757,7.26446281 C153.506757,8.75206612 154.621622,9.94214876 156.040541,10.2396694 C155.736486,10.338843 155.533784,10.338843 155.22973,10.338843 C155.027027,10.338843 154.824324,10.338843 154.621622,10.2396694 C155.027027,11.4297521 156.141892,12.322314 157.560811,12.322314 C156.445946,13.1157025 155.128378,13.6115702 153.709459,13.6115702 L153,13.6115702 C154.418919,14.5041322 156.040541,15 157.763514,15 C163.540541,15 166.581081,10.338843 166.581081,6.37190083 L166.581081,5.97520661 C167.087838,5.5785124 167.594595,5.08264463 168,4.48760331 C167.391892,4.68595041 166.885135,4.88429752 166.175676,4.98347107 L166.175676,4.98347107 Z" id="gray-twitter" fill="#C5C5C6"></path>
                </g>
                <g id="mood" transform="translate(0.000000, 157.000000)" sketch:type="MSShapeGroup">
                    <path d="M60.1875,5.14680851 C60.1875,4.33085106 60.125,3.57765957 60,2.76170213 C59.75,1.19255319 58.9375,0.376595745 57.3125,0.188297872 C56.75,0.125531915 56.125,0.0627659574 55.5625,0.0627659574 L4.6875,0.0627659574 C3.875,0.0627659574 3.125,0.188297872 2.3125,0.313829787 C1.125,0.50212766 0.4375,1.31808511 0.1875,2.5106383 C0.0625,3.26382979 -2.13162821e-14,3.95425532 -2.13162821e-14,4.70744681 L-2.13162821e-14,38.4755319 L-2.13162821e-14,39.4170213 C0.125,41.9276596 1.0625,42.8691489 3.5625,42.8691489 C6.875,42.9319149 10.375,42.9319149 13.75,42.9319149 C14.4375,42.9319149 15.5625,42.9946809 15.5625,42.9946809 L15.5625,44.0617021 C15.5625,48.2042553 15.625,52.3468085 15.625,56.4893617 C15.625,57.3053191 15.625,58.2468085 16.5625,58.6861702 C17.5,59.062766 18.0625,58.3095745 18.625,57.7446809 C23.8125,52.9744681 28.9375,48.2670213 34.125,43.5595745 C34.625,43.1202128 35.0625,42.9946809 35.6875,42.9946809 L54.6875,42.9946809 C55.5,42.9946809 56.25,42.9319149 57.0625,42.8691489 C58.9375,42.6808511 59.75,41.9904255 60,40.1074468 C60.0625,39.5425532 60.125,38.9148936 60.125,38.35 C60.1875,27.3031915 60.1875,16.256383 60.1875,5.14680851 L60.1875,5.14680851 L60.1875,5.14680851 Z M45.6875,20.587234 C46.3125,24.2904255 44.75,26.487234 42.3125,26.9265957 C39.9375,27.3659574 37.625,25.7968085 37,22.093617 L45.6875,20.587234 L45.6875,20.587234 Z M18.25,26.9893617 C15.875,26.55 14.25,24.3531915 14.875,20.65 L23.5625,22.156383 C22.875,25.8595745 20.625,27.3659574 18.25,26.9893617 L18.25,26.9893617 L18.25,26.9893617 Z M38,34.8978723 C38.4375,35.4 38.4375,36.2159574 37.9375,36.6553191 C37.4375,37.0946809 36.625,37.0946809 36.1875,36.5925532 C34.5625,34.8351064 32.4375,33.893617 30.0625,33.893617 C27.75,33.893617 25.5,34.8978723 23.9375,36.5925532 C23.6875,36.843617 23.375,36.9691489 23,36.9691489 C22.6875,36.9691489 22.375,36.843617 22.125,36.6553191 C21.625,36.2159574 21.5625,35.4 22.0625,34.8978723 C24.125,32.6382979 27,31.3829787 30,31.3829787 C33,31.3829787 35.9375,32.6382979 38,34.8978723 L38,34.8978723 L38,34.8978723 Z" id="super-bad" fill="#F35910"></path>
                    <path d="M120.202991,5.14680851 C120.202991,4.33085106 120.140491,3.57765957 120.015491,2.76170213 C119.765491,1.19255319 118.952991,0.376595745 117.327991,0.188297872 C116.765491,0.125531915 116.140491,0.0627659574 115.577991,0.0627659574 L64.7029905,0.0627659574 C63.8904905,0.0627659574 63.1404905,0.188297872 62.3279905,0.313829787 C61.1404905,0.50212766 60.4529905,1.31808511 60.2029905,2.5106383 C60.0779905,3.26382979 60.0154905,3.95425532 60.0154905,4.70744681 L60.0154905,38.4755319 L60.0154905,39.4170213 C60.1404905,41.9276596 61.0779905,42.8691489 63.5779905,42.8691489 C66.8904905,42.9319149 70.3904905,42.9319149 73.7654905,42.9319149 C74.4529905,42.9319149 75.5779905,42.9946809 75.5779905,42.9946809 L75.5779905,44.0617021 C75.5779905,48.2042553 75.6404905,52.3468085 75.6404905,56.4893617 C75.6404905,57.3053191 75.6404905,58.2468085 76.5779905,58.6861702 C77.5154905,59.062766 78.0779905,58.3095745 78.6404905,57.7446809 C83.8279905,52.9744681 88.9529905,48.2670213 94.1404905,43.5595745 C94.6404905,43.1202128 95.0779905,42.9946809 95.7029905,42.9946809 L114.702991,42.9946809 C115.515491,42.9946809 116.265491,42.9319149 117.077991,42.8691489 C118.952991,42.6808511 119.765491,41.9904255 120.015491,40.1074468 C120.077991,39.5425532 120.140491,38.9148936 120.140491,38.35 C120.202991,27.3031915 120.202991,16.256383 120.202991,5.14680851 L120.202991,5.14680851 L120.202991,5.14680851 Z M95.0154905,33.893617 C95.0154905,34.5840426 94.4529905,35.1489362 93.7654905,35.1489362 L86.2654905,35.1489362 C85.5779905,35.1489362 85.0154905,34.5840426 85.0154905,33.893617 C85.0154905,33.2031915 85.5779905,32.6382979 86.2654905,32.6382979 L93.7654905,32.6382979 C94.4529905,32.6382979 95.0154905,33.2031915 95.0154905,33.893617 L95.0154905,33.893617 L95.0154905,33.893617 Z M97.4529905,19.4574468 L106.265491,19.4574468 C106.265491,23.2234043 104.265491,25.106383 101.890491,25.106383 C99.5154905,25.106383 97.4529905,23.2234043 97.4529905,19.4574468 L97.4529905,19.4574468 L97.4529905,19.4574468 Z M74.3279905,19.4574468 L83.1404905,19.4574468 C83.1404905,23.2234043 81.1404905,25.106383 78.7654905,25.106383 C76.3904905,25.106383 74.3279905,23.2234043 74.3279905,19.4574468 L74.3279905,19.4574468 L74.3279905,19.4574468 Z" id="bad" fill="#F6820B"></path>
                    <path d="M180.218481,5.14680851 C180.218481,4.33085106 180.155981,3.57765957 180.030981,2.76170213 C179.780981,1.19255319 178.968481,0.376595745 177.343481,0.188297872 C176.780981,0.125531915 176.155981,0.0627659574 175.593481,0.0627659574 L124.718481,0.0627659574 C123.905981,0.0627659574 123.155981,0.188297872 122.343481,0.313829787 C121.155981,0.50212766 120.468481,1.31808511 120.218481,2.5106383 C120.093481,3.26382979 120.030981,3.95425532 120.030981,4.70744681 L120.030981,38.4755319 L120.030981,39.4170213 C120.155981,41.9276596 121.093481,42.8691489 123.593481,42.8691489 C126.905981,42.9319149 130.405981,42.9319149 133.780981,42.9319149 C134.468481,42.9319149 135.593481,42.9946809 135.593481,42.9946809 L135.593481,44.0617021 C135.593481,48.2042553 135.655981,52.3468085 135.655981,56.4893617 C135.655981,57.3053191 135.655981,58.2468085 136.593481,58.6861702 C137.530981,59.062766 138.093481,58.3095745 138.655981,57.7446809 C143.843481,52.9744681 148.968481,48.2670213 154.155981,43.5595745 C154.655981,43.1202128 155.093481,42.9946809 155.718481,42.9946809 L174.718481,42.9946809 C175.530981,42.9946809 176.280981,42.9319149 177.093481,42.8691489 C178.968481,42.6808511 179.780981,41.9904255 180.030981,40.1074468 C180.093481,39.5425532 180.155981,38.9148936 180.155981,38.35 C180.218481,27.3031915 180.218481,16.256383 180.218481,5.14680851 L180.218481,5.14680851 L180.218481,5.14680851 Z M142.718481,18.4531915 C142.718481,20.9010638 140.718481,22.8468085 138.343481,22.8468085 C135.905981,22.8468085 133.968481,20.8382979 133.968481,18.4531915 C133.968481,16.0053191 135.968481,14.0595745 138.343481,14.0595745 C140.718481,13.9968085 142.718481,16.0053191 142.718481,18.4531915 L142.718481,18.4531915 L142.718481,18.4531915 Z M165.843481,18.4531915 C165.843481,20.9010638 163.843481,22.8468085 161.468481,22.8468085 C159.030981,22.8468085 157.093481,20.8382979 157.093481,18.4531915 C157.093481,16.0053191 159.093481,14.0595745 161.468481,14.0595745 C163.843481,13.9968085 165.843481,16.0053191 165.843481,18.4531915 L165.843481,18.4531915 L165.843481,18.4531915 Z M158.155981,30.7553191 C158.155981,31.4457447 157.593481,32.0106383 156.905981,32.0106383 L143.155981,32.0106383 C142.468481,32.0106383 141.905981,31.4457447 141.905981,30.7553191 C141.905981,30.0648936 142.468481,29.5 143.155981,29.5 L156.905981,29.5 C157.593481,29.5 158.155981,30.0648936 158.155981,30.7553191 L158.155981,30.7553191 L158.155981,30.7553191 Z" id="ok" fill="#FAAB00"></path>
                    <path d="M240.218481,5.14680851 C240.218481,4.33085106 240.155981,3.57765957 240.030981,2.76170213 C239.780981,1.19255319 238.968481,0.376595745 237.343481,0.188297872 C236.780981,0.125531915 236.155981,0.0627659574 235.593481,0.0627659574 L184.718481,0.0627659574 C183.905981,0.0627659574 183.155981,0.188297872 182.343481,0.313829787 C181.155981,0.50212766 180.468481,1.31808511 180.218481,2.5106383 C180.093481,3.26382979 180.030981,3.95425532 180.030981,4.70744681 L180.030981,38.4755319 L180.030981,39.4170213 C180.155981,41.9276596 181.093481,42.8691489 183.593481,42.8691489 C186.905981,42.9319149 190.343481,42.9319149 193.655981,42.9319149 C194.343481,42.9319149 195.405981,42.9946809 195.405981,42.9946809 L195.405981,44.0617021 C195.405981,48.2042553 195.530981,52.3468085 195.593481,56.4893617 C195.593481,57.3053191 195.655981,58.2468085 196.593481,58.6861702 C197.530981,59.062766 198.093481,58.3095745 198.655981,57.7446809 C203.843481,52.9744681 208.968481,48.2670213 214.155981,43.5595745 C214.655981,43.1202128 215.093481,42.9946809 215.718481,42.9946809 L234.718481,42.9946809 C235.530981,42.9946809 236.280981,42.9319149 237.093481,42.8691489 C238.968481,42.6808511 239.780981,41.9904255 240.030981,40.1074468 C240.093481,39.5425532 240.155981,38.9148936 240.155981,38.35 C240.218481,27.3031915 240.218481,16.256383 240.218481,5.14680851 L240.218481,5.14680851 L240.218481,5.14680851 Z M198.780981,20.3361702 C196.343481,20.3361702 194.405981,18.3276596 194.405981,15.9425532 C194.405981,13.4946809 196.405981,11.5489362 198.780981,11.5489362 C201.218481,11.5489362 203.155981,13.5574468 203.155981,15.9425532 C203.218481,18.3276596 201.218481,20.3361702 198.780981,20.3361702 L198.780981,20.3361702 L198.780981,20.3361702 Z M226.343481,15.9425532 C226.343481,18.3904255 224.343481,20.3361702 221.968481,20.3361702 C219.530981,20.3361702 217.593481,18.3276596 217.593481,15.9425532 C217.593481,13.4946809 219.593481,11.5489362 221.968481,11.5489362 C224.343481,11.4861702 226.343481,13.4946809 226.343481,15.9425532 L226.343481,15.9425532 L226.343481,15.9425532 Z M218.093481,27.3031915 C218.593481,27.7425532 218.655981,28.5585106 218.155981,29.0606383 C216.093481,31.3202128 213.218481,32.5755319 210.155981,32.5755319 C207.093481,32.5755319 204.218481,31.3202128 202.155981,29.0606383 C201.718481,28.5585106 201.718481,27.7425532 202.218481,27.3031915 C202.718481,26.8638298 203.530981,26.8638298 203.968481,27.3659574 C205.593481,29.1234043 207.718481,30.0648936 210.093481,30.0648936 C212.405981,30.0648936 214.655981,29.0606383 216.218481,27.3659574 C216.780981,26.8638298 217.593481,26.8638298 218.093481,27.3031915 L218.093481,27.3031915 L218.093481,27.3031915 Z" id="happy" fill="#A9AC41"></path>
                    <path d="M300.003335,5.14680851 C300.003335,4.33085106 299.940835,3.57765957 299.815835,2.76170213 C299.565835,1.19255319 298.753335,0.376595745 297.128335,0.188297872 C296.565835,0.125531915 295.940835,0.0627659574 295.378335,0.0627659574 L244.503335,0.0627659574 C243.690835,0.0627659574 242.940835,0.188297872 242.128335,0.313829787 C240.940835,0.50212766 240.253335,1.31808511 240.003335,2.5106383 C239.878335,3.26382979 239.815835,3.95425532 239.815835,4.70744681 L239.815835,38.4755319 L239.815835,39.4170213 C239.940835,41.9276596 240.878335,42.8691489 243.378335,42.8691489 C246.690835,42.9319149 250.128335,42.9319149 253.440835,42.9319149 C254.128335,42.9319149 255.190835,42.9946809 255.190835,42.9946809 L255.190835,44.0617021 C255.190835,48.2042553 255.315835,52.3468085 255.378335,56.4893617 C255.378335,57.3053191 255.440835,58.2468085 256.378335,58.6861702 C257.315835,59.062766 257.878335,58.3095745 258.440835,57.7446809 C263.628335,52.9744681 268.753335,48.2670213 273.940835,43.5595745 C274.440835,43.1202128 274.878335,42.9946809 275.503335,42.9946809 L294.503335,42.9946809 C295.315835,42.9946809 296.065835,42.9319149 296.878335,42.8691489 C298.753335,42.6808511 299.565835,41.9904255 299.815835,40.1074468 C299.878335,39.5425532 299.940835,38.9148936 299.940835,38.35 C300.003335,27.3031915 300.003335,16.256383 300.003335,5.14680851 L300.003335,5.14680851 L300.003335,5.14680851 Z M259.315835,20.712766 L280.565835,20.712766 C280.565835,25.7340426 275.815835,30.943617 269.940835,30.943617 C264.065835,30.943617 259.315835,25.7340426 259.315835,20.712766 L259.315835,20.712766 L259.315835,20.712766 Z M263.440835,15.6914894 L253.440835,15.6914894 C252.753335,15.6914894 252.190835,15.1265957 252.190835,14.4361702 C252.190835,13.7457447 252.753335,13.1808511 253.440835,13.1808511 L254.065835,13.1808511 C254.440835,10.2308511 256.253335,8.78723404 258.378335,8.78723404 C260.503335,8.78723404 262.315835,10.293617 262.690835,13.1808511 L263.440835,13.1808511 C264.128335,13.1808511 264.690835,13.7457447 264.690835,14.4361702 C264.690835,15.1265957 264.128335,15.6914894 263.440835,15.6914894 L263.440835,15.6914894 L263.440835,15.6914894 Z M287.815835,14.4361702 C287.815835,15.1265957 287.253335,15.6914894 286.565835,15.6914894 L276.565835,15.6914894 C275.878335,15.6914894 275.315835,15.1265957 275.315835,14.4361702 C275.315835,13.7457447 275.878335,13.1808511 276.565835,13.1808511 L277.190835,13.1808511 C277.565835,10.2308511 279.378335,8.78723404 281.503335,8.78723404 C283.628335,8.78723404 285.440835,10.293617 285.815835,13.1808511 L286.565835,13.1808511 C287.253335,13.1808511 287.815835,13.7457447 287.815835,14.4361702 L287.815835,14.4361702 L287.815835,14.4361702 Z" id="super-happy" fill="#38AE6A"></path>
                </g>
                <g id="stopwatch" transform="translate(0.000000, 216.000000)" sketch:type="MSShapeGroup">
                    <path d="M10.5,24.8 C9.5,23.9 8.4,22.9 7.5,22 L13.7,15.8 C14.5,16.7 15.4,17.7 16.3,18.7 C17.1,18.1 17.7,17.6 18.3,17.2 C22.2,14.3 26.5,12.3 31.2,11.2 C31.9,11 32.1,10.8 32.1,10.1 C32,8.4 32.1,6.7 32.1,4.9 L47.5,4.9 L47.5,10.9 C60.3,14.2 69.4,21.8 74,34.1 C77.6,43.7 77,53.3 72.6,62.5 C63.7,81.1 41.2,88.4 22.7,78.7 C3.7,68.8 -3.2,43.3 10.5,24.8 L10.5,24.8 L10.5,24.8 Z M40.0481625,75 C55.1817335,75 67.6921523,62.8930829 67.9948237,47.5576545 C68.2974951,31.4150983 55.282624,19.3081812 40.5526149,19.0055082 C25.3181533,18.7028353 12.2023918,30.9106434 12.0006108,46.5487447 C11.8997204,62.489519 24.3092486,75 40.0481625,75 L40.0481625,75 Z M14.9,12.4 C14.6,12.9 14.5,13.5 14.1,13.9 C11.2,16.8 8.3,19.7 5.5,22.6 C4.8,23.3 4,23.4 3.1,23.1 C1.8,22.7 1,21.8 0.6,20.6 C0.3,19.7 0.4,18.9 1.1,18.1 L9.7,9.5 C10.3,8.9 11.1,8.7 11.9,8.9 C13.4,9.2 14.7,10.8 14.9,12.4 L14.9,12.4 Z M33.7,3.9 C33.5,2.5 34,1.3 35.3,0.8 C38.2,-0.3 41.2,-0.3 44.2,0.8 C45.4,1.2 46,2.4 45.9,3.9 L33.7,3.9 L33.7,3.9 Z" id="Shape" fill="#A9BCC4"></path>
                    <circle id="inlay" opacity="0.3" cx="39.9019608" cy="46.9019608" r="24.9019608"></circle>
                </g>
                <g id="Tickets-in-Process" transform="translate(77.000000, 216.000000)" sketch:type="MSShapeGroup">
                    <path d="M0,0 L0,64 L64,64 L64,0 L0,0 L0,0 Z M8,44 C8.0372093,40.1315939 8.0372093,36.3380601 8,32 C5.75503876,32.0453772 3.86976744,31.1469087 2,29 C0.79379845,27.8525241 0,25.9557572 0,24 L0,8 C0,3.79353375 3.77054264,0 8,0 L39,0 C44.1550388,0 47.9255814,3.59387408 48,8 C48.0248062,13.4770278 48.0248062,18.5683494 48,24 C47.8263566,28.4515031 44.055814,32.0453772 39,32 C33.1410853,32.0453772 27.0883721,32.0453772 21,32 C20.4403101,32.0453772 19.6465116,32.3448667 19,33 C15.4790698,36.43789 12.0062016,40.2314237 8,44 C8.33488372,44.0249575 8.23565891,44.0249575 8,44 L8,44 Z" id="Background" fill="#FFFFFF"></path>
                    <path d="M52,20 C55.6088127,19.8277235 59.1443996,19.8277235 62,23 C63.1850703,24.4041305 63.9932045,26.1948985 64,28 C63.9932045,33.3579704 63.7911709,38.4318129 64,43 C64.195238,47.9825754 59.851517,51.8625727 56,52 C56.3159301,52.0615469 56.1138965,52.161034 56,52 C55.911863,56.0410313 55.911863,59.8215414 56,64 C55.4067792,63.5025645 55.0027121,63.3035902 55,63 C51.3661084,59.7220543 48.0325551,56.4389797 45,53 C43.8908676,52.3600082 43.0827335,51.9620598 42,52 C35.9105429,52.0615469 29.8495368,51.9620598 24,52 C18.434642,51.9620598 14.2929545,47.1866785 15,42 C15.2021054,41.6154004 15.404139,41.3169391 16,41 C17.2224408,39.5261711 18.6366756,38.0338645 20,37 C20.6570109,36.2430965 21.3641283,36.0441223 22,36 C27.5261512,36.0441223 33.1830902,36.0441223 39,36 C45.002052,36.0441223 50.3559408,31.8656637 52,26 C51.972209,24.2051563 51.7701755,22.2154141 52,20 L52,20 L52,20 Z" id="Shape" opacity="0.4" fill="#A9BCC4"></path>
                </g>
                <g id="Reopening" transform="translate(141.000000, 216.000000)" sketch:type="MSShapeGroup">
                    <path d="M0,0 L0,47 L68,47 L68,0 L0,0 L0,0 Z M39.3,18.7 L40.1,18.7 L60.4,18.7 C64,18.7 66.8,21 67.7,24.4 C67.8,25 67.9,25.5 67.9,26.1 L67.9,39.9 C67.9,43.3 65.1,46.3 61.8,46.8 C61.4,46.9 61,46.9 60.6,46.9 L38.7,46.9 C35,46.9 32,44.4 31.4,40.8 C31.3,40.3 31.3,39.9 31.3,39.4 L31.3,26.2 C31.3,23.8 32.2,21.9 34.1,20.4 C34.4,20.2 34.4,20 34.4,19.7 L34.4,11.5 C34.4,6.1 38.1,1.5 43.3,0.3 C44.1,0.1 44.9,0 45.7,0 L53.6,0 C59.8,0 65,5.2 64.9,11.5 C64.9,12.9 63.8,14 62.5,14 C61.1,14.1 59.9,13.1 59.8,11.8 C59.7,10.7 59.6,9.6 59.1,8.6 C57.9,6.5 56.2,5.3 53.8,5.3 C51,5.2 48.2,5.2 45.4,5.3 C42.7,5.3 40,7.7 39.8,10.4 C39.2,13 39.3,15.9 39.3,18.7 L39.3,18.7 Z" id="Background" fill="#FFFFFF"></path>
                    <path d="M47.2,30.7 C47.4,31.4 47.3,32.1 47.1,32.7 C46.9,33.5 46.7,34.2 46.5,35 C46.3,35.5 46.5,36 46.8,36.3 C48.5,37.8 50.2,37.9 51.9,36.2 C52.2,35.9 52.3,35.5 52.2,35 C51.9,34 51.6,32.9 51.4,31.9 C51.3,31.6 51.4,31.3 51.4,31.1 C52,29.7 50.9,28.1 49.4,28.1 C48,28.1 46.8,29.4 47.2,30.7 L47.2,30.7 Z" id="inner-part" fill="#FFFFFF"></path>
                    <path d="M20.8,18.3 C20.5,17.2 20,16.4 19,15.8 L19,11 L18.7,11 C18.7,7 16.1,4.4 12.5,4.4 L8.1,4.4 C7.6,4.4 7.3,4.4 6.8,4.5 C3.8,5.2 1.7,7.8 1.7,10.9 L1.7,15.6 C1.7,15.8 1.7,15.9 1.5,16 C0.5,16.9 1.49020707e-09,18 1.49020707e-09,19.3 L1.49020707e-09,26.8 C1.49020707e-09,27.1 1.49020705e-09,27.3 0.100000001,27.6 C0.500000001,29.7 2.1,31.1 4.2,31.1 L16.7,31.1 C16.9,31.1 17.2,31.1 17.4,31 C19.3,30.7 20.9,29 20.9,27.1 C21,24.5 21,21.9 21,19.3 C21,19 20.9,18.6 20.8,18.3 L20.8,18.3 Z M4.8,15 C4.8,13 4.8,11.8 4.9,10.2 C5,8.7 6.6,7.4 8.1,7.3 L12.9,7.3 C14.3,7.3 15.3,8.2 15.9,9.4 C16.2,9.9 16.2,11 16.3,11 L17.1,11 L17.1,15.1 C13.1,15.1 9,15 5.3,15 L4.8,15 L4.8,15 Z M12,25.1 C11,26 10.1,26 9.1,25.1 C8.9,24.9 8.8,24.7 8.9,24.3 C9,23.9 9.1,23.4 9.2,23 C9.3,22.6 9.4,22.3 9.2,21.9 C9,21.1 9.6,20.4 10.4,20.4 C11.3,20.4 11.9,21.3 11.6,22.1 C11.6,22.2 11.5,22.4 11.6,22.6 C11.7,23.2 11.9,23.8 12,24.4 C12.2,24.6 12.2,24.9 12,25.1 L12,25.1 L12,25.1 Z" id="Shape" opacity="0.4" fill="#A9BCC4"></path>
                    <g id="Arrow" transform="translate(10.000000, 34.000000)">
                        <path d="M11,6.5 L0.5,6.5 L0.5,0" id="Shape" stroke="#A9BCC4"></path>
                        <path d="M17.6,6.9 L7.7,2.9 L10,6.9 L7.7,11 L17.6,6.9 L17.6,6.9 Z" id="Shape" fill="#A9BCC4"></path>
                    </g>
                </g>
                <g id="Status" transform="translate(209.000000, 216.000000)" sketch:type="MSShapeGroup">
                    <g id="total">
                        <path d="M37.5,83 L0,83 L10,75 L47.5,75 L37.5,83 L37.5,83 Z" id="Shape" opacity="0.4" fill="#A9BCC4"></path>
                        <path d="M37.5,80 L0,80 L10,73 L47.5,73 L37.5,80 L37.5,80 Z" id="Shape" fill="#FFFFFF"></path>
                        <path d="M37.5,78 L0,78 L10,70 L47.5,70 L37.5,78 L37.5,78 Z" id="Shape" opacity="0.4" fill="#A9BCC4"></path>
                        <path d="M37.5,75 L0,75 L10,68 L47.5,68 L37.5,75 L37.5,75 Z" id="Shape" fill="#FFFFFF"></path>
                        <path d="M37.5,73 L0,73 L10,65 L47.5,65 L37.5,73 L37.5,73 Z" id="Shape" opacity="0.4" fill="#A9BCC4"></path>
                        <path d="M37.5,70 L0,70 L10,63 L47.5,63 L37.5,70 L37.5,70 Z" id="Shape" fill="#FFFFFF"></path>
                        <path d="M37.5,68 L0,68 L10,60 L47.5,60 L37.5,68 L37.5,68 Z" id="Shape" opacity="0.4" fill="#A9BCC4"></path>
                        <path d="M37.5,65 L0,65 L10,58 L47.5,58 L37.5,65 L37.5,65 Z" id="Shape" fill="#FFFFFF"></path>
                        <path d="M37.5,63 L0,63 L10,55 L47.5,55 L37.5,63 L37.5,63 Z" id="Shape" opacity="0.4" fill="#A9BCC4"></path>
                        <path d="M37.5,60 L0,60 L10,53 L47.5,53 L37.5,60 L37.5,60 Z" id="Shape" fill="#FFFFFF"></path>
                        <path d="M37.5,58 L0,58 L10,50 L47.5,50 L37.5,58 L37.5,58 Z" id="Shape" opacity="0.4" fill="#A9BCC4"></path>
                        <path d="M37.5,55 L0,55 L10,48 L47.5,48 L37.5,55 L37.5,55 Z" id="Shape" fill="#FFFFFF"></path>
                        <path d="M37.5,53 L0,53 L10,45 L47.5,45 L37.5,53 L37.5,53 Z" id="Shape" opacity="0.4" fill="#A9BCC4"></path>
                        <path d="M37.5,50 L0,50 L10,43 L47.5,43 L37.5,50 L37.5,50 Z" id="Shape" fill="#FFFFFF"></path>
                        <path d="M37.5,48 L0,48 L10,40 L47.5,40 L37.5,48 L37.5,48 Z" id="Shape" opacity="0.4" fill="#A9BCC4"></path>
                        <path d="M37.5,45 L0,45 L10,38 L47.5,38 L37.5,45 L37.5,45 Z" id="Shape" fill="#FFFFFF"></path>
                        <path d="M37.5,43 L0,43 L10,35 L47.5,35 L37.5,43 L37.5,43 Z" id="Shape" opacity="0.4" fill="#A9BCC4"></path>
                        <path d="M37.5,40 L0,40 L10,33 L47.5,33 L37.5,40 L37.5,40 Z" id="Shape" fill="#FFFFFF"></path>
                        <path d="M37.5,38 L0,38 L10,30 L47.5,30 L37.5,38 L37.5,38 Z" id="Shape" opacity="0.4" fill="#A9BCC4"></path>
                        <path d="M37.5,35 L0,35 L10,28 L47.5,28 L37.5,35 L37.5,35 Z" id="Shape" fill="#FFFFFF"></path>
                        <path d="M37.5,33 L0,33 L10,25 L47.5,25 L37.5,33 L37.5,33 Z" id="Shape" opacity="0.4" fill="#A9BCC4"></path>
                        <path d="M37.5,30 L0,30 L10,23 L47.5,23 L37.5,30 L37.5,30 Z" id="Shape" fill="#FFFFFF"></path>
                        <path d="M37.5,28 L0,28 L10,20 L47.5,20 L37.5,28 L37.5,28 Z" id="Shape" opacity="0.4" fill="#A9BCC4"></path>
                        <path d="M37.5,25 L0,25 L10,18 L47.5,18 L37.5,25 L37.5,25 Z" id="Shape" fill="#FFFFFF"></path>
                        <path d="M37.5,23 L0,23 L10,15 L47.5,15 L37.5,23 L37.5,23 Z" id="Shape" opacity="0.4" fill="#A9BCC4"></path>
                        <path d="M37.5,20 L0,20 L10,13 L47.5,13 L37.5,20 L37.5,20 Z" id="Shape" fill="#FFFFFF"></path>
                        <path d="M37.5,18 L0,18 L10,10 L47.5,10 L37.5,18 L37.5,18 Z" id="Shape" opacity="0.4" fill="#A9BCC4"></path>
                        <path d="M37.5,15 L0,15 L10,8 L47.5,8 L37.5,15 L37.5,15 Z" id="Shape" fill="#FFFFFF"></path>
                        <path d="M37.5,13 L0,13 L10,5 L47.5,5 L37.5,13 L37.5,13 Z" id="Shape" opacity="0.4" fill="#A9BCC4"></path>
                        <path d="M37.5,10 L0,10 L10,3 L47.5,3 L37.5,10 L37.5,10 Z" id="Shape" fill="#FFFFFF"></path>
                        <path d="M37.5,8 L0,8 L10,0 L47.5,0 L37.5,8 L37.5,8 Z" id="Shape" opacity="0.4" fill="#A9BCC4"></path>
                    </g>
                    <path d="M85.5,50 L48,50 L58,43 L95.5,43 L85.5,50 L85.5,50 Z" id="Shape-copy-4" fill="#FFFFFF"></path>
                    <path d="M85.5,48 L48,48 L58,40 L95.5,40 L85.5,48 L85.5,48 Z" id="Shape-copy-4" fill="#F35910"></path>
                    <path d="M85.5,40 L48,40 L58,33 L95.5,33 L85.5,40 L85.5,40 Z" id="Shape-copy-3" fill="#FFFFFF"></path>
                    <path d="M85.5,38 L48,38 L58,30 L95.5,30 L85.5,38 L85.5,38 Z" id="Shape-copy-3" fill="#F6820B"></path>
                    <path d="M85.5,30 L48,30 L58,23 L95.5,23 L85.5,30 L85.5,30 Z" id="Shape-copy-2" fill="#FFFFFF"></path>
                    <path d="M85.5,28 L48,28 L58,20 L95.5,20 L85.5,28 L85.5,28 Z" id="Shape-copy-2" fill="#FAAB00"></path>
                    <path d="M85.5,20 L48,20 L58,13 L95.5,13 L85.5,20 L85.5,20 Z" id="Shape-copy" fill="#FFFFFF"></path>
                    <path d="M85.5,18 L48,18 L58,10 L95.5,10 L85.5,18 L85.5,18 Z" id="Shape-copy" fill="#A9AC41"></path>
                    <path d="M85.5,10 L48,10 L58,3 L95.5,3 L85.5,10 L85.5,10 Z" id="Shape-copy" fill="#FFFFFF"></path>
                    <path d="M85.5,8 L48,8 L58,0 L95.5,0 L85.5,8 L85.5,8 Z" id="Shape-copy" fill="#38AE6A"></path>
                </g>
                <path d="M6.9,309.9 L2,305 L6.9,300" id="left-arrow" stroke="#000000" stroke-width="2" sketch:type="MSShapeGroup"></path>
                <path d="M9,300 L13.9,304.9 L9,309.9" id="right-arrow" stroke="#000000" stroke-width="2" sketch:type="MSShapeGroup"></path>
                <path d="M16.5,299.5 L25.5,299.5 L25.5,308.5 L16.5,308.5 L16.5,299.5 L16.5,299.5 Z" id="checkbox" stroke="#CBCBCB" sketch:type="MSShapeGroup"></path>
                <g id="checkbox-checked" transform="translate(27.000000, 299.000000)" sketch:type="MSShapeGroup">
                    <path d="M-0.5,0.5 L8.5,0.5 L8.5,9.5 L-0.5,9.5 L-0.5,0.5 L-0.5,0.5 Z" id="checkbox" stroke="#000000"></path>
                    <path d="M2.79999999,5.89999999 L1.09999999,4.39999999 L0.39999999,5.09999999 L3.29999999,8.59999999 C3.79999999,7.09999999 5.39999999,4.19999999 7.29999999,2.09999999 L7.09999999,1.49999999 C4.99999999,2.99999999 3.39999999,4.89999999 2.79999999,5.89999999 L2.79999999,5.89999999 Z" id="Shape" fill="#1A1A1A"></path>
                </g>
                <g id="note" transform="translate(28.000000, 115.000000)">
                    <g id="Captions"></g>
                    <g id="Your_Icon" fill="#808080" sketch:type="MSShapeGroup">
                        <rect id="Rectangle-path" transform="translate(10.903914, 3.398161) rotate(44.995949) translate(-10.903914, -3.398161) " x="10.2038712" y="0.0179544038" width="1.46672965" height="6.8095562"></rect>
                        <path d="M6.72,6.25924 L6.72,7.28 L7.77784,7.28 L8.29626,6.76962 L7.24878,5.79228 L6.72,6.25924 Z" id="Shape"></path>
                        <path d="M8.81482,8.19 L5.74,8.19 L5.74,5.29633 L10.36,0.96291 L10.36,0 L4.2,0 L4.2,3.9 L0,3.9 L0,13 L10.36,13 L10.36,6.74076 L8.81482,8.19 Z" id="Shape"></path>
                        <path d="M0,2.86 L3.08,2.86 L3.08,0 L0,2.86 Z" id="Shape"></path>
                    </g>
                </g>
                <g id="note-2" transform="translate(28.000000, 128.000000)">
                    <g id="Captions"></g>
                    <g id="Your_Icon" fill="#FFFFFF" sketch:type="MSShapeGroup">
                        <rect id="Rectangle-path" transform="translate(10.903914, 3.398161) rotate(44.995949) translate(-10.903914, -3.398161) " x="10.2038712" y="0.0179544038" width="1.46672965" height="6.8095562"></rect>
                        <path d="M6.72,6.25924 L6.72,7.28 L7.77784,7.28 L8.29626,6.76962 L7.24878,5.79228 L6.72,6.25924 Z" id="Shape"></path>
                        <path d="M8.81482,8.19 L5.74,8.19 L5.74,5.29633 L10.36,0.96291 L10.36,0 L4.2,0 L4.2,3.9 L0,3.9 L0,13 L10.36,13 L10.36,6.74076 L8.81482,8.19 Z" id="Shape"></path>
                        <path d="M0,2.86 L3.08,2.86 L3.08,0 L0,2.86 Z" id="Shape"></path>
                    </g>
                </g>
                <g id="icon_47132" transform="translate(42.000000, 115.000000)" fill="#808080" sketch:type="MSShapeGroup">
                    <g id="Group">
                        <path d="M14.0166667,2.6 C14.0166667,1.17619048 12.7833333,0.030952381 11.25,0.030952381 C10.4333333,0.030952381 9.7,0.355952381 9.2,0.882142857 L9.2,0.882142857 L13.1166667,4.51904762 C13.65,4.03928571 14.0166667,3.35833333 14.0166667,2.6 L14.0166667,2.6 Z" id="Shape"></path>
                        <path d="M10.55,3.17261905 L8.6,1.34642857 L5.3,4.41071429 L0.616666667,8.75952381 L-0.0166666667,12.9845238 L4.51666667,12.3964286 L9.71666667,7.56785714 L12.5,4.98333333 L10.55,3.17261905 L10.55,3.17261905 Z M2.13333333,11.777381 L1.66666667,11.3285714 L1.18333333,10.8797619 L1.28333333,10.2607143 L1.38333333,9.64166667 C1.38333333,9.64166667 1.36666667,9.62619048 2.46666667,10.647619 C3.56666667,11.6690476 3.55,11.6535714 3.55,11.6535714 L2.85,11.7154762 L2.13333333,11.777381 L2.13333333,11.777381 Z" id="Shape"></path>
                    </g>
                </g>
                <g id="icon_47132-2" transform="translate(42.000000, 128.000000)" fill="#FFFFFF" sketch:type="MSShapeGroup">
                    <g id="Group">
                        <path d="M14.0166667,2.6 C14.0166667,1.17619048 12.7833333,0.030952381 11.25,0.030952381 C10.4333333,0.030952381 9.7,0.355952381 9.2,0.882142857 L9.2,0.882142857 L13.1166667,4.51904762 C13.65,4.03928571 14.0166667,3.35833333 14.0166667,2.6 L14.0166667,2.6 Z" id="Shape"></path>
                        <path d="M10.55,3.17261905 L8.6,1.34642857 L5.3,4.41071429 L0.616666667,8.75952381 L-0.0166666667,12.9845238 L4.51666667,12.3964286 L9.71666667,7.56785714 L12.5,4.98333333 L10.55,3.17261905 L10.55,3.17261905 Z M2.13333333,11.777381 L1.66666667,11.3285714 L1.18333333,10.8797619 L1.28333333,10.2607143 L1.38333333,9.64166667 C1.38333333,9.64166667 1.36666667,9.62619048 2.46666667,10.647619 C3.56666667,11.6690476 3.55,11.6535714 3.55,11.6535714 L2.85,11.7154762 L2.13333333,11.777381 L2.13333333,11.777381 Z" id="Shape"></path>
                    </g>
                </g>
                <g id="icon_43211" transform="translate(25.852000, 3.000000)" fill="#F0FAFF" sketch:type="MSShapeGroup">
                    <path d="M7.29326531,3.62030769 L18.4455102,3.62030769 C19.3191837,3.62030769 20.0263265,2.82092308 20.0263265,1.83323077 C20.0263265,0.845538462 19.3191837,0.0461538462 18.4455102,0.0461538462 L7.29326531,0.0461538462 C6.41979592,0.0461538462 5.71163265,0.845538462 5.71163265,1.83323077 C5.71163265,2.82092308 6.41979592,3.62030769 7.29326531,3.62030769 L7.29326531,3.62030769 Z" id="Shape"></path>
                    <path d="M18.4455102,7.29853846 L7.29326531,7.29853846 C6.41979592,7.29853846 5.71163265,8.10069231 5.71163265,9.08769231 C5.71163265,10.0753846 6.41979592,10.8754615 7.29326531,10.8754615 L18.4455102,10.8754615 C19.3191837,10.8754615 20.0263265,10.0753846 20.0263265,9.08769231 C20.0263265,8.10092308 19.3191837,7.29853846 18.4455102,7.29853846 L18.4455102,7.29853846 Z" id="Shape"></path>
                    <path d="M18.4455102,14.5527692 L7.29326531,14.5527692 C6.41979592,14.5527692 5.71163265,15.3551538 5.71163265,16.3414615 C5.71163265,17.3282308 6.41979592,18.129 7.29326531,18.129 L18.4455102,18.129 C19.3191837,18.129 20.0263265,17.3282308 20.0263265,16.3414615 C20.0263265,15.3551538 19.3191837,14.5527692 18.4455102,14.5527692 L18.4455102,14.5527692 Z" id="Shape"></path>
                    <path d="M2.62183673,0.0463846154 L1.59530612,0.0463846154 C0.720612245,0.0463846154 0.0136734694,0.845769231 0.0136734694,1.83346154 C0.0136734694,2.82092308 0.720612245,3.62053846 1.59530612,3.62053846 L2.62183673,3.62053846 C3.49591837,3.62053846 4.20265306,2.82115385 4.20265306,1.83346154 C4.20265306,0.845769231 3.49571429,0.0463846154 2.62183673,0.0463846154 L2.62183673,0.0463846154 Z" id="Shape"></path>
                    <path d="M2.62183673,7.29853846 L1.59530612,7.29853846 C0.720612245,7.29853846 0.0136734694,8.10069231 0.0136734694,9.08769231 C0.0136734694,10.0753846 0.720612245,10.8754615 1.59530612,10.8754615 L2.62183673,10.8754615 C3.49591837,10.8754615 4.20265306,10.0753846 4.20265306,9.08769231 C4.20265306,8.10092308 3.49571429,7.29853846 2.62183673,7.29853846 L2.62183673,7.29853846 Z" id="Shape"></path>
                    <path d="M2.62183673,14.5527692 L1.59530612,14.5527692 C0.720612245,14.5527692 0.0136734694,15.3551538 0.0136734694,16.3414615 C0.0136734694,17.3282308 0.720612245,18.129 1.59530612,18.129 L2.62183673,18.129 C3.49591837,18.129 4.20265306,17.3282308 4.20265306,16.3414615 C4.20265306,15.3551538 3.49571429,14.5527692 2.62183673,14.5527692 L2.62183673,14.5527692 Z" id="Shape"></path>
                </g>
                <g id="icon_42281" transform="translate(0.000000, 2.000000)" fill="#F0FAFF" sketch:type="MSShapeGroup">
                    <path d="M12,0 C6.47711111,0 2,4.47711111 2,10 C2,15.5228889 6.47711111,20 12,20 C17.5231111,20 22,15.5228889 22,10 C22,4.47711111 17.5231111,0 12,0 L12,0 Z M12,18.1248889 C10.6193333,18.1248889 9.5,17.0055556 9.5,15.6248889 C9.5,15.52 12,7.18755556 12,7.18755556 C12,7.18755556 14.5,15.52 14.5,15.6248889 C14.5,17.0055556 13.3806667,18.1248889 12,18.1248889 L12,18.1248889 Z M18.372,13.9544444 C19.0862222,12.8064444 19.5,11.452 19.5,10 C19.5,5.85777778 16.1424444,2.5 12,2.5 C7.85777778,2.5 4.5,5.85777778 4.5,10 C4.5,11.452 4.91377778,12.8064444 5.62777778,13.9544444 L4.61155556,14.6853333 C3.75088889,13.3302222 3.25,11.7242222 3.25,10 C3.25,5.16755556 7.16755556,1.25 12,1.25 C16.8326667,1.25 20.75,5.16755556 20.75,10 C20.75,11.7242222 20.2488889,13.3302222 19.3882222,14.6853333 L18.372,13.9544444 L18.372,13.9544444 Z" id="Shape"></path>
                </g>
                <g id="icon_24997" transform="translate(0.000000, 115.000000)" fill="#808080" sketch:type="MSShapeGroup">
                    <path d="M0,0 L0,13 L6.56051546,13 L6.56051546,0 L0,0 L0,0 Z M1.96808247,10.63634 L0.655979381,10.63634 L0.655979381,9.45451 L1.96808247,9.45451 L1.96808247,10.63634 L1.96808247,10.63634 Z M1.96808247,8.86366 L0.655979381,8.86366 L0.655979381,7.68183 L1.96808247,7.68183 L1.96808247,8.86366 L1.96808247,8.86366 Z M1.96808247,7.09085 L0.655979381,7.09085 L0.655979381,5.90902 L1.96808247,5.90902 L1.96808247,7.09085 L1.96808247,7.09085 Z M1.96808247,5.31817 L0.655979381,5.31817 L0.655979381,4.13634 L1.96808247,4.13634 L1.96808247,5.31817 L1.96808247,5.31817 Z M1.96808247,3.54549 L0.655979381,3.54549 L0.655979381,2.36366 L1.96808247,2.36366 L1.96808247,3.54549 L1.96808247,3.54549 Z M1.96808247,1.77268 L0.655979381,1.77268 L0.655979381,0.59085 L1.96808247,0.59085 L1.96808247,1.77268 L1.96808247,1.77268 Z M3.93630928,10.63634 L2.62420619,10.63634 L2.62420619,9.45451 L3.93630928,9.45451 L3.93630928,10.63634 L3.93630928,10.63634 Z M3.93630928,8.86366 L2.62420619,8.86366 L2.62420619,7.68183 L3.93630928,7.68183 L3.93630928,8.86366 L3.93630928,8.86366 Z M3.93630928,7.09085 L2.62420619,7.09085 L2.62420619,5.90902 L3.93630928,5.90902 L3.93630928,7.09085 L3.93630928,7.09085 Z M3.93630928,5.31817 L2.62420619,5.31817 L2.62420619,4.13634 L3.93630928,4.13634 L3.93630928,5.31817 L3.93630928,5.31817 Z M3.93630928,3.54549 L2.62420619,3.54549 L2.62420619,2.36366 L3.93630928,2.36366 L3.93630928,3.54549 L3.93630928,3.54549 Z M3.93630928,1.77268 L2.62420619,1.77268 L2.62420619,0.59085 L3.93630928,0.59085 L3.93630928,1.77268 L3.93630928,1.77268 Z M5.90439175,10.63634 L4.59228866,10.63634 L4.59228866,9.45451 L5.90439175,9.45451 L5.90439175,10.63634 L5.90439175,10.63634 Z M5.90439175,8.86366 L4.59228866,8.86366 L4.59228866,7.68183 L5.90439175,7.68183 L5.90439175,8.86366 L5.90439175,8.86366 Z M5.90439175,7.09085 L4.59228866,7.09085 L4.59228866,5.90902 L5.90439175,5.90902 L5.90439175,7.09085 L5.90439175,7.09085 Z M5.90439175,5.31817 L4.59228866,5.31817 L4.59228866,4.13634 L5.90439175,4.13634 L5.90439175,5.31817 L5.90439175,5.31817 Z M5.90439175,3.54549 L4.59228866,3.54549 L4.59228866,2.36366 L5.90439175,2.36366 L5.90439175,3.54549 L5.90439175,3.54549 Z M5.90439175,1.77268 L4.59228866,1.77268 L4.59228866,0.59085 L5.90439175,0.59085 L5.90439175,1.77268 L5.90439175,1.77268 Z" id="Shape"></path>
                    <path d="M7.4788866,3.54549 L7.4788866,13 L14.0394021,13 L14.0394021,3.54549 L7.4788866,3.54549 L7.4788866,3.54549 Z M9.4471134,10.63634 L8.13501031,10.63634 L8.13501031,9.45451 L9.4471134,9.45451 L9.4471134,10.63634 L9.4471134,10.63634 Z M9.4471134,8.86366 L8.13501031,8.86366 L8.13501031,7.68183 L9.4471134,7.68183 L9.4471134,8.86366 L9.4471134,8.86366 Z M9.4471134,7.09085 L8.13501031,7.09085 L8.13501031,5.90902 L9.4471134,5.90902 L9.4471134,7.09085 L9.4471134,7.09085 Z M9.4471134,5.31817 L8.13501031,5.31817 L8.13501031,4.13634 L9.4471134,4.13634 L9.4471134,5.31817 L9.4471134,5.31817 Z M11.4151959,10.63634 L10.1030928,10.63634 L10.1030928,9.45451 L11.4151959,9.45451 L11.4151959,10.63634 L11.4151959,10.63634 Z M11.4151959,8.86366 L10.1030928,8.86366 L10.1030928,7.68183 L11.4151959,7.68183 L11.4151959,8.86366 L11.4151959,8.86366 Z M11.4151959,7.09085 L10.1030928,7.09085 L10.1030928,5.90902 L11.4151959,5.90902 L11.4151959,7.09085 L11.4151959,7.09085 Z M11.4151959,5.31817 L10.1030928,5.31817 L10.1030928,4.13634 L11.4151959,4.13634 L11.4151959,5.31817 L11.4151959,5.31817 Z M13.3832784,10.63634 L12.0711753,10.63634 L12.0711753,9.45451 L13.3832784,9.45451 L13.3832784,10.63634 L13.3832784,10.63634 Z M13.3832784,8.86366 L12.0711753,8.86366 L12.0711753,7.68183 L13.3832784,7.68183 L13.3832784,8.86366 L13.3832784,8.86366 Z M13.3832784,7.09085 L12.0711753,7.09085 L12.0711753,5.90902 L13.3832784,5.90902 L13.3832784,7.09085 L13.3832784,7.09085 Z M13.3832784,5.31817 L12.0711753,5.31817 L12.0711753,4.13634 L13.3832784,4.13634 L13.3832784,5.31817 L13.3832784,5.31817 Z" id="Shape"></path>
                </g>
                <g id="icon_24997-2" transform="translate(0.000000, 128.000000)" fill="#FFFFFF" sketch:type="MSShapeGroup">
                    <path d="M0,0 L0,13 L6.56051546,13 L6.56051546,0 L0,0 L0,0 Z M1.96808247,10.63634 L0.655979381,10.63634 L0.655979381,9.45451 L1.96808247,9.45451 L1.96808247,10.63634 L1.96808247,10.63634 Z M1.96808247,8.86366 L0.655979381,8.86366 L0.655979381,7.68183 L1.96808247,7.68183 L1.96808247,8.86366 L1.96808247,8.86366 Z M1.96808247,7.09085 L0.655979381,7.09085 L0.655979381,5.90902 L1.96808247,5.90902 L1.96808247,7.09085 L1.96808247,7.09085 Z M1.96808247,5.31817 L0.655979381,5.31817 L0.655979381,4.13634 L1.96808247,4.13634 L1.96808247,5.31817 L1.96808247,5.31817 Z M1.96808247,3.54549 L0.655979381,3.54549 L0.655979381,2.36366 L1.96808247,2.36366 L1.96808247,3.54549 L1.96808247,3.54549 Z M1.96808247,1.77268 L0.655979381,1.77268 L0.655979381,0.59085 L1.96808247,0.59085 L1.96808247,1.77268 L1.96808247,1.77268 Z M3.93630928,10.63634 L2.62420619,10.63634 L2.62420619,9.45451 L3.93630928,9.45451 L3.93630928,10.63634 L3.93630928,10.63634 Z M3.93630928,8.86366 L2.62420619,8.86366 L2.62420619,7.68183 L3.93630928,7.68183 L3.93630928,8.86366 L3.93630928,8.86366 Z M3.93630928,7.09085 L2.62420619,7.09085 L2.62420619,5.90902 L3.93630928,5.90902 L3.93630928,7.09085 L3.93630928,7.09085 Z M3.93630928,5.31817 L2.62420619,5.31817 L2.62420619,4.13634 L3.93630928,4.13634 L3.93630928,5.31817 L3.93630928,5.31817 Z M3.93630928,3.54549 L2.62420619,3.54549 L2.62420619,2.36366 L3.93630928,2.36366 L3.93630928,3.54549 L3.93630928,3.54549 Z M3.93630928,1.77268 L2.62420619,1.77268 L2.62420619,0.59085 L3.93630928,0.59085 L3.93630928,1.77268 L3.93630928,1.77268 Z M5.90439175,10.63634 L4.59228866,10.63634 L4.59228866,9.45451 L5.90439175,9.45451 L5.90439175,10.63634 L5.90439175,10.63634 Z M5.90439175,8.86366 L4.59228866,8.86366 L4.59228866,7.68183 L5.90439175,7.68183 L5.90439175,8.86366 L5.90439175,8.86366 Z M5.90439175,7.09085 L4.59228866,7.09085 L4.59228866,5.90902 L5.90439175,5.90902 L5.90439175,7.09085 L5.90439175,7.09085 Z M5.90439175,5.31817 L4.59228866,5.31817 L4.59228866,4.13634 L5.90439175,4.13634 L5.90439175,5.31817 L5.90439175,5.31817 Z M5.90439175,3.54549 L4.59228866,3.54549 L4.59228866,2.36366 L5.90439175,2.36366 L5.90439175,3.54549 L5.90439175,3.54549 Z M5.90439175,1.77268 L4.59228866,1.77268 L4.59228866,0.59085 L5.90439175,0.59085 L5.90439175,1.77268 L5.90439175,1.77268 Z" id="Shape"></path>
                    <path d="M7.4788866,3.54549 L7.4788866,13 L14.0394021,13 L14.0394021,3.54549 L7.4788866,3.54549 L7.4788866,3.54549 Z M9.4471134,10.63634 L8.13501031,10.63634 L8.13501031,9.45451 L9.4471134,9.45451 L9.4471134,10.63634 L9.4471134,10.63634 Z M9.4471134,8.86366 L8.13501031,8.86366 L8.13501031,7.68183 L9.4471134,7.68183 L9.4471134,8.86366 L9.4471134,8.86366 Z M9.4471134,7.09085 L8.13501031,7.09085 L8.13501031,5.90902 L9.4471134,5.90902 L9.4471134,7.09085 L9.4471134,7.09085 Z M9.4471134,5.31817 L8.13501031,5.31817 L8.13501031,4.13634 L9.4471134,4.13634 L9.4471134,5.31817 L9.4471134,5.31817 Z M11.4151959,10.63634 L10.1030928,10.63634 L10.1030928,9.45451 L11.4151959,9.45451 L11.4151959,10.63634 L11.4151959,10.63634 Z M11.4151959,8.86366 L10.1030928,8.86366 L10.1030928,7.68183 L11.4151959,7.68183 L11.4151959,8.86366 L11.4151959,8.86366 Z M11.4151959,7.09085 L10.1030928,7.09085 L10.1030928,5.90902 L11.4151959,5.90902 L11.4151959,7.09085 L11.4151959,7.09085 Z M11.4151959,5.31817 L10.1030928,5.31817 L10.1030928,4.13634 L11.4151959,4.13634 L11.4151959,5.31817 L11.4151959,5.31817 Z M13.3832784,10.63634 L12.0711753,10.63634 L12.0711753,9.45451 L13.3832784,9.45451 L13.3832784,10.63634 L13.3832784,10.63634 Z M13.3832784,8.86366 L12.0711753,8.86366 L12.0711753,7.68183 L13.3832784,7.68183 L13.3832784,8.86366 L13.3832784,8.86366 Z M13.3832784,7.09085 L12.0711753,7.09085 L12.0711753,5.90902 L13.3832784,5.90902 L13.3832784,7.09085 L13.3832784,7.09085 Z M13.3832784,5.31817 L12.0711753,5.31817 L12.0711753,4.13634 L13.3832784,4.13634 L13.3832784,5.31817 L13.3832784,5.31817 Z" id="Shape"></path>
                </g>
                <g id="icon_21999" transform="translate(14.000000, 115.000000)" fill="#808080" sketch:type="MSShapeGroup">
                    <path d="M13.9196667,10.9405955 C13.687,10.2892809 12.9161667,10.1995955 12.2721667,9.93740449 C11.5651667,9.64979775 10.7813333,9.31764045 10.0756667,9.03850562 C9.87466667,8.98562921 9.67316667,8.93348315 9.47183333,8.88060674 C9.23166667,8.72080899 9.0045,8.1908764 8.876,7.92751685 C8.748,7.90969663 8.66666667,7.88734831 8.5,7.86982022 L8.5,7.74157303 L8.2395,7.74157303 C8.57366667,7.59550562 9.07833333,7.29708989 9.24416667,7.02262921 L9.53816667,5.58298876 L9.54233333,5.59832584 L9.5875,5.35819101 C9.589,5.35848315 9.59016667,5.36257303 9.5915,5.3627191 C9.86416667,5.4012809 10.1643333,5.00441573 10.2616667,4.47404494 C10.359,3.94367416 10.217,3.48341573 9.94433333,3.445 C9.877,3.43565169 9.80783333,3.45332584 9.74033333,3.49276404 C9.78433333,3.02111236 9.78516667,2.62366292 9.74883333,2.28829213 C9.75616667,2.22708989 9.76133333,2.16150562 9.7635,2.08993258 C9.77166667,1.81605618 10.1191667,0.94388764 9.7945,0.720404494 C9.733,0.678044944 9.57683333,0.715438202 9.459,0.72288764 C8.82766667,0.76247191 8.1555,0.122258427 7.21983333,0.042505618 C6.052,-0.0568202247 4.89133333,0.50305618 4.79216667,1.12223596 C4.72583333,1.12252809 4.64666667,1.13333708 4.55216667,1.157 C4.2655,1.22857303 3.98816667,1.60542697 3.94516667,2.26170787 C3.89766667,2.98517978 3.93733333,3.32916854 4.02583333,3.49422472 C4.0205,3.49641573 4.0155,3.49846067 4.01033333,3.50050562 C3.93933333,3.45624719 3.86633333,3.43608989 3.79483333,3.44616854 C3.52216667,3.48458427 3.38016667,3.9457191 3.4775,4.47608989 C3.57483333,5.00646067 3.87483333,5.40537079 4.1475,5.36680899 C4.154,5.36593258 4.16016667,5.36461798 4.1665,5.3631573 L4.3365,6.27549438 L4.50183333,7.03708989 C4.6645,7.30629213 5.15583333,7.59550562 5.49083333,7.74157303 L5.2445,7.74157303 L5.01,7.86222472 C4.8815,8.1258764 4.64616667,8.68911236 4.40583333,8.84861798 C4.2045,8.90164045 4.003,8.97102247 3.80166667,9.02375281 C3.09633333,9.30288764 2.31233333,9.6451236 1.60533333,9.93273034 C0.9615,10.1949213 0.190666667,10.2854831 -0.042,10.9366517 C-0.042,11.3787978 -0.0851666667,12.4407079 -0.0733333333,13 L13.9506667,13 C13.9626667,12.4407079 13.9196667,11.3828876 13.9196667,10.9405955 L13.9196667,10.9405955 Z" id="Shape"></path>
                </g>
                <g id="icon_21999-2" transform="translate(14.000000, 128.000000)" fill="#FFFFFF" sketch:type="MSShapeGroup">
                    <path d="M13.9196667,10.9405955 C13.687,10.2892809 12.9161667,10.1995955 12.2721667,9.93740449 C11.5651667,9.64979775 10.7813333,9.31764045 10.0756667,9.03850562 C9.87466667,8.98562921 9.67316667,8.93348315 9.47183333,8.88060674 C9.23166667,8.72080899 9.0045,8.1908764 8.876,7.92751685 C8.748,7.90969663 8.66666667,7.88734831 8.5,7.86982022 L8.5,7.74157303 L8.2395,7.74157303 C8.57366667,7.59550562 9.07833333,7.29708989 9.24416667,7.02262921 L9.53816667,5.58298876 L9.54233333,5.59832584 L9.5875,5.35819101 C9.589,5.35848315 9.59016667,5.36257303 9.5915,5.3627191 C9.86416667,5.4012809 10.1643333,5.00441573 10.2616667,4.47404494 C10.359,3.94367416 10.217,3.48341573 9.94433333,3.445 C9.877,3.43565169 9.80783333,3.45332584 9.74033333,3.49276404 C9.78433333,3.02111236 9.78516667,2.62366292 9.74883333,2.28829213 C9.75616667,2.22708989 9.76133333,2.16150562 9.7635,2.08993258 C9.77166667,1.81605618 10.1191667,0.94388764 9.7945,0.720404494 C9.733,0.678044944 9.57683333,0.715438202 9.459,0.72288764 C8.82766667,0.76247191 8.1555,0.122258427 7.21983333,0.042505618 C6.052,-0.0568202247 4.89133333,0.50305618 4.79216667,1.12223596 C4.72583333,1.12252809 4.64666667,1.13333708 4.55216667,1.157 C4.2655,1.22857303 3.98816667,1.60542697 3.94516667,2.26170787 C3.89766667,2.98517978 3.93733333,3.32916854 4.02583333,3.49422472 C4.0205,3.49641573 4.0155,3.49846067 4.01033333,3.50050562 C3.93933333,3.45624719 3.86633333,3.43608989 3.79483333,3.44616854 C3.52216667,3.48458427 3.38016667,3.9457191 3.4775,4.47608989 C3.57483333,5.00646067 3.87483333,5.40537079 4.1475,5.36680899 C4.154,5.36593258 4.16016667,5.36461798 4.1665,5.3631573 L4.3365,6.27549438 L4.50183333,7.03708989 C4.6645,7.30629213 5.15583333,7.59550562 5.49083333,7.74157303 L5.2445,7.74157303 L5.01,7.86222472 C4.8815,8.1258764 4.64616667,8.68911236 4.40583333,8.84861798 C4.2045,8.90164045 4.003,8.97102247 3.80166667,9.02375281 C3.09633333,9.30288764 2.31233333,9.6451236 1.60533333,9.93273034 C0.9615,10.1949213 0.190666667,10.2854831 -0.042,10.9366517 C-0.042,11.3787978 -0.0851666667,12.4407079 -0.0733333333,13 L13.9506667,13 C13.9626667,12.4407079 13.9196667,11.3828876 13.9196667,10.9405955 L13.9196667,10.9405955 Z" id="Shape"></path>
                </g>
                <g id="icon_8501-3" transform="translate(48.000000, 0.000000)" fill="#F0FAFF" sketch:type="MSShapeGroup">
                    <g id="Group">
                        <ellipse id="Oval" cx="4.91315385" cy="2.72321739" rx="2.63842857" ry="2.72321739"></ellipse>
                        <ellipse id="Oval" cx="11.4848352" cy="2.72347826" rx="2.63868132" ry="2.72347826"></ellipse>
                        <ellipse id="Oval" cx="17.8035165" cy="2.72347826" rx="2.63868132" ry="2.72347826"></ellipse>
                        <path d="M15.2232198,6.31121739 L7.69893407,6.31121739 C7.05594505,6.31121739 6.53478022,6.84913043 6.53478022,7.51226087 L6.53478022,14.3783478 C6.53478022,15.0422609 7.05594505,15.5793913 7.69893407,15.5793913 L8.05707692,15.5793913 L8.05707692,24.0706957 L14.7278352,24.0706957 L14.7278352,15.5793913 L15.2232198,15.5793913 C15.8662088,15.5793913 16.3868681,15.042 16.3868681,14.3783478 L16.3868681,7.51226087 C16.3866154,6.8493913 15.8662088,6.31121739 15.2232198,6.31121739 L15.2232198,6.31121739 Z" id="Shape"></path>
                        <g transform="translate(0.000000, 6.260870)" id="Shape">
                            <path d="M4.89343956,8.11773913 L4.89343956,1.25165217 C4.89343956,0.82226087 4.99024176,0.417913043 5.15326374,0.0506086957 L1.26752747,0.0506086957 C0.625043956,0.0506086957 0.103879121,0.588521739 0.103879121,1.25165217 L0.103879121,8.11773913 C0.103879121,8.78165217 0.625043956,9.31878261 1.26752747,9.31878261 L1.62592308,9.31878261 L1.62592308,17.810087 L6.41523077,17.810087 L6.41523077,10.6925217 C5.51216484,10.2114783 4.89343956,9.23765217 4.89343956,8.11773913 L4.89343956,8.11773913 Z"></path>
                            <path d="M21.7572418,0.0503478261 L17.7691429,0.0503478261 C17.9321648,0.417652174 18.0292198,0.82226087 18.0292198,1.2513913 L18.0292198,8.11747826 C18.0292198,9.29347826 17.3468022,10.3066957 16.3696813,10.760087 L16.3696813,17.8098261 L21.2623626,17.8098261 L21.2623626,9.31852174 L21.756989,9.31852174 C22.3997253,9.31852174 22.9211429,8.78113043 22.9211429,8.11747826 L22.9211429,1.2513913 C22.9213956,0.588521739 22.3997253,0.0503478261 21.7572418,0.0503478261 L21.7572418,0.0503478261 Z"></path>
                        </g>
                    </g>
                </g>
                <g id="icon_2176" transform="translate(62.000000, 115.000000)" fill="#808080" sketch:type="MSShapeGroup">
                    <path d="M2.63178947,9.13309091 C2.63178947,9.21286364 2.61331579,9.28259091 2.57589474,9.34227273 C2.53863158,9.40210227 2.472,9.45218182 2.37584211,9.49206818 C2.28015789,9.53195455 2.15747368,9.56194318 2.00857895,9.58159091 C1.85905263,9.60168182 1.67257895,9.61157955 1.449,9.61157955 C1.22510526,9.61157955 1.03863158,9.60168182 0.889421053,9.58159091 C0.740210526,9.56179545 0.617842105,9.53180682 0.521684211,9.49206818 C0.426,9.45218182 0.359052632,9.40225 0.322105263,9.34227273 C0.284526316,9.28259091 0.266052632,9.21286364 0.266052632,9.13309091 L-0.00568421053,0.731397727 C-0.0162631579,0.611738636 -0.000473684211,0.507147727 0.0423157895,0.417477273 C0.0849473684,0.327806818 0.162157895,0.252909091 0.274105263,0.193079545 C0.386052632,0.13325 0.535105263,0.091 0.721578947,0.0660340909 C0.907894737,0.0412159091 1.15026316,0.0286590909 1.44884211,0.0286590909 C1.73636842,0.0286590909 1.97352632,0.0437272727 2.16031579,0.0734204545 C2.34663158,0.103409091 2.49584211,0.148318182 2.60778947,0.208147727 C2.71942105,0.267977273 2.79663158,0.340363636 2.83957895,0.425011364 C2.88189474,0.509806818 2.90336842,0.611886364 2.90336842,0.731545455 L2.63178947,9.13309091 L2.63178947,9.13309091 Z" id="Shape"></path>
                    <path d="M2.95926316,11.6175682 C2.95926316,12.2966705 2.28173684,12.8463636 1.44757895,12.8463636 C1.24910526,12.8463636 1.06105263,12.8154886 0.887210526,12.7590568 C0.644842105,12.8831477 0.429157895,12.9677955 0.140368421,13.0208295 C0.0541578947,13.037375 0.0198947368,13.03575 0.0123157895,13.0257045 C0.00378947368,13.0138864 0.0320526316,12.9908409 0.0571578947,12.9719318 C0.336789474,12.7677727 0.383526316,12.6608182 0.451105263,12.5410114 C0.135,12.3169091 -0.0644210526,11.986 -0.0644210526,11.6174205 C-0.0644210526,10.9383182 0.612,10.3877386 1.44757895,10.3877386 C2.28173684,10.3877386 2.95926316,10.9384659 2.95926316,11.6175682 L2.95926316,11.6175682 Z" id="Shape"></path>
                </g>
                <g id="icon_2176-2" transform="translate(60.000000, 129.000000)" fill="#FFFFFF" sketch:type="MSShapeGroup">
                    <path d="M2.63178947,9.13309091 C2.63178947,9.21286364 2.61331579,9.28259091 2.57589474,9.34227273 C2.53863158,9.40210227 2.472,9.45218182 2.37584211,9.49206818 C2.28015789,9.53195455 2.15747368,9.56194318 2.00857895,9.58159091 C1.85905263,9.60168182 1.67257895,9.61157955 1.449,9.61157955 C1.22510526,9.61157955 1.03863158,9.60168182 0.889421053,9.58159091 C0.740210526,9.56179545 0.617842105,9.53180682 0.521684211,9.49206818 C0.426,9.45218182 0.359052632,9.40225 0.322105263,9.34227273 C0.284526316,9.28259091 0.266052632,9.21286364 0.266052632,9.13309091 L-0.00568421053,0.731397727 C-0.0162631579,0.611738636 -0.000473684211,0.507147727 0.0423157895,0.417477273 C0.0849473684,0.327806818 0.162157895,0.252909091 0.274105263,0.193079545 C0.386052632,0.13325 0.535105263,0.091 0.721578947,0.0660340909 C0.907894737,0.0412159091 1.15026316,0.0286590909 1.44884211,0.0286590909 C1.73636842,0.0286590909 1.97352632,0.0437272727 2.16031579,0.0734204545 C2.34663158,0.103409091 2.49584211,0.148318182 2.60778947,0.208147727 C2.71942105,0.267977273 2.79663158,0.340363636 2.83957895,0.425011364 C2.88189474,0.509806818 2.90336842,0.611886364 2.90336842,0.731545455 L2.63178947,9.13309091 L2.63178947,9.13309091 Z" id="Shape"></path>
                    <path d="M2.95926316,11.6175682 C2.95926316,12.2966705 2.28173684,12.8463636 1.44757895,12.8463636 C1.24910526,12.8463636 1.06105263,12.8154886 0.887210526,12.7590568 C0.644842105,12.8831477 0.429157895,12.9677955 0.140368421,13.0208295 C0.0541578947,13.037375 0.0198947368,13.03575 0.0123157895,13.0257045 C0.00378947368,13.0138864 0.0320526316,12.9908409 0.0571578947,12.9719318 C0.336789474,12.7677727 0.383526316,12.6608182 0.451105263,12.5410114 C0.135,12.3169091 -0.0644210526,11.986 -0.0644210526,11.6174205 C-0.0644210526,10.9383182 0.612,10.3877386 1.44757895,10.3877386 C2.28173684,10.3877386 2.95926316,10.9384659 2.95926316,11.6175682 L2.95926316,11.6175682 Z" id="Shape"></path>
                </g>
                <g id="icon_29008" transform="translate(75.000000, 114.000000)" fill="#808080" sketch:type="MSShapeGroup">
                    <ellipse id="Oval" cx="1.96715789" cy="12.1975467" rx="1.96715789" ry="1.74421333"></ellipse>
                    <ellipse id="Oval" cx="1.96715789" cy="6.97088" rx="1.96715789" ry="1.74421333"></ellipse>
                    <ellipse id="Oval" cx="1.96715789" cy="1.74421333" rx="1.96715789" ry="1.74421333"></ellipse>
                </g>
                <g id="icon_29008-2" transform="translate(75.000000, 128.000000)" fill="#FFFFFF" sketch:type="MSShapeGroup">
                    <ellipse id="Oval" cx="1.96715789" cy="12.1975467" rx="1.96715789" ry="1.74421333"></ellipse>
                    <ellipse id="Oval" cx="1.96715789" cy="6.97088" rx="1.96715789" ry="1.74421333"></ellipse>
                    <ellipse id="Oval" cx="1.96715789" cy="1.74421333" rx="1.96715789" ry="1.74421333"></ellipse>
                </g>
                <g id="icon_29008-2" transform="translate(103.000000, 2.000000)" fill="#F0FAFF" sketch:type="MSShapeGroup">
                    <ellipse id="Oval" cx="2.95073684" cy="17.4250667" rx="2.95073684" ry="2.49173333"></ellipse>
                    <ellipse id="Oval" cx="2.95073684" cy="9.9584" rx="2.95073684" ry="2.49173333"></ellipse>
                    <ellipse id="Oval" cx="2.95073684" cy="2.49173333" rx="2.95073684" ry="2.49173333"></ellipse>
                </g>
            </g>
        </g>
    </g>
</svg>