<svg viewBox="0 0 29 22" xmlns="http://www.w3.org/2000/svg"><defs><linearGradient y1="0%" x2="0" y2="100%" id="0"><stop stop-color="#fff" offset="0%"/><stop stop-color="#e9f7fc" offset="100%"/></linearGradient></defs><g fill="none" fill-rule="evenodd"><path d="m24.17 4.163c1.017-.625 1.797-1.614 2.165-2.793-.951.579-2.01.999-3.127 1.225-.898-.981-2.178-1.594-3.594-1.594-2.719 0-4.924 2.261-4.924 5.05 0 .396.044.781.128 1.151-4.092-.211-7.72-2.221-10.149-5.275-.424.746-.667 1.613-.667 2.538 0 1.752.869 3.297 2.19 4.203-.807-.026-1.566-.253-2.23-.631-.001.021-.001.042-.001.063 0 2.446 1.697 4.487 3.95 4.951-.413.115-.848.177-1.297.177-.317 0-.626-.032-.926-.091.627 2.01 2.445 3.466 4.6 3.506-1.685 1.354-3.808 2.162-6.115 2.162-.397 0-.789-.024-1.175-.071 2.179 1.433 4.767 2.269 7.548 2.269 9.06 0 14.01-7.693 14.01-14.366 0-.219-.005-.437-.014-.653.962-.712 1.797-1.601 2.457-2.613-.883.402-1.832.673-2.828.795" fill="url(#0)"/></g></svg>