<?xml version="1.0" encoding="UTF-8"?>
<svg version="1.1" xmlns="http://www.w3.org/2000/svg" xmlns:xlink="http://www.w3.org/1999/xlink">
    <symbol id="icon-awork-logo" viewBox="0 0 24 24">
        <path d="M14.5,19.8c0.3-0.1,0.6,0.1,0.6,0.4v3.3c0,0.3-0.3,0.5-0.6,0.4L12,22.6l-2.5,1.3C9.3,24,9,23.8,9,23.5v-3.3c0-0.3,0.3-0.5,0.6-0.4l2.5,1.3L14.5,19.8z M12,0.1c0.9,0,1.6,0.7,1.6,1.6c0,0.6-0.4,1.2-0.9,1.4v2.2h3.1c3.3,0,6,2.7,6,6v1.6c0,3.3-2.7,6-6,6H8.2c-3.3,0-6-2.7-6-6v-1.6c0-3.3,2.7-6,6-6h3.1V3c-0.5-0.2-0.9-0.8-0.9-1.4C10.4,0.8,11.1,0.1,12,0.1z M15.8,8.5H8.2c-1.5,0-2.7,1.2-2.7,2.7v1.6c0,1.5,1.2,2.7,2.7,2.7h7.6c1.5,0,2.7-1.2,2.7-2.7v-1.6C18.5,9.7,17.3,8.5,15.8,8.5z M9,10.4c0.9,0,1.6,0.7,1.6,1.6c0,0.9-0.7,1.6-1.6,1.6c-0.9,0-1.6-0.7-1.6-1.6C7.5,11.1,8.2,10.4,9,10.4z M15,10.4c0.9,0,1.6,0.7,1.6,1.6c0,0.9-0.7,1.6-1.6,1.6s-1.6-0.7-1.6-1.6C13.4,11.1,14.1,10.4,15,10.4z" fill-rule="evenodd"/>
    </symbol>
</svg>