<?xml version="1.0" encoding="UTF-8" standalone="no"?>
<svg width="825px" height="221px" viewBox="0 0 825 221" version="1.1" xmlns="http://www.w3.org/2000/svg" xmlns:xlink="http://www.w3.org/1999/xlink" xmlns:sketch="http://www.bohemiancoding.com/sketch/ns">
    <!-- Generator: Sketch 3.1.1 (8761) - http://www.bohemiancoding.com/sketch -->
    <title>logo on dark</title>
    <desc>Created with Sketch.</desc>
    <defs></defs>
    <g id="Page-1" stroke="none" stroke-width="1" fill="none" fill-rule="evenodd" sketch:type="MSPage">
        <g id="on-dark" sketch:type="MSLayerGroup" transform="translate(412.500000, 110.500000) scale(1, -1) translate(-412.500000, -110.500000) ">
            <g id="g12" transform="translate(6.321125, 43.279375)" fill="#D9B42F" sketch:type="MSShapeGroup">
                <path d="M105,38.75 L0.05875,0.3475 L145.67375,17.5025 L105,38.75 L105,38.75 Z" id="path14"></path>
            </g>
            <g id="g16" transform="translate(31.321125, 49.529375)" fill="#FFE188" sketch:type="MSShapeGroup">
                <path d="M80,32.5 L93.85125,0.105 L-0.38,44.8725 L80,32.5 L80,32.5 Z" id="path18"></path>
            </g>
            <g id="g20" transform="translate(232.658750, 137.439750)" fill="#E83F00" sketch:type="MSShapeGroup">
                <path d="M22.5,21.25 L10.93375,16.625 L0.2525,-0.14375 L22.5,21.25 L22.5,21.25 Z" id="path22"></path>
            </g>
            <g id="g24" transform="translate(176.653250, 133.956250)" fill="#CD2015" sketch:type="MSShapeGroup">
                <path d="M56.25,20 L-0.56375,5.4825 L24.215,0.31875 L56.25,20 L56.25,20 Z" id="path26"></path>
            </g>
            <g id="g28" transform="translate(182.903250, 145.206250)" fill="#E83F00" sketch:type="MSShapeGroup">
                <path d="M50,8.75 L0.09125,6.16875 L15.135,-0.1425 L50,8.75 L50,8.75 Z" id="path30"></path>
            </g>
            <g id="g32" transform="translate(111.347125, 76.623000)" fill="#EA4F86" sketch:type="MSShapeGroup">
                <path d="M92.5,5 L112.4675,43.165 L124.26125,78.9525 L-0.02625,5.40625 L40.06375,-0.11 L92.5,5 L92.5,5 Z" id="path34"></path>
            </g>
            <g id="g36" transform="translate(111.229250, 82.059500)" fill="#00A2C9" sketch:type="MSShapeGroup">
                <path d="M35,103.75 L0.0925,-0.03 L21.22375,12.4625 L35,103.75 L35,103.75 Z" id="path38"></path>
            </g>
            <g id="g40" transform="translate(92.479250, 158.309500)" fill="#00A2C9" sketch:type="MSShapeGroup">
                <path d="M53.75,27.5 L-0.23875,62.21 L55.0725,-0.405 L53.75,27.5 L53.75,27.5 Z" id="path42"></path>
            </g>
            <g id="g44" transform="translate(82.021000, 147.289125)" fill="#5A8794" sketch:type="MSShapeGroup">
                <path d="M65,22.5 L-0.0775,42.60875 L65.7975,0.1225 L65,22.5 L65,22.5 Z" id="path46"></path>
            </g>
            <g id="g48" transform="translate(85.771000, 139.789125)" fill="#005971" sketch:type="MSShapeGroup">
                <path d="M61.25,30 L0.21625,-0.16125 L62.0475,7.6225 L61.25,30 L61.25,30 Z" id="path50"></path>
            </g>
            <g id="g52" transform="translate(223.892500, 119.980500)" fill="#CD2015" sketch:type="MSShapeGroup">
                <path d="M0,0 L29.29375,45.87625 L11.71625,35.595 L0,0 L0,0 Z" id="path54"></path>
            </g>
            <g id="g56" transform="translate(132.550750, 94.867250)" fill="#5EB2D1" sketch:type="MSShapeGroup">
                <path d="M17.5,10 L13.67875,90.9425 L-0.0975,-0.345 L17.5,10 L17.5,10 Z" id="path58"></path>
            </g>
            <g id="g60" transform="translate(181.155000, 81.965750)" fill="#F59B00" sketch:type="MSShapeGroup">
                <path d="M18.75,52.5 L29.26125,12.15875 L22.6925,-0.3425 L-0.28875,41.22625 L18.75,52.5 L18.75,52.5 Z" id="path62"></path>
            </g>
            <g id="g64" transform="translate(125.097125, 49.123000)" fill="#E83F00" sketch:type="MSShapeGroup">
                <path d="M78.75,32.5 L26.31375,27.39 L0.075,0.51125 L78.75,32.5 L78.75,32.5 Z" id="path66"></path>
            </g>
            <g id="g68" transform="translate(146.347125, 76.623000)" fill="#BAE2F5" sketch:type="MSShapeGroup">
                <path d="M57.5,5 L-0.1175,109.18625 L5.06375,-0.11 L57.5,5 L57.5,5 Z" id="path70"></path>
            </g>
            <g id="g72" transform="translate(96.300750, 57.367250)" fill="#F59B00" sketch:type="MSShapeGroup">
                <path d="M53.75,47.5 L55.11125,19.145 L0.38125,-0.1575 L15.02,24.6625 L53.75,47.5 L53.75,47.5 Z" id="path74"></path>
            </g>
            <g id="g76" transform="translate(0.071125, -0.470625)" fill="#FFD130" sketch:type="MSShapeGroup">
                <path d="M111.25,82.5 L151.34,76.9825 L125.10125,50.105 L0.17625,-0.495 L111.25,82.5 L111.25,82.5 Z" id="path78"></path>
            </g>
            <path d="M293.998,67.0325 L341.8405,136.03625 C343.6805,138.665 345.65175,140.505 345.65175,140.505 L345.65175,140.76875 C345.65175,140.76875 343.023,140.37375 340.39425,140.37375 L306.08925,140.37375 L306.08925,125.91625 L294.65425,125.91625 L294.65425,151.15125 L361.5555,151.15125 L361.5555,142.6075 L313.713,73.4725 C311.873,70.845 309.90175,69.00375 309.90175,69.00375 L309.90175,68.74125 C309.90175,68.74125 312.5305,69.13625 315.15925,69.13625 L351.4355,69.13625 L351.4355,84.12 L362.8705,84.12 L362.8705,58.35875 L293.998,58.35875 L293.998,67.0325 L293.998,67.0325 Z" id="path90" fill="#FFFFFF" sketch:type="MSShapeGroup"></path>
            <path d="M393.889375,66.638125 C405.193125,66.638125 412.159375,78.204375 412.159375,88.194375 L412.159375,90.954375 L408.873125,90.954375 C402.826875,90.954375 381.929375,90.690625 381.929375,77.941875 C381.929375,72.028125 386.265625,66.638125 393.889375,66.638125 M407.821875,99.234375 L412.028125,99.234375 L412.028125,101.731875 C412.028125,112.246875 405.981875,115.926875 397.833125,115.926875 C387.318125,115.926875 378.774375,109.486875 378.774375,109.486875 L373.648125,118.555625 C373.648125,118.555625 383.374375,126.441875 398.884375,126.441875 C415.839375,126.441875 424.776875,117.635625 424.776875,100.811875 L424.776875,71.106875 C424.776875,69.135625 425.829375,68.215625 427.668125,68.215625 L434.371875,68.215625 L434.371875,58.358125 L421.096875,58.358125 C415.181875,58.358125 412.816875,61.249375 412.816875,65.586875 L412.816875,66.508125 C412.816875,69.135625 413.341875,70.844375 413.341875,70.844375 L413.079375,70.844375 C413.079375,70.844375 407.295625,56.780625 391.129375,56.780625 C380.088125,56.780625 369.048125,63.221875 369.048125,76.890625 C369.048125,97.789375 396.780625,99.234375 407.821875,99.234375" id="path94" fill="#FFFFFF" sketch:type="MSShapeGroup"></path>
            <path d="M441.339375,68.215375 L451.723125,68.215375 L451.723125,112.246625 C451.723125,114.086625 450.671875,115.006625 448.830625,115.006625 L440.683125,115.006625 L440.683125,124.864125 L455.665625,124.864125 C461.316875,124.864125 464.076875,122.366625 464.076875,117.504125 L464.076875,114.086625 C464.076875,111.984125 463.683125,110.275375 463.683125,110.275375 L463.945625,110.275375 C467.231875,118.161625 476.826875,126.441625 487.604375,126.441625 C498.250625,126.441625 504.821875,121.577875 507.056875,110.800375 L507.319375,110.800375 C511.000625,119.081625 520.200625,126.441625 531.109375,126.441625 C545.830625,126.441625 552.796875,117.899125 552.796875,100.944125 L552.796875,68.215375 L563.310625,68.215375 L563.310625,58.357875 L540.046875,58.357875 L540.046875,98.184125 C540.046875,107.514125 538.339375,114.875375 528.349375,114.875375 C515.863125,114.875375 508.764375,102.126625 508.764375,88.982875 L508.764375,68.215375 L519.149375,68.215375 L519.149375,58.357875 L496.015625,58.357875 L496.015625,98.184125 C496.015625,106.857875 494.701875,114.875375 484.449375,114.875375 C471.833125,114.875375 464.471875,101.469125 464.471875,88.456625 L464.471875,68.215375 L474.986875,68.215375 L474.986875,58.357875 L441.339375,58.357875 L441.339375,68.215375 L441.339375,68.215375 Z" id="path98" fill="#FFFFFF" sketch:type="MSShapeGroup"></path>
            <path d="M562.26225,68.215375 L572.646,68.215375 L572.646,112.246625 C572.646,114.086625 571.59475,115.006625 569.75475,115.006625 L561.606,115.006625 L561.606,124.864125 L576.5885,124.864125 C582.23975,124.864125 584.99975,122.366625 584.99975,117.504125 L584.99975,114.086625 C584.99975,111.984125 584.606,110.275375 584.606,110.275375 L584.86975,110.275375 C588.156,118.161625 597.751,126.441625 608.5285,126.441625 C619.1735,126.441625 625.746,121.577875 627.97975,110.800375 L628.2435,110.800375 C631.9235,119.081625 641.1235,126.441625 652.03225,126.441625 C666.7535,126.441625 673.71975,117.899125 673.71975,100.944125 L673.71975,68.215375 L684.23475,68.215375 L684.23475,58.357875 L660.971,58.357875 L660.971,98.184125 C660.971,107.514125 659.26225,114.875375 649.27225,114.875375 C636.786,114.875375 629.6885,102.126625 629.6885,88.982875 L629.6885,68.215375 L640.07225,68.215375 L640.07225,58.357875 L616.93975,58.357875 L616.93975,98.184125 C616.93975,106.857875 615.62475,114.875375 605.3735,114.875375 C592.756,114.875375 585.39475,101.469125 585.39475,88.456625 L585.39475,68.215375 L595.90975,68.215375 L595.90975,58.357875 L562.26225,58.357875 L562.26225,68.215375 L562.26225,68.215375 Z" id="path102" fill="#FFFFFF" sketch:type="MSShapeGroup"></path>
            <path d="M713.943125,66.638125 C725.246875,66.638125 732.213125,78.204375 732.213125,88.194375 L732.213125,90.954375 L728.926875,90.954375 C722.880625,90.954375 701.983125,90.690625 701.983125,77.941875 C701.983125,72.028125 706.319375,66.638125 713.943125,66.638125 M727.875625,99.234375 L732.081875,99.234375 L732.081875,101.731875 C732.081875,112.246875 726.035625,115.926875 717.885625,115.926875 C707.371875,115.926875 698.828125,109.486875 698.828125,109.486875 L693.703125,118.555625 C693.703125,118.555625 703.428125,126.441875 718.938125,126.441875 C735.893125,126.441875 744.830625,117.635625 744.830625,100.811875 L744.830625,71.106875 C744.830625,69.135625 745.881875,68.215625 747.721875,68.215625 L754.425625,68.215625 L754.425625,58.358125 L741.150625,58.358125 C735.235625,58.358125 732.870625,61.249375 732.870625,65.586875 L732.870625,66.508125 C732.870625,69.135625 733.396875,70.844375 733.396875,70.844375 L733.133125,70.844375 C733.133125,70.844375 727.350625,56.780625 711.183125,56.780625 C700.143125,56.780625 689.101875,63.221875 689.101875,76.890625 C689.101875,97.789375 716.834375,99.234375 727.875625,99.234375" id="path106" fill="#FFFFFF" sketch:type="MSShapeGroup"></path>
            <path d="M784.525375,67.821 C794.382875,67.821 803.715375,74.91975 803.715375,91.47975 C803.715375,103.7035 797.536625,115.26975 784.919125,115.26975 C774.272875,115.26975 765.730375,106.726 765.730375,91.611 C765.730375,77.1535 773.484125,67.821 784.525375,67.821 M782.947875,126.441 C798.062875,126.441 803.452875,115.26975 803.452875,115.26975 L803.715375,115.26975 C803.715375,115.26975 803.320375,117.37225 803.320375,120.26475 L803.320375,141.2935 L792.279125,141.2935 L792.279125,151.15225 L816.069125,151.15225 L816.069125,71.10725 C816.069125,69.136 817.120375,68.21475 818.961625,68.21475 L825.664125,68.21475 L825.664125,58.3585 L812.389125,58.3585 C806.475375,58.3585 804.109125,61.24975 804.109125,65.58725 L804.109125,66.50725 C804.109125,68.741 804.502875,70.056 804.502875,70.056 L804.240375,70.056 C804.240375,70.056 798.851625,56.781 781.765375,56.781 C763.889125,56.781 752.717875,70.976 752.717875,91.611 C752.717875,112.77225 765.071625,126.441 782.947875,126.441" id="path110" fill="#FFFFFF" sketch:type="MSShapeGroup"></path>
        </g>
    </g>
</svg>