<?xml version="1.0" encoding="UTF-8"?><!DOCTYPE svg PUBLIC "-//W3C//DTD SVG 1.1//EN" "http://www.w3.org/Graphics/SVG/1.1/DTD/svg11.dtd"><svg xmlns="http://www.w3.org/2000/svg"><symbol id="icon-close" viewBox="0 0 13 13"><title>close</title><path d="M6.518 5.112L11.304.294c.387-.39 1.016-.392 1.406-.005.39.386.39 1.015.004 1.405l-4.79 4.823 4.785 4.785c.387.388.387 1.018 0 1.406-.39.387-1.02.387-1.407 0l-4.78-4.78-4.744 4.776c-.388.39-1.017.392-1.407.005-.39-.386-.39-1.015-.005-1.405l4.75-4.782L.29 1.697C-.096 1.31-.096.68.29.29c.39-.387 1.02-.387 1.407 0l4.82 4.822z" fill-rule="evenodd"/></symbol><symbol id="icon-cog" viewBox="0 0 20 20"><title>cog</title><path d="M20 11.09V8.814l-.322-.105-2.436-.796-.65-1.57 1.25-2.643-1.61-1.61-.302.156-2.286 1.16-1.568-.65L11.09 0H8.814l-.9 2.758-1.57.65L3.7 2.16 2.09 3.768l.154.304 1.158 2.284-.648 1.57L0 8.91v2.277l.32.104 2.438.798.65 1.568-1.25 2.645 1.61 1.61.3-.153 2.285-1.16 1.57.65L8.91 20h2.276l.105-.32.796-2.436 1.568-.65 2.645 1.248 1.608-1.608-.152-.302-1.16-2.284.65-1.57L20 11.09zm-10 2.098c-1.76 0-3.188-1.426-3.188-3.188 0-1.76 1.428-3.185 3.188-3.185 1.76 0 3.185 1.425 3.185 3.185 0 1.762-1.425 3.188-3.185 3.188z" fill-rule="evenodd"/></symbol><symbol id="icon-dashboard" viewBox="0 0 24 24"><title>dashboard</title><path d="M11.967 2c-5.523 0-10 4.477-10 10s4.477 10 10 10 10-4.477 10-10-4.477-10-10-10zm0 18.125c-1.38 0-2.5-1.12-2.5-2.5 0-.105 2.5-8.437 2.5-8.437s2.5 8.332 2.5 8.437c0 1.38-1.12 2.5-2.5 2.5zm6.372-4.17c.713-1.15 1.127-2.503 1.127-3.955 0-4.142-3.357-7.5-7.5-7.5-4.142 0-7.5 3.358-7.5 7.5 0 1.452.414 2.806 1.128 3.954l-1.016.73C3.717 15.33 3.216 13.725 3.216 12c0-4.832 3.918-8.75 8.75-8.75 4.833 0 8.75 3.918 8.75 8.75 0 1.724-.5 3.33-1.362 4.685l-1.016-.73z" fill-rule="evenodd"/></symbol><symbol id="icon-group" viewBox="0 0 24 24"><title>group</title><path d="M5.22 5.43c1.454 0 2.632-1.215 2.632-2.715C7.852 1.215 6.674 0 5.222 0 3.767 0 2.59 1.216 2.59 2.715c0 1.5 1.176 2.715 2.63 2.715zm6.98 0c1.454 0 2.632-1.215 2.632-2.715 0-1.5-1.178-2.715-2.63-2.715C10.747 0 9.57 1.216 9.57 2.715c0 1.5 1.178 2.716 2.63 2.716zm5.983 0c1.453 0 2.63-1.215 2.63-2.715 0-1.5-1.177-2.715-2.63-2.715-1.453 0-2.63 1.216-2.63 2.715 0 1.5 1.177 2.716 2.63 2.716zm-2.408.863H8.273c-.64 0-1.16.536-1.16 1.197v6.846c0 .662.52 1.197 1.16 1.197h.357V24h6.65v-8.467h.495c.64 0 1.16-.535 1.16-1.197V7.49c0-.66-.52-1.197-1.16-1.197zm-10.3 8.043V7.49c0-.428.097-.83.26-1.197H1.86C1.22 6.293.7 6.83.7 7.49v6.846c0 .662.52 1.198 1.16 1.198h.358V24h4.775v-7.097c-.9-.48-1.518-1.45-1.518-2.567zM22.29 6.293h-3.977c.163.366.26.77.26 1.197v6.846c0 1.172-.68 2.183-1.655 2.635V24h4.878v-8.467h.493c.64 0 1.16-.535 1.16-1.197V7.49c0-.66-.52-1.197-1.16-1.197z" fill-rule="evenodd"/></symbol><symbol id="icon-logo" viewBox="0 0 42 36"><title>logo</title><g fill="none" fill-rule="evenodd"><path d="M18.343 22.36L1.976 28.327l22.71-2.664-6.343-3.3" id="Shape" fill="#D9B42F"/><path d="M18.418 22.34l2.16 5.03L5.88 20.414l12.537 1.922" id="Shape" fill="#FFE188"/><path d="M41.566 9.722l-1.804.718-1.666 2.605 3.47-3.323" id="Shape" fill="#E83F00"/><path d="M37.19 10.694l-8.86 2.256 3.864.8 4.996-3.056" id="Shape" fill="#CD1F14"/><path d="M38.07 10.694l-7.784.4 2.347.982 5.437-1.382" id="Shape" fill="#E83F00"/><path d="M33 22.18l3.114-5.93 1.84-5.558-19.385 11.425 6.25.857L33 22.18" id="Shape" fill="#EB4F86"/><g id="Shape" fill="#00A2C9"><path d="M24.02 5.833l-5.444 16.12 3.296-1.94 2.15-14.18"/><path d="M24.06 5.392L15.64 0l8.626 9.726-.206-4.334"/></g><path d="M23.84 7.984L13.69 4.86l10.275 6.6-.124-3.477" id="Shape" fill="#5A8794"/><path d="M24.19 8.75l-9.52 4.685 9.644-1.208-.124-3.477" id="Shape" fill="#005971"/><path d="M36.14 15.875l4.57-7.125-2.742 1.596-1.827 5.53" id="Shape" fill="#CD1F14"/><path d="M25.22 18.406l-.596-12.573-2.15 14.18 2.746-1.607" id="Shape" fill="#5EB2D1"/><path d="M32.28 13.61l1.64 6.267-1.025 1.943-3.585-6.457 2.97-1.752" id="Shape" fill="#F69B00"/><path d="M32.795 22.36l-8.18.794-4.09 4.176 12.27-4.97" id="Shape" fill="#E83F00"/><path d="M33.415 22.02L24.428 5.836l.808 16.977 8.18-.793" id="Shape" fill="#BAE2F6"/><path d="M24.943 18.472l.212 4.404-8.536 2.998L18.9 22.02l6.04-3.55" id="Shape" fill="#F69B00"/><path d="M18.323 22.36l6.252.858-4.092 4.176L1 35.254 18.32 22.36" fill="#FFD130"/></g></symbol><symbol id="icon-magnifier" viewBox="0 0 15 15"><title>magnifier</title><path d="M5.92 10.382c-2.444-.016-4.42-2.016-4.404-4.46.018-2.428 2.002-4.405 4.43-4.405h.03c1.182.007 2.29.477 3.12 1.32.832.84 1.286 1.958 1.28 3.142-.01 1.176-.473 2.285-1.31 3.114-.833.83-1.943 1.288-3.117 1.288h-.03M5.983 0h-.038C2.68 0 .022 2.638 0 5.912-.018 9.198 2.623 11.88 5.907 11.9h.042c1.088 0 2.112-.295 2.99-.81l3.613 3.617.092.088c.137.137.315.205.494.205.178 0 .357-.068.493-.205l1.164-1.162c.272-.274.272-.718 0-.99l-.09-.093-3.62-3.62c.506-.866.796-1.868.803-2.942C11.914 2.7 9.267.022 5.983 0" fill-rule="evenodd"/></symbol><symbol id="icon-message" viewBox="0 0 24 24"><title>message</title><path d="M20.098 3.035c-.184-.02-.37-.034-.554-.034-5.36 0-10.717 0-16.077.003-.248 0-.497.032-.743.074-.383.063-.6.318-.662.704-.038.233-.06.473-.06.71C2 8.132 2 11.776 2.003 15.42c0 .105 0 .21.007.314.046.813.33 1.11 1.123 1.124 1.054.02 2.067.016 3.12.022.223.002.66 0 .66 0v.354c0 1.34.042 2.682.046 4.025 0 .256-.056.57.246.704.295.13.49-.124.675-.3 1.637-1.53 3.277-3.058 4.906-4.596.15-.14.3-.19.497-.19 2 .004 4 .004 5.997.002.25 0 .503-.01.75-.033.594-.053.843-.294.93-.896.024-.186.038-.378.038-.567.002-3.586.003-7.173 0-10.76-.002-.254-.02-.513-.057-.765-.073-.517-.333-.768-.842-.823zM5 8c0 .552.446 1 .998 1h7.004c.55 0 .998-.444.998-1 0-.552-.446-1-.998-1H5.998C5.448 7 5 7.444 5 8zm0 4c0 .552.447 1 1 1h11c.553 0 1-.444 1-1 0-.552-.447-1-1-1H6c-.553 0-1 .444-1 1z" fill-rule="evenodd"/></symbol><symbol id="icon-overviews" viewBox="0 0 24 24"><title>overviews</title><path d="M10 6h10c1.308 0 2-.895 2-2s-.692-2-2-2H10c-1.307 0-2 .895-2 2s.693 2 2 2zm10 3H10c-1.307 0-2 .897-2 2 0 1.105.693 2 2 2h10c1.308 0 2-.895 2-2 0-1.103-.692-2-2-2zm0 8H10c-1.307 0-2 .897-2 2 0 1.104.693 2 2 2h10c1.308 0 2-.896 2-2 0-1.103-.692-2-2-2zM4 2c-1.325 0-2 .895-2 2s.675 2 2 2 2-.895 2-2-.675-2-2-2zm0 7c-1.325 0-2 .897-2 2 0 1.105.675 2 2 2s2-.895 2-2c0-1.103-.675-2-2-2zm0 8c-1.325 0-2 .897-2 2 0 1.104.675 2 2 2s2-.896 2-2c0-1.103-.675-2-2-2z" fill-rule="evenodd"/></symbol><symbol id="icon-person" viewBox="0 0 24 24"><title>person</title><path d="M12.163 5.43c1.453 0 2.63-1.215 2.63-2.715 0-1.5-1.177-2.715-2.63-2.715-1.453 0-2.63 1.216-2.63 2.715 0 1.5 1.177 2.716 2.63 2.716zm3.574.863H8.235c-.64 0-1.16.536-1.16 1.197v6.846c0 .662.52 1.198 1.16 1.198h.357V24h6.65v-8.466h.495c.64 0 1.16-.536 1.16-1.198V7.49c0-.66-.52-1.197-1.16-1.197z" fill-rule="evenodd"/></symbol><symbol id="icon-plus" viewBox="0 0 17 17"><title>plus</title><path d="M10 1V0H7v7H0v3h7v7h3v-7h7V7h-7V1z" fill-rule="evenodd"/></symbol><symbol id="icon-signout" viewBox="0 0 15 19"><title>signout</title><path d="M5.376 15L12 9.5 5.376 4v3.59H0v3.82h5.376V15zM4 1.542h9.452V17.46H4V19h11V0H4v1.542z" fill="#0F94D7" fill-rule="evenodd"/></symbol><symbol id="icon-switchView" viewBox="0 0 19 18"><title>switchView</title><path d="M9.75 7.595c-.6 0-1.1.5-1.1 1.1 0 .6.5 1.1 1.1 1.1.6 0 1.1-.5 1.1-1.1.1-.5-.4-1.1-1.1-1.1zm0-2.1c-3 0-6.1 3.3-6.1 3.3s3 3.3 6.1 3.3c3 0 6.1-3.3 6.1-3.3s-3-3.3-6.1-3.3zm0 5.6c-1.3 0-2.3-1-2.3-2.3 0-1.3 1-2.3 2.3-2.3 1.3 0 2.3 1 2.3 2.3.1 1.3-1 2.3-2.3 2.3zm-3.5-9.2c1.6-.802 3.4-1.002 5.3-.602l.3-1c-4.9-1.2-9.2 1.4-10.7 5.7-.8 2.302-.8 4.603.2 6.703l.5.8-2.1.6 4.5 3.2.4-4.9v-.6l-1.9 1.4-.3-.8c-.9-1.9-1-4-.3-6 .7-2.002 2.2-3.602 4.1-4.502zm10.9 2.4l2.1-.5-4.5-3.202-.4 5.502 2-1.5.5.9c1 1.9 1.2 4.1.5 6.1s-2 3.702-3.9 4.602c-1.6.8-3.9.8-4.9.7l-.3 1c3.9.8 8.7-1.6 10.2-5.9.8-2.302.5-4.702-.6-6.903l-.7-.8z" fill="#FFF" fill-rule="evenodd"/></symbol><symbol id="icon-templates" viewBox="0 0 24 24"><title>templates</title><path d="M2.995 1C2.445 1 2 1.44 2 2.002v19.996C2 22.55 2.45 23 2.995 23h17.01c.55 0 .995-.44.995-1.002V2.002C21 1.45 20.55 1 20.005 1H2.995zm3.003 4C5.448 5 5 5.444 5 6c0 .552.446 1 .998 1h7.004c.55 0 .998-.444.998-1 0-.552-.446-1-.998-1H5.998zM6 9c-.552 0-1 .444-1 1 0 .552.448 1 1 1h11.027c.553 0 1-.444 1-1 0-.552-.447-1-1-1H6zm0 4c-.552 0-1 .444-1 1 0 .552.448 1 1 1h11.027c.553 0 1-.444 1-1 0-.552-.447-1-1-1H6zm0 4c-.552 0-1 .444-1 1 0 .552.448 1 1 1h11.027c.553 0 1-.444 1-1 0-.552-.447-1-1-1H6z" fill-rule="evenodd"/></symbol><symbol id="icon-tools" viewBox="0 0 24 24"><title>tools</title><path d="M12 21.992c1.63 0 2.95-1.116 2.95-2.492s-1.32-2.492-2.95-2.492c-1.63 0-2.95 1.116-2.95 2.492s1.32 2.492 2.95 2.492zm0-8c1.63 0 2.95-1.116 2.95-2.492S13.63 9.008 12 9.008c-1.63 0-2.95 1.116-2.95 2.492s1.32 2.492 2.95 2.492zm0-7c1.63 0 2.95-1.116 2.95-2.492S13.63 2.008 12 2.008c-1.63 0-2.95 1.116-2.95 2.492S10.37 6.992 12 6.992z" fill-rule="evenodd"/></symbol></svg>