<?xml version="1.0" encoding="UTF-8"?><!DOCTYPE svg PUBLIC "-//W3C//DTD SVG 1.1//EN" "http://www.w3.org/Graphics/SVG/1.1/DTD/svg11.dtd"><svg xmlns="http://www.w3.org/2000/svg" xmlns:xlink="http://www.w3.org/1999/xlink"><defs>
        <path d="M10 0v1h2V0h12v31H0V0h10z" id="a"/>
    </defs><symbol id="icon-archived-modifier" viewBox="0 0 9 9">
    <title>
        archived-modifier
    </title>
    <g fill-rule="evenodd">
        <path d="M9 2H1v7h8z"/>
        <path d="M2.25 3h6.5a.25.25 0 0 1 .25.25v.5a.25.25 0 0 1-.25.25h-6.5A.25.25 0 0 1 2 3.75v-.5A.25.25 0 0 1 2.25 3zm0 1.5h6.5V9h-6.5V4.5zM5.5 6a.5.5 0 1 0 0-1 .5.5 0 0 0 0 1z" fill="currentColor"/>
    </g>
</symbol><symbol id="icon-arrow-down" viewBox="0 0 13 7">
    <title>
        arrow-down
    </title>
    <path d="M2.246 0L.85 1.424 6.54 7l5.583-5.583-1.41-1.41L6.54 4.201z" fill-rule="evenodd"/>
</symbol><symbol id="icon-arrow-left" viewBox="0 0 7 13">
    <title>
        arrow-left
    </title>
    <path d="M7 2.246L5.576.85 0 6.54l5.583 5.583 1.41-1.41L2.898 6.54z" fill-rule="evenodd"/>
</symbol><symbol id="icon-arrow-right" viewBox="0 0 7 13">
    <title>
        arrow-right
    </title>
    <path d="M0 10.727l1.424 1.396L7 6.433 1.417.85.007 2.26l4.194 4.173z" fill-rule="evenodd"/>
</symbol><symbol id="icon-arrow-up" viewBox="0 0 13 7">
    <title>
        arrow-up
    </title>
    <path d="M10.727 7l1.396-1.424L6.433 0 .85 5.583l1.41 1.41 4.173-4.095z" fill-rule="evenodd"/>
</symbol><symbol id="icon-bold" viewBox="0 0 12 12">
    <title>
        bold
    </title>
    <path d="M7.406 5.703c1.143.217 2.286.753 2.286 2.417 0 2.2-1.75 2.88-4.182 2.88H2.5V1h2.62c2.575 0 4.138.724 4.138 2.547 0 1.245-.897 1.954-1.852 2.156zm-2.102-3.3h-.897V5.11H5.58c1.042 0 1.722-.463 1.722-1.404 0-1.013-.694-1.302-1.997-1.302zm.22 7.164c1.26 0 2.171-.26 2.171-1.52 0-1.2-.853-1.606-1.968-1.606H4.41v3.126h1.115z" fill-rule="evenodd"/>
</symbol><symbol id="icon-chain" viewBox="0 0 16 16">
    <title>
        chain
    </title>
    <g transform="rotate(-45 5.615 2.326)" fill-rule="evenodd">
        <path d="M2 0h2.575a2 2 0 0 1 2 2v3.452a2 2 0 0 1-2 2H2a2 2 0 0 1-2-2V2a2 2 0 0 1 2-2zm0 8.548h2.575a2 2 0 0 1 2 2V14a2 2 0 0 1-2 2H2a2 2 0 0 1-2-2v-3.452a2 2 0 0 1 2-2zm.534-6.795a1 1 0 0 0-1 1V4.7a1 1 0 0 0 1 1h1.507a1 1 0 0 0 1-1V2.753a1 1 0 0 0-1-1H2.534zm0 8.548a1 1 0 0 0-1 1v1.946a1 1 0 0 0 1 1h1.507a1 1 0 0 0 1-1V11.3a1 1 0 0 0-1-1H2.534z"/>
        <rect x="2.411" y="4.384" width="1.753" height="7.233" rx=".877"/>
    </g>
</symbol><symbol id="icon-chat" viewBox="0 0 24 24">
    <title>
        chat
    </title>
    <path d="M2 5.006C2 3.898 2.898 3 3.99 3h16.02C21.108 3 22 3.897 22 5.006v9.988A2.003 2.003 0 0 1 20.01 17H3.99C2.892 17 2 16.103 2 14.994V5.006zM12 17l6 4v-4h-6z" fill-rule="evenodd"/>
</symbol><symbol id="icon-checkbox-checked" viewBox="0 0 11 11">
    <title>
        checkbox-checked
    </title>
    <g fill-rule="evenodd">
        <path d="M11 0H0v11h11z"/>
        <path d="M0 0V11H11V0H0zm10 1v9H1V1h9z" fill="currentColor"/>
        <path d="M4.273 6.768L2.238 4.972 1.4 5.81 4.872 10C5.47 8.204 7.386 4.732 9.66 2.218L9.42 1.5c-2.514 1.796-4.43 4.07-5.148 5.268z" fill="#000"/>
    </g>
</symbol><symbol id="icon-checkbox-indeterminate" viewBox="0 0 11 11">
    <title>
        checkbox-indeterminate
    </title>
    <g fill-rule="evenodd">
        <path d="M11 0H0v11h11z"/>
        <path d="M0 0H11V11H0V0zm10 1H1v9h9V1z" fill="currentColor"/>
        <path fill="#000" d="M3 5h5v1H3z"/>
    </g>
</symbol><symbol id="icon-checkbox" viewBox="0 0 11 11">
    <title>
        checkbox
    </title>
    <g fill-rule="evenodd">
        <path d="M11 0H0v11h11z"/>
        <path d="M11 0H0v11h11V0zM1 1h9v9H1V1z" fill="currentColor"/>
    </g>
</symbol><symbol id="icon-checkmark" viewBox="0 0 16 14">
    <title>
        checkmark
    </title>
    <path d="M15.863 1.596V0S9.95 2.607 5.368 8.722c0 0-2.134-2.305-3.352-2.875C.798 5.277 0 7.235 0 7.235s3.029 2.818 6.477 6.602c3.81-8.136 9.386-12.241 9.386-12.241z" fill-rule="evenodd"/>
</symbol><symbol id="icon-clipboard" viewBox="0 0 16 16">
    <title>
        clipboard
    </title>
    <path d="M5 3V1.501C5 1.22 5.223 1 5.497 1h8.006c.272 0 .497.224.497.501V11.5a.496.496 0 0 1-.497.501H12v-2h.462c.297 0 .538-.222.538-.5 0-.276-.241-.5-.538-.5H12V8h.462c.297 0 .538-.222.538-.5 0-.276-.241-.5-.538-.5H12V6h.462c.297 0 .538-.222.538-.5 0-.276-.241-.5-.538-.5H12V3.501A.501.501 0 0 0 11.503 3H5zM2 4.501V14.5c0 .277.225.501.497.501h8.006c.274 0 .497-.22.497-.501V4.5A.501.501 0 0 0 10.503 4H2.497A.496.496 0 0 0 2 4.501zM3.554 6C3.248 6 3 6.222 3 6.5c0 .276.248.5.554.5h3.892C7.752 7 8 6.778 8 6.5c0-.276-.248-.5-.554-.5H3.554zm-.016 2C3.24 8 3 8.222 3 8.5c0 .276.241.5.538.5h5.924C9.76 9 10 8.778 10 8.5c0-.276-.241-.5-.538-.5H3.538zm0 2c-.297 0-.538.222-.538.5 0 .276.241.5.538.5h5.924c.297 0 .538-.222.538-.5 0-.276-.241-.5-.538-.5H3.538zm0 2c-.297 0-.538.222-.538.5 0 .276.241.5.538.5h5.924c.297 0 .538-.222.538-.5 0-.276-.241-.5-.538-.5H3.538z" fill-rule="evenodd"/>
</symbol><symbol id="icon-clock" viewBox="0 0 16 16">
    <title>
        clock
    </title>
    <g fill-rule="evenodd">
        <path d="M7.5 14a6.5 6.5 0 1 1 0-13 6.5 6.5 0 0 1 0 13zm0-.929a5.571 5.571 0 1 0 0-11.142 5.571 5.571 0 0 0 0 11.142z"/>
        <path d="M8 7.329V3.516a.5.5 0 1 0-1 0v4.022a.5.5 0 0 0 .149.356l3.01 2.967a.5.5 0 0 0 .701-.712L8 7.329z" fill-rule="nonzero"/>
    </g>
</symbol><symbol id="icon-cloud" viewBox="0 0 16 16">
    <title>
        cloud
    </title>
    <path d="M12.845 7.026A3.854 3.854 0 0 0 8.994 3a3.855 3.855 0 0 0-3.489 2.212 2.102 2.102 0 0 0-1.224-.39c-1.14 0-2.063.894-2.063 1.996 0 .163.02.322.059.474C.977 7.57 0 8.745 0 10.154 0 11.77 1.282 13 2.865 13h9.394C13.773 13 15 11.707 15 10.017c0-1.466-.923-2.69-2.155-2.99z" fill-rule="evenodd"/>
</symbol><symbol id="icon-cog" viewBox="0 0 20 20">
    <title>
        cog
    </title>
    <path d="M19.745 12.23l-1.09-1.015a1.463 1.463 0 0 1-.463-1.023l-.002-.018.001-.062c.01-.405.191-.791.497-1.06l1.121-.981a.555.555 0 0 0 .15-.622l-.957-2.415a.55.55 0 0 0-.535-.349l-1.487.053a1.466 1.466 0 0 1-1.097-.439l-.03-.032a1.465 1.465 0 0 1-.38-1.081l.099-1.486a.555.555 0 0 0-.333-.547L12.854.123a.555.555 0 0 0-.626.13l-1.014 1.09a1.459 1.459 0 0 1-2.163-.033L8.07.19a.552.552 0 0 0-.62-.15L5.032.996a.555.555 0 0 0-.349.535l.053 1.486c.015.401-.138.795-.422 1.081l-.02.02a1.46 1.46 0 0 1-1.11.407l-1.487-.098a.555.555 0 0 0-.545.333L.123 7.145a.554.554 0 0 0 .13.625l1.09 1.016c.289.268.458.648.464 1.056l-.001.077c-.018.395-.2.77-.496 1.029l-1.121.98a.556.556 0 0 0-.15.622l.957 2.416a.55.55 0 0 0 .535.349l1.487-.053a1.464 1.464 0 0 1 1.11.452l.038.042c.254.288.385.674.36 1.058l-.1 1.487a.556.556 0 0 0 .334.545l2.384 1.031c.215.093.466.04.626-.13l1.01-1.084c.272-.294.659-.465 1.073-.47h.029a1.45 1.45 0 0 1 1.06.49l.987 1.128a.555.555 0 0 0 .62.15l2.416-.958a.554.554 0 0 0 .35-.534l-.054-1.49a1.464 1.464 0 0 1 .391-1.046l.012-.015.05-.046c.293-.28.694-.425 1.1-.398l1.486.098a.556.556 0 0 0 .546-.333l1.03-2.384a.556.556 0 0 0-.13-.626zm-10.93.508a2.986 2.986 0 0 1-1.554-3.922 2.987 2.987 0 0 1 3.922-1.555 2.987 2.987 0 0 1 1.554 3.922 2.986 2.986 0 0 1-3.921 1.555z" fill-rule="evenodd"/>
</symbol><symbol id="icon-crown" viewBox="0 0 62 27">
    <title>
        crown
    </title>
    <path d="M59.01 5.211V27h-56V5.213h-.003a2.172 2.172 0 1 1 1.134-.319l12.87 10.18L29.879 4.895A2.17 2.17 0 0 1 31.01.87a2.172 2.172 0 0 1 1.132 4.026l12.868 10.18L57.838 4.927a2.171 2.171 0 1 1 1.173.283z" fill="#FFD22E" fill-rule="evenodd"/>
</symbol><symbol id="icon-danger" viewBox="0 0 16 16">
    <title>
        danger
    </title>
    <path d="M9.743 2.099l5.58 9.92A2 2 0 0 1 13.58 15H2.42a2 2 0 0 1-1.743-2.98l5.58-9.921a2 2 0 0 1 3.486 0zM7.976 4a.954.954 0 0 0-.96.99l.155 4.02c.02.546.487.99 1.03.99h-.403c.548 0 1.01-.451 1.031-.99l.155-4.02a.954.954 0 0 0-.96-.99h-.048zM8 13a1 1 0 1 0 0-2 1 1 0 0 0 0 2z" fill-rule="evenodd"/>
</symbol><symbol id="icon-dashboard" viewBox="0 0 24 24">
    <title>
        dashboard
    </title>
    <path d="M11.967 2c-5.523 0-10 4.477-10 10s4.477 10 10 10 10-4.477 10-10-4.477-10-10-10zm-2.143 9.17c.067-.09 7.54-5.784 7.54-5.784s-3.105 8.867-3.171 8.959a2.7 2.7 0 0 1-4.369-3.174zm9.643.83a7.5 7.5 0 1 0-13.872 3.954l-1.016.731a8.75 8.75 0 1 1 14.777 0l-1.017-.73A7.46 7.46 0 0 0 19.467 12z" fill-rule="evenodd"/>
</symbol><symbol id="icon-diagonal-cross" viewBox="0 0 13 13">
    <title>
        diagonal-cross
    </title>
    <path d="M12.666.289a.994.994 0 0 1 .005 1.405L7.882 6.517l4.784 4.783a.994.994 0 0 1-1.406 1.406L6.482 7.927l-4.743 4.776a.994.994 0 0 1-1.41-1.4l4.747-4.781L.251 1.697A.994.994 0 0 1 1.657.29l4.82 4.82L11.26.294a.994.994 0 0 1 1.405-.005z" fill-rule="evenodd"/>
</symbol><symbol id="icon-document" viewBox="0 0 16 16">
    <title>
        document
    </title>
    <path d="M2 1.638A.63.63 0 0 1 2.628 1h10.744c.343 0 .628.286.628.638v12.724a.63.63 0 0 1-.628.638H2.628A.635.635 0 0 1 2 14.362V1.638zM4.665 3C4.298 3 4 3.222 4 3.5c0 .276.298.5.665.5h4.67c.367 0 .665-.222.665-.5 0-.276-.298-.5-.665-.5h-4.67zm-.05 3C4.274 6 4 6.222 4 6.5c0 .276.275.5.614.5h6.772c.339 0 .614-.222.614-.5 0-.276-.275-.5-.614-.5H4.614zm0 3C4.274 9 4 9.222 4 9.5c0 .276.275.5.614.5h6.772c.339 0 .614-.222.614-.5 0-.276-.275-.5-.614-.5H4.614zm0 3c-.34 0-.615.222-.615.5 0 .276.275.5.614.5h6.772c.339 0 .614-.222.614-.5 0-.276-.275-.5-.614-.5H4.614z" fill-rule="evenodd"/>
</symbol><symbol id="icon-download" viewBox="0 0 14 13">
    <title>
        download
    </title>
    <path d="M4 0v6h6V0H4zm10 6H0l7 7 7-7z" fill-rule="evenodd"/>
</symbol><symbol id="icon-draft-modifier" viewBox="0 0 9 9">
    <title>
        draft-modifier
    </title>
    <g fill-rule="evenodd">
        <path d="M5.325 0L2 5.975l.014 3.009H5.5L9 2.979V0z"/>
        <path d="M6.978 1.058c-.206-.142-.477-.074-.606.152l-.322.56 1.56 1.073.322-.56a.509.509 0 0 0-.138-.664l-.816-.561zM4.834 7.685l2.543-4.434-1.561-1.074-2.543 4.435 1.561 1.073zM3 8.984l.815-.472.756-.438-1.505-1.036-.032.938L3 8.984z" fill="currentColor"/>
    </g>
</symbol><symbol id="icon-draggable" viewBox="0 0 16 16">
    <title>
        draggable
    </title>
    <g fill-rule="evenodd">
        <path d="M0 5h16v1H0zM0 1h16v1H0zM0 9h16v1H0zM0 13h16v1H0z"/>
    </g>
</symbol><symbol id="icon-dropdown-list" viewBox="0 0 19 14">
    <title>
        dropdown-list
    </title>
    <path d="M0 0h19v2H0V0zm0 4h19v2H0V4zm0 4h19v2H0V8zm0 4h19v2H0v-2z" fill-rule="evenodd"/>
</symbol><symbol id="icon-email-button" viewBox="0 0 29 24">
    <title>
        email-button
    </title>
    <path d="M3.692 5h21.614l-10.811 9.279L3.692 5zM26 6.554V20H3V6.555l10.97 9.423.526.452.527-.452L26 6.554z" fill="#FFF" fill-rule="evenodd"/>
</symbol><symbol id="icon-email" viewBox="0 0 17 17">
    <title>
        email
    </title>
    <path d="M17 3.34L8.489 8.797 0 3.34V3h17v.34zm0 1.443V14H0V4.784l8.497 5.598L17 4.783z" fill-rule="evenodd"/>
</symbol><symbol id="icon-external" viewBox="0 0 16 16">
    <title>
        external
    </title>
    <g fill-rule="evenodd">
        <path d="M14 10v4H2V2h4v2H4v8h8v-2h2zm0-3h-2V4H9V2h5v5z" fill-rule="nonzero"/>
        <path d="M11.594 3l1.414 1.414-4.95 4.95L6.644 7.95z"/>
    </g>
</symbol><symbol id="icon-eye" viewBox="0 0 16 16">
    <title>
        eye
    </title>
    <path d="M8 4.21c3.557 0 7 3.788 7 3.788s-3.557 3.788-7 3.788c-3.557 0-7-3.788-7-3.788S4.557 4.21 8 4.21zm0 6.428c1.492 0 2.754-1.148 2.64-2.64 0-1.492-1.148-2.64-2.64-2.64-1.492 0-2.64 1.148-2.64 2.64 0 1.492 1.148 2.64 2.64 2.64zM8 6.62c.803 0 1.377.69 1.262 1.263 0 .689-.573 1.263-1.262 1.263a1.274 1.274 0 0 1-1.262-1.263c0-.689.573-1.263 1.262-1.263z" fill-rule="evenodd"/>
</symbol><symbol id="icon-eyedropper" viewBox="0 0 17 17">
    <title>
        eyedropper
    </title>
    <path d="M10.57 4.007l-.612-.601a.455.455 0 0 0-.643 0L7.497 5.224a.455.455 0 0 0 0 .643l.6.627-6.055 6.003a.455.455 0 0 0-.133.321v.707l-.776.79a.454.454 0 0 0 0 .643l.91.909a.455.455 0 0 0 .642 0l.767-.776h.73c.12 0 .236-.048.321-.133l1.045-1.045a813.188 813.188 0 0 0 4.954-5.03l.631.62a.455.455 0 0 0 .643 0l1.818-1.818a.455.455 0 0 0 0-.643l-.582-.548 2.855-2.9a.455.455 0 0 0 0-.643l-1.818-1.818a.455.455 0 0 0-.643 0L10.57 4.007zm-.346 3.944l-6.264 6.23h-.687a.455.455 0 0 0-.322.134l-.637.644-.272-.304.643-.606a.455.455 0 0 0 .133-.322v-.714l6.23-6.237 1.176 1.175z" fill-rule="evenodd"/>
</symbol><symbol id="icon-facebook-button" viewBox="0 0 29 24">
    <title>
        facebook-button
    </title>
    <g fill="none" fill-rule="evenodd">
        <path fill="#778EBA" d="M0 18h29v5H0z"/>
        <path d="M18 23V13h-3V9h3V4.91C18 2.825 19.546 1 22 1h5v3.808h-3.863c-1.07 0-1.137.025-1.137 1.02V9h3.5l-.5 4h-3v10h-4z" fill="#FFF"/>
    </g>
</symbol><symbol id="icon-facebook" viewBox="0 0 17 17">
    <title>
        facebook
    </title>
    <path d="M1.805 1A.794.794 0 0 0 1 1.805v13.39c0 .503.403.805.805.805h7.249v-5.839H7.04V7.846h2.014V6.134c0-1.913 1.208-3.02 2.92-3.02.805 0 1.51.1 1.71.1v2.014h-1.207c-.907 0-1.108.403-1.108 1.108v1.409h2.215l-.302 2.315h-1.913V16h3.826a.794.794 0 0 0 .805-.806V1.704c0-.301-.403-.704-.805-.704H1.805z" fill-rule="evenodd"/>
</symbol><symbol id="icon-file-archive" viewBox="0 0 24 31">
    <title>
        file-archive
    </title>
    
    <g fill="none" fill-rule="evenodd">
        <mask id="b" fill="#fff">
            <use xlink:href="#a"/>
        </mask>
        <g mask="url(#b)" fill="#DFE5E8" fill-rule="nonzero">
            <path d="M2 1a1 1 0 0 0-1 1v27a1 1 0 0 0 1 1h20a1 1 0 0 0 1-1V2a1 1 0 0 0-1-1H2zm0-1h20a2 2 0 0 1 2 2v27a2 2 0 0 1-2 2H2a2 2 0 0 1-2-2V2a2 2 0 0 1 2-2z"/>
        </g>
        <path d="M12 0h2v1h-2V0zm-2 1h2v1h-2V1zm2 1h2v1h-2V2zm-2 1h2v1h-2V3zm2 1h2v1h-2V4zm-2 1h2v1h-2V5zm2 1h2v1h-2V6zm-2 1h2v1h-2V7zm2 1h2v1h-2V8zm-2 1h2v1h-2V9zm2 1h2v1h-2v-1zm-2 1h2v1h-2v-1zm2 1h2v1h-2v-1zm-2 1h2v1h-2v-1zm2 1h2v1h-2v-1zM10 15h4v3a1 1 0 0 1-1 1h-2a1 1 0 0 1-1-1v-3zm1 2v1h2v-1h-2z" fill="#DFE5E8"/>
    </g>
</symbol><symbol id="icon-file-code" viewBox="0 0 24 31">
    <title>
        file-code
    </title>
    <g fill="#DFE5E8" fill-rule="evenodd">
        <path d="M2 1a1 1 0 0 0-1 1v27a1 1 0 0 0 1 1h20a1 1 0 0 0 1-1V2a1 1 0 0 0-1-1H2zm0-1h20a2 2 0 0 1 2 2v27a2 2 0 0 1-2 2H2a2 2 0 0 1-2-2V2a2 2 0 0 1 2-2z" fill-rule="nonzero"/>
        <path d="M9.986 9v2c-.71 0-1 .444-1 1v2c0 1.497-.235 1.723-1.373 1.918.988.182 1.373.698 1.373 2.082v2c0 .556.303 1 1 1v2c-2.671 0-3-1.43-3-3v-2c0-.856-.328-1-.986-1v-2c.658 0 .986-.144.986-1v-2c0-1.583.329-3 3-3zM14 9v2c.71 0 1 .444 1 1v2c0 1.497.234 1.723 1.373 1.918C15.385 16.1 15 16.616 15 18v2c0 .556-.303 1-1 1v2c2.671 0 3-1.43 3-3v-2c0-.856.327-1 .986-1v-2c-.659 0-.986-.144-.986-1v-2c0-1.583-.329-3-3-3z"/>
    </g>
</symbol><symbol id="icon-file-email" viewBox="0 0 24 31">
    <title>
        file-email
    </title>
    <g fill="#DFE5E8" fill-rule="evenodd">
        <path d="M2 1a1 1 0 0 0-1 1v27a1 1 0 0 0 1 1h20a1 1 0 0 0 1-1V2a1 1 0 0 0-1-1H2zm0-1h20a2 2 0 0 1 2 2v27a2 2 0 0 1-2 2H2a2 2 0 0 1-2-2V2a2 2 0 0 1 2-2z" fill-rule="nonzero"/>
        <path d="M8.93 16.83c0 .17-.01.41-.03.57H5.62c.1.95.55 1.21 1.2 1.21.43 0 .81-.15 1.27-.47l.65.88c-.53.42-1.21.74-2.07.74-1.77 0-2.67-1.14-2.67-2.8 0-1.59.87-2.85 2.48-2.85 1.52 0 2.45 1 2.45 2.72zm-1.55-.38v-.07c-.01-.72-.23-1.22-.86-1.22-.53 0-.83.33-.91 1.29h1.77zm8.33-2.34c.82 0 1.39.59 1.39 1.6v3.88h-1.58v-3.61c0-.56-.21-.71-.45-.71-.34 0-.58.25-.81.69v3.63h-1.58v-3.61c0-.56-.21-.71-.45-.71-.33 0-.58.25-.81.69v3.63H9.84v-5.31h1.38l.11.62c.41-.52.89-.79 1.54-.79.59 0 1.04.3 1.25.84.42-.55.91-.84 1.59-.84zm3.99 5.65c-.92 0-1.46-.55-1.46-1.52v-6.07l1.58-.17v6.18c0 .22.08.33.27.33.11 0 .19-.02.26-.05l.31 1.12c-.24.1-.58.18-.96.18z"/>
    </g>
</symbol><symbol id="icon-file-excel" viewBox="0 0 24 31">
    <title>
        file-excel
    </title>
    <g fill="none" fill-rule="evenodd">
        <path d="M2 1a1 1 0 0 0-1 1v27a1 1 0 0 0 1 1h20a1 1 0 0 0 1-1V2a1 1 0 0 0-1-1H2zm0-1h20a2 2 0 0 1 2 2v27a2 2 0 0 1-2 2H2a2 2 0 0 1-2-2V2a2 2 0 0 1 2-2z" fill="#DFE5E8" fill-rule="nonzero"/>
        <path fill="#08743B" d="M7 10l3.5 6L7 22h3l2-4.5 2 4.5h3l-3.5-6 3.5-6h-3l-2 4.5-2-4.5z"/>
    </g>
</symbol><symbol id="icon-file-pdf" viewBox="0 0 24 31">
    <title>
        file-pdf
    </title>
    <g fill="none" fill-rule="evenodd">
        <path d="M2 1a1 1 0 0 0-1 1v27a1 1 0 0 0 1 1h20a1 1 0 0 0 1-1V2a1 1 0 0 0-1-1H2zm0-1h20a2 2 0 0 1 2 2v27a2 2 0 0 1-2 2H2a2 2 0 0 1-2-2V2a2 2 0 0 1 2-2z" fill="#DFE5E8" fill-rule="nonzero"/>
        <path d="M11.936 10.347c-.097.905-.414 2.554-1.032 4.173-.616 1.622-1.529 3.21-2.325 4.39-.797 1.178-1.478 1.943-1.998 2.386-.519.441-.882.559-1.115.599-.233.04-.339 0-.405-.117-.063-.118-.084-.315-.03-.551.052-.234.18-.51.541-.863.36-.354.956-.785 1.785-1.188.83-.402 1.891-.775 2.762-1.031a19.429 19.429 0 0 1 2.146-.5 15.856 15.856 0 0 1 1.604-.226 8.981 8.981 0 0 1 2.815.216c.406.097.745.217 1.042.402.3.187.552.441.681.726.127.286.127.6.021.825-.105.227-.318.364-.563.441-.246.08-.522.099-.85 0-.33-.098-.713-.314-1.116-.599-.404-.284-.829-.638-1.38-1.187a24.627 24.627 0 0 1-1.808-2.023c-.573-.727-1.04-1.434-1.358-2.033a7.476 7.476 0 0 1-.627-1.582 8.414 8.414 0 0 1-.287-1.422c-.043-.443.037-1.86.675-2.125.639-.265.916.416.822 1.289z" stroke="#FF3601" stroke-width=".75" stroke-linejoin="round"/>
    </g>
</symbol><symbol id="icon-file-powerpoint" viewBox="0 0 24 31">
    <title>
        file-powerpoint
    </title>
    <g fill="none" fill-rule="evenodd">
        <path d="M2 1a1 1 0 0 0-1 1v27a1 1 0 0 0 1 1h20a1 1 0 0 0 1-1V2a1 1 0 0 0-1-1H2zm0-1h20a2 2 0 0 1 2 2v27a2 2 0 0 1-2 2H2a2 2 0 0 1-2-2V2a2 2 0 0 1 2-2z" fill="#DFE5E8" fill-rule="nonzero"/>
        <g fill="#D04423">
            <path d="M12 10v6h6a6 6 0 1 1-6-6z"/>
            <path d="M13 9a6 6 0 0 1 6 6h-6V9z"/>
        </g>
    </g>
</symbol><symbol id="icon-file-text" viewBox="0 0 24 31">
    <title>
        file-text
    </title>
    <g fill="#DFE5E8" fill-rule="evenodd">
        <path d="M2 1a1 1 0 0 0-1 1v27a1 1 0 0 0 1 1h20a1 1 0 0 0 1-1V2a1 1 0 0 0-1-1H2zm0-1h20a2 2 0 0 1 2 2v27a2 2 0 0 1-2 2H2a2 2 0 0 1-2-2V2a2 2 0 0 1 2-2z" fill-rule="nonzero"/>
        <path d="M4 11h16v2H4v-2zm0 4h16v2H4v-2zm0 4h9v2H4v-2z"/>
    </g>
</symbol><symbol id="icon-file-unknown" viewBox="0 0 24 31">
    <title>
        file-unknown
    </title>
    <g fill="#DFE5E8" fill-rule="evenodd">
        <path d="M2 1a1 1 0 0 0-1 1v27a1 1 0 0 0 1 1h20a1 1 0 0 0 1-1V2a1 1 0 0 0-1-1H2zm0-1h20a2 2 0 0 1 2 2v27a2 2 0 0 1-2 2H2a2 2 0 0 1-2-2V2a2 2 0 0 1 2-2z" fill-rule="nonzero"/>
        <path d="M12.025 8.916c2.79 0 4.168 1.413 4.168 3.073 0 2.897-3.161 2.791-3.161 4.575v.23h-3.11v-.336c0-3.109 2.615-2.967 2.615-4.133 0-.442-.318-.689-.9-.689-.619 0-1.255.336-1.838.954l-2.172-1.696c.989-1.165 2.367-1.978 4.398-1.978zm-.53 9.361c1.007 0 1.82.83 1.82 1.82 0 .989-.813 1.819-1.82 1.819-1.007 0-1.82-.83-1.82-1.82 0-.988.813-1.819 1.82-1.819z"/>
    </g>
</symbol><symbol id="icon-file-word" viewBox="0 0 24 31">
    <title>
        file-word
    </title>
    <g fill="none" fill-rule="evenodd">
        <path d="M2 1a1 1 0 0 0-1 1v27a1 1 0 0 0 1 1h20a1 1 0 0 0 1-1V2a1 1 0 0 0-1-1H2zm0-1h20a2 2 0 0 1 2 2v27a2 2 0 0 1-2 2H2a2 2 0 0 1-2-2V2a2 2 0 0 1 2-2z" fill="#DFE5E8" fill-rule="nonzero"/>
        <path d="M4 11h16v2H4v-2zm0 4h16v2H4v-2zm0 4h9v2H4v-2z" fill="#285497"/>
    </g>
</symbol><symbol id="icon-form" viewBox="0 0 17 17">
    <title>
        form
    </title>
    <path d="M8.5 0C3.813 0 0 3.813 0 8.5 0 13.187 3.813 17 8.5 17c4.686 0 8.5-3.813 8.5-8.5C17 3.813 13.186 0 8.5 0zm6.579 11.95l-.005-.001H13.32c.26-.885.44-1.872.489-2.931h2.102a7.376 7.376 0 0 1-.832 2.932zm-6.017 3.958v-2.924h2.79a12.968 12.968 0 0 1-1.544 2.733c-.403.102-.819.158-1.246.19zm-2.33-.178a12.915 12.915 0 0 1-1.554-2.746h2.849v2.932a7.465 7.465 0 0 1-1.295-.186zM1.92 11.95a7.385 7.385 0 0 1-.833-2.932H3.22c.049 1.06.228 2.046.488 2.93H1.926l-.006.002zm.049-6.991c.005 0 .008.003.012.003h1.761a11.728 11.728 0 0 0-.52 3.02H1.088a7.375 7.375 0 0 1 .882-3.023zm6.058-3.877v2.845H5.243c.392-.878.914-1.778 1.599-2.691a7.458 7.458 0 0 1 1.185-.154zm2.17.165c.68.91 1.198 1.806 1.589 2.68H9.062V1.092c.386.029.767.07 1.134.155zm1.992 3.715c.358 1.053.529 2.063.573 3.02h-3.7v-3.02h3.127zm-4.162 0v3.02h-3.76c.044-.957.215-1.967.574-3.02h3.186zM4.265 9.018h3.762v2.93h-3.23c-.278-.874-.48-1.858-.532-2.93zm4.797 2.93v-2.93h3.702a11.5 11.5 0 0 1-.533 2.93h-3.17zm4.743-3.965a11.66 11.66 0 0 0-.52-3.021h1.732c.004 0 .008-.003.013-.003.496.913.805 1.932.881 3.024h-2.106zm.55-4.056H12.9a13.987 13.987 0 0 0-1.038-2.055 7.474 7.474 0 0 1 2.493 2.055zm-9.17-2.082a14.087 14.087 0 0 0-1.057 2.082H2.643a7.48 7.48 0 0 1 2.543-2.082zM2.57 12.984h1.486c.317.827.68 1.533 1.016 2.109a7.472 7.472 0 0 1-2.502-2.11zm9.4 2.084c.333-.572.69-1.269 1.001-2.084h1.457a7.437 7.437 0 0 1-2.458 2.084z" fill-rule="evenodd"/>
</symbol><symbol id="icon-forward" viewBox="0 0 16 17">
    <title>
        forward
    </title>
    <path d="M7.76 8.67v2.556l6.26-4.105L7.76 3v2.5H1v3.17h6.76z" fill-rule="evenodd"/>
</symbol><symbol id="icon-full-logo" viewBox="0 0 175 50">
    <title>
        full-logo
    </title>
    <g fill-rule="evenodd">
        <path d="M61.875 33.969l9.719-14.032c.375-.53.781-.906.781-.906v-.062s-.531.093-1.063.093h-6.968V22H62.03v-5.125h13.594v1.75l-9.719 14.031c-.375.532-.781.907-.781.907v.062s.531-.094 1.063-.094h7.374V30.5h2.313v5.219h-14v-1.75zM85 27.406h.844v-.5c0-2.125-1.219-2.875-2.875-2.875-2.125 0-3.875 1.313-3.875 1.313L78.063 23.5s1.968-1.594 5.124-1.594c3.438 0 5.25 1.782 5.25 5.219v6c0 .406.22.594.594.594h1.375v2H87.72c-1.188 0-1.688-.594-1.688-1.469v-.188c0-.53.094-.874.094-.874h-.063s-1.187 2.843-4.468 2.843c-2.25 0-4.5-1.312-4.5-4.093.031-4.22 5.656-4.532 7.906-4.532zm-2.813 6.625c2.282 0 3.72-2.343 3.72-4.375v-.562h-.688c-1.219 0-5.469.062-5.469 2.656 0 1.188.875 2.281 2.438 2.281zm10.157-.312h2.125V24.78c0-.375-.219-.562-.594-.562h-1.656v-2h3.031c1.156 0 1.719.5 1.719 1.5v.687c0 .438-.094.782-.094.782h.063c.656-1.594 2.624-3.282 4.812-3.282 2.156 0 3.5 1 3.938 3.188h.062c.75-1.688 2.625-3.188 4.844-3.188 3 0 4.406 1.75 4.406 5.188v6.656h2.125v2h-4.719v-8.094c0-1.906-.344-3.406-2.375-3.406-2.531 0-3.969 2.594-3.969 5.25v4.219h2.126v2H103.5v-8.094c0-1.75-.281-3.406-2.344-3.406-2.562 0-4.062 2.718-4.062 5.375v4.125h2.125v2h-6.844v-2h-.031zm26.719 0h2.124V24.78c0-.375-.218-.562-.593-.562h-1.656v-2h3.03c1.157 0 1.72.5 1.72 1.5v.687c0 .438-.094.782-.094.782h.062c.656-1.594 2.625-3.282 4.813-3.282 2.156 0 3.5 1 3.937 3.188h.063c.75-1.688 2.625-3.188 4.844-3.188 3 0 4.406 1.75 4.406 5.188v6.656h2.125v2h-4.719v-8.094c0-1.906-.344-3.406-2.375-3.406-2.531 0-3.969 2.594-3.969 5.25v4.219h2.125v2h-4.687v-8.094c0-1.75-.281-3.406-2.344-3.406-2.563 0-4.063 2.718-4.063 5.375v4.125h2.126v2h-6.844v-2h-.031zm34.187-6.313h.844v-.5c0-2.125-1.219-2.875-2.875-2.875-2.125 0-3.875 1.313-3.875 1.313l-1.031-1.844s1.968-1.594 5.125-1.594c3.437 0 5.25 1.782 5.25 5.219v6c0 .406.218.594.593.594h1.375v2h-2.687c-1.188 0-1.688-.594-1.688-1.469v-.188c0-.53.094-.874.094-.874h-.063s-1.187 2.843-4.468 2.843c-2.25 0-4.5-1.312-4.5-4.093 0-4.22 5.656-4.532 7.906-4.532zm-2.844 6.625c2.281 0 3.719-2.343 3.719-4.375v-.562h-.656c-1.219 0-5.469.062-5.469 2.656-.031 1.188.844 2.281 2.406 2.281zm15.625-12.156c3.063 0 4.156 2.281 4.156 2.281h.063s-.094-.437-.094-1v-4.281h-2.25v-2h4.844v16.25c0 .406.219.594.594.594h1.375v2h-2.688c-1.187 0-1.687-.594-1.687-1.469v-.188c0-.468.094-.718.094-.718h-.063s-1.094 2.687-4.563 2.687c-3.625 0-5.906-2.875-5.906-7.062-.031-4.313 2.5-7.094 6.125-7.094zm.313 11.906c2 0 3.906-1.437 3.906-4.812 0-2.469-1.25-4.844-3.813-4.844-2.156 0-3.906 1.75-3.906 4.813 0 2.968 1.563 4.843 3.813 4.843z"/>
        <path fill="#CA2317" d="M37.969 17.5L51 13.5l-7.719 4.906z"/>
        <path fill="#E84F83" d="M45.906 27.25l-2.625-8.844L51 13.5l-2.313 7.938z"/>
        <path fill="#CA2317" d="M54.813 11.094L53.374 13.5l-4.688 7.938L51 13.5z"/>
        <path fill="#E54011" d="M55.281 12.656l-3.625 3.719 1.719-2.875zM38.75 15.031l10.656-1.062L42 16.25z"/>
        <path fill="#CA2317" d="M39.156 21.063l4.125-2.657 2.625 8.844-1.375 2.813z"/>
        <path fill="#B7DFF2" d="M33 31.563L31.031 7.5l13.5 22.563z"/>
        <path fill="#E54011" d="M27.406 37.719L33 31.562l11.531-1.5z"/>
        <path fill="#FFCE33" d="M.219 49.813l27.187-12.094L33 31.562l-8.875-.906z"/>
        <path fill="#D6B12D" d="M1.25 39.938l13.969-2.126 4.344-3.5-2.125-.937z"/>
        <path fill="#FFDE85" d="M6.281 28.531l13.282 5.782 4.562-3.657z"/>
        <path fill="#009EC6" d="M30.031 16.219l-1.687.281-4.219 14.156 4.563-2.875z"/>
        <path fill="#5EAFCE" d="M32.5 25.344l-3.813 2.437L31.032 7.5z"/>
        <path fill="#045972" d="M18.094 18.125l11.937-1.906.532-4.719z"/>
        <path fill="#5A8591" d="M16.813 7.063l10.375 6.25 3.375-1.813.093-.656z"/>
        <path fill="#009EC6" d="M18.844.25l9.437 9.938 2.375.656.375-3.344z"/>
        <path fill="#F39804" d="M24.125 30.656l8.375-5.312.5 6.218z"/>
    </g>
</symbol><symbol id="icon-github-button" viewBox="0 0 29 24">
    <title>
        github-button
    </title>
    <path d="M14.497 1C8.27 1 3.22 6.05 3.22 12.279c0 4.983 3.231 9.21 7.713 10.701.564.104.77-.244.77-.543 0-.268-.01-.977-.015-1.918-3.137.68-3.8-1.513-3.8-1.513-.512-1.303-1.252-1.65-1.252-1.65-1.024-.699.078-.685.078-.685 1.132.08 1.727 1.163 1.727 1.163 1.006 1.723 2.64 1.225 3.283.936.102-.728.394-1.225.716-1.507-2.505-.284-5.138-1.252-5.138-5.574 0-1.231.44-2.239 1.161-3.027-.116-.285-.503-1.432.111-2.984 0 0 .947-.304 3.101 1.156.9-.25 1.865-.375 2.824-.38.958.005 1.922.13 2.823.38 2.153-1.46 3.099-1.156 3.099-1.156.615 1.552.228 2.7.112 2.984.723.788 1.16 1.796 1.16 3.027 0 4.333-2.638 5.286-5.15 5.565.405.348.765 1.037.765 2.088 0 1.508-.013 2.725-.013 3.095 0 .301.203.652.775.542 4.478-1.495 7.707-5.719 7.707-10.7C25.777 6.049 20.727 1 14.497 1" fill="#FFF" fill-rule="evenodd"/>
</symbol><symbol id="icon-github-logo" viewBox="0 0 24 24">
    <title>
        github-logo
    </title>
    <path d="M11.999 0C5.373 0 0 5.373 0 12c0 5.302 3.438 9.8 8.207 11.386.6.11.819-.26.819-.578 0-.285-.01-1.04-.017-2.04-3.337.724-4.042-1.61-4.042-1.61-.546-1.386-1.332-1.755-1.332-1.755-1.09-.744.082-.73.082-.73 1.205.086 1.838 1.238 1.838 1.238 1.07 1.833 2.81 1.304 3.493.996.109-.775.419-1.304.762-1.603C7.145 17 4.343 15.97 4.343 11.373c0-1.31.468-2.382 1.236-3.22-.124-.304-.536-1.524.118-3.176 0 0 1.007-.323 3.3 1.23.956-.266 1.983-.4 3.003-.404 1.02.005 2.046.138 3.005.404 2.29-1.553 3.296-1.23 3.296-1.23.655 1.652.243 2.872.12 3.176.77.838 1.233 1.91 1.233 3.22 0 4.61-2.806 5.624-5.478 5.921.43.37.814 1.103.814 2.222 0 1.604-.015 2.899-.015 3.292 0 .321.217.695.825.578C20.565 21.796 24 17.3 24 12c0-6.627-5.373-12-12.001-12" fill-rule="evenodd"/>
</symbol><symbol id="icon-gitlab-button" viewBox="0 0 29 24">
    <title>
        gitlab-button
    </title>
    <g fill="none" fill-rule="evenodd">
        <path d="M26.239 13.582l-1.333-4.1-2.64-8.128a.454.454 0 0 0-.864 0l-2.854 8.659H10.01l-2.658-8.66a.454.454 0 0 0-.864 0l-2.64 8.128-1.333 4.101a.908.908 0 0 0 .33 1.015l11.532 8.38 11.533-8.38a.908.908 0 0 0 .33-1.015" fill="#FF998A"/>
        <path fill="#FFF" d="M19.033 10.007h-9.05l4.393 12.97z"/>
        <path fill="#FFC6BD" d="M14.376 22.976L9.992 9.481H3.846z"/>
        <path d="M3.846 9.481l-1.332 4.101a.908.908 0 0 0 .33 1.015l11.532 8.38L3.846 9.48z" fill="#FF998A"/>
        <path d="M3.594 10.002h7.423L7.35 1.354a.454.454 0 0 0-.864 0l-2.893 8.648z" fill="#FFF"/>
        <path fill="#FFC6BD" d="M14.376 22.976l4.385-13.495h6.145z"/>
        <path d="M24.906 9.481l1.333 4.101a.908.908 0 0 1-.33 1.015l-11.533 8.38L24.906 9.48z" fill="#FF998A"/>
        <path d="M25.066 10.022H17.99l3.41-8.668a.454.454 0 0 1 .864 0l2.8 8.668z" fill="#FFF"/>
    </g>
</symbol><symbol id="icon-gitlab-logo" viewBox="0 0 24 24">
    <title>
        gitlab-logo
    </title>
    <path d="M23.955 13.64l-1.343-4.133-2.661-8.19a.457.457 0 0 0-.87 0l-2.876 8.726H7.599l-2.68-8.727a.457.457 0 0 0-.87 0L1.388 9.507.045 13.64a.915.915 0 0 0 .332 1.023L12 23.108l11.623-8.445a.915.915 0 0 0 .332-1.023" fill-rule="evenodd"/>
</symbol><symbol id="icon-google-button" viewBox="0 0 29 24">
    <title>
        google-button
    </title>
    <g fill="none" fill-rule="evenodd">
        <path d="M25.06 12.25c0-.78-.07-1.53-.2-2.25H14.5v4.255h5.92a5.06 5.06 0 0 1-2.195 3.32v2.76h3.555c2.08-1.915 3.28-4.735 3.28-8.085z" fill="#4285F4"/>
        <path d="M14.5 23c2.97 0 5.46-.985 7.28-2.665l-3.555-2.76c-.985.66-2.245 1.05-3.725 1.05-2.865 0-5.29-1.935-6.155-4.535H4.67v2.85A10.996 10.996 0 0 0 14.5 23z" fill="#34A853"/>
        <path d="M8.345 14.09A6.612 6.612 0 0 1 8 12c0-.725.125-1.43.345-2.09V7.06H4.67A10.996 10.996 0 0 0 3.5 12c0 1.775.425 3.455 1.17 4.94l3.675-2.85z" fill="#FBBC05"/>
        <path d="M14.5 5.375c1.615 0 3.065.555 4.205 1.645l3.155-3.155C19.955 2.09 17.465 1 14.5 1c-4.3 0-8.02 2.465-9.83 6.06l3.675 2.85c.865-2.6 3.29-4.535 6.155-4.535z" fill="#EA4335"/>
        <path d="M3.5 1h22v22h-22z"/>
    </g>
</symbol><symbol id="icon-group" viewBox="0 0 24 24">
    <title>
        group
    </title>
    <path d="M5.221 5.43c1.453 0 2.63-1.215 2.63-2.715C7.852 1.215 6.675 0 5.222 0c-1.453 0-2.63 1.216-2.63 2.715 0 1.5 1.177 2.715 2.63 2.715zm6.98 0c1.453 0 2.63-1.215 2.63-2.715 0-1.5-1.177-2.715-2.63-2.715C10.748 0 9.57 1.216 9.57 2.715c0 1.5 1.178 2.716 2.63 2.716zm5.982 0c1.453 0 2.631-1.215 2.631-2.715 0-1.5-1.178-2.715-2.63-2.715-1.454 0-2.632 1.216-2.632 2.715 0 1.5 1.178 2.716 2.631 2.716zm-2.408.863H8.273c-.641 0-1.161.536-1.161 1.197v6.846c0 .662.52 1.197 1.16 1.197h.358V24h6.65v-8.467h.495c.64 0 1.16-.535 1.16-1.197V7.49c0-.66-.52-1.197-1.16-1.197zm-10.3 8.043V7.49c0-.428.097-.83.26-1.197H1.86C1.22 6.293.7 6.829.7 7.49v6.846c0 .662.52 1.198 1.16 1.198h.358V24h4.775v-7.097a2.902 2.902 0 0 1-1.518-2.567zM22.29 6.293h-3.977c.163.366.26.77.26 1.197v6.846c0 1.172-.68 2.183-1.655 2.635V24h4.878v-8.467h.493c.641 0 1.161-.535 1.161-1.197V7.49c0-.66-.52-1.197-1.16-1.197z" fill-rule="evenodd"/>
</symbol><symbol id="icon-help" viewBox="0 0 16 16">
    <title>
        help
    </title>
    <path d="M16 8A8 8 0 1 0 0 8a8 8 0 0 0 16 0zm-1 0A7 7 0 1 0 1 8a7 7 0 0 0 14 0zm-4.328-1.97c0-.995-.805-1.877-2.503-1.877-1.106 0-1.933.458-2.581 1.206l1.14.883c.402-.458.849-.682 1.296-.682.491 0 .782.224.782.626 0 .916-1.766.85-1.766 2.771v.28h1.62v-.224c0-1.296 2.012-1.173 2.012-2.983zm-1.788 5.073c0-.559-.447-1.017-1.017-1.017-.57 0-1.017.458-1.017 1.017 0 .558.447 1.017 1.017 1.017.57 0 1.017-.459 1.017-1.017z" fill="#000" fill-rule="evenodd"/>
</symbol><symbol id="icon-horizontal-rule" viewBox="0 0 12 12">
    <title>
        horizontal-rule
    </title>
    <g fill-rule="evenodd">
        <path d="M0 5h12v1H0z"/>
        <path fill-opacity=".3" d="M1 0h10v3H1zM1 8h10v3H1z"/>
    </g>
</symbol><symbol id="icon-important" viewBox="0 0 16 16">
    <title>
        important
    </title>
    <path d="M7.471 1h1.058c.551 0 .989.449.97 1.002l-.28 8.447a1.039 1.039 0 0 1-1.025 1.003h-.388a1.047 1.047 0 0 1-1.026-1.003L6.5 2.002A.964.964 0 0 1 7.472 1zm.534 14.403a1.395 1.395 0 1 1 0-2.79 1.395 1.395 0 0 1 0 2.79z" fill-rule="evenodd"/>
</symbol><symbol id="icon-in-process" viewBox="0 0 64 64">
    <title>
        in-process
    </title>
    <g fill-rule="evenodd">
        <path d="M7.997 43.981a644.16 644.16 0 0 0 0-11.995c-2.244.046-4.129-.852-5.998-2.998C.793 27.84 0 25.945 0 23.99V7.997C0 3.792 3.77 0 7.997 0h30.988c5.153 0 8.922 3.592 8.996 7.997.025 5.474.025 10.563 0 15.993-.173 4.45-3.942 8.042-8.996 7.996-5.857.046-11.907.046-17.993 0-.56.046-1.353.345-2 1-3.519 3.436-6.99 7.228-10.995 10.995.335.025.235.025 0 0z"/>
        <path d="M52 20c3.609-.172 7.144-.172 10 3 1.185 1.404 1.993 3.195 2 5-.007 5.358-.209 10.432 0 15 .195 4.983-4.148 8.863-8 9 .316.062.114.161 0 0a272.316 272.316 0 0 0 0 12c-.593-.497-.997-.696-1-1-3.634-3.278-6.967-6.561-10-10-1.11-.64-1.917-1.038-3-1-6.09.062-12.15-.038-18 0-5.565-.038-9.707-4.813-9-10 .202-.385.404-.683 1-1 1.222-1.474 2.637-2.966 4-4 .657-.757 1.364-.956 2-1a1091.5 1091.5 0 0 0 17 0c6.002.044 11.356-4.134 13-10-.028-1.795-.23-3.785 0-6z" fill="#A9BCC4" opacity=".4"/>
    </g>
</symbol><symbol id="icon-inactive-organization" viewBox="0 0 16 16">
    <title>
        inactive-organization
    </title>
    <g fill-rule="evenodd">
        <path d="M1 12.533V1h7v4h.533L7 6.533V6H6v1h.533L5 8.533V8H4v1h.533L3 10.533V10H2v1h.533L1 12.533zM3.73 15L6 12.73V13h1v-1h-.27l3-3H10v-.27L11.73 7H12v-.27L13.73 5H15v10H3.73zM2 9h1V8H2v1zm0-2h1V6H2v1zm0-2h1V4H2v1zm0-2h1V2H2v1zm2 4h1V6H4v1zm0-2h1V4H4v1zm0-2h1V2H4v1zm2 2h1V4H6v1zm0-2h1V2H6v1zm3 9v1h1v-1H9zm0-1h1v-1H9v1zm2 2h1v-1h-1v1zm0-2h1v-1h-1v1zm0-2h1V8h-1v1zm2 4h1v-1h-1v1zm0-2h1v-1h-1v1zm0-2h1V8h-1v1zm0-2h1V6h-1v1z"/>
        <path fill-rule="nonzero" d="M13.786 1.453l.707.707L2.138 14.596l-.707-.707z"/>
    </g>
</symbol><symbol id="icon-inactive-user" viewBox="0 0 16 16">
    <title>
        inactive-user
    </title>
    <g fill-rule="evenodd">
        <path d="M3.765 14.964l5.762-5.761.01 1.04s.321.185 1.679.75c1.357.565.931.142 2.037.695C15 12.562 15 14.964 15 14.964H3.765zm2.1-7.296a4.628 4.628 0 0 1-.055-.33c-.318.093-.423-.375-.442-.672-.017-.288-.184-1.186.204-1.105-.08-.6-.136-1.14-.108-1.427C5.56 3.128 6.525 2.077 8.01 2c1.225.054 1.931.586 2.277 1.245L5.864 7.668z"/>
        <path fill-rule="nonzero" d="M13.786 1.453l.707.707L2.138 14.596l-.707-.707z"/>
    </g>
</symbol><symbol id="icon-info" viewBox="0 0 5 11">
    <title>
        info
    </title>
    <path d="M2.321 4h1.17c.281 0 .45.127.45.408 0 .226-.028.465-.07.69l-.465 2.55c-.056.282-.113.563-.14.845-.015.14 0 .282.041.408.043.184.183.282.367.254.155-.014.295-.07.45-.127.113-.042.226-.127.338-.169.17-.07.324.056.268.226a.584.584 0 0 1-.17.281c-.436.437-.957.704-1.577.704-.295 0-.577 0-.873-.042-.479-.07-1.084-.662-1-1.282.057-.436.127-.859.197-1.281.127-.747.254-1.493.395-2.24.014-.042.014-.098.014-.14 0-.31-.099-.423-.409-.465-.126-.014-.267-.028-.394-.07-.155-.057-.225-.17-.211-.296.014-.127.098-.212.267-.24C1.054 4 1.152 4 1.237 4h1.084zm1.874-1.989c0 .662-.535 1.197-1.183 1.197-.662 0-1.198-.549-1.198-1.21C1.814 1.334 2.35.8 3.012.8c.662 0 1.183.535 1.183 1.211z" fill-rule="evenodd"/>
</symbol><symbol id="icon-internal-modifier" viewBox="0 0 9 9">
    <title>
        internal-modifier
    </title>
    <g fill-rule="evenodd">
        <path d="M6 1H4a2 2 0 0 0-2 2v1h-.019A1 1 0 0 0 1 5v4h8V5a1 1 0 0 0-1-1V3a2 2 0 0 0-2-2z"/>
        <path d="M2.543 5c-.3 0-.543.227-.543.499V8.5c0 .276.243.499.543.499h4.914c.3 0 .543-.227.543-.499V5.5C8 5.223 7.757 5 7.457 5H2.543zm1.261-.857l-.003-.053v-.017a1.44 1.44 0 0 1 .094-.616c.154-.378.477-.6 1.105-.6s.95.222 1.104.6c.084.206.108.433.096.617l-.001.016-.003.053V5h.797v-.857l-.003.053.005-.064c.02-.309-.017-.666-.16-1.018C6.553 2.42 5.94 2 5 2c-.942 0-1.553.42-1.835 1.114a2.318 2.318 0 0 0-.155 1.082l-.003-.053V5h.797v-.857z" fill="currentColor"/>
    </g>
</symbol><symbol id="icon-italic" viewBox="0 0 12 12">
    <title>
        italic
    </title>
    <g fill-rule="evenodd">
        <path d="M6.667 1H8.5L5.333 11H3.5z"/>
        <path d="M5 1h5v1H5zM2 10h5v1H2z"/>
    </g>
</symbol><symbol id="icon-knowledge-base-answer" viewBox="0 0 16 16">
    <title>
        knowledge-base-answer
    </title>
    <path d="M8.045 1l-.027 2.982a2 2 0 0 0 2 2.018H13v7a1 1 0 0 1-1 1H4a1 1 0 0 1-1-1V2a1 1 0 0 1 1-1h4.045zM9 1l4 4h-3a1 1 0 0 1-1-1V1z" fill-rule="evenodd"/>
</symbol><symbol id="icon-knowledge-base" viewBox="0 0 24 24">
    <title>
        knowledge-base
    </title>
    <path d="M3 20.02V2.991C3 1.89 3.893 1 4.992 1h11.016C17.108 1 18 1.898 18 2.99v16.02c0 1.099-.893 1.99-1.992 1.99H4.266c.344.596.988 1 1.726 1h11.016A1.992 1.992 0 0 0 19 20.01V3.99c0-.29-.063-.565-.176-.815A1.997 1.997 0 0 1 20 4.991v16.018c0 1.1-.893 1.991-1.992 1.991h-12c-.557 0-1.356-.29-1.753-.665 0 0-1.244-.827-1.255-2.315zM5 6.505v.99c0 .291.224.505.501.505H15.5A.506.506 0 0 0 16 7.495v-.99A.496.496 0 0 0 15.499 6H5.5A.506.506 0 0 0 5 6.505zm0 4v.99c0 .291.224.505.501.505H15.5a.506.506 0 0 0 .501-.505v-.99a.496.496 0 0 0-.501-.505H5.5a.506.506 0 0 0-.501.505z" fill-rule="evenodd"/>
</symbol><symbol id="icon-line-left-arrow" viewBox="0 0 34 7">
    <title>
        line-left-arrow
    </title>
    <g fill-rule="evenodd">
        <path d="M34 3H3v1h31z"/>
        <path d="M7 0v7L0 3.5z"/>
    </g>
</symbol><symbol id="icon-line-right-arrow" viewBox="0 0 34 7">
    <title>
        line-right-arrow
    </title>
    <path d="M27 4H0V3h27V0l7 3.5L27 7V4z" fill-rule="evenodd"/>
</symbol><symbol id="icon-linkedin-button" viewBox="0 0 29 24">
    <title>
        linkedin-button
    </title>
    <path d="M10.512 4.5a2 2 0 1 1 0 0zM7 7.995h3v11h-3v-11zm9.302-.02v1.507h.047c.457-.867 1.576-1.781 3.242-1.781 3.468 0 4.108 2.282 4.108 5.252V19h-3.422v-5.361c0-1.28-.025-2.924-1.781-2.924-1.783 0-2.055 1.393-2.055 2.832V19h-3.426V7.975h3.287z" fill="#FFF" fill-rule="evenodd"/>
</symbol><symbol id="icon-list" viewBox="0 0 16 16">
    <title>
        list
    </title>
    <path d="M0 3c0-.552.449-1 1.007-1h12.986C14.549 2 15 2.444 15 3c0 .552-.449 1-1.007 1H1.007A1.001 1.001 0 0 1 0 3zm0 4c0-.552.449-1 1.007-1h12.986C14.549 6 15 6.444 15 7c0 .552-.449 1-1.007 1H1.007A1.001 1.001 0 0 1 0 7zm0 4c0-.552.449-1 1.007-1h12.986c.556 0 1.007.444 1.007 1 0 .552-.449 1-1.007 1H1.007A1.001 1.001 0 0 1 0 11zm0 4c0-.552.449-1 1.007-1h12.986c.556 0 1.007.444 1.007 1 0 .552-.449 1-1.007 1H1.007A1.001 1.001 0 0 1 0 15z" fill-rule="evenodd"/>
</symbol><symbol id="icon-loading" viewBox="0 0 16 16">
    <title>
        loading
    </title>
    <circle cx="8" cy="8" r="5" fill-rule="evenodd"/>
</symbol><symbol id="icon-lock-open" viewBox="0 0 16 17">
    <title>
        lock-open
    </title>
    <path d="M6.292 7V4.21l.006-.104.002-.032c.02-.36-.02-.806-.167-1.21-.269-.743-.834-1.18-1.933-1.18-1.099 0-1.664.437-1.933 1.18-.146.404-.187.85-.167 1.21l.002.032.006.105v1.684H.713V4.21l.005.104A5.065 5.065 0 0 1 .99 2.189C1.483.827 2.553 0 4.2 0c1.648 0 2.718.827 3.211 2.189a5.065 5.065 0 0 1 .27 2.126l.006-.104V7h6.617c.551 0 .996.446.996.997v6.006a1 1 0 0 1-.996.997H5.296a.996.996 0 0 1-.996-.997V7.997A1 1 0 0 1 5.296 7h.996z" fill-rule="evenodd"/>
</symbol><symbol id="icon-lock" viewBox="0 0 16 17">
    <title>
        lock
    </title>
    <path d="M2.996 7A1 1 0 0 0 2 7.997v6.006c0 .55.445.997.996.997h9.008a1 1 0 0 0 .996-.997V7.997A.996.996 0 0 0 12.004 7H2.996zm2.412-1.429l-.006-.088-.002-.027c-.02-.306.02-.684.167-1.027.269-.63.834-1 1.933-1 1.099 0 1.664.37 1.933 1 .146.343.187.721.167 1.027l-.002.027-.006.088V7h1.395V5.571l-.005.09.01-.107a3.697 3.697 0 0 0-.281-1.697C10.217 2.7 9.147 2 7.5 2c-1.648 0-2.718.701-3.211 1.857a3.697 3.697 0 0 0-.27 1.803l-.006-.089V7h1.395V5.571z" fill-rule="evenodd"/>
</symbol><symbol id="icon-logo" viewBox="0 0 42 36">
    <title>
        logo
    </title>
    <g fill="none" fill-rule="evenodd">
        <path fill="#CA2317" d="M28.337 12.6l9.383-2.88-5.557 3.532z"/>
        <path fill="#E84F83" d="M34.053 19.62l-1.89-6.368L37.72 9.72l-1.665 5.715z"/>
        <path fill="#CA2317" d="M40.465 7.987L39.43 9.72l-3.375 5.715L37.72 9.72z"/>
        <path fill="#E54011" d="M40.803 9.113l-2.61 2.677 1.237-2.07zM28.9 10.822l7.672-.764L31.24 11.7z"/>
        <path fill="#CA2317" d="M29.192 15.165l2.97-1.912 1.89 6.367-.99 2.025z"/>
        <path fill="#B7DFF2" d="M24.76 22.725L23.342 5.4l9.72 16.245z"/>
        <path fill="#E54011" d="M20.733 27.157l4.027-4.432 8.302-1.08z"/>
        <path fill="#FFCE33" d="M1.157 35.865l19.576-8.708 4.027-4.432-6.39-.652z"/>
        <path fill="#D6B12D" d="M1.9 28.755l10.057-1.53 3.128-2.52-1.53-.675z"/>
        <path fill="#FFDE85" d="M5.522 20.543l9.563 4.162 3.285-2.632z"/>
        <path fill="#009EC6" d="M22.622 11.678l-1.215.202-3.037 10.193 3.285-2.07z"/>
        <path fill="#5EAFCE" d="M24.4 18.247l-2.745 1.756L23.343 5.4z"/>
        <path fill="#045972" d="M14.027 13.05l8.595-1.373.383-3.397z"/>
        <path fill="#5A8591" d="M13.105 5.085l7.47 4.5 2.43-1.305.068-.472z"/>
        <path fill="#009EC6" d="M14.568.18l6.795 7.155 1.71.473.27-2.408z"/>
        <path fill="#F39804" d="M18.37 22.073l6.03-3.826.36 4.478z"/>
    </g>
</symbol><symbol id="icon-logotype" viewBox="0 0 91 15">
    <title>
        logotype
    </title>
    <path d="M0 14.752h11.657V9.697H8.563v2.167h-3.24a8.08 8.08 0 0 0-.887.062c0-.042.371-.33.66-.743l6.314-8.955V0H.083v4.972h3.094V2.89h2.889c.413 0 .887-.062.887-.062 0 .041-.371.33-.66.742L0 12.483v2.27zm13.081-3.033c0 2.146 1.63 3.281 3.487 3.281 2.27 0 3.136-1.754 3.136-1.754h.042s-.042.145-.042.33v.062c0 .516.392 1.114 1.424 1.114h3.074v-2.579h-.784c-.289 0-.454-.165-.454-.454V8.212c0-2.786-1.65-4.333-4.745-4.333-2.683 0-4.498 1.382-4.498 1.382l1.238 2.414s1.485-1.01 2.93-1.01c.804 0 1.506.309 1.506 1.175v.31h-.64c-1.65 0-5.674.454-5.674 3.57zm3.59-.247c0-.95 1.259-1.32 2.435-1.32h.33v.247c0 .928-.908 2.022-1.816 2.022-.577 0-.949-.392-.949-.95zm8.831 3.28h6.252v-2.579h-1.341v-1.609c0-1.713.412-3.446 2.042-3.446.681 0 .826.557.826 1.341v6.293h4.91v-2.579h-1.34v-1.815c0-1.775.494-3.24 2.042-3.24.68 0 .825.557.825 1.341v6.293h4.91v-2.579h-1.34V7.861c0-2.93-1.527-3.982-3.343-3.982-1.63 0-2.93.867-3.508 2.001h-.04c-.517-1.485-1.61-2.001-2.766-2.001-1.795 0-2.826 1.217-3.363 2.043h-.041s.02-.145.02-.248v-.35c0-.723-.515-1.197-1.485-1.197h-3.363v2.579h.99c.29 0 .454.144.454.433v5.034h-1.34v2.58zm20.447 0h6.252v-2.579H50.86v-1.609c0-1.713.412-3.446 2.042-3.446.681 0 .826.557.826 1.341v6.293h4.91v-2.579h-1.34v-1.815c0-1.775.494-3.24 2.042-3.24.68 0 .825.557.825 1.341v6.293h4.91v-2.579h-1.34V7.861c0-2.93-1.527-3.982-3.343-3.982-1.63 0-2.93.867-3.508 2.001h-.04c-.517-1.485-1.61-2.001-2.766-2.001-1.795 0-2.826 1.217-3.363 2.043h-.041s.02-.145.02-.248v-.35c0-.723-.515-1.197-1.485-1.197h-3.363v2.579h.99c.29 0 .454.144.454.433v5.034h-1.34v2.58zm20.055-3.033c0 2.146 1.63 3.281 3.487 3.281 2.27 0 3.136-1.754 3.136-1.754h.042s-.042.145-.042.33v.062c0 .516.392 1.114 1.424 1.114h3.074v-2.579h-.784c-.289 0-.454-.165-.454-.454V8.212c0-2.786-1.65-4.333-4.745-4.333-2.683 0-4.498 1.382-4.498 1.382l1.238 2.414s1.485-1.01 2.93-1.01c.804 0 1.506.309 1.506 1.175v.31h-.64c-1.65 0-5.674.454-5.674 3.57zm3.59-.247c0-.95 1.259-1.32 2.435-1.32h.33v.247c0 .928-.908 2.022-1.816 2.022-.577 0-.949-.392-.949-.95zm8.522-2.022c0 3.28 1.856 5.55 4.683 5.55 2.476 0 3.28-1.754 3.28-1.754h.042s-.041.145-.041.33v.062c0 .516.392 1.114 1.423 1.114h3.075v-2.579h-.784c-.29 0-.454-.165-.454-.454V0h-5.014v2.58h1.444v1.67c0 .392.02.681.02.681h-.04s-.681-1.052-2.724-1.052c-2.93 0-4.91 2.187-4.91 5.57zm3.59 0c0-1.65.949-2.559 2.125-2.559 1.362 0 2.042 1.238 2.042 2.641 0 1.713-1.031 2.518-2.104 2.518-1.217 0-2.063-1.053-2.063-2.6z" fill-rule="evenodd"/>
</symbol><symbol id="icon-long-arrow-down" viewBox="0 0 11 11">
    <title>
        long-arrow-down
    </title>
    <path d="M4.81 8.605c-.24-.33-.576-.66-.96-1.024L1.412 5.27.5 6.375 5.5 11l5-4.625-.913-1.106-2.308 2.196c-.465.43-.833.777-1.09 1.14l-.048-.016V0H4.859v8.589l-.048.016z" fill-rule="evenodd"/>
</symbol><symbol id="icon-long-arrow-right" viewBox="0 0 11 11">
    <title>
        long-arrow-right
    </title>
    <path d="M8.347 6.203c-.32.24-.64.577-.993.962L5.11 9.6l1.073.913 4.486-4.998L6.184.516l-1.073.913 2.13 2.307c.417.465.753.833 1.106 1.09l-.016.048H0v1.281h8.33l.017.048z" fill-rule="evenodd"/>
</symbol><symbol id="icon-low-priority" viewBox="0 0 16 16">
    <title>
        low-priority
    </title>
    <path d="M7 11.18L3.886 8.031a1 1 0 0 0-1.41 0l.093-.094a.994.994 0 0 0-.008 1.411l4.719 4.733a.988.988 0 0 0 1.404 0l4.714-4.733c.388-.39.393-1.024.005-1.426l.119.124a.973.973 0 0 0-1.399-.015l-3.121 3.15V1.961a.997.997 0 0 0-1-.998c-.553 0-1 .44-1 .998v9.218z" fill-rule="evenodd"/>
</symbol><symbol id="icon-magnifier" viewBox="0 0 15 15">
    <title>
        magnifier
    </title>
    <path d="M5.92 10.382a4.438 4.438 0 0 1-4.404-4.461 4.444 4.444 0 0 1 4.431-4.404h.03a4.39 4.39 0 0 1 3.12 1.32 4.406 4.406 0 0 1 1.278 3.142 4.415 4.415 0 0 1-1.308 3.115 4.395 4.395 0 0 1-3.118 1.288H5.92M5.983 0h-.038A5.95 5.95 0 0 0 0 5.912 5.949 5.949 0 0 0 5.907 11.9h.042a5.884 5.884 0 0 0 2.991-.811l3.613 3.618.092.088a.695.695 0 0 0 .988 0l1.164-1.162a.702.702 0 0 0 0-.99l-.09-.093-3.619-3.619A5.945 5.945 0 0 0 5.983 0" fill-rule="evenodd"/>
</symbol><symbol id="icon-marker" viewBox="0 0 17 19">
    <title>
        marker
    </title>
    <path d="M7.378 14.166l4.146-11.91L6.862 0S1.995 8.102.532 10.849l6.846 3.317zm-.31.595c-.374.445-1.273 1.318-2.35.982-1.425-.444-1.011-.364-1.011-.364l-.302.73-2.556-1.082.542-.858s-2.014-.58-1.185-2.653l6.863 3.245zM.757 16.003L0 17.837l2.782.299.466-.907-2.492-1.226zM.12 18.341h16.737v.46H.12v-.46z" fill-rule="evenodd"/>
</symbol><symbol id="icon-message" viewBox="0 0 24 24">
    <title>
        message
    </title>
    <path d="M20.098 3.035A5.351 5.351 0 0 0 19.544 3C14.185 3 8.827 3 3.467 3.003c-.248 0-.497.032-.743.074-.383.063-.6.318-.662.704a4.489 4.489 0 0 0-.06.708C2 8.133 2 11.777 2.002 15.421c0 .104.002.209.008.313.047.813.33 1.109 1.124 1.124 1.054.02 2.067.016 3.12.022.223.002.66 0 .66 0v.354c0 1.341.042 2.682.046 4.025 0 .257-.055.572.247.705.295.13.489-.124.675-.3 1.636-1.53 3.276-3.058 4.905-4.596.15-.14.3-.19.497-.19 2 .004 4 .004 5.997.002.251 0 .503-.01.751-.033.593-.053.842-.294.928-.896.025-.187.04-.379.04-.568.001-3.586.002-7.173 0-10.76a5.875 5.875 0 0 0-.058-.765c-.074-.517-.334-.768-.843-.823zM5 8c0 .552.446 1 .998 1h7.004c.551 0 .998-.444.998-1 0-.552-.446-1-.998-1H5.998A.996.996 0 0 0 5 8zm0 4a1 1 0 0 0 .999 1H17a1 1 0 1 0 0-2H6A.997.997 0 0 0 5 12z" fill-rule="evenodd"/>
</symbol><symbol id="icon-minus-small" viewBox="0 0 16 16">
    <title>
        minus-small
    </title>
    <path d="M3 7v2h10V7z" fill-rule="evenodd"/>
</symbol><symbol id="icon-minus" viewBox="0 0 20 20">
    <title>
        minus
    </title>
    <path d="M2 8v3h17V8z" fill-rule="evenodd"/>
</symbol><symbol id="icon-mood-bad" viewBox="0 0 60 59">
    <title>
        mood-bad
    </title>
    <path d="M60 5.108c0-.82-.062-1.577-.187-2.396-.25-1.577-1.06-2.397-2.679-2.586C56.574.063 55.95 0 55.389 0H4.673c-.81 0-1.558.126-2.368.252C1.121.442.436 1.262.187 2.46.062 3.216 0 3.91 0 4.666V39.54c.125 2.522 1.06 3.468 3.551 3.468 3.303.063 6.792.063 10.156.063.686 0 1.807.063 1.807.063v1.072c0 4.162.062 8.324.062 12.486 0 .82 0 1.766.935 2.207.934.379 1.495-.378 2.056-.946 5.171-4.792 10.28-9.522 15.452-14.251.498-.442.934-.568 1.557-.568h18.941c.81 0 1.558-.063 2.368-.126 1.869-.19 2.679-.883 2.928-2.775.062-.567.125-1.198.125-1.765C60 27.368 60 16.27 60 5.107zM35 34.5c0 .825-.563 1.5-1.25 1.5h-7.5c-.688 0-1.25-.675-1.25-1.5s.563-1.5 1.25-1.5h7.5c.688 0 1.25.675 1.25 1.5zM37 19h9c0 4-2.043 6-4.468 6C39.106 25 37 23 37 19zm-23 0h9c0 4-2.043 6-4.468 6C16.106 25 14 23 14 19z" fill="#F6820B" fill-rule="evenodd"/>
</symbol><symbol id="icon-mood-good" viewBox="0 0 60 59">
    <title>
        mood-good
    </title>
    <path d="M60 5.108c0-.82-.062-1.577-.187-2.396-.25-1.577-1.06-2.397-2.679-2.586C56.574.063 55.95 0 55.389 0H4.673c-.81 0-1.558.126-2.368.252C1.121.442.436 1.262.187 2.46.062 3.216 0 3.91 0 4.666V39.54c.125 2.522 1.06 3.468 3.551 3.468 3.303.063 6.73.063 10.032.063.685 0 1.744.063 1.744.063v1.072c0 4.162.125 8.324.187 12.486 0 .82.062 1.766.997 2.207.934.379 1.495-.378 2.056-.946a3177.51 3177.51 0 0 1 15.452-14.251c.498-.442.934-.568 1.557-.568h18.941c.81 0 1.558-.063 2.368-.126 1.869-.19 2.679-.883 2.928-2.775.062-.567.125-1.198.125-1.765C60 27.368 60 16.27 60 5.107zM18.781 20.336c-2.438 0-4.375-2.008-4.375-4.393 0-2.448 2-4.394 4.375-4.394 2.437 0 4.375 2.008 4.375 4.394.062 2.385-1.938 4.393-4.375 4.393zm27.562-4.393c0 2.447-2 4.393-4.375 4.393-2.437 0-4.375-2.008-4.375-4.393 0-2.448 2-4.394 4.375-4.394 2.375-.063 4.375 1.946 4.375 4.394zm-8.25 11.36c.5.44.563 1.256.063 1.758a10.764 10.764 0 0 1-8 3.515 10.764 10.764 0 0 1-8-3.515c-.438-.502-.438-1.318.062-1.758.5-.44 1.313-.44 1.75.063 1.625 1.757 3.75 2.699 6.125 2.699 2.313 0 4.563-1.004 6.125-2.699.563-.502 1.375-.502 1.875-.063z" fill="#A9AC41" fill-rule="evenodd"/>
</symbol><symbol id="icon-mood-ok" viewBox="0 0 60 59">
    <title>
        mood-ok
    </title>
    <path d="M60 5.108c0-.82-.062-1.577-.187-2.396-.25-1.577-1.06-2.397-2.679-2.586C56.574.063 55.95 0 55.389 0H4.673c-.81 0-1.558.126-2.368.252C1.121.442.436 1.262.187 2.46.062 3.216 0 3.91 0 4.666V39.54c.125 2.522 1.06 3.468 3.551 3.468 3.303.063 6.792.063 10.156.063.686 0 1.807.063 1.807.063v1.072c0 4.162.062 8.324.062 12.486 0 .82 0 1.766.935 2.207.934.379 1.495-.378 2.056-.946a3177.51 3177.51 0 0 1 15.452-14.251c.498-.442.934-.568 1.557-.568h18.941c.81 0 1.558-.063 2.368-.126 1.869-.19 2.679-.883 2.928-2.775.062-.567.125-1.198.125-1.765C60 27.368 60 16.27 60 5.107zM22.718 18.453c0 2.448-2 4.394-4.375 4.394-2.437 0-4.375-2.009-4.375-4.394 0-2.448 2-4.393 4.375-4.393 2.375-.063 4.375 1.945 4.375 4.393zm23.125 0c0 2.448-2 4.394-4.375 4.394-2.437 0-4.375-2.009-4.375-4.394 0-2.448 2-4.393 4.375-4.393 2.375-.063 4.375 1.945 4.375 4.393zM36.77 32H23.231C22.554 32 22 31.325 22 30.5s.554-1.5 1.23-1.5h13.54c.676 0 1.23.675 1.23 1.5s-.554 1.5-1.23 1.5z" fill="#FAAB00" fill-rule="evenodd"/>
</symbol><symbol id="icon-mood-sad" viewBox="0 0 60 59">
    <title>
        mood-sad
    </title>
    <path d="M60 6.108c0-.82-.062-1.577-.187-2.396-.25-1.577-1.06-2.397-2.679-2.586C56.574 1.063 55.95 1 55.389 1H4.673c-.81 0-1.558.126-2.368.252C1.121 1.442.436 2.262.187 3.46.062 4.216 0 4.91 0 5.666V40.54c.125 2.522 1.06 3.468 3.551 3.468 3.303.063 6.73.063 10.032.063.685 0 1.744.063 1.744.063v1.072c0 4.162.125 8.324.187 12.486 0 .82.062 1.766.997 2.207.934.379 1.495-.378 2.056-.946a3177.51 3177.51 0 0 1 15.452-14.251c.498-.442.934-.568 1.557-.568h18.941c.81 0 1.558-.063 2.368-.126 1.869-.19 2.679-.883 2.928-2.775.062-.567.125-1.198.125-1.765C60 28.368 60 17.27 60 6.107zM18.781 21.336c-2.438 0-4.375-2.008-4.375-4.393 0-2.448 2-4.394 4.375-4.394 2.437 0 4.375 2.008 4.375 4.394.062 2.385-1.938 4.393-4.375 4.393zm27.562-4.393c0 2.447-2 4.393-4.375 4.393-2.437 0-4.375-2.008-4.375-4.393 0-2.448 2-4.394 4.375-4.394 2.375-.063 4.375 1.946 4.375 4.394zm-24.1 16.31c-.5-.439-.563-1.255-.063-1.757a10.764 10.764 0 0 1 8-3.515c3.063 0 5.938 1.255 8 3.515.438.502.438 1.318-.062 1.757-.5.44-1.313.44-1.75-.062-1.625-1.758-3.75-2.7-6.125-2.7-2.313 0-4.563 1.005-6.125 2.7-.563.502-1.375.502-1.875.062z" fill-rule="evenodd"/>
</symbol><symbol id="icon-mood-superbad" viewBox="0 0 60 59">
    <title>
        mood-superbad
    </title>
    <path d="M60 5.108c0-.82-.062-1.577-.187-2.396-.25-1.577-1.06-2.397-2.679-2.586C56.574.063 55.95 0 55.389 0H4.673c-.81 0-1.558.126-2.368.252C1.121.442.436 1.262.187 2.46.062 3.216 0 3.91 0 4.666V39.54c.125 2.522 1.06 3.468 3.551 3.468 3.303.063 6.792.063 10.156.063.686 0 1.807.063 1.807.063v1.072c0 4.162.062 8.324.062 12.486 0 .82 0 1.766.935 2.207.934.379 1.495-.378 2.056-.946a3177.51 3177.51 0 0 1 15.452-14.251c.498-.442.934-.568 1.557-.568h18.941c.81 0 1.558-.063 2.368-.126 1.869-.19 2.679-.883 2.928-2.775.062-.567.125-1.198.125-1.765C60 27.368 60 16.27 60 5.107zm-14.313 15.48c.626 3.702-.937 5.9-3.374 6.339-2.376.439-4.688-1.13-5.313-4.833l8.688-1.507zM18.25 26.988c-2.375-.439-4-2.636-3.375-6.339l8.688 1.506c-.688 3.704-2.938 5.21-5.313 4.833zM38 34.898c.438.502.438 1.318-.063 1.757-.5.44-1.312.44-1.75-.062-1.624-1.758-3.75-2.7-6.124-2.7-2.313 0-4.563 1.005-6.125 2.7a1.27 1.27 0 0 1-.938.376 1.49 1.49 0 0 1-.875-.314c-.5-.439-.563-1.255-.063-1.757A10.73 10.73 0 0 1 30 31.383c3 0 5.938 1.255 8 3.515z" fill="#F35910" fill-rule="evenodd"/>
</symbol><symbol id="icon-mood-supergood" viewBox="0 0 60 59">
    <title>
        mood-supergood
    </title>
    <path d="M60 5.108c0-.82-.062-1.577-.187-2.396-.25-1.577-1.06-2.397-2.679-2.586C56.574.063 55.95 0 55.389 0H4.673c-.81 0-1.558.126-2.368.252C1.121.442.436 1.262.187 2.46.062 3.216 0 3.91 0 4.666V39.54c.125 2.522 1.06 3.468 3.551 3.468 3.303.063 6.73.063 10.032.063.685 0 1.744.063 1.744.063v1.072c0 4.162.125 8.324.187 12.486 0 .82.062 1.766.997 2.207.934.379 1.495-.378 2.056-.946a3177.51 3177.51 0 0 1 15.452-14.251c.498-.442.934-.568 1.557-.568h18.941c.81 0 1.558-.063 2.368-.126 1.869-.19 2.679-.883 2.928-2.775.062-.567.125-1.198.125-1.765C60 27.368 60 16.27 60 5.107zM40.6 21c0 4.908-4.694 10-10.5 10s-10.5-5.092-10.5-10h21zm-17.16-5.309h-10a1.256 1.256 0 0 1 0-2.51h.626c.375-2.95 2.187-4.394 4.312-4.394 2.125 0 3.938 1.507 4.313 4.394h.75a1.256 1.256 0 0 1 0 2.51zm24.376-1.255c0 .69-.563 1.255-1.25 1.255h-10a1.256 1.256 0 0 1 0-2.51h.625c.375-2.95 2.187-4.394 4.312-4.394 2.125 0 3.938 1.507 4.313 4.394h.75c.687 0 1.25.565 1.25 1.255z" fill="#38AE6A" fill-rule="evenodd"/>
</symbol><symbol id="icon-mute" viewBox="0 0 16 16">
    <title>
        mute
    </title>
    <g fill-rule="evenodd">
        <path d="M1 6v4h3l4 3V3L4 6zM11.293 8L9.146 5.854a.5.5 0 1 1 .708-.708L12 7.293l2.146-2.147a.5.5 0 0 1 .708.708L12.707 8l2.147 2.146a.5.5 0 0 1-.708.708L12 8.707l-2.146 2.147a.5.5 0 0 1-.708-.708L11.293 8z"/>
    </g>
</symbol><symbol id="icon-not-signed" viewBox="0 0 14 14">
    <title>
        not-signed
    </title>
    <path d="M7.317.106c.03.023.058.049.082.077l1.155 1.385a.524.524 0 0 0 .534.166l1.787-.472a.513.513 0 0 1 .627.339c.01.035.017.071.018.108l.082 1.768a.489.489 0 0 0 .33.434l1.737.62a.48.48 0 0 1 .246.724l-1.023 1.477a.468.468 0 0 0 0 .536l1.023 1.477a.473.473 0 0 1-.144.673.52.52 0 0 1-.102.05l-1.737.62a.489.489 0 0 0-.33.435l-.082 1.768a.5.5 0 0 1-.531.465.532.532 0 0 1-.114-.018l-1.787-.472a.524.524 0 0 0-.534.166l-1.155 1.385a.526.526 0 0 1-.798 0l-1.155-1.385a.524.524 0 0 0-.534-.166l-1.787.472a.513.513 0 0 1-.627-.339.466.466 0 0 1-.018-.108l-.082-1.768a.489.489 0 0 0-.33-.434L.33 9.469a.48.48 0 0 1-.246-.724l1.023-1.477a.468.468 0 0 0 0-.536L.085 5.255a.473.473 0 0 1 .144-.673.52.52 0 0 1 .102-.05l1.737-.62a.489.489 0 0 0 .33-.435L2.48 1.71a.5.5 0 0 1 .531-.465.532.532 0 0 1 .114.018l1.787.472a.524.524 0 0 0 .534-.166L6.601.183a.526.526 0 0 1 .716-.077zm-2.903 3.55a.535.535 0 0 0-.757.758l2.598 2.598-2.557 2.574a.535.535 0 0 0 .76.754L7.012 7.77l2.573 2.573a.535.535 0 0 0 .757-.757L7.766 7.009l2.579-2.597a.535.535 0 1 0-.76-.754L7.01 6.252z" fill-rule="evenodd"/>
</symbol><symbol id="icon-note" viewBox="0 0 16 16">
    <title>
        note
    </title>
    <g fill-rule="evenodd">
        <path d="M9.847 1H1.633C1.283 1 1 1.28 1 1.638v12.724c0 .352.287.638.633.638h10.825c.35 0 .633-.28.633-.638v-7.53l-1.856 2.945L6.948 12h3.438c.339 0 .614.224.614.5 0 .278-.275.5-.614.5H3.614C3.275 13 3 12.776 3 12.5c0-.278.275-.5.614-.5h2.55l.07-2h-2.62C3.275 10 3 9.776 3 9.5c0-.278.275-.5.614-.5H6.27l.07-2H3.613C3.275 7 3 6.776 3 6.5c0-.278.275-.5.614-.5h3.09L7.96 4H3.665C3.298 4 3 3.776 3 3.5c0-.278.298-.5.665-.5h4.67c.083 0 .162.011.235.032L9.847 1z"/>
        <path d="M14.111.821l-1.11-.697a.599.599 0 0 0-.825.189l-.437.696 2.122 1.333.438-.696a.598.598 0 0 0-.188-.825zM7.963 7.022l2.122 1.333 3.46-5.507-2.124-1.334-3.458 5.508zm-.325 1.694L7.59 9.968l1.108-.586 1.03-.544L7.68 7.551l-.043 1.165z"/>
    </g>
</symbol><symbol id="icon-oauth2-button" viewBox="0 0 29 24">
    <title>
        oauth2-button
    </title>
    <path d="M15 15.732a2 2 0 1 0-2 0v4.27h2v-4.27zM10.029 10H21.46c.852 0 1.539.67 1.539 1.496v9.008C23 21.32 22.311 22 21.461 22H6.54C5.687 22 5 21.33 5 20.504v-9.008C5 10.68 5.689 10 6.539 10h1.48L8.01 7.728l.01.134a2.729 2.729 0 0 1-.017-.161c-.059-.78.153-1.681.58-2.57C9.421 3.381 11.192 2 13.996 2c2.803 0 4.671 1.383 5.511 3.132a5.049 5.049 0 0 1 .461 2.73l.01-.133-.01 2.272h-1.98V7.728l.01-.134.003-.041a3.133 3.133 0 0 0-.284-1.555c-.458-.954-1.852-1.989-3.721-1.989-1.87 0-3.227 1.035-3.685 1.99a3.133 3.133 0 0 0-.283 1.553l.003.041.01.135L10.028 10z" fill="#FFF" fill-rule="evenodd"/>
</symbol><symbol id="icon-office365-button" viewBox="0 0 29 24">
    <title>
        office365-button
    </title>
    <path d="M23 20.492h-.016V3.558L16.949 1.81 6.033 5.9 6 5.915V18.15l3.726-1.45V6.74L16.95 5.01l-.033 14.642L6 18.15l10.916 4.04 6.068-1.683v-.016" fill-rule="nonzero" fill="#FFF"/>
</symbol><symbol id="icon-one-ticket" viewBox="0 0 48 10">
    <title>
        one-ticket
    </title>
    <g fill-rule="evenodd">
        <path fill="#FFF" d="M37.5 10H0l10-7h37.5z"/>
        <path d="M37.5 8H0l10-8h37.5z"/>
    </g>
</symbol><symbol id="icon-organization" viewBox="0 0 16 16">
    <title>
        organization
    </title>
    <path d="M1 15h7V1H1v14zm2-2H2v-1h1v1zm0-2H2v-1h1v1zm0-2H2V8h1v1zm0-2H2V6h1v1zm0-2H2V4h1v1zM2 3V2h1v1H2zm3 10H4v-1h1v1zm0-2H4v-1h1v1zm0-2H4V8h1v1zm0-2H4V6h1v1zm0-2H4V4h1v1zm0-2H4V2h1v1zm2 10H6v-1h1v1zm0-2H6v-1h1v1zm0-2H6V8h1v1zm0-2H6V6h1v1zm0-2H6V4h1v1zm0-2H6V2h1v1zm1 2v10h7V5H8zm1 8v-1h1v1H9zm1-2H9v-1h1v1zm0-2H9V8h1v1zm0-2H9V6h1v1zm2 6h-1v-1h1v1zm0-2h-1v-1h1v1zm0-2h-1V8h1v1zm0-2h-1V6h1v1zm2 6h-1v-1h1v1zm0-2h-1v-1h1v1zm0-2h-1V8h1v1zm0-2h-1V6h1v1z" fill-rule="evenodd"/>
</symbol><symbol id="icon-outbound-calls" viewBox="0 0 17 17">
    <title>
        outbound-calls
    </title>
    <g fill-rule="evenodd">
        <path d="M10.244 10l3.024-3.122 2.05 2.049L16 2l-6.927.683 2.049 2.049L8 7.854z"/>
        <path d="M2.049 1.598C2.69.956 4.624.85 4.639 1.19c.015.34 1.743 4.104 1.759 4.443.014.34-1.14 1.496-1.478 1.835-.335.336 2.258 3.273 2.307 3.328.056.05 2.987 2.65 3.321 2.314.338-.339 1.492-1.496 1.83-1.48.34.014 4.095 1.746 4.434 1.761.338.016.232 1.954-.41 2.597-.546.548-3.381 2.54-8.311-1.017-.54-.312-1.397-1.027-2.695-2.327l-.002-.002-.004-.003-.002-.003a.047.047 0 0 1-.004-.003c-1.297-1.301-2.01-2.16-2.32-2.701-3.55-4.942-1.562-7.784-1.015-8.333z"/>
    </g>
</symbol><symbol id="icon-overflow-button" viewBox="0 0 3 13">
    <title>
        overflow-button
    </title>
    <path d="M1.5 3a1.5 1.5 0 1 1 0-3 1.5 1.5 0 0 1 0 3zm0 5a1.5 1.5 0 1 1 0-3 1.5 1.5 0 0 1 0 3zm0 5a1.5 1.5 0 1 1 0-3 1.5 1.5 0 0 1 0 3z" fill-rule="evenodd"/>
</symbol><symbol id="icon-overviews" viewBox="0 0 24 24">
    <title>
        overviews
    </title>
    <path d="M10 7h10c1.308 0 2-.895 2-2s-.692-2-2-2H10c-1.307 0-2 .895-2 2s.693 2 2 2zm10 3H10c-1.307 0-2 .897-2 2 0 1.105.693 2 2 2h10c1.308 0 2-.895 2-2 0-1.103-.692-2-2-2zm0 7H10c-1.307 0-2 .897-2 2 0 1.104.693 2 2 2h10c1.308 0 2-.896 2-2 0-1.103-.692-2-2-2zM4 3c-1.325 0-2 .895-2 2s.675 2 2 2 2-.895 2-2-.675-2-2-2zm0 7c-1.325 0-2 .897-2 2 0 1.105.675 2 2 2s2-.895 2-2c0-1.103-.675-2-2-2zm0 7c-1.325 0-2 .897-2 2 0 1.104.675 2 2 2s2-.896 2-2c0-1.103-.675-2-2-2z" fill-rule="evenodd"/>
</symbol><symbol id="icon-package" viewBox="0 0 16 16">
    <title>
        package
    </title>
    <path d="M13.214 11.579V4.737L7.95 7.777l-.66.38V15l5.925-3.421zM7.107 1L1.182 4.421l2.38 1.375 5.926-3.421L7.108 1zm3.262 1.883L4.444 6.305l.447.257 2.216 1.28L9.311 6.57l3.72-2.148-2.662-1.538zM4.21 8.525l-.058-.133-.059.078-.044-.129-.078.068-.037-.129-.08.055-.046-.133-.07.068-.046-.145-.066.089-.032-.14-.074.092-.046-.139-.053.084-.028-.114V6.12L1 4.737v6.842L6.925 15V8.158l-2.67-1.542v1.827l-.044.082z" fill-rule="evenodd"/>
</symbol><symbol id="icon-paperclip" viewBox="0 0 28 28">
    <title>
        paperclip
    </title>
    <path d="M24.613 8.645L13.319 23.114c-.985 1.307-2.318 2.053-3.998 2.24-1.68.249-3.174-.156-4.48-1.213-1.307-1.058-2.054-2.427-2.24-4.108-.187-1.68.217-3.173 1.213-4.48l7.934-10.081-2.054-1.603-7.84 10.097C.36 15.833-.231 17.949.08 20.313c.25 2.427 1.307 4.357 3.174 5.788 1.805 1.431 3.92 2.053 6.347 1.867 2.416-.311 4.31-1.4 5.678-3.267l11.387-14.469c1.048-1.369 1.478-2.925 1.292-4.667-.25-1.753-1.053-3.158-2.412-4.216C24.177.29 22.653-.145 20.973.042c-1.743.187-3.143.965-4.2 2.334L5.867 16.393c-.684.871-.964 1.867-.84 2.987.125 1.058.623 1.93 1.494 2.614.809.684 1.773.964 2.893.84 1.12-.187 1.992-.685 2.614-1.494l7.451-9.521-2.053-1.587-7.452 9.521c-.186.311-.466.467-.84.467a1.252 1.252 0 0 1-1.026-.28c-.374-.187-.56-.498-.56-.933 0-.374.093-.716.28-1.027L18.826 3.962c.622-.808 1.462-1.275 2.52-1.4.996-.062 1.898.218 2.707.84.809.623 1.276 1.468 1.4 2.536.062.996-.218 1.898-.84 2.707z" fill-rule="evenodd"/>
</symbol><symbol id="icon-pen" viewBox="0 0 16 16">
    <title>
        pen
    </title>
    <path d="M12.388 2.112l-1.564-.983a.844.844 0 0 0-1.163.266l-.616.98 2.99 1.879.618-.98a.842.842 0 0 0-.265-1.162zM3.724 10.85l2.99 1.877 4.875-7.76-2.993-1.879-4.872 7.762zm-.458 2.386L3.2 15l1.561-.826 1.45-.766-2.885-1.813-.06 1.641z" fill-rule="evenodd"/>
</symbol><symbol id="icon-person" viewBox="0 0 24 24">
    <title>
        person
    </title>
    <path d="M12.163 5.431c1.453 0 2.63-1.216 2.63-2.716 0-1.5-1.177-2.715-2.63-2.715-1.453 0-2.631 1.216-2.631 2.715 0 1.5 1.178 2.716 2.63 2.716zm3.574.862H8.235c-.641 0-1.161.536-1.161 1.197v6.846c0 .662.52 1.198 1.16 1.198h.358V24h6.65v-8.466h.495c.641 0 1.16-.536 1.16-1.198V7.49c0-.66-.519-1.197-1.16-1.197z" fill-rule="evenodd"/>
</symbol><symbol id="icon-phone" viewBox="0 0 17 17">
    <title>
        phone
    </title>
    <path d="M1.983 1.56c.601-.6 2.415-.701 2.429-.383.013.318 1.634 3.847 1.648 4.165.014.319-1.068 1.403-1.385 1.721-.314.315 2.117 3.068 2.163 3.12.052.047 2.8 2.484 3.113 2.17.317-.319 1.4-1.403 1.717-1.39.317.015 3.838 1.639 4.155 1.653.318.014.218 1.832-.383 2.434-.513.514-3.17 2.382-7.792-.953-.507-.292-1.31-.963-2.527-2.182l-.002-.002c-.002 0-.002-.002-.003-.003l-.003-.003-.003-.002c-1.216-1.22-1.884-2.025-2.176-2.532-3.326-4.633-1.463-7.298-.95-7.812z" fill-rule="evenodd"/>
</symbol><symbol id="icon-plus-small" viewBox="0 0 16 16">
    <title>
        plus-small
    </title>
    <path d="M9 3H7v4H3v2h4v4h2V9h4V7H9z" fill-rule="evenodd"/>
</symbol><symbol id="icon-plus" viewBox="0 0 20 20">
    <title>
        plus
    </title>
    <path d="M12 2V1H9v7H2v3h7v7h3v-7h7V8h-7z" fill-rule="evenodd"/>
</symbol><symbol id="icon-printer" viewBox="0 0 24 24">
    <title>
        printer
    </title>
    <g fill-rule="evenodd">
        <path d="M19 18v-2H5v2H2.992A.994.994 0 0 1 2 17.002V9.998C2 9.447 2.455 9 2.992 9h18.016c.548 0 .992.446.992.998v7.004c0 .551-.455.998-.992.998H19zM5 9v2h14V9H5z"/>
        <path d="M5 2.992C5 2.444 5.39 2 5.876 2H15l4 4v15.008c0 .548-.39.992-.876.992H5.876C5.392 22 5 21.545 5 21.008V2.992zm1 18.016C6 21.003 18 21 18 21V7l-4-4H6v18.008z" fill-rule="nonzero"/>
        <path d="M15 6c0-.005 3 0 3 0l-3-3v3zm-1-4l5 5h-4c-.552 0-1-.455-1-.992V2z" fill-rule="nonzero"/>
    </g>
</symbol><symbol id="icon-radio-checked" viewBox="0 0 11 11">
    <title>
        radio-checked
    </title>
    <g fill-rule="evenodd">
        <circle fill="#000" cx="5.5" cy="5.5" r="2.5"/>
        <path d="M5.5 11a5.5 5.5 0 1 1 0-11 5.5 5.5 0 0 1 0 11zm0-1a4.5 4.5 0 1 0 0-9 4.5 4.5 0 0 0 0 9z" fill="currentColor"/>
    </g>
</symbol><symbol id="icon-radio" viewBox="0 0 11 11">
    <title>
        radio
    </title>
    <g fill-rule="evenodd">
        <path d="M5.5 0a5.5 5.5 0 1 0 0 11 5.5 5.5 0 0 0 0-11z" fill="currentColor"/>
        <path d="M1 5.5a4.5 4.5 0 1 1 9 0 4.5 4.5 0 0 1-9 0z" fill="#FFF"/>
    </g>
</symbol><symbol id="icon-rearange" viewBox="0 0 16 16">
    <title>
        rearange
    </title>
    <g fill-rule="evenodd">
        <path d="M3.98 5H2.5l2.48-4L7.5 5H5.98v8h-2zM9.98 11V3h2v8h1.52l-2.52 4-2.48-4z"/>
    </g>
</symbol><symbol id="icon-received-calls" viewBox="0 0 17 17">
    <title>
        received-calls
    </title>
    <g fill-rule="evenodd">
        <path d="M.988 8.407L8 9l-.593-7.012-2.074 2.074L2.173 1 0 3.173l3.062 3.16z"/>
        <path d="M15.951 1.598c-.641-.642-2.575-.748-2.59-.409-.015.34-1.743 4.104-1.759 4.443-.014.34 1.14 1.496 1.478 1.835.335.336-2.258 3.273-2.307 3.328-.056.05-2.987 2.65-3.321 2.314-.338-.339-1.492-1.496-1.83-1.48-.34.014-4.095 1.746-4.434 1.761-.338.016-.232 1.954.41 2.597.546.548 3.381 2.54 8.311-1.017.54-.312 1.397-1.027 2.695-2.327l.002-.002.004-.003.002-.003a.047.047 0 0 0 .004-.003c1.297-1.301 2.01-2.16 2.32-2.701 3.55-4.942 1.562-7.784 1.015-8.333z"/>
    </g>
</symbol><symbol id="icon-reload" viewBox="0 0 16 16">
    <title>
        reload
    </title>
    <path d="M10.921 12.21a5.024 5.024 0 0 1-2.967.913 5.452 5.452 0 0 1-.414-.02c-.056-.006-.112-.015-.169-.022a4.576 4.576 0 0 1-.32-.05c-.064-.012-.127-.027-.191-.043a4.934 4.934 0 0 1-.306-.078c-.048-.015-.095-.032-.143-.048a4.76 4.76 0 0 1-.343-.126c-.026-.01-.05-.022-.076-.034a5.051 5.051 0 0 1-.386-.186l-.016-.01a5.08 5.08 0 0 1-1.153-.862l-.017-.018a5.208 5.208 0 0 1-.302-.333l-.06-.076a5.038 5.038 0 0 1-1.11-3.157H4.28l-2.133-3.2-2.134 3.2h1.334c0 1.403.437 2.703 1.18 3.778.01.016.016.031.026.046.077.11.163.211.245.316.03.04.06.08.091.118.122.147.252.287.384.422l.038.039c.445.447.948.823 1.497 1.123l.044.025c.159.085.32.162.486.234.04.018.08.038.122.055.141.059.285.11.43.157a4.42 4.42 0 0 0 .597.17c.087.02.173.042.262.06.036.007.07.018.108.024.123.022.247.034.37.049.046.005.09.013.135.018.221.021.443.036.665.036a6.621 6.621 0 0 0 3.812-1.21.8.8 0 1 0-.918-1.31zm2.586-7.919c-.01-.018-.018-.036-.03-.054-.092-.13-.192-.253-.292-.376l-.034-.045a6.6 6.6 0 0 0-2.489-1.87l-.08-.035a6.941 6.941 0 0 0-.469-.172c-.057-.02-.113-.04-.17-.057a7.009 7.009 0 0 0-.42-.109c-.079-.017-.156-.037-.235-.053-.038-.007-.076-.019-.114-.026-.106-.018-.21-.026-.317-.04-.073-.009-.145-.02-.218-.028a6.763 6.763 0 0 0-.53-.026c-.032 0-.062-.005-.094-.005a6.643 6.643 0 0 0-3.824 1.206.8.8 0 1 0 .918 1.31 5.026 5.026 0 0 1 3.388-.891c.045.004.09.011.135.017.12.015.24.031.357.054.052.01.103.024.154.036.116.026.231.054.344.088.035.01.07.024.106.036.13.042.256.087.38.14.013.004.025.01.038.016.745.32 1.4.814 1.91 1.432a5.06 5.06 0 0 1 1.16 3.22h-1.334l2.135 3.2 2.132-3.2h-1.332a6.627 6.627 0 0 0-1.175-3.768z" fill-rule="evenodd"/>
</symbol><symbol id="icon-reopening" viewBox="0 0 68 47">
    <title>
        reopening
    </title>
    <g fill-rule="evenodd">
        <path d="M39.3 18.7h21.1c3.6 0 6.4 2.3 7.3 5.7.1.6.2 1.1.2 1.7v13.8c0 3.4-2.8 6.4-6.1 6.9-.4.1-.8.1-1.2.1H38.7c-3.7 0-6.7-2.5-7.3-6.1-.1-.5-.1-.9-.1-1.4V26.2c0-2.4.9-4.3 2.8-5.8.3-.2.3-.4.3-.7v-8.2c0-5.4 3.7-10 8.9-11.2.8-.2 1.6-.3 2.4-.3h7.9C59.8 0 65 5.2 64.9 11.5c0 1.4-1.1 2.5-2.4 2.5-1.4.1-2.6-.9-2.7-2.2-.1-1.1-.2-2.2-.7-3.2-1.2-2.1-2.9-3.3-5.3-3.3-2.8-.1-5.6-.1-8.4 0-2.7 0-5.4 2.4-5.6 5.1-.6 2.6-.5 5.5-.5 8.3zm7.9 12c.2.7.1 1.4-.1 2-.2.8-.4 1.5-.6 2.3-.2.5 0 1 .3 1.3 1.7 1.5 3.4 1.6 5.1-.1.3-.3.4-.7.3-1.2-.3-1-.6-2.1-.8-3.1-.1-.3 0-.6 0-.8.6-1.4-.5-3-2-3-1.4 0-2.6 1.3-2.2 2.6z"/>
        <path d="M20.8 18.3c-.3-1.1-.8-1.9-1.8-2.5V11h-.3c0-4-2.6-6.6-6.2-6.6H8.1c-.5 0-.8 0-1.3.1-3 .7-5.1 3.3-5.1 6.4v4.7c0 .2 0 .3-.2.4-1 .9-1.5 2-1.5 3.3v7.5c0 .3 0 .5.1.8.4 2.1 2 3.5 4.1 3.5h12.5c.2 0 .5 0 .7-.1 1.9-.3 3.5-2 3.5-3.9.1-2.6.1-5.2.1-7.8 0-.3-.1-.7-.2-1zM4.9 10.2C5 8.7 6.6 7.4 8.1 7.3h4.8c1.4 0 2.4.9 3 2.1.3.5.3 1.6.4 1.6l-.038 4.099S8.742 15 5.3 15h-.5c0-2 0-3.2.1-4.8zM12 25.1c-1 .9-1.9.9-2.9 0-.2-.2-.3-.4-.2-.8.1-.4.2-.9.3-1.3.1-.4.2-.7 0-1.1-.2-.8.4-1.5 1.2-1.5.9 0 1.5.9 1.2 1.7 0 .1-.1.3 0 .5.1.6.3 1.2.4 1.8.2.2.2.5 0 .7z" fill="#A9BCC4" opacity=".4"/>
        <path d="M19.944 41H10v-7h1v6h8.483L17.7 36.9l9.9 4-9.9 4.1 2.244-4z" fill="#A9BCC4"/>
    </g>
</symbol><symbol id="icon-reply-all" viewBox="0 0 16 17">
    <title>
        reply-all
    </title>
    <path d="M6.26 2.277L1.94 5.12l4.32 2.834v1.271L0 5.121 6.26 1v1.277zm3.88 4.396v2.553L3.879 5.121 10.139 1v2.505c3.51 0 5.861 2.311 5.861 5.77 0 3.474-2.352 6.27-5.86 6.27 2.344 0 4.246-1.874 4.246-4.202 0-2.31-1.902-4.67-4.246-4.67z" fill-rule="evenodd"/>
</symbol><symbol id="icon-reply" viewBox="0 0 16 17">
    <title>
        reply
    </title>
    <path d="M8.14 6.67c2.344 0 4.246 2.362 4.246 4.673 0 2.328-1.902 4.202-4.246 4.202 3.508 0 5.86-2.796 5.86-6.27 0-3.459-2.352-5.77-5.86-5.77V1L1.879 5.121l6.26 4.105V6.67z" fill-rule="evenodd"/>
</symbol><symbol id="icon-report" viewBox="0 0 20 20">
    <title>
        report
    </title>
    <path d="M0 6h5v14H0V6zm7-6h6v20H7V0zm8 13h5v7h-5v-7z" fill-rule="evenodd"/>
</symbol><symbol id="icon-searchdetail" viewBox="0 0 18 14">
    <title>
        searchdetail
    </title>
    <g fill-rule="evenodd">
        <path d="M13.21 8.62a1.602 1.602 0 0 1-1.59-1.61 1.604 1.604 0 0 1 1.6-1.59h.01c.427.003.827.172 1.127.476.3.304.463.707.46 1.134-.003.425-.17.826-.471 1.125-.301.3-.702.465-1.126.465h-.01M10 6.953a3.172 3.172 0 0 0 4.768 2.76l1.926 1.93.05.047a.37.37 0 0 0 .526 0l.621-.62a.375.375 0 0 0 0-.527l-.048-.05-1.93-1.93A3.17 3.17 0 0 0 13.191 3.8 3.177 3.177 0 0 0 10 6.953z" opacity=".5"/>
        <path d="M0 1c0-.552.449-1 1.007-1h12.986C14.549 0 15 .444 15 1c0 .552-.449 1-1.007 1H1.007A1.001 1.001 0 0 1 0 1zm0 4c0-.552.446-1 .998-1h7.004C8.553 4 9 4.444 9 5c0 .552-.446 1-.998 1H.998A.996.996 0 0 1 0 5zm0 4c0-.552.446-1 .998-1h7.004C8.553 8 9 8.444 9 9c0 .552-.446 1-.998 1H.998A.996.996 0 0 1 0 9zm0 4c0-.552.449-1 1.007-1h12.986c.556 0 1.007.444 1.007 1 0 .552-.449 1-1.007 1H1.007A1.001 1.001 0 0 1 0 13z"/>
    </g>
</symbol><symbol id="icon-signed" viewBox="0 0 14 14">
    <title>
        signed
    </title>
    <path d="M7.317.106c.03.023.058.049.082.077l1.155 1.385a.524.524 0 0 0 .534.166l1.787-.472a.513.513 0 0 1 .627.339c.01.035.017.071.018.108l.082 1.768a.489.489 0 0 0 .33.434l1.737.62a.48.48 0 0 1 .246.724l-1.023 1.477a.468.468 0 0 0 0 .536l1.023 1.477a.473.473 0 0 1-.144.673.52.52 0 0 1-.102.05l-1.737.62a.489.489 0 0 0-.33.435l-.082 1.768a.5.5 0 0 1-.531.465.532.532 0 0 1-.114-.018l-1.787-.472a.524.524 0 0 0-.534.166l-1.155 1.385a.526.526 0 0 1-.798 0l-1.155-1.385a.524.524 0 0 0-.534-.166l-1.787.472a.513.513 0 0 1-.627-.339.466.466 0 0 1-.018-.108l-.082-1.768a.489.489 0 0 0-.33-.434L.33 9.469a.48.48 0 0 1-.246-.724l1.023-1.477a.468.468 0 0 0 0-.536L.085 5.255a.473.473 0 0 1 .144-.673.52.52 0 0 1 .102-.05l1.737-.62a.489.489 0 0 0 .33-.435L2.48 1.71a.5.5 0 0 1 .531-.465.532.532 0 0 1 .114.018l1.787.472a.524.524 0 0 0 .534-.166L6.601.183a.526.526 0 0 1 .716-.077zM10.6 4S7.804 5.156 5.638 7.868l-.087-.086c-.256-.251-1.024-.98-1.498-1.189-.576-.253-.953.615-.953.615s1.432 1.25 3.062 2.928C7.963 6.528 10.6 4.708 10.6 4.708V4z" fill-rule="evenodd"/>
</symbol><symbol id="icon-signout" viewBox="0 0 15 19">
    <title>
        signout
    </title>
    <g fill="#0F94D7" fill-rule="evenodd">
        <path d="M6 12V7H1v5h5zm0 3l5.6-5.5L6 4v11z"/>
        <path d="M4 0v2h9v15H4v2h11V0z"/>
    </g>
</symbol><symbol id="icon-small-dot" viewBox="0 0 16 16">
    <title>
        small-dot
    </title>
    <circle cx="8" cy="8" r="3" fill-rule="evenodd"/>
</symbol><symbol id="icon-sms" viewBox="0 0 17 17">
    <title>
        sms
    </title>
    <path d="M7.616 13.923L3.25 16.75l.714-3.847C1.582 11.69 0 9.546 0 7.105 0 3.319 3.806.25 8.5.25S17 3.319 17 7.105c0 3.786-3.806 6.855-8.5 6.855-.298 0-.593-.013-.884-.037zm-3.71-9.248c-.984 0-1.708.522-1.708 1.338 0 .689.39 1.117 1.448 1.438.69.208.868.361.868.703 0 .354-.287.568-.752.568-.47 0-.847-.167-1.195-.455L2 8.877c.39.367.977.661 1.797.661 1.181 0 1.878-.602 1.878-1.465 0-.856-.512-1.217-1.407-1.498-.738-.228-.915-.348-.915-.642 0-.295.246-.455.635-.455.382 0 .71.127 1.038.388l.52-.596c-.417-.388-.916-.595-1.64-.595zm6.729.114H9.214L8.55 7.933l-.71-3.144H6.427L6.07 9.425h1.093l.082-1.8c.028-.649.028-1.224-.02-1.906l.779 3.217h1.059l.73-3.217c-.034.575-.02 1.244.014 1.893l.082 1.813h1.1l-.355-4.636zm2.596-.114c-.984 0-1.708.522-1.708 1.338 0 .689.39 1.117 1.448 1.438.69.208.868.361.868.703 0 .354-.287.568-.752.568-.471 0-.847-.167-1.195-.455l-.567.61c.39.367.977.661 1.796.661 1.182 0 1.879-.602 1.879-1.465 0-.856-.512-1.217-1.407-1.498-.738-.228-.916-.348-.916-.642 0-.295.246-.455.636-.455.382 0 .71.127 1.038.388l.52-.596c-.418-.388-.916-.595-1.64-.595z" fill-rule="evenodd"/>
</symbol><symbol id="icon-spinner-small" viewBox="0 0 15 15">
    <title>
        spinner-small
    </title>
    <g fill-rule="evenodd">
        <path d="M6.875.625a.625.625 0 1 1 1.25 0v2.5a.625.625 0 1 1-1.25 0v-2.5z" fill-opacity=".35" fill-rule="nonzero"/>
        <path d="M11.92 2.197a.625.625 0 0 1 .883.884l-1.767 1.767a.625.625 0 1 1-.884-.884l1.767-1.767z" fill-opacity=".16" fill-rule="nonzero"/>
        <path d="M14.375 6.875a.625.625 0 1 1 0 1.25h-2.5a.625.625 0 1 1 0-1.25h2.5z" fill="none"/>
        <path d="M12.803 11.92a.625.625 0 0 1-.884.883l-1.767-1.767a.625.625 0 1 1 .884-.884l1.767 1.767z" fill-rule="nonzero"/>
        <path d="M8.125 14.375a.625.625 0 1 1-1.25 0v-2.5a.625.625 0 1 1 1.25 0v2.5z" fill-opacity=".91" fill-rule="nonzero"/>
        <path d="M3.08 12.803a.625.625 0 0 1-.883-.884l1.767-1.767a.625.625 0 1 1 .884.884l-1.767 1.767z" fill-opacity=".8" fill-rule="nonzero"/>
        <path d="M.625 8.125a.625.625 0 1 1 0-1.25h2.5a.625.625 0 1 1 0 1.25h-2.5z" fill-opacity=".67" fill-rule="nonzero"/>
        <path d="M2.197 3.08a.625.625 0 1 1 .884-.883l1.767 1.767a.625.625 0 0 1-.884.884L2.197 3.081z" fill-opacity=".52" fill-rule="nonzero"/>
    </g>
</symbol><symbol id="icon-split" viewBox="0 0 16 17">
    <title>
        split
    </title>
    <path d="M4.443 6.218l.42-.343C6.415 4.589 7 3.514 7 1h2c0 2.514.584 3.589 2.138 4.875l.42.343C13.293 7.64 14 8.773 14 11h-4l3 3.333L16 11h-4c0-1.526-.393-2.156-1.71-3.235.038.031-.327-.266-.428-.35C8.945 6.655 8.5 6.5 8 5.4c-.5 1.1-.945 1.256-1.862 2.015-.101.084-.466.381-.428.35C4.393 8.845 4 9.474 4 11H2h4l-3 3.333L0 11h2c0-2.227.706-3.36 2.443-4.782z" fill-rule="evenodd"/>
</symbol><symbol id="icon-sso-button" viewBox="0 0 96.57 79.92">
    <path d="M10.41 41.942c0-1.657 1.325-2.983 3.314-2.983a2.97 2.97 0 0 1 2.982 2.983 2.97 2.97 0 0 1-2.982 2.982c-1.989 0-3.314-1.325-3.314-2.982zm21.872-4.64c0-1.325.994-2.32 2.32-2.32 1.325 0 2.32.995 2.32 2.32 0 1.326-.995 1.988-2.32 1.988-1.326 0-2.32-.662-2.32-1.988zm-7.622 0c0-.663.662-1.325 1.657-1.325.662 0 1.325.662 1.325 1.325 0 .663-.663 1.326-1.325 1.326-.995 0-1.657-.663-1.657-1.326zm18.226 1.988c-.994 0-1.988-.662-1.988-1.988 0-1.325.994-2.32 1.988-2.32 1.326 0 2.32.995 2.32 2.32 0 1.326-.994 1.988-2.32 1.988zm-8.285 5.634c-.662 0-1.325-.663-1.325-1.325 0-.995.663-1.657 1.325-1.657.663 0 1.326.662 1.326 1.657 0 .662-.663 1.325-1.326 1.325zm20.547-4.64c0-2.65.662-5.302 1.325-7.621.663-1.326.994-2.651 1.657-3.646h-8.616c-.663 0-.994.663-.994 1.326v2.32H13.06c-4.97 0-9.61 2.65-12.593 7.622 2.983 4.64 7.622 7.29 12.593 7.29H48.52v2.651c0 .663.331.995.994.995h8.616c-.663-.995-.994-2.32-1.657-3.646-.663-2.32-1.325-4.64-1.325-7.29z"/>
    <path d="M86.63 40.285c0 2.32-2.32 4.64-4.64 4.64-2.65 0-4.97-2.32-4.97-4.64 0-2.652 2.32-4.64 4.97-4.64 2.32 0 4.64 1.988 4.64 4.64zm9.61 0c0-10.936-8.616-19.552-19.22-19.552-7.291 0-13.588 3.976-16.902 9.61-1.656 2.982-2.65 6.296-2.65 9.942 0 3.314.994 6.627 2.65 9.61 3.314 5.634 9.61 9.61 16.901 9.61 10.605 0 19.221-8.616 19.221-19.22z"/>
</symbol><symbol id="icon-status-modified-outer-circle" viewBox="0 0 16 16">
    <title>
        status-modified-outer-circle
    </title>
    <path d="M8 14A6 6 0 1 0 8 2a6 6 0 0 0 0 12zm0-1A5 5 0 1 0 8 3a5 5 0 0 0 0 10z" fill-rule="evenodd"/>
</symbol><symbol id="icon-status" viewBox="0 0 16 16">
    <title>
        status
    </title>
    <circle cx="8" cy="8" r="4" fill-rule="evenodd"/>
</symbol><symbol id="icon-stopwatch" viewBox="0 0 77 83">
    <title>
        stopwatch
    </title>
    <g fill="none" fill-rule="evenodd">
        <path d="M10.5 24.8c-1-.9-2.1-1.9-3-2.8l6.2-6.2c.8.9 1.7 1.9 2.6 2.9.8-.6 1.4-1.1 2-1.5 3.9-2.9 8.2-4.9 12.9-6 .7-.2.9-.4.9-1.1-.1-1.7 0-3.4 0-5.2h15.4v6C60.3 14.2 69.4 21.8 74 34.1c3.6 9.6 3 19.2-1.4 28.4-8.9 18.6-31.4 25.9-49.9 16.2-19-9.9-25.9-35.4-12.2-53.9zM40.048 75c15.134 0 27.644-12.107 27.947-27.442.302-16.143-12.712-28.25-27.442-28.552C25.318 18.703 12.203 30.91 12 46.549 11.9 62.489 24.309 75 40.048 75zM14.9 12.4c-.3.5-.4 1.1-.8 1.5-2.9 2.9-5.8 5.8-8.6 8.7-.7.7-1.5.8-2.4.5-1.3-.4-2.1-1.3-2.5-2.5-.3-.9-.2-1.7.5-2.5l8.6-8.6c.6-.6 1.4-.8 2.2-.6 1.5.3 2.8 1.9 3 3.5zm18.8-8.5c-.2-1.4.3-2.6 1.6-3.1 2.9-1.1 5.9-1.1 8.9 0 1.2.4 1.8 1.6 1.7 3.1H33.7z" fill="#A9BCC4"/>
        <circle opacity=".3" cx="39.902" cy="46.902" r="24.902"/>
    </g>
</symbol><symbol id="icon-strikethrough" viewBox="0 0 12 12">
    <title>
        strikethrough
    </title>
    <g fill-rule="evenodd">
        <path d="M1 6h10v1H1z"/>
        <path d="M6.075 1c1.32 0 2.149.393 2.935 1.11l-.66.744c-.73-.59-1.404-.843-2.219-.843-1.025 0-1.798.492-1.798 1.433 0 .857.408 1.264 2.15 1.798 1.586.477 2.836 1.095 2.836 2.907C9.32 9.834 8.055 11 5.934 11c-1.376 0-2.443-.463-3.244-1.236l.688-.772c.716.618 1.475.997 2.542.997 1.18 0 2.135-.604 2.135-1.798 0-.997-.477-1.433-2.135-1.938-1.896-.576-2.837-1.292-2.837-2.767C3.083 2.039 4.32 1 6.075 1z"/>
    </g>
</symbol><symbol id="icon-switchView" viewBox="0 0 19 18">
    <title>
        switchView
    </title>
    <path d="M9.75 7.595c-.6 0-1.1.5-1.1 1.1 0 .6.5 1.1 1.1 1.1.6 0 1.1-.5 1.1-1.1.1-.5-.4-1.1-1.1-1.1zm0-2.1c-3 0-6.1 3.3-6.1 3.3s3 3.3 6.1 3.3c3 0 6.1-3.3 6.1-3.3s-3-3.3-6.1-3.3zm0 5.6c-1.3 0-2.3-1-2.3-2.3 0-1.3 1-2.3 2.3-2.3 1.3 0 2.3 1 2.3 2.3.1 1.3-1 2.3-2.3 2.3zm-3.5-9.201c1.6-.8 3.4-1 5.3-.6l.3-1c-4.9-1.201-9.2 1.4-10.7 5.7-.8 2.301-.8 4.602.2 6.702l.5.8-2.1.6 4.5 3.201.4-4.901v-.6l-1.9 1.4-.3-.8c-.9-1.9-1-4-.3-6.001.7-2 2.2-3.601 4.1-4.501zm10.9 2.4l2.1-.5-4.5-3.2-.4 5.5 2-1.5.5.9c1 1.9 1.2 4.101.5 6.102-.7 2-2 3.7-3.9 4.6-1.6.801-3.9.801-4.9.701l-.3 1c3.9.8 8.7-1.6 10.2-5.901.8-2.3.5-4.701-.6-6.902l-.7-.8z" fill="#FFF" fill-rule="evenodd"/>
</symbol><symbol id="icon-task-state" viewBox="0 0 16 16">
    <title>
        task-state
    </title>
    <path d="M8 13.5a5.5 5.5 0 1 0 0-11 5.5 5.5 0 0 0 0 11zm0-2.375a3.125 3.125 0 1 0 0-6.25 3.125 3.125 0 0 0 0 6.25z" fill-rule="evenodd"/>
</symbol><symbol id="icon-team" viewBox="0 0 16 16">
    <title>
        team
    </title>
    <path d="M10.631 7.044s-.098.305-.113.346c-.016.04-.11.167-.09.167.02 0 .23.097.23.097l.81.251-.013.382c-.07.01-.35.196-.391.287-.027.06-.086.167-.143.24.738.298 1.17.734 1.187 1.221.012.087.46 1.685.485 2.044h3.408c.003-.015-.103-2.081-.104-2.097 0 0-.195-.497-.505-.548-.31-.05-.71-.159-.876-.285-.097-.074-.414-.202-.561-.255-.069-.025-.186-.228-.227-.32-.04-.091-.32-.276-.391-.287l-.012-.381.81-.252s.209-.097.229-.097c.02 0-.097-.153-.112-.194-.015-.04-.091-.319-.091-.319s.273.334.412.397c0 0-.272-.511-.353-.796a5.032 5.032 0 0 1-.135-.77c0-.041-.169-1.236-.26-1.434-.091-.199-.216-.468-.428-.6-.213-.133-.528-.32-.98-.346l-.02-.001h-.021c-.453.026-.768.214-.98.346-.213.133-.337.402-.429.6-.091.199-.26 1.394-.26 1.435 0 .04-.047.503-.128.788-.081.285-.359.778-.359.778.139-.063.411-.397.411-.397zm-7.047 3.31v-.022l.002-.02c.22-.952 1.368-1.407 1.994-1.68 0 0-.001 0 0 0-.38-.173-.58-.303-.675-.324-.038-.077-.12-.659-.12-.659s.456-.403.559-1.177c0 0 .225.125.239-.345.01-.363.073-.505-.174-.61 0 0 .018-.251.026-.474.012-.33.073-.793-.498-1.165-.081-.053-.5-.286-.503-.285-.149-.09-.338-.148-.338-.148l.006.136-.03-.03c-.038-.039-.06-.189-.056-.248l.008-.106c-.27.202-.457.463-.457.463l.024-.252s-.05.077-.669.463c-.607.38-.506.938-.49 1.27.012.222.034.375.034.375-.247.106-.118.258-.111.62.008.501.26.413.26.413.117.683.475 1.1.475 1.1s-.101.585-.14.66c-.112.024-.37.202-.912.428-.799.332-.548.14-1.198.464-1.027.514-.824 2.657-.824 2.657h3.237l.331-1.505zm8.82 2.906c0-.61-.689-3.194-.689-3.194 0-.377-.496-.808-1.475-1.06-.508-.13-.934-.422-.934-.422-.063-.036-.053-.365-.053-.365l-.316-.048c0-.027-.026-.422-.026-.422.377-.126.338-.868.338-.868.24.132.395-.455.395-.455.283-.816-.141-.767-.141-.767.135-.61 0-1.503 0-1.503-.189-1.652-3.028-1.204-2.691-.664-.83-.153-.64 1.724-.64 1.724l.18.485c-.354.227-.109.503-.097.82.018.468.305.371.305.371.018.773.401.874.401.874.072.485.028.403.028.403l-.342.04c.016.123-.027.33-.027.33-.402.177-.487.282-.886.455-.77.335-1.608.772-1.757 1.359-.148.587-.59 2.907-.59 2.907h9.018z" fill-rule="evenodd"/>
</symbol><symbol id="icon-telegram" viewBox="0 0 17 17">
    <title>
        telegram
    </title>
    <g fill-rule="evenodd">
        <path d="M5.896 9.652l.722 2.378c.095.262.048.366.324.366.212 0 .306-.097.425-.213l1.02-.992 2.125 1.569c.39.216.673.104.77-.363l1.394-6.57c.143-.573-.218-.833-.592-.663L3.897 8.321c-.56.224-.556.536-.102.675l2.1.656zM8.5 17a8.5 8.5 0 1 1 0-17 8.5 8.5 0 0 1 0 17z" fill-rule="nonzero"/>
        <path d="M6.942 12.396c-.276 0-.229-.104-.324-.366l-.81-2.665 6.234-3.698" fill-opacity=".08" fill-rule="nonzero"/>
        <path d="M6.942 12.396c.212 0 .306-.097.425-.213L8.5 11.081l-1.414-.852" fill-opacity=".13"/>
    </g>
</symbol><symbol id="icon-templates" viewBox="0 0 24 24">
    <title>
        templates
    </title>
    <path d="M2.995 1C2.445 1 2 1.44 2 2.002v19.996C2 22.55 2.45 23 2.995 23h17.01c.55 0 .995-.44.995-1.002V2.002C21 1.45 20.55 1 20.005 1H2.995zm3.003 4A.996.996 0 0 0 5 6c0 .552.446 1 .998 1h7.004c.551 0 .998-.444.998-1 0-.552-.446-1-.998-1H5.998zM6 9a1 1 0 0 0 0 2h11.026a1 1 0 0 0 0-2H6.001zm0 4a1 1 0 0 0 0 2h11.026a1 1 0 0 0 0-2H6.001zm0 4a1 1 0 0 0 0 2h11.026a1 1 0 0 0 0-2H6.001z" fill-rule="evenodd"/>
</symbol><symbol id="icon-tools" viewBox="0 0 24 24">
    <title>
        tools
    </title>
    <path d="M3.435 2.003l2.37 1.711v.659l5.003 5.135-1.185 1.185-5.267-5.135h-.658l-1.58-2.239 1.317-1.316zm11.85 10.401l6.32 6.32c.527.527.527 1.712 0 2.239l-.527.527c-.526.526-1.843.395-2.37-.132L12.652 15.3l2.633-2.897zm.395-7.241l2.897 3.028 3.16-2.897S22 8.85 20.288 10.166c-1.711 1.317-1.58 1.185-3.16.922-1.58-.264-2.106.131-2.633.658-.527.527-8.559 9.085-9.085 9.612-.527.527-1.449.79-2.107.132l-.79-.79c-.79-.79-.57-1.67 0-2.239.658-.658 9.875-9.348 9.875-9.348s.79-.395.527-2.107c-.263-1.712-1.185-1.975 1.053-3.555 2.239-1.58 4.74-1.448 4.74-1.448l-3.028 3.16z" fill-rule="evenodd"/>
</symbol><symbol id="icon-total-tickets" viewBox="0 0 48 83">
    <title>
        total-tickets
    </title>
    <g fill="none" fill-rule="evenodd">
        <path fill="#DDE5E8" d="M37.5 83H0l10-8h37.5z"/>
        <path fill="#FFF" d="M37.5 80H0l10-7h37.5z"/>
        <path fill="#DDE5E8" d="M37.5 78H0l10-8h37.5z"/>
        <path fill="#FFF" d="M37.5 75H0l10-7h37.5z"/>
        <path fill="#DDE5E8" d="M37.5 73H0l10-8h37.5z"/>
        <path fill="#FFF" d="M37.5 70H0l10-7h37.5z"/>
        <path fill="#DDE5E8" d="M37.5 68H0l10-8h37.5z"/>
        <path fill="#FFF" d="M37.5 65H0l10-7h37.5z"/>
        <path fill="#DDE5E8" d="M37.5 63H0l10-8h37.5z"/>
        <path fill="#FFF" d="M37.5 60H0l10-7h37.5z"/>
        <path fill="#DDE5E8" d="M37.5 58H0l10-8h37.5z"/>
        <path fill="#FFF" d="M37.5 55H0l10-7h37.5z"/>
        <path fill="#DDE5E8" d="M37.5 53H0l10-8h37.5z"/>
        <path fill="#FFF" d="M37.5 50H0l10-7h37.5z"/>
        <path fill="#DDE5E8" d="M37.5 48H0l10-8h37.5z"/>
        <path fill="#FFF" d="M37.5 45H0l10-7h37.5z"/>
        <path fill="#DDE5E8" d="M37.5 43H0l10-8h37.5z"/>
        <path fill="#FFF" d="M37.5 40H0l10-7h37.5z"/>
        <path fill="#DDE5E8" d="M37.5 38H0l10-8h37.5z"/>
        <path fill="#FFF" d="M37.5 35H0l10-7h37.5z"/>
        <path fill="#DDE5E8" d="M37.5 33H0l10-8h37.5z"/>
        <path fill="#FFF" d="M37.5 30H0l10-7h37.5z"/>
        <path fill="#DDE5E8" d="M37.5 28H0l10-8h37.5z"/>
        <path fill="#FFF" d="M37.5 25H0l10-7h37.5z"/>
        <path fill="#DDE5E8" d="M37.5 23H0l10-8h37.5z"/>
        <path fill="#FFF" d="M37.5 20H0l10-7h37.5z"/>
        <path fill="#DDE5E8" d="M37.5 18H0l10-8h37.5z"/>
        <path fill="#FFF" d="M37.5 15H0l10-7h37.5z"/>
        <path fill="#DDE5E8" d="M37.5 13H0l10-8h37.5z"/>
        <path fill="#FFF" d="M37.5 10H0l10-7h37.5z"/>
        <path fill="#DDE5E8" d="M37.5 8H0l10-8h37.5z"/>
    </g>
</symbol><symbol id="icon-trash" viewBox="0 0 16 16">
    <title>
        trash
    </title>
    <path d="M3.89 14.006c.06.55.558.994 1.11.994h6c.552 0 1.05-.445 1.11-.994L13 6H3l.89 8.006zM5 3l.75-2h4.5L11 3h2c1 0 1 2 1 2H2s0-2 1-2h2zm1 0h4l-.5-1h-3L6 3z" fill-rule="evenodd"/>
</symbol><symbol id="icon-twitter-button" viewBox="0 0 29 24">
    <title>
        twitter-button
    </title>
    <path d="M24.172 5.163a5.043 5.043 0 0 0 2.165-2.794 9.71 9.71 0 0 1-3.127 1.225A4.861 4.861 0 0 0 19.616 2c-2.719 0-4.924 2.26-4.924 5.049 0 .396.044.781.128 1.15-4.092-.21-7.72-2.22-10.15-5.275a5.123 5.123 0 0 0-.666 2.538c0 1.752.87 3.298 2.19 4.203a4.812 4.812 0 0 1-2.23-.632v.064c0 2.446 1.697 4.487 3.95 4.95a4.815 4.815 0 0 1-2.224.087c.627 2.006 2.445 3.466 4.6 3.507A9.725 9.725 0 0 1 3 19.73 13.687 13.687 0 0 0 10.548 22c9.057 0 14.01-7.693 14.01-14.366 0-.219-.005-.436-.015-.653.962-.712 1.797-1.6 2.457-2.614a9.652 9.652 0 0 1-2.828.796z" fill="#FFF" fill-rule="evenodd"/>
</symbol><symbol id="icon-twitter" viewBox="0 0 17 17">
    <title>
        twitter
    </title>
    <path d="M14.176 4.983a3.895 3.895 0 0 0 1.419-1.685c-.609.396-1.318.595-2.027.694-.609-.595-1.42-.992-2.23-.992-1.723 0-3.142 1.388-3.142 3.074 0 .199 0 .496.101.695-2.635-.1-4.865-1.389-6.385-3.174a2.752 2.752 0 0 0-.405 1.488c0 1.09.507 1.983 1.419 2.578-.507 0-1.014-.198-1.42-.397 0 1.488 1.116 2.678 2.535 2.976-.305.099-.507.099-.811.099-.203 0-.406 0-.608-.1a3.068 3.068 0 0 0 2.939 2.083c-1.115.794-2.433 1.29-3.852 1.29H1A8.888 8.888 0 0 0 5.764 15c5.777 0 8.817-4.661 8.817-8.628v-.397A6.735 6.735 0 0 0 16 4.488c-.608.198-1.115.396-1.824.495z" fill-rule="evenodd"/>
</symbol><symbol id="icon-underline" viewBox="0 0 12 12">
    <title>
        underline
    </title>
    <g fill-rule="evenodd">
        <path d="M9 1v5.12C9 7.803 7.98 9 6 9 3.994 9 3 7.803 3 6.12V1h1.125v4.727c0 1.347.564 2.182 1.875 2.182 1.324 0 1.875-.835 1.875-2.182V1H9zM3 10h6v1H3z"/>
    </g>
</symbol><symbol id="icon-unmute" viewBox="0 0 16 16">
    <title>
        unmute
    </title>
    <g fill-rule="evenodd">
        <path d="M1 6v4h3l4 3V3L4 6zM10.327 5.115c2.231 1.455 2.231 4.315 0 5.77a.5.5 0 1 0 .546.838c2.837-1.85 2.837-5.596 0-7.446a.5.5 0 0 0-.546.838zm1.2-1.422c3.322 2.166 3.322 6.448 0 8.614a.5.5 0 1 0 .546.838c3.928-2.56 3.928-7.73 0-10.29a.5.5 0 0 0-.546.838zm-2.3 2.988c1.03.671 1.03 1.967 0 2.638a.5.5 0 1 0 .546.838c1.636-1.066 1.636-3.248 0-4.314a.5.5 0 1 0-.546.838z"/>
    </g>
</symbol><symbol id="icon-unordered-list" viewBox="0 0 12 12">
    <title>
        unordered-list
    </title>
    <g fill-rule="evenodd">
        <path d="M4 1h7v1H4zM2.5 2.1a.6.6 0 1 0 0-1.2.6.6 0 0 0 0 1.2zM4 4h7v1H4zM2.5 5.1a.6.6 0 1 0 0-1.2.6.6 0 0 0 0 1.2zM4 7h7v1H4zM2.5 8.1a.6.6 0 1 0 0-1.2.6.6 0 0 0 0 1.2zM4 10h7v1H4zM2.5 11.1a.6.6 0 1 0 0-1.2.6.6 0 0 0 0 1.2z"/>
    </g>
</symbol><symbol id="icon-user" viewBox="0 0 16 16">
    <title>
        user
    </title>
    <path d="M13.253 11.688c-1.106-.553-.68-.13-2.037-.695-1.358-.565-1.68-.75-1.68-.75l-.011-1.295s.508-.387.667-1.613c.317.093.425-.373.442-.671.018-.288.187-1.185-.201-1.105.08-.598.142-1.14.114-1.426C10.449 3.127 9.757 2.077 8.01 2c-1.485.077-2.45 1.128-2.546 2.134-.028.286.029.827.108 1.427-.388-.081-.221.817-.204 1.105.019.297.124.765.442.673.158 1.225.666 1.615.666 1.615l-.012 1.302s-.322.197-1.68.762c-1.357.566-.931.117-2.037.67C1 12.562 1 14.964 1 14.964h14s0-2.402-1.747-3.276z" fill-rule="evenodd"/>
</symbol><symbol id="icon-web" viewBox="0 0 17 17">
    <title>
        web
    </title>
    <g fill-rule="evenodd">
        <path d="M11.67 6.379l4.005-1.23-2.373 1.508zM14.109 9.375l-.807-2.718 2.373-1.508-.711 2.44z"/>
        <path d="M16.846 4.41l-.441.74-1.441 2.439.71-2.44z"/>
        <path d="M16.99 4.89l-1.114 1.143.529-.884zM11.91 5.62l3.275-.327-2.277.701zM12.034 7.473l1.268-.816.807 2.718-.423.865z"/>
        <path d="M10.142 10.7l-.605-7.395 4.15 6.935z"/>
        <path d="M8.423 12.593l1.72-1.892 3.543-.461zM.067 16.31l8.356-3.717 1.72-1.892-2.728-.279z"/>
        <path d="M.384 13.275l4.293-.654 1.335-1.075-.653-.288z"/>
        <path d="M1.93 9.769l4.082 1.777 1.403-1.124zM9.23 5.985l-.519.086-1.296 4.351 1.402-.884z"/>
        <path d="M9.989 8.79l-1.172.748.72-6.233z"/>
        <path d="M5.561 6.57l3.669-.585.163-1.45z"/>
        <path d="M5.167 3.17l3.189 1.922 1.037-.558.029-.201zM5.792 1.077l2.9 3.054.73.202.115-1.028zM7.415 10.422l2.574-1.633.153 1.912z"/>
    </g>
</symbol><symbol id="icon-weibo-button" viewBox="0 0 29 24">
    <title>
        icon-weibo-button
    </title>
    <g fill-rule="nonzero" fill="#fff">
        <path d="M12.183 21.535c-4.803.457-8.949-1.631-9.261-4.654-.312-3.03 3.33-5.846 8.128-6.303 4.803-.457 8.949 1.631 9.255 4.654.317 3.03-3.325 5.852-8.122 6.303zm9.601-10.044c-.408-.12-.691-.196-.476-.712.464-1.12.51-2.082.006-2.774-.94-1.288-3.517-1.223-6.468-.032 0 0-.929.386-.691-.316.453-1.403.385-2.572-.323-3.252-1.603-1.538-5.862.06-9.516 3.568C1.586 10.588 0 13.378 0 15.786c0 4.6 6.151 7.4 12.166 7.4 7.884 0 13.135-4.398 13.135-7.89 0-2.114-1.852-3.31-3.517-3.806v.001zM27.023 3.063C25.12 1.035 22.31.263 19.716.79c-.6.125-.98.69-.85 1.262.13.576.714.94 1.314.816 1.846-.376 3.84.173 5.194 1.614s1.722 3.404 1.138 5.123c-.187.56.13 1.158.714 1.343.583.18 1.206-.125 1.399-.686v-.005c.816-2.404.3-5.166-1.603-7.195l.001.001z"/>
        <path d="M24.095 5.603c-.929-.99-2.3-1.366-3.557-1.104a.925.925 0 0 0-.736 1.092c.113.494.623.81 1.133.702a1.884 1.884 0 0 1 1.739.538c.453.484.578 1.142.379 1.719a.917.917 0 0 0 .617 1.158c.504.152 1.042-.109 1.206-.593a3.48 3.48 0 0 0-.782-3.512h.001zM12.45 16.059c-.17.277-.538.408-.827.294-.289-.109-.374-.425-.21-.69.17-.267.527-.397.81-.294.283.098.385.408.227.69zm-1.535 1.881c-.464.713-1.461 1.023-2.209.696-.736-.32-.957-1.147-.493-1.843.459-.69 1.422-1 2.164-.701.753.31.997 1.13.538 1.848zm1.744-5.035c-2.283-.57-4.865.523-5.857 2.452-1.014 1.968-.034 4.16 2.271 4.878 2.39.74 5.211-.397 6.191-2.517.969-2.082-.238-4.22-2.605-4.813z"/>
    </g>
</symbol><symbol id="icon-zoom-in" viewBox="0 0 20 20">
    <title>
        zoom-in
    </title>
    <g fill-rule="evenodd">
        <path d="M7 9H5V7h2V5h2v2h2v2H9v2H7z"/>
        <path d="M7.893 13.843a5.918 5.918 0 0 1-5.872-5.949c.024-3.236 2.67-5.871 5.908-5.871h.04a5.854 5.854 0 0 1 4.16 1.759 5.875 5.875 0 0 1 1.704 4.19 5.887 5.887 0 0 1-1.744 4.154 5.86 5.86 0 0 1-4.157 1.717h-.039M7.977 0h-.05C3.575 0 .029 3.517 0 7.882c-.024 4.382 3.497 7.956 7.876 7.984h.056a7.846 7.846 0 0 0 3.988-1.08l4.817 4.823.123.117a.926.926 0 0 0 1.317 0l1.552-1.549a.936.936 0 0 0 0-1.32l-.12-.124-4.825-4.825a7.864 7.864 0 0 0 1.07-3.924A7.927 7.927 0 0 0 7.976 0"/>
    </g>
</symbol><symbol id="icon-zoom-out" viewBox="0 0 20 20">
    <title>
        zoom-out
    </title>
    <g fill-rule="evenodd">
        <path d="M5 7v2h6V7z"/>
        <path d="M7.893 13.843a5.918 5.918 0 0 1-5.872-5.949c.024-3.236 2.67-5.871 5.908-5.871h.04a5.854 5.854 0 0 1 4.16 1.759 5.875 5.875 0 0 1 1.704 4.19 5.887 5.887 0 0 1-1.744 4.154 5.86 5.86 0 0 1-4.157 1.717h-.039M7.977 0h-.05C3.575 0 .029 3.517 0 7.882c-.024 4.382 3.497 7.956 7.876 7.984h.056a7.846 7.846 0 0 0 3.988-1.08l4.817 4.823.123.117a.926.926 0 0 0 1.317 0l1.552-1.549a.936.936 0 0 0 0-1.32l-.12-.124-4.825-4.825a7.864 7.864 0 0 0 1.07-3.924A7.927 7.927 0 0 0 7.976 0"/>
    </g>
</symbol></svg>