<?xml version="1.0" encoding="UTF-8"?><!DOCTYPE svg PUBLIC "-//W3C//DTD SVG 1.1//EN" "http://www.w3.org/Graphics/SVG/1.1/DTD/svg11.dtd"><svg xmlns="http://www.w3.org/2000/svg"><symbol id="icon-arrow-down" viewBox="0 0 13 7"><title>arrow-down</title><path d="M2.246 0L.85 1.424 6.54 7l5.583-5.583-1.41-1.41L6.54 4.2" fill-rule="evenodd"/></symbol><symbol id="icon-arrow-left" viewBox="0 0 7 13"><title>arrow-left</title><path d="M7 2.246L5.576.85 0 6.54l5.583 5.583 1.41-1.41L2.898 6.54" fill-rule="evenodd"/></symbol><symbol id="icon-arrow-right" viewBox="0 0 7 13"><title>arrow-right</title><path d="M0 10.727l1.424 1.396L7 6.433 1.417.85.007 2.26 4.2 6.433" fill-rule="evenodd"/></symbol><symbol id="icon-arrow-up" viewBox="0 0 13 7"><title>arrow-up</title><path d="M10.727 7l1.396-1.424L6.433 0 .85 5.583l1.41 1.41 4.173-4.095" fill-rule="evenodd"/></symbol><symbol id="icon-chat" viewBox="0 0 24 24"><title>chat</title><path d="M2 5.006C2 3.898 2.898 3 3.99 3h16.02c1.1 0 1.99.897 1.99 2.006v9.988C22 16.102 21.102 17 20.01 17H3.99C2.89 17 2 16.103 2 14.994V5.006zM12 17l6 4v-4h-6z" fill-rule="evenodd"/></symbol><symbol id="icon-checkbox-checked" viewBox="0 0 11 11"><title>checkbox-checked</title><g fill-rule="evenodd"><path d="M11 0H0v11h11"/><path d="M0 0V11H11V0H0zm10 1v9H1V1h9z" fill="currentColor"/><path d="M4.273 6.768L2.238 4.972 1.4 5.81 4.872 10c.598-1.796 2.514-5.268 4.79-7.782L9.42 1.5C6.906 3.296 4.99 5.57 4.27 6.768z" fill="#000"/></g></symbol><symbol id="icon-checkbox-indeterminate" viewBox="0 0 11 11"><title>checkbox-indeterminate</title><g fill-rule="evenodd"><path d="M11 0H0v11h11"/><path d="M0 0H11V11H0V0zm10 1H1v9h9V1z" fill="currentColor"/><path fill="#000" d="M3 5h5v1H3z"/></g></symbol><symbol id="icon-checkbox" viewBox="0 0 11 11"><title>checkbox</title><g fill-rule="evenodd"><path d="M11 0H0v11h11"/><path d="M11 0H0v11h11V0zM1 1h9v9H1V1z" fill="currentColor"/></g></symbol><symbol id="icon-checkmark" viewBox="0 0 16 14"><title>checkmark</title><path d="M15.863 1.596V0S9.95 2.607 5.368 8.722c0 0-2.134-2.305-3.352-2.875C.798 5.277 0 7.235 0 7.235s3.03 2.818 6.477 6.602c3.81-8.136 9.386-12.24 9.386-12.24z" fill-rule="evenodd"/></symbol><symbol id="icon-clipboard" viewBox="0 0 16 16"><title>clipboard</title><path d="M5 3V1.5c0-.28.223-.5.497-.5h8.006c.272 0 .497.224.497.5v10c0 .28-.223.5-.497.5H12v-2h.462c.297 0 .538-.222.538-.5 0-.276-.24-.5-.538-.5H12V8h.462c.297 0 .538-.222.538-.5 0-.276-.24-.5-.538-.5H12V6h.462c.297 0 .538-.222.538-.5 0-.276-.24-.5-.538-.5H12V3.5c0-.276-.225-.5-.497-.5H5zM2 4.5v10c0 .276.225.5.497.5h8.006c.274 0 .497-.22.497-.5v-10c0-.276-.225-.5-.497-.5H2.497C2.223 4 2 4.22 2 4.5zM3.554 6C3.248 6 3 6.222 3 6.5c0 .276.248.5.554.5h3.892C7.752 7 8 6.778 8 6.5c0-.276-.248-.5-.554-.5H3.554zm-.016 2C3.24 8 3 8.222 3 8.5c0 .276.24.5.538.5h5.924C9.76 9 10 8.778 10 8.5c0-.276-.24-.5-.538-.5H3.538zm0 2c-.297 0-.538.222-.538.5 0 .276.24.5.538.5h5.924c.297 0 .538-.222.538-.5 0-.276-.24-.5-.538-.5H3.538zm0 2c-.297 0-.538.222-.538.5 0 .276.24.5.538.5h5.924c.297 0 .538-.222.538-.5 0-.276-.24-.5-.538-.5H3.538z" fill-rule="evenodd"/></symbol><symbol id="icon-clock" viewBox="0 0 16 16"><title>clock</title><g fill-rule="evenodd"><path d="M7.5 14c3.59 0 6.5-2.91 6.5-6.5S11.09 1 7.5 1 1 3.91 1 7.5 3.91 14 7.5 14zm0-.93c3.077 0 5.57-2.493 5.57-5.57 0-3.077-2.493-5.57-5.57-5.57-3.077 0-5.57 2.493-5.57 5.57 0 3.077 2.493 5.57 5.57 5.57z"/><path stroke="#50E3C2" stroke-linecap="round" stroke-linejoin="round" d="M7.5 3.516v4.022l3.01 2.967"/></g></symbol><symbol id="icon-cloud" viewBox="0 0 16 16"><title>cloud</title><path d="M12.845 7.026c.002-.057.004-.116.004-.174C12.85 4.725 11.122 3 8.993 3c-1.542 0-2.872.905-3.49 2.212-.34-.244-.764-.39-1.223-.39-1.138 0-2.062.894-2.062 1.996 0 .163.02.322.06.474C.977 7.57 0 8.745 0 10.154 0 11.77 1.282 13 2.865 13h9.394c1.513 0 2.74-1.293 2.74-2.983 0-1.466-.923-2.69-2.155-2.99z" fill-rule="evenodd"/></symbol><symbol id="icon-cog" viewBox="0 0 20 20"><title>cog</title><path d="M19.745 12.23l-1.09-1.015c-.284-.264-.452-.636-.463-1.023l-.002-.018v-.062c.01-.405.192-.79.498-1.06l1.12-.98c.177-.156.238-.405.15-.623l-.956-2.416c-.055-.137-.16-.245-.295-.304-.077-.033-.156-.048-.24-.045l-1.487.053c-.215.008-.433-.034-.632-.12-.178-.076-.333-.183-.465-.32l-.03-.03c-.268-.292-.406-.686-.38-1.082l.1-1.486c.015-.234-.12-.454-.334-.547L12.853.123c-.215-.093-.466-.04-.626.13l-1.014 1.09c-.28.302-.677.47-1.09.465-.19-.004-.378-.044-.554-.12-.198-.085-.377-.216-.52-.378L8.07.19C8.015.126 7.95.08 7.873.045c-.136-.06-.287-.06-.424-.007L5.032.996c-.217.086-.357.3-.35.535l.054 1.486c.015.4-.138.795-.422 1.08l-.02.02c-.294.287-.7.435-1.11.408l-1.487-.098c-.233-.016-.452.118-.545.333L.123 7.146c-.094.215-.04.466.13.625l1.09 1.016c.29.268.458.648.464 1.056v.077c-.02.394-.2.77-.497 1.028l-1.12.98c-.177.155-.237.405-.15.622l.956 2.416c.055.137.16.245.296.304.076.033.156.048.24.045l1.486-.053c.214-.008.433.034.632.12.175.075.328.18.477.332l.04.042c.253.288.384.674.36 1.058l-.1 1.487c-.016.234.118.454.333.546l2.384 1.03c.215.094.466.042.626-.13l1.01-1.083c.272-.294.66-.465 1.073-.47h.03c.187.002.37.042.547.118.195.086.372.214.512.373l.987 1.128c.054.063.12.112.195.144.136.06.287.06.425.007l2.415-.957c.218-.086.358-.3.35-.534l-.054-1.492c-.012-.385.13-.764.392-1.045l.012-.015.05-.046c.293-.28.694-.425 1.1-.398l1.486.098c.234.016.453-.118.546-.333l1.03-2.385c.093-.215.04-.466-.13-.626zm-10.93.508c-1.51-.653-2.206-2.412-1.554-3.922.654-1.51 2.413-2.207 3.923-1.555 1.51.654 2.207 2.414 1.554 3.923-.652 1.51-2.41 2.208-3.92 1.555z" fill-rule="evenodd"/></symbol><symbol id="icon-crown" viewBox="0 0 62 27"><title>crown</title><path d="M59.01 5.21V27h-56V5.213h-.003c-1.2 0-2.173-.972-2.173-2.172 0-1.2.973-2.17 2.173-2.17 1.2 0 2.172.97 2.172 2.17 0 .785-.416 1.472-1.04 1.854l12.87 10.18 12.87-10.18c-.625-.38-1.04-1.068-1.04-1.853 0-1.2.97-2.17 2.17-2.17s2.173.97 2.173 2.17c0 .786-.416 1.474-1.04 1.855l12.868 10.18L57.84 4.927c-.655-.374-1.095-1.08-1.095-1.887 0-1.2.972-2.17 2.172-2.17 1.2 0 2.172.97 2.172 2.17 0 1.17-.92 2.12-2.076 2.17z" fill="#FFD22E" fill-rule="evenodd"/></symbol><symbol id="icon-dashboard" viewBox="0 0 24 24"><title>dashboard</title><path d="M11.967 2c-5.523 0-10 4.477-10 10s4.477 10 10 10 10-4.477 10-10-4.477-10-10-10zm-2.143 9.17c.067-.09 7.54-5.784 7.54-5.784s-3.105 8.867-3.17 8.96c-.878 1.205-2.566 1.473-3.773.596-1.205-.876-1.472-2.565-.596-3.77zm9.643.83c0-4.142-3.357-7.5-7.5-7.5-4.142 0-7.5 3.358-7.5 7.5 0 1.452.414 2.806 1.128 3.954l-1.016.73C3.717 15.33 3.216 13.725 3.216 12c0-4.832 3.918-8.75 8.75-8.75 4.833 0 8.75 3.918 8.75 8.75 0 1.724-.5 3.33-1.362 4.685l-1.016-.73c.713-1.15 1.127-2.503 1.127-3.955z" fill-rule="evenodd"/></symbol><symbol id="icon-diagonal-cross" viewBox="0 0 13 13"><title>diagonal-cross</title><path d="M12.666.29c.39.385.392 1.015.005 1.404L7.883 6.517l4.784 4.783c.388.388.388 1.018 0 1.406-.388.388-1.018.388-1.406 0l-4.778-4.78-4.743 4.777c-.388.39-1.017.392-1.407.005-.39-.387-.392-1.016-.005-1.405l4.748-4.78L.25 1.696C-.136 1.31-.136.68.25.29c.39-.387 1.018-.387 1.407 0l4.82 4.82L11.26.295c.388-.39 1.017-.392 1.406-.005z" fill-rule="evenodd"/></symbol><symbol id="icon-download" viewBox="0 0 14 13"><title>download</title><path d="M4 0v6h6V0H4zm10 6H0l7 7 7-7z" fill-rule="evenodd"/></symbol><symbol id="icon-draggable" viewBox="0 0 16 16"><title>draggable</title><g fill-rule="evenodd"><path d="M0 5h16v1H0zM0 1h16v1H0zM0 9h16v1H0zM0 13h16v1H0z"/></g></symbol><symbol id="icon-dropdown-list" viewBox="0 0 19 14"><title>dropdown-list</title><path d="M0 0h19v2H0V0zm0 4h19v2H0V4zm0 4h19v2H0V8zm0 4h19v2H0v-2z" fill-rule="evenodd"/></symbol><symbol id="icon-email-button" viewBox="0 0 29 24"><title>email-button</title><path d="M3.692 5h21.614l-10.81 9.28L3.69 5zM26 6.554V20H3V6.555l10.97 9.423.526.452.527-.452L26 6.554z" fill="#FFF" fill-rule="evenodd"/></symbol><symbol id="icon-email" viewBox="0 0 17 17"><title>email</title><path d="M17 3.34L8.49 8.797 0 3.34V3h17v.34zm0 1.443V14H0V4.784l8.497 5.598L17 4.782z" fill-rule="evenodd"/></symbol><symbol id="icon-eyedropper" viewBox="0 0 17 17"><title>eyedropper</title><path d="M10.57 4.007l-.612-.6c-.178-.18-.466-.18-.643 0L7.497 5.223c-.178.178-.178.465 0 .643l.6.627-6.055 6.003c-.085.085-.133.2-.133.32v.708l-.777.79c-.1.1-.142.232-.13.36.008.104.05.204.13.283l.91.91c.177.176.465.176.642 0l.767-.777h.73c.12 0 .236-.047.32-.132l1.046-1.045c1.773-1.773 4.954-5.03 4.954-5.03l.63.62c.18.178.466.178.644 0l1.818-1.818c.178-.177.178-.465 0-.643l-.582-.548 2.855-2.9c.177-.177.177-.465 0-.643L14.05 1.134c-.18-.177-.467-.177-.644 0L10.57 4.007zm-.346 3.944L3.96 14.183h-.687c-.12 0-.236.048-.322.133l-.636.644-.272-.305.643-.606c.085-.087.133-.202.133-.323v-.714l6.23-6.237 1.176 1.175z" fill-rule="evenodd"/></symbol><symbol id="icon-facebook-button" viewBox="0 0 29 24"><title>facebook-button</title><g fill="none" fill-rule="evenodd"><path fill="#778EBA" d="M0 18h29v5H0"/><path d="M18 23V13h-3V9h3V4.91C18 2.825 19.546 1 22 1h5v3.808h-3.863c-1.07 0-1.137.025-1.137 1.02V9h3.5l-.5 4h-3v10h-4z" fill="#FFF"/></g></symbol><symbol id="icon-facebook" viewBox="0 0 17 17"><title>facebook</title><path d="M1.805 1C1.302 1 1 1.403 1 1.805v13.39c0 .503.403.805.805.805h7.25v-5.84H7.04V7.847h2.014V6.134c0-1.913 1.208-3.02 2.92-3.02.805 0 1.51.1 1.71.1V5.23h-1.207c-.907 0-1.108.403-1.108 1.108v1.41h2.214l-.302 2.314H11.37V16h3.825c.503 0 .805-.403.805-.806V1.704c0-.3-.403-.704-.805-.704H1.805z" fill-rule="evenodd"/></symbol><symbol id="icon-form" viewBox="0 0 17 17"><title>form</title><path d="M8.5 0C3.813 0 0 3.813 0 8.5 0 13.187 3.813 17 8.5 17c4.686 0 8.5-3.813 8.5-8.5C17 3.813 13.186 0 8.5 0zm6.58 11.95h-1.76c.26-.886.44-1.873.49-2.932h2.1c-.073 1.055-.362 2.042-.83 2.932zM9.06 15.908v-2.924h2.79c-.545 1.302-1.182 2.253-1.544 2.733-.403.102-.82.158-1.246.19zm-2.33-.178c-.36-.474-1.003-1.432-1.554-2.746h2.85v2.932c-.444-.028-.877-.084-1.296-.186zM1.92 11.95c-.47-.89-.76-1.877-.833-2.932H3.22c.05 1.06.228 2.046.488 2.93H1.926l-.006.002zm.05-6.99l.01.002h1.762c-.327 1.05-.48 2.06-.52 3.02H1.088c.076-1.09.384-2.11.882-3.023zM8.026 1.08v2.845H5.243c.392-.878.914-1.778 1.6-2.69.382-.09.78-.128 1.184-.155zm2.17.165c.68.91 1.198 1.806 1.59 2.68H9.06V1.092c.386.03.767.07 1.134.155zm1.992 3.715c.357 1.053.528 2.063.572 3.02h-3.7v-3.02h3.127zm-4.163 0v3.02h-3.76c.044-.957.215-1.967.574-3.02h3.187zM4.265 9.018h3.762v2.93h-3.23c-.278-.874-.48-1.858-.532-2.93zm4.797 2.93V9.02h3.702c-.054 1.072-.253 2.056-.533 2.93H9.063zm4.743-3.965c-.038-.96-.192-1.97-.52-3.02h1.732c.004 0 .008-.004.013-.004.496.912.805 1.93.88 3.023h-2.105zm.55-4.056H12.9c-.275-.674-.61-1.36-1.038-2.055.977.5 1.822 1.198 2.493 2.055zm-9.17-2.082c-.434.706-.778 1.4-1.057 2.082H2.643c.682-.87 1.546-1.582 2.543-2.082zM2.57 12.985h1.486c.317.826.68 1.532 1.016 2.108-.983-.514-1.836-1.23-2.502-2.11zm9.4 2.083c.333-.572.69-1.27 1-2.084h1.458c-.656.866-1.493 1.57-2.458 2.084z" fill-rule="evenodd"/></symbol><symbol id="icon-full-logo" viewBox="0 0 175 50"><title>full-logo</title><g fill-rule="evenodd"><path d="M61.875 33.97l9.72-14.032c.374-.532.78-.907.78-.907v-.06s-.53.093-1.063.093h-6.968V22H62.03v-5.125h13.595v1.75l-9.72 14.03c-.374.532-.78.907-.78.907v.063s.53-.094 1.063-.094h7.374V30.5h2.313v5.22h-14v-1.75zM85 27.405h.844v-.5c0-2.125-1.22-2.875-2.875-2.875-2.126 0-3.876 1.314-3.876 1.314l-1.03-1.844s1.967-1.594 5.124-1.594c3.437 0 5.25 1.782 5.25 5.22v6c0 .405.218.593.593.593h1.376v2H87.72c-1.19 0-1.69-.595-1.69-1.47v-.188c0-.53.095-.874.095-.874h-.063s-1.187 2.843-4.468 2.843c-2.25 0-4.5-1.31-4.5-4.093.03-4.218 5.656-4.53 7.906-4.53zm-2.813 6.625c2.282 0 3.72-2.343 3.72-4.374v-.562h-.688c-1.22 0-5.47.062-5.47 2.656 0 1.188.875 2.28 2.438 2.28zm10.157-.31h2.125v-8.94c0-.374-.22-.56-.595-.56H92.22v-2h3.03c1.156 0 1.72.5 1.72 1.5v.686c0 .438-.095.782-.095.782h.063c.656-1.594 2.624-3.282 4.812-3.282 2.156 0 3.5 1 3.938 3.188h.062c.75-1.688 2.625-3.188 4.844-3.188 3 0 4.406 1.75 4.406 5.188v6.656h2.125v2h-4.72v-8.094c0-1.906-.343-3.406-2.374-3.406-2.53 0-3.968 2.594-3.968 5.25v4.22h2.126v2H103.5v-8.095c0-1.75-.28-3.406-2.344-3.406-2.562 0-4.062 2.718-4.062 5.374v4.125h2.125v2h-6.845v-2h-.03zm26.72 0h2.124v-8.94c0-.374-.22-.56-.594-.56h-1.656v-2h3.03c1.157 0 1.72.5 1.72 1.5v.686c0 .438-.094.782-.094.782h.062c.656-1.594 2.625-3.282 4.813-3.282 2.155 0 3.5 1 3.936 3.188h.063c.75-1.688 2.624-3.188 4.843-3.188 3 0 4.406 1.75 4.406 5.188v6.656h2.124v2h-4.72v-8.094c0-1.906-.343-3.406-2.374-3.406-2.53 0-3.97 2.594-3.97 5.25v4.22h2.126v2h-4.687v-8.095c0-1.75-.282-3.406-2.345-3.406-2.563 0-4.063 2.718-4.063 5.374v4.125h2.126v2h-6.844v-2h-.03zm34.186-6.314h.844v-.5c0-2.125-1.22-2.875-2.875-2.875-2.126 0-3.876 1.314-3.876 1.314l-1.03-1.844s1.967-1.594 5.124-1.594c3.437 0 5.25 1.782 5.25 5.22v6c0 .405.218.593.593.593h1.376v2h-2.687c-1.19 0-1.69-.595-1.69-1.47v-.188c0-.53.095-.874.095-.874h-.063s-1.187 2.843-4.468 2.843c-2.25 0-4.5-1.31-4.5-4.093 0-4.218 5.656-4.53 7.906-4.53zm-2.844 6.625c2.28 0 3.72-2.343 3.72-4.374v-.562h-.657c-1.22 0-5.47.062-5.47 2.656-.03 1.188.844 2.28 2.406 2.28zm15.625-12.155c3.064 0 4.157 2.28 4.157 2.28h.063s-.094-.436-.094-1v-4.28h-2.25v-2h4.844v16.25c0 .406.22.594.594.594h1.375v2h-2.69c-1.186 0-1.686-.595-1.686-1.47v-.188c0-.468.094-.718.094-.718h-.063s-1.094 2.687-4.563 2.687c-3.625 0-5.906-2.874-5.906-7.06-.03-4.314 2.5-7.095 6.125-7.095zm.314 11.906c2 0 3.906-1.436 3.906-4.81 0-2.47-1.25-4.845-3.813-4.845-2.156 0-3.906 1.75-3.906 4.813 0 2.968 1.564 4.843 3.814 4.843z"/><path fill="#CA2317" d="M37.97 17.5l13.03-4-7.72 4.906"/><path fill="#E84F83" d="M45.906 27.25l-2.625-8.844L51 13.5l-2.313 7.938"/><path fill="#CA2317" d="M54.813 11.094L53.374 13.5l-4.688 7.938L51 13.5"/><path fill="#E54011" d="M55.28 12.656l-3.624 3.72 1.72-2.876M38.75 15.03l10.656-1.06L42 16.25"/><path fill="#CA2317" d="M39.156 21.063l4.125-2.657 2.626 8.844-1.375 2.813"/><path fill="#B7DFF2" d="M33 31.563L31.03 7.5l13.5 22.563"/><path fill="#E54011" d="M27.406 37.72L33 31.562l11.53-1.5"/><path fill="#FFCE33" d="M.22 49.813l27.186-12.094L33 31.562l-8.875-.907"/><path fill="#D6B12D" d="M1.25 39.938l13.97-2.126 4.342-3.5-2.125-.937"/><path fill="#FFDE85" d="M6.28 28.53l13.282 5.782 4.563-3.656"/><path fill="#009EC6" d="M30.03 16.22l-1.686.28-4.22 14.156 4.564-2.875"/><path fill="#5EAFCE" d="M32.5 25.344l-3.813 2.437L31.032 7.5"/><path fill="#045972" d="M18.094 18.125L30.03 16.22l.532-4.72"/><path fill="#5A8591" d="M16.813 7.063l10.375 6.25 3.375-1.813.093-.656"/><path fill="#009EC6" d="M18.844.25l9.437 9.938 2.376.656.375-3.344"/><path fill="#F39804" d="M24.125 30.656l8.375-5.312.5 6.218"/></g></symbol><symbol id="icon-github-button" viewBox="0 0 29 24"><title>github-button</title><path d="M14.497 1C8.27 1 3.22 6.05 3.22 12.28c0 4.982 3.23 9.21 7.713 10.7.564.104.77-.244.77-.543 0-.268-.01-.977-.015-1.918-3.137.68-3.8-1.514-3.8-1.514-.512-1.303-1.252-1.65-1.252-1.65-1.024-.7.078-.685.078-.685 1.132.08 1.727 1.164 1.727 1.164 1.007 1.723 2.64 1.225 3.284.936.102-.728.394-1.225.716-1.507-2.505-.284-5.138-1.252-5.138-5.574 0-1.232.44-2.24 1.16-3.028-.115-.285-.502-1.432.112-2.984 0 0 .947-.304 3.1 1.156.9-.25 1.866-.375 2.825-.38.957.005 1.92.13 2.822.38 2.153-1.46 3.1-1.156 3.1-1.156.614 1.552.227 2.7.11 2.984.724.788 1.16 1.796 1.16 3.027 0 4.332-2.637 5.285-5.15 5.564.406.348.766 1.037.766 2.088 0 1.508-.013 2.725-.013 3.095 0 .3.203.652.775.542 4.478-1.496 7.707-5.72 7.707-10.7 0-6.23-5.05-11.28-11.28-11.28" fill="#FFF" fill-rule="evenodd"/></symbol><symbol id="icon-gitlab-button" viewBox="0 0 29 24"><title>gitlab-button</title><g fill="none" fill-rule="evenodd"><path d="M26.24 13.582l-1.334-4.1-2.64-8.128c-.137-.42-.728-.42-.864 0l-2.854 8.66h-8.54l-2.657-8.66c-.135-.42-.727-.42-.863 0L3.847 9.48l-1.333 4.102c-.122.374.012.784.33 1.015l11.532 8.38 11.533-8.38c.317-.23.45-.64.33-1.015" fill="#FF998A"/><path fill="#FFF" d="M19.033 10.007h-9.05l4.393 12.97"/><path fill="#FFC6BD" d="M14.376 22.976L9.992 9.48H3.846"/><path d="M3.846 9.48l-1.332 4.102c-.122.374.012.784.33 1.015l11.532 8.38L3.846 9.48z" fill="#FF998A"/><path d="M3.594 10.002h7.423L7.35 1.354c-.135-.42-.727-.42-.863 0l-2.893 8.648z" fill="#FFF"/><path fill="#FFC6BD" d="M14.376 22.976L18.76 9.48h6.146"/><path d="M24.906 9.48l1.333 4.102c.12.374-.013.784-.33 1.015l-11.534 8.38L24.906 9.48z" fill="#FF998A"/><path d="M25.066 10.022H17.99l3.412-8.668c.136-.42.727-.42.863 0l2.8 8.668z" fill="#FFF"/></g></symbol><symbol id="icon-google-button" viewBox="0 0 29 24"><title>google-button</title><g fill="none" fill-rule="evenodd"><path d="M25.06 12.25c0-.78-.07-1.53-.2-2.25H14.5v4.255h5.92c-.255 1.375-1.03 2.54-2.195 3.32v2.76h3.555c2.08-1.915 3.28-4.735 3.28-8.085z" fill="#4285F4"/><path d="M14.5 23c2.97 0 5.46-.985 7.28-2.665l-3.555-2.76c-.985.66-2.245 1.05-3.725 1.05-2.865 0-5.29-1.935-6.155-4.535H4.67v2.85C6.48 20.535 10.2 23 14.5 23z" fill="#34A853"/><path d="M8.345 14.09C8.125 13.43 8 12.725 8 12c0-.725.125-1.43.345-2.09V7.06H4.67C3.925 8.545 3.5 10.225 3.5 12c0 1.775.425 3.455 1.17 4.94l3.675-2.85z" fill="#FBBC05"/><path d="M14.5 5.375c1.615 0 3.065.555 4.205 1.645l3.155-3.155C19.955 2.09 17.465 1 14.5 1c-4.3 0-8.02 2.465-9.83 6.06l3.675 2.85c.865-2.6 3.29-4.535 6.155-4.535z" fill="#EA4335"/><path d="M3.5 1h22v22h-22"/></g></symbol><symbol id="icon-group" viewBox="0 0 24 24"><title>group</title><path d="M5.22 5.43c1.454 0 2.632-1.215 2.632-2.715C7.852 1.215 6.674 0 5.222 0 3.767 0 2.59 1.216 2.59 2.715c0 1.5 1.176 2.715 2.63 2.715zm6.98 0c1.454 0 2.632-1.215 2.632-2.715 0-1.5-1.178-2.715-2.63-2.715C10.747 0 9.57 1.216 9.57 2.715c0 1.5 1.178 2.716 2.63 2.716zm5.983 0c1.453 0 2.63-1.215 2.63-2.715 0-1.5-1.177-2.715-2.63-2.715-1.453 0-2.63 1.216-2.63 2.715 0 1.5 1.177 2.716 2.63 2.716zm-2.408.863H8.273c-.64 0-1.16.536-1.16 1.197v6.846c0 .662.52 1.197 1.16 1.197h.357V24h6.65v-8.467h.495c.64 0 1.16-.535 1.16-1.197V7.49c0-.66-.52-1.197-1.16-1.197zm-10.3 8.043V7.49c0-.428.097-.83.26-1.197H1.86C1.22 6.293.7 6.83.7 7.49v6.846c0 .662.52 1.198 1.16 1.198h.358V24h4.775v-7.097c-.9-.48-1.518-1.45-1.518-2.567zM22.29 6.293h-3.977c.163.366.26.77.26 1.197v6.846c0 1.172-.68 2.183-1.655 2.635V24h4.878v-8.467h.493c.64 0 1.16-.535 1.16-1.197V7.49c0-.66-.52-1.197-1.16-1.197z" fill-rule="evenodd"/></symbol><symbol id="icon-help" viewBox="0 0 16 16"><title>help</title><path d="M16 8c0-4.418-3.582-8-8-8S0 3.582 0 8s3.582 8 8 8 8-3.582 8-8zm-1 0c0-3.866-3.134-7-7-7S1 4.134 1 8s3.134 7 7 7 7-3.134 7-7zm-4.328-1.97c0-.995-.805-1.877-2.503-1.877-1.107 0-1.934.458-2.582 1.206l1.14.882c.402-.458.85-.682 1.296-.682.49 0 .782.224.782.626 0 .916-1.766.85-1.766 2.77v.28h1.62v-.223c0-1.296 2.012-1.173 2.012-2.983zm-1.788 5.073c0-.56-.447-1.017-1.017-1.017-.57 0-1.017.458-1.017 1.017 0 .558.447 1.017 1.017 1.017.57 0 1.017-.46 1.017-1.017z" fill="#000" fill-rule="evenodd"/></symbol><symbol id="icon-important" viewBox="0 0 16 16"><title>important</title><path d="M8 1c-.553 0-.985.45-.968 1.002l.274 8.447c.018.553.48 1.002 1.03 1.002h.327c.55 0 1.013-.45 1.03-1.003L9.97 2C9.985 1.45 9.558 1 9 1H8zm.5 14.4c.77 0 1.394-.624 1.394-1.394 0-.77-.624-1.393-1.394-1.393-.77 0-1.394.624-1.394 1.393 0 .77.624 1.394 1.394 1.394z" fill-rule="evenodd"/></symbol><symbol id="icon-in-process" viewBox="0 0 64 64"><title>in-process</title><g fill-rule="evenodd"><path d="M7.997 43.98c.037-3.865.037-7.657 0-11.994-2.244.046-4.13-.852-5.998-2.998-1.207-1.147-2-3.043-2-4.998V7.997C0 3.792 3.77 0 7.997 0h30.988c5.153 0 8.922 3.592 8.996 7.997.026 5.474.026 10.563 0 15.993-.172 4.45-3.94 8.042-8.995 7.996-5.857.046-11.907.046-17.993 0-.56.046-1.353.345-2 1-3.52 3.436-6.99 7.228-10.995 10.995.335.026.235.026 0 0z"/><path d="M52 20c3.61-.172 7.144-.172 10 3 1.185 1.404 1.993 3.195 2 5-.007 5.358-.21 10.432 0 15 .195 4.983-4.148 8.863-8 9 .316.062.114.16 0 0-.088 4.04-.088 7.822 0 12-.593-.497-.997-.696-1-1-3.634-3.278-6.967-6.56-10-10-1.11-.64-1.917-1.038-3-1-6.09.062-12.15-.038-18 0-5.565-.038-9.707-4.813-9-10 .202-.385.404-.683 1-1 1.222-1.474 2.637-2.966 4-4 .657-.757 1.364-.956 2-1 5.526.044 11.183.044 17 0 6.002.044 11.356-4.134 13-10-.028-1.795-.23-3.785 0-6z" fill="#A9BCC4" opacity=".4"/></g></symbol><symbol id="icon-info" viewBox="0 0 5 11"><title>info</title><path d="M2.32 4h1.17c.282 0 .45.127.45.408 0 .226-.027.465-.07.69l-.464 2.55c-.056.282-.113.563-.14.845-.015.14 0 .282.04.408.044.185.184.283.368.255.155-.014.295-.07.45-.127.113-.042.226-.127.338-.17.17-.07.324.057.268.227-.028.098-.085.21-.17.28-.436.438-.957.705-1.577.705-.295 0-.577 0-.873-.042-.48-.07-1.084-.662-1-1.282.057-.436.127-.86.197-1.28.127-.748.254-1.494.395-2.24.014-.043.014-.1.014-.14 0-.31-.1-.424-.41-.466-.125-.014-.266-.028-.393-.07-.155-.057-.225-.17-.21-.296.013-.127.097-.212.266-.24C1.053 4 1.15 4 1.236 4H2.32zm1.875-1.99c0 .663-.535 1.198-1.183 1.198-.662 0-1.198-.55-1.198-1.21C1.814 1.334 2.35.8 3.012.8c.662 0 1.183.535 1.183 1.21z" fill-rule="evenodd"/></symbol><symbol id="icon-line-left-arrow" viewBox="0 0 34 7"><title>line-left-arrow</title><g fill-rule="evenodd"><path d="M34 3H3v1h31"/><path d="M7 0v7L0 3.5"/></g></symbol><symbol id="icon-line-right-arrow" viewBox="0 0 34 7"><title>line-right-arrow</title><path d="M27 4H0V3h27V0l7 3.5L27 7V4z" fill-rule="evenodd"/></symbol><symbol id="icon-linkedin-button" viewBox="0 0 29 24"><title>linkedin-button</title><path d="M10.512 4.5c0 1.104-.896 2-1.998 2-1.106 0-2-.896-2-2 0-1.103.894-2 2-2 1.102 0 1.998.897 1.998 2zM7 7.995h3v11H7v-11zm9.3-.02v1.507h.048c.457-.867 1.576-1.78 3.242-1.78 3.468 0 4.108 2.28 4.108 5.25V19h-3.422v-5.36c0-1.28-.025-2.925-1.78-2.925-1.784 0-2.056 1.393-2.056 2.832V19h-3.426V7.975H16.3z" fill="#FFF" fill-rule="evenodd"/></symbol><symbol id="icon-list" viewBox="0 0 16 16"><title>list</title><path d="M0 3c0-.552.45-1 1.007-1h12.986C14.55 2 15 2.444 15 3c0 .552-.45 1-1.007 1H1.007C.45 4 0 3.556 0 3zm0 4c0-.552.45-1 1.007-1h12.986C14.55 6 15 6.444 15 7c0 .552-.45 1-1.007 1H1.007C.45 8 0 7.556 0 7zm0 4c0-.552.45-1 1.007-1h12.986c.556 0 1.007.444 1.007 1 0 .552-.45 1-1.007 1H1.007C.45 12 0 11.556 0 11zm0 4c0-.552.45-1 1.007-1h12.986c.556 0 1.007.444 1.007 1 0 .552-.45 1-1.007 1H1.007C.45 16 0 15.556 0 15z" fill-rule="evenodd"/></symbol><symbol id="icon-loading" viewBox="0 0 16 16"><title>loading</title><circle cx="8" cy="8" r="5" fill-rule="evenodd"/></symbol><symbol id="icon-lock-open" viewBox="0 0 16 16"><title>lock-open</title><path d="M5.408 7h6.596c.55 0 .996.446.996.997v6.006c0 .544-.446.997-.996.997H2.996c-.55 0-.996-.446-.996-.997V7.997C2 7.453 2.446 7 2.996 7h1.017V4.21l.005.105-.01-.125c-.034-.608.03-1.31.28-2C4.783.826 5.853 0 7.5 0c1.647 0 2.717.827 3.21 2.19.252.69.316 1.392.28 2-.002.054-.005.09-.008.125l.005-.104v1.685H9.592V4.21l.006-.104.002-.032c.02-.36-.02-.806-.167-1.21-.27-.743-.834-1.18-1.933-1.18-1.1 0-1.664.437-1.933 1.18-.146.404-.187.85-.167 1.21l.002.032.006.105V7z" fill-rule="evenodd"/></symbol><symbol id="icon-lock" viewBox="0 0 16 16"><title>lock</title><path d="M2.996 7C2.446 7 2 7.453 2 7.997v6.006c0 .55.445.997.996.997h9.008c.55 0 .996-.453.996-.997V7.997c0-.55-.445-.997-.996-.997H2.996zm2.412-1.43l-.006-.087-.002-.027c-.02-.306.02-.684.167-1.027.27-.63.834-1 1.933-1 1.1 0 1.664.37 1.933 1 .146.342.187.72.167 1.026l-.002.027-.006.088V7h1.395V5.57l-.005.09.01-.106c.034-.515-.03-1.11-.28-1.697C10.216 2.7 9.146 2 7.5 2c-1.648 0-2.718.7-3.21 1.857-.252.586-.316 1.18-.28 1.697.002.046.005.076.008.106l-.005-.09V7h1.395V5.57z" fill-rule="evenodd"/></symbol><symbol id="icon-logo" viewBox="0 0 42 36"><title>logo</title><g fill="none" fill-rule="evenodd"><path fill="#CA2317" d="M28.337 12.6l9.383-2.88-5.557 3.532"/><path fill="#E84F83" d="M34.053 19.62l-1.89-6.368L37.72 9.72l-1.665 5.715"/><path fill="#CA2317" d="M40.465 7.987L39.43 9.72l-3.375 5.715L37.72 9.72"/><path fill="#E54011" d="M40.803 9.113l-2.61 2.677 1.237-2.07M28.9 10.822l7.672-.764L31.24 11.7"/><path fill="#CA2317" d="M29.192 15.165l2.97-1.912 1.89 6.367-.99 2.025"/><path fill="#B7DFF2" d="M24.76 22.725L23.342 5.4l9.72 16.245"/><path fill="#E54011" d="M20.733 27.157l4.027-4.432 8.302-1.08"/><path fill="#FFCE33" d="M1.157 35.865l19.576-8.708 4.027-4.432-6.39-.652"/><path fill="#D6B12D" d="M1.9 28.755l10.057-1.53 3.128-2.52-1.53-.675"/><path fill="#FFDE85" d="M5.522 20.543l9.563 4.162 3.285-2.632"/><path fill="#009EC6" d="M22.622 11.678l-1.215.202-3.037 10.193 3.285-2.07"/><path fill="#5EAFCE" d="M24.4 18.247l-2.745 1.756L23.343 5.4"/><path fill="#045972" d="M14.027 13.05l8.595-1.373.383-3.397"/><path fill="#5A8591" d="M13.105 5.085l7.47 4.5 2.43-1.305.068-.472"/><path fill="#009EC6" d="M14.568.18l6.795 7.155 1.71.473.27-2.408"/><path fill="#F39804" d="M18.37 22.073l6.03-3.826.36 4.478"/></g></symbol><symbol id="icon-logotype" viewBox="0 0 91 15"><title>logotype</title><path d="M0 14.752h11.657V9.697H8.563v2.167h-3.24c-.412 0-.887.062-.887.062 0-.042.37-.33.66-.743l6.314-8.955V0H.083v4.972h3.094V2.89h2.89c.412 0 .886-.063.886-.063 0 .04-.37.33-.66.742L0 12.482v2.27zm13.08-3.033c0 2.145 1.63 3.28 3.488 3.28 2.27 0 3.136-1.754 3.136-1.754h.042s-.042.145-.042.33v.062c0 .516.392 1.114 1.424 1.114h3.074v-2.58h-.784c-.29 0-.454-.164-.454-.453V8.21c0-2.786-1.65-4.333-4.745-4.333-2.684 0-4.5 1.38-4.5 1.38l1.24 2.415s1.484-1.01 2.93-1.01c.803 0 1.505.31 1.505 1.175v.31h-.64c-1.65 0-5.674.454-5.674 3.57zm3.59-.248c0-.95 1.26-1.32 2.436-1.32h.33v.247c0 .927-.908 2.02-1.816 2.02-.577 0-.95-.39-.95-.948zm8.832 3.28h6.252v-2.58h-1.34v-1.608c0-1.713.41-3.446 2.04-3.446.682 0 .827.557.827 1.34v6.294h4.91v-2.58h-1.34V10.36c0-1.775.495-3.24 2.043-3.24.68 0 .825.557.825 1.34v6.294h4.91v-2.58h-1.34v-4.31c0-2.93-1.527-3.983-3.343-3.983-1.63 0-2.93.866-3.508 2h-.04c-.517-1.485-1.61-2-2.766-2-1.794 0-2.825 1.216-3.362 2.042h-.04s.02-.145.02-.248v-.35c0-.723-.516-1.197-1.486-1.197H25.4v2.58h.99c.288 0 .453.143.453.432v5.033h-1.34v2.58zm20.447 0h6.25v-2.58h-1.34v-1.608c0-1.713.412-3.446 2.042-3.446.68 0 .826.557.826 1.34v6.294h4.91v-2.58h-1.34V10.36c0-1.775.494-3.24 2.042-3.24.68 0 .825.557.825 1.34v6.294h4.91v-2.58h-1.34v-4.31c0-2.93-1.527-3.983-3.343-3.983-1.63 0-2.93.866-3.508 2h-.04c-.517-1.485-1.61-2-2.766-2-1.795 0-2.826 1.216-3.363 2.042h-.04s.02-.145.02-.248v-.35c0-.723-.516-1.197-1.486-1.197h-3.364v2.58h.99c.29 0 .454.143.454.432v5.033h-1.34v2.58zm20.054-3.033c0 2.145 1.63 3.28 3.487 3.28 2.27 0 3.137-1.754 3.137-1.754h.042s-.043.145-.043.33v.062c0 .516.392 1.114 1.424 1.114h3.075v-2.58h-.784c-.288 0-.453-.164-.453-.453V8.21c0-2.786-1.65-4.333-4.745-4.333-2.683 0-4.498 1.38-4.498 1.38l1.238 2.415s1.485-1.01 2.93-1.01c.804 0 1.506.31 1.506 1.175v.31h-.64c-1.65 0-5.674.454-5.674 3.57zm3.59-.248c0-.95 1.26-1.32 2.435-1.32h.33v.247c0 .927-.91 2.02-1.817 2.02-.577 0-.95-.39-.95-.948zm8.522-2.022c0 3.28 1.856 5.55 4.683 5.55 2.475 0 3.28-1.754 3.28-1.754h.04s-.04.145-.04.33v.062c0 .516.392 1.114 1.423 1.114h3.075v-2.58h-.784c-.29 0-.454-.164-.454-.453V0h-5.014v2.58h1.444v1.67c0 .392.02.68.02.68h-.04s-.68-1.05-2.724-1.05c-2.93 0-4.91 2.186-4.91 5.57zm3.59 0c0-1.65.95-2.56 2.125-2.56 1.363 0 2.043 1.24 2.043 2.642 0 1.713-1.03 2.518-2.104 2.518-1.218 0-2.064-1.053-2.064-2.6z" fill-rule="evenodd"/></symbol><symbol id="icon-long-arrow-right" viewBox="0 0 11 11"><title>long-arrow-right</title><path d="M8.347 6.203c-.32.24-.64.577-.993.962L5.11 9.6l1.074.913 4.486-4.998-4.486-5-1.073.914 2.132 2.306c.416.465.752.833 1.105 1.09l-.016.048H0v1.28h8.33l.017.05z" fill-rule="evenodd"/></symbol><symbol id="icon-magnifier" viewBox="0 0 15 15"><title>magnifier</title><path d="M5.92 10.382c-2.444-.016-4.42-2.016-4.404-4.46.018-2.428 2.002-4.405 4.43-4.405h.03c1.182.007 2.29.477 3.12 1.32.832.84 1.286 1.958 1.28 3.142-.01 1.176-.473 2.285-1.31 3.114-.833.83-1.943 1.288-3.117 1.288h-.03M5.983 0h-.038C2.68 0 .022 2.638 0 5.912-.018 9.198 2.623 11.88 5.907 11.9h.042c1.088 0 2.112-.295 2.99-.81l3.613 3.617.092.088c.137.137.315.205.494.205.178 0 .357-.068.493-.205l1.164-1.162c.272-.274.272-.718 0-.99l-.09-.093-3.62-3.62c.506-.866.796-1.868.803-2.942C11.914 2.7 9.267.022 5.983 0" fill-rule="evenodd"/></symbol><symbol id="icon-marker" viewBox="0 0 17 19"><title>marker</title><path d="M7.378 14.166l4.146-11.91L6.862 0S1.995 8.102.532 10.85l6.846 3.316zm-.31.595c-.374.446-1.273 1.32-2.35.983-1.425-.444-1.01-.364-1.01-.364l-.303.73L.85 15.026l.54-.858s-2.013-.58-1.184-2.654L7.07 14.76zM.757 16.004L0 17.837l2.782.3.466-.908-2.492-1.227zM.12 18.34h16.737v.46H.12v-.46z" fill-rule="evenodd"/></symbol><symbol id="icon-message" viewBox="0 0 24 24"><title>message</title><path d="M20.098 3.035c-.184-.02-.37-.034-.554-.034-5.36 0-10.717 0-16.077.003-.248 0-.497.032-.743.074-.383.063-.6.318-.662.704-.038.233-.06.473-.06.71C2 8.132 2 11.776 2.003 15.42c0 .105 0 .21.007.314.046.813.33 1.11 1.123 1.124 1.054.02 2.067.016 3.12.022.223.002.66 0 .66 0v.354c0 1.34.042 2.682.046 4.025 0 .256-.056.57.246.704.295.13.49-.124.675-.3 1.637-1.53 3.277-3.058 4.906-4.596.15-.14.3-.19.497-.19 2 .004 4 .004 5.997.002.25 0 .503-.01.75-.033.594-.053.843-.294.93-.896.024-.186.038-.378.038-.567.002-3.586.003-7.173 0-10.76-.002-.254-.02-.513-.057-.765-.073-.517-.333-.768-.842-.823zM5 8c0 .552.446 1 .998 1h7.004c.55 0 .998-.444.998-1 0-.552-.446-1-.998-1H5.998C5.448 7 5 7.444 5 8zm0 4c0 .552.447 1 1 1h11c.553 0 1-.444 1-1 0-.552-.447-1-1-1H6c-.553 0-1 .444-1 1z" fill-rule="evenodd"/></symbol><symbol id="icon-minus-small" viewBox="0 0 16 16"><title>minus-small</title><path d="M3 7v2h10V7" fill-rule="evenodd"/></symbol><symbol id="icon-minus" viewBox="0 0 20 20"><title>minus</title><path d="M2 8v3h17V8" fill-rule="evenodd"/></symbol><symbol id="icon-mood-bad" viewBox="0 0 60 59"><title>mood-bad</title><path d="M60 5.108c0-.82-.062-1.577-.187-2.396-.25-1.577-1.06-2.397-2.68-2.586C56.574.063 55.95 0 55.39 0H4.672c-.81 0-1.558.126-2.368.252C1.12.442.435 1.262.187 2.46.062 3.215 0 3.91 0 4.665V39.54c.125 2.52 1.06 3.467 3.55 3.467 3.304.063 6.793.063 10.157.063.686 0 1.807.063 1.807.063v1.072c0 4.162.062 8.324.062 12.486 0 .82 0 1.767.935 2.208.935.38 1.496-.378 2.057-.946 5.17-4.792 10.28-9.522 15.452-14.25.497-.443.933-.57 1.556-.57h18.94c.81 0 1.56-.062 2.37-.125 1.868-.19 2.678-.883 2.927-2.775.062-.567.125-1.198.125-1.765C60 27.367 60 16.27 60 5.107zM35 34.5c0 .825-.563 1.5-1.25 1.5h-7.5c-.688 0-1.25-.675-1.25-1.5s.563-1.5 1.25-1.5h7.5c.688 0 1.25.675 1.25 1.5zM37 19h9c0 4-2.043 6-4.468 6C39.106 25 37 23 37 19zm-23 0h9c0 4-2.043 6-4.468 6C16.106 25 14 23 14 19z" fill="#F6820B" fill-rule="evenodd"/></symbol><symbol id="icon-mood-good" viewBox="0 0 60 59"><title>mood-good</title><path d="M60 5.108c0-.82-.062-1.577-.187-2.396-.25-1.577-1.06-2.397-2.68-2.586C56.574.063 55.95 0 55.39 0H4.672c-.81 0-1.558.126-2.368.252C1.12.442.435 1.262.187 2.46.062 3.215 0 3.91 0 4.665V39.54c.125 2.52 1.06 3.467 3.55 3.467 3.304.063 6.73.063 10.033.063.685 0 1.744.063 1.744.063v1.072c0 4.162.125 8.324.187 12.486 0 .82.062 1.767.997 2.208.935.38 1.496-.378 2.057-.946 5.17-4.792 10.28-9.522 15.452-14.25.497-.443.933-.57 1.556-.57h18.94c.81 0 1.56-.062 2.37-.125 1.868-.19 2.678-.883 2.927-2.775.062-.567.125-1.198.125-1.765C60 27.367 60 16.27 60 5.107zM18.78 20.336c-2.437 0-4.374-2.008-4.374-4.393 0-2.448 2-4.394 4.375-4.394 2.438 0 4.376 2.007 4.376 4.393.062 2.385-1.938 4.393-4.375 4.393zm27.563-4.393c0 2.447-2 4.393-4.375 4.393-2.437 0-4.375-2.008-4.375-4.393 0-2.448 2-4.394 4.375-4.394 2.375-.064 4.375 1.945 4.375 4.393zm-8.25 11.36c.5.44.563 1.256.063 1.758-2.063 2.26-4.938 3.516-8 3.516-3.063 0-5.938-1.256-8-3.515-.438-.5-.438-1.317.062-1.757.5-.44 1.313-.44 1.75.063 1.625 1.757 3.75 2.7 6.125 2.7 2.313 0 4.563-1.005 6.125-2.7.563-.502 1.375-.502 1.875-.063z" fill="#A9AC41" fill-rule="evenodd"/></symbol><symbol id="icon-mood-ok" viewBox="0 0 60 59"><title>mood-ok</title><path d="M60 5.108c0-.82-.062-1.577-.187-2.396-.25-1.577-1.06-2.397-2.68-2.586C56.574.063 55.95 0 55.39 0H4.672c-.81 0-1.558.126-2.368.252C1.12.442.435 1.262.187 2.46.062 3.215 0 3.91 0 4.665V39.54c.125 2.52 1.06 3.467 3.55 3.467 3.304.063 6.793.063 10.157.063.686 0 1.807.063 1.807.063v1.072c0 4.162.062 8.324.062 12.486 0 .82 0 1.767.935 2.208.935.38 1.496-.378 2.057-.946 5.17-4.792 10.28-9.522 15.452-14.25.497-.443.933-.57 1.556-.57h18.94c.81 0 1.56-.062 2.37-.125 1.868-.19 2.678-.883 2.927-2.775.062-.567.125-1.198.125-1.765C60 27.367 60 16.27 60 5.107zM22.718 18.453c0 2.448-2 4.394-4.375 4.394-2.437 0-4.375-2.01-4.375-4.394 0-2.448 2-4.393 4.375-4.393 2.375-.063 4.375 1.945 4.375 4.393zm23.125 0c0 2.448-2 4.394-4.375 4.394-2.437 0-4.375-2.01-4.375-4.394 0-2.448 2-4.393 4.375-4.393 2.375-.063 4.375 1.945 4.375 4.393zM36.77 32H23.23c-.676 0-1.23-.675-1.23-1.5s.554-1.5 1.23-1.5h13.54c.676 0 1.23.675 1.23 1.5s-.554 1.5-1.23 1.5z" fill="#FAAB00" fill-rule="evenodd"/></symbol><symbol id="icon-mood-superbad" viewBox="0 0 60 59"><title>mood-superbad</title><path d="M60 5.108c0-.82-.062-1.577-.187-2.396-.25-1.577-1.06-2.397-2.68-2.586C56.574.063 55.95 0 55.39 0H4.672c-.81 0-1.558.126-2.368.252C1.12.442.435 1.262.187 2.46.062 3.215 0 3.91 0 4.665V39.54c.125 2.52 1.06 3.467 3.55 3.467 3.304.063 6.793.063 10.157.063.686 0 1.807.063 1.807.063v1.072c0 4.162.062 8.324.062 12.486 0 .82 0 1.767.935 2.208.935.38 1.496-.378 2.057-.946 5.17-4.792 10.28-9.522 15.452-14.25.497-.443.933-.57 1.556-.57h18.94c.81 0 1.56-.062 2.37-.125 1.868-.19 2.678-.883 2.927-2.775.062-.567.125-1.198.125-1.765C60 27.367 60 16.27 60 5.107zm-14.313 15.48c.626 3.702-.937 5.9-3.374 6.34-2.376.438-4.688-1.13-5.313-4.834l8.688-1.507zm-27.437 6.4c-2.375-.438-4-2.635-3.375-6.338l8.688 1.506c-.688 3.704-2.938 5.21-5.313 4.833zM38 34.9c.438.502.438 1.318-.063 1.757-.5.44-1.312.44-1.75-.062-1.624-1.758-3.75-2.7-6.124-2.7-2.313 0-4.563 1.005-6.125 2.7-.25.25-.563.376-.938.376-.313 0-.625-.126-.875-.315-.5-.44-.563-1.255-.063-1.757C24.125 32.638 27 31.383 30 31.383s5.938 1.255 8 3.515z" fill="#F35910" fill-rule="evenodd"/></symbol><symbol id="icon-mood-supergood" viewBox="0 0 60 59"><title>mood-supergood</title><path d="M60 5.108c0-.82-.062-1.577-.187-2.396-.25-1.577-1.06-2.397-2.68-2.586C56.574.063 55.95 0 55.39 0H4.672c-.81 0-1.558.126-2.368.252C1.12.442.435 1.262.187 2.46.062 3.215 0 3.91 0 4.665V39.54c.125 2.52 1.06 3.467 3.55 3.467 3.304.063 6.73.063 10.033.063.685 0 1.744.063 1.744.063v1.072c0 4.162.125 8.324.187 12.486 0 .82.062 1.767.997 2.208.935.38 1.496-.378 2.057-.946 5.17-4.792 10.28-9.522 15.452-14.25.497-.443.933-.57 1.556-.57h18.94c.81 0 1.56-.062 2.37-.125 1.868-.19 2.678-.883 2.927-2.775.062-.567.125-1.198.125-1.765C60 27.367 60 16.27 60 5.107zM40.6 21c0 4.908-4.694 10-10.5 10s-10.5-5.092-10.5-10h21zm-17.16-5.31h-10c-.687 0-1.25-.563-1.25-1.254 0-.69.563-1.255 1.25-1.255h.626c.375-2.95 2.187-4.393 4.312-4.393 2.125 0 3.938 1.507 4.313 4.394h.75c.688 0 1.25.566 1.25 1.256 0 .69-.562 1.255-1.25 1.255zm24.376-1.254c0 .69-.563 1.255-1.25 1.255h-10c-.688 0-1.25-.563-1.25-1.254 0-.69.562-1.255 1.25-1.255h.625c.376-2.95 2.188-4.393 4.313-4.393 2.125 0 3.938 1.507 4.313 4.394h.75c.687 0 1.25.566 1.25 1.256z" fill="#38AE6A" fill-rule="evenodd"/></symbol><symbol id="icon-mute" viewBox="0 0 16 16"><title>mute</title><g fill-rule="evenodd"><path d="M1 6v4h3l4 3V3L4 6M11.293 8L9.146 5.854c-.195-.196-.195-.512 0-.708.196-.195.512-.195.708 0L12 7.293l2.146-2.147c.196-.195.512-.195.708 0 .195.196.195.512 0 .708L12.707 8l2.147 2.146c.195.196.195.512 0 .708-.196.195-.512.195-.708 0L12 8.707l-2.146 2.147c-.196.195-.512.195-.708 0-.195-.196-.195-.512 0-.708L11.293 8z"/></g></symbol><symbol id="icon-note" viewBox="0 0 16 16"><title>note</title><g fill-rule="evenodd"><path d="M9.847 1H1.633C1.283 1 1 1.28 1 1.638v12.724c0 .352.287.638.633.638h10.825c.35 0 .633-.28.633-.638v-7.53l-1.855 2.945L6.948 12h3.438c.34 0 .614.224.614.5 0 .278-.275.5-.614.5H3.614c-.34 0-.614-.224-.614-.5 0-.278.275-.5.614-.5h2.55l.07-2h-2.62C3.274 10 3 9.776 3 9.5c0-.278.275-.5.614-.5H6.27l.068-2H3.614C3.274 7 3 6.776 3 6.5c0-.278.275-.5.614-.5h3.09L7.96 4H3.666C3.298 4 3 3.776 3 3.5c0-.278.298-.5.665-.5h4.67c.083 0 .162.01.235.032L9.847 1z"/><path d="M14.11.82L13 .125c-.28-.176-.647-.09-.824.19l-.437.695 2.12 1.332.44-.696c.175-.28.09-.65-.19-.825zM7.964 7.023l2.122 1.333 3.46-5.507-2.124-1.334-3.457 5.508zm-.325 1.694L7.59 9.968l1.11-.586 1.028-.544L7.68 7.55 7.64 8.717z"/></g></symbol><symbol id="icon-oauth2-button" viewBox="0 0 29 24"><title>oauth2-button</title><path d="M15 15.732c.598-.345 1-.992 1-1.732 0-1.105-.895-2-2-2s-2 .895-2 2c0 .74.402 1.387 1 1.732v4.27h2v-4.27zM10.03 10h11.43c.853 0 1.54.67 1.54 1.496v9.008C23 21.32 22.31 22 21.46 22H6.54C5.686 22 5 21.33 5 20.504v-9.008C5 10.68 5.69 10 6.54 10h1.48l-.01-2.272.01.134c-.006-.046-.01-.09-.017-.16-.06-.78.153-1.682.58-2.57.84-1.75 2.61-3.133 5.414-3.133 2.803 0 4.67 1.382 5.51 3.13.428.89.537 1.79.478 2.57-.005.07-.01.116-.016.162l.008-.134-.01 2.272H17.99V7.728l.01-.134c-.002.01 0-.013.002-.04.035-.464-.035-1.037-.284-1.556-.458-.954-1.852-1.99-3.72-1.99-1.87 0-3.228 1.036-3.686 1.99-.25.52-.318 1.09-.283 1.554 0 .03.003.052.002.04l.01.136L10.028 10z" fill="#FFF" fill-rule="evenodd"/></symbol><symbol id="icon-office365-button" viewBox="0 0 29 24"><title>office365-button</title><path d="M23 20.492h-.016V3.558L16.95 1.81 6.032 5.9 6 5.915V18.15l3.726-1.45V6.74l7.223-1.73-.034 14.64L6 18.15l10.916 4.04 6.068-1.682v-.016" fill-rule="nonzero" fill="#FFF"/></symbol><symbol id="icon-one-ticket" viewBox="0 0 48 10"><title>one-ticket</title><g fill-rule="evenodd"><path fill="#FFF" d="M37.5 10H0l10-7h37.5"/><path d="M37.5 8H0l10-8h37.5"/></g></symbol><symbol id="icon-organization" viewBox="0 0 16 16"><title>organization</title><path d="M1 15h7V1H1v14zm2-2H2v-1h1v1zm0-2H2v-1h1v1zm0-2H2V8h1v1zm0-2H2V6h1v1zm0-2H2V4h1v1zM2 3V2h1v1H2zm3 10H4v-1h1v1zm0-2H4v-1h1v1zm0-2H4V8h1v1zm0-2H4V6h1v1zm0-2H4V4h1v1zm0-2H4V2h1v1zm2 10H6v-1h1v1zm0-2H6v-1h1v1zm0-2H6V8h1v1zm0-2H6V6h1v1zm0-2H6V4h1v1zm0-2H6V2h1v1zm1 2v10h7V5H8zm1 8v-1h1v1H9zm1-2H9v-1h1v1zm0-2H9V8h1v1zm0-2H9V6h1v1zm2 6h-1v-1h1v1zm0-2h-1v-1h1v1zm0-2h-1V8h1v1zm0-2h-1V6h1v1zm2 6h-1v-1h1v1zm0-2h-1v-1h1v1zm0-2h-1V8h1v1zm0-2h-1V6h1v1z" fill-rule="evenodd"/></symbol><symbol id="icon-outbound-calls" viewBox="0 0 17 17"><title>outbound-calls</title><g fill-rule="evenodd"><path d="M10.244 10l3.024-3.122 2.05 2.05L16 2l-6.927.683 2.05 2.05L8 7.852"/><path d="M2.05 1.598c.64-.642 2.574-.748 2.59-.41.014.34 1.742 4.105 1.758 4.444.014.34-1.14 1.496-1.478 1.835-.335.336 2.258 3.273 2.307 3.328.056.05 2.987 2.65 3.32 2.314.34-.34 1.493-1.497 1.832-1.482.337.015 4.093 1.747 4.432 1.762.338.016.232 1.954-.41 2.597-.546.548-3.38 2.54-8.31-1.017-.542-.312-1.398-1.027-2.696-2.327-.002 0-.002-.002-.002-.002l-.004-.002-.002-.003-.004-.003c-1.297-1.3-2.01-2.16-2.32-2.7C-.487 4.988 1.5 2.146 2.048 1.597z"/></g></symbol><symbol id="icon-overviews" viewBox="0 0 24 24"><title>overviews</title><path d="M10 7h10c1.308 0 2-.895 2-2s-.692-2-2-2H10c-1.307 0-2 .895-2 2s.693 2 2 2zm10 3H10c-1.307 0-2 .897-2 2 0 1.105.693 2 2 2h10c1.308 0 2-.895 2-2 0-1.103-.692-2-2-2zm0 7H10c-1.307 0-2 .897-2 2 0 1.104.693 2 2 2h10c1.308 0 2-.896 2-2 0-1.103-.692-2-2-2zM4 3c-1.325 0-2 .895-2 2s.675 2 2 2 2-.895 2-2-.675-2-2-2zm0 7c-1.325 0-2 .897-2 2 0 1.105.675 2 2 2s2-.895 2-2c0-1.103-.675-2-2-2zm0 7c-1.325 0-2 .897-2 2 0 1.104.675 2 2 2s2-.896 2-2c0-1.103-.675-2-2-2z" fill-rule="evenodd"/></symbol><symbol id="icon-package" viewBox="0 0 16 16"><title>package</title><path d="M13.214 11.58V4.736L7.95 7.777l-.66.38V15l5.924-3.42zM7.107 1L1.182 4.42l2.38 1.376 5.926-3.42L7.108 1zm3.262 1.883L4.443 6.305l.447.257 2.217 1.28L9.31 6.57l3.722-2.15-2.663-1.537zM4.21 8.525l-.057-.133-.06.078-.043-.13-.078.07-.037-.13-.08.055-.046-.133-.07.068-.047-.145-.066.09-.032-.142-.074.093-.045-.14-.053.085-.028-.113V6.12L1 4.736v6.842L6.925 15V8.158l-2.67-1.542v1.827l-.044.082z" fill-rule="evenodd"/></symbol><symbol id="icon-paperclip" viewBox="0 0 28 28"><title>paperclip</title><path d="M25.453 5.938c.062.996-.218 1.898-.84 2.707L13.32 23.112c-.986 1.307-2.32 2.054-4 2.24-1.68.25-3.173-.155-4.48-1.213-1.306-1.06-2.053-2.428-2.24-4.108-.186-1.68.218-3.173 1.214-4.48l7.934-10.08-2.054-1.603-7.84 10.095C.36 15.832-.23 17.947.08 20.312c.25 2.427 1.307 4.356 3.174 5.787 1.805 1.43 3.92 2.053 6.347 1.866 2.417-.31 4.31-1.4 5.68-3.267l11.386-14.47c1.048-1.367 1.478-2.923 1.292-4.665-.25-1.753-1.053-3.158-2.412-4.216C24.176.29 22.653-.146 20.973.04c-1.743.187-3.143.965-4.2 2.333L5.867 16.392c-.684.87-.964 1.867-.84 2.987.125 1.057.623 1.928 1.494 2.612.81.685 1.774.965 2.894.84 1.12-.186 1.992-.684 2.614-1.493l7.45-9.522-2.052-1.587-7.452 9.522c-.186.31-.466.467-.84.467-.373.06-.715-.032-1.026-.28-.374-.188-.56-.5-.56-.935 0-.373.093-.715.28-1.026L18.826 3.96c.622-.81 1.462-1.275 2.52-1.4.996-.062 1.898.218 2.707.84.81.622 1.276 1.468 1.4 2.536z" fill="#D5D5D6" fill-rule="evenodd"/></symbol><symbol id="icon-pen" viewBox="0 0 16 16"><title>pen</title><path d="M12.388 2.112l-1.564-.983C10.43.88 9.91 1 9.66 1.394l-.615.98 2.99 1.88.618-.98c.247-.396.13-.916-.265-1.163zM3.724 10.85l2.99 1.877 4.875-7.76-2.994-1.88-4.872 7.763zm-.458 2.386L3.2 15l1.56-.826 1.452-.766-2.886-1.813-.06 1.64z" fill-rule="evenodd"/></symbol><symbol id="icon-person" viewBox="0 0 24 24"><title>person</title><path d="M12.163 5.43c1.453 0 2.63-1.215 2.63-2.715 0-1.5-1.177-2.715-2.63-2.715-1.453 0-2.63 1.216-2.63 2.715 0 1.5 1.177 2.716 2.63 2.716zm3.574.863H8.235c-.64 0-1.16.536-1.16 1.197v6.846c0 .662.52 1.198 1.16 1.198h.357V24h6.65v-8.466h.495c.64 0 1.16-.536 1.16-1.198V7.49c0-.66-.52-1.197-1.16-1.197z" fill-rule="evenodd"/></symbol><symbol id="icon-phone" viewBox="0 0 17 17"><title>phone</title><path d="M1.983 1.56c.6-.6 2.415-.7 2.43-.383.012.318 1.633 3.847 1.647 4.165.014.32-1.068 1.403-1.385 1.72-.314.316 2.117 3.07 2.163 3.12.052.048 2.8 2.485 3.113 2.17.318-.318 1.4-1.402 1.718-1.388.317.014 3.838 1.638 4.155 1.652.318.014.218 1.832-.383 2.434-.513.514-3.17 2.382-7.792-.953-.507-.292-1.31-.963-2.527-2.182v-.002c-.003 0-.003-.002-.004-.003 0 0-.002 0-.003-.003 0 0-.002 0-.003-.002-1.216-1.22-1.884-2.025-2.176-2.532C-.392 4.74 1.47 2.075 1.984 1.56z" fill-rule="evenodd"/></symbol><symbol id="icon-plus-small" viewBox="0 0 16 16"><title>plus-small</title><path d="M9 3H7v4H3v2h4v4h2V9h4V7H9" fill-rule="evenodd"/></symbol><symbol id="icon-plus" viewBox="0 0 20 20"><title>plus</title><path d="M12 2V1H9v7H2v3h7v7h3v-7h7V8h-7" fill-rule="evenodd"/></symbol><symbol id="icon-printer" viewBox="0 0 24 24"><title>printer</title><g fill-rule="evenodd"><path d="M19 18v-2H5v2H2.992C2.444 18 2 17.554 2 17.002V9.998c0-.55.455-.998.992-.998h18.016c.548 0 .992.446.992.998v7.004c0 .55-.455.998-.992.998H19zM5 9v2h14V9H5z"/><path d="M5 2.992C5 2.444 5.39 2 5.876 2H15l4 4v15.008c0 .548-.39.992-.876.992H5.876C5.392 22 5 21.545 5 21.008V2.992zm1 18.016C6 21.003 18 21 18 21V7l-4-4H6v18.008z" fill-rule="nonzero"/><path d="M15 6c0-.005 3 0 3 0l-3-3v3zm-1-4l5 5h-4c-.552 0-1-.455-1-.992V2z" fill-rule="nonzero"/></g></symbol><symbol id="icon-radio-checked" viewBox="0 0 11 11"><title>radio-checked</title><g fill-rule="evenodd"><circle fill="#000" cx="5.5" cy="5.5" r="2.5"/><path d="M5.5 11C8.538 11 11 8.538 11 5.5S8.538 0 5.5 0 0 2.462 0 5.5 2.462 11 5.5 11zm0-1C7.985 10 10 7.985 10 5.5S7.985 1 5.5 1 1 3.015 1 5.5 3.015 10 5.5 10z" fill="currentColor"/></g></symbol><symbol id="icon-radio" viewBox="0 0 11 11"><title>radio</title><g fill-rule="evenodd"><path d="M5.5 0C2.462 0 0 2.462 0 5.5S2.462 11 5.5 11 11 8.538 11 5.5 8.538 0 5.5 0z" fill="currentColor"/><path d="M1 5.5C1 3.015 3.015 1 5.5 1S10 3.015 10 5.5 7.985 10 5.5 10 1 7.985 1 5.5z" fill="#FFF"/></g></symbol><symbol id="icon-received-calls" viewBox="0 0 17 17"><title>received-calls</title><g fill-rule="evenodd"><path d="M.988 8.407L8 9l-.593-7.012-2.074 2.074L2.173 1 0 3.173l3.062 3.16"/><path d="M15.95 1.598c-.64-.642-2.574-.748-2.59-.41-.014.34-1.742 4.105-1.758 4.444-.014.34 1.14 1.496 1.478 1.835.335.336-2.258 3.273-2.307 3.328-.056.05-2.987 2.65-3.32 2.314-.34-.34-1.493-1.497-1.832-1.482-.337.015-4.093 1.747-4.432 1.762-.338.016-.232 1.954.41 2.597.546.548 3.38 2.54 8.31-1.017.542-.312 1.398-1.027 2.696-2.327.002 0 .002-.002.002-.002l.004-.002.002-.003.004-.003c1.297-1.3 2.01-2.16 2.32-2.7 3.55-4.943 1.562-7.785 1.015-8.334z"/></g></symbol><symbol id="icon-reload" viewBox="0 0 16 16"><title>reload</title><path d="M10.92 12.21c-.88.618-1.91.928-2.966.913-.14-.002-.277-.008-.414-.02-.056-.006-.112-.015-.17-.022-.106-.013-.213-.027-.32-.048-.063-.013-.126-.028-.19-.044-.103-.024-.205-.048-.306-.078-.048-.015-.095-.032-.143-.048-.115-.04-.23-.08-.342-.126-.026-.01-.05-.022-.076-.034-.13-.057-.26-.118-.386-.186l-.016-.01c-.425-.232-.813-.522-1.153-.862l-.017-.018c-.105-.106-.206-.218-.302-.333l-.06-.076c-.693-.867-1.11-1.964-1.11-3.157H4.28L2.15 4.86.014 8.06h1.334c0 1.403.437 2.703 1.18 3.778l.026.046c.077.11.163.21.245.316.03.04.058.08.09.118.122.147.252.287.384.422l.038.04c.445.446.948.822 1.497 1.122l.043.025c.16.085.32.162.486.234.04.02.08.04.12.056.142.06.286.11.432.157.07.025.137.05.207.07.126.038.256.07.388.1.087.02.173.042.262.06.036.007.07.018.108.024.123.022.247.034.37.05.046.004.09.012.135.017.22.02.443.036.665.036 1.355 0 2.677-.415 3.812-1.21.36-.253.45-.752.195-1.113-.253-.363-.753-.45-1.114-.197zm2.587-7.92c-.01-.017-.018-.035-.03-.053-.092-.13-.192-.253-.292-.376l-.034-.044c-.676-.82-1.526-1.455-2.488-1.87-.027-.01-.053-.024-.08-.035-.153-.063-.31-.12-.47-.17-.056-.02-.112-.04-.17-.058-.138-.042-.278-.075-.42-.11-.078-.016-.155-.036-.234-.052-.038-.007-.076-.02-.114-.026-.106-.018-.21-.026-.317-.04-.073-.01-.145-.02-.218-.028-.178-.016-.354-.023-.53-.026-.033 0-.063-.005-.095-.005-1.37.003-2.69.412-3.824 1.206-.36.254-.448.753-.195 1.115s.752.45 1.114.196C5.983 3.3 7.005 2.99 8.052 3c.15 0 .298.008.444.022.045.004.09.01.135.017.12.015.24.03.357.054l.153.037c.116.026.23.054.344.088.035.01.07.024.106.036.13.043.256.088.38.14l.038.017c.746.32 1.4.814 1.91 1.432.728.886 1.16 2.003 1.162 3.22h-1.335l2.135 3.2 2.132-3.2h-1.332c0-1.398-.435-2.696-1.175-3.77z" fill-rule="evenodd"/></symbol><symbol id="icon-reopening" viewBox="0 0 68 47"><title>reopening</title><g fill-rule="evenodd"><path d="M39.3 18.7h21.1c3.6 0 6.4 2.3 7.3 5.7.1.6.2 1.1.2 1.7v13.8c0 3.4-2.8 6.4-6.1 6.9-.4.1-.8.1-1.2.1H38.7c-3.7 0-6.7-2.5-7.3-6.1-.1-.5-.1-.9-.1-1.4V26.2c0-2.4.9-4.3 2.8-5.8.3-.2.3-.4.3-.7v-8.2c0-5.4 3.7-10 8.9-11.2.8-.2 1.6-.3 2.4-.3h7.9C59.8 0 65 5.2 64.9 11.5c0 1.4-1.1 2.5-2.4 2.5-1.4.1-2.6-.9-2.7-2.2-.1-1.1-.2-2.2-.7-3.2-1.2-2.1-2.9-3.3-5.3-3.3-2.8-.1-5.6-.1-8.4 0-2.7 0-5.4 2.4-5.6 5.1-.6 2.6-.5 5.5-.5 8.3zm7.9 12c.2.7.1 1.4-.1 2-.2.8-.4 1.5-.6 2.3-.2.5 0 1 .3 1.3 1.7 1.5 3.4 1.6 5.1-.1.3-.3.4-.7.3-1.2-.3-1-.6-2.1-.8-3.1-.1-.3 0-.6 0-.8.6-1.4-.5-3-2-3-1.4 0-2.6 1.3-2.2 2.6z"/><path d="M20.8 18.3c-.3-1.1-.8-1.9-1.8-2.5V11h-.3c0-4-2.6-6.6-6.2-6.6H8.1c-.5 0-.8 0-1.3.1-3 .7-5.1 3.3-5.1 6.4v4.7c0 .2 0 .3-.2.4-1 .9-1.5 2-1.5 3.3v7.5c0 .3 0 .5.1.8.4 2.1 2 3.5 4.1 3.5h12.5c.2 0 .5 0 .7-.1 1.9-.3 3.5-2 3.5-3.9.1-2.6.1-5.2.1-7.8 0-.3-.1-.7-.2-1zM4.9 10.2C5 8.7 6.6 7.4 8.1 7.3h4.8c1.4 0 2.4.9 3 2.1.3.5.3 1.6.4 1.6l-.038 4.1S8.742 15 5.3 15h-.5c0-2 0-3.2.1-4.8zM12 25.1c-1 .9-1.9.9-2.9 0-.2-.2-.3-.4-.2-.8.1-.4.2-.9.3-1.3.1-.4.2-.7 0-1.1-.2-.8.4-1.5 1.2-1.5.9 0 1.5.9 1.2 1.7 0 .1-.1.3 0 .5.1.6.3 1.2.4 1.8.2.2.2.5 0 .7z" fill="#A9BCC4" opacity=".4"/><path d="M19.944 41H10v-7h1v6h8.483L17.7 36.9l9.9 4-9.9 4.1 2.244-4z" fill="#A9BCC4"/></g></symbol><symbol id="icon-reply-all" viewBox="0 0 16 16"><title>reply-all</title><path d="M6.26 7.955v1.27L0 5.122 6.26 1v1.277L1.94 5.12l4.32 2.835zm3.88-1.282c2.344 0 4.246 2.36 4.246 4.67 0 2.328-1.902 4.202-4.246 4.202 3.508 0 5.86-2.796 5.86-6.27 0-3.46-2.352-5.77-5.86-5.77V1L3.88 5.12l6.26 4.106V6.673z" fill-rule="evenodd"/></symbol><symbol id="icon-reply" viewBox="0 0 16 16"><title>reply</title><path d="M8.14 6.673c2.344 0 4.246 2.36 4.246 4.67 0 2.328-1.902 4.202-4.246 4.202 3.508 0 5.86-2.796 5.86-6.27 0-3.46-2.352-5.77-5.86-5.77V1L1.88 5.12l6.26 4.106V6.673z" fill-rule="evenodd"/></symbol><symbol id="icon-report" viewBox="0 0 20 20"><title>report</title><path d="M0 6h5v14H0V6zm7-6h6v20H7V0zm8 13h5v7h-5v-7z" fill-rule="evenodd"/></symbol><symbol id="icon-searchdetail" viewBox="0 0 18 14"><title>searchdetail</title><g fill-rule="evenodd"><path d="M13.21 8.62c-.882-.006-1.595-.728-1.59-1.61.007-.877.723-1.59 1.6-1.59h.01c.427.003.827.172 1.127.476.3.304.463.707.46 1.134-.003.425-.17.826-.47 1.125-.302.3-.703.465-1.127.465h-.01M10 6.953c-.01 1.752 1.4 3.182 3.15 3.193.603 0 1.15-.157 1.618-.432l1.926 1.93.05.046c.073.073.168.11.263.11s.19-.037.263-.11l.62-.62c.146-.146.146-.382 0-.527l-.047-.05-1.93-1.93c.27-.462.424-.997.428-1.57.014-1.752-1.398-3.18-3.15-3.193-1.76 0-3.178 1.407-3.19 3.153z" opacity=".5"/><path d="M0 1c0-.552.45-1 1.007-1h12.986C14.55 0 15 .444 15 1c0 .552-.45 1-1.007 1H1.007C.45 2 0 1.556 0 1zm0 4c0-.552.446-1 .998-1h7.004C8.552 4 9 4.444 9 5c0 .552-.446 1-.998 1H.998C.448 6 0 5.556 0 5zm0 4c0-.552.446-1 .998-1h7.004C8.552 8 9 8.444 9 9c0 .552-.446 1-.998 1H.998C.448 10 0 9.556 0 9zm0 4c0-.552.45-1 1.007-1h12.986c.556 0 1.007.444 1.007 1 0 .552-.45 1-1.007 1H1.007C.45 14 0 13.556 0 13z"/></g></symbol><symbol id="icon-signout" viewBox="0 0 15 19"><title>signout</title><g fill="#0F94D7" fill-rule="evenodd"><path d="M6 12V7H1v5h5zm0 3l5.6-5.5L6 4v11z"/><path d="M4 0v2h9v15H4v2h11V0"/></g></symbol><symbol id="icon-small-dot" viewBox="0 0 16 16"><title>small-dot</title><circle cx="8" cy="8" r="3" fill-rule="evenodd"/></symbol><symbol id="icon-split" viewBox="0 0 16 16"><title>split</title><path d="M4.443 7.218l.42-.343C6.415 5.59 7 4.515 7 2h2c0 2.514.584 3.59 2.138 4.875l.42.343C13.293 8.64 14 9.773 14 12h-4l3 3.333L16 12h-4c0-1.526-.393-2.156-1.71-3.235.038.03-.327-.266-.428-.35C8.945 7.655 8.5 7.5 8 6.4c-.5 1.1-.945 1.256-1.862 2.015-.1.084-.466.38-.428.35C4.393 9.845 4 10.475 4 12H2h4l-3 3.333L0 12h2c0-2.227.706-3.36 2.443-4.782z" fill-rule="evenodd"/></symbol><symbol id="icon-status-modified-outer-circle" viewBox="0 0 16 16"><title>status-modified-outer-circle</title><path d="M8 14c3.314 0 6-2.686 6-6s-2.686-6-6-6-6 2.686-6 6 2.686 6 6 6zm0-1c2.76 0 5-2.24 5-5s-2.24-5-5-5-5 2.24-5 5 2.24 5 5 5z" fill-rule="evenodd"/></symbol><symbol id="icon-status" viewBox="0 0 16 16"><title>status</title><circle cx="8" cy="8" r="4" fill-rule="evenodd"/></symbol><symbol id="icon-stopwatch" viewBox="0 0 77 83"><title>stopwatch</title><g fill="none" fill-rule="evenodd"><path d="M10.5 24.8c-1-.9-2.1-1.9-3-2.8l6.2-6.2c.8.9 1.7 1.9 2.6 2.9.8-.6 1.4-1.1 2-1.5 3.9-2.9 8.2-4.9 12.9-6 .7-.2.9-.4.9-1.1-.1-1.7 0-3.4 0-5.2h15.4v6C60.3 14.2 69.4 21.8 74 34.1c3.6 9.6 3 19.2-1.4 28.4-8.9 18.6-31.4 25.9-49.9 16.2-19-9.9-25.9-35.4-12.2-53.9zM40.048 75c15.134 0 27.644-12.107 27.947-27.442.302-16.143-12.712-28.25-27.442-28.552C25.318 18.703 12.203 30.91 12 46.55 11.9 62.49 24.31 75 40.05 75zM14.9 12.4c-.3.5-.4 1.1-.8 1.5-2.9 2.9-5.8 5.8-8.6 8.7-.7.7-1.5.8-2.4.5-1.3-.4-2.1-1.3-2.5-2.5-.3-.9-.2-1.7.5-2.5l8.6-8.6c.6-.6 1.4-.8 2.2-.6 1.5.3 2.8 1.9 3 3.5zm18.8-8.5c-.2-1.4.3-2.6 1.6-3.1 2.9-1.1 5.9-1.1 8.9 0 1.2.4 1.8 1.6 1.7 3.1H33.7z" fill="#A9BCC4"/><circle opacity=".3" cx="39.902" cy="46.902" r="24.902"/></g></symbol><symbol id="icon-switchView" viewBox="0 0 19 18"><title>switchView</title><path d="M9.75 7.595c-.6 0-1.1.5-1.1 1.1 0 .6.5 1.1 1.1 1.1.6 0 1.1-.5 1.1-1.1.1-.5-.4-1.1-1.1-1.1zm0-2.1c-3 0-6.1 3.3-6.1 3.3s3 3.3 6.1 3.3c3 0 6.1-3.3 6.1-3.3s-3-3.3-6.1-3.3zm0 5.6c-1.3 0-2.3-1-2.3-2.3 0-1.3 1-2.3 2.3-2.3 1.3 0 2.3 1 2.3 2.3.1 1.3-1 2.3-2.3 2.3zm-3.5-9.2c1.6-.802 3.4-1.002 5.3-.602l.3-1c-4.9-1.2-9.2 1.4-10.7 5.7-.8 2.302-.8 4.603.2 6.703l.5.8-2.1.6 4.5 3.2.4-4.9v-.6l-1.9 1.4-.3-.8c-.9-1.9-1-4-.3-6 .7-2.002 2.2-3.602 4.1-4.502zm10.9 2.4l2.1-.5-4.5-3.202-.4 5.502 2-1.5.5.9c1 1.9 1.2 4.1.5 6.1s-2 3.702-3.9 4.602c-1.6.8-3.9.8-4.9.7l-.3 1c3.9.8 8.7-1.6 10.2-5.9.8-2.302.5-4.702-.6-6.903l-.7-.8z" fill="#FFF" fill-rule="evenodd"/></symbol><symbol id="icon-task-state" viewBox="0 0 16 16"><title>task-state</title><path d="M8 13.5c3.038 0 5.5-2.462 5.5-5.5S11.038 2.5 8 2.5 2.5 4.962 2.5 8s2.462 5.5 5.5 5.5zm0-2.375c1.726 0 3.125-1.4 3.125-3.125 0-1.726-1.4-3.125-3.125-3.125-1.726 0-3.125 1.4-3.125 3.125 0 1.726 1.4 3.125 3.125 3.125z" fill-rule="evenodd"/></symbol><symbol id="icon-team" viewBox="0 0 16 16"><title>team</title><path d="M10.63 7.044s-.097.305-.112.346c-.016.04-.11.167-.09.167.02 0 .23.097.23.097l.81.25-.013.383c-.07.01-.35.196-.39.287-.028.06-.087.167-.144.24.74.298 1.17.734 1.188 1.22.012.088.46 1.686.485 2.045H16c.004-.016-.102-2.082-.103-2.098 0 0-.195-.497-.505-.548-.31-.05-.71-.16-.876-.285-.097-.075-.414-.203-.56-.256-.07-.025-.187-.228-.228-.32-.04-.09-.32-.276-.39-.287l-.013-.38.81-.253s.21-.097.23-.097c.02 0-.098-.153-.113-.194-.015-.04-.09-.32-.09-.32s.272.335.41.398c0 0-.27-.51-.352-.795-.082-.285-.135-.73-.135-.77 0-.04-.17-1.236-.26-1.434-.09-.198-.216-.467-.428-.6-.213-.132-.528-.32-.98-.345h-.04c-.454.025-.77.213-.98.345-.214.133-.338.402-.43.6-.09.2-.26 1.394-.26 1.435 0 .04-.047.503-.128.788-.082.285-.36.778-.36.778.14-.062.41-.396.41-.396zm-7.046 3.31v-.022l.002-.02c.22-.952 1.368-1.407 1.994-1.68-.38-.173-.58-.303-.675-.324-.038-.077-.12-.66-.12-.66s.456-.402.56-1.176c0 0 .224.125.238-.345.01-.363.073-.505-.174-.61 0 0 .017-.25.025-.474.012-.33.073-.793-.498-1.165-.08-.053-.5-.286-.503-.285-.15-.09-.338-.148-.338-.148l.006.136-.03-.03c-.038-.038-.06-.188-.056-.247l.008-.106c-.27.202-.457.463-.457.463l.024-.252s-.05.077-.668.463c-.607.38-.506.94-.49 1.27.012.223.034.376.034.376-.247.106-.118.258-.11.62.007.5.26.413.26.413.116.682.474 1.1.474 1.1s-.1.584-.14.658c-.112.025-.37.203-.912.43-.8.33-.548.14-1.198.463-1.027.515-.824 2.658-.824 2.658h3.237l.33-1.505zm8.82 2.906c0-.61-.69-3.194-.69-3.194 0-.377-.495-.808-1.474-1.06-.508-.13-.934-.422-.934-.422-.063-.036-.053-.365-.053-.365l-.316-.05c0-.026-.026-.42-.026-.42.378-.127.34-.87.34-.87.238.133.394-.454.394-.454.283-.816-.14-.767-.14-.767.134-.61 0-1.504 0-1.504-.19-1.652-3.03-1.204-2.692-.664-.83-.153-.64 1.724-.64 1.724l.18.485c-.354.228-.11.504-.097.82.018.47.305.372.305.372.018.773.4.874.4.874.073.485.03.403.03.403l-.343.04c.016.122-.027.33-.027.33-.402.176-.487.28-.886.454-.77.335-1.608.772-1.757 1.36-.148.586-.59 2.906-.59 2.906h9.018z" fill-rule="evenodd"/></symbol><symbol id="icon-telegram" viewBox="0 0 17 17"><title>telegram</title><g fill-rule="evenodd"><path d="M5.896 9.652l.722 2.378c.095.262.048.366.324.366.212 0 .306-.097.425-.213l1.02-.992 2.125 1.57c.39.216.673.104.77-.363l1.394-6.57c.143-.573-.218-.833-.592-.663L3.897 8.32c-.56.225-.556.537-.102.676l2.1.656zM8.5 17C3.806 17 0 13.194 0 8.5S3.806 0 8.5 0 17 3.806 17 8.5 13.194 17 8.5 17z" fill-rule="nonzero"/><path d="M6.942 12.396c-.276 0-.23-.104-.324-.366l-.81-2.665 6.234-3.698" fill-opacity=".08" fill-rule="nonzero"/><path d="M6.942 12.396c.212 0 .306-.097.425-.213L8.5 11.08l-1.414-.85" fill-opacity=".13"/></g></symbol><symbol id="icon-templates" viewBox="0 0 24 24"><title>templates</title><path d="M2.995 1C2.445 1 2 1.44 2 2.002v19.996C2 22.55 2.45 23 2.995 23h17.01c.55 0 .995-.44.995-1.002V2.002C21 1.45 20.55 1 20.005 1H2.995zm3.003 4C5.448 5 5 5.444 5 6c0 .552.446 1 .998 1h7.004c.55 0 .998-.444.998-1 0-.552-.446-1-.998-1H5.998zM6 9c-.552 0-1 .444-1 1 0 .552.448 1 1 1h11.027c.553 0 1-.444 1-1 0-.552-.447-1-1-1H6zm0 4c-.552 0-1 .444-1 1 0 .552.448 1 1 1h11.027c.553 0 1-.444 1-1 0-.552-.447-1-1-1H6zm0 4c-.552 0-1 .444-1 1 0 .552.448 1 1 1h11.027c.553 0 1-.444 1-1 0-.552-.447-1-1-1H6z" fill-rule="evenodd"/></symbol><symbol id="icon-tools" viewBox="0 0 24 24"><title>tools</title><path d="M3.435 2.003l2.37 1.71v.66l5.003 5.135-1.185 1.185-5.267-5.135h-.658l-1.58-2.24 1.317-1.315zm11.85 10.4l6.32 6.322c.527.526.527 1.71 0 2.238l-.527.527c-.526.526-1.843.395-2.37-.132L12.652 15.3l2.633-2.896zm.395-7.24l2.897 3.028 3.16-2.896s.263 3.555-1.45 4.872c-1.71 1.317-1.58 1.185-3.16.922-1.58-.264-2.105.13-2.632.658-.527.527-8.56 9.085-9.085 9.612-.527.527-1.45.79-2.107.132-.658-.66 0 0-.79-.79s-.57-1.67 0-2.24c.658-.657 9.875-9.347 9.875-9.347s.79-.395.527-2.107c-.263-1.712-1.185-1.975 1.053-3.555 2.24-1.58 4.74-1.447 4.74-1.447l-3.028 3.16z" fill-rule="evenodd"/></symbol><symbol id="icon-total-tickets" viewBox="0 0 48 83"><title>total-tickets</title><g fill="none" fill-rule="evenodd"><path fill="#DDE5E8" d="M37.5 83H0l10-8h37.5"/><path fill="#FFF" d="M37.5 80H0l10-7h37.5"/><path fill="#DDE5E8" d="M37.5 78H0l10-8h37.5"/><path fill="#FFF" d="M37.5 75H0l10-7h37.5"/><path fill="#DDE5E8" d="M37.5 73H0l10-8h37.5"/><path fill="#FFF" d="M37.5 70H0l10-7h37.5"/><path fill="#DDE5E8" d="M37.5 68H0l10-8h37.5"/><path fill="#FFF" d="M37.5 65H0l10-7h37.5"/><path fill="#DDE5E8" d="M37.5 63H0l10-8h37.5"/><path fill="#FFF" d="M37.5 60H0l10-7h37.5"/><path fill="#DDE5E8" d="M37.5 58H0l10-8h37.5"/><path fill="#FFF" d="M37.5 55H0l10-7h37.5"/><path fill="#DDE5E8" d="M37.5 53H0l10-8h37.5"/><path fill="#FFF" d="M37.5 50H0l10-7h37.5"/><path fill="#DDE5E8" d="M37.5 48H0l10-8h37.5"/><path fill="#FFF" d="M37.5 45H0l10-7h37.5"/><path fill="#DDE5E8" d="M37.5 43H0l10-8h37.5"/><path fill="#FFF" d="M37.5 40H0l10-7h37.5"/><path fill="#DDE5E8" d="M37.5 38H0l10-8h37.5"/><path fill="#FFF" d="M37.5 35H0l10-7h37.5"/><path fill="#DDE5E8" d="M37.5 33H0l10-8h37.5"/><path fill="#FFF" d="M37.5 30H0l10-7h37.5"/><path fill="#DDE5E8" d="M37.5 28H0l10-8h37.5"/><path fill="#FFF" d="M37.5 25H0l10-7h37.5"/><path fill="#DDE5E8" d="M37.5 23H0l10-8h37.5"/><path fill="#FFF" d="M37.5 20H0l10-7h37.5"/><path fill="#DDE5E8" d="M37.5 18H0l10-8h37.5"/><path fill="#FFF" d="M37.5 15H0l10-7h37.5"/><path fill="#DDE5E8" d="M37.5 13H0l10-8h37.5"/><path fill="#FFF" d="M37.5 10H0l10-7h37.5"/><path fill="#DDE5E8" d="M37.5 8H0l10-8h37.5"/></g></symbol><symbol id="icon-trash" viewBox="0 0 16 16"><title>trash</title><path d="M3.89 14.006c.06.55.558.994 1.11.994h6c.552 0 1.05-.445 1.11-.994L13 6H3l.89 8.006zM5 3l.75-2h4.5L11 3h2c1 0 1 2 1 2H2s0-2 1-2h2zm1 0h4l-.5-1h-3L6 3z" fill-rule="evenodd"/></symbol><symbol id="icon-twitter-button" viewBox="0 0 29 24"><title>twitter-button</title><path d="M24.172 5.163c1.017-.625 1.798-1.615 2.165-2.794-.95.578-2.005.998-3.127 1.224C22.312 2.614 21.032 2 19.616 2c-2.72 0-4.924 2.26-4.924 5.05 0 .395.044.78.128 1.15-4.092-.21-7.72-2.22-10.15-5.276-.423.746-.666 1.613-.666 2.538 0 1.752.87 3.298 2.19 4.203-.807-.026-1.566-.253-2.23-.632v.064c0 2.446 1.697 4.487 3.95 4.95-.413.116-.848.178-1.298.178-.317 0-.625-.032-.926-.09.627 2.005 2.445 3.465 4.6 3.506-1.685 1.355-3.808 2.162-6.115 2.162-.398 0-.79-.024-1.175-.07C5.18 21.163 7.767 22 10.548 22c9.057 0 14.01-7.693 14.01-14.366 0-.22-.005-.436-.015-.653.962-.71 1.797-1.6 2.457-2.613-.883.402-1.832.673-2.828.796z" fill="#FFF" fill-rule="evenodd"/></symbol><symbol id="icon-twitter" viewBox="0 0 17 17"><title>twitter</title><path d="M14.176 4.983c.608-.396 1.115-.99 1.42-1.685-.61.396-1.32.595-2.028.694-.61-.595-1.42-.992-2.23-.992-1.723 0-3.142 1.388-3.142 3.074 0 .2 0 .496.1.695-2.634-.1-4.864-1.39-6.384-3.175-.304.496-.405.992-.405 1.488 0 1.09.507 1.983 1.42 2.578-.508 0-1.015-.197-1.42-.396 0 1.488 1.115 2.678 2.534 2.976-.304.1-.506.1-.81.1-.203 0-.406 0-.608-.1.405 1.19 1.52 2.082 2.94 2.082-1.116.794-2.434 1.29-3.853 1.29H1C2.42 14.504 4.04 15 5.764 15c5.777 0 8.817-4.66 8.817-8.628v-.397c.508-.396 1.015-.892 1.42-1.487-.608.198-1.115.396-1.824.495z" fill-rule="evenodd"/></symbol><symbol id="icon-unmute" viewBox="0 0 16 16"><title>unmute</title><g fill-rule="evenodd"><path d="M1 6v4h3l4 3V3L4 6M10.327 5.115c2.23 1.455 2.23 4.315 0 5.77-.23.15-.297.46-.146.692.152.23.462.296.693.146 2.837-1.85 2.837-5.596 0-7.446-.23-.15-.54-.085-.692.146-.15.232-.084.54.147.692zm1.2-1.422c3.322 2.166 3.322 6.448 0 8.614-.23.15-.297.46-.146.692.152.23.462.295.693.145 3.928-2.56 3.928-7.73 0-10.29-.23-.15-.54-.085-.692.146-.15.233-.084.542.147.693zm-2.3 2.988c1.03.672 1.03 1.968 0 2.64-.23.15-.297.46-.146.69.152.233.462.298.693.147 1.636-1.066 1.636-3.248 0-4.314-.23-.15-.54-.086-.692.146-.15.23-.084.54.147.69z"/></g></symbol><symbol id="icon-user" viewBox="0 0 16 16"><title>user</title><path d="M13.253 11.688c-1.106-.553-.68-.13-2.037-.695-1.358-.565-1.68-.75-1.68-.75l-.01-1.295s.507-.387.666-1.613c.317.093.425-.373.442-.67.018-.29.187-1.186-.2-1.106.078-.6.14-1.14.113-1.427C10.45 3.127 9.757 2.077 8.01 2c-1.485.077-2.45 1.128-2.546 2.134-.028.286.03.827.108 1.427-.388-.08-.22.818-.204 1.106.02.297.124.765.442.673.158 1.224.666 1.614.666 1.614l-.012 1.302s-.322.197-1.68.762c-1.357.566-.93.117-2.037.67C1 12.562 1 14.964 1 14.964h14s0-2.402-1.747-3.276z" fill-rule="evenodd"/></symbol><symbol id="icon-web" viewBox="0 0 17 17"><title>web</title><g fill-rule="evenodd"><path d="M11.67 6.38l4.005-1.23-2.373 1.507"/><path d="M14.11 9.375L13.3 6.657l2.373-1.508-.71 2.44M16.846 4.41l-.44.74-1.442 2.44.71-2.44"/><path d="M16.99 4.89l-1.114 1.143.53-.884M11.91 5.62l3.275-.327-2.277.7M12.034 7.473l1.268-.816.807 2.718-.424.865"/><path d="M10.142 10.7l-.605-7.395 4.15 6.935M8.423 12.593l1.72-1.892 3.543-.46M.067 16.31l8.356-3.717 1.72-1.892-2.728-.278"/><path d="M.384 13.275l4.293-.654 1.335-1.074-.653-.288"/><path d="M1.93 9.77l4.082 1.776 1.403-1.124M9.23 5.985l-.52.086-1.295 4.352 1.402-.884"/><path d="M9.99 8.79l-1.173.748.72-6.233"/><path d="M5.56 6.57l3.67-.585.163-1.45"/><path d="M5.167 3.17l3.19 1.922 1.036-.558.03-.2"/><path d="M5.792 1.077l2.9 3.054.73.203.115-1.028M7.415 10.422L9.99 8.79l.152 1.91"/></g></symbol><symbol id="icon-zoom-in" viewBox="0 0 20 20"><title>zoom-in</title><g fill-rule="evenodd"><path d="M7 9H5V7h2V5h2v2h2v2H9v2H7"/><path d="M7.893 13.843c-3.258-.02-5.892-2.69-5.872-5.95.025-3.235 2.67-5.87 5.91-5.87h.038c1.576.01 3.055.635 4.16 1.76 1.11 1.12 1.715 2.61 1.705 4.19-.013 1.568-.63 3.046-1.744 4.153-1.113 1.107-2.593 1.717-4.158 1.717h-.04M7.978 0h-.05C3.575 0 .03 3.517 0 7.882c-.024 4.382 3.497 7.956 7.876 7.984h.056c1.452 0 2.817-.392 3.988-1.08l4.817 4.823.123.116c.183.183.42.274.66.274.237 0 .476-.09.657-.274l1.552-1.55c.362-.364.362-.956 0-1.32l-.122-.123-4.824-4.825c.673-1.155 1.06-2.492 1.07-3.924C15.883 3.602 12.355.03 7.976 0"/></g></symbol><symbol id="icon-zoom-out" viewBox="0 0 20 20"><title>zoom-out</title><g fill-rule="evenodd"><path d="M5 7v2h6V7"/><path d="M7.893 13.843c-3.258-.02-5.892-2.69-5.872-5.95.025-3.235 2.67-5.87 5.91-5.87h.038c1.576.01 3.055.635 4.16 1.76 1.11 1.12 1.715 2.61 1.705 4.19-.013 1.568-.63 3.046-1.744 4.153-1.113 1.107-2.593 1.717-4.158 1.717h-.04M7.978 0h-.05C3.575 0 .03 3.517 0 7.882c-.024 4.382 3.497 7.956 7.876 7.984h.056c1.452 0 2.817-.392 3.988-1.08l4.817 4.823.123.116c.183.183.42.274.66.274.237 0 .476-.09.657-.274l1.552-1.55c.362-.364.362-.956 0-1.32l-.122-.123-4.824-4.825c.673-1.155 1.06-2.492 1.07-3.924C15.883 3.602 12.355.03 7.976 0"/></g></symbol><symbol id="icon-weibo-button" viewBox="0 0 29 24"><title>icon-weibo-button</title><desc>Created with Sketch.</desc><defs></defs><g id="Page-1" stroke="none" stroke-width="1" fill="none" fill-rule="evenodd"><g id="weibo-button" fill-rule="nonzero" fill="#ffffff"><path d="M12.183,21.53472 C7.38,21.99168 3.234,19.90368 2.922,16.88064 C2.61,13.85184 6.252,11.0352 11.05,10.57824 C15.853,10.12128 19.999,12.20928 20.305,15.23232 C20.622,18.26112 16.98,21.08352 12.183,21.53472 Z M21.784,11.4912 C21.376,11.3712 21.093,11.29536 21.308,10.77888 C21.772,9.65856 21.818,8.69664 21.314,8.00544 C20.374,6.71712 17.797,6.7824 14.846,7.9728 C14.846,7.9728 13.917,8.35872 14.155,7.65696 C14.608,6.2544 14.54,5.08512 13.832,4.40544 C12.229,2.86656 7.97,4.46496 4.316,7.9728 C1.586,10.58784 0,13.3776 0,15.78624 C0,20.38656 6.151,23.18688 12.166,23.18688 C20.05,23.18688 25.301,18.78816 25.301,15.29664 C25.301,13.18176 23.449,11.9856 21.784,11.49024 L21.784,11.4912 Z" id="Shape"></path><path d="M27.023,3.06336 C25.12,1.03488 22.31,0.26304 19.716,0.79008 L19.716,0.79008 C19.116,0.91488 18.736,1.48032 18.866,2.05152 C18.996,2.62752 19.58,2.99232 20.18,2.86752 C22.026,2.49216 24.02,3.04128 25.374,4.48224 C26.728,5.9232 27.096,7.8864 26.512,9.6048 L26.512,9.6048 C26.325,10.16448 26.642,10.76256 27.226,10.94784 C27.809,11.12736 28.432,10.82304 28.625,10.2624 L28.625,10.25664 C29.441,7.8528 28.925,5.09088 27.022,3.0624 L27.023,3.06336 Z" id="Shape"></path><path d="M24.095,5.60256 C23.166,4.6128 21.795,4.23744 20.538,4.49856 C20.023,4.60224 19.694,5.09664 19.802,5.59104 C19.915,6.08544 20.425,6.40128 20.935,6.2928 L20.935,6.2928 C21.552,6.168 22.221,6.35232 22.674,6.83136 C23.127,7.3152 23.252,7.9728 23.053,8.54976 L23.053,8.54976 C22.894,9.02784 23.166,9.55008 23.67,9.70752 C24.174,9.86016 24.712,9.59904 24.876,9.1152 C25.272,7.93536 25.023,6.58656 24.094,5.60256 L24.095,5.60256 Z" id="Shape"></path><path d="M12.45,16.05888 C12.28,16.33632 11.912,16.46688 11.623,16.35264 C11.334,16.24416 11.249,15.92832 11.413,15.6624 C11.583,15.39552 11.94,15.26592 12.223,15.36864 C12.506,15.46656 12.608,15.77664 12.45,16.05888 Z M10.915,17.94048 C10.451,18.6528 9.454,18.96288 8.706,18.63648 C7.97,18.31584 7.749,17.48928 8.213,16.79328 C8.672,16.10304 9.635,15.79296 10.377,16.09152 C11.13,16.4016 11.374,17.2224 10.915,17.94048 Z M12.659,12.90528 C10.376,12.33408 7.794,13.42752 6.802,15.35712 C5.788,17.32512 6.768,19.5168 9.073,20.23488 C11.463,20.97408 14.284,19.8384 15.264,17.71776 C16.233,15.63552 15.026,13.49856 12.659,12.90528 L12.659,12.90528 Z" id="Shape"></path></g></g></symbol></svg>
