<?xml version="1.0" encoding="UTF-8"?><!DOCTYPE svg PUBLIC "-//W3C//DTD SVG 1.1//EN" "http://www.w3.org/Graphics/SVG/1.1/DTD/svg11.dtd"><svg xmlns="http://www.w3.org/2000/svg"><symbol id="icon-arrow-right" viewBox="0 0 11 11"><title>arrow-right</title><path d="M8.347 6.203c-.32.24-.64.577-.993.962L5.11 9.6l1.074.913 4.486-4.998-4.486-5-1.073.914 2.132 2.306c.416.465.752.833 1.105 1.09l-.016.048H0v1.28h8.33l.017.05z" fill-rule="evenodd"/></symbol><symbol id="icon-clock" viewBox="0 0 16 16"><title>clock</title><path d="M7.54 2.08c-3.566 0-6.46 2.892-6.46 6.46 0 3.567 2.894 6.46 6.46 6.46C11.108 15 14 12.107 14 8.54c0-3.568-2.893-6.46-6.46-6.46zm.007 11.62c-2.887 0-5.234-2.33-5.234-5.19 0-2.863 2.347-5.19 5.234-5.19 2.885 0 5.235 2.327 5.235 5.19 0 2.86-2.35 5.19-5.235 5.19zm3.538-5.387h1.273c-.023-.523-.127-1.022-.305-1.488l-.587.25-.132-.305.59-.25c-.216-.463-.504-.888-.85-1.258l-.487.482-.234-.234.484-.483c-.326-.303-.696-.562-1.1-.768l-.27.6-.306-.136.275-.606c-.522-.22-1.09-.353-1.688-.378v1.39h-.333V3.738c-.522.014-1.024.11-1.49.28l.325.74-.308.13-.33-.75c-.475.207-.908.487-1.285.828l.55.544-.238.234-.555-.55c-.327.335-.603.716-.82 1.134l.78.333-.138.303-.784-.336c-.228.52-.364 1.09-.39 1.688l1.475-.002v.33l-1.474.004c.016.583.138 1.138.35 1.65l.768-.33.13.304-.76.33c.207.426.48.817.806 1.16l.564-.53.236.235-.566.532c.366.34.786.62 1.245.833l.323-.725.303.138-.32.718c.5.194 1.038.305 1.6.32v-1.386h.334v1.384c.588-.023 1.15-.15 1.667-.368l-.255-.59.304-.13.252.58c.43-.217.823-.495 1.168-.823l-.42-.416.237-.233.417.412c.32-.352.587-.75.793-1.184l-.572-.253.137-.304.567.25c.19-.49.3-1.023.316-1.578h-1.273v-.33zM10.04 10.93c-.155.155-.408.155-.565 0L7.528 9.216c-.177-.18-.38-.296-.38-.65v-2.29c0-.237.193-.43.432-.43.24 0 .435.193.435.43v2.276l2.028 1.815c.157.155.155.407-.002.563z" fill-rule="evenodd"/></symbol><symbol id="icon-close" viewBox="0 0 13 13"><title>close</title><path d="M6.518 5.112L11.304.294c.387-.39 1.016-.392 1.406-.005.39.386.39 1.015.004 1.405l-4.79 4.823 4.785 4.785c.387.388.387 1.018 0 1.406-.39.387-1.02.387-1.407 0l-4.78-4.78-4.744 4.776c-.388.39-1.017.392-1.407.005-.39-.386-.39-1.015-.005-1.405l4.75-4.782L.29 1.697C-.096 1.31-.096.68.29.29c.39-.387 1.02-.387 1.407 0l4.82 4.822z" fill-rule="evenodd"/></symbol><symbol id="icon-cloud" viewBox="0 0 16 16"><title>cloud</title><path d="M4 14h-.03C1.78 14 0 12.14 0 9.846 0 7.7 1.555 5.934 3.55 5.716 3.76 3.625 5.45 2 7.5 2c2.05 0 3.74 1.627 3.95 3.715C13.444 5.935 15 7.7 15 9.845 15 12.14 13.222 14 11.03 14H4z" fill-rule="evenodd"/></symbol><symbol id="icon-cog" viewBox="0 0 20 20"><title>cog</title><path d="M20 11.09V8.814l-.322-.105-2.436-.796-.65-1.57 1.25-2.643-1.61-1.61-.302.156-2.286 1.16-1.568-.65L11.09 0H8.814l-.9 2.758-1.57.65L3.7 2.16 2.09 3.768l.154.304 1.158 2.284-.648 1.57L0 8.91v2.277l.32.104 2.438.798.65 1.568-1.25 2.645 1.61 1.61.3-.153 2.285-1.16 1.57.65L8.91 20h2.276l.105-.32.796-2.436 1.568-.65 2.645 1.248 1.608-1.608-.152-.302-1.16-2.284.65-1.57L20 11.09zm-10 2.098c-1.76 0-3.188-1.426-3.188-3.188 0-1.76 1.428-3.185 3.188-3.185 1.76 0 3.185 1.425 3.185 3.185 0 1.762-1.425 3.188-3.185 3.188z" fill-rule="evenodd"/></symbol><symbol id="icon-dashboard" viewBox="0 0 24 24"><title>dashboard</title><path d="M11.967 2c-5.523 0-10 4.477-10 10s4.477 10 10 10 10-4.477 10-10-4.477-10-10-10zm0 18.125c-1.38 0-2.5-1.12-2.5-2.5 0-.105 2.5-8.437 2.5-8.437s2.5 8.332 2.5 8.437c0 1.38-1.12 2.5-2.5 2.5zm6.372-4.17c.713-1.15 1.127-2.503 1.127-3.955 0-4.142-3.357-7.5-7.5-7.5-4.142 0-7.5 3.358-7.5 7.5 0 1.452.414 2.806 1.128 3.954l-1.016.73C3.717 15.33 3.216 13.725 3.216 12c0-4.832 3.918-8.75 8.75-8.75 4.833 0 8.75 3.918 8.75 8.75 0 1.724-.5 3.33-1.362 4.685l-1.016-.73z" fill-rule="evenodd"/></symbol><symbol id="icon-facebook" viewBox="0 0 17 17"><title>facebook</title><path d="M1.805 1C1.302 1 1 1.403 1 1.805v13.39c0 .503.403.805.805.805h7.25v-5.84H7.04V7.847h2.014V6.134c0-1.913 1.208-3.02 2.92-3.02.805 0 1.51.1 1.71.1V5.23h-1.207c-.907 0-1.108.403-1.108 1.108v1.41h2.214l-.302 2.314H11.37V16h3.825c.503 0 .805-.403.805-.806V1.704c0-.3-.403-.704-.805-.704H1.805z" fill-rule="evenodd"/></symbol><symbol id="icon-group" viewBox="0 0 24 24"><title>group</title><path d="M5.22 5.43c1.454 0 2.632-1.215 2.632-2.715C7.852 1.215 6.674 0 5.222 0 3.767 0 2.59 1.216 2.59 2.715c0 1.5 1.176 2.715 2.63 2.715zm6.98 0c1.454 0 2.632-1.215 2.632-2.715 0-1.5-1.178-2.715-2.63-2.715C10.747 0 9.57 1.216 9.57 2.715c0 1.5 1.178 2.716 2.63 2.716zm5.983 0c1.453 0 2.63-1.215 2.63-2.715 0-1.5-1.177-2.715-2.63-2.715-1.453 0-2.63 1.216-2.63 2.715 0 1.5 1.177 2.716 2.63 2.716zm-2.408.863H8.273c-.64 0-1.16.536-1.16 1.197v6.846c0 .662.52 1.197 1.16 1.197h.357V24h6.65v-8.467h.495c.64 0 1.16-.535 1.16-1.197V7.49c0-.66-.52-1.197-1.16-1.197zm-10.3 8.043V7.49c0-.428.097-.83.26-1.197H1.86C1.22 6.293.7 6.83.7 7.49v6.846c0 .662.52 1.198 1.16 1.198h.358V24h4.775v-7.097c-.9-.48-1.518-1.45-1.518-2.567zM22.29 6.293h-3.977c.163.366.26.77.26 1.197v6.846c0 1.172-.68 2.183-1.655 2.635V24h4.878v-8.467h.493c.64 0 1.16-.535 1.16-1.197V7.49c0-.66-.52-1.197-1.16-1.197z" fill-rule="evenodd"/></symbol><symbol id="icon-important" viewBox="0 0 16 16"><title>important</title><path d="M9.59 10.602c0 .08-.017.15-.055.21-.037.06-.104.11-.2.15-.095.04-.218.07-.367.09-.15.02-.336.03-.56.03-.223 0-.41-.01-.56-.03-.148-.02-.27-.05-.367-.09-.095-.04-.16-.09-.198-.15-.038-.06-.056-.13-.056-.21L6.954 2.2c-.01-.12.005-.224.048-.313.042-.09.12-.165.232-.225.112-.06.26-.102.447-.127.187-.025.43-.037.728-.037.288 0 .525.015.712.044.186.03.335.075.447.135.112.06.19.132.232.217.04.085.063.187.063.307l-.272 8.402zm.33 2.485c0 .68-.68 1.228-1.513 1.228-.198 0-.386-.03-.56-.087-.243.124-.458.21-.747.262-.086.016-.12.015-.128.005-.01-.012.02-.035.045-.054.28-.203.326-.31.394-.43-.316-.224-.515-.555-.515-.924 0-.68.676-1.23 1.512-1.23.834 0 1.512.55 1.512 1.23z" fill-rule="evenodd"/></symbol><symbol id="icon-in-process" viewBox="0 0 64 64"><title>in-process</title><g fill-rule="evenodd"><path d="M7.997 43.98c.037-3.865.037-7.657 0-11.994-2.244.046-4.13-.852-5.998-2.998-1.207-1.147-2-3.043-2-4.998V7.997C0 3.792 3.77 0 7.997 0h30.988c5.153 0 8.922 3.592 8.996 7.997.026 5.474.026 10.563 0 15.993-.172 4.45-3.94 8.042-8.995 7.996-5.857.046-11.907.046-17.993 0-.56.046-1.353.345-2 1-3.52 3.436-6.99 7.228-10.995 10.995.335.026.235.026 0 0z"/><path d="M52 20c3.61-.172 7.144-.172 10 3 1.185 1.404 1.993 3.195 2 5-.007 5.358-.21 10.432 0 15 .195 4.983-4.148 8.863-8 9 .316.062.114.16 0 0-.088 4.04-.088 7.822 0 12-.593-.497-.997-.696-1-1-3.634-3.278-6.967-6.56-10-10-1.11-.64-1.917-1.038-3-1-6.09.062-12.15-.038-18 0-5.565-.038-9.707-4.813-9-10 .202-.385.404-.683 1-1 1.222-1.474 2.637-2.966 4-4 .657-.757 1.364-.956 2-1 5.526.044 11.183.044 17 0 6.002.044 11.356-4.134 13-10-.028-1.795-.23-3.785 0-6z" opacity=".4" fill="#A9BCC4"/></g></symbol><symbol id="icon-list" viewBox="0 0 16 16"><title>list</title><path d="M0 3c0-.552.45-1 1.007-1h12.986C14.55 2 15 2.444 15 3c0 .552-.45 1-1.007 1H1.007C.45 4 0 3.556 0 3zm0 4c0-.552.45-1 1.007-1h12.986C14.55 6 15 6.444 15 7c0 .552-.45 1-1.007 1H1.007C.45 8 0 7.556 0 7zm0 4c0-.552.45-1 1.007-1h12.986c.556 0 1.007.444 1.007 1 0 .552-.45 1-1.007 1H1.007C.45 12 0 11.556 0 11zm0 4c0-.552.45-1 1.007-1h12.986c.556 0 1.007.444 1.007 1 0 .552-.45 1-1.007 1H1.007C.45 16 0 15.556 0 15z" fill-rule="evenodd"/></symbol><symbol id="icon-logo" viewBox="0 0 42 36"><title>logo</title><g fill-rule="evenodd"><path d="M18.343 22.36L1.976 28.327l22.71-2.664-6.343-3.3" id="Shape" fill="#D9B42F"/><path d="M18.418 22.34l2.16 5.03L5.88 20.414l12.537 1.922" id="Shape" fill="#FFE188"/><path d="M41.566 9.722l-1.804.718-1.666 2.605 3.47-3.323" id="Shape" fill="#E83F00"/><path d="M37.19 10.694l-8.86 2.256 3.864.8 4.996-3.056" id="Shape" fill="#CD1F14"/><path d="M38.07 10.694l-7.784.4 2.347.982 5.437-1.382" id="Shape" fill="#E83F00"/><path d="M33 22.18l3.114-5.93 1.84-5.558-19.385 11.425 6.25.857L33 22.18" id="Shape" fill="#EB4F86"/><g id="Shape" fill="#00A2C9"><path d="M24.02 5.833l-5.444 16.12 3.296-1.94 2.15-14.18"/><path d="M24.06 5.392L15.64 0l8.626 9.726-.206-4.334"/></g><path d="M23.84 7.984L13.69 4.86l10.275 6.6-.124-3.477" id="Shape" fill="#5A8794"/><path d="M24.19 8.75l-9.52 4.685 9.644-1.208-.124-3.477" id="Shape" fill="#005971"/><path d="M36.14 15.875l4.57-7.125-2.742 1.596-1.827 5.53" id="Shape" fill="#CD1F14"/><path d="M25.22 18.406l-.596-12.573-2.15 14.18 2.746-1.607" id="Shape" fill="#5EB2D1"/><path d="M32.28 13.61l1.64 6.267-1.025 1.943-3.585-6.457 2.97-1.752" id="Shape" fill="#F69B00"/><path d="M32.795 22.36l-8.18.794-4.09 4.176 12.27-4.97" id="Shape" fill="#E83F00"/><path d="M33.415 22.02L24.428 5.836l.808 16.977 8.18-.793" id="Shape" fill="#BAE2F6"/><path d="M24.943 18.472l.212 4.404-8.536 2.998L18.9 22.02l6.04-3.55" id="Shape" fill="#F69B00"/><path d="M18.323 22.36l6.252.858-4.092 4.176L1 35.254 18.32 22.36" fill="#FFD130"/></g></symbol><symbol id="icon-magnifier" viewBox="0 0 15 15"><title>magnifier</title><path d="M5.92 10.382c-2.444-.016-4.42-2.016-4.404-4.46.018-2.428 2.002-4.405 4.43-4.405h.03c1.182.007 2.29.477 3.12 1.32.832.84 1.286 1.958 1.28 3.142-.01 1.176-.473 2.285-1.31 3.114-.833.83-1.943 1.288-3.117 1.288h-.03M5.983 0h-.038C2.68 0 .022 2.638 0 5.912-.018 9.198 2.623 11.88 5.907 11.9h.042c1.088 0 2.112-.295 2.99-.81l3.613 3.617.092.088c.137.137.315.205.494.205.178 0 .357-.068.493-.205l1.164-1.162c.272-.274.272-.718 0-.99l-.09-.093-3.62-3.62c.506-.866.796-1.868.803-2.942C11.914 2.7 9.267.022 5.983 0" fill-rule="evenodd"/></symbol><symbol id="icon-mail" viewBox="0 0 17 17"><title>mail</title><path d="M11.325 9L8.5 11.593 5.675 9 1 14h15l-4.675-5zM17 4l-5 4.592L17 14V4zM0 4v10l5-5.354L0 4zm17-1H0l8.45 7L17 3z" fill-rule="evenodd"/></symbol><symbol id="icon-message" viewBox="0 0 24 24"><title>message</title><path d="M20.098 3.035c-.184-.02-.37-.034-.554-.034-5.36 0-10.717 0-16.077.003-.248 0-.497.032-.743.074-.383.063-.6.318-.662.704-.038.233-.06.473-.06.71C2 8.132 2 11.776 2.003 15.42c0 .105 0 .21.007.314.046.813.33 1.11 1.123 1.124 1.054.02 2.067.016 3.12.022.223.002.66 0 .66 0v.354c0 1.34.042 2.682.046 4.025 0 .256-.056.57.246.704.295.13.49-.124.675-.3 1.637-1.53 3.277-3.058 4.906-4.596.15-.14.3-.19.497-.19 2 .004 4 .004 5.997.002.25 0 .503-.01.75-.033.594-.053.843-.294.93-.896.024-.186.038-.378.038-.567.002-3.586.003-7.173 0-10.76-.002-.254-.02-.513-.057-.765-.073-.517-.333-.768-.842-.823zM5 8c0 .552.446 1 .998 1h7.004c.55 0 .998-.444.998-1 0-.552-.446-1-.998-1H5.998C5.448 7 5 7.444 5 8zm0 4c0 .552.447 1 1 1h11c.553 0 1-.444 1-1 0-.552-.447-1-1-1H6c-.553 0-1 .444-1 1z" fill-rule="evenodd"/></symbol><symbol id="icon-mood-bad" viewBox="0 0 60 59"><title>mood-bad</title><path d="M60 5.108c0-.82-.062-1.577-.187-2.396-.25-1.577-1.06-2.397-2.68-2.586C56.574.063 55.95 0 55.39 0H4.672c-.81 0-1.558.126-2.368.252C1.12.442.435 1.262.187 2.46.062 3.215 0 3.91 0 4.665V39.54c.125 2.52 1.06 3.467 3.55 3.467 3.304.063 6.793.063 10.157.063.686 0 1.807.063 1.807.063v1.072c0 4.162.062 8.324.062 12.486 0 .82 0 1.767.935 2.208.935.38 1.496-.378 2.057-.946 5.17-4.792 10.28-9.522 15.452-14.25.497-.443.933-.57 1.556-.57h18.94c.81 0 1.56-.062 2.37-.125 1.868-.19 2.678-.883 2.927-2.775.062-.567.125-1.198.125-1.765C60 27.367 60 16.27 60 5.107zM35 34.5c0 .825-.563 1.5-1.25 1.5h-7.5c-.688 0-1.25-.675-1.25-1.5s.563-1.5 1.25-1.5h7.5c.688 0 1.25.675 1.25 1.5zM37 19h9c0 4-2.043 6-4.468 6C39.106 25 37 23 37 19zm-23 0h9c0 4-2.043 6-4.468 6C16.106 25 14 23 14 19z" fill="#F6820B" fill-rule="evenodd"/></symbol><symbol id="icon-mood-happy" viewBox="0 0 60 59"><title>mood-happy</title><path d="M60 5.108c0-.82-.062-1.577-.187-2.396-.25-1.577-1.06-2.397-2.68-2.586C56.574.063 55.95 0 55.39 0H4.672c-.81 0-1.558.126-2.368.252C1.12.442.435 1.262.187 2.46.062 3.215 0 3.91 0 4.665V39.54c.125 2.52 1.06 3.467 3.55 3.467 3.304.063 6.73.063 10.033.063.685 0 1.744.063 1.744.063v1.072c0 4.162.125 8.324.187 12.486 0 .82.062 1.767.997 2.208.935.38 1.496-.378 2.057-.946 5.17-4.792 10.28-9.522 15.452-14.25.497-.443.933-.57 1.556-.57h18.94c.81 0 1.56-.062 2.37-.125 1.868-.19 2.678-.883 2.927-2.775.062-.567.125-1.198.125-1.765C60 27.367 60 16.27 60 5.107zM18.78 20.336c-2.437 0-4.374-2.008-4.374-4.393 0-2.448 2-4.394 4.375-4.394 2.438 0 4.376 2.007 4.376 4.393.062 2.385-1.938 4.393-4.375 4.393zm27.563-4.393c0 2.447-2 4.393-4.375 4.393-2.437 0-4.375-2.008-4.375-4.393 0-2.448 2-4.394 4.375-4.394 2.375-.064 4.375 1.945 4.375 4.393zm-8.25 11.36c.5.44.563 1.256.063 1.758-2.063 2.26-4.938 3.516-8 3.516-3.063 0-5.938-1.256-8-3.515-.438-.5-.438-1.317.062-1.757.5-.44 1.313-.44 1.75.063 1.625 1.757 3.75 2.7 6.125 2.7 2.313 0 4.563-1.005 6.125-2.7.563-.502 1.375-.502 1.875-.063z" fill="#A9AC41" fill-rule="evenodd"/></symbol><symbol id="icon-mood-ok" viewBox="0 0 60 59"><title>mood-ok</title><path d="M60 5.108c0-.82-.062-1.577-.187-2.396-.25-1.577-1.06-2.397-2.68-2.586C56.574.063 55.95 0 55.39 0H4.672c-.81 0-1.558.126-2.368.252C1.12.442.435 1.262.187 2.46.062 3.215 0 3.91 0 4.665V39.54c.125 2.52 1.06 3.467 3.55 3.467 3.304.063 6.793.063 10.157.063.686 0 1.807.063 1.807.063v1.072c0 4.162.062 8.324.062 12.486 0 .82 0 1.767.935 2.208.935.38 1.496-.378 2.057-.946 5.17-4.792 10.28-9.522 15.452-14.25.497-.443.933-.57 1.556-.57h18.94c.81 0 1.56-.062 2.37-.125 1.868-.19 2.678-.883 2.927-2.775.062-.567.125-1.198.125-1.765C60 27.367 60 16.27 60 5.107zM22.718 18.453c0 2.448-2 4.394-4.375 4.394-2.437 0-4.375-2.01-4.375-4.394 0-2.448 2-4.393 4.375-4.393 2.375-.063 4.375 1.945 4.375 4.393zm23.125 0c0 2.448-2 4.394-4.375 4.394-2.437 0-4.375-2.01-4.375-4.394 0-2.448 2-4.393 4.375-4.393 2.375-.063 4.375 1.945 4.375 4.393zM36.77 32H23.23c-.676 0-1.23-.675-1.23-1.5s.554-1.5 1.23-1.5h13.54c.676 0 1.23.675 1.23 1.5s-.554 1.5-1.23 1.5z" fill="#FAAB00" fill-rule="evenodd"/></symbol><symbol id="icon-mood-super-bad" viewBox="0 0 60 59"><title>mood-super-bad</title><path d="M60 5.108c0-.82-.062-1.577-.187-2.396-.25-1.577-1.06-2.397-2.68-2.586C56.574.063 55.95 0 55.39 0H4.672c-.81 0-1.558.126-2.368.252C1.12.442.435 1.262.187 2.46.062 3.215 0 3.91 0 4.665V39.54c.125 2.52 1.06 3.467 3.55 3.467 3.304.063 6.793.063 10.157.063.686 0 1.807.063 1.807.063v1.072c0 4.162.062 8.324.062 12.486 0 .82 0 1.767.935 2.208.935.38 1.496-.378 2.057-.946 5.17-4.792 10.28-9.522 15.452-14.25.497-.443.933-.57 1.556-.57h18.94c.81 0 1.56-.062 2.37-.125 1.868-.19 2.678-.883 2.927-2.775.062-.567.125-1.198.125-1.765C60 27.367 60 16.27 60 5.107zm-14.313 15.48c.626 3.702-.937 5.9-3.374 6.34-2.376.438-4.688-1.13-5.313-4.834l8.688-1.507zm-27.437 6.4c-2.375-.438-4-2.635-3.375-6.338l8.688 1.506c-.688 3.704-2.938 5.21-5.313 4.833zM38 34.9c.438.502.438 1.318-.063 1.757-.5.44-1.312.44-1.75-.062-1.624-1.758-3.75-2.7-6.124-2.7-2.313 0-4.563 1.005-6.125 2.7-.25.25-.563.376-.938.376-.313 0-.625-.126-.875-.315-.5-.44-.563-1.255-.063-1.757C24.125 32.638 27 31.383 30 31.383s5.938 1.255 8 3.515z" fill="#F35910" fill-rule="evenodd"/></symbol><symbol id="icon-mood-super-happy" viewBox="0 0 60 59"><title>mood-super-happy</title><path d="M60 5.108c0-.82-.062-1.577-.187-2.396-.25-1.577-1.06-2.397-2.68-2.586C56.574.063 55.95 0 55.39 0H4.672c-.81 0-1.558.126-2.368.252C1.12.442.435 1.262.187 2.46.062 3.215 0 3.91 0 4.665V39.54c.125 2.52 1.06 3.467 3.55 3.467 3.304.063 6.73.063 10.033.063.685 0 1.744.063 1.744.063v1.072c0 4.162.125 8.324.187 12.486 0 .82.062 1.767.997 2.208.935.38 1.496-.378 2.057-.946 5.17-4.792 10.28-9.522 15.452-14.25.497-.443.933-.57 1.556-.57h18.94c.81 0 1.56-.062 2.37-.125 1.868-.19 2.678-.883 2.927-2.775.062-.567.125-1.198.125-1.765C60 27.367 60 16.27 60 5.107zM40.6 21c0 4.908-4.694 10-10.5 10s-10.5-5.092-10.5-10h21zm-17.16-5.31h-10c-.687 0-1.25-.563-1.25-1.254 0-.69.563-1.255 1.25-1.255h.626c.375-2.95 2.187-4.393 4.312-4.393 2.125 0 3.938 1.507 4.313 4.394h.75c.688 0 1.25.566 1.25 1.256 0 .69-.562 1.255-1.25 1.255zm24.376-1.254c0 .69-.563 1.255-1.25 1.255h-10c-.688 0-1.25-.563-1.25-1.254 0-.69.562-1.255 1.25-1.255h.625c.376-2.95 2.188-4.393 4.313-4.393 2.125 0 3.938 1.507 4.313 4.394h.75c.687 0 1.25.566 1.25 1.256z" fill="#38AE6A" fill-rule="evenodd"/></symbol><symbol id="icon-note" viewBox="0 0 17 16"><title>note</title><path d="M15.667 1.856L10.853 6.67 11.89 7.71l4.815-4.815-1.038-1.037zM9.72 7.76v1.02h1.058l.518-.51-1.047-.978-.53.467zm2.095 1.93H8.74V6.796l4.62-4.333V1.5H7.2v3.9H3v9.1h10.36V8.24l-1.545 1.45zM3 4.36h3.08V1.5L3 4.36z" fill-rule="evenodd"/></symbol><symbol id="icon-one-ticket" viewBox="0 0 48 10"><title>one-ticket</title><g fill-rule="evenodd"><path d="M37.5 10H0l10-7h37.5l-10 7z" fill="#FFF"/><path d="M37.5 8H0l10-8h37.5l-10 8z"/></g></symbol><symbol id="icon-organization" viewBox="0 0 16 16"><title>organization</title><path d="M1 2v13h7V2H1zm2 11H2v-1h1v1zm0-2H2v-1h1v1zm0-2H2V8h1v1zm0-2H2V6h1v1zm0-2H2V4h1v1zm0-1H2V3h1v1zm2 9H4v-1h1v1zm0-2H4v-1h1v1zm0-2H4V8h1v1zm0-2H4V6h1v1zm0-2H4V4h1v1zm0-1H4V3h1v1zm2 9H6v-1h1v1zm0-2H6v-1h1v1zm0-2H6V8h1v1zm0-2H6V6h1v1zm0-2H6V4h1v1zm0-1H6V3h1v1zm1 1v10h7V5H8zm1 8v-1h1v1H9zm1-2H9v-1h1v1zm0-2H9V8h1v1zm0-2H9V6h1v1zm2 6h-1v-1h1v1zm0-2h-1v-1h1v1zm0-2h-1V8h1v1zm0-2h-1V6h1v1zm2 6h-1v-1h1v1zm0-2h-1v-1h1v1zm0-2h-1V8h1v1zm0-2h-1V6h1v1z" fill-rule="evenodd"/></symbol><symbol id="icon-outbound-calls" viewBox="0 0 17 17"><title>outbound-calls</title><path d="M11.016 13.442s-1.134.1-3.61-2.226-2.476-3.44-2.476-3.44l1.753-1.82C6.373 4.236 5.24 1.403 3.28 2.11 1.32 2.72.596 5.55 1.215 7.27c3.095 8.195 10.213 9.713 11.245 9.713 2.58.202 4.23-1.416 4.54-3.844 0 .1-2.682-1.52-3.92-1.72l-2.064 2.022zM10.244 10l3.024-3.122 2.05 2.05L16 2l-6.927.683 2.05 2.05L8 7.852 10.244 10z" fill-rule="evenodd"/></symbol><symbol id="icon-overviews" viewBox="0 0 24 24"><title>overviews</title><path d="M10 6h10c1.308 0 2-.895 2-2s-.692-2-2-2H10c-1.307 0-2 .895-2 2s.693 2 2 2zm10 3H10c-1.307 0-2 .897-2 2 0 1.105.693 2 2 2h10c1.308 0 2-.895 2-2 0-1.103-.692-2-2-2zm0 8H10c-1.307 0-2 .897-2 2 0 1.104.693 2 2 2h10c1.308 0 2-.896 2-2 0-1.103-.692-2-2-2zM4 2c-1.325 0-2 .895-2 2s.675 2 2 2 2-.895 2-2-.675-2-2-2zm0 7c-1.325 0-2 .897-2 2 0 1.105.675 2 2 2s2-.895 2-2c0-1.103-.675-2-2-2zm0 8c-1.325 0-2 .897-2 2 0 1.104.675 2 2 2s2-.896 2-2c0-1.103-.675-2-2-2z" fill-rule="evenodd"/></symbol><symbol id="icon-package" viewBox="0 0 16 16"><title>package</title><path d="M.168 4.455l7.51 3.602 3.295-1.58L3.52 2.9.167 4.456zM7.6 1l7.177 3.648-2.897 1.39-7.442-3.57L7.6 1zM0 5.205v7.252l7.264 3.678V8.847L0 5.205zm15 7.497l-7.03 3.552v-7.47L15 5.47v7.232z" fill-rule="evenodd"/></symbol><symbol id="icon-pen" viewBox="0 0 16 16"><title>pen</title><path d="M15.017 4.092c0-1.424-1.234-2.57-2.767-2.57-.817 0-1.55.326-2.05.852l3.917 3.637c.533-.478.9-1.16.9-1.918zm-3.467.573L9.6 2.84 6.3 5.902l-4.683 4.35-.634 4.224 4.534-.588 5.2-4.83L13.5 6.476l-1.95-1.81zM3.133 13.27l-.466-.45-.484-.448.1-.62.1-.618 1.084 1.006 1.083 1.006-.7.062-.717.062z" fill-rule="evenodd"/></symbol><symbol id="icon-person" viewBox="0 0 24 24"><title>person</title><path d="M12.163 5.43c1.453 0 2.63-1.215 2.63-2.715 0-1.5-1.177-2.715-2.63-2.715-1.453 0-2.63 1.216-2.63 2.715 0 1.5 1.177 2.716 2.63 2.716zm3.574.863H8.235c-.64 0-1.16.536-1.16 1.197v6.846c0 .662.52 1.198 1.16 1.198h.357V24h6.65v-8.466h.495c.64 0 1.16-.536 1.16-1.198V7.49c0-.66-.52-1.197-1.16-1.197z" fill-rule="evenodd"/></symbol><symbol id="icon-phone" viewBox="0 0 17 17"><title>phone</title><path d="M7.406 10.216C4.93 7.89 4.93 6.776 4.93 6.776l1.753-1.82C6.373 3.236 5.24.403 3.28 1.11 1.32 1.72.596 4.55 1.215 6.27c3.095 8.195 10.213 9.713 11.245 9.713 2.58.202 4.23-1.416 4.54-3.844 0 .1-2.682-1.52-3.92-1.72l-2.064 2.022s-1.134.1-3.61-2.226z" fill-rule="evenodd"/></symbol><symbol id="icon-plus" viewBox="0 0 17 17"><title>plus</title><path d="M10 1V0H7v7H0v3h7v7h3v-7h7V7h-7V1z" fill-rule="evenodd"/></symbol><symbol id="icon-priority-modified-inner-circle" viewBox="0 0 16 16"><title>priority-modified-inner-circle</title><circle cx="8" cy="8" r="3" fill-rule="evenodd"/></symbol><symbol id="icon-priority-modified-outer-circle" viewBox="0 0 16 16"><title>priority-modified-outer-circle</title><path d="M8 14c3.314 0 6-2.686 6-6s-2.686-6-6-6-6 2.686-6 6 2.686 6 6 6zm0-1c2.76 0 5-2.24 5-5s-2.24-5-5-5-5 2.24-5 5 2.24 5 5 5z" fill-rule="evenodd"/></symbol><symbol id="icon-priority" viewBox="0 0 16 16"><title>priority</title><path d="M8 14c3.314 0 6-2.686 6-6s-2.686-6-6-6-6 2.686-6 6 2.686 6 6 6zm0-2c2.21 0 4-1.79 4-4s-1.79-4-4-4-4 1.79-4 4 1.79 4 4 4z" fill-rule="evenodd"/></symbol><symbol id="icon-received-calls" viewBox="0 0 17 17"><title>received-calls</title><path d="M14.72 2.11c-2.062-.703-3.094 2.11-3.403 3.82l1.753 1.808s0 1.105-2.476 3.417c-2.476 2.31-3.61 2.21-3.61 2.21l-2.064-2.01c-1.34.202-3.92 1.81-3.92 1.81.31 2.41 1.96 4.02 4.54 3.818 1.03-.1 8.15-1.608 11.244-9.647.62-1.81-.103-4.522-2.063-5.225zM.99 8.408L8 9l-.593-7.012-2.074 2.074L2.173 1 0 3.173l3.062 3.16L.988 8.407z" fill-rule="evenodd"/></symbol><symbol id="icon-reopening" viewBox="0 0 68 47"><title>reopening</title><g fill-rule="evenodd"><path d="M39.3 18.7h21.1c3.6 0 6.4 2.3 7.3 5.7.1.6.2 1.1.2 1.7v13.8c0 3.4-2.8 6.4-6.1 6.9-.4.1-.8.1-1.2.1H38.7c-3.7 0-6.7-2.5-7.3-6.1-.1-.5-.1-.9-.1-1.4V26.2c0-2.4.9-4.3 2.8-5.8.3-.2.3-.4.3-.7v-8.2c0-5.4 3.7-10 8.9-11.2.8-.2 1.6-.3 2.4-.3h7.9C59.8 0 65 5.2 64.9 11.5c0 1.4-1.1 2.5-2.4 2.5-1.4.1-2.6-.9-2.7-2.2-.1-1.1-.2-2.2-.7-3.2-1.2-2.1-2.9-3.3-5.3-3.3-2.8-.1-5.6-.1-8.4 0-2.7 0-5.4 2.4-5.6 5.1-.6 2.6-.5 5.5-.5 8.3zm7.9 12c.2.7.1 1.4-.1 2-.2.8-.4 1.5-.6 2.3-.2.5 0 1 .3 1.3 1.7 1.5 3.4 1.6 5.1-.1.3-.3.4-.7.3-1.2-.3-1-.6-2.1-.8-3.1-.1-.3 0-.6 0-.8.6-1.4-.5-3-2-3-1.4 0-2.6 1.3-2.2 2.6z"/><path d="M20.8 18.3c-.3-1.1-.8-1.9-1.8-2.5V11h-.3c0-4-2.6-6.6-6.2-6.6H8.1c-.5 0-.8 0-1.3.1-3 .7-5.1 3.3-5.1 6.4v4.7c0 .2 0 .3-.2.4-1 .9-1.5 2-1.5 3.3v7.5c0 .3 0 .5.1.8.4 2.1 2 3.5 4.1 3.5h12.5c.2 0 .5 0 .7-.1 1.9-.3 3.5-2 3.5-3.9.1-2.6.1-5.2.1-7.8 0-.3-.1-.7-.2-1zM4.8 15c0-2 0-3.2.1-4.8.1-1.5 1.7-2.8 3.2-2.9h4.8c1.4 0 2.4.9 3 2.1.3.5.3 1.6.4 1.6h.8v4.1c-4 0-8.1-.1-11.8-.1h-.5zM12 25.1c-1 .9-1.9.9-2.9 0-.2-.2-.3-.4-.2-.8.1-.4.2-.9.3-1.3.1-.4.2-.7 0-1.1-.2-.8.4-1.5 1.2-1.5.9 0 1.5.9 1.2 1.7 0 .1-.1.3 0 .5.1.6.3 1.2.4 1.8.2.2.2.5 0 .7z" opacity=".4" fill="#A9BCC4"/><path d="M19.944 41H10v-7h1v6h8.483L17.7 36.9l9.9 4-9.9 4.1 2.244-4z" fill="#A9BCC4"/></g></symbol><symbol id="icon-signout" viewBox="0 0 15 19"><title>signout</title><path d="M5.376 15L12 9.5 5.376 4v3.59H0v3.82h5.376V15zM4 1.542h9.452V17.46H4V19h11V0H4v1.542z" fill="#0F94D7" fill-rule="evenodd"/></symbol><symbol id="icon-stopwatch" viewBox="0 0 77 83"><title>stopwatch</title><g fill-rule="evenodd"><path d="M10.5 24.8c-1-.9-2.1-1.9-3-2.8l6.2-6.2c.8.9 1.7 1.9 2.6 2.9.8-.6 1.4-1.1 2-1.5 3.9-2.9 8.2-4.9 12.9-6 .7-.2.9-.4.9-1.1-.1-1.7 0-3.4 0-5.2h15.4v6C60.3 14.2 69.4 21.8 74 34.1c3.6 9.6 3 19.2-1.4 28.4-8.9 18.6-31.4 25.9-49.9 16.2-19-9.9-25.9-35.4-12.2-53.9zM40.048 75c15.134 0 27.644-12.107 27.947-27.442.302-16.143-12.712-28.25-27.442-28.552C25.318 18.703 12.203 30.91 12 46.55 11.9 62.49 24.31 75 40.05 75zM14.9 12.4c-.3.5-.4 1.1-.8 1.5-2.9 2.9-5.8 5.8-8.6 8.7-.7.7-1.5.8-2.4.5-1.3-.4-2.1-1.3-2.5-2.5-.3-.9-.2-1.7.5-2.5l8.6-8.6c.6-.6 1.4-.8 2.2-.6 1.5.3 2.8 1.9 3 3.5zm18.8-8.5c-.2-1.4.3-2.6 1.6-3.1 2.9-1.1 5.9-1.1 8.9 0 1.2.4 1.8 1.6 1.7 3.1H33.7z" fill="#A9BCC4"/><circle opacity=".3" cx="39.902" cy="46.902" r="24.902"/></g></symbol><symbol id="icon-switchView" viewBox="0 0 19 18"><title>switchView</title><path d="M9.75 7.595c-.6 0-1.1.5-1.1 1.1 0 .6.5 1.1 1.1 1.1.6 0 1.1-.5 1.1-1.1.1-.5-.4-1.1-1.1-1.1zm0-2.1c-3 0-6.1 3.3-6.1 3.3s3 3.3 6.1 3.3c3 0 6.1-3.3 6.1-3.3s-3-3.3-6.1-3.3zm0 5.6c-1.3 0-2.3-1-2.3-2.3 0-1.3 1-2.3 2.3-2.3 1.3 0 2.3 1 2.3 2.3.1 1.3-1 2.3-2.3 2.3zm-3.5-9.2c1.6-.802 3.4-1.002 5.3-.602l.3-1c-4.9-1.2-9.2 1.4-10.7 5.7-.8 2.302-.8 4.603.2 6.703l.5.8-2.1.6 4.5 3.2.4-4.9v-.6l-1.9 1.4-.3-.8c-.9-1.9-1-4-.3-6 .7-2.002 2.2-3.602 4.1-4.502zm10.9 2.4l2.1-.5-4.5-3.202-.4 5.502 2-1.5.5.9c1 1.9 1.2 4.1.5 6.1s-2 3.702-3.9 4.602c-1.6.8-3.9.8-4.9.7l-.3 1c3.9.8 8.7-1.6 10.2-5.9.8-2.302.5-4.702-.6-6.903l-.7-.8z" fill="#FFF" fill-rule="evenodd"/></symbol><symbol id="icon-team" viewBox="0 0 16 16"><title>team</title><path d="M4.672 10.448l-.018-.006c-.115-.077-.207-.116-.58 0 .172-.234.064-.546 0-.72-.06-.12.163-.28 0-.72h.58s-.184-.637 0-.72c-.056.105.08-.117 0-.718-.085-.33-.067-.52 0-.72-.108-.566-.235-.775-.58-.72.06-.457-.47-.768-1.165-.72-.265.052-.572.407-.583.72-.33-.34-.402-.36-.58 0 .002-.213.16.27 0 .72.155 0 .155.22 0 .72-.018.6.12.82 0 .72l.58.72c-.103.432.127.598 0 .718-.07.21-.173.504 0 .72-.374-.098-.466-.07-.58 0-.3.115-.657.3-1.165.72-.108-.116-.46-.066-.58 0 .014.54-.006 1.128 0 1.438h2.805c.008-.382.018-.767.018-.982.172-.562.744-.64 1.22-.867.203-.095.414-.198.627-.302zm6.648.003l.026-.008c.115-.077.207-.116.58 0-.172-.234-.064-.546 0-.72.06-.12-.163-.28 0-.72h-.58s.184-.637 0-.72c.056.105-.08-.117 0-.718.085-.33.067-.52 0-.72.108-.566.235-.775.58-.72-.06-.457.47-.768 1.165-.72.265.052.572.407.583.72.33-.34.402-.36.58 0-.002-.213-.16.27 0 .72-.155 0-.155.22 0 .72.018.6-.12.82 0 .72l-.58.72c.103.432-.127.598 0 .718.07.21.173.504 0 .72.374-.098.466-.07.58 0 .3.115.657.3 1.165.72.108-.116.46-.066.58 0-.014.54.006 1.128 0 1.438h-2.805c-.007-.38-.018-.764-.018-.978-.172-.563-.744-.64-1.22-.867-.206-.097-.42-.2-.635-.304zm.33.494c-.484-.23-1.02-.497-1.503-.72l-.413-.127c-.165-.13-.32-.553-.408-.765-.088-.014-.143-.032-.258-.046v-.103H8.89c.23-.117.574-.356.688-.576l.2-1.155.035-.18c.19.034.394-.284.46-.71.068-.424-.03-.793-.216-.824-.046-.008-.094.006-.14.038.03-.378.03-.697.006-.966.005-.05.01-.102.01-.16.006-.22.244-.918.02-1.097-.04-.034-.148-.004-.228.002-.432.032-.892-.482-1.533-.546-.8-.08-1.593.37-1.66.865-.046 0-.1.01-.165.028-.196.057-.386.36-.416.886-.03.58-.004.855.057.987-.06-.03-.11-.046-.158-.038-.188.03-.285.4-.22.825.068.425.273.745.46.714.004-.002.13.728.13.728l.112.61c.112.216.448.448.677.565h-.17l-.16.097c-.088.21-.25.663-.413.79-.138.043-.276.1-.414.14-.482.225-1.02.5-1.503.73-.44.21-.968.283-1.127.805 0 .355-.03 1.206-.022 1.655h9.6c.007-.45-.023-1.297-.023-1.65-.16-.524-.686-.596-1.127-.806z" fill-rule="evenodd"/></symbol><symbol id="icon-templates" viewBox="0 0 24 24"><title>templates</title><path d="M2.995 1C2.445 1 2 1.44 2 2.002v19.996C2 22.55 2.45 23 2.995 23h17.01c.55 0 .995-.44.995-1.002V2.002C21 1.45 20.55 1 20.005 1H2.995zm3.003 4C5.448 5 5 5.444 5 6c0 .552.446 1 .998 1h7.004c.55 0 .998-.444.998-1 0-.552-.446-1-.998-1H5.998zM6 9c-.552 0-1 .444-1 1 0 .552.448 1 1 1h11.027c.553 0 1-.444 1-1 0-.552-.447-1-1-1H6zm0 4c-.552 0-1 .444-1 1 0 .552.448 1 1 1h11.027c.553 0 1-.444 1-1 0-.552-.447-1-1-1H6zm0 4c-.552 0-1 .444-1 1 0 .552.448 1 1 1h11.027c.553 0 1-.444 1-1 0-.552-.447-1-1-1H6z" fill-rule="evenodd"/></symbol><symbol id="icon-tools" viewBox="0 0 24 24"><title>tools</title><path d="M12 21.992c1.63 0 2.95-1.116 2.95-2.492s-1.32-2.492-2.95-2.492c-1.63 0-2.95 1.116-2.95 2.492s1.32 2.492 2.95 2.492zm0-8c1.63 0 2.95-1.116 2.95-2.492S13.63 9.008 12 9.008c-1.63 0-2.95 1.116-2.95 2.492s1.32 2.492 2.95 2.492zm0-7c1.63 0 2.95-1.116 2.95-2.492S13.63 2.008 12 2.008c-1.63 0-2.95 1.116-2.95 2.492S10.37 6.992 12 6.992z" fill-rule="evenodd"/></symbol><symbol id="icon-total-tickets" viewBox="0 0 48 83"><title>total-tickets</title><g fill-rule="evenodd"><path d="M37.5 83H0l10-8h37.5l-10 8z" id="Shape" opacity=".4" fill="#A9BCC4"/><path d="M37.5 80H0l10-7h37.5l-10 7z" id="Shape" fill="#FFF"/><path d="M37.5 78H0l10-8h37.5l-10 8z" id="Shape" opacity=".4" fill="#A9BCC4"/><path d="M37.5 75H0l10-7h37.5l-10 7z" id="Shape" fill="#FFF"/><path d="M37.5 73H0l10-8h37.5l-10 8z" id="Shape" opacity=".4" fill="#A9BCC4"/><path d="M37.5 70H0l10-7h37.5l-10 7z" id="Shape" fill="#FFF"/><path d="M37.5 68H0l10-8h37.5l-10 8z" id="Shape" opacity=".4" fill="#A9BCC4"/><path d="M37.5 65H0l10-7h37.5l-10 7z" id="Shape" fill="#FFF"/><path d="M37.5 63H0l10-8h37.5l-10 8z" id="Shape" opacity=".4" fill="#A9BCC4"/><path d="M37.5 60H0l10-7h37.5l-10 7z" id="Shape" fill="#FFF"/><path d="M37.5 58H0l10-8h37.5l-10 8z" id="Shape" opacity=".4" fill="#A9BCC4"/><path d="M37.5 55H0l10-7h37.5l-10 7z" id="Shape" fill="#FFF"/><path d="M37.5 53H0l10-8h37.5l-10 8z" id="Shape" opacity=".4" fill="#A9BCC4"/><path d="M37.5 50H0l10-7h37.5l-10 7z" id="Shape" fill="#FFF"/><path d="M37.5 48H0l10-8h37.5l-10 8z" id="Shape" opacity=".4" fill="#A9BCC4"/><path d="M37.5 45H0l10-7h37.5l-10 7z" id="Shape" fill="#FFF"/><path d="M37.5 43H0l10-8h37.5l-10 8z" id="Shape" opacity=".4" fill="#A9BCC4"/><path d="M37.5 40H0l10-7h37.5l-10 7z" id="Shape" fill="#FFF"/><path d="M37.5 38H0l10-8h37.5l-10 8z" id="Shape" opacity=".4" fill="#A9BCC4"/><path d="M37.5 35H0l10-7h37.5l-10 7z" id="Shape" fill="#FFF"/><path d="M37.5 33H0l10-8h37.5l-10 8z" id="Shape" opacity=".4" fill="#A9BCC4"/><path d="M37.5 30H0l10-7h37.5l-10 7z" id="Shape" fill="#FFF"/><path d="M37.5 28H0l10-8h37.5l-10 8z" id="Shape" opacity=".4" fill="#A9BCC4"/><path d="M37.5 25H0l10-7h37.5l-10 7z" id="Shape" fill="#FFF"/><path d="M37.5 23H0l10-8h37.5l-10 8z" id="Shape" opacity=".4" fill="#A9BCC4"/><path d="M37.5 20H0l10-7h37.5l-10 7z" id="Shape" fill="#FFF"/><path d="M37.5 18H0l10-8h37.5l-10 8z" id="Shape" opacity=".4" fill="#A9BCC4"/><path d="M37.5 15H0l10-7h37.5l-10 7z" id="Shape" fill="#FFF"/><path d="M37.5 13H0l10-8h37.5l-10 8z" id="Shape" opacity=".4" fill="#A9BCC4"/><path d="M37.5 10H0l10-7h37.5l-10 7z" id="Shape" fill="#FFF"/><path d="M37.5 8H0l10-8h37.5l-10 8z" opacity=".4" fill="#A9BCC4"/></g></symbol><symbol id="icon-twitter" viewBox="0 0 17 17"><title>twitter</title><path d="M14.176 4.983c.608-.396 1.115-.99 1.42-1.685-.61.396-1.32.595-2.028.694-.61-.595-1.42-.992-2.23-.992-1.723 0-3.142 1.388-3.142 3.074 0 .2 0 .496.1.695-2.634-.1-4.864-1.39-6.384-3.175-.304.496-.405.992-.405 1.488 0 1.09.507 1.983 1.42 2.578-.508 0-1.015-.197-1.42-.396 0 1.488 1.115 2.678 2.534 2.976-.304.1-.506.1-.81.1-.203 0-.406 0-.608-.1.405 1.19 1.52 2.082 2.94 2.082-1.116.794-2.434 1.29-3.853 1.29H1C2.42 14.504 4.04 15 5.764 15c5.777 0 8.817-4.66 8.817-8.628v-.397c.508-.396 1.015-.892 1.42-1.487-.608.198-1.115.396-1.824.495z" fill-rule="evenodd"/></symbol><symbol id="icon-user" viewBox="0 0 16 16"><title>user</title><path d="M13.248 11.906c-.707-.287-1.49-.62-2.197-.9-.2-.05-.4-.104-.603-.156-.24-.16-.467-.69-.596-.953-.127-.018-.208-.04-.375-.058v-.13h-.26c.334-.146.84-.444 1.005-.718l.294-1.44.05-.225c.276.043.576-.354.673-.884.097-.53-.045-.99-.317-1.03-.068-.008-.137.01-.204.05.044-.473.045-.87.008-1.206.008-.06.013-.127.015-.198.007-.275.355-1.147.03-1.37-.062-.043-.218-.006-.336.002-.63.04-1.303-.6-2.24-.68-1.167-.1-2.327.46-2.426 1.08-.067 0-.146.01-.24.034-.287.072-.564.448-.607 1.105-.047.724-.007 1.068.08 1.233-.085-.038-.158-.058-.23-.048-.272.04-.414.5-.317 1.03.097.53.397.93.67.89.006 0 .19.91.19.91l.164.76c.163.27.654.56.99.706H6.22l-.235.12c-.128.265-.363.828-.604.988-.2.053-.402.122-.603.175-.705.28-1.49.62-2.196.91-.643.26-1.314.35-1.547 1.003 0 .442-.043 1.504-.03 2.063h13.923c.012-.56-.03-1.618-.03-2.06-.234-.652-1.004-.74-1.648-1.004z" fill-rule="evenodd"/></symbol></svg>