<?xml version="1.0" encoding="UTF-8"?><!DOCTYPE svg PUBLIC "-//W3C//DTD SVG 1.1//EN" "http://www.w3.org/Graphics/SVG/1.1/DTD/svg11.dtd"><svg xmlns="http://www.w3.org/2000/svg"><defs><linearGradient x1="50%" y1="0%" x2="50%" y2="100%" id="a"><stop stop-color="#FFF" offset="0%"/><stop stop-color="#E6EAF1" offset="100%"/></linearGradient><linearGradient x1="50%" y1="0%" x2="50%" y2="100%" id="a"><stop stop-color="#FFF" offset="0%"/><stop stop-color="#FAE7E3" offset="100%"/></linearGradient><linearGradient x1="50%" y1="0%" x2="50%" y2="100%" id="a"><stop stop-color="#FFF" offset="0%"/><stop stop-color="#E9F7FC" offset="100%"/></linearGradient></defs><symbol id="icon-arrow-down" viewBox="0 0 13 7"><title>arrow-down</title><path d="M6.554 4.214L2.246 0l-1.4 1.428 5 4.9.708.693.7-.7 4.9-4.9L10.74.008 6.553 4.214z" fill-rule="evenodd"/></symbol><symbol id="icon-arrow-left" viewBox="0 0 7 13"><title>arrow-left</title><path d="M7.08 2.202L5.652.802l-4.9 5-.693.707.7.7 4.9 4.9 1.413-1.415L2.966 6.51 7.08 2.2z" fill-rule="evenodd"/></symbol><symbol id="icon-arrow-right" viewBox="0 0 7 13"><title>arrow-right</title><path d="M0 10.7l1.428 1.4 4.9-5 .693-.707-.7-.7-4.9-4.9L.008 2.207l4.207 4.186L0 10.7z" fill-rule="evenodd"/></symbol><symbol id="icon-arrow-up" viewBox="0 0 13 7"><title>arrow-up</title><path d="M10.807 7l1.4-1.428-5-4.9L6.5-.02l-.7.7-4.9 4.9 1.414 1.413L6.5 2.886 10.807 7z" fill-rule="evenodd"/></symbol><symbol id="icon-chat" viewBox="0 0 24 24"><title>chat</title><path d="M2 5.006C2 3.898 2.898 3 3.99 3h16.02c1.1 0 1.99.897 1.99 2.006v9.988C22 16.102 21.102 17 20.01 17H3.99C2.89 17 2 16.103 2 14.994V5.006zM12 17l6 4v-4h-6z" fill-rule="evenodd"/></symbol><symbol id="icon-checkbox-checked" viewBox="0 0 11 11"><title>checkbox-checked</title><g fill-rule="evenodd"><path d="M11 0H0v11h11V0z"/><path d="M0 0V11H11V0H0zm10 1v9H1V1h9z" fill="#000"/><path d="M4.273 6.768L2.238 4.972 1.4 5.81 4.872 10c.598-1.796 2.514-5.268 4.79-7.782L9.42 1.5C6.906 3.296 4.99 5.57 4.27 6.768z" fill="#000"/></g></symbol><symbol id="icon-checkbox" viewBox="0 0 11 11"><title>checkbox</title><g fill-rule="evenodd"><path d="M11 0H0v11h11V0z"/><path d="M11 0H0v11h11V0zM1 1h9v9H1V1z" fill="#9C9C9B"/></g></symbol><symbol id="icon-checkmark" viewBox="0 0 16 14"><title>checkmark</title><path d="M6.477 13.837c3.81-8.136 9.386-12.24 9.386-12.24V0S9.95 2.607 5.368 8.722c0 0-2.134-2.305-3.352-2.875C.798 5.277 0 7.235 0 7.235s3.03 2.818 6.477 6.602z" fill-rule="evenodd"/></symbol><symbol id="icon-clipboard" viewBox="0 0 16 16"><title>clipboard</title><path d="M5 3V1.5c0-.28.223-.5.497-.5h8.006c.272 0 .497.224.497.5v10c0 .28-.223.5-.497.5H12v-2h.462c.297 0 .538-.222.538-.5 0-.276-.24-.5-.538-.5H12V8h.462c.297 0 .538-.222.538-.5 0-.276-.24-.5-.538-.5H12V6h.462c.297 0 .538-.222.538-.5 0-.276-.24-.5-.538-.5H12V3.5c0-.276-.225-.5-.497-.5H5zM2 4.5v10c0 .276.225.5.497.5h8.006c.274 0 .497-.22.497-.5v-10c0-.276-.225-.5-.497-.5H2.497C2.223 4 2 4.22 2 4.5zM3.554 6C3.248 6 3 6.222 3 6.5c0 .276.248.5.554.5h3.892C7.752 7 8 6.778 8 6.5c0-.276-.248-.5-.554-.5H3.554zm-.016 2C3.24 8 3 8.222 3 8.5c0 .276.24.5.538.5h5.924C9.76 9 10 8.778 10 8.5c0-.276-.24-.5-.538-.5H3.538zm0 2c-.297 0-.538.222-.538.5 0 .276.24.5.538.5h5.924c.297 0 .538-.222.538-.5 0-.276-.24-.5-.538-.5H3.538zm0 2c-.297 0-.538.222-.538.5 0 .276.24.5.538.5h5.924c.297 0 .538-.222.538-.5 0-.276-.24-.5-.538-.5H3.538z" fill-rule="evenodd"/></symbol><symbol id="icon-clock" viewBox="0 0 16 16"><title>clock</title><path d="M7.54 2.08c-3.566 0-6.46 2.892-6.46 6.46 0 3.567 2.894 6.46 6.46 6.46C11.108 15 14 12.107 14 8.54c0-3.568-2.893-6.46-6.46-6.46zm.007 11.62c-2.887 0-5.234-2.33-5.234-5.19 0-2.863 2.347-5.19 5.234-5.19 2.885 0 5.235 2.327 5.235 5.19 0 2.86-2.35 5.19-5.235 5.19zm3.538-5.387h1.273c-.023-.523-.127-1.022-.305-1.488l-.587.25-.132-.305.59-.25c-.216-.463-.504-.888-.85-1.258l-.487.482-.234-.234.484-.483c-.326-.303-.696-.562-1.1-.768l-.27.6-.306-.136.275-.606c-.522-.22-1.09-.353-1.688-.378v1.39h-.333V3.738c-.522.014-1.024.11-1.49.28l.325.74-.308.13-.33-.75c-.475.207-.908.487-1.285.828l.55.544-.238.234-.555-.55c-.327.335-.603.716-.82 1.134l.78.333-.138.303-.784-.336c-.228.52-.364 1.09-.39 1.688l1.475-.002v.33l-1.474.004c.016.583.138 1.138.35 1.65l.768-.33.13.304-.76.33c.207.426.48.817.806 1.16l.564-.53.236.235-.566.532c.366.34.786.62 1.245.833l.323-.725.303.138-.32.718c.5.194 1.038.305 1.6.32v-1.386h.334v1.384c.588-.023 1.15-.15 1.667-.368l-.255-.59.304-.13.252.58c.43-.217.823-.495 1.168-.823l-.42-.416.237-.233.417.412c.32-.352.587-.75.793-1.184l-.572-.253.137-.304.567.25c.19-.49.3-1.023.316-1.578h-1.273v-.33zM10.04 10.93c-.155.155-.408.155-.565 0L7.528 9.216c-.177-.18-.38-.296-.38-.65v-2.29c0-.237.193-.43.432-.43.24 0 .435.193.435.43v2.276l2.028 1.815c.157.155.155.407-.002.563z" fill-rule="evenodd"/></symbol><symbol id="icon-cloud" viewBox="0 0 16 16"><title>cloud</title><path d="M4 14h-.03C1.78 14 0 12.14 0 9.846 0 7.7 1.555 5.934 3.55 5.716 3.76 3.625 5.45 2 7.5 2c2.05 0 3.74 1.627 3.95 3.715C13.444 5.935 15 7.7 15 9.845 15 12.14 13.222 14 11.03 14H4z" fill-rule="evenodd"/></symbol><symbol id="icon-cog" viewBox="0 0 20 20"><title>cog</title><path d="M20 11.09V8.814l-.322-.105-2.436-.796-.65-1.57 1.25-2.643-1.61-1.61-.302.156-2.286 1.16-1.568-.65L11.09 0H8.814l-.9 2.758-1.57.65L3.7 2.16 2.09 3.768l.154.304 1.158 2.284-.648 1.57L0 8.91v2.277l.32.104 2.438.798.65 1.568-1.25 2.645 1.61 1.61.3-.153 2.285-1.16 1.57.65L8.91 20h2.276l.105-.32.796-2.436 1.568-.65 2.645 1.248 1.608-1.608-.152-.302-1.16-2.284.65-1.57L20 11.09zm-10 2.098c-1.76 0-3.188-1.426-3.188-3.188 0-1.76 1.428-3.185 3.188-3.185 1.76 0 3.185 1.425 3.185 3.185 0 1.762-1.425 3.188-3.185 3.188z" fill-rule="evenodd"/></symbol><symbol id="icon-crown" viewBox="0 0 62 27"><title>crown</title><path d="M59.01 5.21V27h-56V5.213h-.003c-1.2 0-2.173-.972-2.173-2.172 0-1.2.973-2.17 2.173-2.17 1.2 0 2.172.97 2.172 2.17 0 .785-.416 1.472-1.04 1.854l12.87 10.18 12.87-10.18c-.625-.38-1.04-1.068-1.04-1.853 0-1.2.97-2.17 2.17-2.17s2.173.97 2.173 2.17c0 .786-.416 1.474-1.04 1.855l12.868 10.18L57.84 4.927c-.655-.374-1.095-1.08-1.095-1.887 0-1.2.972-2.17 2.172-2.17 1.2 0 2.172.97 2.172 2.17 0 1.17-.92 2.12-2.076 2.17z" fill="#FFD22E" fill-rule="evenodd"/></symbol><symbol id="icon-dashboard" viewBox="0 0 24 24"><title>dashboard</title><path d="M11.967 2c-5.523 0-10 4.477-10 10s4.477 10 10 10 10-4.477 10-10-4.477-10-10-10zm-2.143 9.17c.067-.09 7.54-5.784 7.54-5.784s-3.105 8.867-3.17 8.96c-.878 1.205-2.566 1.473-3.773.596-1.205-.876-1.472-2.565-.596-3.77zm9.643.83c0-4.142-3.357-7.5-7.5-7.5-4.142 0-7.5 3.358-7.5 7.5 0 1.452.414 2.806 1.128 3.954l-1.016.73C3.717 15.33 3.216 13.725 3.216 12c0-4.832 3.918-8.75 8.75-8.75 4.833 0 8.75 3.918 8.75 8.75 0 1.724-.5 3.33-1.362 4.685l-1.016-.73c.713-1.15 1.127-2.503 1.127-3.955z" fill-rule="evenodd"/></symbol><symbol id="icon-diagonal-cross" viewBox="0 0 13 13"><title>diagonal-cross</title><path d="M12.666.29c.39.385.392 1.015.005 1.404L7.883 6.517l4.784 4.783c.388.388.388 1.018 0 1.406-.388.388-1.018.388-1.406 0l-4.778-4.78-4.743 4.777c-.388.39-1.017.392-1.407.005-.39-.387-.392-1.016-.005-1.405l4.748-4.78L.25 1.696C-.136 1.31-.136.68.25.29c.39-.387 1.018-.387 1.407 0l4.82 4.82L11.26.295c.388-.39 1.017-.392 1.406-.005z" fill-rule="evenodd"/></symbol><symbol id="icon-download" viewBox="0 0 14 13"><title>download</title><path d="M4 0v6h6V0H4zm10 6H0l7 7 7-7z" fill-rule="evenodd"/></symbol><symbol id="icon-dropdown-list" viewBox="0 0 19 14"><title>dropdown-list</title><path d="M0 0h19v2H0V0zm0 4h19v2H0V4zm0 4h19v2H0V8zm0 4h19v2H0v-2z" fill-rule="evenodd"/></symbol><symbol id="icon-email-button" viewBox="0 0 29 22"><title>email-button</title><path d="M25.51 18.315c.305-.35.49-.807.49-1.307V5.992c0-.422-.133-.813-.358-1.135L14.5 14 3.357 4.856C3.132 5.18 3 5.57 3 5.992v11.016c0 .5.186.957.492 1.306L11.655 12l.345.292-8.176 6.325c.33.24.738.383 1.177.383h19c.44 0 .847-.142 1.177-.382L17 12.292l.345-.292 8.164 6.315zM4.005 4.265C4.3 4.094 4.64 4 5 4h19c.36 0 .7.096.993.264L14.5 12.912 4.006 4.264z" fill="#FFF" fill-rule="evenodd"/></symbol><symbol id="icon-email" viewBox="0 0 17 17"><title>email</title><path d="M11.325 9L8.5 11.593 5.675 9 1 14h15l-4.675-5zM17 4l-5 4.592L17 14V4zM0 4v10l5-5.354L0 4zm17-1H0l8.45 7L17 3z" fill-rule="evenodd"/></symbol><symbol id="icon-facebook-button" viewBox="0 0 29 22"><title>facebook-button</title><g fill="none" fill-rule="evenodd"><path d="M0 17h29v5H0v-5z" fill="#778EBA"/><path d="M17.92 22V11.944H15v-3.97h2.977v-4.04C17.977 1.852 19.575 0 22.03 0H27v3.808h-3.863c-1.07 0-1.193.038-1.193 1.033l-.008 3.134h3.55l-.385 3.97h-3.224l.1 10.056H17.92z" fill="url(#a)"/></g></symbol><symbol id="icon-facebook" viewBox="0 0 17 17"><title>facebook</title><path d="M1.805 1C1.302 1 1 1.403 1 1.805v13.39c0 .503.403.805.805.805h7.25v-5.84H7.04V7.847h2.014V6.134c0-1.913 1.208-3.02 2.92-3.02.805 0 1.51.1 1.71.1V5.23h-1.207c-.907 0-1.108.403-1.108 1.108v1.41h2.214l-.302 2.314H11.37V16h3.825c.503 0 .805-.403.805-.806V1.704c0-.3-.403-.704-.805-.704H1.805z" fill-rule="evenodd"/></symbol><symbol id="icon-full-logo" viewBox="0 0 175 50"><title>full-logo</title><g fill-rule="evenodd"><path d="M61.875 33.97l9.72-14.032c.374-.532.78-.907.78-.907v-.06s-.53.093-1.063.093h-6.968V22H62.03v-5.125h13.595v1.75l-9.72 14.03c-.374.532-.78.907-.78.907v.063s.53-.094 1.063-.094h7.374V30.5h2.313v5.22h-14v-1.75zM85 27.405h.844v-.5c0-2.125-1.22-2.875-2.875-2.875-2.126 0-3.876 1.314-3.876 1.314l-1.03-1.844s1.967-1.594 5.124-1.594c3.437 0 5.25 1.782 5.25 5.22v6c0 .405.218.593.593.593h1.376v2H87.72c-1.19 0-1.69-.595-1.69-1.47v-.188c0-.53.095-.874.095-.874h-.063s-1.187 2.843-4.468 2.843c-2.25 0-4.5-1.31-4.5-4.093.03-4.218 5.656-4.53 7.906-4.53zm-2.813 6.625c2.282 0 3.72-2.343 3.72-4.374v-.562h-.688c-1.22 0-5.47.062-5.47 2.656 0 1.188.875 2.28 2.438 2.28zm10.157-.31h2.125v-8.94c0-.374-.22-.56-.595-.56H92.22v-2h3.03c1.156 0 1.72.5 1.72 1.5v.686c0 .438-.095.782-.095.782h.063c.656-1.594 2.624-3.282 4.812-3.282 2.156 0 3.5 1 3.938 3.188h.062c.75-1.688 2.625-3.188 4.844-3.188 3 0 4.406 1.75 4.406 5.188v6.656h2.125v2h-4.72v-8.094c0-1.906-.343-3.406-2.374-3.406-2.53 0-3.968 2.594-3.968 5.25v4.22h2.126v2H103.5v-8.095c0-1.75-.28-3.406-2.344-3.406-2.562 0-4.062 2.718-4.062 5.374v4.125h2.125v2h-6.845v-2h-.03zm26.72 0h2.124v-8.94c0-.374-.22-.56-.594-.56h-1.656v-2h3.03c1.157 0 1.72.5 1.72 1.5v.686c0 .438-.094.782-.094.782h.062c.656-1.594 2.625-3.282 4.813-3.282 2.155 0 3.5 1 3.936 3.188h.063c.75-1.688 2.624-3.188 4.843-3.188 3 0 4.406 1.75 4.406 5.188v6.656h2.124v2h-4.72v-8.094c0-1.906-.343-3.406-2.374-3.406-2.53 0-3.97 2.594-3.97 5.25v4.22h2.126v2h-4.687v-8.095c0-1.75-.282-3.406-2.345-3.406-2.563 0-4.063 2.718-4.063 5.374v4.125h2.126v2h-6.844v-2h-.03zm34.186-6.314h.844v-.5c0-2.125-1.22-2.875-2.875-2.875-2.126 0-3.876 1.314-3.876 1.314l-1.03-1.844s1.967-1.594 5.124-1.594c3.437 0 5.25 1.782 5.25 5.22v6c0 .405.218.593.593.593h1.376v2h-2.687c-1.19 0-1.69-.595-1.69-1.47v-.188c0-.53.095-.874.095-.874h-.063s-1.187 2.843-4.468 2.843c-2.25 0-4.5-1.31-4.5-4.093 0-4.218 5.656-4.53 7.906-4.53zm-2.844 6.625c2.28 0 3.72-2.343 3.72-4.374v-.562h-.657c-1.22 0-5.47.062-5.47 2.656-.03 1.188.844 2.28 2.406 2.28zm15.625-12.155c3.064 0 4.157 2.28 4.157 2.28h.063s-.094-.436-.094-1v-4.28h-2.25v-2h4.844v16.25c0 .406.22.594.594.594h1.375v2h-2.69c-1.186 0-1.686-.595-1.686-1.47v-.188c0-.468.094-.718.094-.718h-.063s-1.094 2.687-4.563 2.687c-3.625 0-5.906-2.874-5.906-7.06-.03-4.314 2.5-7.095 6.125-7.095zm.314 11.906c2 0 3.906-1.436 3.906-4.81 0-2.47-1.25-4.845-3.813-4.845-2.156 0-3.906 1.75-3.906 4.813 0 2.968 1.564 4.843 3.814 4.843z"/><path d="M37.97 17.5l13.03-4-7.72 4.906-5.31-.906z" fill="#CA2317"/><path d="M45.906 27.25l-2.625-8.844L51 13.5l-2.313 7.938-2.78 5.812z" fill="#E84F83"/><path d="M54.813 11.094L53.374 13.5l-4.688 7.938L51 13.5l3.813-2.406z" fill="#CA2317"/><path d="M55.28 12.656l-3.624 3.72 1.72-2.876 1.905-.844zM38.75 15.03l10.656-1.06L42 16.25l-3.25-1.22z" fill="#E54011"/><path d="M39.156 21.063l4.125-2.657 2.626 8.844-1.375 2.813-5.374-9z" fill="#CA2317"/><path d="M33 31.563L31.03 7.5l13.5 22.563-11.53 1.5z" fill="#B7DFF2"/><path d="M27.406 37.72L33 31.562l11.53-1.5-17.124 7.656z" fill="#E54011"/><path d="M.22 49.813l27.186-12.094L33 31.562l-8.875-.907L.22 49.813z" fill="#FFCE33"/><path d="M1.25 39.938l13.97-2.126 4.342-3.5-2.125-.937L1.25 39.938z" fill="#D6B12D"/><path d="M6.28 28.53l13.282 5.782 4.563-3.656L6.28 28.53z" fill="#FFDE85"/><path d="M30.03 16.22l-1.686.28-4.22 14.156 4.564-2.875 1.343-11.56z" fill="#009EC6"/><path d="M32.5 25.344l-3.813 2.437L31.032 7.5l1.47 17.844z" fill="#5EAFCE"/><path d="M18.094 18.125L30.03 16.22l.532-4.72-12.468 6.625z" fill="#045972"/><path d="M16.813 7.063l10.375 6.25 3.375-1.813.093-.656-13.843-3.78z" fill="#5A8591"/><path d="M18.844.25l9.437 9.938 2.376.656.375-3.344L18.845.25z" fill="#009EC6"/><path d="M24.125 30.656l8.375-5.312.5 6.218-8.875-.906z" fill="#F39804"/></g></symbol><symbol id="icon-google-button" viewBox="0 0 29 22"><title>google-button</title><g fill="none" fill-rule="evenodd"><path d="M24.056 8.044V5h-2.012v3.044H19v1.912h3.044V13h2.012V9.956H27V8.044h-2.944z" fill="#FDF4F2"/><path d="M14.117 12.664c-.606-.436-1.766-1.496-1.766-2.12 0-.73.206-1.09 1.29-1.95 1.11-.88 1.894-2.117 1.894-3.556 0-1.714-.752-3.385-2.163-3.936H15.5L17 0h-6.71C7.282 0 4.45 2.314 4.45 4.995c0 2.74 2.052 4.95 5.112 4.95.213 0 .42-.005.622-.02-.2.387-.34.822-.34 1.273 0 .76.403 1.38.913 1.882-.386 0-.758.012-1.163.012C5.868 13.092 3 15.502 3 18c0 2.46 3.144 4 6.87 4 4.247 0 6.593-2.447 6.593-4.908 0-1.974-.573-3.155-2.346-4.428zM10.51 9c-1.632-.052-3.184-1.897-3.466-4.12C6.762 2.653 7.857.95 9.49 1c1.632.052 3.184 1.837 3.466 4.062.28 2.225-.814 3.988-2.446 3.937zM9.284 21C6.796 21 5 19.388 5 17.45c0-1.897 2.228-3.477 4.716-3.45.58.007 1.12.102 1.612.265 1.35.962 2.32 1.505 2.593 2.6.052.223.08.45.08.685C14 19.487 12.78 21 9.284 21z" fill="url(#a)"/></g></symbol><symbol id="icon-group" viewBox="0 0 24 24"><title>group</title><path d="M5.22 5.43c1.454 0 2.632-1.215 2.632-2.715C7.852 1.215 6.674 0 5.222 0 3.767 0 2.59 1.216 2.59 2.715c0 1.5 1.176 2.715 2.63 2.715zm6.98 0c1.454 0 2.632-1.215 2.632-2.715 0-1.5-1.178-2.715-2.63-2.715C10.747 0 9.57 1.216 9.57 2.715c0 1.5 1.178 2.716 2.63 2.716zm5.983 0c1.453 0 2.63-1.215 2.63-2.715 0-1.5-1.177-2.715-2.63-2.715-1.453 0-2.63 1.216-2.63 2.715 0 1.5 1.177 2.716 2.63 2.716zm-2.408.863H8.273c-.64 0-1.16.536-1.16 1.197v6.846c0 .662.52 1.197 1.16 1.197h.357V24h6.65v-8.467h.495c.64 0 1.16-.535 1.16-1.197V7.49c0-.66-.52-1.197-1.16-1.197zm-10.3 8.043V7.49c0-.428.097-.83.26-1.197H1.86C1.22 6.293.7 6.83.7 7.49v6.846c0 .662.52 1.198 1.16 1.198h.358V24h4.775v-7.097c-.9-.48-1.518-1.45-1.518-2.567zM22.29 6.293h-3.977c.163.366.26.77.26 1.197v6.846c0 1.172-.68 2.183-1.655 2.635V24h4.878v-8.467h.493c.64 0 1.16-.535 1.16-1.197V7.49c0-.66-.52-1.197-1.16-1.197z" fill-rule="evenodd"/></symbol><symbol id="icon-help" viewBox="0 0 16 16"><title>help</title><path d="M16 8c0-4.418-3.582-8-8-8S0 3.582 0 8s3.582 8 8 8 8-3.582 8-8zm-1 0c0-3.866-3.134-7-7-7S1 4.134 1 8s3.134 7 7 7 7-3.134 7-7zm-4.328-1.97c0-.995-.805-1.877-2.503-1.877-1.107 0-1.934.458-2.582 1.206l1.14.882c.402-.458.85-.682 1.296-.682.49 0 .782.224.782.626 0 .916-1.766.85-1.766 2.77v.28h1.62v-.223c0-1.296 2.012-1.173 2.012-2.983zm-1.788 5.073c0-.56-.447-1.017-1.017-1.017-.57 0-1.017.458-1.017 1.017 0 .558.447 1.017 1.017 1.017.57 0 1.017-.46 1.017-1.017z" fill="#000" fill-rule="evenodd"/></symbol><symbol id="icon-important" viewBox="0 0 16 16"><title>important</title><path d="M9.59 10.602c0 .08-.017.15-.055.21-.037.06-.104.11-.2.15-.095.04-.218.07-.367.09-.15.02-.336.03-.56.03-.223 0-.41-.01-.56-.03-.148-.02-.27-.05-.367-.09-.095-.04-.16-.09-.198-.15-.038-.06-.056-.13-.056-.21L6.954 2.2c-.01-.12.005-.224.048-.313.042-.09.12-.165.232-.225.112-.06.26-.102.447-.127.187-.025.43-.037.728-.037.288 0 .525.015.712.044.186.03.335.075.447.135.112.06.19.132.232.217.04.085.063.187.063.307l-.272 8.402zm.33 2.485c0 .68-.68 1.228-1.513 1.228-.198 0-.386-.03-.56-.087-.243.124-.458.21-.747.262-.086.016-.12.015-.128.005-.01-.012.02-.035.045-.054.28-.203.326-.31.394-.43-.316-.224-.515-.555-.515-.924 0-.68.676-1.23 1.512-1.23.834 0 1.512.55 1.512 1.23z" fill-rule="evenodd"/></symbol><symbol id="icon-in-process" viewBox="0 0 64 64"><title>in-process</title><g fill-rule="evenodd"><path d="M7.997 43.98c.037-3.865.037-7.657 0-11.994-2.244.046-4.13-.852-5.998-2.998-1.207-1.147-2-3.043-2-4.998V7.997C0 3.792 3.77 0 7.997 0h30.988c5.153 0 8.922 3.592 8.996 7.997.026 5.474.026 10.563 0 15.993-.172 4.45-3.94 8.042-8.995 7.996-5.857.046-11.907.046-17.993 0-.56.046-1.353.345-2 1-3.52 3.436-6.99 7.228-10.995 10.995.335.026.235.026 0 0z"/><path d="M52 20c3.61-.172 7.144-.172 10 3 1.185 1.404 1.993 3.195 2 5-.007 5.358-.21 10.432 0 15 .195 4.983-4.148 8.863-8 9 .316.062.114.16 0 0-.088 4.04-.088 7.822 0 12-.593-.497-.997-.696-1-1-3.634-3.278-6.967-6.56-10-10-1.11-.64-1.917-1.038-3-1-6.09.062-12.15-.038-18 0-5.565-.038-9.707-4.813-9-10 .202-.385.404-.683 1-1 1.222-1.474 2.637-2.966 4-4 .657-.757 1.364-.956 2-1 5.526.044 11.183.044 17 0 6.002.044 11.356-4.134 13-10-.028-1.795-.23-3.785 0-6z" opacity=".4" fill="#A9BCC4"/></g></symbol><symbol id="icon-line-left-arrow" viewBox="0 0 34 7"><title>line-left-arrow</title><g fill-rule="evenodd"><path d="M34 3H3v1h31V3z"/><path d="M7 0v7L0 3.5 7 0z"/></g></symbol><symbol id="icon-line-right-arrow" viewBox="0 0 34 7"><title>line-right-arrow</title><g fill-rule="evenodd"><path d="M0 4h31V3H0v1z"/><path d="M27 7V0l7 3.5L27 7z"/></g></symbol><symbol id="icon-linkedin-button" viewBox="0 0 29 22"><title>linkedin-button</title><path d="M10.512 3.542c0 1.104-.896 2-1.998 2-1.106 0-2-.896-2-2 0-1.103.894-2 2-2 1.102 0 1.998.897 1.998 2zM7 7.037h3v11H7v-11zm9.3-.02v1.507h.048c.457-.867 1.576-1.78 3.242-1.78 3.468 0 4.108 2.28 4.108 5.25v6.048h-3.422v-5.36c0-1.28-.025-2.925-1.78-2.925-1.784 0-2.056 1.393-2.056 2.832v5.452h-3.426V7.017H16.3z" fill="#FFF" fill-rule="evenodd"/></symbol><symbol id="icon-list" viewBox="0 0 16 16"><title>list</title><path d="M0 3c0-.552.45-1 1.007-1h12.986C14.55 2 15 2.444 15 3c0 .552-.45 1-1.007 1H1.007C.45 4 0 3.556 0 3zm0 4c0-.552.45-1 1.007-1h12.986C14.55 6 15 6.444 15 7c0 .552-.45 1-1.007 1H1.007C.45 8 0 7.556 0 7zm0 4c0-.552.45-1 1.007-1h12.986c.556 0 1.007.444 1.007 1 0 .552-.45 1-1.007 1H1.007C.45 12 0 11.556 0 11zm0 4c0-.552.45-1 1.007-1h12.986c.556 0 1.007.444 1.007 1 0 .552-.45 1-1.007 1H1.007C.45 16 0 15.556 0 15z" fill-rule="evenodd"/></symbol><symbol id="icon-loading" viewBox="0 0 16 16"><title>loading</title><circle cx="8" cy="8" r="5" fill-rule="evenodd"/></symbol><symbol id="icon-lock-open" viewBox="0 0 16 16"><title>lock-open</title><path d="M5.408 7h6.596c.55 0 .996.446.996.997v6.006c0 .544-.446.997-.996.997H2.996c-.55 0-.996-.446-.996-.997V7.997C2 7.453 2.446 7 2.996 7h1.017V4.21l.005.105-.01-.125c-.034-.608.03-1.31.28-2C4.783.826 5.853 0 7.5 0c1.647 0 2.717.827 3.21 2.19.252.69.316 1.392.28 2-.002.054-.005.09-.008.125l.005-.104v1.685H9.592V4.21l.006-.104.002-.032c.02-.36-.02-.806-.167-1.21-.27-.743-.834-1.18-1.933-1.18-1.1 0-1.664.437-1.933 1.18-.146.404-.187.85-.167 1.21l.002.032.006.105V7z" fill-rule="evenodd"/></symbol><symbol id="icon-lock" viewBox="0 0 16 16"><title>lock</title><path d="M2.996 7C2.446 7 2 7.453 2 7.997v6.006c0 .55.445.997.996.997h9.008c.55 0 .996-.453.996-.997V7.997c0-.55-.445-.997-.996-.997H2.996zm2.412-1.43l-.006-.087-.002-.027c-.02-.306.02-.684.167-1.027.27-.63.834-1 1.933-1 1.1 0 1.664.37 1.933 1 .146.342.187.72.167 1.026l-.002.027-.006.088V7h1.395V5.57l-.005.09.01-.106c.034-.515-.03-1.11-.28-1.697C10.216 2.7 9.146 2 7.5 2c-1.648 0-2.718.7-3.21 1.857-.252.586-.316 1.18-.28 1.697.002.046.005.076.008.106l-.005-.09V7h1.395V5.57z" fill-rule="evenodd"/></symbol><symbol id="icon-logo" viewBox="0 0 42 36"><title>logo</title><g fill="none" fill-rule="evenodd"><path d="M28.337 12.6l9.383-2.88-5.557 3.532-3.825-.652z" fill="#CA2317"/><path d="M34.053 19.62l-1.89-6.368L37.72 9.72l-1.665 5.715-2.002 4.185z" fill="#E84F83"/><path d="M40.465 7.987L39.43 9.72l-3.375 5.715L37.72 9.72l2.745-1.733z" fill="#CA2317"/><path d="M40.803 9.113l-2.61 2.677 1.237-2.07 1.373-.607zM28.9 10.822l7.672-.764L31.24 11.7l-2.34-.877z" fill="#E54011"/><path d="M29.192 15.165l2.97-1.912 1.89 6.367-.99 2.025-3.87-6.48z" fill="#CA2317"/><path d="M24.76 22.725L23.342 5.4l9.72 16.245-8.302 1.08z" fill="#B7DFF2"/><path d="M20.733 27.157l4.027-4.432 8.302-1.08-12.33 5.512z" fill="#E54011"/><path d="M1.157 35.865l19.576-8.708 4.027-4.432-6.39-.652L1.157 35.864z" fill="#FFCE33"/><path d="M1.9 28.755l10.057-1.53 3.128-2.52-1.53-.675L1.9 28.755z" fill="#D6B12D"/><path d="M5.522 20.543l9.563 4.162 3.285-2.632-12.848-1.53z" fill="#FFDE85"/><path d="M22.622 11.678l-1.215.202-3.037 10.193 3.285-2.07.967-8.325z" fill="#009EC6"/><path d="M24.4 18.247l-2.745 1.756L23.343 5.4 24.4 18.247z" fill="#5EAFCE"/><path d="M14.027 13.05l8.595-1.373.383-3.397-8.977 4.77z" fill="#045972"/><path d="M13.105 5.085l7.47 4.5 2.43-1.305.068-.472-9.968-2.723z" fill="#5A8591"/><path d="M14.568.18l6.795 7.155 1.71.473.27-2.408L14.568.18z" fill="#009EC6"/><path d="M18.37 22.073l6.03-3.826.36 4.478-6.39-.652z" fill="#F39804"/></g></symbol><symbol id="icon-logotype" viewBox="0 0 91 15"><title>logotype</title><path d="M0 14.752h11.657V9.697H8.563v2.167h-3.24c-.412 0-.887.062-.887.062 0-.042.37-.33.66-.743l6.314-8.955V0H.083v4.972h3.094V2.89h2.89c.412 0 .886-.063.886-.063 0 .04-.37.33-.66.742L0 12.482v2.27zm13.08-3.033c0 2.145 1.63 3.28 3.488 3.28 2.27 0 3.136-1.754 3.136-1.754h.042s-.042.145-.042.33v.062c0 .516.392 1.114 1.424 1.114h3.074v-2.58h-.784c-.29 0-.454-.164-.454-.453V8.21c0-2.786-1.65-4.333-4.745-4.333-2.684 0-4.5 1.38-4.5 1.38l1.24 2.415s1.484-1.01 2.93-1.01c.803 0 1.505.31 1.505 1.175v.31h-.64c-1.65 0-5.674.454-5.674 3.57zm3.59-.248c0-.95 1.26-1.32 2.436-1.32h.33v.247c0 .927-.908 2.02-1.816 2.02-.577 0-.95-.39-.95-.948zm8.832 3.28h6.252v-2.58h-1.34v-1.608c0-1.713.41-3.446 2.04-3.446.682 0 .827.557.827 1.34v6.294h4.91v-2.58h-1.34V10.36c0-1.775.495-3.24 2.043-3.24.68 0 .825.557.825 1.34v6.294h4.91v-2.58h-1.34v-4.31c0-2.93-1.527-3.983-3.343-3.983-1.63 0-2.93.866-3.508 2h-.04c-.517-1.485-1.61-2-2.766-2-1.794 0-2.825 1.216-3.362 2.042h-.04s.02-.145.02-.248v-.35c0-.723-.516-1.197-1.486-1.197H25.4v2.58h.99c.288 0 .453.143.453.432v5.033h-1.34v2.58zm20.447 0h6.25v-2.58h-1.34v-1.608c0-1.713.412-3.446 2.042-3.446.68 0 .826.557.826 1.34v6.294h4.91v-2.58h-1.34V10.36c0-1.775.494-3.24 2.042-3.24.68 0 .825.557.825 1.34v6.294h4.91v-2.58h-1.34v-4.31c0-2.93-1.527-3.983-3.343-3.983-1.63 0-2.93.866-3.508 2h-.04c-.517-1.485-1.61-2-2.766-2-1.795 0-2.826 1.216-3.363 2.042h-.04s.02-.145.02-.248v-.35c0-.723-.516-1.197-1.486-1.197h-3.364v2.58h.99c.29 0 .454.143.454.432v5.033h-1.34v2.58zm20.054-3.033c0 2.145 1.63 3.28 3.487 3.28 2.27 0 3.137-1.754 3.137-1.754h.042s-.043.145-.043.33v.062c0 .516.392 1.114 1.424 1.114h3.075v-2.58h-.784c-.288 0-.453-.164-.453-.453V8.21c0-2.786-1.65-4.333-4.745-4.333-2.683 0-4.498 1.38-4.498 1.38l1.238 2.415s1.485-1.01 2.93-1.01c.804 0 1.506.31 1.506 1.175v.31h-.64c-1.65 0-5.674.454-5.674 3.57zm3.59-.248c0-.95 1.26-1.32 2.435-1.32h.33v.247c0 .927-.91 2.02-1.817 2.02-.577 0-.95-.39-.95-.948zm8.522-2.022c0 3.28 1.856 5.55 4.683 5.55 2.475 0 3.28-1.754 3.28-1.754h.04s-.04.145-.04.33v.062c0 .516.392 1.114 1.423 1.114h3.075v-2.58h-.784c-.29 0-.454-.164-.454-.453V0h-5.014v2.58h1.444v1.67c0 .392.02.68.02.68h-.04s-.68-1.05-2.724-1.05c-2.93 0-4.91 2.186-4.91 5.57zm3.59 0c0-1.65.95-2.56 2.125-2.56 1.363 0 2.043 1.24 2.043 2.642 0 1.713-1.03 2.518-2.104 2.518-1.218 0-2.064-1.053-2.064-2.6z" fill-rule="evenodd"/></symbol><symbol id="icon-long-arrow-right" viewBox="0 0 11 11"><title>long-arrow-right</title><path d="M8.347 6.203c-.32.24-.64.577-.993.962L5.11 9.6l1.074.913 4.486-4.998-4.486-5-1.073.914 2.132 2.306c.416.465.752.833 1.105 1.09l-.016.048H0v1.28h8.33l.017.05z" fill-rule="evenodd"/></symbol><symbol id="icon-magnifier" viewBox="0 0 15 15"><title>magnifier</title><path d="M5.92 10.382c-2.444-.016-4.42-2.016-4.404-4.46.018-2.428 2.002-4.405 4.43-4.405h.03c1.182.007 2.29.477 3.12 1.32.832.84 1.286 1.958 1.28 3.142-.01 1.176-.473 2.285-1.31 3.114-.833.83-1.943 1.288-3.117 1.288h-.03M5.983 0h-.038C2.68 0 .022 2.638 0 5.912-.018 9.198 2.623 11.88 5.907 11.9h.042c1.088 0 2.112-.295 2.99-.81l3.613 3.617.092.088c.137.137.315.205.494.205.178 0 .357-.068.493-.205l1.164-1.162c.272-.274.272-.718 0-.99l-.09-.093-3.62-3.62c.506-.866.796-1.868.803-2.942C11.914 2.7 9.267.022 5.983 0" fill-rule="evenodd"/></symbol><symbol id="icon-marker" viewBox="0 0 17 19"><title>marker</title><path d="M7.378 14.166l4.146-11.91L6.862 0S1.995 8.102.532 10.85l6.846 3.316zm-.31.595c-.374.446-1.273 1.32-2.35.983-1.425-.444-1.01-.364-1.01-.364l-.303.73L.85 15.026l.54-.858s-2.013-.58-1.184-2.654L7.07 14.76zM.757 16.004L0 17.837l2.782.3.466-.908-2.492-1.227zM.12 18.34h16.737v.46H.12v-.46z" fill-rule="evenodd"/></symbol><symbol id="icon-message" viewBox="0 0 24 24"><title>message</title><path d="M20.098 3.035c-.184-.02-.37-.034-.554-.034-5.36 0-10.717 0-16.077.003-.248 0-.497.032-.743.074-.383.063-.6.318-.662.704-.038.233-.06.473-.06.71C2 8.132 2 11.776 2.003 15.42c0 .105 0 .21.007.314.046.813.33 1.11 1.123 1.124 1.054.02 2.067.016 3.12.022.223.002.66 0 .66 0v.354c0 1.34.042 2.682.046 4.025 0 .256-.056.57.246.704.295.13.49-.124.675-.3 1.637-1.53 3.277-3.058 4.906-4.596.15-.14.3-.19.497-.19 2 .004 4 .004 5.997.002.25 0 .503-.01.75-.033.594-.053.843-.294.93-.896.024-.186.038-.378.038-.567.002-3.586.003-7.173 0-10.76-.002-.254-.02-.513-.057-.765-.073-.517-.333-.768-.842-.823zM5 8c0 .552.446 1 .998 1h7.004c.55 0 .998-.444.998-1 0-.552-.446-1-.998-1H5.998C5.448 7 5 7.444 5 8zm0 4c0 .552.447 1 1 1h11c.553 0 1-.444 1-1 0-.552-.447-1-1-1H6c-.553 0-1 .444-1 1z" fill-rule="evenodd"/></symbol><symbol id="icon-minus-small" viewBox="0 0 16 16"><title>minus-small</title><path d="M3 7v2h10V7H3z" fill-rule="evenodd"/></symbol><symbol id="icon-minus" viewBox="0 0 20 20"><title>minus</title><path d="M2 8v3h17V8H2z" fill-rule="evenodd"/></symbol><symbol id="icon-mood-bad" viewBox="0 0 60 59"><title>mood-bad</title><path d="M60 5.108c0-.82-.062-1.577-.187-2.396-.25-1.577-1.06-2.397-2.68-2.586C56.574.063 55.95 0 55.39 0H4.672c-.81 0-1.558.126-2.368.252C1.12.442.435 1.262.187 2.46.062 3.215 0 3.91 0 4.665V39.54c.125 2.52 1.06 3.467 3.55 3.467 3.304.063 6.793.063 10.157.063.686 0 1.807.063 1.807.063v1.072c0 4.162.062 8.324.062 12.486 0 .82 0 1.767.935 2.208.935.38 1.496-.378 2.057-.946 5.17-4.792 10.28-9.522 15.452-14.25.497-.443.933-.57 1.556-.57h18.94c.81 0 1.56-.062 2.37-.125 1.868-.19 2.678-.883 2.927-2.775.062-.567.125-1.198.125-1.765C60 27.367 60 16.27 60 5.107zM35 34.5c0 .825-.563 1.5-1.25 1.5h-7.5c-.688 0-1.25-.675-1.25-1.5s.563-1.5 1.25-1.5h7.5c.688 0 1.25.675 1.25 1.5zM37 19h9c0 4-2.043 6-4.468 6C39.106 25 37 23 37 19zm-23 0h9c0 4-2.043 6-4.468 6C16.106 25 14 23 14 19z" fill="#F6820B" fill-rule="evenodd"/></symbol><symbol id="icon-mood-good" viewBox="0 0 60 59"><title>mood-good</title><path d="M60 5.108c0-.82-.062-1.577-.187-2.396-.25-1.577-1.06-2.397-2.68-2.586C56.574.063 55.95 0 55.39 0H4.672c-.81 0-1.558.126-2.368.252C1.12.442.435 1.262.187 2.46.062 3.215 0 3.91 0 4.665V39.54c.125 2.52 1.06 3.467 3.55 3.467 3.304.063 6.73.063 10.033.063.685 0 1.744.063 1.744.063v1.072c0 4.162.125 8.324.187 12.486 0 .82.062 1.767.997 2.208.935.38 1.496-.378 2.057-.946 5.17-4.792 10.28-9.522 15.452-14.25.497-.443.933-.57 1.556-.57h18.94c.81 0 1.56-.062 2.37-.125 1.868-.19 2.678-.883 2.927-2.775.062-.567.125-1.198.125-1.765C60 27.367 60 16.27 60 5.107zM18.78 20.336c-2.437 0-4.374-2.008-4.374-4.393 0-2.448 2-4.394 4.375-4.394 2.438 0 4.376 2.007 4.376 4.393.062 2.385-1.938 4.393-4.375 4.393zm27.563-4.393c0 2.447-2 4.393-4.375 4.393-2.437 0-4.375-2.008-4.375-4.393 0-2.448 2-4.394 4.375-4.394 2.375-.064 4.375 1.945 4.375 4.393zm-8.25 11.36c.5.44.563 1.256.063 1.758-2.063 2.26-4.938 3.516-8 3.516-3.063 0-5.938-1.256-8-3.515-.438-.5-.438-1.317.062-1.757.5-.44 1.313-.44 1.75.063 1.625 1.757 3.75 2.7 6.125 2.7 2.313 0 4.563-1.005 6.125-2.7.563-.502 1.375-.502 1.875-.063z" fill="#A9AC41" fill-rule="evenodd"/></symbol><symbol id="icon-mood-ok" viewBox="0 0 60 59"><title>mood-ok</title><path d="M60 5.108c0-.82-.062-1.577-.187-2.396-.25-1.577-1.06-2.397-2.68-2.586C56.574.063 55.95 0 55.39 0H4.672c-.81 0-1.558.126-2.368.252C1.12.442.435 1.262.187 2.46.062 3.215 0 3.91 0 4.665V39.54c.125 2.52 1.06 3.467 3.55 3.467 3.304.063 6.793.063 10.157.063.686 0 1.807.063 1.807.063v1.072c0 4.162.062 8.324.062 12.486 0 .82 0 1.767.935 2.208.935.38 1.496-.378 2.057-.946 5.17-4.792 10.28-9.522 15.452-14.25.497-.443.933-.57 1.556-.57h18.94c.81 0 1.56-.062 2.37-.125 1.868-.19 2.678-.883 2.927-2.775.062-.567.125-1.198.125-1.765C60 27.367 60 16.27 60 5.107zM22.718 18.453c0 2.448-2 4.394-4.375 4.394-2.437 0-4.375-2.01-4.375-4.394 0-2.448 2-4.393 4.375-4.393 2.375-.063 4.375 1.945 4.375 4.393zm23.125 0c0 2.448-2 4.394-4.375 4.394-2.437 0-4.375-2.01-4.375-4.394 0-2.448 2-4.393 4.375-4.393 2.375-.063 4.375 1.945 4.375 4.393zM36.77 32H23.23c-.676 0-1.23-.675-1.23-1.5s.554-1.5 1.23-1.5h13.54c.676 0 1.23.675 1.23 1.5s-.554 1.5-1.23 1.5z" fill="#FAAB00" fill-rule="evenodd"/></symbol><symbol id="icon-mood-super-bad" viewBox="0 0 60 59"><title>mood-super-bad</title><path d="M60 5.108c0-.82-.062-1.577-.187-2.396-.25-1.577-1.06-2.397-2.68-2.586C56.574.063 55.95 0 55.39 0H4.672c-.81 0-1.558.126-2.368.252C1.12.442.435 1.262.187 2.46.062 3.215 0 3.91 0 4.665V39.54c.125 2.52 1.06 3.467 3.55 3.467 3.304.063 6.793.063 10.157.063.686 0 1.807.063 1.807.063v1.072c0 4.162.062 8.324.062 12.486 0 .82 0 1.767.935 2.208.935.38 1.496-.378 2.057-.946 5.17-4.792 10.28-9.522 15.452-14.25.497-.443.933-.57 1.556-.57h18.94c.81 0 1.56-.062 2.37-.125 1.868-.19 2.678-.883 2.927-2.775.062-.567.125-1.198.125-1.765C60 27.367 60 16.27 60 5.107zm-14.313 15.48c.626 3.702-.937 5.9-3.374 6.34-2.376.438-4.688-1.13-5.313-4.834l8.688-1.507zm-27.437 6.4c-2.375-.438-4-2.635-3.375-6.338l8.688 1.506c-.688 3.704-2.938 5.21-5.313 4.833zM38 34.9c.438.502.438 1.318-.063 1.757-.5.44-1.312.44-1.75-.062-1.624-1.758-3.75-2.7-6.124-2.7-2.313 0-4.563 1.005-6.125 2.7-.25.25-.563.376-.938.376-.313 0-.625-.126-.875-.315-.5-.44-.563-1.255-.063-1.757C24.125 32.638 27 31.383 30 31.383s5.938 1.255 8 3.515z" fill="#F35910" fill-rule="evenodd"/></symbol><symbol id="icon-mood-supergood" viewBox="0 0 60 59"><title>mood-supergood</title><path d="M60 5.108c0-.82-.062-1.577-.187-2.396-.25-1.577-1.06-2.397-2.68-2.586C56.574.063 55.95 0 55.39 0H4.672c-.81 0-1.558.126-2.368.252C1.12.442.435 1.262.187 2.46.062 3.215 0 3.91 0 4.665V39.54c.125 2.52 1.06 3.467 3.55 3.467 3.304.063 6.73.063 10.033.063.685 0 1.744.063 1.744.063v1.072c0 4.162.125 8.324.187 12.486 0 .82.062 1.767.997 2.208.935.38 1.496-.378 2.057-.946 5.17-4.792 10.28-9.522 15.452-14.25.497-.443.933-.57 1.556-.57h18.94c.81 0 1.56-.062 2.37-.125 1.868-.19 2.678-.883 2.927-2.775.062-.567.125-1.198.125-1.765C60 27.367 60 16.27 60 5.107zM40.6 21c0 4.908-4.694 10-10.5 10s-10.5-5.092-10.5-10h21zm-17.16-5.31h-10c-.687 0-1.25-.563-1.25-1.254 0-.69.563-1.255 1.25-1.255h.626c.375-2.95 2.187-4.393 4.312-4.393 2.125 0 3.938 1.507 4.313 4.394h.75c.688 0 1.25.566 1.25 1.256 0 .69-.562 1.255-1.25 1.255zm24.376-1.254c0 .69-.563 1.255-1.25 1.255h-10c-.688 0-1.25-.563-1.25-1.254 0-.69.562-1.255 1.25-1.255h.625c.376-2.95 2.188-4.393 4.313-4.393 2.125 0 3.938 1.507 4.313 4.394h.75c.687 0 1.25.566 1.25 1.256z" fill="#38AE6A" fill-rule="evenodd"/></symbol><symbol id="icon-note" viewBox="0 0 16 16"><title>note</title><path d="M14.667 1.856L9.853 6.67 10.89 7.71l4.815-4.815-1.038-1.037zM8.72 7.76v1.02h1.058l.518-.51-1.047-.978-.53.467zm2.095 1.93H7.74V6.796l4.62-4.333V1.5H6.2v3.9H2v9.1h10.36V8.24l-1.545 1.45zM2 4.36h3.08V1.5L2 4.36z" fill-rule="evenodd"/></symbol><symbol id="icon-one-ticket" viewBox="0 0 48 10"><title>one-ticket</title><g fill-rule="evenodd"><path d="M37.5 10H0l10-7h37.5l-10 7z" fill="#FFF"/><path d="M37.5 8H0l10-8h37.5l-10 8z"/></g></symbol><symbol id="icon-organization" viewBox="0 0 16 16"><title>organization</title><path d="M1 2v13h7V2H1zm2 11H2v-1h1v1zm0-2H2v-1h1v1zm0-2H2V8h1v1zm0-2H2V6h1v1zm0-2H2V4h1v1zm0-1H2V3h1v1zm2 9H4v-1h1v1zm0-2H4v-1h1v1zm0-2H4V8h1v1zm0-2H4V6h1v1zm0-2H4V4h1v1zm0-1H4V3h1v1zm2 9H6v-1h1v1zm0-2H6v-1h1v1zm0-2H6V8h1v1zm0-2H6V6h1v1zm0-2H6V4h1v1zm0-1H6V3h1v1zm1 1v10h7V5H8zm1 8v-1h1v1H9zm1-2H9v-1h1v1zm0-2H9V8h1v1zm0-2H9V6h1v1zm2 6h-1v-1h1v1zm0-2h-1v-1h1v1zm0-2h-1V8h1v1zm0-2h-1V6h1v1zm2 6h-1v-1h1v1zm0-2h-1v-1h1v1zm0-2h-1V8h1v1zm0-2h-1V6h1v1z" fill-rule="evenodd"/></symbol><symbol id="icon-outbound-calls" viewBox="0 0 17 17"><title>outbound-calls</title><path d="M11.016 13.442s-1.134.1-3.61-2.226-2.476-3.44-2.476-3.44l1.753-1.82C6.373 4.236 5.24 1.403 3.28 2.11 1.32 2.72.596 5.55 1.215 7.27c3.095 8.195 10.213 9.713 11.245 9.713 2.58.202 4.23-1.416 4.54-3.844 0 .1-2.682-1.52-3.92-1.72l-2.064 2.022zM10.244 10l3.024-3.122 2.05 2.05L16 2l-6.927.683 2.05 2.05L8 7.852 10.244 10z" fill-rule="evenodd"/></symbol><symbol id="icon-overviews" viewBox="0 0 24 24"><title>overviews</title><path d="M10 7h10c1.308 0 2-.895 2-2s-.692-2-2-2H10c-1.307 0-2 .895-2 2s.693 2 2 2zm10 3H10c-1.307 0-2 .897-2 2 0 1.105.693 2 2 2h10c1.308 0 2-.895 2-2 0-1.103-.692-2-2-2zm0 7H10c-1.307 0-2 .897-2 2 0 1.104.693 2 2 2h10c1.308 0 2-.896 2-2 0-1.103-.692-2-2-2zM4 3c-1.325 0-2 .895-2 2s.675 2 2 2 2-.895 2-2-.675-2-2-2zm0 7c-1.325 0-2 .897-2 2 0 1.105.675 2 2 2s2-.895 2-2c0-1.103-.675-2-2-2zm0 7c-1.325 0-2 .897-2 2 0 1.104.675 2 2 2s2-.896 2-2c0-1.103-.675-2-2-2z" fill-rule="evenodd"/></symbol><symbol id="icon-package" viewBox="0 0 16 16"><title>package</title><path d="M.168 4.455l7.51 3.602 3.295-1.58L3.52 2.9.167 4.456zM7.6 1l7.177 3.648-2.897 1.39-7.442-3.57L7.6 1zM0 5.205v7.252l7.264 3.678V8.847L0 5.205zm15 7.497l-7.03 3.552v-7.47L15 5.47v7.232z" fill-rule="evenodd"/></symbol><symbol id="icon-paperclip" viewBox="0 0 31 28"><title>paperclip</title><path d="M30.05 12.518l.142-.142.1-.174c.112-.196.25-.498.376-.896.82-2.563.237-5.555-2.618-8.41C25.233.08 22.108-.35 19.318.663c-.505.183-.885.374-1.123.524l-.155.096-.127.13-16.5 17-.076.085c-.188.227-.433.583-.672 1.052-.826 1.62-.972 3.41.077 5.105.324.524.753 1.01 1.287 1.455 2.252 1.878 4.364 2.345 6.058 1.897.243-.065.434-.14.572-.208l.218-.11.172-.172 14-14 .44-.44v-.62c0-.634-.14-1.48-.58-2.36-.222-.442-.506-.847-.86-1.2-.58-.583-1.323-.864-2.132-.907-.6-.03-1.196.07-1.777.25-.298.092-.535.187-.693.262l-.228.108-.18.177-10.4 10.2 2.1 2.142 10.4-10.2-.408.283c.038-.018.147-.062.298-.11.27-.082.532-.126.73-.116.12.007.16.022.17.03.114.116.316.135.4.3.192.388.16.23.16.44v.2L6.93 25.398l.39-.28c-.244.054-.583.066-1.02-.03-.69-.154-1.476-.553-2.35-1.282-.293-.243-.508-.487-.657-.73-.41-.66-.35-1.388.045-2.164.127-.25.25-.426.304-.492l-.076.084 16.5-17-.28.228c.068-.044.263-.142.555-.248 1.773-.643 3.67-.38 5.59 1.536 2.02 2.02 2.373 3.834 1.88 5.373-.06.19-.11.3-.123.324l.242-.317-15 15 2.12 2.12 15-15z" fill="#000" opacity=".15" fill-rule="evenodd"/></symbol><symbol id="icon-pen" viewBox="0 0 16 16"><title>pen</title><path d="M15.017 4.092c0-1.424-1.234-2.57-2.767-2.57-.817 0-1.55.326-2.05.852l3.917 3.637c.533-.478.9-1.16.9-1.918zm-3.467.573L9.6 2.84 6.3 5.902l-4.683 4.35-.634 4.224 4.534-.588 5.2-4.83L13.5 6.476l-1.95-1.81zM3.133 13.27l-.466-.45-.484-.448.1-.62.1-.618 1.084 1.006 1.083 1.006-.7.062-.717.062z" fill-rule="evenodd"/></symbol><symbol id="icon-person" viewBox="0 0 24 24"><title>person</title><path d="M12.163 5.43c1.453 0 2.63-1.215 2.63-2.715 0-1.5-1.177-2.715-2.63-2.715-1.453 0-2.63 1.216-2.63 2.715 0 1.5 1.177 2.716 2.63 2.716zm3.574.863H8.235c-.64 0-1.16.536-1.16 1.197v6.846c0 .662.52 1.198 1.16 1.198h.357V24h6.65v-8.466h.495c.64 0 1.16-.536 1.16-1.198V7.49c0-.66-.52-1.197-1.16-1.197z" fill-rule="evenodd"/></symbol><symbol id="icon-phone" viewBox="0 0 17 17"><title>phone</title><path d="M7.406 10.216C4.93 7.89 4.93 6.776 4.93 6.776l1.753-1.82C6.373 3.236 5.24.403 3.28 1.11 1.32 1.72.596 4.55 1.215 6.27c3.095 8.195 10.213 9.713 11.245 9.713 2.58.202 4.23-1.416 4.54-3.844 0 .1-2.682-1.52-3.92-1.72l-2.064 2.022s-1.134.1-3.61-2.226z" fill-rule="evenodd"/></symbol><symbol id="icon-plus-small" viewBox="0 0 16 16"><title>plus-small</title><path d="M9 3H7v4H3v2h4v4h2V9h4V7H9V3z" fill-rule="evenodd"/></symbol><symbol id="icon-plus" viewBox="0 0 20 20"><title>plus</title><path d="M12 2V1H9v7H2v3h7v7h3v-7h7V8h-7V2z" fill-rule="evenodd"/></symbol><symbol id="icon-radio-checked" viewBox="0 0 11 11"><title>radio-checked</title><g fill="#000" fill-rule="evenodd"><circle cx="5.5" cy="5.5" r="2.5"/><path d="M5.5 11C8.538 11 11 8.538 11 5.5S8.538 0 5.5 0 0 2.462 0 5.5 2.462 11 5.5 11zm0-1C7.985 10 10 7.985 10 5.5S7.985 1 5.5 1 1 3.015 1 5.5 3.015 10 5.5 10z"/></g></symbol><symbol id="icon-radio" viewBox="0 0 11 11"><title>radio</title><g fill="none" fill-rule="evenodd"><path d="M5.5 0C2.462 0 0 2.462 0 5.5S2.462 11 5.5 11 11 8.538 11 5.5 8.538 0 5.5 0z" fill="#9C9C9B"/><path d="M1 5.5C1 3.015 3.015 1 5.5 1S10 3.015 10 5.5 7.985 10 5.5 10 1 7.985 1 5.5z" fill="#FFF"/></g></symbol><symbol id="icon-received-calls" viewBox="0 0 17 17"><title>received-calls</title><path d="M14.72 2.11c-2.062-.703-3.094 2.11-3.403 3.82l1.753 1.808s0 1.105-2.476 3.417c-2.476 2.31-3.61 2.21-3.61 2.21l-2.064-2.01c-1.34.202-3.92 1.81-3.92 1.81.31 2.41 1.96 4.02 4.54 3.818 1.03-.1 8.15-1.608 11.244-9.647.62-1.81-.103-4.522-2.063-5.225zM.99 8.408L8 9l-.593-7.012-2.074 2.074L2.173 1 0 3.173l3.062 3.16L.988 8.407z" fill-rule="evenodd"/></symbol><symbol id="icon-reload" viewBox="0 0 16 16"><title>reload</title><path d="M10.92 12.21c-.88.618-1.91.928-2.966.913-.14-.002-.277-.008-.414-.02-.056-.006-.112-.015-.17-.022-.106-.013-.213-.027-.32-.048-.063-.013-.126-.028-.19-.044-.103-.024-.205-.048-.306-.078-.048-.015-.095-.032-.143-.048-.115-.04-.23-.08-.342-.126-.026-.01-.05-.022-.076-.034-.13-.057-.26-.118-.386-.186l-.016-.01c-.425-.232-.813-.522-1.153-.862l-.017-.018c-.105-.106-.206-.218-.302-.333l-.06-.076c-.693-.867-1.11-1.964-1.11-3.157H4.28L2.15 4.86.014 8.06h1.334c0 1.403.437 2.703 1.18 3.778l.026.046c.077.11.163.21.245.316.03.04.058.08.09.118.122.147.252.287.384.422l.038.04c.445.446.948.822 1.497 1.122l.043.025c.16.085.32.162.486.234.04.02.08.04.12.056.142.06.286.11.432.157.07.025.137.05.207.07.126.038.256.07.388.1.087.02.173.042.262.06.036.007.07.018.108.024.123.022.247.034.37.05.046.004.09.012.135.017.22.02.443.036.665.036 1.355 0 2.677-.415 3.812-1.21.36-.253.45-.752.195-1.113-.253-.363-.753-.45-1.114-.197zm2.587-7.92c-.01-.017-.018-.035-.03-.053-.092-.13-.192-.253-.292-.376l-.034-.044c-.676-.82-1.526-1.455-2.488-1.87-.027-.01-.053-.024-.08-.035-.153-.063-.31-.12-.47-.17-.056-.02-.112-.04-.17-.058-.138-.042-.278-.075-.42-.11-.078-.016-.155-.036-.234-.052-.038-.007-.076-.02-.114-.026-.106-.018-.21-.026-.317-.04-.073-.01-.145-.02-.218-.028-.178-.016-.354-.023-.53-.026-.033 0-.063-.005-.095-.005-1.37.003-2.69.412-3.824 1.206-.36.254-.448.753-.195 1.115s.752.45 1.114.196C5.983 3.3 7.005 2.99 8.052 3c.15 0 .298.008.444.022.045.004.09.01.135.017.12.015.24.03.357.054l.153.037c.116.026.23.054.344.088.035.01.07.024.106.036.13.043.256.088.38.14l.038.017c.746.32 1.4.814 1.91 1.432.728.886 1.16 2.003 1.162 3.22h-1.335l2.135 3.2 2.132-3.2h-1.332c0-1.398-.435-2.696-1.175-3.77z" fill-rule="evenodd"/></symbol><symbol id="icon-reopening" viewBox="0 0 68 47"><title>reopening</title><g fill-rule="evenodd"><path d="M39.3 18.7h21.1c3.6 0 6.4 2.3 7.3 5.7.1.6.2 1.1.2 1.7v13.8c0 3.4-2.8 6.4-6.1 6.9-.4.1-.8.1-1.2.1H38.7c-3.7 0-6.7-2.5-7.3-6.1-.1-.5-.1-.9-.1-1.4V26.2c0-2.4.9-4.3 2.8-5.8.3-.2.3-.4.3-.7v-8.2c0-5.4 3.7-10 8.9-11.2.8-.2 1.6-.3 2.4-.3h7.9C59.8 0 65 5.2 64.9 11.5c0 1.4-1.1 2.5-2.4 2.5-1.4.1-2.6-.9-2.7-2.2-.1-1.1-.2-2.2-.7-3.2-1.2-2.1-2.9-3.3-5.3-3.3-2.8-.1-5.6-.1-8.4 0-2.7 0-5.4 2.4-5.6 5.1-.6 2.6-.5 5.5-.5 8.3zm7.9 12c.2.7.1 1.4-.1 2-.2.8-.4 1.5-.6 2.3-.2.5 0 1 .3 1.3 1.7 1.5 3.4 1.6 5.1-.1.3-.3.4-.7.3-1.2-.3-1-.6-2.1-.8-3.1-.1-.3 0-.6 0-.8.6-1.4-.5-3-2-3-1.4 0-2.6 1.3-2.2 2.6z"/><path d="M20.8 18.3c-.3-1.1-.8-1.9-1.8-2.5V11h-.3c0-4-2.6-6.6-6.2-6.6H8.1c-.5 0-.8 0-1.3.1-3 .7-5.1 3.3-5.1 6.4v4.7c0 .2 0 .3-.2.4-1 .9-1.5 2-1.5 3.3v7.5c0 .3 0 .5.1.8.4 2.1 2 3.5 4.1 3.5h12.5c.2 0 .5 0 .7-.1 1.9-.3 3.5-2 3.5-3.9.1-2.6.1-5.2.1-7.8 0-.3-.1-.7-.2-1zM4.8 15c0-2 0-3.2.1-4.8.1-1.5 1.7-2.8 3.2-2.9h4.8c1.4 0 2.4.9 3 2.1.3.5.3 1.6.4 1.6h.8v4.1c-4 0-8.1-.1-11.8-.1h-.5zM12 25.1c-1 .9-1.9.9-2.9 0-.2-.2-.3-.4-.2-.8.1-.4.2-.9.3-1.3.1-.4.2-.7 0-1.1-.2-.8.4-1.5 1.2-1.5.9 0 1.5.9 1.2 1.7 0 .1-.1.3 0 .5.1.6.3 1.2.4 1.8.2.2.2.5 0 .7z" opacity=".4" fill="#A9BCC4"/><path d="M19.944 41H10v-7h1v6h8.483L17.7 36.9l9.9 4-9.9 4.1 2.244-4z" fill="#A9BCC4"/></g></symbol><symbol id="icon-reply-all" viewBox="0 0 16 16"><title>reply-all</title><path d="M6.26 7.955v1.27L0 5.122 6.26 1v1.277L1.94 5.12l4.32 2.835zm3.88-1.282c2.344 0 4.246 2.36 4.246 4.67 0 2.328-1.902 4.202-4.246 4.202 3.508 0 5.86-2.796 5.86-6.27 0-3.46-2.352-5.77-5.86-5.77V1L3.88 5.12l6.26 4.106V6.673z" fill-rule="evenodd"/></symbol><symbol id="icon-reply" viewBox="0 0 16 16"><title>reply</title><path d="M8.14 6.673c2.344 0 4.246 2.36 4.246 4.67 0 2.328-1.902 4.202-4.246 4.202 3.508 0 5.86-2.796 5.86-6.27 0-3.46-2.352-5.77-5.86-5.77V1L1.88 5.12l6.26 4.106V6.673z" fill-rule="evenodd"/></symbol><symbol id="icon-report" viewBox="0 0 20 20"><title>report</title><path d="M0 6h5v14H0V6zm7-6h6v20H7V0zm8 13h5v7h-5v-7z" fill-rule="evenodd"/></symbol><symbol id="icon-signout" viewBox="0 0 15 19"><title>signout</title><path d="M5.376 15L12 9.5 5.376 4v3.59H0v3.82h5.376V15zM4 1.542h9.452V17.46H4V19h11V0H4v1.542z" fill="#0F94D7" fill-rule="evenodd"/></symbol><symbol id="icon-small-dot" viewBox="0 0 16 16"><title>small-dot</title><circle cx="8" cy="8" r="3" fill-rule="evenodd"/></symbol><symbol id="icon-split" viewBox="0 0 16 16"><title>split</title><path d="M4.443 7.218l.42-.343C6.415 5.59 7 4.515 7 2h2c0 2.514.584 3.59 2.138 4.875l.42.343C13.293 8.64 14 9.773 14 12h-4l3 3.333L16 12h-4c0-1.526-.393-2.156-1.71-3.235.038.03-.327-.266-.428-.35C8.945 7.655 8.5 7.5 8 6.4c-.5 1.1-.945 1.256-1.862 2.015-.1.084-.466.38-.428.35C4.393 9.845 4 10.475 4 12H2h4l-3 3.333L0 12h2c0-2.227.706-3.36 2.443-4.782z" fill-rule="evenodd"/></symbol><symbol id="icon-status-modified-outer-circle" viewBox="0 0 16 16"><title>status-modified-outer-circle</title><path d="M8 14c3.314 0 6-2.686 6-6s-2.686-6-6-6-6 2.686-6 6 2.686 6 6 6zm0-1c2.76 0 5-2.24 5-5s-2.24-5-5-5-5 2.24-5 5 2.24 5 5 5z" fill-rule="evenodd"/></symbol><symbol id="icon-status" viewBox="0 0 16 16"><title>status</title><circle cx="8" cy="8" r="4" fill-rule="evenodd"/></symbol><symbol id="icon-stopwatch" viewBox="0 0 77 83"><title>stopwatch</title><g fill="none" fill-rule="evenodd"><path d="M10.5 24.8c-1-.9-2.1-1.9-3-2.8l6.2-6.2c.8.9 1.7 1.9 2.6 2.9.8-.6 1.4-1.1 2-1.5 3.9-2.9 8.2-4.9 12.9-6 .7-.2.9-.4.9-1.1-.1-1.7 0-3.4 0-5.2h15.4v6C60.3 14.2 69.4 21.8 74 34.1c3.6 9.6 3 19.2-1.4 28.4-8.9 18.6-31.4 25.9-49.9 16.2-19-9.9-25.9-35.4-12.2-53.9zM40.048 75c15.134 0 27.644-12.107 27.947-27.442.302-16.143-12.712-28.25-27.442-28.552C25.318 18.703 12.203 30.91 12 46.55 11.9 62.49 24.31 75 40.05 75zM14.9 12.4c-.3.5-.4 1.1-.8 1.5-2.9 2.9-5.8 5.8-8.6 8.7-.7.7-1.5.8-2.4.5-1.3-.4-2.1-1.3-2.5-2.5-.3-.9-.2-1.7.5-2.5l8.6-8.6c.6-.6 1.4-.8 2.2-.6 1.5.3 2.8 1.9 3 3.5zm18.8-8.5c-.2-1.4.3-2.6 1.6-3.1 2.9-1.1 5.9-1.1 8.9 0 1.2.4 1.8 1.6 1.7 3.1H33.7z" fill="#A9BCC4"/><circle opacity=".3" cx="39.902" cy="46.902" r="24.902"/></g></symbol><symbol id="icon-switchView" viewBox="0 0 19 18"><title>switchView</title><path d="M9.75 7.595c-.6 0-1.1.5-1.1 1.1 0 .6.5 1.1 1.1 1.1.6 0 1.1-.5 1.1-1.1.1-.5-.4-1.1-1.1-1.1zm0-2.1c-3 0-6.1 3.3-6.1 3.3s3 3.3 6.1 3.3c3 0 6.1-3.3 6.1-3.3s-3-3.3-6.1-3.3zm0 5.6c-1.3 0-2.3-1-2.3-2.3 0-1.3 1-2.3 2.3-2.3 1.3 0 2.3 1 2.3 2.3.1 1.3-1 2.3-2.3 2.3zm-3.5-9.2c1.6-.802 3.4-1.002 5.3-.602l.3-1c-4.9-1.2-9.2 1.4-10.7 5.7-.8 2.302-.8 4.603.2 6.703l.5.8-2.1.6 4.5 3.2.4-4.9v-.6l-1.9 1.4-.3-.8c-.9-1.9-1-4-.3-6 .7-2.002 2.2-3.602 4.1-4.502zm10.9 2.4l2.1-.5-4.5-3.202-.4 5.502 2-1.5.5.9c1 1.9 1.2 4.1.5 6.1s-2 3.702-3.9 4.602c-1.6.8-3.9.8-4.9.7l-.3 1c3.9.8 8.7-1.6 10.2-5.9.8-2.302.5-4.702-.6-6.903l-.7-.8z" fill="#FFF" fill-rule="evenodd"/></symbol><symbol id="icon-task-state" viewBox="0 0 16 16"><title>task-state</title><path d="M8 13.5c3.038 0 5.5-2.462 5.5-5.5S11.038 2.5 8 2.5 2.5 4.962 2.5 8s2.462 5.5 5.5 5.5zm0-2.375c1.726 0 3.125-1.4 3.125-3.125 0-1.726-1.4-3.125-3.125-3.125-1.726 0-3.125 1.4-3.125 3.125 0 1.726 1.4 3.125 3.125 3.125z" fill-rule="evenodd"/></symbol><symbol id="icon-team" viewBox="0 0 16 16"><title>team</title><path d="M4.672 10.448l-.018-.006c-.115-.077-.207-.116-.58 0 .172-.234.064-.546 0-.72-.06-.12.163-.28 0-.72h.58s-.184-.637 0-.72c-.056.105.08-.117 0-.718-.085-.33-.067-.52 0-.72-.108-.566-.235-.775-.58-.72.06-.457-.47-.768-1.165-.72-.265.052-.572.407-.583.72-.33-.34-.402-.36-.58 0 .002-.213.16.27 0 .72.155 0 .155.22 0 .72-.018.6.12.82 0 .72l.58.72c-.103.432.127.598 0 .718-.07.21-.173.504 0 .72-.374-.098-.466-.07-.58 0-.3.115-.657.3-1.165.72-.108-.116-.46-.066-.58 0 .014.54-.006 1.128 0 1.438h2.805c.008-.382.018-.767.018-.982.172-.562.744-.64 1.22-.867.203-.095.414-.198.627-.302zm6.648.003l.026-.008c.115-.077.207-.116.58 0-.172-.234-.064-.546 0-.72.06-.12-.163-.28 0-.72h-.58s.184-.637 0-.72c.056.105-.08-.117 0-.718.085-.33.067-.52 0-.72.108-.566.235-.775.58-.72-.06-.457.47-.768 1.165-.72.265.052.572.407.583.72.33-.34.402-.36.58 0-.002-.213-.16.27 0 .72-.155 0-.155.22 0 .72.018.6-.12.82 0 .72l-.58.72c.103.432-.127.598 0 .718.07.21.173.504 0 .72.374-.098.466-.07.58 0 .3.115.657.3 1.165.72.108-.116.46-.066.58 0-.014.54.006 1.128 0 1.438h-2.805c-.007-.38-.018-.764-.018-.978-.172-.563-.744-.64-1.22-.867-.206-.097-.42-.2-.635-.304zm.33.494c-.484-.23-1.02-.497-1.503-.72l-.413-.127c-.165-.13-.32-.553-.408-.765-.088-.014-.143-.032-.258-.046v-.103H8.89c.23-.117.574-.356.688-.576l.2-1.155.035-.18c.19.034.394-.284.46-.71.068-.424-.03-.793-.216-.824-.046-.008-.094.006-.14.038.03-.378.03-.697.006-.966.005-.05.01-.102.01-.16.006-.22.244-.918.02-1.097-.04-.034-.148-.004-.228.002-.432.032-.892-.482-1.533-.546-.8-.08-1.593.37-1.66.865-.046 0-.1.01-.165.028-.196.057-.386.36-.416.886-.03.58-.004.855.057.987-.06-.03-.11-.046-.158-.038-.188.03-.285.4-.22.825.068.425.273.745.46.714.004-.002.13.728.13.728l.112.61c.112.216.448.448.677.565h-.17l-.16.097c-.088.21-.25.663-.413.79-.138.043-.276.1-.414.14-.482.225-1.02.5-1.503.73-.44.21-.968.283-1.127.805 0 .355-.03 1.206-.022 1.655h9.6c.007-.45-.023-1.297-.023-1.65-.16-.524-.686-.596-1.127-.806z" fill-rule="evenodd"/></symbol><symbol id="icon-templates" viewBox="0 0 24 24"><title>templates</title><path d="M2.995 1C2.445 1 2 1.44 2 2.002v19.996C2 22.55 2.45 23 2.995 23h17.01c.55 0 .995-.44.995-1.002V2.002C21 1.45 20.55 1 20.005 1H2.995zm3.003 4C5.448 5 5 5.444 5 6c0 .552.446 1 .998 1h7.004c.55 0 .998-.444.998-1 0-.552-.446-1-.998-1H5.998zM6 9c-.552 0-1 .444-1 1 0 .552.448 1 1 1h11.027c.553 0 1-.444 1-1 0-.552-.447-1-1-1H6zm0 4c-.552 0-1 .444-1 1 0 .552.448 1 1 1h11.027c.553 0 1-.444 1-1 0-.552-.447-1-1-1H6zm0 4c-.552 0-1 .444-1 1 0 .552.448 1 1 1h11.027c.553 0 1-.444 1-1 0-.552-.447-1-1-1H6z" fill-rule="evenodd"/></symbol><symbol id="icon-tools" viewBox="0 0 24 24"><title>tools</title><path d="M3.435 2.003l2.37 1.71v.66l5.003 5.135-1.185 1.185-5.267-5.135h-.658l-1.58-2.24 1.317-1.315zm11.85 10.4l6.32 6.322c.527.526.527 1.71 0 2.238l-.527.527c-.526.526-1.843.395-2.37-.132L12.652 15.3l2.633-2.896zm.395-7.24l2.897 3.028 3.16-2.896s.263 3.555-1.45 4.872c-1.71 1.317-1.58 1.185-3.16.922-1.58-.264-2.105.13-2.632.658-.527.527-8.56 9.085-9.085 9.612-.527.527-1.45.79-2.107.132-.658-.66 0 0-.79-.79s-.57-1.67 0-2.24c.658-.657 9.875-9.347 9.875-9.347s.79-.395.527-2.107c-.263-1.712-1.185-1.975 1.053-3.555 2.24-1.58 4.74-1.447 4.74-1.447l-3.028 3.16z" fill-rule="evenodd"/></symbol><symbol id="icon-total-tickets" viewBox="0 0 48 83"><title>total-tickets</title><g fill="none" fill-rule="evenodd"><path d="M37.5 83H0l10-8h37.5l-10 8z" fill="#DDE5E8"/><path d="M37.5 80H0l10-7h37.5l-10 7z" fill="#FFF"/><path d="M37.5 78H0l10-8h37.5l-10 8z" fill="#DDE5E8"/><path d="M37.5 75H0l10-7h37.5l-10 7z" fill="#FFF"/><path d="M37.5 73H0l10-8h37.5l-10 8z" fill="#DDE5E8"/><path d="M37.5 70H0l10-7h37.5l-10 7z" fill="#FFF"/><path d="M37.5 68H0l10-8h37.5l-10 8z" fill="#DDE5E8"/><path d="M37.5 65H0l10-7h37.5l-10 7z" fill="#FFF"/><path d="M37.5 63H0l10-8h37.5l-10 8z" fill="#DDE5E8"/><path d="M37.5 60H0l10-7h37.5l-10 7z" fill="#FFF"/><path d="M37.5 58H0l10-8h37.5l-10 8z" fill="#DDE5E8"/><path d="M37.5 55H0l10-7h37.5l-10 7z" fill="#FFF"/><path d="M37.5 53H0l10-8h37.5l-10 8z" fill="#DDE5E8"/><path d="M37.5 50H0l10-7h37.5l-10 7z" fill="#FFF"/><path d="M37.5 48H0l10-8h37.5l-10 8z" fill="#DDE5E8"/><path d="M37.5 45H0l10-7h37.5l-10 7z" fill="#FFF"/><path d="M37.5 43H0l10-8h37.5l-10 8z" fill="#DDE5E8"/><path d="M37.5 40H0l10-7h37.5l-10 7z" fill="#FFF"/><path d="M37.5 38H0l10-8h37.5l-10 8z" fill="#DDE5E8"/><path d="M37.5 35H0l10-7h37.5l-10 7z" fill="#FFF"/><path d="M37.5 33H0l10-8h37.5l-10 8z" fill="#DDE5E8"/><path d="M37.5 30H0l10-7h37.5l-10 7z" fill="#FFF"/><path d="M37.5 28H0l10-8h37.5l-10 8z" fill="#DDE5E8"/><path d="M37.5 25H0l10-7h37.5l-10 7z" fill="#FFF"/><path d="M37.5 23H0l10-8h37.5l-10 8z" fill="#DDE5E8"/><path d="M37.5 20H0l10-7h37.5l-10 7z" fill="#FFF"/><path d="M37.5 18H0l10-8h37.5l-10 8z" fill="#DDE5E8"/><path d="M37.5 15H0l10-7h37.5l-10 7z" fill="#FFF"/><path d="M37.5 13H0l10-8h37.5l-10 8z" fill="#DDE5E8"/><path d="M37.5 10H0l10-7h37.5l-10 7z" fill="#FFF"/><path d="M37.5 8H0l10-8h37.5l-10 8z" fill="#DDE5E8"/></g></symbol><symbol id="icon-trash" viewBox="0 0 16 16"><title>trash</title><path d="M3.5 3L3 5h10l-.5-2H10l-.5-1h-3L6 3H3.5zM4 6h8l-1 8H5L4 6z" fill-rule="evenodd"/></symbol><symbol id="icon-twitter-button" viewBox="0 0 29 22"><title>twitter-button</title><path d="M24.172 4.163c1.017-.625 1.798-1.615 2.165-2.794-.95.578-2.005.998-3.127 1.224C22.312 1.614 21.032 1 19.616 1c-2.72 0-4.924 2.26-4.924 5.05 0 .395.044.78.128 1.15-4.092-.21-7.72-2.22-10.15-5.276-.423.746-.666 1.613-.666 2.538 0 1.752.87 3.298 2.19 4.203-.807-.026-1.566-.253-2.23-.632v.064c0 2.446 1.697 4.487 3.95 4.95-.413.116-.848.178-1.298.178-.317 0-.625-.032-.926-.09.627 2.005 2.445 3.465 4.6 3.506-1.685 1.355-3.808 2.162-6.115 2.162-.398 0-.79-.024-1.175-.07C5.18 20.163 7.767 21 10.548 21c9.057 0 14.01-7.693 14.01-14.366 0-.22-.005-.436-.015-.653.962-.71 1.797-1.6 2.457-2.613-.883.402-1.832.673-2.828.796z" fill="url(#a)" fill-rule="evenodd"/></symbol><symbol id="icon-twitter" viewBox="0 0 17 17"><title>twitter</title><path d="M14.176 4.983c.608-.396 1.115-.99 1.42-1.685-.61.396-1.32.595-2.028.694-.61-.595-1.42-.992-2.23-.992-1.723 0-3.142 1.388-3.142 3.074 0 .2 0 .496.1.695-2.634-.1-4.864-1.39-6.384-3.175-.304.496-.405.992-.405 1.488 0 1.09.507 1.983 1.42 2.578-.508 0-1.015-.197-1.42-.396 0 1.488 1.115 2.678 2.534 2.976-.304.1-.506.1-.81.1-.203 0-.406 0-.608-.1.405 1.19 1.52 2.082 2.94 2.082-1.116.794-2.434 1.29-3.853 1.29H1C2.42 14.504 4.04 15 5.764 15c5.777 0 8.817-4.66 8.817-8.628v-.397c.508-.396 1.015-.892 1.42-1.487-.608.198-1.115.396-1.824.495z" fill-rule="evenodd"/></symbol><symbol id="icon-user" viewBox="0 0 16 16"><title>user</title><path d="M13.248 11.906c-.707-.287-1.49-.62-2.197-.9-.2-.05-.4-.104-.603-.156-.24-.16-.467-.69-.596-.953-.127-.018-.208-.04-.375-.058v-.13h-.26c.334-.146.84-.444 1.005-.718l.294-1.44.05-.225c.276.043.576-.354.673-.884.097-.53-.045-.99-.317-1.03-.068-.008-.137.01-.204.05.044-.473.045-.87.008-1.206.008-.06.013-.127.015-.198.007-.275.355-1.147.03-1.37-.062-.043-.218-.006-.336.002-.63.04-1.303-.6-2.24-.68-1.167-.1-2.327.46-2.426 1.08-.067 0-.146.01-.24.034-.287.072-.564.448-.607 1.105-.047.724-.007 1.068.08 1.233-.085-.038-.158-.058-.23-.048-.272.04-.414.5-.317 1.03.097.53.397.93.67.89.006 0 .19.91.19.91l.164.76c.163.27.654.56.99.706H6.22l-.235.12c-.128.265-.363.828-.604.988-.2.053-.402.122-.603.175-.705.28-1.49.62-2.196.91-.643.26-1.314.35-1.547 1.003 0 .442-.043 1.504-.03 2.063h13.923c.012-.56-.03-1.618-.03-2.06-.234-.652-1.004-.74-1.648-1.004z" fill-rule="evenodd"/></symbol><symbol id="icon-zoom-in" viewBox="0 0 20 20"><title>zoom-in</title><g fill-rule="evenodd"><path d="M7 9H5V7h2V5h2v2h2v2H9v2H7V9z"/><path d="M7.893 13.843c-3.258-.02-5.892-2.69-5.872-5.95.025-3.235 2.67-5.87 5.91-5.87h.038c1.576.01 3.055.635 4.16 1.76 1.11 1.12 1.715 2.61 1.705 4.19-.013 1.568-.63 3.046-1.744 4.153-1.113 1.107-2.593 1.717-4.158 1.717h-.04M7.978 0h-.05C3.575 0 .03 3.517 0 7.882c-.024 4.382 3.497 7.956 7.876 7.984h.056c1.452 0 2.817-.392 3.988-1.08l4.817 4.823.123.116c.183.183.42.274.66.274.237 0 .476-.09.657-.274l1.552-1.55c.362-.364.362-.956 0-1.32l-.122-.123-4.824-4.825c.673-1.155 1.06-2.492 1.07-3.924C15.883 3.602 12.355.03 7.976 0"/></g></symbol><symbol id="icon-zoom-out" viewBox="0 0 20 20"><title>zoom-out</title><g fill-rule="evenodd"><path d="M5 7v2h6V7H5z"/><path d="M7.893 13.843c-3.258-.02-5.892-2.69-5.872-5.95.025-3.235 2.67-5.87 5.91-5.87h.038c1.576.01 3.055.635 4.16 1.76 1.11 1.12 1.715 2.61 1.705 4.19-.013 1.568-.63 3.046-1.744 4.153-1.113 1.107-2.593 1.717-4.158 1.717h-.04M7.978 0h-.05C3.575 0 .03 3.517 0 7.882c-.024 4.382 3.497 7.956 7.876 7.984h.056c1.452 0 2.817-.392 3.988-1.08l4.817 4.823.123.116c.183.183.42.274.66.274.237 0 .476-.09.657-.274l1.552-1.55c.362-.364.362-.956 0-1.32l-.122-.123-4.824-4.825c.673-1.155 1.06-2.492 1.07-3.924C15.883 3.602 12.355.03 7.976 0"/></g></symbol></svg>