<svg xmlns="http://www.w3.org/2000/svg" xmlns:xlink="http://www.w3.org/1999/xlink" width="228" height="64" viewBox="0 0 228 64">
  <defs>
    <style>
      .cls-1 {
        fill: #1f455e;
      }

      .cls-1, .cls-2 {
        fill-rule: evenodd;
      }

      .cls-2 {
        fill: url(#linear-gradient);
      }
    </style>
    <linearGradient id="linear-gradient" x1="73.813" y1="64.031" x2="73.813" y2="6.313" gradientUnits="userSpaceOnUse">
      <stop offset="0" stop-color="#e8523d"/>
      <stop offset="1" stop-color="#f27242"/>
    </linearGradient>
  </defs>
  <path id="via1" class="cls-1" d="M215.832,39.61c-0.027-2.281,1.945-2.842,4.212-2.842s4.241,0.573,4.213,2.842v2.673h-8.425V39.61h0Zm12.174-.254c0.036-4.516-3.509-5.812-7.962-5.812-4.458.016-8.157,1.3-8.129,5.812v10.1c-0.055,4.517,3.558,5.795,8.045,5.812,4.489-.017,8.1-1.293,8.046-5.812V48.731a0.7,0.7,0,0,0-.8-0.807h-2.148a0.687,0.687,0,0,0-.8.807V49.2c0.057,2.357-1.879,2.841-4.213,2.841s-4.268-.481-4.212-2.841v-3.9H227.29a0.643,0.643,0,0,0,.716-0.764V39.355h0Zm-32.73.594c-0.029-1.906,1.154-2.739,3.117-2.757a9.509,9.509,0,0,1,5.729,2.206V49.451a9.79,9.79,0,0,1-5.729,2.164c-1.953-.018-3.146-0.846-3.117-2.758V39.949h0Zm9.014,14.126a0.716,0.716,0,0,0,.8.849h2.232a0.7,0.7,0,0,0,.8-0.849V26.121a0.693,0.693,0,0,0-.8-0.849H204.88a0.671,0.671,0,0,0-.758.849v9.841a11.052,11.052,0,0,0-6.909-2.418c-4.037.021-5.94,2.207-5.94,5.769V49.493c0,3.645,1.984,5.748,5.94,5.77a11.181,11.181,0,0,0,6.992-2.46l0.085,1.272h0Zm-20.809-4.963c0.027,2.312-2.126,2.842-4.423,2.842s-4.451-.53-4.423-2.842V39.694c-0.028-2.309,2.122-2.842,4.423-2.842s4.45,0.533,4.423,2.842v9.417h0Zm-12.848.34a5.083,5.083,0,0,0,3.6,5.077,16.161,16.161,0,0,0,9.647,0,5.083,5.083,0,0,0,3.6-5.077v-10.1a5.083,5.083,0,0,0-3.6-5.076,16.152,16.152,0,0,0-9.647,0,5.082,5.082,0,0,0-3.6,5.076v10.1h0ZM154.689,34.279a5,5,0,0,0-3.349,5.076v10.1a4.969,4.969,0,0,0,3.321,5.077,15.558,15.558,0,0,0,9.464,0,5,5,0,0,0,3.349-5.077V48.306a0.673,0.673,0,0,0-.759-0.806h-2.274a0.687,0.687,0,0,0-.8.806v0.848c0.028,2.324-1.85,2.8-4.17,2.8-2.291,0-4.156-.5-4.128-2.8v-9.5c-0.028-2.309,1.833-2.8,4.128-2.8,2.313,0,4.2.478,4.17,2.8v0.467a0.675,0.675,0,0,0,.8.805h2.274a0.662,0.662,0,0,0,.759-0.805V39.355a4.974,4.974,0,0,0-3.321-5.076A15.545,15.545,0,0,0,154.689,34.279ZM30.505,21.008c1.7-1.527,1.253-4.219-.984-6.1-2.213-1.786-5.426-2.2-7.225-.866-1.943,1.444-1.686,4.258.632,6.239C25.229,22.323,28.676,22.638,30.505,21.008ZM27.547,4.3a14.915,14.915,0,0,0,5.311,1.824c0.466,0.057.263-.155-0.322-0.473l0-.014a54.737,54.737,0,0,0-6.382-2.654l-0.007,0L25.882,2.9C24.9,2.714,25.56,3.347,27.547,4.3Zm0.18,3.337c1.331-.615.692-1.991-1.355-3.131-2.006-1.013-4.726-1.561-6.146-1.18-1.577.523-1.244,1.983,0.866,3.232C23.207,7.917,26.228,8.381,27.727,7.636Zm-4-5.427c-0.823-.241-1.665-0.384-2.5-0.586l2.49,0.591Zm-11.93-.335a11.712,11.712,0,0,0,6.428.551c1.5-.3,1.024-0.982-0.839-1.517A27.035,27.035,0,0,0,11.51.32C9.9,0.544,9.991,1.244,11.794,1.873Zm6.919-.864C18.43,0.949,18.147.892,17.934,0.85c1.108,0.2,2.2.507,3.293,0.773C20.371,1.418,19.48,1.2,18.713,1.01Zm18.119,9.15c1.993,1.551,4.2,2.455,4.862,2.122,0.541-.16-0.59-1.324-2.427-2.663A15.681,15.681,0,0,0,34.8,7.281C33.943,7.375,34.823,8.7,36.831,10.159ZM62.548,45.1c-0.2-.793-0.42-1.717-0.629-2.6,0.272,1.126.586,2.245,0.787,3.384C62.666,45.673,62.608,45.388,62.548,45.1Zm-1.2-5.045,0,0.005C61.5,40.7,61.7,41.58,61.919,42.5,61.723,41.689,61.585,40.864,61.351,40.058Zm-0.692-2.173c-0.032-.106-0.049-0.16-0.084-0.265l0-.007a55.664,55.664,0,0,0-2.643-6.424l-0.484-.326a15.165,15.165,0,0,0,1.818,5.347C60.219,38.21,60.847,38.878,60.659,37.885Zm-0.412,5.7c0.377-1.431-.171-4.169-1.179-6.188-1.134-2.059-2.5-2.7-3.111-1.361-0.738,1.51-.273,4.552,1.079,6.681C58.279,44.835,59.73,45.169,60.247,43.582ZM56.3,28.906a15.887,15.887,0,0,0-2.326-4.491c-1.332-1.849-2.489-2.988-2.647-2.441-0.33.671,0.57,2.888,2.113,4.893C54.891,28.888,56.21,29.773,56.3,28.906ZM42.675,33.25c-1.617,1.844-1.3,5.315.734,7.63,1.97,2.332,4.766,2.588,6.2.629,1.323-1.812.909-5.048-.868-7.274C46.863,31.983,44.189,31.535,42.675,33.25ZM57.8,53.691a8.338,8.338,0,0,0-.1,7.2c0.925,1.848,2.389,1.626,3.279-.356a10.672,10.672,0,0,0,.108-6.713C60.259,51.907,58.785,51.759,57.8,53.691Zm5.712-.577c0,0.18-.015.5-0.031,0.956a46.664,46.664,0,0,0-.12,5.843l-0.008.782A56.508,56.508,0,0,0,63.515,53.114ZM61.144,45.6a11.933,11.933,0,0,0,.554,6.472c0.627,1.815,1.321,1.9,1.543.285a27.6,27.6,0,0,0-.591-5.913C62.117,44.567,61.443,44.09,61.144,45.6Zm-26.8-3.063a6.358,6.358,0,0,0,.248,8.45,4.815,4.815,0,0,0,7.426.127,6.531,6.531,0,0,0-.322-8.182C39.612,40.582,36.335,40.379,34.344,42.537ZM10.057,2.485A10.454,10.454,0,0,0,3.39,2.6C1.423,3.5,1.2,4.974,3.04,5.9A8.172,8.172,0,0,0,10.19,5.8C12.107,4.806,11.959,3.321,10.057,2.485ZM20.892,22.006a6.416,6.416,0,0,0-8.126-.315,4.894,4.894,0,0,0,.135,7.478,6.25,6.25,0,0,0,8.392.239C23.434,27.4,23.228,24.1,20.892,22.006ZM9.808,0.077c0.453-.017.77-0.028,0.949-0.032A55.4,55.4,0,0,0,3.229.213L4.005,0.2A45.725,45.725,0,0,0,9.808.077Zm14.386,53.2a6.389,6.389,0,0,0-.024,8.81,5.647,5.647,0,0,0,8.251-.145,6.459,6.459,0,0,0,.037-8.624A5.623,5.623,0,0,0,24.194,53.273ZM109.36,10.116a3.062,3.062,0,1,0,3.04,3.062A3.052,3.052,0,0,0,109.36,10.116Zm22.433,39.011a3.062,3.062,0,1,0,3.04,3.062A3.051,3.051,0,0,0,131.793,49.126Z"/>
  <path id="via2" class="cls-2" d="M1.813,53.255a6.355,6.355,0,0,0,.011,8.917,6.252,6.252,0,0,0,8.863.008,6.349,6.349,0,0,0-.007-8.93A6.242,6.242,0,0,0,1.813,53.255ZM20.045,12.322c1.839-1.272,1.536-3.428-.664-4.866a7.731,7.731,0,0,0-7.148-.471c-1.995,1.188-1.908,3.4.209,4.921C14.668,13.544,18.108,13.72,20.045,12.322Zm3.619,19.347a5.26,5.26,0,0,0-1.539,4.315A4.245,4.245,0,0,1,17.757,40.3a5.991,5.991,0,0,0-4.695,1.716,6.214,6.214,0,0,0,.037,8.8,6.073,6.073,0,0,0,10.433-4.7,4.247,4.247,0,0,1,4.282-4.4A5.183,5.183,0,0,0,32.1,40.152a5.829,5.829,0,0,0-.475-8.014A5.73,5.73,0,0,0,23.663,31.669ZM56.146,44.438c-1.431-2.215-3.572-2.517-4.833-.664-1.386,1.953-1.207,5.417.423,7.657,1.514,2.13,3.709,2.215,4.887.2A7.881,7.881,0,0,0,56.146,44.438Zm-1.607-10.49c0.65-1.352-.081-4.013-1.592-6.076-0.063-.085-0.1-0.124-0.165-0.208-2.351-3.052-3.641-6.429-3.066-7.485l0.051-.044c0.224-.483-0.928-2.127-2.5-3.769C45.633,14.785,44,13.626,43.52,13.852l-0.043.051c-1.049.58-4.4-.715-7.436-3.079-0.083-.065-0.123-0.1-0.207-0.166-2.049-1.52-4.693-2.252-6.035-1.6-1.424.823-.883,2.942,1.3,4.675,2.18,1.818,5.1,2.426,6.387,1.387,0.033-.045.105-0.06,0.137-0.1,4.094-2.714,13.756,6.815,10.992,11.057-0.044.032-.059,0.106-0.1,0.138-1.029,1.3-.423,4.238,1.384,6.431C51.618,34.841,53.723,35.384,54.539,33.948Zm-15-16.989a2.521,2.521,0,0,0-.428,2.718c0.361,1.718-.84,2.905-2.782,2.577a4.086,4.086,0,0,0-3.606.808c-1.788,1.681-1.445,4.927.8,7.159,3.527,3.548,8.822,2.06,7.909-2.83-0.328-1.956.849-3.167,2.556-2.805a2.476,2.476,0,0,0,2.7-.434C47.6,23,46.8,20.612,44.952,18.7,43.05,16.838,40.675,16.035,39.534,16.959Zm45.048,38.3H89.92L101.1,24.928c0.406-1.274,1.116-1.067,2.366-1.116h3.475V50.893c0.006,2.644,1.558,4.361,4.785,4.361h6.294c2.465,0.024,3.388-.552,4.18-2.941,5.2-14.771,9.1-25.3,9.166-26.979h0.1c0.981,4.245.46,2.322,9.166,26.979,0.817,2.321,1.646,2.967,4.179,2.941h2.821V50.893c-0.44-.131-1.863.467-2.368-1.116L134.085,19.451h-5.338l-11.18,30.326c-0.541,1.6-1.869.966-2.367,1.116h-3.474V23.812c-0.007-2.643-1.559-4.36-4.783-4.361h-6.3a6.679,6.679,0,0,0-2.014.228c-1.225.4-1.734,1.49-2.165,2.713-8.1,23.581,2.034-6.679-9.166,26.98H87.2c-8.585-26.237-.82-2.688-9.165-26.98-0.77-2.323-1.644-2.967-4.18-2.941h-2.82v4.361h0.7C73.619,23.776,72.3,22.17,84.582,55.255Z"/>
</svg>
