<svg width="16" height="16" viewBox="0 0 16 16" xmlns="http://www.w3.org/2000/svg">
<path fill-rule="evenodd" clip-rule="evenodd" d="M1 8C1 7.72386 1.22386 7.5 1.5 7.5H14.5C14.7761 7.5 15 7.72386 15 8C15 8.27614 14.7761 8.5 14.5 8.5H1.5C1.22386 8.5 1 8.27614 1 8Z" />
<path fill-rule="evenodd" clip-rule="evenodd" d="M8 0C8.27614 -1.20706e-08 8.5 0.223858 8.5 0.5V4.29289L9.64645 3.14645C9.84171 2.95118 10.1583 2.95118 10.3536 3.14645C10.5488 3.34171 10.5488 3.65829 10.3536 3.85355L8.35355 5.85355C8.15829 6.04882 7.84171 6.04882 7.64645 5.85355L5.64645 3.85355C5.45118 3.65829 5.45118 3.34171 5.64645 3.14645C5.84171 2.95118 6.15829 2.95118 6.35355 3.14645L7.5 4.29289V0.5C7.5 0.223858 7.72386 1.20706e-08 8 0ZM7.5 11.7071L6.35355 12.8536C6.15829 13.0488 5.84171 13.0488 5.64645 12.8536C5.45119 12.6583 5.45119 12.3417 5.64645 12.1464L7.64645 10.1464C7.84171 9.95118 8.15829 9.95118 8.35355 10.1464L10.3536 12.1464C10.5488 12.3417 10.5488 12.6583 10.3536 12.8536C10.1583 13.0488 9.84171 13.0488 9.64645 12.8536L8.5 11.7071V15.5C8.5 15.7761 8.27614 16 8 16C7.72386 16 7.5 15.7761 7.5 15.5V11.7071Z" />
</svg>
