<svg width="16" height="16" viewBox="0 0 16 16" xmlns="http://www.w3.org/2000/svg">
<path fill-rule="evenodd" clip-rule="evenodd" d="M12.5 15C12.2239 15 12 14.7761 12 14.5V1.5C12 1.22386 12.2239 1 12.5 1C12.7761 1 13 1.22386 13 1.5V14.5C13 14.7761 12.7761 15 12.5 15Z" />
<path fill-rule="evenodd" clip-rule="evenodd" d="M10 8C10 8.27614 9.77614 8.5 9.5 8.5H3.70711L5.85355 10.6464C6.04882 10.8417 6.04882 11.1583 5.85355 11.3536C5.65829 11.5488 5.34171 11.5488 5.14645 11.3536L2.14645 8.35355C1.95118 8.15829 1.95118 7.84171 2.14645 7.64645L5.14645 4.64645C5.34171 4.45118 5.65829 4.45118 5.85355 4.64645C6.04882 4.84171 6.04882 5.15829 5.85355 5.35355L3.70711 7.5H9.5C9.77614 7.5 10 7.72386 10 8Z" />
</svg>
