<svg width="16" height="16" viewBox="0 0 16 16" xmlns="http://www.w3.org/2000/svg">
<path d="M11.5338 7H15.4663C15.6782 7 15.794 7.24721 15.6583 7.41005L13.6921 9.76953C13.5921 9.88947 13.4079 9.88947 13.308 9.76953L11.3417 7.41005C11.2061 7.24721 11.3218 7 11.5338 7Z" />
<path d="M0.533803 9H4.46628C4.67824 9 4.79403 8.75279 4.65834 8.58995L2.6921 6.23047C2.59215 6.11053 2.40794 6.11053 2.30799 6.23047L0.341748 8.58995C0.206054 8.75279 0.321844 9 0.533803 9Z" />
<path fill-rule="evenodd" clip-rule="evenodd" d="M8.00004 3C6.44755 3 5.06061 3.70697 4.14273 4.81839C3.96689 5.03131 3.65174 5.06137 3.43882 4.88552C3.2259 4.70968 3.19584 4.39453 3.37168 4.18161C4.47138 2.85003 6.13666 2 8.00004 2C10.9417 2 13.3881 4.1165 13.9011 6.90967C13.9066 6.9397 13.9119 6.96981 13.917 7H12.9001C12.4371 4.71778 10.4187 3 8.00004 3ZM3.09996 9C3.56297 11.2822 5.58142 13 8.00004 13C9.55254 13 10.9395 12.293 11.8574 11.1816C12.0332 10.9687 12.3484 10.9386 12.5613 11.1145C12.7742 11.2903 12.8042 11.6055 12.6284 11.8184C11.5287 13.15 9.86343 14 8.00004 14C5.05834 14 2.61202 11.8835 2.09896 9.09033C2.09344 9.0603 2.08815 9.03019 2.08308 9H3.09996Z" />
</svg>
