<svg width="16" height="16" viewBox="0 0 16 16" xmlns="http://www.w3.org/2000/svg">
<path fill-rule="evenodd" clip-rule="evenodd" d="M1 8C1 7.72386 1.22386 7.5 1.5 7.5H14.5C14.7761 7.5 15 7.72386 15 8C15 8.27614 14.7761 8.5 14.5 8.5H1.5C1.22386 8.5 1 8.27614 1 8Z" />
<path fill-rule="evenodd" clip-rule="evenodd" d="M7.64645 0.146447C7.84171 -0.0488155 8.15829 -0.0488155 8.35355 0.146447L10.3536 2.14645C10.5488 2.34171 10.5488 2.65829 10.3536 2.85355C10.1583 3.04882 9.84171 3.04882 9.64645 2.85355L8.5 1.70711L8.5 5.5C8.5 5.77614 8.27614 6 8 6C7.72386 6 7.5 5.77614 7.5 5.5L7.5 1.70711L6.35355 2.85355C6.15829 3.04882 5.84171 3.04882 5.64645 2.85355C5.45118 2.65829 5.45118 2.34171 5.64645 2.14645L7.64645 0.146447ZM8 10C8.27614 10 8.5 10.2239 8.5 10.5V14.2929L9.64645 13.1464C9.84171 12.9512 10.1583 12.9512 10.3536 13.1464C10.5488 13.3417 10.5488 13.6583 10.3536 13.8536L8.35355 15.8536C8.15829 16.0488 7.84171 16.0488 7.64645 15.8536L5.64645 13.8536C5.45119 13.6583 5.45119 13.3417 5.64645 13.1464C5.84171 12.9512 6.15829 12.9512 6.35355 13.1464L7.5 14.2929V10.5C7.5 10.2239 7.72386 10 8 10Z" />
</svg>
