<svg width="16" height="16" viewBox="0 0 16 16"  xmlns="http://www.w3.org/2000/svg">
<path d="M13.1064 7.22168C13.1064 4.25488 10.8574 2.19043 7.62402 2.19043C4.27441 2.19043 1.97754 4.50781 1.97754 7.8916C1.97754 11.3848 4.21289 13.5996 7.74023 13.5996C8.60156 13.5996 9.42871 13.4766 10.0439 13.2646V12.4033C9.61328 12.6016 8.69043 12.7314 7.75391 12.7314C4.82812 12.7314 2.94141 10.8516 2.94141 7.93262C2.94141 5.08887 4.8623 3.05176 7.53516 3.05176C10.2695 3.05176 12.1426 4.74023 12.1426 7.20801C12.1426 8.88965 11.5889 9.97656 10.7275 9.97656C10.2354 9.97656 9.95508 9.69629 9.95508 9.21777V5.20508H8.92285V6.03906H8.81348C8.54688 5.44434 7.93164 5.0752 7.21387 5.0752C5.8125 5.0752 4.83496 6.2373 4.83496 7.89844C4.83496 9.63477 5.79199 10.8037 7.21387 10.8037C8.01367 10.8037 8.62891 10.4141 8.92285 9.7168H9.03223C9.11426 10.3867 9.73633 10.8652 10.5361 10.8652C12.1084 10.8652 13.1064 9.4502 13.1064 7.22168ZM5.92871 7.92578C5.92871 6.72949 6.46875 6.01855 7.38477 6.01855C8.31445 6.01855 8.90918 6.75684 8.90918 7.92578C8.90918 9.09473 8.30762 9.83984 7.37109 9.83984C6.47559 9.83984 5.92871 9.11523 5.92871 7.92578Z"/>
</svg>
