<svg width="16" height="16" viewBox="0 0 16 16" xmlns="http://www.w3.org/2000/svg">
<path d="M13.6829 1C14.7875 1 15.6829 1.89543 15.6829 3V13C15.6829 14.1046 14.7875 15 13.6829 15H6.60279C6.01894 15 5.46424 14.7449 5.08428 14.3016L0.240744 8.65079C-0.0802479 8.2763 -0.0802479 7.7237 0.240744 7.34921L5.08428 1.69842C5.46424 1.25513 6.01894 1 6.60279 1H13.6829ZM6.60279 2C6.31087 2 6.03352 2.12756 5.84354 2.34921L1 8L5.84354 13.6508C6.03352 13.8724 6.31087 14 6.60279 14H13.6829C14.2352 14 14.6829 13.5523 14.6829 13V3C14.6829 2.44772 14.2352 2 13.6829 2H6.60279Z" />
<path d="M6.14645 5.14645C5.95118 5.34171 5.95118 5.65829 6.14645 5.85355L8.29289 8L6.14645 10.1464C5.95118 10.3417 5.95118 10.6583 6.14645 10.8536C6.34171 11.0488 6.65829 11.0488 6.85355 10.8536L9 8.70711L11.1464 10.8536C11.3417 11.0488 11.6583 11.0488 11.8536 10.8536C12.0488 10.6583 12.0488 10.3417 11.8536 10.1464L9.70711 8L11.8536 5.85355C12.0488 5.65829 12.0488 5.34171 11.8536 5.14645C11.6583 4.95118 11.3417 4.95118 11.1464 5.14645L9 7.29289L6.85355 5.14645C6.65829 4.95118 6.34171 4.95118 6.14645 5.14645Z" />
</svg>
