<svg width="16" height="16" viewBox="0 0 16 16" xmlns="http://www.w3.org/2000/svg">
<path fill-rule="evenodd" clip-rule="evenodd" d="M8.63636 3.5C8.63636 3.22386 8.41251 3 8.13636 3H1.5C0.671572 3 0 3.67157 0 4.5V14.5C0 15.3284 0.671573 16 1.5 16H11.5C12.3284 16 13 15.3284 13 14.5V7.86364C13 7.58749 12.7761 7.36364 12.5 7.36364C12.2239 7.36364 12 7.58749 12 7.86364V14.5C12 14.7761 11.7761 15 11.5 15H1.5C1.22386 15 1 14.7761 1 14.5V4.5C1 4.22386 1.22386 4 1.5 4H8.13636C8.41251 4 8.63636 3.77614 8.63636 3.5Z" />
<path fill-rule="evenodd" clip-rule="evenodd" d="M16 0.5C16 0.223858 15.7761 0 15.5 0H10.5C10.2239 0 10 0.223858 10 0.5C10 0.776142 10.2239 1 10.5 1H14.2929L6.14645 9.14645C5.95118 9.34171 5.95118 9.65829 6.14645 9.85355C6.34171 10.0488 6.65829 10.0488 6.85355 9.85355L15 1.70711V5.5C15 5.77614 15.2239 6 15.5 6C15.7761 6 16 5.77614 16 5.5V0.5Z" />
</svg>
