<svg width="16" height="16" viewBox="0 0 16 16" xmlns="http://www.w3.org/2000/svg">
<path d="M8 3C8.27614 3 8.5 3.22386 8.5 3.5V5.5C8.5 5.77614 8.27614 6 8 6C7.72386 6 7.5 5.77614 7.5 5.5V3.5C7.5 3.22386 7.72386 3 8 3Z" />
<path d="M16 11C16 11.2761 15.7761 11.5 15.5 11.5H13.5C13.2239 11.5 13 11.2761 13 11C13 10.7239 13.2239 10.5 13.5 10.5H15.5C15.7761 10.5 16 10.7239 16 11Z" />
<path d="M2.5 11.5C2.77614 11.5 3 11.2761 3 11C3 10.7239 2.77614 10.5 2.5 10.5H0.5C0.223858 10.5 0 10.7239 0 11C0 11.2761 0.223858 11.5 0.5 11.5H2.5Z" />
<path d="M13.6569 5.34315C13.8521 5.53841 13.8521 5.85499 13.6569 6.05025L12.2426 7.46447C12.0474 7.65973 11.7308 7.65973 11.5355 7.46447C11.3403 7.2692 11.3403 6.95262 11.5355 6.75736L12.9497 5.34315C13.145 5.14788 13.4616 5.14788 13.6569 5.34315Z" />
<path d="M3.75736 7.46447C3.95262 7.65973 4.26921 7.65973 4.46447 7.46447C4.65973 7.2692 4.65973 6.95262 4.46447 6.75736L3.05025 5.34314C2.85499 5.14788 2.53841 5.14788 2.34315 5.34314C2.14789 5.53841 2.14789 5.85499 2.34315 6.05025L3.75736 7.46447Z" />
<path d="M8 7C5.79086 7 4 8.79086 4 11C4 11.2761 4.22386 11.5 4.5 11.5H11.5C11.7761 11.5 12 11.2761 12 11C12 8.79086 10.2091 7 8 7ZM8 8C9.4865 8 10.7205 9.08114 10.9585 10.5H5.04148C5.27952 9.08114 6.5135 8 8 8Z" />
</svg>
