<svg width="16" height="16" viewBox="0 0 16 16" xmlns="http://www.w3.org/2000/svg">
<path fill-rule="evenodd" clip-rule="evenodd" d="M13.8789 10.414C12.9082 9.77094 11.5875 9.877 10.7322 10.7322C9.877 11.5875 9.77094 12.9082 10.414 13.8789L13.8789 10.414ZM14.586 11.1211L11.1211 14.586C12.0918 15.2291 13.4125 15.123 14.2678 14.2678C15.123 13.4125 15.2291 12.0918 14.586 11.1211ZM10.0251 10.0251C11.392 8.65829 13.608 8.65829 14.9749 10.0251C16.3417 11.392 16.3417 13.608 14.9749 14.9749C13.608 16.3417 11.392 16.3417 10.0251 14.9749C8.65829 13.608 8.65829 11.392 10.0251 10.0251Z" />
<path d="M3 11H2V12H3V11Z" />
<path d="M4 11H5V12H4V11Z" />
<path d="M3 13H2V14H3V13Z" />
<path d="M4 13H5V14H4V13Z" />
<path fill-rule="evenodd" clip-rule="evenodd" d="M15 0.500001C15 0.326712 14.9103 0.165778 14.7629 0.0746751C14.6155 -0.0164282 14.4314 -0.0247102 14.2764 0.0527869L6.27639 4.05279C6.107 4.13748 6 4.31061 6 4.5V7.63962L0.341886 9.52566C0.137715 9.59372 0 9.78479 0 10V15.5C0 15.7761 0.223858 16 0.5 16H9.5C9.55043 16 9.59911 15.9925 9.645 15.9787C9.30357 15.6981 9.00418 15.3683 8.75769 15H7V4.80902L14 1.30902V8.25618C14.356 8.38202 14.6915 8.55139 15 8.7579V0.500001ZM1 10.3604L6 8.69371V15H1V10.3604Z" />
<path d="M9 7H8V8H9V7Z" />
<path d="M10 7H11V8H10V7Z" />
<path d="M13 7H12V8H13V7Z" />
<path d="M8 5H9V6H8V5Z" />
<path d="M11 5H10V6H11V5Z" />
<path d="M12 5H13V6H12V5Z" />
<path d="M13 3H12V4H13V3Z" />
<path d="M9 9H8V10L9 10V9Z" />
</svg>
