<svg width="16" height="16" viewBox="0 0 16 16" xmlns="http://www.w3.org/2000/svg">
<path fill-rule="evenodd" clip-rule="evenodd" d="M8 13C9.933 13 11.5 11.433 11.5 9.5C11.5 7.567 9.933 6 8 6C6.067 6 4.5 7.567 4.5 9.5C4.5 11.433 6.067 13 8 13ZM8 14C10.4853 14 12.5 11.9853 12.5 9.5C12.5 7.01472 10.4853 5 8 5C5.51472 5 3.5 7.01472 3.5 9.5C3.5 11.9853 5.51472 14 8 14Z" />
<path d="M8.5 7C8.5 6.72386 8.27614 6.5 8 6.5C7.72386 6.5 7.5 6.72386 7.5 7V9.5C7.5 9.67943 7.59614 9.8451 7.75193 9.93412L9.75201 11.252C9.99177 11.389 10.2972 11.3057 10.4342 11.0659C10.5712 10.8262 10.4879 10.5207 10.2482 10.3837L8.5 9.20984V7Z" />
<path d="M3.5 0C3.77614 0 4 0.223858 4 0.5V1H12V0.5C12 0.223858 12.2239 0 12.5 0C12.7761 0 13 0.223858 13 0.5V1H14C15.1046 1 16 1.89543 16 3V14C16 15.1046 15.1046 16 14 16H2C0.895431 16 0 15.1046 0 14V3C0 1.89543 0.895431 1 2 1H3V0.5C3 0.223858 3.22386 0 3.5 0ZM1 4V14C1 14.5523 1.44772 15 2 15H14C14.5523 15 15 14.5523 15 14V4H1Z" />
</svg>
