<svg width="16" height="16" viewBox="0 0 16 16" xmlns="http://www.w3.org/2000/svg">
<path d="M11 6.5C11 6.22386 11.2239 6 11.5 6H12.5C12.7761 6 13 6.22386 13 6.5V7.5C13 7.77614 12.7761 8 12.5 8H11.5C11.2239 8 11 7.77614 11 7.5V6.5Z" />
<path d="M3.5 0C3.77614 0 4 0.223858 4 0.5V1H12V0.5C12 0.223858 12.2239 0 12.5 0C12.7761 0 13 0.223858 13 0.5V1H14C15.1046 1 16 1.89543 16 3V14C16 15.1046 15.1046 16 14 16H2C0.895431 16 0 15.1046 0 14V3C0 1.89543 0.895431 1 2 1H3V0.5C3 0.223858 3.22386 0 3.5 0ZM1 4V14C1 14.5523 1.44772 15 2 15H14C14.5523 15 15 14.5523 15 14V4H1Z" />
</svg>
