<svg width="16" height="16" viewBox="0 0 16 16" xmlns="http://www.w3.org/2000/svg">
<path fill-rule="evenodd" clip-rule="evenodd" d="M10.9615 12.3653C11.2394 12.068 11.4276 11.6858 11.483 11.2618L14.5939 12.6444C15.2551 12.9383 16 12.4543 16 11.7306V4.26938C16 3.54572 15.2551 3.06166 14.5939 3.35557L11.483 4.73817C11.3548 3.75732 10.5158 3 9.5 3H4.27193L4.98621 4H9.5C10.0523 4 10.5 4.44772 10.5 5V11C10.5 11.1894 10.4473 11.3665 10.3559 11.5175L10.9615 12.3653ZM1.42788 4.17973C1.1692 4.36048 1 4.66048 1 5V11C1 11.5523 1.44772 12 2 12H7.01379L7.72807 13H2C0.89543 13 0 12.1046 0 11V5C0 4.32499 0.3344 3.72808 0.846576 3.3659L1.42788 4.17973ZM15 11.7306L11.5 10.1751V5.82494L15 4.26938L15 11.7306Z"/>
<path fill-rule="evenodd" clip-rule="evenodd" d="M10.5931 15.2906L0.593132 1.29062L1.40687 0.709381L11.4069 14.7094L10.5931 15.2906Z"/>
</svg>
