<svg width="16" height="17" viewBox="0 0 16 17" xmlns="http://www.w3.org/2000/svg">
  <path
    d="M15 12.5C15 13.0523 14.5523 13.5 14 13.5H2C1.44772 13.5 1 13.0523 1 12.5V6.5C1 5.94772 1.44772 5.5 2 5.5H3.17157C3.96722 5.5 4.73028 5.18393 5.29289 4.62132L6.12132 3.79289C6.30886 3.60536 6.56321 3.5 6.82843 3.5H9.17157C9.43679 3.5 9.69114 3.60536 9.87868 3.79289L10.7071 4.62132C11.2697 5.18393 12.0328 5.5 12.8284 5.5H14C14.5523 5.5 15 5.94772 15 6.5V12.5ZM2 4.5C0.895431 4.5 0 5.39543 0 6.5V12.5C0 13.6046 0.895431 14.5 2 14.5H14C15.1046 14.5 16 13.6046 16 12.5V6.5C16 5.39543 15.1046 4.5 14 4.5H12.8284C12.298 4.5 11.7893 4.28929 11.4142 3.91421L10.5858 3.08579C10.2107 2.71071 9.70201 2.5 9.17157 2.5H6.82843C6.29799 2.5 5.78929 2.71071 5.41421 3.08579L4.58579 3.91421C4.21071 4.28929 3.70201 4.5 3.17157 4.5H2Z" />
  <path
    d="M8 11.5C6.61929 11.5 5.5 10.3807 5.5 9C5.5 7.61929 6.61929 6.5 8 6.5C9.38071 6.5 10.5 7.61929 10.5 9C10.5 10.3807 9.38071 11.5 8 11.5ZM8 12.5C9.933 12.5 11.5 10.933 11.5 9C11.5 7.067 9.933 5.5 8 5.5C6.067 5.5 4.5 7.067 4.5 9C4.5 10.933 6.067 12.5 8 12.5Z" />
  <path
    d="M3 7C3 7.27614 2.77614 7.5 2.5 7.5C2.22386 7.5 2 7.27614 2 7C2 6.72386 2.22386 6.5 2.5 6.5C2.77614 6.5 3 6.72386 3 7Z" />
</svg>
