<svg width="16" height="17" viewBox="0 0 16 17" xmlns="http://www.w3.org/2000/svg">
<path d="M14.5 3.80005C14.7761 3.80005 15 4.02391 15 4.30005V13.3C15 13.5762 14.7761 13.8 14.5 13.8H1.5C1.22386 13.8 1 13.5762 1 13.3V4.30005C1 4.02391 1.22386 3.80005 1.5 3.80005H14.5ZM1.5 2.80005C0.671573 2.80005 0 3.47162 0 4.30005V13.3C0 14.1285 0.671573 14.8 1.5 14.8H14.5C15.3284 14.8 16 14.1285 16 13.3V4.30005C16 3.47162 15.3284 2.80005 14.5 2.80005H1.5Z"/>
<path d="M5 8.80005C5 8.52391 5.22386 8.30005 5.5 8.30005H12.5C12.7761 8.30005 13 8.52391 13 8.80005C13 9.07619 12.7761 9.30005 12.5 9.30005H5.5C5.22386 9.30005 5 9.07619 5 8.80005Z"/>
<path d="M5 6.30005C5 6.02391 5.22386 5.80005 5.5 5.80005H12.5C12.7761 5.80005 13 6.02391 13 6.30005C13 6.57619 12.7761 6.80005 12.5 6.80005H5.5C5.22386 6.80005 5 6.57619 5 6.30005Z"/>
<path d="M5 11.3C5 11.0239 5.22386 10.8 5.5 10.8H12.5C12.7761 10.8 13 11.0239 13 11.3C13 11.5762 12.7761 11.8 12.5 11.8H5.5C5.22386 11.8 5 11.5762 5 11.3Z"/>
<path d="M4 6.30005C4 6.57619 3.77614 6.80005 3.5 6.80005C3.22386 6.80005 3 6.57619 3 6.30005C3 6.02391 3.22386 5.80005 3.5 5.80005C3.77614 5.80005 4 6.02391 4 6.30005Z"/>
<path d="M4 8.80005C4 9.07619 3.77614 9.30005 3.5 9.30005C3.22386 9.30005 3 9.07619 3 8.80005C3 8.52391 3.22386 8.30005 3.5 8.30005C3.77614 8.30005 4 8.52391 4 8.80005Z"/>
<path d="M4 11.3C4 11.5762 3.77614 11.8 3.5 11.8C3.22386 11.8 3 11.5762 3 11.3C3 11.0239 3.22386 10.8 3.5 10.8C3.77614 10.8 4 11.0239 4 11.3Z"/>
</svg>
