<svg width="20" height="20" viewBox="0 0 20 20" xmlns="http://www.w3.org/2000/svg">
<path d="M17.5 1.25C18.1904 1.25 18.75 1.80964 18.75 2.5V12.5C18.75 13.1904 18.1904 13.75 17.5 13.75H5.51777C4.85472 13.75 4.21884 14.0134 3.75 14.4822L1.25 16.9822V2.5C1.25 1.80964 1.80964 1.25 2.5 1.25H17.5ZM2.5 0C1.11929 0 0 1.11929 0 2.5V18.4911C0 19.0479 0.673213 19.3268 1.06694 18.9331L4.63388 15.3661C4.8683 15.1317 5.18625 15 5.51777 15H17.5C18.8807 15 20 13.8807 20 12.5V2.5C20 1.11929 18.8807 0 17.5 0H2.5Z"/>
<path d="M3.75 4.375C3.75 4.02982 4.02982 3.75 4.375 3.75H15.625C15.9702 3.75 16.25 4.02982 16.25 4.375C16.25 4.72018 15.9702 5 15.625 5H4.375C4.02982 5 3.75 4.72018 3.75 4.375ZM3.75 7.5C3.75 7.15482 4.02982 6.875 4.375 6.875H15.625C15.9702 6.875 16.25 7.15482 16.25 7.5C16.25 7.84518 15.9702 8.125 15.625 8.125H4.375C4.02982 8.125 3.75 7.84518 3.75 7.5ZM3.75 10.625C3.75 10.2798 4.02982 10 4.375 10H10.625C10.9702 10 11.25 10.2798 11.25 10.625C11.25 10.9702 10.9702 11.25 10.625 11.25H4.375C4.02982 11.25 3.75 10.9702 3.75 10.625Z"/>
</svg>
