<svg width="16" height="16" viewBox="0 0 16 16" xmlns="http://www.w3.org/2000/svg">
<path d="M3 14.5C2.17157 14.5 1.5 13.8284 1.5 13V3C1.5 2.17157 2.17157 1.5 3 1.5H11C11.2761 1.5 11.5 1.72386 11.5 2C11.5 2.27614 11.2761 2.5 11 2.5H3C2.72386 2.5 2.5 2.72386 2.5 3V13C2.5 13.2761 2.72386 13.5 3 13.5H13C13.2761 13.5 13.5 13.2761 13.5 13V8C13.5 7.72386 13.7239 7.5 14 7.5C14.2761 7.5 14.5 7.72386 14.5 8V13C14.5 13.8284 13.8284 14.5 13 14.5H3Z" />
<path d="M8.35355 10.3536L15.3536 3.35355C15.5488 3.15829 15.5488 2.84171 15.3536 2.64645C15.1583 2.45118 14.8417 2.45118 14.6464 2.64645L8 9.29289L5.35355 6.64645C5.15829 6.45118 4.84171 6.45118 4.64645 6.64645C4.45118 6.84171 4.45118 7.15829 4.64645 7.35355L7.64645 10.3536C7.84171 10.5488 8.15829 10.5488 8.35355 10.3536Z" />
</svg>
