<svg width="16" height="16" viewBox="0 0 16 16" xmlns="http://www.w3.org/2000/svg">
<path fill-rule="evenodd" clip-rule="evenodd" d="M9.94685 15.7651C9.3244 15.9186 8.67237 16 8 16C7.32763 16 6.6756 15.9186 6.05315 15.7651L6.37642 14.4544C6.89344 14.5819 7.43693 14.65 8 14.65C8.56307 14.65 9.10656 14.5819 9.62358 14.4544L9.94685 15.7651ZM3.87973 14.8717L4.572 13.7127C3.63365 13.1523 2.84774 12.3663 2.28726 11.428L1.12827 12.1203C1.80331 13.2504 2.74959 14.1967 3.87973 14.8717ZM0.234891 9.94685L1.54562 9.62358C1.4181 9.10656 1.35 8.56307 1.35 8C1.35 7.43693 1.4181 6.89344 1.54562 6.37642L0.234891 6.05315C0.0813746 6.6756 0 7.32763 0 8C0 8.67237 0.0813746 9.3244 0.234891 9.94685ZM1.12826 3.87973L2.28726 4.572C2.84774 3.63365 3.63365 2.84774 4.572 2.28726L3.87973 1.12827C2.74959 1.80331 1.8033 2.74959 1.12826 3.87973ZM6.05315 0.234891C6.6756 0.0813747 7.32763 0 8 0C8.67237 0 9.3244 0.0813746 9.94685 0.234891L9.62358 1.54562C9.10656 1.4181 8.56307 1.35 8 1.35C7.43693 1.35 6.89344 1.4181 6.37642 1.54562L6.05315 0.234891ZM12.1203 1.12826L11.428 2.28726C12.3663 2.84774 13.1523 3.63365 13.7127 4.572L14.8717 3.87973C14.1967 2.74959 13.2504 1.8033 12.1203 1.12826ZM15.7651 6.05315L14.4544 6.37642C14.5819 6.89344 14.65 7.43693 14.65 8C14.65 8.56307 14.5819 9.10656 14.4544 9.62358L15.7651 9.94685C15.9186 9.3244 16 8.67237 16 8C16 7.32763 15.9186 6.6756 15.7651 6.05315ZM14.8717 12.1203L13.7127 11.428C13.1523 12.3663 12.3663 13.1523 11.428 13.7127L12.1203 14.8717C13.2504 14.1967 14.1967 13.2504 14.8717 12.1203Z" />
<path d="M6.73832 12L3 8.32051L3.93458 7.42308L6.73832 10.0256L12.0654 5L13 5.89744L6.73832 12Z" />
</svg>
