<svg width="16" height="16" viewBox="0 0 16 16" xmlns="http://www.w3.org/2000/svg">
<path d="M12.3536 4.35355C12.5488 4.15829 12.5488 3.84171 12.3536 3.64645C12.1583 3.45118 11.8417 3.45118 11.6464 3.64645L5 10.2929L1.85355 7.14645C1.65829 6.95118 1.34171 6.95118 1.14645 7.14645C0.951184 7.34171 0.951184 7.65829 1.14645 7.85355L4.64645 11.3536C4.74021 11.4473 4.86739 11.5 5 11.5C5.13261 11.5 5.25979 11.4473 5.35355 11.3536L12.3536 4.35355Z" />
<path d="M8.14645 11.3536L7.25 10.4571L7.95711 9.75L8.5 10.2929L15.1464 3.64645C15.3417 3.45118 15.6583 3.45118 15.8536 3.64645C16.0488 3.84171 16.0488 4.15829 15.8536 4.35355L8.85355 11.3536C8.75979 11.4473 8.63261 11.5 8.5 11.5C8.36739 11.5 8.24021 11.4473 8.14645 11.3536Z" />
<path d="M5.35355 7.14645L6.25 8.04289L5.54289 8.75L4.64645 7.85355C4.45118 7.65829 4.45118 7.34171 4.64645 7.14645C4.84171 6.95118 5.15829 6.95118 5.35355 7.14645Z" />
</svg>
