<svg width="16" height="16" viewBox="0 0 16 16" xmlns="http://www.w3.org/2000/svg">
<g clip-path="url(#clip0_10_5279)">
<path d="M7.95531 16C7.24022 16 6.61453 15.9111 5.89944 15.7333L6.25698 14.4C6.7933 14.5778 7.32961 14.5778 7.95531 14.5778C8.22346 14.5778 8.49162 14.5778 8.67039 14.5778L8.84916 15.9111C8.58101 16 8.31285 16 7.95531 16ZM10.7263 15.4667L10.2793 14.2222C11.0838 13.9556 11.7095 13.5111 12.3352 12.9778L13.2291 13.9556C12.514 14.6667 11.7095 15.2 10.7263 15.4667ZM4.11173 15.0222C3.21788 14.5778 2.50279 13.9556 1.87709 13.2444L2.86034 12.3556C3.39665 12.9778 4.02235 13.5111 4.73743 13.8667L4.11173 15.0222ZM14.5698 12.6222L13.4972 11.8222C13.9441 11.1111 14.3017 10.4 14.4804 9.6L15.8212 9.95556C15.5531 10.9333 15.1061 11.8222 14.5698 12.6222ZM0.804469 11.6444C0.357542 10.7556 0.0893855 9.86667 0 8.88889L1.34078 8.71111C1.43017 9.51111 1.69832 10.3111 2.05587 11.0222L0.804469 11.6444ZM14.6592 8C14.6592 7.2 14.4804 6.4 14.2123 5.6L15.4637 5.15556C15.8212 6.04444 16 7.02222 16 8H14.6592ZM1.34078 7.11111L0 6.93333C0.0893855 5.95556 0.446927 5.06667 0.893855 4.17778L2.05587 4.8C1.69832 5.51111 1.43017 6.31111 1.34078 7.11111ZM13.4972 4.26667C13.0503 3.55556 12.4246 3.02222 11.7989 2.48889L12.6034 1.42222C13.3184 1.95556 14.0335 2.66667 14.5698 3.46667L13.4972 4.26667ZM3.03911 3.46667L2.05587 2.57778C2.68156 1.86667 3.48603 1.33333 4.2905 0.888889L4.9162 2.04444C4.20112 2.4 3.57542 2.93333 3.03911 3.46667ZM10.3687 1.77778C9.56425 1.51111 8.84916 1.33333 7.95531 1.33333C7.41899 1.33333 6.97207 1.42222 6.43575 1.51111L6.1676 0.177778C6.70391 0.0888889 7.32961 0 7.95531 0C8.93855 0 9.92179 0.177778 10.8156 0.533333L10.3687 1.77778Z" fill="black"/>
<path d="M7.09091 12L4 8.95385L5 7.93846L7.09091 10.0615L11.0909 6L12 6.92308L7.09091 12Z" fill="black"/>
</g>
<defs>
<clipPath id="clip0_10_5279">
<rect width="16" height="16" />
</clipPath>
</defs>
</svg>
