<svg width="16" height="16" viewBox="0 0 16 16" xmlns="http://www.w3.org/2000/svg">
<path fill-rule="evenodd" clip-rule="evenodd" d="M2 4C2 2.89543 2.89543 2 4 2H6C7.10457 2 8 2.89543 8 4V6C8 7.10457 7.10457 8 6 8H4C2.89543 8 2 7.10457 2 6V4ZM6.85355 4.35355L4.85355 6.35355C4.65829 6.54882 4.34171 6.54882 4.14645 6.35355L3.14645 5.35355C2.95118 5.15829 2.95118 4.84171 3.14645 4.64645C3.34171 4.45118 3.65829 4.45118 3.85355 4.64645L4.5 5.29289L6.14645 3.64645C6.34171 3.45118 6.65829 3.45118 6.85355 3.64645C7.04882 3.84171 7.04882 4.15829 6.85355 4.35355Z" />
<path d="M9.5 4C9.22386 4 9 4.22386 9 4.5V5.5C9 5.77614 9.22386 6 9.5 6H13.5C13.7761 6 14 5.77614 14 5.5V4.5C14 4.22386 13.7761 4 13.5 4H9.5Z" />
<path fill-rule="evenodd" clip-rule="evenodd" d="M4 9C2.89543 9 2 9.89543 2 11V12C2 13.1046 2.89543 14 4 14H5C6.10457 14 7 13.1046 7 12V11C7 9.89543 6.10457 9 5 9H4ZM4 10C3.44772 10 3 10.4477 3 11V12C3 12.5523 3.44772 13 4 13H5C5.55228 13 6 12.5523 6 12V11C6 10.4477 5.55228 10 5 10H4Z" />
<path d="M8.5 10.5C8.22386 10.5 8 10.7239 8 11V12C8 12.2761 8.22386 12.5 8.5 12.5H13.5C13.7761 12.5 14 12.2761 14 12V11C14 10.7239 13.7761 10.5 13.5 10.5H8.5Z" />
<path fill-rule="evenodd" clip-rule="evenodd" d="M0 4C0 1.79086 1.79086 0 4 0H12C14.2091 0 16 1.79086 16 4V12C16 14.2091 14.2091 16 12 16H4C1.79086 16 0 14.2091 0 12V4ZM4 1H12C13.6569 1 15 2.34315 15 4V12C15 13.6569 13.6569 15 12 15H4C2.34315 15 1 13.6569 1 12V4C1 2.34315 2.34315 1 4 1Z" />
</svg>
