<svg width="16" height="16" viewBox="0 0 16 16" xmlns="http://www.w3.org/2000/svg">
<path d="M3.35355 4.85355L5.35355 2.85355C5.54882 2.65829 5.54882 2.34171 5.35355 2.14645C5.15829 1.95118 4.84171 1.95118 4.64645 2.14645L3 3.79289L2.35355 3.14645C2.15829 2.95118 1.84171 2.95118 1.64645 3.14645C1.45118 3.34171 1.45118 3.65829 1.64645 3.85355L2.64645 4.85355C2.84171 5.04882 3.15829 5.04882 3.35355 4.85355Z" />
<path fill-rule="evenodd" clip-rule="evenodd" d="M5 1H2C1.44772 1 1 1.44772 1 2V5C1 5.55228 1.44772 6 2 6H5C5.55228 6 6 5.55228 6 5V2C6 1.44772 5.55228 1 5 1ZM2 0C0.895431 0 0 0.89543 0 2V5C0 6.10457 0.89543 7 2 7H5C6.10457 7 7 6.10457 7 5V2C7 0.895431 6.10457 0 5 0H2Z" />
<path fill-rule="evenodd" clip-rule="evenodd" d="M5 10H2C1.44772 10 1 10.4477 1 11V14C1 14.5523 1.44772 15 2 15H5C5.55228 15 6 14.5523 6 14V11C6 10.4477 5.55228 10 5 10ZM2 9C0.895431 9 0 9.89543 0 11V14C0 15.1046 0.89543 16 2 16H5C6.10457 16 7 15.1046 7 14V11C7 9.89543 6.10457 9 5 9H2Z" />
<path d="M8 3.5C8 2.94772 8.44772 2.5 9 2.5H15C15.5523 2.5 16 2.94772 16 3.5C16 4.05228 15.5523 4.5 15 4.5H9C8.44772 4.5 8 4.05228 8 3.5Z" />
<path d="M8 12.5C8 11.9477 8.44772 11.5 9 11.5H15C15.5523 11.5 16 11.9477 16 12.5C16 13.0523 15.5523 13.5 15 13.5H9C8.44772 13.5 8 13.0523 8 12.5Z" />
</svg>
