<svg width="16" height="16" viewBox="0 0 16 16" xmlns="http://www.w3.org/2000/svg">
<path d="M8 2.5C4.96243 2.5 2.5 4.96243 2.5 8C2.5 11.0376 4.96243 13.5 8 13.5C11.0376 13.5 13.5 11.0376 13.5 8C13.5 7.72386 13.7239 7.5 14 7.5C14.2761 7.5 14.5 7.72386 14.5 8C14.5 11.5899 11.5899 14.5 8 14.5C4.41015 14.5 1.5 11.5899 1.5 8C1.5 4.41015 4.41015 1.5 8 1.5C9.1831 1.5 10.2938 1.81654 11.2504 2.36989C11.4894 2.50816 11.5711 2.81403 11.4328 3.05306C11.2945 3.29209 10.9887 3.37377 10.7496 3.2355C9.94117 2.76782 9.00262 2.5 8 2.5Z" />
<path d="M8.29333 9.51775C8.24646 9.56462 8.24646 9.64059 8.29333 9.68746L9.02169 10.4158C9.12038 10.5145 9.25423 10.57 9.3938 10.57C9.53337 10.57 9.66723 10.5145 9.76592 10.4158L15.4534 4.72832C15.6589 4.52281 15.6589 4.1896 15.4534 3.98409C15.2479 3.77858 14.9147 3.77858 14.7092 3.98409L9.3938 9.29948L9.03756 8.94323C8.99069 8.89637 8.91471 8.89637 8.86785 8.94323L8.29333 9.51775Z" />
<path d="M7.65053 7.72591C7.69739 7.67905 7.69739 7.60307 7.65053 7.5562L6.92217 6.82784C6.71666 6.62233 6.38345 6.62233 6.17794 6.82784C5.97243 7.03335 5.97243 7.36656 6.17794 7.57207L6.9063 8.30043C6.95317 8.3473 7.02914 8.3473 7.07601 8.30043L7.65053 7.72591Z" />
<path d="M12.6097 4.72832C12.8152 4.52281 12.8152 4.1896 12.6097 3.98409C12.4042 3.77858 12.071 3.77858 11.8654 3.98409L6.55005 9.29948L4.07842 6.82784C3.87291 6.62233 3.5397 6.62233 3.33419 6.82784C3.12868 7.03335 3.12868 7.36656 3.33419 7.57207L6.17794 10.4158C6.27663 10.5145 6.41048 10.57 6.55005 10.57C6.68962 10.57 6.82348 10.5145 6.92217 10.4158L12.6097 4.72832Z" />
</svg>
