<svg width="12" height="12" viewBox="0 0 12 12" xmlns="http://www.w3.org/2000/svg">
<path d="M1.5 0C0.671573 0 0 0.671573 0 1.5V10.5C0 11.3284 0.671573 12 1.5 12H10.5C11.3284 12 12 11.3284 12 10.5V1.5C12 0.671573 11.3284 0 10.5 0H1.5ZM9.02274 3.72725C9.23972 3.94423 9.24238 4.29436 9.03073 4.5146L6.03657 8.2573C6.03225 8.2627 6.02763 8.26786 6.02274 8.27275C5.80307 8.49242 5.44692 8.49242 5.22725 8.27275L3.24241 6.28791C3.02274 6.06824 3.02274 5.71209 3.24241 5.49242C3.46208 5.27275 3.81824 5.27275 4.03791 5.49242L5.60805 7.06256L8.21233 3.74408C8.21696 3.73818 8.22194 3.73256 8.22725 3.72725C8.44692 3.50758 8.80307 3.50758 9.02274 3.72725Z"/>
</svg>
