<svg width="16" height="16" viewBox="0 0 16 16" xmlns="http://www.w3.org/2000/svg">
<path d="M3.5 2C3.22386 2 3 2.22386 3 2.5V14.5C3 14.7761 3.22386 15 3.5 15H12.5C12.7761 15 13 14.7761 13 14.5V2.5C13 2.22386 12.7761 2 12.5 2H12C11.7239 2 11.5 1.77614 11.5 1.5C11.5 1.22386 11.7239 1 12 1H12.5C13.3284 1 14 1.67157 14 2.5V14.5C14 15.3284 13.3284 16 12.5 16H3.5C2.67157 16 2 15.3284 2 14.5V2.5C2 1.67157 2.67157 1 3.5 1H4C4.27614 1 4.5 1.22386 4.5 1.5C4.5 1.77614 4.27614 2 4 2H3.5Z" />
<path d="M10 0.5C10 0.223858 9.77614 0 9.5 0H6.5C6.22386 0 6 0.223858 6 0.5C6 0.776142 5.77614 1 5.5 1C5.22386 1 5 1.22386 5 1.5V2C5 2.27614 5.22386 2.5 5.5 2.5H10.5C10.7761 2.5 11 2.27614 11 2V1.5C11 1.22386 10.7761 1 10.5 1C10.2239 1 10 0.776142 10 0.5Z" />
</svg>
