<svg width="16" height="16" viewBox="0 0 16 16" xmlns="http://www.w3.org/2000/svg">
<path d="M8 3.5C8 3.22386 7.77614 3 7.5 3C7.22386 3 7 3.22386 7 3.5V9C7 9.17943 7.09614 9.3451 7.25193 9.43412L10.7519 11.4341C10.9917 11.5711 11.2971 11.4878 11.4341 11.2481C11.5711 11.0083 11.4878 10.7029 11.2481 10.5659L8 8.70984V3.5Z" />
<path d="M8 16C12.4183 16 16 12.4183 16 8C16 3.58172 12.4183 0 8 0C3.58172 0 0 3.58172 0 8C0 12.4183 3.58172 16 8 16ZM15 8C15 11.866 11.866 15 8 15C4.13401 15 1 11.866 1 8C1 4.13401 4.13401 1 8 1C11.866 1 15 4.13401 15 8Z" />
</svg>
