<svg width="20" height="20" viewBox="0 0 20 20" xmlns="http://www.w3.org/2000/svg">
<path d="M10.6437 1.2737C10.43 1.25794 10.2153 1.25 10 1.25V0C10.2461 0 10.4914 0.00907749 10.7356 0.0270902L10.6437 1.2737ZM13.1491 1.83631C12.7482 1.68167 12.3364 1.55675 11.9171 1.4626L12.191 0.242977C12.6702 0.350578 13.1408 0.493332 13.5989 0.670068L13.1491 1.83631ZM14.8612 2.72464C14.6822 2.60502 14.4993 2.49234 14.3129 2.38673L14.929 1.29913C15.1421 1.41983 15.3511 1.5486 15.5557 1.6853C15.7603 1.822 15.9593 1.96587 16.1523 2.11653L15.3833 3.10197C15.2144 2.97015 15.0403 2.84426 14.8612 2.72464ZM17.1539 4.96168C16.9064 4.61036 16.6335 4.27773 16.3372 3.96652L17.2425 3.1046C17.5811 3.46027 17.8931 3.84041 18.1758 4.24191L17.1539 4.96168ZM18.0839 6.65152C18.0016 6.4526 17.9121 6.25728 17.8157 6.06589L18.9323 5.50389C19.0423 5.72262 19.1446 5.94584 19.2388 6.17317C19.333 6.40049 19.4185 6.63066 19.4953 6.86318L18.3084 7.25529C18.2412 7.05184 18.1663 6.85044 18.0839 6.65152ZM18.7474 9.78527C18.7368 9.35569 18.6946 8.92746 18.6212 8.50408L19.8528 8.29039C19.9367 8.77424 19.9849 9.26365 19.997 9.75458L18.7474 9.78527ZM18.5819 11.707C18.6239 11.4959 18.658 11.2837 18.6842 11.0711L19.9248 11.2241C19.8948 11.4671 19.8559 11.7096 19.8079 11.9509C19.7598 12.1922 19.7031 12.4311 19.6378 12.6671L18.433 12.3337C18.4902 12.1272 18.5399 11.9182 18.5819 11.707ZM17.3925 14.6812C17.6224 14.3182 17.8252 13.9387 17.9993 13.5459L19.1421 14.0524C18.9431 14.5014 18.7113 14.9351 18.4485 15.35L17.3925 14.6812ZM16.1872 16.1872C16.3394 16.0349 16.4856 15.8775 16.6256 15.7153L17.5721 16.5317C17.4121 16.7172 17.2451 16.8971 17.0711 17.0711L16.1872 16.1872Z" />
<path d="M10 1.25C8.56106 1.25 7.14432 1.60487 5.87528 2.28319C4.60624 2.9615 3.52408 3.94232 2.72464 5.13876C1.92521 6.3352 1.43318 7.71033 1.29214 9.14235C1.15109 10.5744 1.3654 12.0191 1.91606 13.3485C2.46672 14.6779 3.33674 15.851 4.44906 16.7638C5.56138 17.6767 6.88166 18.3011 8.29296 18.5819C9.70426 18.8626 11.163 18.7909 12.54 18.3732C13.917 17.9555 15.1697 17.2047 16.1872 16.1872L17.0711 17.0711C15.9082 18.2339 14.4765 19.092 12.9028 19.5694C11.3291 20.0468 9.66201 20.1287 8.0491 19.8079C6.43619 19.487 4.92729 18.7734 3.65607 17.7301C2.38485 16.6868 1.39053 15.3462 0.761207 13.8268C0.131881 12.3075 -0.113035 10.6564 0.0481553 9.01983C0.209345 7.38324 0.771666 5.81166 1.68531 4.4443C2.59895 3.07694 3.83571 1.956 5.28603 1.18079C6.73636 0.405571 8.35549 0 10 0V1.25Z" />
<path d="M9.375 3.75C9.72018 3.75 10 4.02982 10 4.375V10.8873L14.0601 13.2073C14.3598 13.3786 14.4639 13.7604 14.2927 14.0601C14.1214 14.3598 13.7396 14.4639 13.4399 14.2927L9.06491 11.7927C8.87018 11.6814 8.75 11.4743 8.75 11.25V4.375C8.75 4.02982 9.02982 3.75 9.375 3.75Z" />
</svg>
