<svg width="16" height="16" viewBox="0 0 16 16" xmlns="http://www.w3.org/2000/svg">
<path d="M5.85355 4.85355C6.04882 4.65829 6.04882 4.34171 5.85355 4.14645C5.65829 3.95118 5.34171 3.95118 5.14645 4.14645L1.64645 7.64645C1.45118 7.84171 1.45118 8.15829 1.64645 8.35355L5.14645 11.8536C5.34171 12.0488 5.65829 12.0488 5.85355 11.8536C6.04882 11.6583 6.04882 11.3417 5.85355 11.1464L2.70711 8L5.85355 4.85355Z" />
<path d="M10.1464 4.85355C9.95118 4.65829 9.95118 4.34171 10.1464 4.14645C10.3417 3.95118 10.6583 3.95118 10.8536 4.14645L14.3536 7.64645C14.5488 7.84171 14.5488 8.15829 14.3536 8.35355L10.8536 11.8536C10.6583 12.0488 10.3417 12.0488 10.1464 11.8536C9.95118 11.6583 9.95118 11.3417 10.1464 11.1464L13.2929 8L10.1464 4.85355Z" />
</svg>
