<svg width="16" height="16" viewBox="0 0 16 16" xmlns="http://www.w3.org/2000/svg">
<path d="M14 1C14.5523 1 15 1.44772 15 2V14C15 14.5523 14.5523 15 14 15H2C1.44772 15 1 14.5523 1 14V2C1 1.44772 1.44772 1 2 1H14ZM2 0C0.895431 0 0 0.895431 0 2V14C0 15.1046 0.895431 16 2 16H14C15.1046 16 16 15.1046 16 14V2C16 0.895431 15.1046 0 14 0H2Z"/>
<path d="M6.85355 4.64645C7.04882 4.84171 7.04882 5.15829 6.85355 5.35355L4.20711 8L6.85355 10.6464C7.04882 10.8417 7.04882 11.1583 6.85355 11.3536C6.65829 11.5488 6.34171 11.5488 6.14645 11.3536L3.14645 8.35355C2.95118 8.15829 2.95118 7.84171 3.14645 7.64645L6.14645 4.64645C6.34171 4.45118 6.65829 4.45118 6.85355 4.64645Z"/>
<path d="M9.14645 4.64645C8.95118 4.84171 8.95118 5.15829 9.14645 5.35355L11.7929 8L9.14645 10.6464C8.95118 10.8417 8.95118 11.1583 9.14645 11.3536C9.34171 11.5488 9.65829 11.5488 9.85355 11.3536L12.8536 8.35355C13.0488 8.15829 13.0488 7.84171 12.8536 7.64645L9.85355 4.64645C9.65829 4.45118 9.34171 4.45118 9.14645 4.64645Z"/>
</svg>
