<svg width="16" height="16" viewBox="0 0 16 16" xmlns="http://www.w3.org/2000/svg">
<path fill-rule="evenodd" clip-rule="evenodd" d="M0.56 11.88V6.12C0.24 6.12 0 5.88 0 5.56C0 5.24 0.24 5 0.56 5C0.88 5 1.12 5.24 1.12 5.56C1.12 5.8 1.04 5.96 0.8 6.04C0.8 6.04 1.28 8.68 4.24 8.68C7.2 8.68 7.68 6.04 7.68 6.04C7.52 5.96 7.44 5.72 7.44 5.56C7.44 5.24 7.68 5 8 5C8.32 5 8.56 5.24 8.56 5.56C8.56 5.8 8.48 5.96 8.32 6.04C8.32 6.04 8.8 8.76 11.76 8.76C14.72 8.76 15.12 6.04 15.12 6.04C14.96 5.96 14.8 5.72 14.8 5.56C14.8 5.24 15.04 5 15.36 5C15.68 5 16 5.24 16 5.56C16 5.88 15.76 6.12 15.44 6.12V11.88H0.56Z" />
</svg>
