<svg width="16" height="16" viewBox="0 0 16 16" xmlns="http://www.w3.org/2000/svg">
<path fill-rule="evenodd" clip-rule="evenodd" d="M5.52513 5.52513C4.15829 6.89196 4.15829 9.10804 5.52513 10.4749C6.89196 11.8417 9.10804 11.8417 10.4749 10.4749C11.8417 9.10804 11.8417 6.89196 10.4749 5.52513C9.10804 4.15829 6.89196 4.15829 5.52513 5.52513ZM8.70711 9.41421C8.90237 9.60948 9.21895 9.60948 9.41421 9.41421C9.60948 9.21895 9.60948 8.90237 9.41421 8.70711L8.70711 8L9.41421 7.29289C9.60948 7.09763 9.60948 6.78105 9.41421 6.58579C9.21895 6.39052 8.90237 6.39052 8.70711 6.58579L8 7.29289L7.29289 6.58579C7.09763 6.39052 6.78105 6.39052 6.58579 6.58579C6.39052 6.78105 6.39052 7.09763 6.58579 7.29289L7.29289 8L6.58579 8.70711C6.39052 8.90237 6.39052 9.21895 6.58579 9.41421C6.78105 9.60948 7.09763 9.60948 7.29289 9.41421L8 8.70711L8.70711 9.41421Z"/>
<path d="M15 1L15 15H13V8.00191C12.9996 9.127 12.6276 10.1652 12 11.0005V15C12 15.5523 12.4477 16 13 16H15C15.5523 16 16 15.5523 16 15L16 1C16 0.447715 15.5523 -2.41411e-08 15 0L13 8.74228e-08C12.4477 1.11564e-07 12 0.447715 12 1V4.99951C12.6276 5.83478 12.9996 6.873 13 7.99809L13 1L15 1Z"/>
<path d="M10 3.41604V1C10 0.447715 9.55228 2.38127e-07 9 2.62268e-07L7 3.49691e-07C6.44771 3.73832e-07 6 0.447715 6 1V3.41604C6.3175 3.27732 6.65219 3.17062 7 3.10002V1L9 1V3.10002C9.3478 3.17062 9.6825 3.27732 10 3.41604Z"/>
<path d="M7 12.9V15H9V12.9C9.3478 12.8294 9.6825 12.7227 10 12.584V15C10 15.5523 9.55228 16 9 16H7C6.44771 16 6 15.5523 6 15V12.584C6.3175 12.7227 6.65219 12.8294 7 12.9Z"/>
<path fill-rule="evenodd" clip-rule="evenodd" d="M4 4.99951L4 1C4 0.447715 3.55228 5.00396e-07 3 5.24537e-07L0.999999 6.11959e-07C0.447715 6.36101e-07 -2.41412e-08 0.447716 0 1V15C2.41412e-08 15.5523 0.447715 16 0.999999 16H3C3.55228 16 4 15.5523 4 15V11.0005C3.37209 10.1647 3 9.12583 3 8C3 6.87418 3.37209 5.83526 4 4.99951ZM3 8L3 15H0.999999V1L3 1L3 8Z"/>
</svg>
