<svg width="16" height="16" viewBox="0 0 16 16" xmlns="http://www.w3.org/2000/svg">
<path fill-rule="evenodd" clip-rule="evenodd" d="M2 0C0.895431 0 0 0.895431 0 2V14C0 15.1046 0.895431 16 2 16H14C15.1046 16 16 15.1046 16 14V2C16 0.89543 15.1046 0 14 0H2ZM11 4H15V7H12.0322C12.1884 7.31425 12.3089 7.64935 12.3885 8H15V11H12.0322C11.8513 11.3641 11.6226 11.7001 11.3542 12H15V14C15 14.5523 14.5523 15 14 15H11V12.3542C10.7001 12.6226 10.3641 12.8513 10 13.0322V15H6V13.0322C5.63595 12.8513 5.29987 12.6226 5 12.3542V15H2C1.44772 15 1 14.5523 1 14V12H4.64584C4.37745 11.7001 4.14868 11.3641 3.96776 11H1V8H3.61151C3.69107 7.64935 3.81159 7.31425 3.96776 7H1V4H5V5.64584C5.29987 5.37745 5.63595 5.14868 6 4.96776V4H10V4.96776C10.3641 5.14868 10.7001 5.37745 11 5.64584V4Z"/>
<path fill-rule="evenodd" clip-rule="evenodd" d="M5.52513 11.4749C6.89196 12.8417 9.10804 12.8417 10.4749 11.4749C11.8417 10.108 11.8417 7.89196 10.4749 6.52513C9.10804 5.15829 6.89196 5.15829 5.52513 6.52513C4.15829 7.89196 4.15829 10.108 5.52513 11.4749ZM9.41421 8.29289C9.60948 8.09763 9.60948 7.78105 9.41421 7.58579C9.21895 7.39052 8.90237 7.39052 8.70711 7.58579L8 8.29289L7.29289 7.58579C7.09763 7.39052 6.78105 7.39052 6.58579 7.58579C6.39052 7.78105 6.39052 8.09763 6.58579 8.29289L7.29289 9L6.58579 9.70711C6.39052 9.90237 6.39052 10.219 6.58579 10.4142C6.78105 10.6095 7.09763 10.6095 7.29289 10.4142L8 9.70711L8.70711 10.4142C8.90237 10.6095 9.21895 10.6095 9.41421 10.4142C9.60948 10.219 9.60948 9.90237 9.41421 9.70711L8.70711 9L9.41421 8.29289Z"/>
</svg>
