<svg width="16" height="16" viewBox="0 0 16 16" xmlns="http://www.w3.org/2000/svg">
<path fill-rule="evenodd" clip-rule="evenodd" d="M5.52513 10.4749C6.89196 11.8417 9.10804 11.8417 10.4749 10.4749C11.8417 9.10804 11.8417 6.89196 10.4749 5.52513C9.10804 4.15829 6.89196 4.15829 5.52513 5.52513C4.15829 6.89196 4.15829 9.10804 5.52513 10.4749ZM9.41421 7.29289C9.60948 7.09763 9.60948 6.78105 9.41421 6.58579C9.21895 6.39052 8.90237 6.39052 8.70711 6.58579L8 7.29289L7.29289 6.58579C7.09763 6.39052 6.78105 6.39052 6.58579 6.58579C6.39052 6.78105 6.39052 7.09763 6.58579 7.29289L7.29289 8L6.58579 8.70711C6.39052 8.90237 6.39052 9.21895 6.58579 9.41421C6.78105 9.60948 7.09763 9.60948 7.29289 9.41421L8 8.70711L8.70711 9.41421C8.90237 9.60948 9.21895 9.60948 9.41421 9.41421C9.60948 9.21895 9.60948 8.90237 9.41421 8.70711L8.70711 8L9.41421 7.29289Z"/>
<path d="M1 1L15 1V3H8.00191C9.127 3.00042 10.1652 3.37245 11.0005 4H15C15.5523 4 16 3.55229 16 3V1C16 0.447716 15.5523 -2.41411e-08 15 0L1 6.11959e-07C0.447715 6.36101e-07 -2.41411e-08 0.447716 0 1L8.74228e-08 3C1.11564e-07 3.55229 0.447715 4 1 4H4.99951C5.83478 3.37245 6.873 3.00042 7.99809 3L1 3L1 1Z"/>
<path d="M3.41604 6H1C0.447715 6 2.38127e-07 6.44772 2.62268e-07 7L3.49691e-07 9C3.73832e-07 9.55229 0.447715 10 1 10H3.41604C3.27732 9.6825 3.17062 9.34781 3.10002 9H1L1 7H3.10002C3.17062 6.6522 3.27732 6.3175 3.41604 6Z"/>
<path d="M12.9 9H15V7H12.9C12.8294 6.6522 12.7227 6.3175 12.584 6H15C15.5523 6 16 6.44772 16 7V9C16 9.55229 15.5523 10 15 10H12.584C12.7227 9.6825 12.8294 9.34781 12.9 9Z"/>
<path fill-rule="evenodd" clip-rule="evenodd" d="M4.99951 12L1 12C0.447715 12 5.00396e-07 12.4477 5.24537e-07 13L6.11959e-07 15C6.36101e-07 15.5523 0.447716 16 1 16H15C15.5523 16 16 15.5523 16 15V13C16 12.4477 15.5523 12 15 12H11.0005C10.1647 12.6279 9.12583 13 8 13C6.87418 13 5.83526 12.6279 4.99951 12ZM8 13L15 13V15H1L1 13L8 13Z"/>
</svg>
