<svg width="21" height="21" viewBox="0 0 21 21" xmlns="http://www.w3.org/2000/svg">
<path d="M1.125 12.5736C1.47018 12.5736 1.75 12.8535 1.75 13.1986V16.3236C1.75 17.014 2.30964 17.5736 3 17.5736H18C18.6904 17.5736 19.25 17.014 19.25 16.3236V13.1986C19.25 12.8535 19.5298 12.5736 19.875 12.5736C20.2202 12.5736 20.5 12.8535 20.5 13.1986V16.3236C20.5 17.7044 19.3807 18.8236 18 18.8236H3C1.61929 18.8236 0.5 17.7044 0.5 16.3236V13.1986C0.5 12.8535 0.779822 12.5736 1.125 12.5736Z"/>
<path d="M10.0581 15.0156C10.3021 15.2596 10.6979 15.2596 10.9419 15.0156L14.6919 11.2655C14.936 11.0215 14.936 10.6257 14.6919 10.3817C14.4479 10.1376 14.0521 10.1376 13.8081 10.3817L11.125 13.0647V2.07361C11.125 1.72843 10.8452 1.44861 10.5 1.44861C10.1548 1.44861 9.875 1.72843 9.875 2.07361V13.0647L7.19194 10.3817C6.94786 10.1376 6.55214 10.1376 6.30806 10.3817C6.06398 10.6257 6.06398 11.0215 6.30806 11.2655L10.0581 15.0156Z"/>
</svg>
