<svg width="16" height="16" viewBox="0 0 16 16" xmlns="http://www.w3.org/2000/svg">
<path d="M13.3589 11.2376C15.0613 9.72098 16 8.00001 16 8.00001C16 8.00001 13 2.50001 8 2.50001C6.98462 2.50001 6.05172 2.72683 5.20967 3.08834L5.98054 3.85921C6.60983 3.63318 7.28441 3.50001 8 3.50001C10.1194 3.50001 11.879 4.66819 13.1679 5.95711C13.8037 6.59291 14.2978 7.23194 14.6327 7.71242C14.7055 7.81678 14.7704 7.91322 14.8273 8.00001C14.7704 8.0868 14.7055 8.18323 14.6327 8.28759C14.2978 8.76808 13.8037 9.4071 13.1679 10.0429C13.0031 10.2077 12.8306 10.3706 12.6506 10.5292L13.3589 11.2376Z" />
<path d="M11.2975 9.17615C11.4286 8.80857 11.5 8.41263 11.5 8.00001C11.5 6.06701 9.933 4.50001 8 4.50001C7.58738 4.50001 7.19144 4.57141 6.82386 4.70253L7.64618 5.52485C7.76176 5.50848 7.87989 5.50001 8 5.50001C9.38071 5.50001 10.5 6.6193 10.5 8.00001C10.5 8.12011 10.4915 8.23824 10.4752 8.35383L11.2975 9.17615Z" />
<path d="M8.35385 10.4752L9.17617 11.2975C8.80858 11.4286 8.41263 11.5 8 11.5C6.067 11.5 4.5 9.933 4.5 8.00001C4.5 7.58738 4.5714 7.19143 4.70253 6.82384L5.52485 7.64616C5.50847 7.76175 5.5 7.87989 5.5 8.00001C5.5 9.38072 6.61929 10.5 8 10.5C8.12012 10.5 8.23825 10.4915 8.35385 10.4752Z" />
<path d="M3.34944 5.47075C3.16945 5.62944 2.99693 5.79229 2.83211 5.95711C2.19631 6.59291 1.70216 7.23194 1.36727 7.71242C1.29454 7.81678 1.22963 7.91322 1.1727 8.00001C1.22963 8.0868 1.29454 8.18323 1.36727 8.28759C1.70216 8.76808 2.19631 9.4071 2.83211 10.0429C4.12103 11.3318 5.88062 12.5 8 12.5C8.7156 12.5 9.39018 12.3668 10.0195 12.1408L10.7904 12.9117C9.9483 13.2732 9.01539 13.5 8 13.5C3 13.5 0 8.00001 0 8.00001C0 8.00001 0.938717 6.27903 2.64112 4.76243L3.34944 5.47075Z" />
<path d="M13.6464 14.3536L1.64645 2.35356L2.35355 1.64645L14.3536 13.6465L13.6464 14.3536Z" />
</svg>
