<svg width="16" height="16" viewBox="0 0 16 16" xmlns="http://www.w3.org/2000/svg">
<path d="M13 7H14V8H13V7Z"/>
<path d="M13 9H14V10H13V9Z"/>
<path d="M13 11H14V12H13V11Z"/>
<path d="M11 7H12V8H11V7Z"/>
<path d="M11 9H12V10H11V9Z"/>
<path d="M11 11H12V12H11V11Z"/>
<path d="M7 7H8V8H7V7Z"/>
<path d="M7 9H8V10H7V9Z"/>
<path d="M7 11H8V12H7V11Z"/>
<path d="M9 7H10V8H9V7Z"/>
<path d="M9 9H10V10H9V9Z"/>
<path d="M9 11H10V12H9V11Z"/>
<path fill-rule="evenodd" clip-rule="evenodd" d="M14 3V0H7V3H6C6 1.89543 5.10457 1 4 1C2.89543 1 2 1.89543 2 3C0.895431 3 0 3.89543 0 5V14C0 15.1046 0.895431 16 2 16H14C15.1046 16 16 15.1046 16 14V5C16 3.89543 15.1046 3 14 3ZM13 1H8V5H13V1ZM14 4V6H7V4H6V12C6 13.1046 5.10457 14 4 14C2.89543 14 2 13.1046 2 12V4C1.44772 4 1 4.44772 1 5V14C1 14.5523 1.44772 15 2 15H14C14.5523 15 15 14.5523 15 14V5C15 4.44772 14.5523 4 14 4ZM3 12C3 12.5523 3.44772 13 4 13C4.55228 13 5 12.5523 5 12V3C5 2.44772 4.55228 2 4 2C3.44772 2 3 2.44772 3 3V12Z"/>
</svg>
