<svg width="16" height="16" viewBox="0 0 16 16" xmlns="http://www.w3.org/2000/svg">
<path d="M13 0H6C4.89543 0 4 0.89543 4 2C2.89543 2 2 2.89543 2 4V14C2 15.1046 2.89543 16 4 16H11C12.1046 16 13 15.1046 13 14C14.1046 14 15 13.1046 15 12V2C15 0.89543 14.1046 0 13 0ZM13 13V4C13 2.89543 12.1046 2 11 2H5C5 1.44772 5.44772 1 6 1H13C13.5523 1 14 1.44772 14 2V12C14 12.5523 13.5523 13 13 13ZM3 4C3 3.44772 3.44772 3 4 3H11C11.5523 3 12 3.44772 12 4V14C12 14.5523 11.5523 15 11 15H4C3.44772 15 3 14.5523 3 14V4Z" />
</svg>
