<svg width="16" height="16" viewBox="0 0 16 16" xmlns="http://www.w3.org/2000/svg">
<path d="M8.00153 5.5C8.00153 6.32843 7.32995 7 6.50153 7C5.6731 7 5.00153 6.32843 5.00153 5.5C5.00153 4.67157 5.6731 4 6.50153 4C7.32995 4 8.00153 4.67157 8.00153 5.5Z" />
<path d="M12 0H4C2.89543 0 2 0.89543 2 2V14C2 15.1046 2.89543 16 4 16H12C13.1046 16 14 15.1046 14 14V2C14 0.89543 13.1046 0 12 0ZM3 2C3 1.44772 3.44772 1 4 1H12C12.5523 1 13 1.44772 13 2V10L10.9174 7.91736C10.6989 7.69888 10.3365 7.72887 10.1569 7.98029L8 11L5.83476 9.70085C5.63802 9.58281 5.38619 9.61381 5.22395 9.77605L3 12V2Z" />
</svg>
