<svg width="16" height="16" viewBox="0 0 16 16" xmlns="http://www.w3.org/2000/svg">
<path d="M6 10.1169V5.8831C6 5.49445 6.42399 5.25439 6.75725 5.45435L10.2854 7.57125C10.6091 7.76546 10.6091 8.23455 10.2854 8.42875L6.75725 10.5457C6.42399 10.7456 6 10.5056 6 10.1169Z"/>
<path d="M4 0C2.89543 0 2 0.89543 2 2V14C2 15.1046 2.89543 16 4 16H12C13.1046 16 14 15.1046 14 14V2C14 0.89543 13.1046 0 12 0H4ZM4 1H12C12.5523 1 13 1.44772 13 2V14C13 14.5523 12.5523 15 12 15H4C3.44772 15 3 14.5523 3 14V2C3 1.44772 3.44772 1 4 1Z"/>
</svg>
