<svg width="16" height="16" viewBox="0 0 16 16" xmlns="http://www.w3.org/2000/svg">
<path d="M10.3039 3.12932C10.9227 3.00556 11.5 3.47885 11.5 4.1099V5.9099L9 6.4099V11.5C9 11.9953 8.69885 12.3826 8.33801 12.6231C7.97368 12.866 7.49916 13 7 13C6.50084 13 6.02632 12.866 5.66199 12.6231C5.30115 12.3826 5 11.9953 5 11.5C5 11.0047 5.30115 10.6174 5.66199 10.3769C6.02632 10.134 6.50084 10 7 10C7.35625 10 7.69995 10.0682 8 10.1956V4.4099C8 3.93322 8.33646 3.5228 8.80388 3.42932L10.3039 3.12932Z" />
<path d="M4 0C2.89543 0 2 0.89543 2 2V14C2 15.1046 2.89543 16 4 16H12C13.1046 16 14 15.1046 14 14V2C14 0.89543 13.1046 0 12 0H4ZM4 1H12C12.5523 1 13 1.44772 13 2V14C13 14.5523 12.5523 15 12 15H4C3.44772 15 3 14.5523 3 14V2C3 1.44772 3.44772 1 4 1Z" />
</svg>
