<svg width="16" height="16" viewBox="0 0 16 16" xmlns="http://www.w3.org/2000/svg">
<g clip-path="url(#clip0_20_6361)">
<path d="M11 2H9V5H11V2Z" />
<path d="M1.5 0H13.086C13.4837 0.000350104 13.865 0.158615 14.146 0.44L15.561 1.854C15.842 2.1352 15.9999 2.51645 16 2.914V14.5C16 14.8978 15.842 15.2794 15.5607 15.5607C15.2794 15.842 14.8978 16 14.5 16H1.5C1.10218 16 0.720644 15.842 0.43934 15.5607C0.158035 15.2794 0 14.8978 0 14.5L0 1.5C0 1.10218 0.158035 0.720644 0.43934 0.43934C0.720644 0.158035 1.10218 0 1.5 0ZM1 1.5V14.5C1 14.6326 1.05268 14.7598 1.14645 14.8536C1.24021 14.9473 1.36739 15 1.5 15H2V10.5C2 10.1022 2.15804 9.72064 2.43934 9.43934C2.72064 9.15804 3.10218 9 3.5 9H12.5C12.8978 9 13.2794 9.15804 13.5607 9.43934C13.842 9.72064 14 10.1022 14 10.5V15H14.5C14.6326 15 14.7598 14.9473 14.8536 14.8536C14.9473 14.7598 15 14.6326 15 14.5V2.914C15 2.78165 14.9475 2.65471 14.854 2.561L13.439 1.146C13.3453 1.05253 13.2184 1.00003 13.086 1H13V5.5C13 5.89782 12.842 6.27936 12.5607 6.56066C12.2794 6.84196 11.8978 7 11.5 7H4.5C4.10218 7 3.72064 6.84196 3.43934 6.56066C3.15804 6.27936 3 5.89782 3 5.5V1H1.5C1.36739 1 1.24021 1.05268 1.14645 1.14645C1.05268 1.24021 1 1.36739 1 1.5ZM4 5.5C4 5.63261 4.05268 5.75979 4.14645 5.85355C4.24021 5.94732 4.36739 6 4.5 6H11.5C11.6326 6 11.7598 5.94732 11.8536 5.85355C11.9473 5.75979 12 5.63261 12 5.5V1H4V5.5ZM3 15H13V10.5C13 10.3674 12.9473 10.2402 12.8536 10.1464C12.7598 10.0527 12.6326 10 12.5 10H3.5C3.36739 10 3.24021 10.0527 3.14645 10.1464C3.05268 10.2402 3 10.3674 3 10.5V15Z" />
</g>
<defs>
<clipPath id="clip0_20_6361">
<rect width="16" height="16" />
</clipPath>
</defs>
</svg>
