<svg width="16" height="16" viewBox="0 0 16 16" xmlns="http://www.w3.org/2000/svg">
<path d="M9.50221 5.51287C9.40928 5.47125 9.3 5.53899 9.3 5.64674V6.65002C9.3 6.92616 9.07614 7.15002 8.8 7.15002H2.5V10.05H8.8C9.07614 10.05 9.3 10.2739 9.3 10.55V11.5533C9.3 11.661 9.40928 11.7288 9.5022 11.6872L13.4857 8.75437C13.4994 8.74428 13.5137 8.73489 13.5283 8.72625C13.6239 8.66994 13.6239 8.5301 13.5283 8.47378C13.5137 8.46514 13.4994 8.45575 13.4857 8.44566L9.50221 5.51287ZM8.3 5.64674C8.3 4.75131 9.2694 4.21388 10.0247 4.65898C10.0393 4.66762 10.0536 4.677 10.0673 4.68709L14.0608 7.62723C14.7797 8.07439 14.7797 9.12564 14.0608 9.5728L10.0673 12.5129C10.0536 12.523 10.0393 12.5324 10.0247 12.5411C9.2694 12.9862 8.3 12.4487 8.3 11.5533V11.05H2C1.72386 11.05 1.5 10.8262 1.5 10.55V6.65002C1.5 6.37388 1.72386 6.15002 2 6.15002H8.3V5.64674Z" />
</svg>
