<svg width="16" height="16" viewBox="0 0 16 16" xmlns="http://www.w3.org/2000/svg">
<g clip-path="url(#clip0_135_882)">
<path d="M14.8113 6.13348L12.6984 0.360793C12.623 0.280617 12.5475 0.120264 12.472 0.120264C12.2457 -0.0400881 12.0193 0.0400881 11.8684 0.120264C11.7929 0.200441 11.7174 0.280617 11.7174 0.440969L10.3592 4.93084H4.69966L3.26592 0.440969C3.26592 0.360793 3.19046 0.200441 3.115 0.120264C2.96408 -0.0400881 2.66224 -0.0400881 2.51132 0.120264C2.3604 0.200441 2.28494 0.280617 2.28494 0.360793L0.247525 6.0533V6.13348C-0.356155 7.81718 0.172064 9.74141 1.53034 10.7837L4.6242 13.3493L6.20886 14.6322L7.11438 15.3537C7.34076 15.5141 7.6426 15.5141 7.86898 15.3537L8.7745 14.6322L10.3592 13.3493L13.5285 10.8639C14.8868 9.74141 15.415 7.81718 14.8113 6.13348Z" />
</g>
<defs>
<clipPath id="clip0_135_882">
<rect width="16" height="16" />
</clipPath>
</defs>
</svg>
