<svg width="16" height="16" viewBox="0 0 16 16" xmlns="http://www.w3.org/2000/svg">
<path d="M0 8C0 3.58172 3.58172 0 8 0C12.4183 0 16 3.58172 16 8C16 12.4183 12.4183 16 8 16C3.58172 16 0 12.4183 0 8ZM7.5 1.07655C6.83057 1.28128 6.16462 1.89722 5.61275 2.93199C5.43997 3.25594 5.283 3.61363 5.14499 3.99999H7.5V1.07655ZM4.08954 3.99999C4.26796 3.44139 4.48325 2.92479 4.73039 2.4614C4.90911 2.1263 5.10862 1.81241 5.32726 1.52835C4.08119 2.04354 3.01629 2.90813 2.25469 3.99999H4.08954ZM3.50845 7.49999C3.53819 6.62317 3.6457 5.7817 3.82001 4.99999H1.67363C1.30933 5.76687 1.08035 6.61049 1.01758 7.49999H3.50845ZM4.84686 4.99999C4.66006 5.76497 4.54152 6.60778 4.50906 7.49999H7.5V4.99999H4.84686ZM8.5 4.99999V7.49999H11.4909C11.4585 6.60778 11.3399 5.76497 11.1531 4.99999H8.5ZM4.50906 8.49999C4.54152 9.39221 4.66006 10.235 4.84686 11H7.5V8.49999H4.50906ZM8.5 8.49999V11H11.1531C11.3399 10.235 11.4585 9.39221 11.4909 8.49999H8.5ZM5.14499 12C5.283 12.3864 5.43997 12.744 5.61275 13.068C6.16462 14.1028 6.83057 14.7187 7.5 14.9234V12H5.14499ZM5.32726 14.4716C5.10863 14.1876 4.90911 13.8737 4.73039 13.5386C4.48325 13.0752 4.26796 12.5586 4.08954 12H2.25469C3.01629 13.0919 4.08119 13.9565 5.32726 14.4716ZM3.82001 11C3.6457 10.2183 3.53819 9.37682 3.50845 8.49999H1.01758C1.08035 9.3895 1.30933 10.2331 1.67363 11H3.82001ZM10.6727 14.4716C11.9188 13.9565 12.9837 13.0919 13.7453 12H11.9104C11.732 12.5586 11.5167 13.0752 11.2696 13.5386C11.0909 13.8737 10.8914 14.1876 10.6727 14.4716ZM8.5 12V14.9234C9.16942 14.7187 9.83537 14.1028 10.3872 13.068C10.56 12.744 10.717 12.3864 10.855 12H8.5ZM12.18 11H14.3264C14.6907 10.2331 14.9196 9.3895 14.9824 8.49999H12.4915C12.4618 9.37682 12.3543 10.2183 12.18 11ZM14.9824 7.49999C14.9196 6.61049 14.6907 5.76687 14.3264 4.99999H12.18C12.3543 5.7817 12.4618 6.62317 12.4915 7.49999H14.9824ZM11.2696 2.4614C11.5167 2.92479 11.732 3.44139 11.9104 3.99999H13.7453C12.9837 2.90812 11.9188 2.04353 10.6727 1.52835C10.8914 1.81241 11.0909 2.1263 11.2696 2.4614ZM10.855 3.99999C10.717 3.61363 10.56 3.25594 10.3872 2.93199C9.83537 1.89722 9.16942 1.28128 8.5 1.07655V3.99999H10.855Z" />
</svg>
