<svg width="16" height="16" viewBox="0 0 16 16" xmlns="http://www.w3.org/2000/svg">
<path d="M15.5453 6.55847C15.6394 7.09345 15.6835 7.64019 15.6835 8.18399C15.6835 10.6179 14.8134 12.6755 13.2996 14.0688H13.3025C11.9768 15.2916 10.1573 16 7.99973 16C4.97503 16 2.209 14.2951 0.850974 11.5938C-0.283656 9.33331 -0.283659 6.67017 0.850972 4.40972C2.209 1.70542 4.97503 0.000539093 7.99973 0.000539093C9.98681 -0.0229766 11.9063 0.723645 13.3525 2.08167L11.0685 4.36563C10.2425 3.57786 9.14024 3.1487 7.99973 3.16633C5.91272 3.16633 4.14022 4.57433 3.50824 6.47028C3.17314 7.46382 3.17314 8.53966 3.50824 9.5332H3.51118C4.1461 11.4262 5.91566 12.8342 8.00267 12.8342C9.08145 12.8342 10.0074 12.5579 10.7246 12.0699H10.7217C11.5653 11.5115 12.1414 10.6326 12.3207 9.63902H7.99973V6.55847H15.5453Z" />
</svg>
