<svg width="16" height="16" viewBox="0 0 16 16" xmlns="http://www.w3.org/2000/svg">
<path d="M7 2C7 2.55228 6.55228 3 6 3C5.44772 3 5 2.55228 5 2C5 1.44772 5.44772 1 6 1C6.55228 1 7 1.44772 7 2Z" />
<path d="M10 2C10 2.55228 9.55228 3 9 3C8.44772 3 8 2.55228 8 2C8 1.44772 8.44772 1 9 1C9.55228 1 10 1.44772 10 2Z" />
<path d="M7 5C7 5.55228 6.55228 6 6 6C5.44772 6 5 5.55228 5 5C5 4.44772 5.44772 4 6 4C6.55228 4 7 4.44772 7 5Z" />
<path d="M10 5C10 5.55228 9.55228 6 9 6C8.44772 6 8 5.55228 8 5C8 4.44772 8.44772 4 9 4C9.55228 4 10 4.44772 10 5Z" />
<path d="M7 8C7 8.55228 6.55228 9 6 9C5.44772 9 5 8.55228 5 8C5 7.44772 5.44772 7 6 7C6.55228 7 7 7.44772 7 8Z" />
<path d="M10 8C10 8.55228 9.55228 9 9 9C8.44772 9 8 8.55228 8 8C8 7.44772 8.44772 7 9 7C9.55228 7 10 7.44772 10 8Z" />
<path d="M7 11C7 11.5523 6.55228 12 6 12C5.44772 12 5 11.5523 5 11C5 10.4477 5.44772 10 6 10C6.55228 10 7 10.4477 7 11Z" />
<path d="M10 11C10 11.5523 9.55228 12 9 12C8.44772 12 8 11.5523 8 11C8 10.4477 8.44772 10 9 10C9.55228 10 10 10.4477 10 11Z" />
<path d="M7 14C7 14.5523 6.55228 15 6 15C5.44772 15 5 14.5523 5 14C5 13.4477 5.44772 13 6 13C6.55228 13 7 13.4477 7 14Z" />
<path d="M10 14C10 14.5523 9.55228 15 9 15C8.44772 15 8 14.5523 8 14C8 13.4477 8.44772 13 9 13C9.55228 13 10 13.4477 10 14Z" />
</svg>
