<svg width="16" height="16" viewBox="0 0 16 16" xmlns="http://www.w3.org/2000/svg">
<path d="M6.00153 5.5C6.00153 6.32843 5.32995 7 4.50153 7C3.6731 7 3.00153 6.32843 3.00153 5.5C3.00153 4.67157 3.6731 4 4.50153 4C5.32995 4 6.00153 4.67157 6.00153 5.5Z" />
<path d="M2.00153 1C0.896956 1 0.00152588 1.89543 0.00152588 3V13C0.00152588 14.1046 0.896956 15 2.00153 15H14.0015C15.1061 15 16.0015 14.1046 16.0015 13V3C16.0015 1.89543 15.1061 1 14.0015 1H2.00153ZM14.0015 2C14.5538 2 15.0015 2.44772 15.0015 3V9.50001L11.2251 7.5528C11.0326 7.45655 10.8002 7.49428 10.648 7.64646L6.93782 11.3566L4.27888 9.58399C4.08056 9.45178 3.8165 9.47793 3.64797 9.64646L1.00153 12V3C1.00153 2.44772 1.44924 2 2.00153 2H14.0015Z" />
</svg>
