<svg width="16" height="16" viewBox="0 0 16 16" xmlns="http://www.w3.org/2000/svg">
<path fill-rule="evenodd" clip-rule="evenodd" d="M16 1C16 0.447715 15.5523 0 15 0H13C12.4477 0 12 0.447715 12 1V15C12 15.5523 12.4477 16 13 16H15C15.5523 16 16 15.5523 16 15V1ZM15 15V1H13V15H15Z"/>
<path d="M10 1V15H8V8.68206C7.74762 9.20157 7.40793 9.67082 7 10.0707L7 15C7 15.5523 7.44772 16 8 16H10C10.5523 16 11 15.5523 11 15V1C11 0.447716 10.5523 0 10 0H8C7.44772 0 7 0.447716 7 1V2.92928C7.40793 3.32918 7.74762 3.79843 8 4.31794L8 1H10Z"/>
<path fill-rule="evenodd" clip-rule="evenodd" d="M3.5 10C1.567 10 0 8.433 0 6.5C0 4.567 1.567 3 3.5 3C5.433 3 7 4.567 7 6.5C7 8.433 5.433 10 3.5 10ZM5.5 6.5C5.5 6.77614 5.27614 7 5 7H4V8C4 8.27614 3.77614 8.5 3.5 8.5C3.22386 8.5 3 8.27614 3 8V7H2C1.72386 7 1.5 6.77614 1.5 6.5C1.5 6.22386 1.72386 6 2 6H3V5C3 4.72386 3.22386 4.5 3.5 4.5C3.77614 4.5 4 4.72386 4 5V6H5C5.27614 6 5.5 6.22386 5.5 6.5Z"/>
</svg>
