<svg width="16" height="16" viewBox="0 0 16 16" xmlns="http://www.w3.org/2000/svg">
<path fill-rule="evenodd" clip-rule="evenodd" d="M0 15C0 15.5523 0.447715 16 1 16H3C3.55228 16 4 15.5523 4 15V1C4 0.447715 3.55228 0 3 0H1C0.447715 0 0 0.447715 0 1V15ZM1 1V15H3V1H1Z"/>
<path d="M6 15V1H8V7.31794C8.25238 6.79843 8.59207 6.32918 9 5.92928L9 1C9 0.447716 8.55228 0 8 0H6C5.44772 0 5 0.447716 5 1V15C5 15.5523 5.44771 16 6 16H8C8.55228 16 9 15.5523 9 15V13.0707C8.59207 12.6708 8.25238 12.2016 8 11.6821L8 15H6Z"/>
<path fill-rule="evenodd" clip-rule="evenodd" d="M12.5 6C14.433 6 16 7.567 16 9.5C16 11.433 14.433 13 12.5 13C10.567 13 9 11.433 9 9.5C9 7.567 10.567 6 12.5 6ZM10.5 9.5C10.5 9.22386 10.7239 9 11 9H12V8C12 7.72386 12.2239 7.5 12.5 7.5C12.7761 7.5 13 7.72386 13 8V9H14C14.2761 9 14.5 9.22386 14.5 9.5C14.5 9.77614 14.2761 10 14 10H13V11C13 11.2761 12.7761 11.5 12.5 11.5C12.2239 11.5 12 11.2761 12 11V10H11C10.7239 10 10.5 9.77614 10.5 9.5Z"/>
</svg>
