<svg width="16" height="16" viewBox="0 0 16 16" xmlns="http://www.w3.org/2000/svg">
<path fill-rule="evenodd" clip-rule="evenodd" d="M1 16C0.447715 16 0 15.5523 0 15V13C0 12.4477 0.447715 12 1 12H15C15.5523 12 16 12.4477 16 13V15C16 15.5523 15.5523 16 15 16H1ZM15 15H1V13H15V15Z"/>
<path d="M1 10H15V8H8.68206C9.20157 7.74762 9.67082 7.40793 10.0707 7L15 7C15.5523 7 16 7.44772 16 8V10C16 10.5523 15.5523 11 15 11H1C0.447716 11 0 10.5523 0 10V8C0 7.44772 0.447716 7 1 7H2.92928C3.32918 7.40793 3.79843 7.74762 4.31794 8L1 8V10Z"/>
<path fill-rule="evenodd" clip-rule="evenodd" d="M10 3.5C10 1.567 8.433 0 6.5 0C4.567 0 3 1.567 3 3.5C3 5.433 4.567 7 6.5 7C8.433 7 10 5.433 10 3.5ZM6.5 5.5C6.77614 5.5 7 5.27614 7 5V4H8C8.27614 4 8.5 3.77614 8.5 3.5C8.5 3.22386 8.27614 3 8 3H7V2C7 1.72386 6.77614 1.5 6.5 1.5C6.22386 1.5 6 1.72386 6 2V3H5C4.72386 3 4.5 3.22386 4.5 3.5C4.5 3.77614 4.72386 4 5 4H6V5C6 5.27614 6.22386 5.5 6.5 5.5Z"/>
</svg>
