<svg width="16" height="16" viewBox="0 0 16 16" xmlns="http://www.w3.org/2000/svg">
<path fill-rule="evenodd" clip-rule="evenodd" d="M15 0C15.5523 0 16 0.447715 16 1V3C16 3.55228 15.5523 4 15 4H1C0.447715 4 0 3.55228 0 3V1C0 0.447715 0.447715 0 1 0H15ZM1 1H15V3H1V1Z"/>
<path d="M15 6H1V8H7.31794C6.79843 8.25238 6.32918 8.59207 5.92928 9L1 9C0.447716 9 0 8.55228 0 8V6C0 5.44772 0.447716 5 1 5H15C15.5523 5 16 5.44771 16 6V8C16 8.55228 15.5523 9 15 9H13.0707C12.6708 8.59207 12.2016 8.25238 11.6821 8L15 8V6Z"/>
<path fill-rule="evenodd" clip-rule="evenodd" d="M6 12.5C6 14.433 7.567 16 9.5 16C11.433 16 13 14.433 13 12.5C13 10.567 11.433 9 9.5 9C7.567 9 6 10.567 6 12.5ZM9.5 10.5C9.22386 10.5 9 10.7239 9 11V12H8C7.72386 12 7.5 12.2239 7.5 12.5C7.5 12.7761 7.72386 13 8 13H9V14C9 14.2761 9.22386 14.5 9.5 14.5C9.77614 14.5 10 14.2761 10 14V13H11C11.2761 13 11.5 12.7761 11.5 12.5C11.5 12.2239 11.2761 12 11 12H10V11C10 10.7239 9.77614 10.5 9.5 10.5Z"/>
</svg>
