<svg width="16" height="16" viewBox="0 0 16 16"  xmlns="http://www.w3.org/2000/svg">
<g clip-path="url(#clip0_3_24)">
<path d="M10 0C11.1046 0 12 0.89543 12 2V5.875H11V2C11 1.44772 10.5523 1 10 1H2C1.44772 1 1 1.44772 1 2V14C1 14.5523 1.44772 15 2 15H6.19531C6.45651 15.4548 6.86393 15.8193 7.37207 16H2C0.89543 16 0 15.1046 0 14V2C0 0.89543 0.89543 0 2 0H10ZM5.875 12H3.5C3.22386 12 3 11.7761 3 11.5C3 11.2239 3.22386 11 3.5 11H5.875V12ZM5.88672 9C5.87965 9.04069 5.875 9.08232 5.875 9.125V10H3.5C3.22386 10 3 9.77614 3 9.5C3 9.22386 3.22386 9 3.5 9H5.88672ZM5.39258 6.54492C5.30158 6.71829 5.25 6.91561 5.25 7.125V7.875C5.25 8.00594 5.27219 8.13148 5.30957 8.25H3.5C3.22386 8.25 3 8.02614 3 7.75V7.25C3.00294 7.24757 4.53957 5.97599 4.63867 6.04199L5.39258 6.54492ZM8.11133 5.02637L9.75781 5.875H7.02148L7.82324 5.07324C7.89923 4.99726 8.01517 4.97849 8.11133 5.02637ZM4.75 4C5.16421 4 5.5 4.33579 5.5 4.75C5.5 5.16421 5.16421 5.5 4.75 5.5C4.33579 5.5 4 5.16421 4 4.75C4 4.33579 4.33579 4 4.75 4Z" />
<path d="M13.9018 15.375C14.7368 15.375 15.375 14.6532 15.375 13.8125V9.125H6.625V13.8125C6.625 14.6532 7.26317 15.375 8.09821 15.375H13.9018ZM9.4375 10.375H12.5625C12.7351 10.375 12.875 10.5149 12.875 10.6875C12.875 10.8601 12.7351 11 12.5625 11H9.4375C9.26491 11 9.125 10.8601 9.125 10.6875C9.125 10.5149 9.26491 10.375 9.4375 10.375Z"/>
<path d="M6.5 6.625C6.22386 6.625 6 6.84886 6 7.125V7.875C6 8.15114 6.22386 8.375 6.5 8.375H15.5C15.7761 8.375 16 8.15114 16 7.875V7.125C16 6.84886 15.7761 6.625 15.5 6.625H6.5Z" />
</g>
<defs>
<clipPath id="clip0_3_24">
<rect width="16" height="16" />
</clipPath>
</defs>
</svg>
