<svg width="16" height="16" viewBox="0 0 16 16" xmlns="http://www.w3.org/2000/svg">
<path d="M0 8C0 5.79086 1.79086 4 4 4C5.48128 4 6.77364 4.80519 7.46476 6H14C14.1326 6 14.2598 6.05268 14.3536 6.14645L15.8536 7.64645C16.0488 7.84171 16.0488 8.15829 15.8536 8.35355L14.3536 9.85355C14.1583 10.0488 13.8417 10.0488 13.6464 9.85355L13 9.20711L12.3536 9.85355C12.1583 10.0488 11.8417 10.0488 11.6464 9.85355L11 9.20711L10.3536 9.85355C10.1583 10.0488 9.84171 10.0488 9.64645 9.85355L9 9.20711L8.35355 9.85355C8.25979 9.94732 8.13261 10 8 10H7.46476C6.77364 11.1948 5.48128 12 4 12C1.79086 12 0 10.2091 0 8ZM4 5C2.34315 5 1 6.34315 1 8C1 9.65685 2.34315 11 4 11C5.19599 11 6.22952 10.3002 6.71155 9.28545C6.79438 9.1111 6.97016 9 7.16318 9H7.79289L8.64645 8.14645C8.84171 7.95118 9.15829 7.95118 9.35355 8.14645L10 8.79289L10.6464 8.14645C10.8417 7.95118 11.1583 7.95118 11.3536 8.14645L12 8.79289L12.6464 8.14645C12.8417 7.95118 13.1583 7.95118 13.3536 8.14645L14 8.79289L14.7929 8L13.7929 7H7.16318C6.97016 7 6.79438 6.8889 6.71155 6.71455C6.22952 5.69984 5.19599 5 4 5Z" />
<path d="M4 8C4 8.55228 3.55228 9 3 9C2.44772 9 2 8.55228 2 8C2 7.44772 2.44772 7 3 7C3.55228 7 4 7.44772 4 8Z" />
</svg>
