<svg width="16" height="16" viewBox="0 0 16 16" xmlns="http://www.w3.org/2000/svg">
<path d="M14 5C14.5523 5 15 5.44772 15 6V11C15 11.5523 14.5523 12 14 12H2C1.44772 12 1 11.5523 1 11V6C1 5.44772 1.44772 5 2 5H14ZM2 4C0.895431 4 0 4.89543 0 6V11C0 12.1046 0.895431 13 2 13H14C15.1046 13 16 12.1046 16 11V6C16 4.89543 15.1046 4 14 4H2Z" />
<path d="M13 10.25C13 10.1119 13.1119 10 13.25 10H13.75C13.8881 10 14 10.1119 14 10.25V10.75C14 10.8881 13.8881 11 13.75 11H13.25C13.1119 11 13 10.8881 13 10.75V10.25Z" />
<path d="M13 8.25C13 8.11193 13.1119 8 13.25 8H13.75C13.8881 8 14 8.11193 14 8.25V8.75C14 8.88807 13.8881 9 13.75 9H13.25C13.1119 9 13 8.88807 13 8.75V8.25Z" />
<path d="M8 8.25C8 8.11193 8.11193 8 8.25 8H8.75C8.88807 8 9 8.11193 9 8.25V8.75C9 8.88807 8.88807 9 8.75 9H8.25C8.11193 9 8 8.88807 8 8.75V8.25Z" />
<path d="M10 8.25C10 8.11193 10.1119 8 10.25 8H11.75C11.8881 8 12 8.11193 12 8.25V8.75C12 8.88807 11.8881 9 11.75 9H10.25C10.1119 9 10 8.88807 10 8.75V8.25Z" />
<path d="M11 10.25C11 10.1119 11.1119 10 11.25 10H11.75C11.8881 10 12 10.1119 12 10.25V10.75C12 10.8881 11.8881 11 11.75 11H11.25C11.1119 11 11 10.8881 11 10.75V10.25Z" />
<path d="M6 8.25C6 8.11193 6.11193 8 6.25 8H6.75C6.88807 8 7 8.11193 7 8.25V8.75C7 8.88807 6.88807 9 6.75 9H6.25C6.11193 9 6 8.88807 6 8.75V8.25Z" />
<path d="M4 8.25C4 8.11193 4.11193 8 4.25 8H4.75C4.88807 8 5 8.11193 5 8.25V8.75C5 8.88807 4.88807 9 4.75 9H4.25C4.11193 9 4 8.88807 4 8.75V8.25Z" />
<path d="M2 8.25C2 8.11193 2.11193 8 2.25 8H2.75C2.88807 8 3 8.11193 3 8.25V8.75C3 8.88807 2.88807 9 2.75 9H2.25C2.11193 9 2 8.88807 2 8.75V8.25Z" />
<path d="M13 6.25C13 6.11193 13.1119 6 13.25 6H13.75C13.8881 6 14 6.11193 14 6.25V6.75C14 6.88807 13.8881 7 13.75 7H13.25C13.1119 7 13 6.88807 13 6.75V6.25Z" />
<path d="M11 6.25C11 6.11193 11.1119 6 11.25 6H11.75C11.8881 6 12 6.11193 12 6.25V6.75C12 6.88807 11.8881 7 11.75 7H11.25C11.1119 7 11 6.88807 11 6.75V6.25Z" />
<path d="M9 6.25C9 6.11193 9.11193 6 9.25 6H9.75C9.88807 6 10 6.11193 10 6.25V6.75C10 6.88807 9.88807 7 9.75 7H9.25C9.11193 7 9 6.88807 9 6.75V6.25Z" />
<path d="M7 6.25C7 6.11193 7.11193 6 7.25 6H7.75C7.88807 6 8 6.11193 8 6.25V6.75C8 6.88807 7.88807 7 7.75 7H7.25C7.11193 7 7 6.88807 7 6.75V6.25Z" />
<path d="M5 6.25C5 6.11193 5.11193 6 5.25 6H5.75C5.88807 6 6 6.11193 6 6.25V6.75C6 6.88807 5.88807 7 5.75 7H5.25C5.11193 7 5 6.88807 5 6.75V6.25Z" />
<path d="M2 6.25C2 6.11193 2.11193 6 2.25 6H3.75C3.88807 6 4 6.11193 4 6.25V6.75C4 6.88807 3.88807 7 3.75 7H2.25C2.11193 7 2 6.88807 2 6.75V6.25Z" />
<path d="M2 10.25C2 10.1119 2.11193 10 2.25 10H2.75C2.88807 10 3 10.1119 3 10.25V10.75C3 10.8881 2.88807 11 2.75 11H2.25C2.11193 11 2 10.8881 2 10.75V10.25Z" />
<path d="M4 10.25C4 10.1119 4.11193 10 4.25 10H9.75C9.88807 10 10 10.1119 10 10.25V10.75C10 10.8881 9.88807 11 9.75 11H4.25C4.11193 11 4 10.8881 4 10.75V10.25Z" />
</svg>
