<svg width="16" height="16" viewBox="0 0 16 16" xmlns="http://www.w3.org/2000/svg">
<path d="M5.52032 0.358917C5.58291 0.146125 5.7782 0 6 0H10C10.1607 0 10.3116 0.0772606 10.4056 0.207645C10.4996 0.338029 10.5252 0.50564 10.4743 0.658114L8.69372 6H12.5C12.691 6 12.8653 6.10878 12.9492 6.28032C13.0331 6.45187 13.0119 6.65623 12.8947 6.80697L5.89468 15.807C5.74649 15.9975 5.48334 16.055 5.26922 15.9436C5.05509 15.8321 4.95113 15.5837 5.02211 15.353L6.82302 9.5H3.5C3.34243 9.5 3.19407 9.42572 3.09967 9.29955C3.00526 9.17338 2.97586 9.01009 3.02032 8.85892L5.52032 0.358917ZM6.37412 1L4.16824 8.5H7.5C7.65868 8.5 7.80793 8.57531 7.9022 8.70295C7.99647 8.83058 8.02456 8.99539 7.97789 9.14704L6.78016 13.0397L11.4777 7H8C7.83928 7 7.68836 6.92274 7.59438 6.79236C7.50041 6.66197 7.47484 6.49436 7.52566 6.34189L9.30629 1H6.37412Z" />
</svg>
