<svg width="16" height="16" viewBox="0 0 16 16"  xmlns="http://www.w3.org/2000/svg">
<path d="M4.71488 6.54244L3.34312 7.9142C2.17155 9.08577 2.17155 10.9853 3.34312 12.1568C4.51469 13.3284 6.41419 13.3284 7.58576 12.1568L9.41419 10.3284C10.5858 9.15684 10.5858 7.25735 9.41419 6.08577C9.16625 5.83784 8.88572 5.64237 8.58638 5.49938L7.99998 6.08578C7.939 6.14675 7.88754 6.21365 7.8456 6.28461C8.16104 6.37499 8.45862 6.54442 8.70708 6.79288C9.48813 7.57393 9.48813 8.84026 8.70708 9.62131L6.87866 11.4497C6.09761 12.2308 4.83128 12.2308 4.05023 11.4497C3.26918 10.6687 3.26918 9.40236 4.05023 8.62131L4.84283 7.8287C4.73064 7.40858 4.68799 6.97375 4.71488 6.54244Z" />
<path d="M6.58576 4.67156C5.41419 5.84313 5.41419 7.74263 6.58576 8.9142C6.8337 9.16214 7.11424 9.3576 7.41358 9.5006L8.18917 8.72501C7.86083 8.63732 7.55046 8.46468 7.29287 8.2071C6.51182 7.42605 6.51182 6.15972 7.29287 5.37867L9.1213 3.55024C9.90235 2.76919 11.1687 2.76919 11.9497 3.55024C12.7308 4.33129 12.7308 5.59762 11.9497 6.37867L11.1571 7.17128C11.2693 7.5914 11.312 8.02623 11.2851 8.45754L12.6568 7.08577C13.8284 5.9142 13.8284 4.01471 12.6568 2.84313C11.4853 1.67156 9.58576 1.67156 8.41419 2.84313L6.58576 4.67156Z" />
</svg>
