<svg width="16" height="16" viewBox="0 0 16 16" xmlns="http://www.w3.org/2000/svg">
<path d="M0 1.14614C0 0.513313 0.526012 0 1.17491 0H14.8251C15.474 0 16 0.513315 16 1.14614V14.8539C16 15.4869 15.474 16 14.8251 16L1.17491 16C0.526012 16 0 15.4869 0 14.8539V1.14614ZM4.94338 13.3937V6.16876H2.54196V13.3937H4.94338ZM3.74266 5.18232C4.58008 5.18232 5.10131 4.62753 5.10131 3.9342C5.0857 3.22527 4.58008 2.68587 3.75854 2.68587C2.93709 2.68587 2.4 3.22527 2.4 3.9342C2.4 4.62753 2.92112 5.18232 3.72701 5.18232H3.74266ZM8.6514 13.3937V9.35897C8.6514 9.14304 8.667 8.92732 8.73042 8.77296C8.90401 8.34153 9.29915 7.89471 9.96255 7.89471C10.8315 7.89471 11.1791 8.55725 11.1791 9.52851V13.3937H13.5803V9.251C13.5803 7.03184 12.3956 5.99922 10.8156 5.99922C9.54177 5.99922 8.9706 6.69937 8.65146 7.19167V7.21656H8.63543C8.6407 7.20832 8.64605 7.20003 8.65146 7.19167V6.16876H6.25007C6.28158 6.8467 6.25007 13.3937 6.25007 13.3937H8.6514Z" />
</svg>
