<svg width="20" height="20" viewBox="0 0 20 20" xmlns="http://www.w3.org/2000/svg">
<path d="M7.94272 6.875H5C2.92893 6.875 1.25 8.55393 1.25 10.625C1.25 12.6961 2.92893 14.375 5 14.375H8.75C10.8211 14.375 12.5 12.6961 12.5 10.625C12.5 10.1867 12.4248 9.76597 12.2866 9.375H11.25C11.1422 9.375 11.0376 9.38864 10.9378 9.4143C11.1367 9.773 11.25 10.1858 11.25 10.625C11.25 12.0057 10.1307 13.125 8.75 13.125H5C3.61929 13.125 2.5 12.0057 2.5 10.625C2.5 9.24429 3.61929 8.125 5 8.125H6.91891C7.19108 7.65449 7.53772 7.23245 7.94272 6.875Z" />
<path d="M11.25 6.875C9.17893 6.875 7.5 8.55393 7.5 10.625C7.5 11.0633 7.57519 11.484 7.71338 11.875H9.08446C8.87174 11.5073 8.75 11.0804 8.75 10.625C8.75 9.24429 9.86929 8.125 11.25 8.125H15C16.3807 8.125 17.5 9.24429 17.5 10.625C17.5 12.0057 16.3807 13.125 15 13.125H13.0811C12.8089 13.5955 12.4623 14.0175 12.0573 14.375H15C17.0711 14.375 18.75 12.6961 18.75 10.625C18.75 8.55393 17.0711 6.875 15 6.875H11.25Z" />
</svg>
