<svg width="16" height="16" viewBox="0 0 16 16" xmlns="http://www.w3.org/2000/svg">
<path fill-rule="evenodd" clip-rule="evenodd" d="M5 11.5C5 11.2239 5.22386 11 5.5 11H14.5C14.7761 11 15 11.2239 15 11.5C15 11.7761 14.7761 12 14.5 12H5.5C5.22386 12 5 11.7761 5 11.5Z" />
<path fill-rule="evenodd" clip-rule="evenodd" d="M5 7.5C5 7.22386 5.22386 7 5.5 7H14.5C14.7761 7 15 7.22386 15 7.5C15 7.77614 14.7761 8 14.5 8H5.5C5.22386 8 5 7.77614 5 7.5Z" />
<path fill-rule="evenodd" clip-rule="evenodd" d="M5 3.5C5 3.22386 5.22386 3 5.5 3H14.5C14.7761 3 15 3.22386 15 3.5C15 3.77614 14.7761 4 14.5 4H5.5C5.22386 4 5 3.77614 5 3.5Z" />
<path d="M1.71289 11.8652V11.3906H2C2.2168 11.3906 2.36328 11.2539 2.36328 11.0742C2.36328 10.8887 2.20508 10.7637 2.00195 10.7637C1.7793 10.7637 1.63477 10.916 1.62891 11.0742H1.03906C1.05469 10.6074 1.41211 10.2871 2.02539 10.2871C2.61328 10.2852 2.97852 10.5781 2.98242 10.9902C2.98633 11.3691 2.67969 11.5547 2.49023 11.584V11.6172C2.74414 11.6406 3.05469 11.832 3.05859 12.248C3.0625 12.7812 2.55664 13.0488 2.00781 13.0488C1.35156 13.0488 1.00781 12.6777 1 12.2539H1.58203C1.58984 12.4316 1.76758 12.5605 2.00391 12.5625C2.25781 12.5625 2.42773 12.418 2.42578 12.2129C2.42383 12.0176 2.27148 11.8652 2.01172 11.8652H1.71289Z" />
<path d="M1.70898 7.16602H1.10547V7.13086C1.10547 6.72266 1.40039 6.28711 2.0625 6.28711C2.64648 6.28711 3.02344 6.61328 3.02344 7.04297C3.02344 7.43164 2.76562 7.66016 2.54688 7.89062L2.00977 8.46289V8.49219H3.06445V9H1.14258V8.60547L2.09961 7.61523C2.23828 7.47266 2.39258 7.31055 2.39258 7.10742C2.39258 6.92773 2.24609 6.78711 2.05078 6.78711C1.83594 6.78711 1.70898 6.94727 1.70898 7.125C1.70898 7.13867 1.70898 7.15625 1.70898 7.16602Z" />
<path d="M2.56367 5H1.92891V2.92383H1.89766L1.3 3.34375V2.77734L1.92891 2.33398H2.56367V5Z" />
</svg>
