<svg width="42" height="38" viewBox="0 0 42 38" xmlns="http://www.w3.org/2000/svg">
<path d="M21.4052 7.58002L14.2066 0L23.5028 5.53008L29.7003 15.8751L32.8468 13.849L28.7946 13.1578L31.8578 12.2175L29.3905 11.2747L37.5735 10.463L38.7344 10.1067L41.6425 8.27128L40.546 10.1067L42 9.46311L39.2754 12.2581L36.9705 16.1612L34.849 20.5948L33.8002 22.7401L20.7378 28.58L0 37.8048L11.4185 28.655L0.786606 30.2724L13.1226 25.2713L4.62429 21.5721L18.235 23.193L21.4529 12.395L13.6345 13.6345L20.558 9.95587L12.6572 5.19637L21.4052 7.58002Z" />
</svg>
