<svg width="16" height="16" viewBox="0 0 16 16" xmlns="http://www.w3.org/2000/svg">
<path d="M9.49998 2.67157C9.49998 2.94772 9.72384 3.17157 9.99998 3.17157C10.2761 3.17157 10.5 2.94772 10.5 2.67157V0.843147C10.5 0.567004 10.2761 0.343147 9.99998 0.343147C9.72384 0.343147 9.49998 0.567005 9.49998 0.843147V2.67157Z" />
<path d="M14 2.70711C14.1952 2.51185 14.1952 2.19526 14 2C13.8047 1.80474 13.4881 1.80474 13.2929 2L12 3.29289C11.8047 3.48816 11.8047 3.80474 12 4C12.1952 4.19526 12.5118 4.19526 12.7071 4L14 2.70711Z" />
<path d="M7.29287 4C7.48814 4.19527 7.80472 4.19527 7.99998 4C8.19524 3.80474 8.19524 3.48816 7.99998 3.2929L6.70709 2C6.51182 1.80474 6.19524 1.80474 5.99998 2C5.80472 2.19526 5.80472 2.51185 5.99998 2.70711L7.29287 4Z" />
<path d="M6.67155 6.5C6.9477 6.5 7.17155 6.27614 7.17155 6C7.17155 5.72386 6.94769 5.5 6.67155 5.5H4.84312C4.56698 5.5 4.34313 5.72386 4.34313 6C4.34313 6.27614 4.56698 6.5 4.84313 6.5H6.67155Z" />
<path d="M15.1568 6.5C15.433 6.5 15.6568 6.27614 15.6568 6C15.6568 5.72386 15.433 5.5 15.1568 5.5H13.3284C13.0523 5.5 12.8284 5.72386 12.8284 6C12.8284 6.27614 13.0523 6.5 13.3284 6.5H15.1568Z" />
<path d="M13.2929 10C13.4881 10.1953 13.8047 10.1953 14 10C14.1952 9.80474 14.1952 9.48816 14 9.2929L12.7071 8C12.5118 7.80474 12.1952 7.80474 12 8C11.8047 8.19527 11.8047 8.51185 12 8.70711L13.2929 10Z" />
<path d="M9.49998 11.1569C9.49998 11.433 9.72384 11.6569 9.99998 11.6569C10.2761 11.6569 10.5 11.433 10.5 11.1569V9.32843C10.5 9.05229 10.2761 8.82843 9.99998 8.82843C9.72384 8.82843 9.49998 9.05229 9.49998 9.32843V11.1569Z" />
<path d="M11.3536 6.06066C11.5488 5.8654 11.5488 5.54881 11.3536 5.35355L10.6464 4.64645C10.4512 4.45118 10.1346 4.45118 9.93934 4.64645L8.64645 5.93934C8.45118 6.1346 8.45118 6.45118 8.64645 6.64645L9.35355 7.35355C9.54882 7.54881 9.8654 7.54881 10.0607 7.35355L11.3536 6.06066Z" />
<path d="M8.35355 9.06066C8.54882 8.8654 8.54882 8.54881 8.35355 8.35355L7.64645 7.64645C7.45118 7.45118 7.1346 7.45118 6.93934 7.64645L0.646446 13.9393C0.451184 14.1346 0.451185 14.4512 0.646447 14.6464L1.35355 15.3536C1.54882 15.5488 1.8654 15.5488 2.06066 15.3536L8.35355 9.06066Z" />
</svg>
