<svg width="16" height="16" viewBox="0 0 16 16"  xmlns="http://www.w3.org/2000/svg">
<path d="M1 6.30579C1 5.80992 1.08264 5.31405 1.24793 4.98347C1.41322 4.57025 1.57851 4.23967 1.90909 3.90909C2.15702 3.57851 2.57025 3.41322 2.98347 3.24793C3.39669 3.08264 3.80992 3 4.30579 3C4.71901 3 5.13223 3.08264 5.46281 3.16529C5.79339 3.24793 6.12397 3.49587 6.3719 3.66116C6.61984 3.82645 6.86777 4.15702 7.03306 4.4876C7.19835 4.81818 7.28099 5.2314 7.28099 5.64463C7.28099 5.97521 7.28099 6.22314 7.19835 6.47107C7.1157 6.71901 7.03306 6.8843 6.95041 7.04959C6.86777 7.21488 6.70248 7.38017 6.53719 7.46281C6.3719 7.6281 6.20661 7.71074 6.12397 7.87603C5.95868 8.04132 5.79339 8.12397 5.6281 8.28926C5.46281 8.45455 5.38017 8.53719 5.21488 8.78512C5.13223 8.95041 5.04959 9.1157 4.96694 9.36364C4.8843 9.61157 4.8843 9.8595 4.8843 10.1901H3.39669C3.39669 9.77686 3.39669 9.44628 3.47934 9.19835C3.47934 8.95041 3.56198 8.70248 3.64463 8.45455C3.72727 8.20661 3.80992 8.04132 3.97521 7.87603C4.1405 7.71074 4.22314 7.54545 4.47107 7.38017C4.63636 7.21488 4.71901 7.13223 4.8843 7.04959C5.04959 6.96694 5.13223 6.80165 5.21488 6.71901C5.29752 6.63636 5.38017 6.47107 5.46281 6.30579C5.54545 6.1405 5.54545 5.97521 5.54545 5.72727C5.54545 5.47934 5.46281 5.23141 5.38017 5.06612C5.29752 4.90083 5.21488 4.73554 5.04959 4.65289C4.8843 4.57025 4.80165 4.4876 4.63636 4.40496C4.47107 4.32231 4.30579 4.32231 4.22314 4.32231C3.64463 4.32231 3.23141 4.4876 2.98347 4.90083C2.73554 5.23141 2.57025 5.72727 2.57025 6.38843H1V6.30579ZM3.14876 11.2645H4.96694V13H3.14876V11.2645ZM8.43802 6.30579C8.43802 5.80992 8.52066 5.31405 8.68595 4.98347C8.85124 4.57025 9.01653 4.23967 9.34711 3.90909C9.59504 3.57851 10.0083 3.41322 10.4215 3.24793C10.8347 3.08264 11.2479 3 11.7438 3C12.157 3 12.5702 3.08264 12.9008 3.16529C13.2314 3.24793 13.562 3.49587 13.8099 3.66116C14.0579 3.82645 14.3058 4.15702 14.4711 4.4876C14.6364 4.81818 14.719 5.2314 14.719 5.64463C14.719 5.97521 14.719 6.22314 14.6364 6.47107C14.5537 6.71901 14.4711 6.8843 14.3884 7.04959C14.3058 7.21488 14.1405 7.38017 13.9752 7.46281C13.8099 7.6281 13.6446 7.71074 13.562 7.87603C13.3967 8.04132 13.2314 8.12397 13.0661 8.28926C12.9008 8.45455 12.8182 8.53719 12.6529 8.78512C12.5702 8.95041 12.4876 9.1157 12.405 9.36364C12.3223 9.61157 12.3223 9.8595 12.3223 10.1901H10.8347C10.8347 9.77686 10.8347 9.44628 10.9174 9.19835C10.9174 8.95041 11 8.70248 11.0826 8.45455C11.1653 8.20661 11.2479 8.04132 11.4132 7.87603C11.5785 7.71074 11.6612 7.54545 11.9091 7.38017C12.0744 7.21488 12.157 7.13223 12.3223 7.04959C12.4876 6.96694 12.5702 6.80165 12.6529 6.71901C12.7355 6.63636 12.8182 6.47107 12.9008 6.30579C12.9835 6.1405 12.9835 5.97521 12.9835 5.72727C12.9835 5.47934 12.9008 5.23141 12.8182 5.06612C12.7355 4.90083 12.5702 4.73554 12.4876 4.57025C12.3223 4.4876 12.2397 4.40496 12.0744 4.32231C11.9091 4.23967 11.7438 4.23967 11.6612 4.23967C11.0826 4.23967 10.6694 4.40496 10.4215 4.81818C10.1736 5.14876 10.0083 5.64463 10.0083 6.30579H8.43802ZM10.5868 11.2645H12.405V13H10.5868V11.2645Z" />
</svg>
