<svg width="15" height="12" viewBox="0 0 15 12"  xmlns="http://www.w3.org/2000/svg">
<path fill-rule="evenodd" clip-rule="evenodd" d="M8 5.5C6.84134 5.5 6.14384 5.21336 5.65357 4.82631C5.14302 4.42324 4.811 3.87984 4.42875 3.24275L4.41083 3.21289C4.04739 2.60699 3.63205 1.91458 2.96607 1.38881C2.26884 0.838364 1.34134 0.5 0 0.5V1.5C1.15866 1.5 1.85616 1.78664 2.34643 2.17369C2.85698 2.57676 3.189 3.12016 3.57125 3.75725L3.58917 3.78711C3.95261 4.39301 4.36795 5.08542 5.03393 5.61119C5.21774 5.75631 5.41755 5.88668 5.63674 6C5.41755 6.11332 5.21774 6.24369 5.03393 6.38881C4.36795 6.91458 3.95261 7.60699 3.58917 8.21289L3.57125 8.24275C3.189 8.87984 2.85698 9.42324 2.34643 9.82631C1.85616 10.2134 1.15866 10.5 0 10.5V11.5C1.34134 11.5 2.26884 11.1616 2.96607 10.6112C3.63205 10.0854 4.04739 9.39301 4.41083 8.78711L4.42875 8.75725C4.811 8.12016 5.14302 7.57676 5.65357 7.17369C6.14384 6.78664 6.84134 6.5 8 6.5H12.7929L9.64645 9.64645L10.3536 10.3536L14.7071 6.00001L10.3536 1.64645L9.64645 2.35356L12.7929 5.5H8Z" />
</svg>
