<svg width="16" height="16" viewBox="0 0 16 16" xmlns="http://www.w3.org/2000/svg">
<path fill-rule="evenodd" clip-rule="evenodd" d="M1.09278e-07 4.5C1.09278e-07 4.77614 0.223858 5 0.5 5L4.29289 5L3.14645 6.14645C2.95118 6.34171 2.95118 6.65829 3.14645 6.85355C3.34171 7.04882 3.65829 7.04882 3.85355 6.85355L5.85355 4.85355C6.04882 4.65829 6.04882 4.34171 5.85355 4.14645L3.85355 2.14645C3.65829 1.95118 3.34171 1.95118 3.14645 2.14645C2.95118 2.34171 2.95118 2.65829 3.14645 2.85355L4.29289 4L0.5 4C0.223858 4 1.09278e-07 4.22386 1.09278e-07 4.5Z"/>
<path fill-rule="evenodd" clip-rule="evenodd" d="M16 4.5C16 4.77614 15.7761 5 15.5 5L11.7071 5L12.8536 6.14645C13.0488 6.34171 13.0488 6.65829 12.8536 6.85355C12.6583 7.04882 12.3417 7.04882 12.1464 6.85355L10.1464 4.85355C9.95118 4.65829 9.95118 4.34171 10.1464 4.14645L12.1464 2.14645C12.3417 1.95118 12.6583 1.95118 12.8536 2.14645C13.0488 2.34171 13.0488 2.65829 12.8536 2.85355L11.7071 4L15.5 4C15.7761 4 16 4.22386 16 4.5Z"/>
<path fill-rule="evenodd" clip-rule="evenodd" d="M6 7L7 7L7 8L7 9L1 9L1 13L6 13L7 13L7 14L7 15L6 15L6 14L1 14C0.447716 14 -2.86409e-07 13.5523 -2.62268e-07 13L-8.74228e-08 9C-6.32817e-08 8.44772 0.447716 8 1 8L6 8L6 7ZM15 13L10 13L9 13L9 14L9 15L10 15L10 14L15 14C15.5523 14 16 13.5523 16 13L16 9C16 8.44772 15.5523 8 15 8L10 8L10 7L9 7L9 8L9 9L15 9L15 13ZM14 10L2 10L2 12L14 12L14 10Z"/>
</svg>
