<svg width="16" height="16" viewBox="0 0 16 16" xmlns="http://www.w3.org/2000/svg">
<path d="M6.0003 0.278304C6.1825 0.500435 6.2447 0.83521 6.0807 1.13613C5.52011 2.16474 5.20151 3.34302 5.20151 4.59686C5.20151 8.6173 8.4803 11.8727 12.5202 11.8727C13.0466 11.8727 13.5594 11.8175 14.0534 11.7129C14.3912 11.6413 14.6984 11.794 14.8631 12.0286C15.033 12.2707 15.0686 12.6318 14.8318 12.9224C13.3034 14.7985 10.9648 16 8.34357 16C3.73342 16 0 12.2863 0 7.71002C0 4.2658 2.11415 1.31197 5.12354 0.0600878C5.47124 -0.0845512 5.81229 0.0490932 6.0003 0.278304ZM4.85797 1.31064C2.575 2.54229 1.02491 4.94609 1.02491 7.71002C1.02491 11.7305 4.30371 14.9859 8.34357 14.9859C10.3796 14.9859 12.2216 14.1598 13.5491 12.8244C13.2118 12.8656 12.8684 12.8868 12.5202 12.8868C7.91002 12.8868 4.17659 9.17319 4.17659 4.59686C4.17659 3.43014 4.41946 2.31873 4.85797 1.31064Z" />
<path d="M10.7943 3.14824C10.8602 2.95059 11.1398 2.95059 11.2057 3.14824L11.593 4.3101C11.7656 4.828 12.172 5.2344 12.6899 5.40703L13.8518 5.79432C14.0494 5.86021 14.0494 6.13978 13.8518 6.20567L12.6899 6.59296C12.172 6.76559 11.7656 7.17199 11.593 7.68989L11.2057 8.85176C11.1398 9.04941 10.8602 9.04942 10.7943 8.85176L10.407 7.68988C10.2344 7.17198 9.82801 6.76559 9.31012 6.59296L8.14824 6.20567C7.95059 6.13978 7.95059 5.86021 8.14824 5.79432L9.31012 5.40703C9.82802 5.2344 10.2344 4.82801 10.407 4.31011L10.7943 3.14824Z" />
<path d="M13.8629 0.0988265C13.9068 -0.032943 14.0932 -0.0329419 14.1371 0.098828L14.3953 0.873401C14.5104 1.21867 14.7813 1.4896 15.1266 1.60469L15.9012 1.86288C16.0329 1.9068 16.0329 2.09319 15.9012 2.13711L15.1266 2.39531C14.7813 2.51039 14.5104 2.78133 14.3953 3.12659L14.1371 3.90117C14.0932 4.03294 13.9068 4.03294 13.8629 3.90117L13.6047 3.12659C13.4896 2.78132 13.2187 2.5104 12.8734 2.39531L12.0988 2.13711C11.9671 2.09319 11.9671 1.9068 12.0988 1.86288L12.8734 1.60469C13.2187 1.4896 13.4896 1.21867 13.6047 0.873408L13.8629 0.0988265Z" />
</svg>
