<svg width="16" height="16" viewBox="0 0 16 16" xmlns="http://www.w3.org/2000/svg">
<path fill-rule="evenodd" clip-rule="evenodd" d="M15.1465 15.8536L0.146454 0.853591L0.853561 0.146484L15.8536 15.1465L15.1465 15.8536Z" />
<path fill-rule="evenodd" clip-rule="evenodd" d="M11.6023 13.0165L10.6023 12.0165H3.44789C3.85161 10.7265 4.07662 9.36841 4.20495 8.25619C4.29466 7.47875 4.33947 6.79908 4.36192 6.31267C4.37166 6.10169 4.37722 5.92644 4.38039 5.79462L4.10233 5.51656H3.38462C3.7286 5.51656 3.9543 5.51658 4.10233 5.51656L3.43148 4.84571C3.40088 5.05579 3.38462 5.27913 3.38462 5.51656C3.38462 5.51656 3.38462 9.111 2.39617 12.0165C2.27865 12.362 2.14714 12.6978 2.00001 13.0165H11.6023ZM4.34269 2.92849L5.04991 3.63571C5.13367 3.54675 5.22224 3.4662 5.31375 3.39268C5.86677 2.94839 6.58822 2.7183 7.18952 2.60704L8 2.45708L8.81049 2.60704C9.41179 2.7183 10.1332 2.94839 10.6863 3.39268C11.1964 3.8025 11.6154 4.4309 11.6154 5.51656L11.6154 5.51859L11.6154 5.52226L11.6154 5.53447L11.6158 5.57786C11.6162 5.61504 11.6169 5.66849 11.6183 5.73675C11.6212 5.87323 11.6269 6.06915 11.6381 6.31267C11.6605 6.79908 11.7054 7.47875 11.7951 8.25619C11.8838 9.02547 12.0188 9.91239 12.2272 10.813L13.6985 12.2843C13.666 12.1958 13.6344 12.1065 13.6038 12.0165C12.6154 9.111 12.6154 5.51656 12.6154 5.51656C12.6154 2.71346 10.3488 1.87471 8.99243 1.62373C8.99743 1.5832 9.00001 1.54192 9.00001 1.50004C9.00001 0.947753 8.55229 0.500038 8.00001 0.500038C7.44772 0.500038 7.00001 0.947753 7.00001 1.50004C7.00001 1.54192 7.00258 1.5832 7.00758 1.62373C6.21883 1.76967 5.12232 2.11437 4.34269 2.92849ZM11.6154 5.51656H12.6154C11.6154 5.51656 11.6154 5.51656 11.6154 5.51656ZM6.00001 14C6.00001 15.1046 6.89544 16 8.00001 16C9.10458 16 10 15.1046 10 14H6.00001Z" />
</svg>
