<svg width="16" height="16" viewBox="0 0 16 16" xmlns="http://www.w3.org/2000/svg">
<path fill-rule="evenodd" clip-rule="evenodd" d="M11.8855 9.45954C12.0661 8.84682 12.9339 8.84682 13.1145 9.45954L13.1583 9.60814C13.2737 9.99964 13.7209 10.1849 14.0793 9.98963L14.2154 9.91553C14.7763 9.60997 15.39 10.2237 15.0845 10.7846L15.0104 10.9207C14.8151 11.2791 15.0004 11.7263 15.3919 11.8417L15.5405 11.8855C16.1532 12.0661 16.1532 12.9339 15.5405 13.1145L15.3919 13.1583C15.0004 13.2737 14.8151 13.7209 15.0104 14.0793L15.0845 14.2154C15.39 14.7763 14.7763 15.39 14.2154 15.0845L14.0793 15.0104C13.7209 14.8151 13.2737 15.0004 13.1583 15.3919L13.1145 15.5405C12.9339 16.1532 12.0661 16.1532 11.8855 15.5405L11.8417 15.3919C11.7263 15.0004 11.2791 14.8151 10.9207 15.0104L10.7846 15.0845C10.2237 15.39 9.60997 14.7763 9.91553 14.2154L9.98963 14.0793C10.1849 13.7209 9.99964 13.2737 9.60814 13.1583L9.45954 13.1145C8.84682 12.9339 8.84682 12.0661 9.45954 11.8855L9.60814 11.8417C9.99964 11.7263 10.1849 11.2791 9.98963 10.9207L9.91553 10.7846C9.60997 10.2237 10.2237 9.60997 10.7846 9.91553L10.9207 9.98963C11.2791 10.1849 11.7263 9.99964 11.8417 9.60814L11.8855 9.45954ZM14 12.5C14 13.3284 13.3284 14 12.5 14C11.6716 14 11 13.3284 11 12.5C11 11.6716 11.6716 11 12.5 11C13.3284 11 14 11.6716 14 12.5Z"/>
<path d="M3 11H2V12H3V11Z"/>
<path d="M4 11H5V12H4V11Z"/>
<path d="M3 13H2V14H3V13Z"/>
<path d="M4 13H5V14H4V13Z"/>
<path fill-rule="evenodd" clip-rule="evenodd" d="M15 0.500001C15 0.326712 14.9103 0.165778 14.7629 0.0746751C14.6155 -0.0164282 14.4314 -0.0247102 14.2764 0.0527869L6.27639 4.05279C6.107 4.13748 6 4.31061 6 4.5V7.63962L0.341886 9.52566C0.137715 9.59372 0 9.78479 0 10V15.5C0 15.7761 0.223858 16 0.5 16H9.5C9.55043 16 9.59911 15.9925 9.645 15.9787C9.30357 15.6981 9.00418 15.3683 8.75769 15H7V4.80902L14 1.30902V8.25618C14.356 8.38202 14.6915 8.55139 15 8.7579V0.500001ZM1 10.3604L6 8.69371V15H1V10.3604Z"/>
<path d="M9 7H8V8H9V7Z"/>
<path d="M10 7H11V8H10V7Z"/>
<path d="M13 7H12V8H13V7Z"/>
<path d="M8 5H9V6H8V5Z"/>
<path d="M11 5H10V6H11V5Z"/>
<path d="M12 5H13V6H12V5Z"/>
<path d="M13 3H12V4H13V3Z"/>
<path d="M9 9H8V10L9 10V9Z"/>
</svg>
