<svg width="16" height="16" viewBox="0 0 16 16" xmlns="http://www.w3.org/2000/svg">
<path fill-rule="evenodd" clip-rule="evenodd" d="M10.3536 6.14645C10.5488 6.34171 10.5488 6.65829 10.3536 6.85355L7.35355 9.85355C7.25979 9.94732 7.13261 10 7 10C6.86739 10 6.74021 9.94732 6.64645 9.85355L5.14645 8.35355C4.95118 8.15829 4.95118 7.84171 5.14645 7.64645C5.34171 7.45118 5.65829 7.45118 5.85355 7.64645L7 8.79289L9.64645 6.14645C9.84171 5.95118 10.1583 5.95118 10.3536 6.14645Z" />
<path d="M10.2729 2.51266L9.3519 1.56943L10.0674 0.870798L10.6892 1.50763L11.5792 1.49703C13.2019 1.47771 14.5223 2.79809 14.503 4.42075L14.4924 5.31077L15.1292 5.93262C16.2903 7.06635 16.2903 8.93365 15.1292 10.0674L14.4924 10.6892L14.503 11.5792C14.5223 13.2019 13.2019 14.5223 11.5792 14.503L10.6892 14.4924L10.0674 15.1292C8.93365 16.2903 7.06635 16.2903 5.93262 15.1292L5.31077 14.4924L4.42075 14.503C2.79809 14.5223 1.47771 13.2019 1.49703 11.5792L1.50763 10.6892L0.870798 10.0674C-0.290266 8.93365 -0.290266 7.06635 0.870798 5.93262L1.50763 5.31077L1.49703 4.42075C1.47771 2.79809 2.79809 1.47771 4.42075 1.49703L5.31077 1.50763L5.93262 0.870798C7.06635 -0.290266 8.93365 -0.290266 10.0674 0.870798L9.3519 1.56943C8.61053 0.810189 7.38947 0.810189 6.6481 1.56943L5.72707 2.51266L4.40884 2.49696C3.34775 2.48432 2.48432 3.34775 2.49696 4.40884L2.51266 5.72707L1.56943 6.6481C0.810189 7.38947 0.810189 8.61053 1.56943 9.3519L2.51266 10.2729L2.49696 11.5912C2.48432 12.6523 3.34775 13.5157 4.40884 13.503L5.72707 13.4873L6.6481 14.4306C7.38947 15.1898 8.61053 15.1898 9.3519 14.4306L10.2729 13.4873L11.5912 13.503C12.6523 13.5157 13.5157 12.6523 13.503 11.5912L13.4873 10.2729L14.4306 9.3519C15.1898 8.61053 15.1898 7.38947 14.4306 6.6481L13.4873 5.72707L13.503 4.40884C13.5157 3.34775 12.6523 2.48432 11.5912 2.49696L10.2729 2.51266Z" />
</svg>
