<svg width="16" height="16" viewBox="0 0 16 16" xmlns="http://www.w3.org/2000/svg">
<path d="M15.5016 1.93934C15.6969 2.1346 15.6969 2.45118 15.5016 2.64645L14.4587 3.68933L12.4587 1.68933L13.5016 0.646447C13.6969 0.451184 14.0134 0.451185 14.2087 0.646447L15.5016 1.93934Z" />
<path d="M13.7516 4.39644L11.7516 2.39644L4.93861 9.20943C4.88372 9.26432 4.84237 9.33123 4.81782 9.40487L4.01326 11.8186C3.94812 12.014 4.13405 12.1999 4.32949 12.1348L6.74317 11.3302C6.81681 11.3057 6.88372 11.2643 6.93861 11.2094L13.7516 4.39644Z" />
<path fill-rule="evenodd" clip-rule="evenodd" d="M1 13.5C1 14.3284 1.67157 15 2.5 15H13.5C14.3284 15 15 14.3284 15 13.5V7.5C15 7.22386 14.7761 7 14.5 7C14.2239 7 14 7.22386 14 7.5V13.5C14 13.7761 13.7761 14 13.5 14H2.5C2.22386 14 2 13.7761 2 13.5V2.5C2 2.22386 2.22386 2 2.5 2H9C9.27614 2 9.5 1.77614 9.5 1.5C9.5 1.22386 9.27614 1 9 1H2.5C1.67157 1 1 1.67157 1 2.5V13.5Z" />
</svg>
