<svg width="16" height="16" viewBox="0 0 16 16" xmlns="http://www.w3.org/2000/svg">
<path d="M11 5C11 6.65685 9.65685 8 8 8C6.34315 8 5 6.65685 5 5C5 3.34315 6.34315 2 8 2C9.65685 2 11 3.34315 11 5ZM8 7C9.10457 7 10 6.10457 10 5C10 3.89543 9.10457 3 8 3C6.89543 3 6 3.89543 6 5C6 6.10457 6.89543 7 8 7Z" />
<path d="M8.25606 14C8.14314 13.6805 8.06527 13.3445 8.02708 12.9965H3C3.00142 12.7497 3.15375 12.0104 3.8321 11.3321C4.48435 10.6798 5.71088 10 7.99999 10C8.26049 10 8.50723 10.0088 8.74092 10.0254C8.96608 9.68403 9.23648 9.37517 9.54358 9.10733C9.07708 9.03817 8.56399 9 8 9C3 9 2 12 2 13C2 14 3 14 3 14H8.25606Z" />
<path d="M11.8855 9.45954C12.0661 8.84682 12.9339 8.84682 13.1145 9.45954L13.1583 9.60814C13.2737 9.99964 13.7209 10.1849 14.0793 9.98963L14.2154 9.91553C14.7763 9.60997 15.39 10.2237 15.0845 10.7846L15.0104 10.9207C14.8151 11.2791 15.0004 11.7263 15.3919 11.8417L15.5405 11.8855C16.1532 12.0661 16.1532 12.9339 15.5405 13.1145L15.3919 13.1583C15.0004 13.2737 14.8151 13.7209 15.0104 14.0793L15.0845 14.2154C15.39 14.7763 14.7763 15.39 14.2154 15.0845L14.0793 15.0104C13.7209 14.8151 13.2737 15.0004 13.1583 15.3919L13.1145 15.5405C12.9339 16.1532 12.0661 16.1532 11.8855 15.5405L11.8417 15.3919C11.7263 15.0004 11.2791 14.8151 10.9207 15.0104L10.7846 15.0845C10.2237 15.39 9.60997 14.7763 9.91553 14.2154L9.98963 14.0793C10.1849 13.7209 9.99964 13.2737 9.60814 13.1583L9.45954 13.1145C8.84682 12.9339 8.84682 12.0661 9.45954 11.8855L9.60814 11.8417C9.99964 11.7263 10.1849 11.2791 9.98963 10.9207L9.91553 10.7846C9.60997 10.2237 10.2237 9.60997 10.7846 9.91553L10.9207 9.98963C11.2791 10.1849 11.7263 9.99964 11.8417 9.60814L11.8855 9.45954ZM14 12.5C14 11.6716 13.3284 11 12.5 11C11.6716 11 11 11.6716 11 12.5C11 13.3284 11.6716 14 12.5 14C13.3284 14 14 13.3284 14 12.5Z" />
</svg>
