<svg width="16" height="16" viewBox="0 0 16 16" xmlns="http://www.w3.org/2000/svg">
<path d="M12.5 16C14.433 16 16 14.433 16 12.5C16 10.567 14.433 9 12.5 9C10.567 9 9 10.567 9 12.5C9 14.433 10.567 16 12.5 16ZM13 11V12H14C14.2761 12 14.5 12.2239 14.5 12.5C14.5 12.7761 14.2761 13 14 13H13V14C13 14.2761 12.7761 14.5 12.5 14.5C12.2239 14.5 12 14.2761 12 14V13H11C10.7239 13 10.5 12.7761 10.5 12.5C10.5 12.2239 10.7239 12 11 12H12V11C12 10.7239 12.2239 10.5 12.5 10.5C12.7761 10.5 13 10.7239 13 11Z" />
<path d="M11 5C11 6.65685 9.65685 8 8 8C6.34315 8 5 6.65685 5 5C5 3.34315 6.34315 2 8 2C9.65685 2 11 3.34315 11 5ZM8 7C9.10457 7 10 6.10457 10 5C10 3.89543 9.10457 3 8 3C6.89543 3 6 3.89543 6 5C6 6.10457 6.89543 7 8 7Z" />
<path d="M8.25606 14C8.14314 13.6805 8.06527 13.3445 8.02708 12.9965H3C3.00142 12.7497 3.15375 12.0104 3.8321 11.3321C4.48435 10.6798 5.71088 10 7.99999 10C8.26049 10 8.50723 10.0088 8.74092 10.0254C8.96608 9.68403 9.23648 9.37517 9.54358 9.10733C9.07708 9.03817 8.56399 9 8 9C3 9 2 12 2 13C2 14 3 14 3 14H8.25606Z" />
</svg>
