<svg width="16" height="16" viewBox="0 0 16 16" xmlns="http://www.w3.org/2000/svg">
<path d="M10 1H4C3.44772 1 3 1.44772 3 2V14C3 14.5523 3.44772 15 4 15H10C10.5523 15 11 14.5523 11 14V11C11 10 12 10.2 12 11V14C12 15.1046 11.1046 16 10 16H4C2.89543 16 2 15.1046 2 14V2C2 0.89543 2.89543 0 4 0H10C11.1046 0 12 0.895431 12 2C12 2.8 11 3 11 2C11 1.44772 10.5523 1 10 1Z" />
<path d="M15.8516 2.93934C16.0469 3.1346 16.0469 3.45118 15.8516 3.64645L14.8087 4.68933L12.8087 2.68933L13.8516 1.64645C14.0469 1.45118 14.3634 1.45118 14.5587 1.64645L15.8516 2.93934Z" />
<path d="M14.1016 5.39644L12.1016 3.39644L5.28861 10.2094C5.23372 10.2643 5.19237 10.3312 5.16782 10.4049L4.36326 12.8186C4.29811 13.014 4.48405 13.1999 4.67949 13.1348L7.09317 12.3302C7.16681 12.3057 7.23372 12.2643 7.28861 12.2094L14.1016 5.39644Z" />
</svg>
