<svg width="16" height="16" viewBox="0 0 16 16" xmlns="http://www.w3.org/2000/svg">
<path d="M9.82842 0.721825C9.96103 0.721825 10.0882 0.774503 10.182 0.868271L15.1317 5.81802C15.327 6.01328 15.327 6.32986 15.1317 6.52513C14.6513 7.00552 14.0597 7.11351 13.6291 7.11351C13.4517 7.11351 13.2936 7.0955 13.1684 7.07425L10.0349 10.2078C10.0417 10.2357 10.0488 10.2652 10.056 10.2963C10.1099 10.5298 10.1704 10.8555 10.1947 11.2206C10.2416 11.9232 10.163 12.908 9.47487 13.5962C9.27961 13.7915 8.96303 13.7915 8.76776 13.5962L5.93934 10.7678L2.75736 13.9497C2.5621 14.145 1.53841 14.8521 1.34314 14.6569C1.14788 14.4616 1.85499 13.4379 2.05025 13.2426L5.23223 10.0607L2.4038 7.23223C2.20854 7.03697 2.20854 6.72039 2.4038 6.52513C3.09197 5.83696 4.07683 5.75843 4.77935 5.80526C5.14454 5.82961 5.47022 5.89013 5.70374 5.94402C5.73479 5.95118 5.76432 5.95826 5.79221 5.96515L8.92575 2.83161C8.9045 2.70637 8.88648 2.54826 8.88648 2.37087C8.88648 1.94025 8.99448 1.34866 9.47487 0.868271C9.56864 0.774503 9.69582 0.721825 9.82842 0.721825ZM9.9501 2.83416L9.94933 2.83184L9.9501 2.83416ZM9.94933 2.83184L9.9501 2.83416C10.0086 3.0131 9.96167 3.2099 9.82842 3.34315L6.29289 6.87868C6.15909 7.01248 5.96124 7.05927 5.7817 6.99962L5.77968 6.99897L5.76656 6.99482C5.75408 6.99094 5.73432 6.98492 5.70802 6.97737C5.65537 6.96223 5.57697 6.94104 5.47888 6.91841C5.2815 6.87286 5.01056 6.8229 4.71283 6.80305C4.29106 6.77493 3.87715 6.81082 3.53817 6.95239L9.04761 12.4618C9.18917 12.1228 9.22507 11.7089 9.19695 11.2872C9.1771 10.9894 9.12713 10.7185 9.08159 10.5211C9.05895 10.423 9.03776 10.3446 9.02263 10.292C9.01507 10.2657 9.00906 10.2459 9.00517 10.2334L9.00102 10.2203L9.00053 10.2188C8.94077 10.0392 8.98746 9.84096 9.12132 9.70711L12.6569 6.17157C12.7906 6.03783 12.9883 5.99101 13.1678 6.05055C13.1714 6.05163 13.1787 6.05376 13.1889 6.05655C13.2095 6.06217 13.2425 6.07048 13.2852 6.07903C13.3718 6.09634 13.4928 6.11351 13.6291 6.11351C13.7426 6.11351 13.8588 6.10192 13.972 6.07256L9.92744 2.02795C9.89808 2.14117 9.88648 2.25735 9.88648 2.37087C9.88648 2.5072 9.90366 2.62823 9.92097 2.71476C9.92952 2.75752 9.93783 2.7905 9.94344 2.81108C9.94624 2.82133 9.94826 2.8283 9.94933 2.83184Z" />
</svg>
