<svg width="16" height="16" viewBox="0 0 16 16" xmlns="http://www.w3.org/2000/svg">
<path d="M4.14645 0.146447C4.24021 0.0526784 4.36739 0 4.5 0H11.5C11.7761 0 12 0.223858 12 0.5C12 1.17938 11.6581 1.67405 11.3536 1.97855C11.2281 2.10398 11.1036 2.20305 11 2.27658V6.70807C11.0246 6.72292 11.0505 6.7388 11.0775 6.75569C11.2807 6.88271 11.5538 7.0702 11.8293 7.31121C12.3591 7.77485 13 8.52678 13 9.5C13 9.77614 12.7761 10 12.5 10H8.5V14.5C8.5 14.7761 8.27614 16 8 16C7.72386 16 7.5 14.7761 7.5 14.5V10H3.5C3.22386 10 3 9.77614 3 9.5C3 8.52678 3.64087 7.77485 4.17075 7.31121C4.44619 7.0702 4.71927 6.88271 4.9225 6.75569C4.94953 6.7388 4.97541 6.72292 5 6.70807V2.27658C4.89642 2.20305 4.77188 2.10398 4.64645 1.97855C4.34195 1.67405 4 1.17938 4 0.5C4 0.367392 4.05268 0.240215 4.14645 0.146447ZM5.72613 1.55405L5.72395 1.55296L5.72613 1.55405ZM5.72395 1.55296L5.72613 1.55405C5.89405 1.63921 6 1.81156 6 2V7C6 7.18922 5.89319 7.36221 5.72405 7.44699L5.72217 7.44795L5.70996 7.4543C5.69838 7.46037 5.68016 7.4701 5.65622 7.48335C5.60829 7.50988 5.53786 7.55033 5.4525 7.60369C5.28073 7.71104 5.05381 7.8673 4.82925 8.06379C4.51113 8.34215 4.24383 8.66021 4.10424 9H11.8958C11.7562 8.66021 11.4889 8.34215 11.1707 8.06379C10.9462 7.8673 10.7193 7.71104 10.5475 7.60369C10.4621 7.55033 10.3917 7.50988 10.3438 7.48335C10.3198 7.4701 10.3016 7.46037 10.29 7.4543L10.2778 7.44795L10.2764 7.44721C10.1071 7.36247 10 7.1893 10 7V2C10 1.81086 10.1067 1.63793 10.2757 1.55311C10.279 1.55137 10.2857 1.54771 10.2949 1.54244C10.3134 1.53186 10.3426 1.51442 10.3789 1.49022C10.4523 1.44128 10.5501 1.36784 10.6464 1.27145C10.7267 1.19118 10.8007 1.10082 10.86 1H5.14003C5.19933 1.10082 5.27328 1.19118 5.35355 1.27145C5.44995 1.36784 5.54768 1.44128 5.6211 1.49022C5.65739 1.51442 5.68658 1.53186 5.7051 1.54244C5.71433 1.54771 5.72068 1.55122 5.72395 1.55296Z" />
</svg>
