<svg width="16" height="16" viewBox="0 0 16 16" xmlns="http://www.w3.org/2000/svg">
<path d="M2.5 8C2.77614 8 3 7.77614 3 7.5C3 7.22386 2.77614 7 2.5 7C2.22386 7 2 7.22386 2 7.5C2 7.77614 2.22386 8 2.5 8Z" />
<path d="M5 1C3.89543 1 3 1.89543 3 3V5H2C0.895431 5 0 5.89543 0 7V10C0 11.1046 0.895431 12 2 12H3V13C3 14.1046 3.89543 15 5 15H11C12.1046 15 13 14.1046 13 13V12H14C15.1046 12 16 11.1046 16 10V7C16 5.89543 15.1046 5 14 5H13V3C13 1.89543 12.1046 1 11 1H5ZM4 3C4 2.44772 4.44772 2 5 2H11C11.5523 2 12 2.44772 12 3V5H4V3ZM5 8C3.89543 8 3 8.89543 3 10V11H2C1.44772 11 1 10.5523 1 10V7C1 6.44772 1.44772 6 2 6H14C14.5523 6 15 6.44772 15 7V10C15 10.5523 14.5523 11 14 11H13V10C13 8.89543 12.1046 8 11 8H5ZM12 10V13C12 13.5523 11.5523 14 11 14H5C4.44772 14 4 13.5523 4 13V10C4 9.44772 4.44772 9 5 9H11C11.5523 9 12 9.44772 12 10Z" />
</svg>
