<svg width="16" height="16" viewBox="0 0 16 16" xmlns="http://www.w3.org/2000/svg">
<path d="M6.59778 5.01287C6.69071 4.97125 6.79999 5.03899 6.79999 5.14674V6.30002C6.79999 6.57616 7.02385 6.80002 7.29999 6.80002C7.96708 6.80002 9.31297 6.80521 10.6009 7.62223C11.584 8.24585 12.5907 9.38188 13.1948 11.4983C12.1744 10.5147 11.0096 9.98246 9.98996 9.69948C9.23659 9.49039 8.55907 9.4159 8.06891 9.39351C7.82336 9.38229 7.62345 9.38408 7.48285 9.38888C7.41251 9.39128 7.35688 9.39444 7.31767 9.39711C7.29806 9.39844 7.28254 9.39966 7.27133 9.4006L7.25775 9.40178L7.25343 9.40219L7.2519 9.40233C7.25164 9.40236 7.25078 9.40244 7.29999 9.90002L7.25078 9.40244C6.99495 9.42775 6.79999 9.64293 6.79999 9.90002V11.0533C6.79999 11.161 6.69071 11.2288 6.59779 11.1872L2.61425 8.25437C2.60054 8.24428 2.58633 8.23489 2.57167 8.22625C2.47611 8.16994 2.47611 8.0301 2.57167 7.97378C2.58633 7.96514 2.60054 7.95575 2.61425 7.94566L6.59778 5.01287ZM7.79999 10.3858C7.86798 10.3867 7.94263 10.3888 8.02327 10.3925C8.45655 10.4123 9.05715 10.4784 9.72253 10.6631C11.0491 11.0312 12.6194 11.8646 13.6629 13.7428C13.7792 13.9522 14.0276 14.0497 14.2552 13.9753C14.4829 13.9009 14.6258 13.6756 14.5961 13.438C14.1323 9.72758 12.7103 7.77611 11.1366 6.77781C9.89054 5.98737 8.60923 5.8359 7.79999 5.80689V5.14674C7.79999 4.25131 6.83059 3.71388 6.07532 4.15898C6.06065 4.16762 6.04644 4.177 6.03273 4.18709L2.03922 7.12723C1.32026 7.57439 1.32026 8.62564 2.03922 9.0728L6.03273 12.0129C6.04644 12.023 6.06065 12.0324 6.07532 12.0411C6.83059 12.4862 7.79999 11.9487 7.79999 11.0533V10.3858Z" />
</svg>
