<svg width="17" height="16" viewBox="0 0 17 16" xmlns="http://www.w3.org/2000/svg">
<path d="M8.09772 5.01287C8.19065 4.97125 8.29993 5.03899 8.29993 5.14674V6.30002C8.29993 6.57616 8.52379 6.80002 8.79993 6.80002C9.46701 6.80002 10.8129 6.80521 12.1008 7.62223C13.0839 8.24585 14.0907 9.38188 14.6947 11.4983C13.6743 10.5147 12.5095 9.98246 11.4899 9.69948C10.7365 9.49039 10.059 9.4159 9.56884 9.39351C9.32329 9.38229 9.12339 9.38408 8.98278 9.38888C8.91244 9.39128 8.85681 9.39444 8.8176 9.39711C8.79799 9.39844 8.78247 9.39966 8.77126 9.4006L8.75769 9.40178L8.75337 9.40219L8.75183 9.40233C8.75183 9.40233 8.75072 9.40244 8.79993 9.90002L8.75072 9.40244C8.49488 9.42775 8.29993 9.64293 8.29993 9.90002V11.0533C8.29993 11.161 8.19065 11.2288 8.09772 11.1872L4.11418 8.25437C4.10048 8.24428 4.08626 8.23489 4.0716 8.22625C3.97604 8.16994 3.97604 8.0301 4.0716 7.97378C4.08626 7.96514 4.10048 7.95575 4.11418 7.94566L8.09772 5.01287ZM9.29993 10.3858C9.36791 10.3867 9.44256 10.3888 9.5232 10.3925C9.95648 10.4123 10.5571 10.4784 11.2225 10.6631C12.549 11.0312 14.1194 11.8646 15.1628 13.7428C15.2791 13.9522 15.5275 14.0497 15.7552 13.9753C15.9828 13.9009 16.1258 13.6756 16.0961 13.438C15.6323 9.72758 14.2102 7.77611 12.6365 6.77781C11.3905 5.98737 10.1092 5.8359 9.29993 5.80689V5.14674C9.29993 4.25131 8.33053 3.71388 7.57525 4.15898C7.56059 4.16762 7.54637 4.177 7.53267 4.18709L3.53916 7.12723C2.82019 7.57439 2.82019 8.62564 3.53915 9.0728L7.53267 12.0129C7.54637 12.023 7.56059 12.0324 7.57525 12.0411C8.33053 12.4862 9.29993 11.9487 9.29993 11.0533V10.3858Z" />
<path d="M5.23176 4.2933C5.06804 4.07093 4.75505 4.02338 4.53267 4.1871L0.539166 7.12723C-0.179801 7.57439 -0.179803 8.62564 0.539159 9.0728L4.53267 12.0129C4.75505 12.1767 5.06804 12.1291 5.23176 11.9067C5.39548 11.6844 5.34793 11.3714 5.12555 11.2076L1.11419 8.25437C1.10048 8.24428 1.08627 8.2349 1.07161 8.22625C0.976049 8.16994 0.976049 8.0301 1.07161 7.97378C1.08627 7.96514 1.10048 7.95576 1.11419 7.94567L5.12555 4.99239C5.34793 4.82867 5.39548 4.51568 5.23176 4.2933Z" />
</svg>
