<svg width="16" height="16" viewBox="0 0 16 16" xmlns="http://www.w3.org/2000/svg">
<path clip-rule="evenodd" d="M5.73192 7.35512C6.64464 5.30151 7.4813 3.24789 8.85038 1.42246C9.76309 0.129438 9.76309 0.281558 10.5998 1.3464C12.7294 4.08455 14.707 7.05088 15.9239 10.3215C15.9239 10.3975 16 10.5496 16 10.6257C15.6197 9.94116 15.1633 9.18056 14.783 8.49602C13.8703 7.05088 13.0337 5.75787 11.8167 4.54091C11.5125 4.23667 11.2843 4.08455 10.904 3.85637C10.1434 3.40001 9.38279 3.40001 8.77431 3.93243C7.70948 4.76909 6.87282 5.75787 6.03616 6.8227C5.9601 7.05088 5.88404 7.203 5.73192 7.35512ZM12.0449 9.18056C12.3491 10.2454 12.7294 11.3102 12.7294 12.4511C12.7294 12.9075 12.5012 13.3639 12.1209 13.6681C11.6646 14.0484 11.0561 14.2766 10.4476 14.4287C8.85038 14.809 7.17706 14.885 5.5798 14.885C4.74314 14.885 3.98254 14.885 3.14589 14.809C4.66708 15.1132 6.11222 15.2653 7.63342 15.3414C9.15461 15.4175 10.6758 15.2653 12.197 15.1893C13.1097 15.1132 13.9464 15.0372 14.8591 14.885C15.1633 14.809 15.2394 14.6569 15.1633 14.4287C15.0873 13.9723 14.8591 13.516 14.707 13.1357C13.7943 11.2342 12.6534 9.56086 11.4364 7.88754C11.6646 8.26784 11.8928 8.64814 12.0449 9.18056ZM5.42768 1.3464C5.42768 1.3464 5.35162 1.49852 5.1995 1.57458C3.67831 3.62819 2.46135 5.90999 1.32045 8.26784C0.864092 9.25662 0.407732 10.3215 0.0274333 11.3863C-0.0486266 11.6905 0.0274332 11.8427 0.331673 11.9187C0.711972 12.0708 1.24439 12.1469 1.70075 12.1469C3.29801 12.223 4.89526 12.1469 6.49252 11.9187C6.94888 11.8427 7.40524 11.8427 7.93766 11.6905C7.32918 11.6905 6.79676 11.6145 6.18828 11.4624C5.1995 11.3102 4.21072 11.1581 3.37407 10.6257C2.76559 10.3215 2.46135 9.78904 2.46135 9.1045C2.46135 8.57208 2.53741 8.11572 2.68953 7.5833C3.06983 5.68181 4.0586 3.93243 4.97132 2.25911C5.12344 1.95487 5.35162 1.65063 5.42768 1.3464Z" />
</svg>
