<svg width="16" height="16" viewBox="0 0 16 16" xmlns="http://www.w3.org/2000/svg">
<path d="M10.8779 1.09276C12.3085 0.78808 13.8584 1.23185 14.9093 2.39757C15.9603 3.56109 16.2451 5.1485 15.7947 6.53722V6.53942C15.6909 6.85956 15.3465 7.03618 15.0241 6.93242C14.7018 6.82865 14.5252 6.48423 14.6289 6.16189C14.9491 5.17279 14.746 4.0446 13.9997 3.21667C13.2535 2.38874 12.1518 2.07303 11.134 2.28939C10.8028 2.36004 10.4783 2.1503 10.4076 1.81913C10.337 1.49016 10.5467 1.16341 10.8779 1.09276Z" />
<path d="M3.75328 9.46477C4.30081 8.35425 5.72485 7.72502 6.98551 8.05398C8.29033 8.39178 8.95709 9.62153 8.4228 10.8182C7.88188 12.0391 6.32758 12.6926 5.00731 12.2665C3.73561 11.8558 3.1947 10.5974 3.75328 9.46477ZM6.41148 10.0322C6.57044 10.0984 6.77577 10.0233 6.8685 9.86439C6.95681 9.70322 6.89941 9.52438 6.74044 9.46698C6.58369 9.40516 6.38719 9.48023 6.29447 9.63478C6.20395 9.78932 6.25252 9.96815 6.41148 10.0322ZM4.80419 11.3458C5.21706 11.5335 5.7668 11.3547 6.02291 10.9462C6.2746 10.5334 6.14213 10.0631 5.72706 9.88426C5.31641 9.71205 4.78653 9.88867 4.53263 10.2861C4.27653 10.6857 4.39796 11.1604 4.80419 11.3458Z" />
<path d="M12.0137 7.23759L12.0193 7.2393C12.9378 7.52411 13.96 8.21295 13.9578 9.42724C13.9578 11.4341 11.0633 13.9621 6.71174 13.9621C3.3934 13.9621 0 12.3526 0 9.70763C0 8.32334 0.8765 6.72267 2.38443 5.21474C4.40017 3.19901 6.75148 2.28056 7.63461 3.16589C8.02318 3.55667 8.06071 4.23006 7.81123 5.03591C7.67876 5.43994 8.19098 5.21695 8.19098 5.21695C9.82034 4.53473 11.2422 4.49499 11.761 5.23682C12.0392 5.63422 12.0127 6.18838 11.7566 6.83086C11.6406 7.12423 11.7916 7.1701 12.0137 7.23759ZM1.61391 10.3391C1.78612 12.0766 4.07341 13.2755 6.72278 13.0127C9.36995 12.7522 11.3791 11.1295 11.2046 9.38971C11.0346 7.65216 8.74734 6.45332 6.09797 6.71605C3.45081 6.97878 1.4417 8.59931 1.61391 10.3391Z" />
<path d="M13.2954 3.85473C12.7832 3.28732 12.0281 3.07096 11.3327 3.22109C11.0479 3.2807 10.8668 3.5633 10.9265 3.8481C10.9883 4.13291 11.2687 4.31395 11.5513 4.25213C11.8913 4.17928 12.2622 4.28525 12.5117 4.56123C12.7611 4.83941 12.8296 5.21695 12.7214 5.54812C12.6331 5.82409 12.7832 6.12215 13.0614 6.21267C13.3396 6.30098 13.6354 6.15085 13.726 5.87267C13.9445 5.19487 13.8076 4.42214 13.2954 3.85473Z" />
</svg>
