<svg width="16" height="16" viewBox="0 0 16 16" xmlns="http://www.w3.org/2000/svg">
<path d="M5 6.5C5 6.22386 5.22386 6 5.5 6H6.5C6.77614 6 7 6.22386 7 6.5C7 6.77614 6.77614 7 6.5 7H5.5C5.22386 7 5 6.77614 5 6.5Z"/>
<path d="M5.5 8C5.22386 8 5 8.22386 5 8.5C5 8.77614 5.22386 9 5.5 9H10.5C10.7761 9 11 8.77614 11 8.5C11 8.22386 10.7761 8 10.5 8H5.5Z"/>
<path d="M5.5 10C5.22386 10 5 10.2239 5 10.5C5 10.7761 5.22386 11 5.5 11H8.5C8.77614 11 9 10.7761 9 10.5C9 10.2239 8.77614 10 8.5 10H5.5Z"/>
<path d="M7.5 2.5C7.5 2.22386 7.72386 2 8 2C8.27614 2 8.5 2.22386 8.5 2.5C8.5 2.77614 8.27614 3 8 3C7.72386 3 7.5 2.77614 7.5 2.5Z"/>
<path fill-rule="evenodd" clip-rule="evenodd" d="M11 16C12.1046 16 13 15.1046 13 14L13 2C13 0.895431 12.1046 0 11 0H5C3.89543 0 3 0.89543 3 2V14C3 15.1046 3.89543 16 5 16L11 16ZM5 15C4.44772 15 4 14.5523 4 14L4 2C4 1.44771 4.44772 0.999999 5 0.999999L11 1C11.5523 1 12 1.44771 12 2L12 14C12 14.5523 11.5523 15 11 15L5 15Z"/>
</svg>
