<svg width="16" height="16" viewBox="0 0 16 16"  xmlns="http://www.w3.org/2000/svg">
<path d="M5.66667 5.33333C5.66667 6.06971 5.06971 6.66667 4.33333 6.66667C3.59695 6.66667 3 6.06971 3 5.33333C3 4.59695 3.59695 4 4.33333 4C5.06971 4 5.66667 4.59695 5.66667 5.33333Z" />
<path d="M5.66667 10.6667C5.66667 11.4031 5.06971 12 4.33333 12C3.59695 12 3 11.4031 3 10.6667C3 9.93027 3.59695 9.33333 4.33333 9.33333C5.06971 9.33333 5.66667 9.93027 5.66667 10.6667Z" />
<path d="M12.3333 5.33333C12.3333 6.06971 11.7364 6.66667 11 6.66667C10.2636 6.66667 9.66667 6.06971 9.66667 5.33333C9.66667 4.59695 10.2636 4 11 4C11.7364 4 12.3333 4.59695 12.3333 5.33333Z" />
<path d="M12.3333 10.6667C12.3333 11.4031 11.7364 12 11 12C10.2636 12 9.66667 11.4031 9.66667 10.6667C9.66667 9.93027 10.2636 9.33333 11 9.33333C11.7364 9.33333 12.3333 9.93027 12.3333 10.6667Z" />
</svg>
