<svg width="16" height="16" viewBox="0 0 16 16"  xmlns="http://www.w3.org/2000/svg">
<path d="M0 8C8.125 8 4.875 4 13 4" stroke="black"/>
<path d="M0 8C8.125 8 4.875 12 13 12" stroke="black"/>
<path d="M11 1.5L13.5 4L11 6.5" stroke="black" stroke-linecap="square"/>
<path d="M11 9.5L13.5 12L11 14.5" stroke="black" stroke-linecap="square"/>
<path fill-rule="evenodd" clip-rule="evenodd" d="M11 0.792847L14.2071 3.99995L11 7.20706L10.2929 6.49995L12.2815 4.51134C10.6975 4.56338 9.64169 4.789 8.86473 5.09098C7.98067 5.43458 7.42453 5.88812 6.81716 6.38648L6.80601 6.39562C6.19771 6.89476 5.53682 7.43705 4.49754 7.84098C4.35358 7.89693 4.20301 7.95001 4.04492 7.99994C4.20301 8.04987 4.35358 8.10295 4.49754 8.1589C5.53682 8.56283 6.19771 9.10512 6.80601 9.60426L6.81716 9.6134C7.42453 10.1118 7.98067 10.5653 8.86473 10.9089C9.64168 11.2109 10.6975 11.4365 12.2815 11.4885L10.2929 9.49995L11 8.79285L14.2071 12L11 15.2071L10.2929 14.5L12.3031 12.4897C10.6111 12.4386 9.42185 12.1983 8.50246 11.841C7.46318 11.437 6.80229 10.8948 6.19399 10.3956L6.18284 10.3865C5.57547 9.88812 5.01933 9.43458 4.13527 9.09098C3.24634 8.74548 1.99232 8.49994 0 8.49994V7.49994C1.99232 7.49994 3.24634 7.2544 4.13527 6.9089C5.01933 6.5653 5.57547 6.11176 6.18284 5.6134L6.19399 5.60426C6.80229 5.10512 7.46318 4.56283 8.50246 4.1589C9.42184 3.80157 10.6111 3.56133 12.3031 3.51016L10.2929 1.49995L11 0.792847Z" />
</svg>
