<svg width="16" height="16" viewBox="0 0 16 16" xmlns="http://www.w3.org/2000/svg">
<path d="M7.5 5H8.5V15H7.5V5Z"/>
<path d="M6 8L1 8C0.447716 8 1.98987e-07 8.44772 1.74846e-07 9L0 13C-2.41411e-08 13.5523 0.447716 14 1 14H6V13H1L1 9H6V8Z"/>
<path d="M10 13H15V9H10V8L15 8C15.5523 8 16 8.44772 16 9V13C16 13.5523 15.5523 14 15 14H10V13Z"/>
<path fill-rule="evenodd" clip-rule="evenodd" d="M6 3.5C6 3.77614 5.77614 4 5.5 4L1.70711 4L2.85355 5.14645C3.04882 5.34171 3.04882 5.65829 2.85355 5.85355C2.65829 6.04882 2.34171 6.04882 2.14645 5.85355L0.146447 3.85355C-0.0488153 3.65829 -0.0488153 3.34171 0.146447 3.14645L2.14645 1.14645C2.34171 0.951185 2.65829 0.951185 2.85355 1.14645C3.04882 1.34171 3.04882 1.65829 2.85355 1.85355L1.70711 3L5.5 3C5.77614 3 6 3.22386 6 3.5Z"/>
<path fill-rule="evenodd" clip-rule="evenodd" d="M10 3.5C10 3.77614 10.2239 4 10.5 4L14.2929 4L13.1464 5.14645C12.9512 5.34171 12.9512 5.65829 13.1464 5.85355C13.3417 6.04882 13.6583 6.04882 13.8536 5.85355L15.8536 3.85355C16.0488 3.65829 16.0488 3.34171 15.8536 3.14645L13.8536 1.14645C13.6583 0.951184 13.3417 0.951184 13.1464 1.14645C12.9512 1.34171 12.9512 1.65829 13.1464 1.85355L14.2929 3L10.5 3C10.2239 3 10 3.22386 10 3.5Z"/>
</svg>
