<svg width="16" height="16" viewBox="0 0 16 16" xmlns="http://www.w3.org/2000/svg">
<path d="M8.49999 5.59997C8.49999 5.32383 8.27613 5.09998 7.99999 5.09998C7.72384 5.09998 7.49999 5.32383 7.49999 5.59998L7.5 8.5H4.5C4.22386 8.5 4 8.72386 4 9C4 9.27614 4.22386 9.5 4.5 9.5H8C8.13261 9.5 8.25979 9.44732 8.35355 9.35355C8.44732 9.25978 8.5 9.13261 8.5 9L8.49999 5.59997Z" />
<path d="M6.5 1C6.5 0.723858 6.72386 0.5 7 0.5H9C9.27614 0.5 9.5 0.723858 9.5 1C9.5 1.27614 9.27614 1.5 9 1.5V2.07094C10.3599 2.26553 11.5936 2.85083 12.5838 3.70947C12.5879 3.70514 12.592 3.70087 12.5962 3.69665L12.9498 3.34309L12.5962 2.98954C12.401 2.79428 12.401 2.4777 12.5962 2.28243C12.7915 2.08717 13.1081 2.08717 13.3033 2.28243L14.7175 3.69665C14.9128 3.89191 14.9128 4.20849 14.7175 4.40375C14.5223 4.59902 14.2057 4.59902 14.0104 4.40375L13.6569 4.0502L13.3033 4.40375C13.2991 4.40797 13.2948 4.41208 13.2905 4.41611C14.3555 5.64417 15 7.24677 15 9C15 12.866 11.866 16 8 16C4.13401 16 1 12.866 1 9C1 5.47347 3.60749 2.55639 7 2.07094V1.5C6.72386 1.5 6.5 1.27614 6.5 1ZM8 3C7.84443 3 7.69034 3.00591 7.53793 3.0175C4.44038 3.25314 2 5.84182 2 9C2 12.3137 4.68629 15 8 15C11.3137 15 14 12.3137 14 9C14 5.84182 11.5596 3.25314 8.46207 3.0175C8.30966 3.00591 8.15557 3 8 3Z" />
</svg>
