<svg width="16" height="16" viewBox="0 0 16 16" xmlns="http://www.w3.org/2000/svg">
<path d="M8 11C6.34315 11 5 9.65685 5 8C5 6.34315 6.34315 5 8 5C9.65685 5 11 6.34315 11 8C11 9.65685 9.65685 11 8 11ZM8 12C10.2091 12 12 10.2091 12 8C12 5.79086 10.2091 4 8 4C5.79086 4 4 5.79086 4 8C4 10.2091 5.79086 12 8 12Z" />
<path d="M8 0C8.27614 0 8.5 0.223858 8.5 0.5V2.5C8.5 2.77614 8.27614 3 8 3C7.72386 3 7.5 2.77614 7.5 2.5V0.5C7.5 0.223858 7.72386 0 8 0Z" />
<path d="M8 13C8.27614 13 8.5 13.2239 8.5 13.5V15.5C8.5 15.7761 8.27614 16 8 16C7.72386 16 7.5 15.7761 7.5 15.5V13.5C7.5 13.2239 7.72386 13 8 13Z" />
<path d="M16 8C16 8.27614 15.7761 8.5 15.5 8.5H13.5C13.2239 8.5 13 8.27614 13 8C13 7.72386 13.2239 7.5 13.5 7.5H15.5C15.7761 7.5 16 7.72386 16 8Z" />
<path d="M3 8C3 8.27614 2.77614 8.5 2.5 8.5H0.5C0.223858 8.5 -1.20706e-08 8.27614 0 8C1.20706e-08 7.72386 0.223858 7.5 0.5 7.5H2.5C2.77614 7.5 3 7.72386 3 8Z" />
<path d="M13.6569 2.34318C13.8521 2.53844 13.8521 2.85502 13.6569 3.05028L12.2426 4.4645C12.0474 4.65976 11.7308 4.65976 11.5355 4.4645C11.3403 4.26924 11.3403 3.95265 11.5355 3.75739L12.9497 2.34318C13.145 2.14792 13.4616 2.14792 13.6569 2.34318Z" />
<path d="M4.46446 11.5356C4.65973 11.7308 4.65973 12.0474 4.46446 12.2427L3.05025 13.6569C2.85499 13.8521 2.53841 13.8521 2.34314 13.6569C2.14788 13.4616 2.14788 13.145 2.34314 12.9498L3.75736 11.5356C3.95262 11.3403 4.2692 11.3403 4.46446 11.5356Z" />
<path d="M13.6569 13.6569C13.4616 13.8522 13.145 13.8522 12.9497 13.6569L11.5355 12.2427C11.3403 12.0474 11.3403 11.7308 11.5355 11.5356C11.7308 11.3403 12.0474 11.3403 12.2426 11.5356L13.6569 12.9498C13.8521 13.1451 13.8521 13.4616 13.6569 13.6569Z" />
<path d="M4.46447 4.46451C4.2692 4.65977 3.95262 4.65977 3.75736 4.46451L2.34315 3.0503C2.14788 2.85503 2.14788 2.53845 2.34315 2.34319C2.53841 2.14793 2.85499 2.14793 3.05025 2.34319L4.46447 3.7574C4.65973 3.95267 4.65973 4.26925 4.46447 4.46451Z" />
</svg>
