<svg width="16" height="16" viewBox="0 0 16 16" xmlns="http://www.w3.org/2000/svg">
<path d="M6 4.5C6 5.32843 5.32843 6 4.5 6C3.67157 6 3 5.32843 3 4.5C3 3.67157 3.67157 3 4.5 3C5.32843 3 6 3.67157 6 4.5ZM5 4.5C5 4.22386 4.77614 4 4.5 4C4.22386 4 4 4.22386 4 4.5C4 4.77614 4.22386 5 4.5 5C4.77614 5 5 4.77614 5 4.5Z" />
<path d="M2 1H6.58579C6.851 1 7.10536 1.10536 7.29289 1.29289L14.2929 8.29289C14.6834 8.68342 14.6834 9.31658 14.2929 9.70711L9.70711 14.2929C9.31658 14.6834 8.68342 14.6834 8.29289 14.2929L1.29289 7.29289C1.10536 7.10536 1 6.851 1 6.58579V2C1 1.44772 1.44772 1 2 1ZM2 6.58579L9 13.5858L13.5858 9L6.58579 2L2 2L2 6.58579Z" />
</svg>
