<svg width="16" height="16" viewBox="0 0 16 16"  xmlns="http://www.w3.org/2000/svg">
<path d="M16 8C16 12.4183 12.4183 16 8 16C3.58172 16 0 12.4183 0 8C0 3.58172 3.58172 0 8 0C12.4183 0 16 3.58172 16 8ZM8.28672 5.90599C7.50861 6.22963 5.95346 6.8995 3.6213 7.91558C3.2426 8.06618 3.04421 8.21351 3.02615 8.35757C2.99563 8.60103 3.30052 8.6969 3.71569 8.82745C3.77216 8.8452 3.83068 8.8636 3.89067 8.8831C4.29913 9.01588 4.84859 9.17121 5.13423 9.17738C5.39334 9.18298 5.68253 9.07616 6.0018 8.85692C8.18081 7.38603 9.30563 6.64258 9.37625 6.62655C9.42607 6.61524 9.49511 6.60102 9.54188 6.6426C9.58866 6.68418 9.58406 6.76291 9.57911 6.78404C9.5489 6.9128 8.35212 8.02543 7.73279 8.60121C7.53971 8.78071 7.40276 8.90804 7.37476 8.93712C7.31204 9.00226 7.24812 9.06388 7.18669 9.1231C6.80722 9.48891 6.52265 9.76324 7.20245 10.2112C7.52913 10.4265 7.79055 10.6045 8.05134 10.7821C8.33616 10.9761 8.62023 11.1695 8.98778 11.4105C9.08142 11.4718 9.17086 11.5356 9.25796 11.5977C9.58942 11.834 9.88721 12.0463 10.2551 12.0124C10.4689 11.9928 10.6897 11.7918 10.8018 11.1923C11.0668 9.77545 11.5878 6.70567 11.7082 5.44069C11.7187 5.32986 11.7055 5.18802 11.6948 5.12576C11.6842 5.06349 11.6619 4.97478 11.581 4.90911C11.4851 4.83133 11.3371 4.81493 11.2709 4.8161C10.9701 4.8214 10.5084 4.98192 8.28672 5.90599Z" />
</svg>
