<svg width="16" height="16" viewBox="0 0 16 16" xmlns="http://www.w3.org/2000/svg">
<path d="M2 3.5C2 3.22386 2.22386 3 2.5 3H13.5C13.7761 3 14 3.22386 14 3.5C14 3.77614 13.7761 4 13.5 4H2.5C2.22386 4 2 3.77614 2 3.5ZM2.64645 5.64645C2.84171 5.45118 3.15829 5.45118 3.35355 5.64645L5.35355 7.64645C5.54882 7.84171 5.54882 8.15829 5.35355 8.35355L3.35355 10.3536C3.15829 10.5488 2.84171 10.5488 2.64645 10.3536C2.45118 10.1583 2.45118 9.84171 2.64645 9.64645L4.29289 8L2.64645 6.35355C2.45118 6.15829 2.45118 5.84171 2.64645 5.64645ZM7 6.5C7 6.22386 7.22386 6 7.5 6H13.5C13.7761 6 14 6.22386 14 6.5C14 6.77614 13.7761 7 13.5 7H7.5C7.22386 7 7 6.77614 7 6.5ZM7 9.5C7 9.22386 7.22386 9 7.5 9H13.5C13.7761 9 14 9.22386 14 9.5C14 9.77614 13.7761 10 13.5 10H7.5C7.22386 10 7 9.77614 7 9.5ZM2 12.5C2 12.2239 2.22386 12 2.5 12H13.5C13.7761 12 14 12.2239 14 12.5C14 12.7761 13.7761 13 13.5 13H2.5C2.22386 13 2 12.7761 2 12.5Z" />
</svg>
