<svg width="16" height="16" viewBox="0 0 16 16" xmlns="http://www.w3.org/2000/svg">
<path d="M2 3.5C2 3.22386 2.22386 3 2.5 3H13.5C13.7761 3 14 3.22386 14 3.5C14 3.77614 13.7761 4 13.5 4H2.5C2.22386 4 2 3.77614 2 3.5ZM12.6464 5.64645C12.8417 5.45118 13.1583 5.45118 13.3536 5.64645C13.5488 5.84171 13.5488 6.15829 13.3536 6.35355L11.7071 8L13.3536 9.64645C13.5488 9.84171 13.5488 10.1583 13.3536 10.3536C13.1583 10.5488 12.8417 10.5488 12.6464 10.3536L10.6464 8.35355C10.4512 8.15829 10.4512 7.84171 10.6464 7.64645L12.6464 5.64645ZM2 6.5C2 6.22386 2.22386 6 2.5 6H8.5C8.77614 6 9 6.22386 9 6.5C9 6.77614 8.77614 7 8.5 7H2.5C2.22386 7 2 6.77614 2 6.5ZM2 9.5C2 9.22386 2.22386 9 2.5 9H8.5C8.77614 9 9 9.22386 9 9.5C9 9.77614 8.77614 10 8.5 10H2.5C2.22386 10 2 9.77614 2 9.5ZM2 12.5C2 12.2239 2.22386 12 2.5 12H13.5C13.7761 12 14 12.2239 14 12.5C14 12.7761 13.7761 13 13.5 13H2.5C2.22386 13 2 12.7761 2 12.5Z" />
</svg>
