<svg width="16" height="16" viewBox="0 0 16 16" xmlns="http://www.w3.org/2000/svg">
<path d="M1 1C0.447716 1 5.48678e-07 1.44772 5.24537e-07 2L4.37114e-07 4C4.12973e-07 4.55228 0.447716 5 1 5L15 5C15.5523 5 16 4.55229 16 4V2C16 1.44772 15.5523 1 15 1L1 1Z"/>
<path fill-rule="evenodd" clip-rule="evenodd" d="M1 6C0.447716 6 3.30121e-07 6.44772 3.0598e-07 7L2.18557e-07 9C1.94416e-07 9.55228 0.447716 10 1 10L15 10C15.5523 10 16 9.55229 16 9V7C16 6.44772 15.5523 6 15 6L1 6ZM15 7L1 7L1 9L15 9V7Z"/>
<path fill-rule="evenodd" clip-rule="evenodd" d="M1 11C0.447716 11 1.11564e-07 11.4477 8.74228e-08 12L0 14C-2.41411e-08 14.5523 0.447716 15 1 15L15 15C15.5523 15 16 14.5523 16 14V12C16 11.4477 15.5523 11 15 11L1 11ZM15 12L1 12L1 14L15 14V12Z"/>
</svg>
