<svg width="16" height="16" viewBox="0 0 16 16" xmlns="http://www.w3.org/2000/svg">
<path d="M1 15C1 15.5523 1.44772 16 2 16L4 16C4.55228 16 5 15.5523 5 15L5 1C5 0.447715 4.55229 2.41411e-08 4 0H2C1.44772 -2.41411e-08 1 0.447714 1 0.999999L1 15Z"/>
<path fill-rule="evenodd" clip-rule="evenodd" d="M6 15C6 15.5523 6.44772 16 7 16L9 16C9.55228 16 10 15.5523 10 15L10 1C10 0.447715 9.55229 2.41412e-08 9 0H7C6.44772 -2.41411e-08 6 0.447715 6 1L6 15ZM7 1L7 15L9 15L9 1H7Z"/>
<path fill-rule="evenodd" clip-rule="evenodd" d="M11 15C11 15.5523 11.4477 16 12 16L14 16C14.5523 16 15 15.5523 15 15L15 0.999998C15 0.447713 14.5523 2.41411e-08 14 0H12C11.4477 -2.41412e-08 11 0.447713 11 0.999998L11 15ZM12 0.999998L12 15L14 15L14 0.999998H12Z"/>
</svg>
