<svg width="16" height="16" viewBox="0 0 16 16" xmlns="http://www.w3.org/2000/svg">
<path fill-rule="evenodd" clip-rule="evenodd" d="M1 1C0.447715 1 -1.95703e-08 1.44772 -4.37114e-08 2L-1.31134e-07 4C-1.55275e-07 4.55229 0.447715 5 1 5L6.5 5C7.05228 5 7.5 4.55229 7.5 4L7.5 2C7.5 1.44772 7.05228 1 6.5 1L1 1ZM9.5 2L15 2L15 4L9.5 4L9.5 2ZM8.5 4C8.5 4.55229 8.94771 5 9.5 5L15 5C15.5523 5 16 4.55229 16 4L16 2C16 1.44772 15.5523 1 15 1L9.5 1C8.94771 1 8.5 1.44772 8.5 2L8.5 4ZM9.5 6L15 6C15.5523 6 16 6.44772 16 7L16 9C16 9.55229 15.5523 10 15 10L1 10C0.447715 10 -3.73832e-07 9.55229 -3.49691e-07 9L-2.62268e-07 7C-2.38127e-07 6.44772 0.447715 6 1 6L9.5 6ZM1 7L15 7L15 9L1 9L1 7ZM1 11L15 11C15.5523 11 16 11.4477 16 12L16 14C16 14.5523 15.5523 15 15 15L1 15C0.447715 15 -5.92389e-07 14.5523 -5.68248e-07 14L-4.80825e-07 12C-4.56684e-07 11.4477 0.447715 11 1 11ZM1 12L15 12L15 14L1 14L1 12Z"/>
</svg>
