<svg width="16" height="16" viewBox="0 0 16 16" xmlns="http://www.w3.org/2000/svg">
<path d="M5.02601 15C11.0636 15 14.3673 9.99705 14.3673 5.66585C14.3673 5.5251 14.3673 5.38435 14.3609 5.2436C15.0012 4.78297 15.5582 4.20079 16 3.54183C15.411 3.80413 14.7771 3.97687 14.1112 4.06004C14.7899 3.65699 15.3085 3.01083 15.5582 2.24311C14.9244 2.62057 14.2201 2.88927 13.471 3.03642C12.8691 2.39665 12.0176 2 11.0764 2C9.26451 2 7.79192 3.47146 7.79192 5.28199C7.79192 5.53789 7.82393 5.7874 7.87515 6.03051C5.14766 5.89616 2.72749 4.58465 1.10764 2.60138C0.825931 3.0876 0.665866 3.65059 0.665866 4.25197C0.665866 5.39075 1.2485 6.39518 2.12565 6.98376C1.58784 6.96457 1.08203 6.81742 0.640256 6.57431C0.640256 6.58711 0.640256 6.5999 0.640256 6.61909C0.640256 8.20571 1.77351 9.53642 3.27171 9.83711C2.9964 9.91388 2.70828 9.95226 2.40736 9.95226C2.19608 9.95226 1.9912 9.93307 1.79272 9.89469C2.20888 11.1998 3.42537 12.1467 4.85954 12.1722C3.73269 13.0551 2.31773 13.5797 0.781113 13.5797C0.518608 13.5797 0.256102 13.5669 0 13.5349C1.44698 14.4562 3.17567 15 5.02601 15Z" />
</svg>
