<svg width="16" height="16" viewBox="0 0 16 16" xmlns="http://www.w3.org/2000/svg">
<path d="M7.63672 13V3.66896H6.37891V7.62013H1.75781V3.66896H0.5V13H1.75781V8.72755H6.37891V13H7.63672Z" />
<path d="M11.2617 8.72755H12.2803C13.4219 8.72755 14.2148 9.39747 14.2285 10.4024C14.2422 11.4072 13.4492 12.1387 12.2188 12.1318C11.1387 12.125 10.3662 11.544 10.2842 10.8125H9.1084C9.17676 12.1387 10.332 13.1983 12.1914 13.1983C14.126 13.1983 15.5342 12.043 15.5 10.4092C15.4727 8.89845 14.249 8.24903 13.4629 8.16017V8.09181C14.167 7.96876 15.2266 7.18263 15.1855 5.86329C15.1514 4.50978 14.0098 3.46388 12.2324 3.47755C10.3594 3.48439 9.375 4.63966 9.33398 5.83595H10.5303C10.5918 5.14552 11.2412 4.53712 12.2256 4.53712C13.2236 4.53712 13.9209 5.15919 13.9209 6.06153C13.9277 6.98439 13.2031 7.65431 12.2256 7.65431H11.2617V8.72755Z" />
</svg>
