<svg width="16" height="16" viewBox="0 0 16 16"  xmlns="http://www.w3.org/2000/svg">
<path d="M7.6377 13V3.66895H6.37988V7.62012H1.75879V3.66895H0.500977V13H1.75879V8.72754H6.37988V13H7.6377Z" />
<path d="M10.6602 6.2666C10.6602 6.25977 10.6602 6.22559 10.6602 6.21875C10.6602 5.33008 11.2891 4.55078 12.376 4.55078C13.333 4.55078 14.0508 5.15918 14.0508 6.12305C14.0508 6.97754 13.4971 7.62695 12.9844 8.20801L9.4707 12.207V13H15.5V11.9062H11.2549V11.8311L13.7363 8.9873C14.6113 7.98926 15.3223 7.20312 15.3223 6.03418C15.3223 4.57129 14.167 3.47754 12.4033 3.47754C10.4619 3.47754 9.43652 4.80371 9.43652 6.21875V6.2666H10.6602Z" />
</svg>
