<svg width="16" height="16" viewBox="0 0 16 16" xmlns="http://www.w3.org/2000/svg">
<path d="M11 1C9.89543 1 9 1.89543 9 3V7C10.1046 7 11 7.89543 11 9V14C11 15.1046 10.1046 16 9 16H3C1.89543 16 1 15.1046 1 14V9C1 7.89543 1.89543 7 3 7H8V3C8 1.34315 9.34315 0 11 0C12.6569 0 14 1.34315 14 3V7C14 7.27614 13.7761 7.5 13.5 7.5C13.2239 7.5 13 7.27614 13 7V3C13 1.89543 12.1046 1 11 1ZM3 8C2.44772 8 2 8.44772 2 9V14C2 14.5523 2.44772 15 3 15H9C9.55229 15 10 14.5523 10 14V9C10 8.44772 9.55229 8 9 8H3Z" />
</svg>
