<svg width="16" height="16" viewBox="0 0 16 16" xmlns="http://www.w3.org/2000/svg">
<path d="M13.4572 12.2906C13.5119 12.084 13.5167 11.8573 13.457 11.6222C12.9342 9.56051 11.4476 8.23639 9.68688 7.64986C9.39056 7.55115 9.08648 7.47333 8.77792 7.4164L10.3129 9.01536C11.079 9.45296 11.7165 10.0877 12.1312 10.9094L13.4572 12.2906Z" />
<path d="M6.88321 8.3307C4.84935 8.53445 3.04931 9.75038 2.51227 11.868C2.4819 11.9878 2.51062 12.0806 2.57451 12.1569C2.64733 12.2439 2.76155 12.3 2.88172 12.3H10.6938L11.6538 13.3H2.88172C2.03152 13.3 1.31451 12.5231 1.54296 11.6222C2.06581 9.56051 3.55238 8.23639 5.31311 7.64986C5.55102 7.57061 5.79393 7.50482 6.04014 7.4525L6.88321 8.3307Z" />
<path d="M4.71457 3.18374C5.15743 2.0797 6.23767 1.30005 7.5 1.30005C9.15685 1.30005 10.5 2.64319 10.5 4.30005C10.5 5.19628 10.107 6.00073 9.48392 6.55044C9.19935 6.80151 8.86678 6.99945 8.50175 7.12873L7.69702 6.29047C8.70911 6.1915 9.5 5.33814 9.5 4.30005C9.5 3.19548 8.60457 2.30005 7.5 2.30005C6.48982 2.30005 5.65456 3.04898 5.51919 4.02189L4.71457 3.18374Z" />
<path fill-rule="evenodd" clip-rule="evenodd" d="M13.6393 14.6463L1.63931 2.14631L2.36069 1.45378L14.3607 13.9538L13.6393 14.6463Z" />
</svg>
