<svg width="16" height="16" viewBox="0 0 16 16" xmlns="http://www.w3.org/2000/svg">
<path fill-rule="evenodd" clip-rule="evenodd" d="M1.00002 7.5C1.00002 6.94772 1.44774 6.5 2.00002 6.5H7.75002C8.45783 6.5 9.09594 6.92637 9.36681 7.5803C9.63768 8.23423 9.48796 8.98694 8.98746 9.48744L6.97489 11.5H8.50002C9.05231 11.5 9.50002 11.9477 9.50002 12.5V14C9.50002 14.5523 9.05231 15 8.50002 15H2.75002C2.04221 15 1.4041 14.5736 1.13323 13.9197C0.862365 13.2658 1.01209 12.5131 1.51258 12.0126L3.52515 10H2.00002C1.44774 10 1.00002 9.55228 1.00002 9V7.5ZM5.93936 9L2.21969 12.7197C2.00519 12.9342 1.94103 13.2568 2.05711 13.537C2.1732 13.8173 2.44667 14 2.75002 14H8.50002V12.5H4.56068L8.28035 8.78033C8.49485 8.56583 8.55902 8.24324 8.44293 7.96299C8.32684 7.68273 8.05337 7.5 7.75002 7.5H2.00002V9H5.93936Z" />
<path d="M12.2143 3.25H9V4.1875H11.1205L9.19627 6.20797C9.06695 6.34376 9.031 6.54355 9.10487 6.7159C9.17873 6.88825 9.3482 7 9.53572 7H12.75V6.0625H10.6295L12.5537 4.04203C12.683 3.90624 12.719 3.70645 12.6451 3.5341C12.5713 3.36175 12.4018 3.25 12.2143 3.25Z" />
<path d="M12.0682 1H14.5227C14.7136 1 14.8862 1.11003 14.9614 1.27973C15.0366 1.44943 15 1.64614 14.8683 1.77984L13.5909 3.07692H14.9318V4H13.0098C13.079 3.80403 13.075 3.58508 12.9898 3.38638C12.8875 3.14774 12.6834 2.97365 12.4411 2.90601L13.4091 1.92308H12.0682V1Z" />
</svg>
