<svg width="16" height="16" viewBox="0 0 16 16" xmlns="http://www.w3.org/2000/svg">
<path d="M8.45712 6.39998H1.59998V8.39998H6.12379L2.01869 12.7103C1.74281 13 1.66611 13.4262 1.82369 13.7939C1.98127 14.1616 2.3428 14.4 2.74283 14.4H9.59998V12.4H5.07617L9.18126 8.08963C9.45714 7.79995 9.53384 7.37374 9.37626 7.00606C9.21869 6.63837 8.85715 6.39998 8.45712 6.39998Z" />
<path d="M8.14544 1.59998H13.3818C13.7891 1.59998 14.1572 1.8347 14.3176 2.19673C14.4781 2.55876 14.4 2.97842 14.1191 3.26364L11.3939 6.03074H14.2545V7.99998H10.1542C10.3019 7.58191 10.2932 7.1148 10.1116 6.69092C9.8934 6.18182 9.45798 5.81043 8.9409 5.66612L11.006 3.56921H8.14544V1.59998Z" />
</svg>
