<svg width="16" height="16" viewBox="0 0 16 16" xmlns="http://www.w3.org/2000/svg">
<path fill-rule="evenodd" clip-rule="evenodd" d="M6.12356 0.24702C6.39029 0.175549 6.66446 0.33384 6.73593 0.600573L6.96678 1.46212C10.2142 0.824203 13.4485 2.46991 14.2462 5.44692L13.2802 5.70574C13.1628 5.26727 12.5329 4.8707 11.6933 5.09569C10.8536 5.32067 10.5065 5.97902 10.6239 6.41749L9.65802 6.67631C9.60754 6.48793 9.43146 6.28896 9.06968 6.16658C8.82888 6.08512 8.53049 6.04895 8.20316 6.07632L9.38847 10.5H15C15.2761 10.5 15.5 10.7238 15.5 11C15.5 11.2761 15.2761 11.5 15 11.5H9.65642L10.23 13.6406C10.3015 13.9073 10.1432 14.1815 9.87644 14.2529C9.6097 14.3244 9.33554 14.1661 9.26407 13.8994L8.62115 11.5H1C0.723858 11.5 0.5 11.2761 0.5 11C0.5 10.7238 0.723858 10.5 1 10.5H8.3532L7.23723 6.33514C6.94007 6.4751 6.69974 6.65562 6.53192 6.84657C6.27981 7.13345 6.2268 7.3938 6.27728 7.58217L5.31135 7.84099C5.19386 7.40252 4.56404 7.00596 3.72438 7.23094C2.88473 7.45593 2.53757 8.11428 2.65506 8.55275L1.68913 8.81156C0.891443 5.83456 2.86956 2.79219 6.00086 1.72094L5.77001 0.859392C5.69854 0.592659 5.85683 0.318491 6.12356 0.24702ZM5.02708 3.28147C3.72212 4.09873 2.85019 5.34308 2.59371 6.67221C2.85386 6.48947 3.15113 6.34927 3.46557 6.26502C3.97595 6.12826 4.52088 6.14177 4.99777 6.29859C4.90937 5.68692 4.85676 5.02862 4.88008 4.40692C4.89444 4.02429 4.93799 3.64001 5.02708 3.28147ZM8.59036 2.32669C10.1291 2.38198 11.5064 3.02365 12.3931 4.04648C12.0764 4.01829 11.7489 4.04551 11.4345 4.12976C10.9241 4.26652 10.4589 4.55068 10.1243 4.92494C9.89503 4.35101 9.61145 3.7546 9.2804 3.22786C9.07665 2.90367 8.8468 2.59265 8.59036 2.32669ZM5.9655 5.99616C6.35085 5.6356 6.86685 5.35365 7.45001 5.19739C8.03317 5.04113 8.62102 5.02731 9.13502 5.14689C8.93668 4.66843 8.70051 4.18446 8.43373 3.75998C8.14608 3.30229 7.84304 2.94659 7.54175 2.73341C7.25151 2.52805 6.99312 2.4728 6.73826 2.54109C6.4834 2.60938 6.28725 2.78642 6.13857 3.1094C5.98423 3.44465 5.89965 3.90422 5.87938 4.44442C5.86058 4.94542 5.89803 5.48263 5.9655 5.99616Z" />
</svg>
