<svg width="16" height="16" viewBox="0 0 16 16" xmlns="http://www.w3.org/2000/svg">
<path d="M13.8259 15.35H2.17414C1.41425 15.35 0.738786 14.9279 0.316623 14.3371C-0.105541 13.6618 -0.105541 12.9021 0.316623 12.2268L6.14248 2.09735C6.56464 1.42206 7.24011 1 8 1C8.75989 1 9.43536 1.42206 9.85752 2.01294L15.6834 12.1424C16.1055 12.8176 16.1055 13.5774 15.6834 14.2526C15.2612 14.9279 14.5858 15.35 13.8259 15.35ZM8 2.26618C7.66227 2.26618 7.40897 2.435 7.24011 2.68824L1.41425 12.8176C1.24538 13.0709 1.24538 13.4085 1.41425 13.6618C1.58311 13.915 1.83641 14.0838 2.17414 14.0838H13.9103C14.248 14.0838 14.5013 13.915 14.6702 13.6618C14.839 13.4085 14.839 13.0709 14.6702 12.8176L8.84433 2.68824C8.59103 2.435 8.33773 2.26618 8 2.26618Z"/>
</svg>
