<svg width="16" height="16" viewBox="0 0 16 16" xmlns="http://www.w3.org/2000/svg">
<path d="M0.101615 2.22294C0.0353359 2.47078 0 2.73126 0 3C0 4.65685 1.34315 6 3 6C3.27011 6 3.53189 5.9643 3.78087 5.89737L10.1224 12.149C10.0428 12.4188 10 12.7044 10 13C10 14.6569 11.3431 16 13 16C14.6569 16 16 14.6569 16 13C16 11.3431 14.6569 10 13 10C12.7044 10 12.4188 10.0428 12.149 10.1224L5.89736 3.78089C5.9643 3.53191 6 3.27012 6 3C6 1.34315 4.65685 0 3 0C2.73126 0 2.47078 0.0353359 2.22294 0.101615L4.36396 2.24264L4 3.99998L2.24264 4.36396L0.101615 2.22294ZM13.4711 11.242L14 11.2679L14.2869 11.713L14.7321 12L14.758 12.5289L15 13L14.758 13.471L14.7321 14L14.2869 14.2869L14 14.732L13.4711 14.758L13 15L12.5289 14.758L12 14.732L11.7131 14.2869L11.2679 14L11.242 13.471L11 13L11.242 12.5289L11.2679 12L11.7131 11.713L12 11.2679L12.5289 11.242L13 11L13.4711 11.242Z" />
</svg>
