<?xml version="1.0" encoding="UTF-8"?>
<svg width="200px" height="200px" viewBox="0 0 200 200" version="1.1" xmlns="http://www.w3.org/2000/svg" xmlns:xlink="http://www.w3.org/1999/xlink">
    <!-- Generator: Sketch 52.6 (67491) - http://www.bohemiancoding.com/sketch -->
    <title>knowledge_base_grid</title>
    <desc>Created with Sketch.</desc>
    <g id="knowledge_base_grid" stroke="none" stroke-width="1" fill="none" fill-rule="evenodd">
        <rect fill="#E6E7E8" x="0" y="0" width="200" height="200"></rect>
        <rect id="Rectangle-Copy-5" fill="#FFFFFF" x="20" y="20" width="46" height="46"></rect>
        <rect id="Rectangle-Copy-2" fill="#EBEBEB" x="20" y="66" width="46" height="1"></rect>
        <rect id="Rectangle-Copy-3" fill="#EBEBEB" x="77" y="66" width="46" height="1"></rect>
        <rect id="Rectangle-Copy-4" fill="#EBEBEB" x="134" y="66" width="46" height="1"></rect>
        <rect id="Rectangle-Copy-16" fill="#EBEBEB" x="20" y="123" width="46" height="1"></rect>
        <rect id="Rectangle-Copy-15" fill="#EBEBEB" x="77" y="123" width="46" height="1"></rect>
        <rect id="Rectangle-Copy-14" fill="#EBEBEB" x="134" y="123" width="46" height="1"></rect>
        <rect id="Rectangle-Copy-19" fill="#EBEBEB" x="20" y="180" width="46" height="1"></rect>
        <rect id="Rectangle-Copy-18" fill="#EBEBEB" x="77" y="180" width="46" height="1"></rect>
        <rect id="Rectangle-Copy-17" fill="#EBEBEB" x="134" y="180" width="46" height="1"></rect>
        <rect id="Rectangle-Copy-6" fill="#FFFFFF" x="77" y="20" width="46" height="46"></rect>
        <rect id="Rectangle-Copy-9" fill="#FFFFFF" x="134" y="20" width="46" height="46"></rect>
        <rect id="Rectangle-Copy-8" fill="#FFFFFF" x="20" y="77" width="46" height="46"></rect>
        <rect id="Rectangle-Copy-7" fill="#FFFFFF" x="77" y="77" width="46" height="46"></rect>
        <rect id="Rectangle-Copy-10" fill="#FFFFFF" x="134" y="77" width="46" height="46"></rect>
        <rect id="Rectangle-Copy-13" fill="#FFFFFF" x="20" y="134" width="46" height="46"></rect>
        <rect id="Rectangle-Copy-12" fill="#FFFFFF" x="77" y="134" width="46" height="46"></rect>
        <rect id="Rectangle-Copy-11" fill="#FFFFFF" x="134" y="134" width="46" height="46"></rect>
    </g>
</svg>