<?xml version="1.0" encoding="UTF-8"?>
<svg width="200px" height="200px" viewBox="0 0 200 200" version="1.1" xmlns="http://www.w3.org/2000/svg" xmlns:xlink="http://www.w3.org/1999/xlink">
    <!-- Generator: Sketch 52.6 (67491) - http://www.bohemiancoding.com/sketch -->
    <title>knowledge_base_accordion</title>
    <desc>Created with Sketch.</desc>
    <g id="knowledge_base_accordion" stroke="none" stroke-width="1" fill="none" fill-rule="evenodd">
        <rect fill="#E6E7E8" x="0" y="0" width="200" height="200"></rect>
        <rect id="Rectangle-Copy-4" fill="#FFFFFF" x="20" y="100" width="160" height="20"></rect>
        <rect id="Rectangle-Copy-6" fill="#FFFFFF" x="20" y="120" width="160" height="20"></rect>
        <rect id="Rectangle-Copy-7" fill="#FFFFFF" x="20" y="140" width="160" height="20"></rect>
        <rect id="Rectangle-Copy-8" fill="#FFFFFF" x="20" y="160" width="160" height="20"></rect>
        <rect id="Rectangle-Copy-5" fill="#FFFFFF" x="20" y="20" width="160" height="20"></rect>
        <rect id="Rectangle-Copy-17" fill="#EBEBEB" x="20" y="179" width="160" height="1"></rect>
        <rect id="Rectangle-Copy-18" fill="#EBEBEB" x="20" y="159" width="160" height="1"></rect>
        <rect id="Rectangle-Copy-19" fill="#EBEBEB" x="20" y="139" width="160" height="1"></rect>
        <rect id="Rectangle-Copy-20" fill="#EBEBEB" x="20" y="119" width="160" height="1"></rect>
        <rect id="Rectangle-Copy" fill="#CFD0D1" x="20" y="40" width="160" height="20"></rect>
        <rect id="Rectangle-Copy-2" fill="#CFD0D1" x="20" y="60" width="160" height="20"></rect>
        <rect id="Rectangle-Copy-3" fill="#CFD0D1" x="20" y="80" width="160" height="20"></rect>
        <rect id="Rectangle-Copy-21" fill="#E6E6E6" x="20" y="99" width="160" height="1"></rect>
        <rect id="Rectangle-Copy-22" fill="#E6E6E6" x="20" y="79" width="160" height="1"></rect>
        <rect id="Rectangle-Copy-23" fill="#E6E6E6" x="20" y="59" width="160" height="1"></rect>
        <rect id="Rectangle-Copy-24" fill="#EBEBEB" x="20" y="39" width="160" height="1"></rect>
    </g>
</svg>